<?xml version="1.0" encoding="utf-8"?>
<!-- Generator: Adobe Illustrator 26.0.2, SVG Export Plug-In . SVG Version: 6.00 Build 0)  -->
<svg version="1.1" id="Layer_1" xmlns="http://www.w3.org/2000/svg" xmlns:xlink="http://www.w3.org/1999/xlink" x="0px" y="0px"
	 viewBox="0 0 1011.6 662.4" style="enable-background:new 0 0 1011.6 662.4;" xml:space="preserve">
<style type="text/css">
	.st0{fill-opacity:0.2;}
	.st1{fill:#00485C;}
	.st2{font-family:'ArialMT';}
	.st3{font-size:14px;}
	.st4{fill:#89B79F;}
	.st5{fill:#57BCD6;}
	.st6{fill:#2070B4;}
	.st7{fill:#450256;}
	.st8{fill:#333333;}
	.st9{font-family:'OpenSans';}
	.st10{font-size:20px;}
	.st11{fill:#9C4397;}
	.st12{fill:#EFEEE8;}
	.st13{fill:#FFFFFF;}
	.st14{fill:#4A398A;}
</style>
<path class="st0" d="M413.1,287.4c160,0,160-107.1,320-107.1v2.1c-160,0-160,107.1-320,107.1V287.4z"/>
<path class="st0" d="M413.1,289.5c160,0,160-19.5,320-19.5v2.1c-160,0-160,19.5-320,19.5V289.5z"/>
<path class="st0" d="M413.1,291.7c160,0,160,24.7,320,24.7v2.1c-160,0-160-24.7-320-24.7V291.7z"/>
<path class="st0" d="M413.1,293.8c160,0,160,24.7,320,24.7v2.1c-160,0-160-24.7-320-24.7V293.8z"/>
<path class="st0" d="M413.1,122.8c160,0,160,46.8,320,46.8v2.1c-160,0-160-46.8-320-46.8V122.8z"/>
<path class="st0" d="M413.1,133.5c160,0,160,125.9,320,125.9v2.1c-160,0-160-125.9-320-125.9V133.5z"/>
<path class="st0" d="M413.1,127.1c160,0,160,73.9,320,73.9v2.1c-160,0-160-73.9-320-73.9V127.1z"/>
<path class="st0" d="M413.1,131.3c160,0,160,105.2,320,105.2v2.1c-160,0-160-105.2-320-105.2V131.3z"/>
<path class="st0" d="M413.1,185.5c160,0,160,76,320,76v2.1c-160,0-160-76-320-76V185.5z"/>
<path class="st0" d="M413.1,191.9c160,0,160,105.2,320,105.2v2.1c-160,0-160-105.2-320-105.2V191.9z"/>
<path class="st0" d="M413.1,266.7c160,0,160-50.8,320-50.8v2.1c-160,0-160,50.8-320,50.8V266.7z"/>
<path class="st0" d="M413.1,268.9c160,0,160,45.3,320,45.3v2.1c-160,0-160-45.3-320-45.3V268.9z"/>
<path class="st0" d="M413.1,341.6c160,0,160-67.2,320-67.2v2.1c-160,0-160,67.2-320,67.2V341.6z"/>
<path class="st0" d="M413.1,343.7c160,0,160-14.6,320-14.6v2.1c-160,0-160,14.6-320,14.6V343.7z"/>
<path class="st0" d="M413.1,154.2c160,0,160,19.7,320,19.7v2.1c-160,0-160-19.7-320-19.7V154.2z"/>
<path class="st0" d="M413.1,156.3c160,0,160,138.7,320,138.7v2.1c-160,0-160-138.7-320-138.7V156.3z"/>
<path class="st0" d="M413.1,316.6c160,0,160,4,320,4v2.1c-160,0-160-4-320-4V316.6z"/>
<path class="st0" d="M413.1,380.8c160,0,160-47.4,320-47.4v2.1c-160,0-160,47.4-320,47.4V380.8z"/>
<path class="st0" d="M413.1,187.6c160,0,160,76,320,76v2.1c-160,0-160-76-320-76V187.6z"/>
<path class="st0" d="M413.1,177c160,0,160,28.3,320,28.3v2.1c-160,0-160-28.3-320-28.3V177z"/>
<path class="st0" d="M413.1,194c160,0,160,105.2,320,105.2v2.1c-160,0-160-105.2-320-105.2V194z"/>
<path class="st0" d="M413.1,312.3c160,0,160-71.5,320-71.5v2.1c-160,0-160,71.5-320,71.5V312.3z"/>
<path class="st0" d="M413.1,318.7c160,0,160,4,320,4v2.1c-160,0-160-4-320-4V318.7z"/>
<path class="st0" d="M413.1,135.6c160,0,160,157.3,320,157.3v2.1c-160,0-160-157.3-320-157.3V135.6z"/>
<path class="st0" d="M413.1,124.9c160,0,160,46.8,320,46.8v2.1c-160,0-160-46.8-320-46.8V124.9z"/>
<path class="st0" d="M413.1,129.2c160,0,160,73.9,320,73.9v2.1c-160,0-160-73.9-320-73.9V129.2z"/>
<path class="st0" d="M413.1,320.9c160,0,160,4,320,4v2.1c-160,0-160-4-320-4V320.9z"/>
<path class="st0" d="M413.1,179.1c160,0,160,28.3,320,28.3v2.1c-160,0-160-28.3-320-28.3V179.1z"/>
<path class="st0" d="M413.1,196.2c160,0,160,105.2,320,105.2v2.1c-160,0-160-105.2-320-105.2V196.2z"/>
<path class="st0" d="M413.1,314.5c160,0,160-42.3,320-42.3v2.1c-160,0-160,42.3-320,42.3V314.5z"/>
<path class="st0" d="M413.1,323c160,0,160,4,320,4v2.1c-160,0-160-4-320-4V323z"/>
<path class="st0" d="M413.1,362.2c160,0,160-31,320-31v2.1c-160,0-160,31-320,31V362.2z"/>
<path class="st0" d="M413.1,417.9c160,0,160-80.2,320-80.2v2.1c-160,0-160,80.2-320,80.2V417.9z"/>
<path class="st0" d="M413.1,246.1c160,0,160-32.3,320-32.3v2.1c-160,0-160,32.3-320,32.3V246.1z"/>
<path class="st0" d="M413.1,248.2c160,0,160,63.9,320,63.9v2.1c-160,0-160-63.9-320-63.9V248.2z"/>
<path class="st0" d="M413.1,181.2c160,0,160,28.3,320,28.3v2.1c-160,0-160-28.3-320-28.3V181.2z"/>
<path class="st0" d="M413.1,399.3c160,0,160-63.8,320-63.8v2.1c-160,0-160,63.8-320,63.8V399.3z"/>
<path class="st0" d="M413.1,174.8c160,0,160,1.2,320,1.2v2.1c-160,0-160-1.2-320-1.2V174.8z"/>
<path class="st0" d="M413.1,189.8c160,0,160,76,320,76v2.1c-160,0-160-76-320-76V189.8z"/>
<path class="st0" d="M413.1,183.4c160,0,160,28.3,320,28.3v2.1c-160,0-160-28.3-320-28.3V183.4z"/>
<path class="st0" d="M413.1,198.3c160,0,160,105.2,320,105.2v2.1c-160,0-160-105.2-320-105.2V198.3z"/>
<path class="st0" d="M413.1,200.4c160,0,160,105.2,320,105.2v2.1c-160,0-160-105.2-320-105.2V200.4z"/>
<path class="st0" d="M413.1,100c160,0,160,67.5,320,67.5v2.1c-160,0-160-67.5-320-67.5V100z"/>
<path class="st0" d="M413.1,102.1c160,0,160,96.7,320,96.7v2.1c-160,0-160-96.7-320-96.7V102.1z"/>
<path class="st0" d="M413.1,104.3c160,0,160,130.2,320,130.2v2.1c-160,0-160-130.2-320-130.2V104.3z"/>
<path class="st0" d="M413.1,223.2c160,0,160,44.7,320,44.7v2.1c-160,0-160-44.7-320-44.7V223.2z"/>
<path class="st0" d="M413.1,221.1c160,0,160,17.6,320,17.6v2.1c-160,0-160-17.6-320-17.6V221.1z"/>
<path class="st0" d="M413.1,225.4c160,0,160,82.4,320,82.4v2.1c-160,0-160-82.4-320-82.4V225.4z"/>
<path class="st0" d="M413.1,219c160,0,160-40.8,320-40.8v2.1c-160,0-160,40.8-320,40.8V219z"/>
<path class="st0" d="M413.1,227.5c160,0,160,82.4,320,82.4v2.1c-160,0-160-82.4-320-82.4V227.5z"/>
<rect x="733.1" y="167.5" class="st1" width="10" height="14.9"/>
<g>
	<text transform="matrix(1 0 0 1 773.5209 175.9597)" class="st2 st3">O</text>
	<text transform="matrix(1 0 0 1 784.4243 175.9597)" class="st2 st3">u</text>
	<text transform="matrix(1 0 0 1 793.017 175.9597)" class="st2 st3">t</text>
	<text transform="matrix(1 0 0 1 797.9594 175.9597)" class="st2 st3"> </text>
	<text transform="matrix(1 0 0 1 801.5961 175.9597)" class="st2 st3">o</text>
	<text transform="matrix(1 0 0 1 810.0522 175.9597)" class="st2 st3">f</text>
	<text transform="matrix(1 0 0 1 814.7963 175.9597)" class="st2 st3"> </text>
	<text transform="matrix(1 0 0 1 818.433 175.9597)" class="st2 st3">d</text>
	<text transform="matrix(1 0 0 1 827.0121 175.9597)" class="st2 st3">i</text>
	<text transform="matrix(1 0 0 1 830.5532 175.9597)" class="st2 st3">s</text>
	<text transform="matrix(1 0 0 1 837.2319 175.9597)" class="st2 st3">t</text>
	<text transform="matrix(1 0 0 1 842.1743 175.9597)" class="st2 st3">r</text>
	<text transform="matrix(1 0 0 1 847.8891 175.9597)" class="st2 st3">i</text>
	<text transform="matrix(1 0 0 1 851.4301 175.9597)" class="st2 st3">b</text>
	<text transform="matrix(1 0 0 1 860.0092 175.9597)" class="st2 st3">u</text>
	<text transform="matrix(1 0 0 1 868.602 175.9597)" class="st2 st3">t</text>
	<text transform="matrix(1 0 0 1 873.5444 175.9597)" class="st2 st3">i</text>
	<text transform="matrix(1 0 0 1 877.0854 175.9597)" class="st2 st3">o</text>
	<text transform="matrix(1 0 0 1 885.5414 175.9597)" class="st2 st3">n</text>
</g>
<rect x="733.1" y="259.4" class="st4" width="10" height="17.1"/>
<text transform="matrix(1 0 0 1 773.5209 268.9233)" class="st2 st3">I</text>
<text transform="matrix(1 0 0 1 777.4243 268.9233)" class="st2 st3">n</text>
<text transform="matrix(1 0 0 1 786.017 268.9233)" class="st2 st3">t</text>
<text transform="matrix(1 0 0 1 790.9594 268.9233)" class="st2 st3">e</text>
<text transform="matrix(1 0 0 1 798.8139 268.9233)" class="st2 st3">r</text>
<text transform="matrix(1 0 0 1 804.5287 268.9233)" class="st2 st3">p</text>
<text transform="matrix(1 0 0 1 813.1078 268.9233)" class="st2 st3">r</text>
<text transform="matrix(1 0 0 1 818.8227 268.9233)" class="st2 st3">e</text>
<text transform="matrix(1 0 0 1 826.6772 268.9233)" class="st2 st3">t</text>
<text transform="matrix(1 0 0 1 831.6196 268.9233)" class="st2 st3">a</text>
<text transform="matrix(1 0 0 1 839.4057 268.9233)" class="st2 st3">b</text>
<text transform="matrix(1 0 0 1 847.9848 268.9233)" class="st2 st3">i</text>
<text transform="matrix(1 0 0 1 851.5258 268.9233)" class="st2 st3">l</text>
<text transform="matrix(1 0 0 1 855.0668 268.9233)" class="st2 st3">i</text>
<text transform="matrix(1 0 0 1 858.6078 268.9233)" class="st2 st3">t</text>
<text transform="matrix(1 0 0 1 863.5502 268.9233)" class="st2 st3">y</text>
<rect x="733.1" y="198.8" class="st5" width="10" height="19.2"/>
<text transform="matrix(1 0 0 1 773.5209 209.437)" class="st2 st3">R</text>
<text transform="matrix(1 0 0 1 782.1752 209.437)" class="st2 st3">e</text>
<text transform="matrix(1 0 0 1 790.0297 209.437)" class="st2 st3">d</text>
<text transform="matrix(1 0 0 1 798.6088 209.437)" class="st2 st3">u</text>
<text transform="matrix(1 0 0 1 807.2016 209.437)" class="st2 st3">c</text>
<text transform="matrix(1 0 0 1 813.8666 209.437)" class="st2 st3">e</text>
<text transform="matrix(1 0 0 1 821.7211 209.437)" class="st2 st3">d</text>
<text transform="matrix(1 0 0 1 830.3002 209.437)" class="st2 st3"> </text>
<text transform="matrix(1 0 0 1 833.937 209.437)" class="st2 st3">d</text>
<text transform="matrix(1 0 0 1 842.5161 209.437)" class="st2 st3">a</text>
<text transform="matrix(1 0 0 1 850.3022 209.437)" class="st2 st3">t</text>
<text transform="matrix(1 0 0 1 855.2446 209.437)" class="st2 st3">a</text>
<rect x="733.1" y="234.4" class="st6" width="10" height="8.5"/>
<g>
	<text transform="matrix(1 0 0 1 773.5209 239.7137)" class="st2 st3">T</text>
	<text transform="matrix(1 0 0 1 781.2661 239.7137)" class="st2 st3">r</text>
	<text transform="matrix(1 0 0 1 786.9809 239.7137)" class="st2 st3">a</text>
	<text transform="matrix(1 0 0 1 794.767 239.7137)" class="st2 st3">n</text>
	<text transform="matrix(1 0 0 1 803.3598 239.7137)" class="st2 st3">s</text>
	<text transform="matrix(1 0 0 1 810.0385 239.7137)" class="st2 st3">f</text>
	<text transform="matrix(1 0 0 1 814.7827 239.7137)" class="st2 st3">e</text>
	<text transform="matrix(1 0 0 1 822.6371 239.7137)" class="st2 st3">r</text>
	<text transform="matrix(1 0 0 1 828.352 239.7137)" class="st2 st3">a</text>
	<text transform="matrix(1 0 0 1 836.1381 239.7137)" class="st2 st3">b</text>
	<text transform="matrix(1 0 0 1 844.7172 239.7137)" class="st2 st3">i</text>
	<text transform="matrix(1 0 0 1 848.2582 239.7137)" class="st2 st3">l</text>
	<text transform="matrix(1 0 0 1 851.7993 239.7137)" class="st2 st3">i</text>
	<text transform="matrix(1 0 0 1 855.3403 239.7137)" class="st2 st3">t</text>
	<text transform="matrix(1 0 0 1 860.2827 239.7137)" class="st2 st3">y</text>
</g>
<rect x="733.1" y="292.9" class="st7" width="10" height="46.9"/>
<g>
	<text transform="matrix(1 0 0 1 773.5209 317.3337)" class="st2 st3">R</text>
	<text transform="matrix(1 0 0 1 782.1752 317.3337)" class="st2 st3">e</text>
	<text transform="matrix(1 0 0 1 790.0297 317.3337)" class="st2 st3">a</text>
	<text transform="matrix(1 0 0 1 797.8159 317.3337)" class="st2 st3">s</text>
	<text transform="matrix(1 0 0 1 804.4946 317.3337)" class="st2 st3">o</text>
	<text transform="matrix(1 0 0 1 812.9506 317.3337)" class="st2 st3">n</text>
	<text transform="matrix(1 0 0 1 821.5434 317.3337)" class="st2 st3">i</text>
	<text transform="matrix(1 0 0 1 825.0844 317.3337)" class="st2 st3">n</text>
	<text transform="matrix(1 0 0 1 833.6772 317.3337)" class="st2 st3">g</text>
</g>
<rect x="403.1" y="246.1" class="st8" width="10" height="4.3"/>
<text transform="matrix(1 0 0 1 252.1176 249.1843)" class="st2 st3">Q</text>
<text transform="matrix(1 0 0 1 263.0209 249.1843)" class="st2 st3">u</text>
<text transform="matrix(1 0 0 1 271.6136 249.1843)" class="st2 st3">e</text>
<text transform="matrix(1 0 0 1 279.4681 249.1843)" class="st2 st3">s</text>
<text transform="matrix(1 0 0 1 286.1469 249.1843)" class="st2 st3">t</text>
<text transform="matrix(1 0 0 1 291.0892 249.1843)" class="st2 st3">i</text>
<text transform="matrix(1 0 0 1 294.6302 249.1843)" class="st2 st3">o</text>
<text transform="matrix(1 0 0 1 303.0863 249.1843)" class="st2 st3">n</text>
<text transform="matrix(1 0 0 1 311.6791 249.1843)" class="st2 st3"> </text>
<text transform="matrix(1 0 0 1 315.3158 249.1843)" class="st2 st3">a</text>
<text transform="matrix(1 0 0 1 323.1019 249.1843)" class="st2 st3">n</text>
<text transform="matrix(1 0 0 1 331.6947 249.1843)" class="st2 st3">s</text>
<text transform="matrix(1 0 0 1 338.3734 249.1843)" class="st2 st3">w</text>
<text transform="matrix(1 0 0 1 349.2631 249.1843)" class="st2 st3">e</text>
<text transform="matrix(1 0 0 1 357.1175 249.1843)" class="st2 st3">r</text>
<text transform="matrix(1 0 0 1 362.8324 249.1843)" class="st2 st3">i</text>
<text transform="matrix(1 0 0 1 366.3734 249.1843)" class="st2 st3">n</text>
<text transform="matrix(1 0 0 1 374.9662 249.1843)" class="st2 st3">g</text>
<rect x="403.1" y="362.2" class="st8" width="10" height="2.1"/>
<g>
	<text transform="matrix(1 0 0 1 267.9633 364.3027)" class="st2 st3">T</text>
	<text transform="matrix(1 0 0 1 275.7084 364.3027)" class="st2 st3">e</text>
	<text transform="matrix(1 0 0 1 283.5629 364.3027)" class="st2 st3">x</text>
	<text transform="matrix(1 0 0 1 290.8978 364.3027)" class="st2 st3">t</text>
	<text transform="matrix(1 0 0 1 295.8402 364.3027)" class="st2 st3"> </text>
	<text transform="matrix(1 0 0 1 299.4769 364.3027)" class="st2 st3">c</text>
	<text transform="matrix(1 0 0 1 306.142 364.3027)" class="st2 st3">l</text>
	<text transform="matrix(1 0 0 1 309.683 364.3027)" class="st2 st3">a</text>
	<text transform="matrix(1 0 0 1 317.4691 364.3027)" class="st2 st3">s</text>
	<text transform="matrix(1 0 0 1 324.1478 364.3027)" class="st2 st3">s</text>
	<text transform="matrix(1 0 0 1 330.8265 364.3027)" class="st2 st3">i</text>
	<text transform="matrix(1 0 0 1 334.3676 364.3027)" class="st2 st3">f</text>
	<text transform="matrix(1 0 0 1 339.1117 364.3027)" class="st2 st3">i</text>
	<text transform="matrix(1 0 0 1 342.6527 364.3027)" class="st2 st3">c</text>
	<text transform="matrix(1 0 0 1 349.3177 364.3027)" class="st2 st3">a</text>
	<text transform="matrix(1 0 0 1 357.1039 364.3027)" class="st2 st3">t</text>
	<text transform="matrix(1 0 0 1 362.0463 364.3027)" class="st2 st3">i</text>
	<text transform="matrix(1 0 0 1 365.5873 364.3027)" class="st2 st3">o</text>
	<text transform="matrix(1 0 0 1 374.0433 364.3027)" class="st2 st3">n</text>
</g>
<rect x="403.1" y="341.6" class="st8" width="10" height="4.3"/>
<text transform="matrix(1 0 0 1 260.3138 344.6924)" class="st2 st3">S</text>
<text transform="matrix(1 0 0 1 267.9974 344.6924)" class="st2 st3">e</text>
<text transform="matrix(1 0 0 1 275.8519 344.6924)" class="st2 st3">n</text>
<text transform="matrix(1 0 0 1 284.4447 344.6924)" class="st2 st3">t</text>
<text transform="matrix(1 0 0 1 289.3871 344.6924)" class="st2 st3">i</text>
<text transform="matrix(1 0 0 1 292.9281 344.6924)" class="st2 st3">m</text>
<text transform="matrix(1 0 0 1 305.9506 344.6924)" class="st2 st3">e</text>
<text transform="matrix(1 0 0 1 313.8051 344.6924)" class="st2 st3">n</text>
<text transform="matrix(1 0 0 1 322.3978 344.6924)" class="st2 st3">t</text>
<text transform="matrix(1 0 0 1 327.3402 344.6924)" class="st2 st3"> </text>
<text transform="matrix(1 0 0 1 330.9769 344.6924)" class="st2 st3">a</text>
<text transform="matrix(1 0 0 1 338.7631 344.6924)" class="st2 st3">n</text>
<text transform="matrix(1 0 0 1 347.3558 344.6924)" class="st2 st3">a</text>
<text transform="matrix(1 0 0 1 355.142 344.6924)" class="st2 st3">l</text>
<text transform="matrix(1 0 0 1 358.683 344.6924)" class="st2 st3">y</text>
<text transform="matrix(1 0 0 1 365.7376 344.6924)" class="st2 st3">s</text>
<text transform="matrix(1 0 0 1 372.4164 344.6924)" class="st2 st3">i</text>
<text transform="matrix(1 0 0 1 375.9574 344.6924)" class="st2 st3">s</text>
<rect x="403.1" y="380.8" class="st8" width="10" height="2.1"/>
<g>
	<text transform="matrix(1 0 0 1 178.8568 382.8457)" class="st2 st3">K</text>
	<text transform="matrix(1 0 0 1 187.4496 382.8457)" class="st2 st3">G</text>
	<text transform="matrix(1 0 0 1 197.642 382.8457)" class="st2 st3"> </text>
	<text transform="matrix(1 0 0 1 201.2787 382.8457)" class="st2 st3">C</text>
	<text transform="matrix(1 0 0 1 210.1107 382.8457)" class="st2 st3">o</text>
	<text transform="matrix(1 0 0 1 218.5668 382.8457)" class="st2 st3">m</text>
	<text transform="matrix(1 0 0 1 231.5892 382.8457)" class="st2 st3">p</text>
	<text transform="matrix(1 0 0 1 240.1683 382.8457)" class="st2 st3">l</text>
	<text transform="matrix(1 0 0 1 243.7094 382.8457)" class="st2 st3">e</text>
	<text transform="matrix(1 0 0 1 251.5638 382.8457)" class="st2 st3">t</text>
	<text transform="matrix(1 0 0 1 256.5062 382.8457)" class="st2 st3">i</text>
	<text transform="matrix(1 0 0 1 260.0472 382.8457)" class="st2 st3">o</text>
	<text transform="matrix(1 0 0 1 268.5033 382.8457)" class="st2 st3">n</text>
	<text transform="matrix(1 0 0 1 277.096 382.8457)" class="st2 st3"> </text>
	<text transform="matrix(1 0 0 1 280.7328 382.8457)" class="st2 st3">/</text>
	<text transform="matrix(1 0 0 1 285.8734 382.8457)" class="st2 st3"> </text>
	<text transform="matrix(1 0 0 1 289.5101 382.8457)" class="st2 st3">l</text>
	<text transform="matrix(1 0 0 1 293.0511 382.8457)" class="st2 st3">i</text>
	<text transform="matrix(1 0 0 1 296.5922 382.8457)" class="st2 st3">n</text>
	<text transform="matrix(1 0 0 1 305.1849 382.8457)" class="st2 st3">k</text>
	<text transform="matrix(1 0 0 1 312.5336 382.8457)" class="st2 st3"> </text>
	<text transform="matrix(1 0 0 1 316.1703 382.8457)" class="st2 st3">p</text>
	<text transform="matrix(1 0 0 1 324.7494 382.8457)" class="st2 st3">r</text>
	<text transform="matrix(1 0 0 1 330.4642 382.8457)" class="st2 st3">e</text>
	<text transform="matrix(1 0 0 1 338.3187 382.8457)" class="st2 st3">d</text>
	<text transform="matrix(1 0 0 1 346.8978 382.8457)" class="st2 st3">i</text>
	<text transform="matrix(1 0 0 1 350.4388 382.8457)" class="st2 st3">c</text>
	<text transform="matrix(1 0 0 1 357.1039 382.8457)" class="st2 st3">t</text>
	<text transform="matrix(1 0 0 1 362.0463 382.8457)" class="st2 st3">i</text>
	<text transform="matrix(1 0 0 1 365.5873 382.8457)" class="st2 st3">o</text>
	<text transform="matrix(1 0 0 1 374.0433 382.8457)" class="st2 st3">n</text>
</g>
<rect x="403.1" y="399.3" class="st8" width="10" height="2.1"/>
<g>
	<text transform="matrix(1 0 0 1 212.264 401.3897)" class="st2 st3">C</text>
	<text transform="matrix(1 0 0 1 221.0961 401.3897)" class="st2 st3">a</text>
	<text transform="matrix(1 0 0 1 228.8822 401.3897)" class="st2 st3">u</text>
	<text transform="matrix(1 0 0 1 237.475 401.3897)" class="st2 st3">s</text>
	<text transform="matrix(1 0 0 1 244.1537 401.3897)" class="st2 st3">e</text>
	<text transform="matrix(1 0 0 1 252.0082 401.3897)" class="st2 st3">-</text>
	<text transform="matrix(1 0 0 1 256.5131 401.3897)" class="st2 st3">e</text>
	<text transform="matrix(1 0 0 1 264.3676 401.3897)" class="st2 st3">f</text>
	<text transform="matrix(1 0 0 1 269.1117 401.3897)" class="st2 st3">f</text>
	<text transform="matrix(1 0 0 1 273.8558 401.3897)" class="st2 st3">e</text>
	<text transform="matrix(1 0 0 1 281.7103 401.3897)" class="st2 st3">c</text>
	<text transform="matrix(1 0 0 1 288.3754 401.3897)" class="st2 st3">t</text>
	<text transform="matrix(1 0 0 1 293.3177 401.3897)" class="st2 st3"> </text>
	<text transform="matrix(1 0 0 1 296.9545 401.3897)" class="st2 st3">I</text>
	<text transform="matrix(1 0 0 1 300.8578 401.3897)" class="st2 st3">d</text>
	<text transform="matrix(1 0 0 1 309.4369 401.3897)" class="st2 st3">e</text>
	<text transform="matrix(1 0 0 1 317.2914 401.3897)" class="st2 st3">n</text>
	<text transform="matrix(1 0 0 1 325.8842 401.3897)" class="st2 st3">t</text>
	<text transform="matrix(1 0 0 1 330.8265 401.3897)" class="st2 st3">i</text>
	<text transform="matrix(1 0 0 1 334.3676 401.3897)" class="st2 st3">f</text>
	<text transform="matrix(1 0 0 1 339.1117 401.3897)" class="st2 st3">i</text>
	<text transform="matrix(1 0 0 1 342.6527 401.3897)" class="st2 st3">c</text>
	<text transform="matrix(1 0 0 1 349.3177 401.3897)" class="st2 st3">a</text>
	<text transform="matrix(1 0 0 1 357.1039 401.3897)" class="st2 st3">t</text>
	<text transform="matrix(1 0 0 1 362.0463 401.3897)" class="st2 st3">i</text>
	<text transform="matrix(1 0 0 1 365.5873 401.3897)" class="st2 st3">o</text>
	<text transform="matrix(1 0 0 1 374.0433 401.3897)" class="st2 st3">n</text>
</g>
<rect x="403.1" y="287.4" class="st8" width="10" height="8.5"/>
<g>
	<text transform="matrix(1 0 0 1 177.8451 292.6717)" class="st2 st3">T</text>
	<text transform="matrix(1 0 0 1 185.5902 292.6717)" class="st2 st3">o</text>
	<text transform="matrix(1 0 0 1 194.0463 292.6717)" class="st2 st3">p</text>
	<text transform="matrix(1 0 0 1 202.6254 292.6717)" class="st2 st3">i</text>
	<text transform="matrix(1 0 0 1 206.1664 292.6717)" class="st2 st3">c</text>
	<text transform="matrix(1 0 0 1 212.8314 292.6717)" class="st2 st3"> </text>
	<text transform="matrix(1 0 0 1 216.4681 292.6717)" class="st2 st3">m</text>
	<text transform="matrix(1 0 0 1 229.4906 292.6717)" class="st2 st3">o</text>
	<text transform="matrix(1 0 0 1 237.9467 292.6717)" class="st2 st3">d</text>
	<text transform="matrix(1 0 0 1 246.5258 292.6717)" class="st2 st3">e</text>
	<text transform="matrix(1 0 0 1 254.3802 292.6717)" class="st2 st3">l</text>
	<text transform="matrix(1 0 0 1 257.9213 292.6717)" class="st2 st3">i</text>
	<text transform="matrix(1 0 0 1 261.4623 292.6717)" class="st2 st3">n</text>
	<text transform="matrix(1 0 0 1 270.0551 292.6717)" class="st2 st3">g</text>
	<text transform="matrix(1 0 0 1 277.725 292.6717)" class="st2 st3"> </text>
	<text transform="matrix(1 0 0 1 281.3617 292.6717)" class="st2 st3">/</text>
	<text transform="matrix(1 0 0 1 286.5023 292.6717)" class="st2 st3"> </text>
	<text transform="matrix(1 0 0 1 290.139 292.6717)" class="st2 st3">c</text>
	<text transform="matrix(1 0 0 1 296.8041 292.6717)" class="st2 st3">a</text>
	<text transform="matrix(1 0 0 1 304.5902 292.6717)" class="st2 st3">t</text>
	<text transform="matrix(1 0 0 1 309.5326 292.6717)" class="st2 st3">e</text>
	<text transform="matrix(1 0 0 1 317.3871 292.6717)" class="st2 st3">g</text>
	<text transform="matrix(1 0 0 1 325.057 292.6717)" class="st2 st3">o</text>
	<text transform="matrix(1 0 0 1 333.5131 292.6717)" class="st2 st3">r</text>
	<text transform="matrix(1 0 0 1 339.2279 292.6717)" class="st2 st3">i</text>
	<text transform="matrix(1 0 0 1 342.7689 292.6717)" class="st2 st3">z</text>
	<text transform="matrix(1 0 0 1 349.3177 292.6717)" class="st2 st3">a</text>
	<text transform="matrix(1 0 0 1 357.1039 292.6717)" class="st2 st3">t</text>
	<text transform="matrix(1 0 0 1 362.0463 292.6717)" class="st2 st3">i</text>
	<text transform="matrix(1 0 0 1 365.5873 292.6717)" class="st2 st3">o</text>
	<text transform="matrix(1 0 0 1 374.0433 292.6717)" class="st2 st3">n</text>
</g>
<rect x="403.1" y="174.8" class="st8" width="10" height="27.7"/>
<g>
	<text transform="matrix(1 0 0 1 291.5677 189.6977)" class="st2 st3">D</text>
	<text transform="matrix(1 0 0 1 301.7738 189.6977)" class="st2 st3">i</text>
	<text transform="matrix(1 0 0 1 305.3148 189.6977)" class="st2 st3">a</text>
	<text transform="matrix(1 0 0 1 313.101 189.6977)" class="st2 st3">l</text>
	<text transform="matrix(1 0 0 1 316.642 189.6977)" class="st2 st3">o</text>
	<text transform="matrix(1 0 0 1 325.098 189.6977)" class="st2 st3">g</text>
	<text transform="matrix(1 0 0 1 332.7679 189.6977)" class="st2 st3"> </text>
	<text transform="matrix(1 0 0 1 336.4047 189.6977)" class="st2 st3">s</text>
	<text transform="matrix(1 0 0 1 343.0834 189.6977)" class="st2 st3">y</text>
	<text transform="matrix(1 0 0 1 350.1381 189.6977)" class="st2 st3">s</text>
	<text transform="matrix(1 0 0 1 356.8168 189.6977)" class="st2 st3">t</text>
	<text transform="matrix(1 0 0 1 361.7592 189.6977)" class="st2 st3">e</text>
	<text transform="matrix(1 0 0 1 369.6136 189.6977)" class="st2 st3">m</text>
</g>
<rect x="403.1" y="417.9" class="st8" width="10" height="2.1"/>
<text transform="matrix(1 0 0 1 262.8842 419.9337)" class="st2 st3">T</text>
<text transform="matrix(1 0 0 1 270.6293 419.9337)" class="st2 st3">e</text>
<text transform="matrix(1 0 0 1 278.4838 419.9337)" class="st2 st3">x</text>
<text transform="matrix(1 0 0 1 285.8187 419.9337)" class="st2 st3">t</text>
<text transform="matrix(1 0 0 1 290.7611 419.9337)" class="st2 st3">u</text>
<text transform="matrix(1 0 0 1 299.3539 419.9337)" class="st2 st3">a</text>
<text transform="matrix(1 0 0 1 307.14 419.9337)" class="st2 st3">l</text>
<text transform="matrix(1 0 0 1 310.681 419.9337)" class="st2 st3"> </text>
<text transform="matrix(1 0 0 1 314.3177 419.9337)" class="st2 st3">r</text>
<text transform="matrix(1 0 0 1 320.0326 419.9337)" class="st2 st3">e</text>
<text transform="matrix(1 0 0 1 327.8871 419.9337)" class="st2 st3">a</text>
<text transform="matrix(1 0 0 1 335.6732 419.9337)" class="st2 st3">s</text>
<text transform="matrix(1 0 0 1 342.3519 419.9337)" class="st2 st3">o</text>
<text transform="matrix(1 0 0 1 350.808 419.9337)" class="st2 st3">n</text>
<text transform="matrix(1 0 0 1 359.4008 419.9337)" class="st2 st3">i</text>
<text transform="matrix(1 0 0 1 362.9418 419.9337)" class="st2 st3">n</text>
<text transform="matrix(1 0 0 1 371.5345 419.9337)" class="st2 st3">g</text>
<rect x="403.1" y="312.3" class="st8" width="10" height="12.8"/>
<text transform="matrix(1 0 0 1 309.8744 319.749)" class="st2 st3">A</text>
<text transform="matrix(1 0 0 1 318.7338 319.749)" class="st2 st3">n</text>
<text transform="matrix(1 0 0 1 327.3265 319.749)" class="st2 st3">n</text>
<text transform="matrix(1 0 0 1 335.9193 319.749)" class="st2 st3">o</text>
<text transform="matrix(1 0 0 1 344.3754 319.749)" class="st2 st3">t</text>
<text transform="matrix(1 0 0 1 349.3177 319.749)" class="st2 st3">a</text>
<text transform="matrix(1 0 0 1 357.1039 319.749)" class="st2 st3">t</text>
<text transform="matrix(1 0 0 1 362.0463 319.749)" class="st2 st3">i</text>
<text transform="matrix(1 0 0 1 365.5873 319.749)" class="st2 st3">o</text>
<text transform="matrix(1 0 0 1 374.0433 319.749)" class="st2 st3">n</text>
<rect x="403.1" y="122.8" class="st8" width="10" height="14.9"/>
<g>
	<text transform="matrix(1 0 0 1 309.2592 131.2767)" class="st2 st3">T</text>
	<text transform="matrix(1 0 0 1 317.0043 131.2767)" class="st2 st3">r</text>
	<text transform="matrix(1 0 0 1 322.7191 131.2767)" class="st2 st3">a</text>
	<text transform="matrix(1 0 0 1 330.5052 131.2767)" class="st2 st3">n</text>
	<text transform="matrix(1 0 0 1 339.098 131.2767)" class="st2 st3">s</text>
	<text transform="matrix(1 0 0 1 345.7767 131.2767)" class="st2 st3">l</text>
	<text transform="matrix(1 0 0 1 349.3177 131.2767)" class="st2 st3">a</text>
	<text transform="matrix(1 0 0 1 357.1039 131.2767)" class="st2 st3">t</text>
	<text transform="matrix(1 0 0 1 362.0463 131.2767)" class="st2 st3">i</text>
	<text transform="matrix(1 0 0 1 365.5873 131.2767)" class="st2 st3">o</text>
	<text transform="matrix(1 0 0 1 374.0433 131.2767)" class="st2 st3">n</text>
</g>
<rect x="403.1" y="154.2" class="st8" width="10" height="4.3"/>
<g>
	<text transform="matrix(1 0 0 1 279.9877 157.2874)" class="st2 st3">F</text>
	<text transform="matrix(1 0 0 1 287.2133 157.2874)" class="st2 st3">a</text>
	<text transform="matrix(1 0 0 1 294.9994 157.2874)" class="st2 st3">c</text>
	<text transform="matrix(1 0 0 1 301.6644 157.2874)" class="st2 st3">t</text>
	<text transform="matrix(1 0 0 1 306.6068 157.2874)" class="st2 st3"> </text>
	<text transform="matrix(1 0 0 1 310.2435 157.2874)" class="st2 st3">v</text>
	<text transform="matrix(1 0 0 1 317.2572 157.2874)" class="st2 st3">e</text>
	<text transform="matrix(1 0 0 1 325.1117 157.2874)" class="st2 st3">r</text>
	<text transform="matrix(1 0 0 1 330.8265 157.2874)" class="st2 st3">i</text>
	<text transform="matrix(1 0 0 1 334.3676 157.2874)" class="st2 st3">f</text>
	<text transform="matrix(1 0 0 1 339.1117 157.2874)" class="st2 st3">i</text>
	<text transform="matrix(1 0 0 1 342.6527 157.2874)" class="st2 st3">c</text>
	<text transform="matrix(1 0 0 1 349.3177 157.2874)" class="st2 st3">a</text>
	<text transform="matrix(1 0 0 1 357.1039 157.2874)" class="st2 st3">t</text>
	<text transform="matrix(1 0 0 1 362.0463 157.2874)" class="st2 st3">i</text>
	<text transform="matrix(1 0 0 1 365.5873 157.2874)" class="st2 st3">o</text>
	<text transform="matrix(1 0 0 1 374.0433 157.2874)" class="st2 st3">n</text>
</g>
<rect x="403.1" y="219" class="st8" width="10" height="10.7"/>
<text transform="matrix(1 0 0 1 235.4174 225.3073)" class="st2 st3">I</text>
<text transform="matrix(1 0 0 1 239.3207 225.3073)" class="st2 st3">n</text>
<text transform="matrix(1 0 0 1 247.9135 225.3073)" class="st2 st3">f</text>
<text transform="matrix(1 0 0 1 252.6576 225.3073)" class="st2 st3">o</text>
<text transform="matrix(1 0 0 1 261.1136 225.3073)" class="st2 st3">r</text>
<text transform="matrix(1 0 0 1 266.8285 225.3073)" class="st2 st3">m</text>
<text transform="matrix(1 0 0 1 279.851 225.3073)" class="st2 st3">a</text>
<text transform="matrix(1 0 0 1 287.6371 225.3073)" class="st2 st3">t</text>
<text transform="matrix(1 0 0 1 292.5795 225.3073)" class="st2 st3">i</text>
<text transform="matrix(1 0 0 1 296.1205 225.3073)" class="st2 st3">o</text>
<text transform="matrix(1 0 0 1 304.5765 225.3073)" class="st2 st3">n</text>
<text transform="matrix(1 0 0 1 313.1693 225.3073)" class="st2 st3"> </text>
<text transform="matrix(1 0 0 1 316.806 225.3073)" class="st2 st3">e</text>
<text transform="matrix(1 0 0 1 324.6605 225.3073)" class="st2 st3">x</text>
<text transform="matrix(1 0 0 1 331.9955 225.3073)" class="st2 st3">t</text>
<text transform="matrix(1 0 0 1 336.9378 225.3073)" class="st2 st3">r</text>
<text transform="matrix(1 0 0 1 342.6527 225.3073)" class="st2 st3">a</text>
<text transform="matrix(1 0 0 1 350.4388 225.3073)" class="st2 st3">c</text>
<text transform="matrix(1 0 0 1 357.1039 225.3073)" class="st2 st3">t</text>
<text transform="matrix(1 0 0 1 362.0463 225.3073)" class="st2 st3">i</text>
<text transform="matrix(1 0 0 1 365.5873 225.3073)" class="st2 st3">o</text>
<text transform="matrix(1 0 0 1 374.0433 225.3073)" class="st2 st3">n</text>
<rect x="403.1" y="266.7" class="st8" width="10" height="4.3"/>
<g>
	<text transform="matrix(1 0 0 1 60.7523 269.8613)" class="st2 st3">T</text>
	<text transform="matrix(1 0 0 1 68.4974 269.8613)" class="st2 st3">e</text>
	<text transform="matrix(1 0 0 1 76.3519 269.8613)" class="st2 st3">x</text>
	<text transform="matrix(1 0 0 1 83.6869 269.8613)" class="st2 st3">t</text>
	<text transform="matrix(1 0 0 1 88.6293 269.8613)" class="st2 st3"> </text>
	<text transform="matrix(1 0 0 1 92.266 269.8613)" class="st2 st3">c</text>
	<text transform="matrix(1 0 0 1 98.931 269.8613)" class="st2 st3">l</text>
	<text transform="matrix(1 0 0 1 102.472 269.8613)" class="st2 st3">a</text>
	<text transform="matrix(1 0 0 1 110.2582 269.8613)" class="st2 st3">s</text>
	<text transform="matrix(1 0 0 1 116.9369 269.8613)" class="st2 st3">s</text>
	<text transform="matrix(1 0 0 1 123.6156 269.8613)" class="st2 st3">i</text>
	<text transform="matrix(1 0 0 1 127.1566 269.8613)" class="st2 st3">f</text>
	<text transform="matrix(1 0 0 1 131.9008 269.8613)" class="st2 st3">i</text>
	<text transform="matrix(1 0 0 1 135.4418 269.8613)" class="st2 st3">c</text>
	<text transform="matrix(1 0 0 1 142.1068 269.8613)" class="st2 st3">a</text>
	<text transform="matrix(1 0 0 1 149.8929 269.8613)" class="st2 st3">t</text>
	<text transform="matrix(1 0 0 1 154.8353 269.8613)" class="st2 st3">i</text>
	<text transform="matrix(1 0 0 1 158.3763 269.8613)" class="st2 st3">o</text>
	<text transform="matrix(1 0 0 1 166.8324 269.8613)" class="st2 st3">n</text>
	<text transform="matrix(1 0 0 1 175.4252 269.8613)" class="st2 st3">,</text>
	<text transform="matrix(1 0 0 1 178.8568 269.8613)" class="st2 st3">K</text>
	<text transform="matrix(1 0 0 1 187.4496 269.8613)" class="st2 st3">G</text>
	<text transform="matrix(1 0 0 1 197.642 269.8613)" class="st2 st3"> </text>
	<text transform="matrix(1 0 0 1 201.2787 269.8613)" class="st2 st3">C</text>
	<text transform="matrix(1 0 0 1 210.1107 269.8613)" class="st2 st3">o</text>
	<text transform="matrix(1 0 0 1 218.5668 269.8613)" class="st2 st3">m</text>
	<text transform="matrix(1 0 0 1 231.5892 269.8613)" class="st2 st3">p</text>
	<text transform="matrix(1 0 0 1 240.1683 269.8613)" class="st2 st3">l</text>
	<text transform="matrix(1 0 0 1 243.7094 269.8613)" class="st2 st3">e</text>
	<text transform="matrix(1 0 0 1 251.5638 269.8613)" class="st2 st3">t</text>
	<text transform="matrix(1 0 0 1 256.5062 269.8613)" class="st2 st3">i</text>
	<text transform="matrix(1 0 0 1 260.0472 269.8613)" class="st2 st3">o</text>
	<text transform="matrix(1 0 0 1 268.5033 269.8613)" class="st2 st3">n</text>
	<text transform="matrix(1 0 0 1 277.0961 269.8613)" class="st2 st3"> </text>
	<text transform="matrix(1 0 0 1 280.7328 269.8613)" class="st2 st3">/</text>
	<text transform="matrix(1 0 0 1 285.8734 269.8613)" class="st2 st3"> </text>
	<text transform="matrix(1 0 0 1 289.5101 269.8613)" class="st2 st3">l</text>
	<text transform="matrix(1 0 0 1 293.0511 269.8613)" class="st2 st3">i</text>
	<text transform="matrix(1 0 0 1 296.5922 269.8613)" class="st2 st3">n</text>
	<text transform="matrix(1 0 0 1 305.1849 269.8613)" class="st2 st3">k</text>
	<text transform="matrix(1 0 0 1 312.5336 269.8613)" class="st2 st3"> </text>
	<text transform="matrix(1 0 0 1 316.1703 269.8613)" class="st2 st3">p</text>
	<text transform="matrix(1 0 0 1 324.7494 269.8613)" class="st2 st3">r</text>
	<text transform="matrix(1 0 0 1 330.4642 269.8613)" class="st2 st3">e</text>
	<text transform="matrix(1 0 0 1 338.3187 269.8613)" class="st2 st3">d</text>
	<text transform="matrix(1 0 0 1 346.8978 269.8613)" class="st2 st3">i</text>
	<text transform="matrix(1 0 0 1 350.4388 269.8613)" class="st2 st3">c</text>
	<text transform="matrix(1 0 0 1 357.1039 269.8613)" class="st2 st3">t</text>
	<text transform="matrix(1 0 0 1 362.0463 269.8613)" class="st2 st3">i</text>
	<text transform="matrix(1 0 0 1 365.5873 269.8613)" class="st2 st3">o</text>
	<text transform="matrix(1 0 0 1 374.0433 269.8613)" class="st2 st3">n</text>
</g>
<rect x="403.1" y="100" class="st8" width="10" height="6.4"/>
<text transform="matrix(1 0 0 1 252.8969 104.2)" class="st2 st3">T</text>
<text transform="matrix(1 0 0 1 260.642 104.2)" class="st2 st3">e</text>
<text transform="matrix(1 0 0 1 268.4965 104.2)" class="st2 st3">x</text>
<text transform="matrix(1 0 0 1 275.8314 104.2)" class="st2 st3">t</text>
<text transform="matrix(1 0 0 1 280.7738 104.2)" class="st2 st3"> </text>
<text transform="matrix(1 0 0 1 284.4105 104.2)" class="st2 st3">s</text>
<text transform="matrix(1 0 0 1 291.0892 104.2)" class="st2 st3">u</text>
<text transform="matrix(1 0 0 1 299.682 104.2)" class="st2 st3">m</text>
<text transform="matrix(1 0 0 1 312.7045 104.2)" class="st2 st3">m</text>
<text transform="matrix(1 0 0 1 325.7269 104.2)" class="st2 st3">a</text>
<text transform="matrix(1 0 0 1 333.5131 104.2)" class="st2 st3">r</text>
<text transform="matrix(1 0 0 1 339.2279 104.2)" class="st2 st3">i</text>
<text transform="matrix(1 0 0 1 342.7689 104.2)" class="st2 st3">z</text>
<text transform="matrix(1 0 0 1 349.3177 104.2)" class="st2 st3">a</text>
<text transform="matrix(1 0 0 1 357.1039 104.2)" class="st2 st3">t</text>
<text transform="matrix(1 0 0 1 362.0463 104.2)" class="st2 st3">i</text>
<text transform="matrix(1 0 0 1 365.5873 104.2)" class="st2 st3">o</text>
<text transform="matrix(1 0 0 1 374.0433 104.2)" class="st2 st3">n</text>
<g>
	<g>
		<text transform="matrix(1 0 0 1 348.1161 50)" class="st9 st10">Business use case to Nesy promises relationship</text>
	</g>
</g>
<rect x="852.9" y="429" class="st11" width="34.2" height="34.2"/>
<rect x="736.5" y="429" class="st6" width="34.2" height="34.2"/>
<rect x="775.5" y="429" class="st5" width="34.2" height="34.2"/>
<rect x="814.5" y="429" class="st7" width="34.2" height="34.2"/>
<rect x="890.9" y="429" class="st12" width="34.2" height="34.2"/>
<rect x="852.9" y="467.3" class="st13" width="34.2" height="34.2"/>
<rect x="736.5" y="467.3" class="st1" width="34.2" height="34.2"/>
<rect x="775.5" y="467.3" class="st4" width="34.2" height="34.2"/>
<rect x="814.5" y="467.3" class="st14" width="34.2" height="34.2"/>
<rect x="736.5" y="568.4" class="st7" width="34.2" height="34.2"/>
<rect x="852.9" y="569" class="st5" width="34.2" height="34.2"/>
<rect x="775.5" y="569" class="st4" width="34.2" height="34.2"/>
<rect x="814.5" y="569" class="st6" width="34.2" height="34.2"/>
<rect x="890.9" y="467.3" class="st13" width="34.2" height="34.2"/>
</svg>
