<svg xmlns="http://www.w3.org/2000/svg" viewBox="0 0 655.91 322.1"><defs><style>.a{fill:#9c4397;}.b{fill:#296afb;}.c{fill:#450256;}.d{fill:#2a91a7;}.e,.g{fill:#333;}.e{stroke:#444;stroke-width:0.5px;}.f{isolation:isolate;}</style></defs><path class="a" d="M332,234.62c210,0,210-75.39,420-75.39v2.82c-210,0-210,75.39-420,75.39Z" transform="translate(-238.74 -99.75)"/><path class="a" d="M332,286.79c210,0,210,77.89,420,77.89v2.82c-210,0-210-77.88-420-77.88Z" transform="translate(-238.74 -99.75)"/><path class="a" d="M332,269.87c210,0,210-11.6,420-11.6v2.82c-210,0-210,11.6-420,11.6Z" transform="translate(-238.74 -99.75)"/><path class="b" d="M332,327.31c210,0,210-132.82,420-132.82V203c-210,0-210,132.82-420,132.82Z" transform="translate(-238.74 -99.75)"/><path class="b" d="M332,363.27c210,0,210,11.28,420,11.28v2.12c-210,0-210-11.29-420-11.29Z" transform="translate(-238.74 -99.75)"/><path class="b" d="M332,349.17c210,0,210-81,420-81v2.12c-210,0-210,81-420,81Z" transform="translate(-238.74 -99.75)"/><path class="b" d="M332,356.22c210,0,210-36.28,420-36.28v2.11c-210,0-210,36.28-420,36.28Z" transform="translate(-238.74 -99.75)"/><path class="b" d="M332,367.5c210,0,210,46.15,420,46.15v2.12c-210,0-210-46.15-420-46.15Z" transform="translate(-238.74 -99.75)"/><path class="c" d="M332,125c210,0,210-25,420-25v4.23c-210,0-210,25-420,25Z" transform="translate(-238.74 -99.75)"/><path class="c" d="M332,184.23c210,0,210,65.58,420,65.58V254c-210,0-210-65.58-420-65.58Z" transform="translate(-238.74 -99.75)"/><path class="a" d="M332,237.44c210,0,210-75.39,420-75.39v4.23c-210,0-210,75.39-420,75.39Z" transform="translate(-238.74 -99.75)"/><path class="a" d="M332,279.74c210,0,210,33.14,420,33.14v4.24C542,317.12,542,284,332,284Z" transform="translate(-238.74 -99.75)"/><path class="a" d="M332,241.67c210,0,210-75.39,420-75.39v4.23c-210,0-210,75.39-420,75.39Z" transform="translate(-238.74 -99.75)"/><path class="a" d="M332,272.69c210,0,210-11.6,420-11.6v4.23c-210,0-210,11.6-420,11.6Z" transform="translate(-238.74 -99.75)"/><path class="d" d="M332,394.62c210,0,210-178.27,420-178.27v4.23c-210,0-210,178.27-420,178.27Z" transform="translate(-238.74 -99.75)"/><path class="d" d="M332,411.54c210,0,210-32.76,420-32.76V383c-210,0-210,32.76-420,32.76Z" transform="translate(-238.74 -99.75)"/><path class="a" d="M332,245.9c210,0,210-75.39,420-75.39V179c-210,0-210,75.39-420,75.39Z" transform="translate(-238.74 -99.75)"/><path class="a" d="M332,254.36c210,0,210-75.39,420-75.39v8.47c-210,0-210,75.38-420,75.38Z" transform="translate(-238.74 -99.75)"/><path class="b" d="M332,335.77C542,335.77,542,203,752,203v2.82c-210,0-210,132.82-420,132.82Z" transform="translate(-238.74 -99.75)"/><path class="b" d="M332,351.28c210,0,210-81,420-81v2.82c-210,0-210,81-420,81Z" transform="translate(-238.74 -99.75)"/><path class="b" d="M332,358.33c210,0,210-36.28,420-36.28v2.82c-210,0-210,36.28-420,36.28Z" transform="translate(-238.74 -99.75)"/><path class="d" d="M332,398.85c210,0,210-178.27,420-178.27v4.23c-210,0-210,178.27-420,178.27Z" transform="translate(-238.74 -99.75)"/><path class="d" d="M332,415.77H752V420H332Z" transform="translate(-238.74 -99.75)"/><path class="c" d="M332,129.23c210,0,210-25,420-25v8.46c-210,0-210,25-420,25Z" transform="translate(-238.74 -99.75)"/><path class="c" d="M332,205.38c210,0,210,155.07,420,155.07v4.23c-210,0-210-155.06-420-155.06Z" transform="translate(-238.74 -99.75)"/><path class="c" d="M332,192.69c210,0,210,107.5,420,107.5v4.23c-210,0-210-107.5-420-107.5Z" transform="translate(-238.74 -99.75)"/><path class="c" d="M332,137.69c210,0,210-25,420-25v8.46c-210,0-210,25-420,25Z" transform="translate(-238.74 -99.75)"/><path class="c" d="M332,146.15c210,0,210-25,420-25v4.23c-210,0-210,25-420,25Z" transform="translate(-238.74 -99.75)"/><path class="c" d="M332,196.92c210,0,210,107.5,420,107.5v4.23c-210,0-210-107.5-420-107.5Z" transform="translate(-238.74 -99.75)"/><path class="c" d="M332,150.38c210,0,210-25,420-25v4.24c-210,0-210,25-420,25Z" transform="translate(-238.74 -99.75)"/><path class="c" d="M332,188.46c210,0,210,65.58,420,65.58v4.23c-210,0-210-65.58-420-65.58Z" transform="translate(-238.74 -99.75)"/><path class="c" d="M332,154.62c210,0,210-25,420-25v8.46c-210,0-210,25-420,25Z" transform="translate(-238.74 -99.75)"/><path class="b" d="M332,338.59c210,0,210-132.82,420-132.82v8.46c-210,0-210,132.82-420,132.82Z" transform="translate(-238.74 -99.75)"/><path class="c" d="M332,163.08c210,0,210-25,420-25v4.23c-210,0-210,25-420,25Z" transform="translate(-238.74 -99.75)"/><path class="c" d="M332,201.15c210,0,210,107.5,420,107.5v4.23c-210,0-210-107.5-420-107.5Z" transform="translate(-238.74 -99.75)"/><path class="d" d="M332,403.08c210,0,210-76.09,420-76.09v8.46c-210,0-210,76.09-420,76.09Z" transform="translate(-238.74 -99.75)"/><path class="c" d="M332,167.31c210,0,210-25,420-25v8.46c-210,0-210,25-420,25Z" transform="translate(-238.74 -99.75)"/><path class="b" d="M332,347.05c210,0,210-132.82,420-132.82v2.12c-210,0-210,132.82-420,132.82Z" transform="translate(-238.74 -99.75)"/><path class="b" d="M332,365.38c210,0,210,11.29,420,11.29v2.11c-210,0-210-11.28-420-11.28Z" transform="translate(-238.74 -99.75)"/><path class="b" d="M332,354.1c210,0,210-81,420-81v2.11c-210,0-210,81-420,81Z" transform="translate(-238.74 -99.75)"/><path class="b" d="M332,361.15c210,0,210-36.28,420-36.28V327c-210,0-210,36.28-420,36.28Z" transform="translate(-238.74 -99.75)"/><path class="c" d="M332,175.77c210,0,210-25,420-25v8.46c-210,0-210,25-420,25Z" transform="translate(-238.74 -99.75)"/><path class="a" d="M332,289.62c210,0,210,77.88,420,77.88v2.82c-210,0-210-77.88-420-77.88Z" transform="translate(-238.74 -99.75)"/><path class="a" d="M332,284c210,0,210,33.15,420,33.15v2.82c-210,0-210-33.15-420-33.15Z" transform="translate(-238.74 -99.75)"/><path class="a" d="M332,296.67C542,296.67,542,408,752,408v2.82c-210,0-210-111.34-420-111.34Z" transform="translate(-238.74 -99.75)"/><path class="a" d="M332,262.82c210,0,210-75.38,420-75.38v2.82c-210,0-210,75.38-420,75.38Z" transform="translate(-238.74 -99.75)"/><path class="a" d="M332,276.92c210,0,210-11.6,420-11.6v2.82c-210,0-210,11.6-420,11.6Z" transform="translate(-238.74 -99.75)"/><path class="a" d="M332,299.49c210,0,210,111.34,420,111.34v2.82c-210,0-210-111.34-420-111.34Z" transform="translate(-238.74 -99.75)"/><path class="a" d="M332,265.64c210,0,210-75.38,420-75.38v4.23c-210,0-210,75.38-420,75.38Z" transform="translate(-238.74 -99.75)"/><path class="a" d="M332,292.44c210,0,210,77.88,420,77.88v4.23c-210,0-210-77.88-420-77.88Z" transform="translate(-238.74 -99.75)"/><rect class="e" x="83.26" y="25.25" width="10" height="84.62"/><g class="f"><path class="g" d="M247.17,170l1.22-.19A1.71,1.71,0,0,0,249,171a2,2,0,0,0,1.31.39,2,2,0,0,0,1.26-.35,1,1,0,0,0,.41-.81.74.74,0,0,0-.37-.65,5.07,5.07,0,0,0-1.25-.42,11.22,11.22,0,0,1-1.88-.59,1.85,1.85,0,0,1-.79-.69,1.91,1.91,0,0,1-.05-1.87,2,2,0,0,1,.6-.69,2.78,2.78,0,0,1,.79-.36,3.62,3.62,0,0,1,1.06-.15,4.28,4.28,0,0,1,1.5.25,2,2,0,0,1,.95.67,2.55,2.55,0,0,1,.43,1.12l-1.21.17a1.3,1.3,0,0,0-.47-.88,1.73,1.73,0,0,0-1.11-.31,2,2,0,0,0-1.21.28.8.8,0,0,0-.36.65.68.68,0,0,0,.15.43,1.09,1.09,0,0,0,.47.33c.12,0,.48.15,1.09.32a14.71,14.71,0,0,1,1.82.57,1.71,1.71,0,0,1,1.1,1.69,2,2,0,0,1-.36,1.16,2.21,2.21,0,0,1-1,.84,3.73,3.73,0,0,1-1.53.3,3.35,3.35,0,0,1-2.16-.59A2.71,2.71,0,0,1,247.17,170Z" transform="translate(-238.74 -99.75)"/><path class="g" d="M259.63,169.87l1.28.16a3.18,3.18,0,0,1-1.12,1.73,3.78,3.78,0,0,1-4.6-.37,3.79,3.79,0,0,1-.94-2.75,4,4,0,0,1,.95-2.84,3.17,3.17,0,0,1,2.44-1,3.06,3.06,0,0,1,2.38,1,3.91,3.91,0,0,1,.93,2.78c0,.08,0,.19,0,.33h-5.41a2.77,2.77,0,0,0,.67,1.83,2,2,0,0,0,1.52.64,1.88,1.88,0,0,0,1.16-.36A2.31,2.31,0,0,0,259.63,169.87Zm-4-2h4.06a2.44,2.44,0,0,0-.47-1.37,1.86,1.86,0,0,0-1.52-.71,2,2,0,0,0-1.43.56A2.28,2.28,0,0,0,255.59,167.88Z" transform="translate(-238.74 -99.75)"/><path class="g" d="M267.08,175v-3.55a2.28,2.28,0,0,1-.81.67,2.43,2.43,0,0,1-1.09.26,2.9,2.9,0,0,1-2.23-1,4.07,4.07,0,0,1-.93-2.83,4.89,4.89,0,0,1,.38-2,2.83,2.83,0,0,1,1.1-1.32,2.93,2.93,0,0,1,1.58-.45,2.42,2.42,0,0,1,2.12,1.14v-1h1.11v10Zm-3.8-6.43a3.23,3.23,0,0,0,.59,2.1,1.77,1.77,0,0,0,1.41.7,1.7,1.7,0,0,0,1.35-.67,3,3,0,0,0,.57-2,3.36,3.36,0,0,0-.6-2.18,1.77,1.77,0,0,0-1.4-.74,1.71,1.71,0,0,0-1.36.68A3.37,3.37,0,0,0,263.28,168.56Z" transform="translate(-238.74 -99.75)"/><path class="g" d="M275,172.21v-1.07a2.65,2.65,0,0,1-2.3,1.23,3,3,0,0,1-1.2-.24,2,2,0,0,1-.83-.62,2.48,2.48,0,0,1-.38-.92,6.28,6.28,0,0,1-.07-1.14V165h1.23v4a7.28,7.28,0,0,0,.07,1.3,1.32,1.32,0,0,0,.5.77,1.55,1.55,0,0,0,.93.27,2,2,0,0,0,1-.28,1.58,1.58,0,0,0,.68-.77,3.79,3.79,0,0,0,.2-1.42V165h1.23v7.26Z" transform="translate(-238.74 -99.75)"/><path class="g" d="M283,169.87l1.27.16a3.12,3.12,0,0,1-1.11,1.73,3.36,3.36,0,0,1-2.08.61,3.32,3.32,0,0,1-2.52-1,3.79,3.79,0,0,1-.94-2.75,4,4,0,0,1,.95-2.84,3.16,3.16,0,0,1,2.44-1,3.07,3.07,0,0,1,2.38,1,3.9,3.9,0,0,1,.92,2.78v.33h-5.42a2.77,2.77,0,0,0,.68,1.83,2,2,0,0,0,1.52.64,1.86,1.86,0,0,0,1.15-.36A2.26,2.26,0,0,0,283,169.87Zm-4-2H283a2.44,2.44,0,0,0-.47-1.37,1.86,1.86,0,0,0-1.52-.71,2,2,0,0,0-1.43.56A2.28,2.28,0,0,0,279,167.88Z" transform="translate(-238.74 -99.75)"/><path class="g" d="M285.81,172.21V165h1.11v1a2.6,2.6,0,0,1,2.31-1.2,3,3,0,0,1,1.2.24,1.93,1.93,0,0,1,.83.62,2.34,2.34,0,0,1,.38.91,6.49,6.49,0,0,1,.07,1.19v4.47h-1.23v-4.42a3.17,3.17,0,0,0-.15-1.12,1.14,1.14,0,0,0-.51-.6,1.58,1.58,0,0,0-.85-.22,2,2,0,0,0-1.36.5,2.45,2.45,0,0,0-.57,1.89v4Z" transform="translate(-238.74 -99.75)"/><path class="g" d="M296.28,171.11l.18,1.08a4.17,4.17,0,0,1-.93.11,2.13,2.13,0,0,1-1-.21,1.17,1.17,0,0,1-.52-.56,4.39,4.39,0,0,1-.15-1.45V165.9h-.9v-1h.9v-1.8l1.22-.74V165h1.24v1H295v4.25a2.22,2.22,0,0,0,.07.68.49.49,0,0,0,.21.24.83.83,0,0,0,.42.08A4,4,0,0,0,296.28,171.11Z" transform="translate(-238.74 -99.75)"/><path class="g" d="M297.49,163.6v-1.41h1.23v1.41Zm0,8.61V165h1.23v7.26Z" transform="translate(-238.74 -99.75)"/><path class="g" d="M305.33,171.31a4.46,4.46,0,0,1-1.31.82,3.85,3.85,0,0,1-1.36.24,2.64,2.64,0,0,1-1.84-.58,1.93,1.93,0,0,1-.64-1.5,2,2,0,0,1,.88-1.68,2.83,2.83,0,0,1,.88-.4A9.5,9.5,0,0,1,303,168a11,11,0,0,0,2.19-.42c0-.17,0-.28,0-.32a1.36,1.36,0,0,0-.35-1.06,2.05,2.05,0,0,0-1.4-.42,2.15,2.15,0,0,0-1.29.31,1.92,1.92,0,0,0-.61,1.07l-1.2-.16a3,3,0,0,1,.54-1.25A2.31,2.31,0,0,1,302,165a4.82,4.82,0,0,1,1.64-.26,4.46,4.46,0,0,1,1.51.22,2,2,0,0,1,.86.55,1.92,1.92,0,0,1,.38.84,7.16,7.16,0,0,1,.06,1.14v1.64a17.94,17.94,0,0,0,.08,2.17,2.84,2.84,0,0,0,.31.87h-1.28A2.71,2.71,0,0,1,305.33,171.31Zm-.1-2.75a8.78,8.78,0,0,1-2,.47,4,4,0,0,0-1.07.25,1.07,1.07,0,0,0-.49.39,1.12,1.12,0,0,0-.17.59,1,1,0,0,0,.37.82,1.6,1.6,0,0,0,1.09.33,2.62,2.62,0,0,0,1.27-.31,1.9,1.9,0,0,0,.81-.85,3,3,0,0,0,.2-1.23Z" transform="translate(-238.74 -99.75)"/><path class="g" d="M308.35,172.21v-10h1.23v10Z" transform="translate(-238.74 -99.75)"/></g><rect class="e" x="83.26" y="134.87" width="10" height="67.69"/><g class="f"><path class="g" d="M260.2,270.7l1.21.16a3.15,3.15,0,0,1-1,2,3,3,0,0,1-2,.71,3.14,3.14,0,0,1-2.4-1,4,4,0,0,1-.9-2.79,5,5,0,0,1,.39-2.06,2.68,2.68,0,0,1,1.18-1.32,3.46,3.46,0,0,1,1.74-.44,3,3,0,0,1,1.93.6,2.7,2.7,0,0,1,1,1.69l-1.19.19a2,2,0,0,0-.61-1.1,1.55,1.55,0,0,0-1.05-.37,1.9,1.9,0,0,0-1.51.67,3.17,3.17,0,0,0-.58,2.1,3.29,3.29,0,0,0,.56,2.13,1.84,1.84,0,0,0,1.47.66,1.72,1.72,0,0,0,1.21-.44A2.25,2.25,0,0,0,260.2,270.7Z" transform="translate(-238.74 -99.75)"/><path class="g" d="M262,269.73a3.75,3.75,0,0,1,1.12-3,3.39,3.39,0,0,1,2.28-.8,3.25,3.25,0,0,1,2.45,1,3.74,3.74,0,0,1,.95,2.71,4.78,4.78,0,0,1-.42,2.2,2.91,2.91,0,0,1-1.23,1.25,3.51,3.51,0,0,1-1.75.45,3.25,3.25,0,0,1-2.46-1A3.89,3.89,0,0,1,262,269.73Zm1.26,0a3.07,3.07,0,0,0,.61,2.09,2,2,0,0,0,3.05,0,3.17,3.17,0,0,0,.61-2.13,3,3,0,0,0-.61-2,2,2,0,0,0-3.05,0A3,3,0,0,0,263.27,269.73Z" transform="translate(-238.74 -99.75)"/><path class="g" d="M270.25,273.36V266.1h1.1v1a2.59,2.59,0,0,1,.91-.86,2.62,2.62,0,0,1,1.29-.32,2.39,2.39,0,0,1,1.32.33,1.8,1.8,0,0,1,.73.94,2.6,2.6,0,0,1,2.24-1.27,2.23,2.23,0,0,1,1.67.6,2.57,2.57,0,0,1,.58,1.84v5h-1.23v-4.57a3.43,3.43,0,0,0-.12-1.07,1,1,0,0,0-.43-.52,1.39,1.39,0,0,0-.74-.2,1.72,1.72,0,0,0-1.27.51,2.24,2.24,0,0,0-.51,1.63v4.22h-1.23v-4.72a2.11,2.11,0,0,0-.3-1.23,1.15,1.15,0,0,0-1-.41,1.71,1.71,0,0,0-1,.28,1.51,1.51,0,0,0-.64.8,4.5,4.5,0,0,0-.2,1.51v3.77Z" transform="translate(-238.74 -99.75)"/><path class="g" d="M281.91,276.14v-10H283v.95a2.8,2.8,0,0,1,.9-.83,2.38,2.38,0,0,1,1.21-.28,2.85,2.85,0,0,1,1.64.48,3,3,0,0,1,1.07,1.35,4.92,4.92,0,0,1,.36,1.91,4.76,4.76,0,0,1-.4,2,3,3,0,0,1-2.76,1.85,2.32,2.32,0,0,1-1.1-.26,2.66,2.66,0,0,1-.81-.66v3.53Zm1.12-6.37a3.18,3.18,0,0,0,.56,2.07,1.74,1.74,0,0,0,1.38.67,1.78,1.78,0,0,0,1.4-.69,3.29,3.29,0,0,0,.59-2.15,3.23,3.23,0,0,0-.57-2.08,1.73,1.73,0,0,0-1.37-.69,1.78,1.78,0,0,0-1.39.74A3.3,3.3,0,0,0,283,269.77Z" transform="translate(-238.74 -99.75)"/><path class="g" d="M289.71,264.76v-1.42h1.23v1.42Zm0,8.6V266.1h1.23v7.26Z" transform="translate(-238.74 -99.75)"/><path class="g" d="M292.78,273.36v-10H294v10Z" transform="translate(-238.74 -99.75)"/><path class="g" d="M300.89,271l1.27.16a3.12,3.12,0,0,1-1.11,1.73,3.38,3.38,0,0,1-2.08.62,3.34,3.34,0,0,1-2.53-1,3.87,3.87,0,0,1-.93-2.76,4,4,0,0,1,.94-2.84,3.18,3.18,0,0,1,2.45-1,3.12,3.12,0,0,1,2.38,1,4,4,0,0,1,.92,2.79c0,.07,0,.18,0,.33h-5.41a2.81,2.81,0,0,0,.68,1.83,2,2,0,0,0,1.51.63,1.86,1.86,0,0,0,1.16-.35A2.41,2.41,0,0,0,300.89,271Zm-4-2h4a2.46,2.46,0,0,0-.46-1.37,1.9,1.9,0,0,0-1.53-.71,1.94,1.94,0,0,0-1.42.57A2.19,2.19,0,0,0,296.85,269Z" transform="translate(-238.74 -99.75)"/><path class="g" d="M308.42,273.36v-.91a2.28,2.28,0,0,1-2,1.08,2.83,2.83,0,0,1-1.59-.48,3.17,3.17,0,0,1-1.13-1.34,4.56,4.56,0,0,1-.4-2,5.16,5.16,0,0,1,.36-2,2.84,2.84,0,0,1,2.71-1.83,2.36,2.36,0,0,1,1.17.28,2.32,2.32,0,0,1,.83.72v-3.6h1.23v10Zm-3.89-3.62a3.15,3.15,0,0,0,.58,2.08,1.79,1.79,0,0,0,1.39.69,1.73,1.73,0,0,0,1.37-.66,3,3,0,0,0,.57-2,3.45,3.45,0,0,0-.58-2.19,1.76,1.76,0,0,0-1.41-.69,1.68,1.68,0,0,0-1.37.67A3.27,3.27,0,0,0,304.53,269.74Z" transform="translate(-238.74 -99.75)"/></g><rect class="e" x="83.26" y="227.56" width="10" height="42.31"/><g class="f"><path class="g" d="M243.85,350.7l1.21.16a3.12,3.12,0,0,1-1,2,3,3,0,0,1-2,.71,3.13,3.13,0,0,1-2.4-1,4,4,0,0,1-.9-2.79,5,5,0,0,1,.39-2.06,2.68,2.68,0,0,1,1.18-1.32,3.45,3.45,0,0,1,1.73-.44,3,3,0,0,1,1.94.6,2.7,2.7,0,0,1,1,1.69l-1.19.19a2,2,0,0,0-.61-1.1,1.55,1.55,0,0,0-1-.37,1.9,1.9,0,0,0-1.51.67,3.12,3.12,0,0,0-.58,2.1,3.29,3.29,0,0,0,.56,2.13,1.83,1.83,0,0,0,1.46.66,1.69,1.69,0,0,0,1.21-.44A2.2,2.2,0,0,0,243.85,350.7Z" transform="translate(-238.74 -99.75)"/><path class="g" d="M245.65,349.73a3.75,3.75,0,0,1,1.13-3,3.39,3.39,0,0,1,2.28-.8,3.25,3.25,0,0,1,2.45,1,3.74,3.74,0,0,1,1,2.71,4.78,4.78,0,0,1-.42,2.2,2.91,2.91,0,0,1-1.23,1.25,3.51,3.51,0,0,1-1.75.45,3.28,3.28,0,0,1-2.47-1A3.93,3.93,0,0,1,245.65,349.73Zm1.27,0a3.07,3.07,0,0,0,.61,2.09,2,2,0,0,0,3.05,0,3.17,3.17,0,0,0,.61-2.13,3,3,0,0,0-.61-2,2,2,0,0,0-1.52-.69,1.94,1.94,0,0,0-1.53.69A3,3,0,0,0,246.92,349.73Z" transform="translate(-238.74 -99.75)"/><path class="g" d="M253.44,349.73a3.75,3.75,0,0,1,1.12-3,3.43,3.43,0,0,1,2.28-.8,3.23,3.23,0,0,1,2.45,1,3.7,3.7,0,0,1,.95,2.71,4.78,4.78,0,0,1-.42,2.2,2.94,2.94,0,0,1-1.22,1.25,3.55,3.55,0,0,1-1.76.45,3.28,3.28,0,0,1-2.46-1A3.89,3.89,0,0,1,253.44,349.73Zm1.27,0a3.12,3.12,0,0,0,.6,2.09,2,2,0,0,0,3.06,0,3.22,3.22,0,0,0,.61-2.13,3,3,0,0,0-.61-2,2,2,0,0,0-3.06,0A3.09,3.09,0,0,0,254.71,349.73Z" transform="translate(-238.74 -99.75)"/><path class="g" d="M261.68,356.14v-10h1.13v.95a2.67,2.67,0,0,1,.89-.83,2.41,2.41,0,0,1,1.21-.28,2.85,2.85,0,0,1,1.64.48,2.89,2.89,0,0,1,1.07,1.35,4.75,4.75,0,0,1,.37,1.91,4.92,4.92,0,0,1-.4,2,3.08,3.08,0,0,1-1.16,1.37,3,3,0,0,1-1.61.48,2.32,2.32,0,0,1-1.1-.26,2.51,2.51,0,0,1-.8-.66v3.53Zm1.12-6.37a3.12,3.12,0,0,0,.57,2.07,1.71,1.71,0,0,0,1.37.67,1.79,1.79,0,0,0,1.41-.69,3.35,3.35,0,0,0,.58-2.15,3.23,3.23,0,0,0-.57-2.08,1.73,1.73,0,0,0-1.37-.69,1.79,1.79,0,0,0-1.39.74A3.3,3.3,0,0,0,262.8,349.77Z" transform="translate(-238.74 -99.75)"/><path class="g" d="M274.44,351l1.27.16a3.12,3.12,0,0,1-1.11,1.73,3.77,3.77,0,0,1-4.61-.36,3.87,3.87,0,0,1-.93-2.76A4,4,0,0,1,270,347a3.18,3.18,0,0,1,2.45-1,3.12,3.12,0,0,1,2.38,1,3.91,3.91,0,0,1,.92,2.79v.33h-5.42a2.81,2.81,0,0,0,.68,1.83,2,2,0,0,0,1.52.63,1.85,1.85,0,0,0,1.15-.35A2.41,2.41,0,0,0,274.44,351Zm-4-2h4.05a2.46,2.46,0,0,0-.46-1.37,1.9,1.9,0,0,0-1.53-.71,1.94,1.94,0,0,0-1.42.57A2.19,2.19,0,0,0,270.4,349Z" transform="translate(-238.74 -99.75)"/><path class="g" d="M277.24,353.36V346.1h1.11v1.1a3.09,3.09,0,0,1,.78-1,1.41,1.41,0,0,1,.79-.24,2.44,2.44,0,0,1,1.27.39l-.43,1.15a1.74,1.74,0,0,0-.9-.27,1.16,1.16,0,0,0-.72.24,1.28,1.28,0,0,0-.46.68,4.62,4.62,0,0,0-.21,1.43v3.8Z" transform="translate(-238.74 -99.75)"/><path class="g" d="M286.66,352.47a4.86,4.86,0,0,1-1.32.82,3.78,3.78,0,0,1-1.36.24,2.66,2.66,0,0,1-1.84-.59,2,2,0,0,1-.64-1.49,2,2,0,0,1,.24-1,2.06,2.06,0,0,1,.64-.7,2.9,2.9,0,0,1,.89-.41,9.72,9.72,0,0,1,1.09-.18,10.84,10.84,0,0,0,2.19-.43c0-.16,0-.27,0-.32a1.38,1.38,0,0,0-.35-1.06,2,2,0,0,0-1.4-.41,2.18,2.18,0,0,0-1.28.3,1.81,1.81,0,0,0-.61,1.08l-1.21-.17a3,3,0,0,1,.54-1.24,2.45,2.45,0,0,1,1.09-.74,4.85,4.85,0,0,1,1.65-.25,4.27,4.27,0,0,1,1.51.22,1.9,1.9,0,0,1,.85.55,1.94,1.94,0,0,1,.39.83,7.16,7.16,0,0,1,.06,1.14v1.64a15.86,15.86,0,0,0,.08,2.17,2.6,2.6,0,0,0,.31.87H286.9A2.38,2.38,0,0,1,286.66,352.47Zm-.11-2.75a9.16,9.16,0,0,1-2,.46,5.14,5.14,0,0,0-1.07.25,1.09,1.09,0,0,0-.66,1,1,1,0,0,0,.38.82,1.6,1.6,0,0,0,1.09.33,2.5,2.5,0,0,0,1.26-.31,2,2,0,0,0,.82-.85,3,3,0,0,0,.19-1.23Z" transform="translate(-238.74 -99.75)"/><path class="g" d="M292.39,352.26l.18,1.09a4.85,4.85,0,0,1-.93.11,2.13,2.13,0,0,1-1-.21,1.21,1.21,0,0,1-.52-.56,4.43,4.43,0,0,1-.15-1.45v-4.18H289v-1h.9v-1.8l1.22-.73v2.53h1.24v1h-1.24v4.24a2.22,2.22,0,0,0,.07.68.49.49,0,0,0,.21.24.82.82,0,0,0,.42.09A4.31,4.31,0,0,0,292.39,352.26Z" transform="translate(-238.74 -99.75)"/><path class="g" d="M293.6,344.76v-1.42h1.23v1.42Zm0,8.6V346.1h1.23v7.26Z" transform="translate(-238.74 -99.75)"/><path class="g" d="M298.72,353.36,296,346.1h1.3l1.56,4.35c.17.47.32,1,.46,1.46.11-.38.26-.84.46-1.38l1.61-4.43h1.27l-2.75,7.26Z" transform="translate(-238.74 -99.75)"/><path class="g" d="M308.67,351l1.28.16a3.13,3.13,0,0,1-1.12,1.73,3.76,3.76,0,0,1-4.6-.36,3.88,3.88,0,0,1-.94-2.76,4,4,0,0,1,.95-2.84,3.17,3.17,0,0,1,2.45-1,3.08,3.08,0,0,1,2.37,1,3.92,3.92,0,0,1,.93,2.79c0,.07,0,.18,0,.33h-5.41a2.81,2.81,0,0,0,.67,1.83,2,2,0,0,0,1.52.63,1.88,1.88,0,0,0,1.16-.35A2.4,2.4,0,0,0,308.67,351Zm-4-2h4.06a2.46,2.46,0,0,0-.47-1.37,1.89,1.89,0,0,0-1.52-.71,2,2,0,0,0-1.43.57A2.28,2.28,0,0,0,304.63,349Z" transform="translate(-238.74 -99.75)"/></g><rect class="e" x="83.26" y="294.86" width="10" height="25.38"/><g class="f"><path class="g" d="M269.46,412.21V405h1.1v1a2.63,2.63,0,0,1,2.32-1.2,3,3,0,0,1,1.2.24,1.93,1.93,0,0,1,.83.62,2.34,2.34,0,0,1,.38.91,7.47,7.47,0,0,1,.07,1.19v4.47h-1.23v-4.42a3.17,3.17,0,0,0-.15-1.12,1.14,1.14,0,0,0-.51-.6,1.58,1.58,0,0,0-.85-.22,2,2,0,0,0-1.36.5,2.45,2.45,0,0,0-.57,1.89v4Z" transform="translate(-238.74 -99.75)"/><path class="g" d="M282.21,409.87l1.27.16a3.12,3.12,0,0,1-1.11,1.73,3.78,3.78,0,0,1-4.6-.37,3.79,3.79,0,0,1-.94-2.75,4,4,0,0,1,.95-2.84,3.17,3.17,0,0,1,2.44-1,3.1,3.1,0,0,1,2.38,1,4,4,0,0,1,.93,2.79c0,.08,0,.19,0,.33H278.1a2.82,2.82,0,0,0,.68,1.83,2,2,0,0,0,1.52.64,1.84,1.84,0,0,0,1.15-.36A2.26,2.26,0,0,0,282.21,409.87Zm-4-2h4.06a2.44,2.44,0,0,0-.47-1.37,1.86,1.86,0,0,0-1.52-.71,2,2,0,0,0-1.43.56A2.28,2.28,0,0,0,278.17,407.88Z" transform="translate(-238.74 -99.75)"/><path class="g" d="M284.54,410l1.21-.19a1.71,1.71,0,0,0,.57,1.12,2,2,0,0,0,1.31.39,1.91,1.91,0,0,0,1.26-.35,1,1,0,0,0,.41-.81.75.75,0,0,0-.36-.65,5.38,5.38,0,0,0-1.26-.42,11,11,0,0,1-1.87-.59,1.88,1.88,0,0,1-.8-.69,1.84,1.84,0,0,1-.27-1,1.93,1.93,0,0,1,.83-1.59,2.58,2.58,0,0,1,.78-.36,3.69,3.69,0,0,1,1.07-.15,4.37,4.37,0,0,1,1.5.25,2,2,0,0,1,.95.67,2.55,2.55,0,0,1,.42,1.12l-1.2.16a1.27,1.27,0,0,0-.48-.87,1.73,1.73,0,0,0-1.11-.31,2,2,0,0,0-1.21.28.8.8,0,0,0-.36.65.68.68,0,0,0,.15.43,1.16,1.16,0,0,0,.47.33c.13.05.49.15,1.09.31a15.49,15.49,0,0,1,1.82.58,1.74,1.74,0,0,1,.81.64,1.78,1.78,0,0,1,.3,1.05,2.06,2.06,0,0,1-.36,1.16,2.24,2.24,0,0,1-1,.84,3.73,3.73,0,0,1-1.53.3,3.45,3.45,0,0,1-2.16-.59A2.71,2.71,0,0,1,284.54,410Z" transform="translate(-238.74 -99.75)"/><path class="g" d="M294.72,411.11l.17,1.08a4,4,0,0,1-.93.11,2.15,2.15,0,0,1-1-.21,1.2,1.2,0,0,1-.51-.56,4.3,4.3,0,0,1-.16-1.45V405.9h-.9V405h.9v-1.8l1.23-.74V405h1.24v.95h-1.24v4.25a2.34,2.34,0,0,0,.06.68.56.56,0,0,0,.22.24.78.78,0,0,0,.42.08A4.26,4.26,0,0,0,294.72,411.11Z" transform="translate(-238.74 -99.75)"/><path class="g" d="M300.89,409.87l1.27.16a3.12,3.12,0,0,1-1.11,1.73,3.8,3.8,0,0,1-4.61-.37,3.83,3.83,0,0,1-.93-2.75,4,4,0,0,1,.94-2.84,3.19,3.19,0,0,1,2.45-1,3.12,3.12,0,0,1,2.38,1,4,4,0,0,1,.92,2.79c0,.08,0,.19,0,.33h-5.41a2.77,2.77,0,0,0,.68,1.83,2,2,0,0,0,1.51.64,1.86,1.86,0,0,0,1.16-.36A2.32,2.32,0,0,0,300.89,409.87Zm-4-2h4a2.44,2.44,0,0,0-.46-1.37,1.87,1.87,0,0,0-1.53-.71,1.93,1.93,0,0,0-1.42.56A2.24,2.24,0,0,0,296.85,407.88Z" transform="translate(-238.74 -99.75)"/><path class="g" d="M308.42,412.21v-.92a2.28,2.28,0,0,1-2,1.08,2.83,2.83,0,0,1-1.59-.48,3.14,3.14,0,0,1-1.13-1.33,4.61,4.61,0,0,1-.4-2,5.2,5.2,0,0,1,.36-2,2.88,2.88,0,0,1,2.71-1.83,2.47,2.47,0,0,1,1.17.28,2.42,2.42,0,0,1,.83.72v-3.59h1.23v10Zm-3.89-3.63a3.18,3.18,0,0,0,.58,2.09,1.79,1.79,0,0,0,1.39.69,1.73,1.73,0,0,0,1.37-.66,3,3,0,0,0,.57-2,3.42,3.42,0,0,0-.58-2.19,1.74,1.74,0,0,0-1.41-.7,1.71,1.71,0,0,0-1.37.67A3.29,3.29,0,0,0,304.53,408.58Z" transform="translate(-238.74 -99.75)"/></g><rect class="e" x="513.26" y="260.7" width="10" height="22.56"/><g class="f"><path class="g" d="M773.33,371.75a5.47,5.47,0,0,1,1.34-3.91,4.57,4.57,0,0,1,3.46-1.41,4.85,4.85,0,0,1,2.51.66,4.38,4.38,0,0,1,1.69,1.85,6,6,0,0,1,.59,2.69,5.9,5.9,0,0,1-.62,2.73,4.2,4.2,0,0,1-1.74,1.82,4.88,4.88,0,0,1-2.43.62,4.77,4.77,0,0,1-2.53-.68,4.36,4.36,0,0,1-1.69-1.87A5.7,5.7,0,0,1,773.33,371.75Zm1.37,0a4,4,0,0,0,1,2.86,3.21,3.21,0,0,0,2.44,1,3.16,3.16,0,0,0,2.46-1.06,4.21,4.21,0,0,0,1-3,5.24,5.24,0,0,0-.41-2.14,3.16,3.16,0,0,0-1.21-1.41,3.25,3.25,0,0,0-1.79-.51,3.39,3.39,0,0,0-2.42,1A4.31,4.31,0,0,0,774.7,371.77Z" transform="translate(-238.74 -99.75)"/><path class="g" d="M784.22,371.75a5.47,5.47,0,0,1,1.34-3.91,4.57,4.57,0,0,1,3.46-1.41,4.79,4.79,0,0,1,2.5.66,4.34,4.34,0,0,1,1.7,1.85,6,6,0,0,1,.59,2.69,5.9,5.9,0,0,1-.62,2.73,4.2,4.2,0,0,1-1.74,1.82,4.88,4.88,0,0,1-2.43.62,4.77,4.77,0,0,1-2.53-.68,4.36,4.36,0,0,1-1.69-1.87A5.7,5.7,0,0,1,784.22,371.75Zm1.37,0a4,4,0,0,0,1,2.86,3.2,3.2,0,0,0,2.44,1,3.16,3.16,0,0,0,2.46-1.06,4.21,4.21,0,0,0,1-3,5.24,5.24,0,0,0-.41-2.14,3.16,3.16,0,0,0-1.21-1.41,3.25,3.25,0,0,0-1.79-.51,3.39,3.39,0,0,0-2.42,1A4.31,4.31,0,0,0,785.59,371.77Z" transform="translate(-238.74 -99.75)"/><path class="g" d="M795.52,376.63v-10H799a8.77,8.77,0,0,1,1.78.14,3.28,3.28,0,0,1,1.47.72,4.1,4.1,0,0,1,1.19,1.71,6.81,6.81,0,0,1,.39,2.39,7.28,7.28,0,0,1-.26,2,5,5,0,0,1-.69,1.46,3.74,3.74,0,0,1-.91.91,3.65,3.65,0,0,1-1.2.5,7,7,0,0,1-1.61.17Zm1.32-1.18H799a5,5,0,0,0,1.56-.19,2.21,2.21,0,0,0,.9-.52,3.09,3.09,0,0,0,.73-1.26,6.07,6.07,0,0,0,.27-1.93,4.7,4.7,0,0,0-.52-2.42,2.6,2.6,0,0,0-1.26-1.13,5,5,0,0,0-1.71-.21h-2.11Z" transform="translate(-238.74 -99.75)"/><path class="g" d="M809.13,377.23l1.2.18a1.14,1.14,0,0,0,.42.81,2.09,2.09,0,0,0,1.25.34,2.26,2.26,0,0,0,1.32-.34,1.7,1.7,0,0,0,.63-1,8.56,8.56,0,0,0,.09-1.58,2.55,2.55,0,0,1-2,.95,2.75,2.75,0,0,1-2.32-1.08,4.13,4.13,0,0,1-.82-2.59,4.87,4.87,0,0,1,.37-1.92,3.06,3.06,0,0,1,1.09-1.35,3,3,0,0,1,1.68-.48,2.57,2.57,0,0,1,2.12,1v-.88h1.14v6.28a5.92,5.92,0,0,1-.35,2.4,2.56,2.56,0,0,1-1.09,1.12,3.85,3.85,0,0,1-1.84.41,3.46,3.46,0,0,1-2.1-.59A2,2,0,0,1,809.13,377.23Zm1-4.36a3.16,3.16,0,0,0,.57,2.09,1.88,1.88,0,0,0,2.84,0,3.81,3.81,0,0,0,0-4.06,1.84,1.84,0,0,0-1.43-.67,1.77,1.77,0,0,0-1.39.66A2.94,2.94,0,0,0,810.15,372.87Z" transform="translate(-238.74 -99.75)"/><path class="g" d="M822.12,374.29l1.27.16a3.08,3.08,0,0,1-1.12,1.73,3.34,3.34,0,0,1-2.08.62,3.29,3.29,0,0,1-2.52-1,3.83,3.83,0,0,1-.93-2.75,4,4,0,0,1,.94-2.84,3.17,3.17,0,0,1,2.45-1,3.12,3.12,0,0,1,2.38,1,4,4,0,0,1,.92,2.79c0,.07,0,.18,0,.33H818a2.81,2.81,0,0,0,.67,1.83,2,2,0,0,0,1.52.63,1.88,1.88,0,0,0,1.16-.35A2.41,2.41,0,0,0,822.12,374.29Zm-4-2h4a2.46,2.46,0,0,0-.47-1.37,1.89,1.89,0,0,0-1.52-.71,2,2,0,0,0-1.43.57A2.23,2.23,0,0,0,818.08,372.3Z" transform="translate(-238.74 -99.75)"/><path class="g" d="M824.93,376.63v-7.26H826v1a2.61,2.61,0,0,1,2.31-1.19,3.18,3.18,0,0,1,1.21.23,2,2,0,0,1,.82.62,2.4,2.4,0,0,1,.38.91,6.62,6.62,0,0,1,.07,1.2v4.46H829.6v-4.41a3.49,3.49,0,0,0-.14-1.13,1.17,1.17,0,0,0-.51-.59,1.62,1.62,0,0,0-.86-.23,2,2,0,0,0-1.36.5,2.49,2.49,0,0,0-.57,1.9v4Z" transform="translate(-238.74 -99.75)"/><path class="g" d="M837.69,374.29l1.27.16a3.12,3.12,0,0,1-1.11,1.73,3.38,3.38,0,0,1-2.08.62,3.31,3.31,0,0,1-2.53-1,3.83,3.83,0,0,1-.93-2.75,4,4,0,0,1,.94-2.84,3.18,3.18,0,0,1,2.45-1,3.12,3.12,0,0,1,2.38,1A4,4,0,0,1,839,373c0,.07,0,.18,0,.33h-5.41a2.76,2.76,0,0,0,.68,1.83,2,2,0,0,0,1.51.63,1.86,1.86,0,0,0,1.16-.35A2.41,2.41,0,0,0,837.69,374.29Zm-4-2h4.05a2.46,2.46,0,0,0-.46-1.37,1.91,1.91,0,0,0-1.53-.71,1.94,1.94,0,0,0-1.42.57A2.19,2.19,0,0,0,833.65,372.3Z" transform="translate(-238.74 -99.75)"/><path class="g" d="M840.49,376.63v-7.26h1.11v1.1a3.09,3.09,0,0,1,.78-1,1.39,1.39,0,0,1,.79-.24,2.46,2.46,0,0,1,1.27.39l-.43,1.15a1.74,1.74,0,0,0-.9-.27,1.21,1.21,0,0,0-.73.24,1.33,1.33,0,0,0-.45.67,4.73,4.73,0,0,0-.21,1.44v3.8Z" transform="translate(-238.74 -99.75)"/><path class="g" d="M849.9,375.74a4.68,4.68,0,0,1-1.31.82,3.81,3.81,0,0,1-1.36.24,2.64,2.64,0,0,1-1.84-.59,1.92,1.92,0,0,1-.64-1.49,2,2,0,0,1,.24-1,2,2,0,0,1,.64-.7,3,3,0,0,1,.88-.41,10,10,0,0,1,1.1-.18,10.84,10.84,0,0,0,2.19-.43c0-.17,0-.27,0-.32a1.38,1.38,0,0,0-.35-1.06,2,2,0,0,0-1.4-.41,2.18,2.18,0,0,0-1.28.3,1.87,1.87,0,0,0-.62,1.08l-1.2-.17a3,3,0,0,1,.54-1.24,2.32,2.32,0,0,1,1.09-.74,4.85,4.85,0,0,1,1.65-.25,4.27,4.27,0,0,1,1.51.22,2,2,0,0,1,.85.55,1.93,1.93,0,0,1,.38.83,6.82,6.82,0,0,1,.07,1.14v1.64a18.7,18.7,0,0,0,.07,2.17,2.86,2.86,0,0,0,.32.87h-1.29A2.58,2.58,0,0,1,849.9,375.74Zm-.1-2.75a9.45,9.45,0,0,1-2,.46,5.14,5.14,0,0,0-1.07.25,1.08,1.08,0,0,0-.49.4,1.09,1.09,0,0,0,.2,1.4,1.61,1.61,0,0,0,1.09.33,2.52,2.52,0,0,0,1.27-.31,1.9,1.9,0,0,0,.81-.85,2.86,2.86,0,0,0,.2-1.23Z" transform="translate(-238.74 -99.75)"/><path class="g" d="M852.93,376.63v-10h1.23v10Z" transform="translate(-238.74 -99.75)"/><path class="g" d="M856.07,368v-1.41h1.23V368Zm0,8.61v-7.26h1.23v7.26Z" transform="translate(-238.74 -99.75)"/><path class="g" d="M858.52,376.63v-1l4.63-5.3c-.53,0-1,0-1.39,0h-3v-1h5.93v.81l-3.93,4.61-.76.84c.55,0,1.07-.06,1.55-.06H865v1.06Z" transform="translate(-238.74 -99.75)"/><path class="g" d="M870.91,375.74a4.58,4.58,0,0,1-1.32.82,3.76,3.76,0,0,1-1.35.24,2.64,2.64,0,0,1-1.84-.59,1.92,1.92,0,0,1-.64-1.49,2,2,0,0,1,.24-1,1.94,1.94,0,0,1,.63-.7,3,3,0,0,1,.89-.41,10.14,10.14,0,0,1,1.09-.18,10.82,10.82,0,0,0,2.2-.43v-.32a1.38,1.38,0,0,0-.34-1.06,2.08,2.08,0,0,0-1.41-.41,2.22,2.22,0,0,0-1.28.3,1.86,1.86,0,0,0-.61,1.08l-1.2-.17a3,3,0,0,1,.54-1.24,2.32,2.32,0,0,1,1.09-.74,4.83,4.83,0,0,1,1.64-.25,4.23,4.23,0,0,1,1.51.22,1.71,1.71,0,0,1,1.24,1.38,7.16,7.16,0,0,1,.06,1.14v1.64a17.82,17.82,0,0,0,.08,2.17,2.84,2.84,0,0,0,.31.87h-1.28A2.58,2.58,0,0,1,870.91,375.74Zm-.1-2.75a9.45,9.45,0,0,1-2,.46,5.1,5.1,0,0,0-1.08.25,1.05,1.05,0,0,0-.48.4,1.06,1.06,0,0,0-.17.58,1,1,0,0,0,.37.82,1.6,1.6,0,0,0,1.09.33,2.52,2.52,0,0,0,1.27-.31,1.9,1.9,0,0,0,.81-.85,3,3,0,0,0,.2-1.23Z" transform="translate(-238.74 -99.75)"/><path class="g" d="M876.65,375.53l.17,1.09a4.68,4.68,0,0,1-.93.11,2,2,0,0,1-1-.22,1.15,1.15,0,0,1-.52-.55,4.43,4.43,0,0,1-.15-1.45v-4.18h-.91v-1h.91v-1.8l1.22-.73v2.53h1.24v1h-1.24v4.24a2.34,2.34,0,0,0,.06.68.56.56,0,0,0,.22.24.77.77,0,0,0,.42.09A4.66,4.66,0,0,0,876.65,375.53Z" transform="translate(-238.74 -99.75)"/><path class="g" d="M877.86,368v-1.41h1.23V368Zm0,8.61v-7.26h1.23v7.26Z" transform="translate(-238.74 -99.75)"/><path class="g" d="M880.5,373a3.78,3.78,0,0,1,1.12-3,3.44,3.44,0,0,1,2.29-.8,3.23,3.23,0,0,1,2.44,1,3.7,3.7,0,0,1,.95,2.71,4.78,4.78,0,0,1-.42,2.2,2.94,2.94,0,0,1-1.22,1.25,3.54,3.54,0,0,1-1.75.45,3.28,3.28,0,0,1-2.47-1A3.89,3.89,0,0,1,880.5,373Zm1.27,0a3.07,3.07,0,0,0,.61,2.09,2,2,0,0,0,3,0A3.17,3.17,0,0,0,886,373a3,3,0,0,0-.61-2,2,2,0,0,0-1.52-.69,1.94,1.94,0,0,0-1.53.69A3,3,0,0,0,881.77,373Z" transform="translate(-238.74 -99.75)"/><path class="g" d="M888.75,376.63v-7.26h1.1v1a2.64,2.64,0,0,1,2.31-1.19,3.18,3.18,0,0,1,1.21.23,1.92,1.92,0,0,1,.82.62,2.42,2.42,0,0,1,.39.91,8.09,8.09,0,0,1,.06,1.2v4.46h-1.23v-4.41a3.23,3.23,0,0,0-.14-1.13,1.09,1.09,0,0,0-.51-.59,1.6,1.6,0,0,0-.86-.23,2,2,0,0,0-1.35.5,2.49,2.49,0,0,0-.57,1.9v4Z" transform="translate(-238.74 -99.75)"/></g><rect class="e" x="513.26" y="150.06" width="10" height="25.38"/><g class="f"><path class="g" d="M773.59,258.79v-1.41h1.23v1.41Zm0,8.61v-7.26h1.23v7.26Z" transform="translate(-238.74 -99.75)"/><path class="g" d="M776.69,267.4v-7.26h1.11v1a2.61,2.61,0,0,1,2.31-1.19,3,3,0,0,1,1.21.23,2,2,0,0,1,.82.62,2.4,2.4,0,0,1,.38.91,6.62,6.62,0,0,1,.07,1.2v4.46h-1.23V263a3.47,3.47,0,0,0-.14-1.12,1.17,1.17,0,0,0-.51-.59,1.62,1.62,0,0,0-.86-.23,2,2,0,0,0-1.36.5,2.49,2.49,0,0,0-.57,1.9v4Z" transform="translate(-238.74 -99.75)"/><path class="g" d="M787.16,266.3l.18,1.09a4.68,4.68,0,0,1-.93.11,2,2,0,0,1-1-.22,1.2,1.2,0,0,1-.52-.55,4.46,4.46,0,0,1-.15-1.46V261.1h-.9v-1h.9v-1.8l1.23-.74v2.54h1.23v1h-1.23v4.24a2.34,2.34,0,0,0,.06.68.49.49,0,0,0,.21.24.82.82,0,0,0,.42.09A4.31,4.31,0,0,0,787.16,266.3Z" transform="translate(-238.74 -99.75)"/><path class="g" d="M793.34,265.06l1.27.16a3.08,3.08,0,0,1-1.12,1.73,3.78,3.78,0,0,1-4.6-.37,3.83,3.83,0,0,1-.93-2.75,4,4,0,0,1,.94-2.84,3.17,3.17,0,0,1,2.45-1,3.12,3.12,0,0,1,2.38,1,4,4,0,0,1,.92,2.79c0,.07,0,.18,0,.33h-5.41a2.81,2.81,0,0,0,.67,1.83,2,2,0,0,0,1.52.63,1.94,1.94,0,0,0,1.16-.35A2.41,2.41,0,0,0,793.34,265.06Zm-4-2h4.05a2.46,2.46,0,0,0-.46-1.37,1.91,1.91,0,0,0-1.53-.71,1.94,1.94,0,0,0-1.42.57A2.19,2.19,0,0,0,789.3,263.07Z" transform="translate(-238.74 -99.75)"/><path class="g" d="M796.14,267.4v-7.26h1.11v1.1a3.09,3.09,0,0,1,.78-1,1.39,1.39,0,0,1,.79-.24,2.4,2.4,0,0,1,1.26.39l-.42,1.14a1.82,1.82,0,0,0-.9-.26,1.21,1.21,0,0,0-.73.24,1.42,1.42,0,0,0-.46.67,5.06,5.06,0,0,0-.2,1.44v3.8Z" transform="translate(-238.74 -99.75)"/><path class="g" d="M800.81,270.18v-10h1.13v.94a2.9,2.9,0,0,1,.89-.83A2.52,2.52,0,0,1,804,260a2.85,2.85,0,0,1,1.64.48,2.9,2.9,0,0,1,1.08,1.34,5,5,0,0,1,.36,1.92,4.92,4.92,0,0,1-.4,2,3.08,3.08,0,0,1-1.16,1.37,3,3,0,0,1-1.61.47,2.21,2.21,0,0,1-1.1-.26,2.36,2.36,0,0,1-.8-.65v3.53Zm1.12-6.37a3.12,3.12,0,0,0,.57,2.07,1.72,1.72,0,0,0,1.37.67,1.79,1.79,0,0,0,1.41-.69,3.29,3.29,0,0,0,.58-2.15,3.21,3.21,0,0,0-.57-2.08,1.72,1.72,0,0,0-1.36-.69,1.79,1.79,0,0,0-1.4.74A3.3,3.3,0,0,0,801.93,263.81Z" transform="translate(-238.74 -99.75)"/><path class="g" d="M808.59,267.4v-7.26h1.1v1.1a3.22,3.22,0,0,1,.79-1,1.39,1.39,0,0,1,.79-.24,2.43,2.43,0,0,1,1.26.39l-.42,1.14a1.82,1.82,0,0,0-.9-.26,1.21,1.21,0,0,0-.73.24,1.35,1.35,0,0,0-.46.67,5.06,5.06,0,0,0-.2,1.44v3.8Z" transform="translate(-238.74 -99.75)"/><path class="g" d="M818.23,265.06l1.27.16a3.12,3.12,0,0,1-1.11,1.73,3.34,3.34,0,0,1-2.08.61,3.28,3.28,0,0,1-2.52-1,3.79,3.79,0,0,1-.94-2.75,4,4,0,0,1,.95-2.84,3.16,3.16,0,0,1,2.44-1,3.1,3.1,0,0,1,2.38,1,3.92,3.92,0,0,1,.93,2.79c0,.07,0,.18,0,.33h-5.42a2.87,2.87,0,0,0,.68,1.83,2,2,0,0,0,1.52.63,1.89,1.89,0,0,0,1.15-.35A2.34,2.34,0,0,0,818.23,265.06Zm-4-2h4.06a2.46,2.46,0,0,0-.47-1.37,1.89,1.89,0,0,0-1.52-.71,2,2,0,0,0-1.43.57A2.24,2.24,0,0,0,814.19,263.07Z" transform="translate(-238.74 -99.75)"/><path class="g" d="M823.74,266.3l.17,1.09a4.68,4.68,0,0,1-.93.11,2,2,0,0,1-1-.22,1.17,1.17,0,0,1-.51-.55,4.38,4.38,0,0,1-.16-1.46V261.1h-.9v-1h.9v-1.8l1.23-.74v2.54h1.24v1H822.5v4.24a2.34,2.34,0,0,0,.06.68.56.56,0,0,0,.22.24.77.77,0,0,0,.42.09A4.66,4.66,0,0,0,823.74,266.3Z" transform="translate(-238.74 -99.75)"/><path class="g" d="M829.68,266.51a4.86,4.86,0,0,1-1.32.82,4,4,0,0,1-1.36.23,2.66,2.66,0,0,1-1.84-.58,2,2,0,0,1-.64-1.49,2,2,0,0,1,.24-1,2.19,2.19,0,0,1,.64-.71,3.14,3.14,0,0,1,.89-.4,9.72,9.72,0,0,1,1.09-.18,10.84,10.84,0,0,0,2.19-.43c0-.17,0-.27,0-.32a1.38,1.38,0,0,0-.35-1.06,2,2,0,0,0-1.4-.41,2.18,2.18,0,0,0-1.28.3,1.81,1.81,0,0,0-.61,1.08l-1.21-.17a3,3,0,0,1,.54-1.24,2.38,2.38,0,0,1,1.09-.74A4.85,4.85,0,0,1,828,260a4.27,4.27,0,0,1,1.51.22,1.82,1.82,0,0,1,.85.55,1.94,1.94,0,0,1,.39.83,7.16,7.16,0,0,1,.06,1.14v1.64a15.86,15.86,0,0,0,.08,2.17,2.6,2.6,0,0,0,.31.87h-1.29A2.38,2.38,0,0,1,829.68,266.51Zm-.11-2.75a9.16,9.16,0,0,1-2,.46,5.14,5.14,0,0,0-1.07.25,1.09,1.09,0,0,0-.66,1,1,1,0,0,0,.38.82,1.6,1.6,0,0,0,1.09.33,2.5,2.5,0,0,0,1.26-.31,2,2,0,0,0,.82-.85,3,3,0,0,0,.19-1.23Z" transform="translate(-238.74 -99.75)"/><path class="g" d="M833.86,267.4h-1.14v-10H834V261a2.43,2.43,0,0,1,2-1,3.08,3.08,0,0,1,1.27.27,2.62,2.62,0,0,1,1,.76,3.6,3.6,0,0,1,.61,1.17,5.09,5.09,0,0,1,.21,1.48,4.13,4.13,0,0,1-.92,2.89,2.89,2.89,0,0,1-2.21,1,2.3,2.3,0,0,1-2-1.07Zm0-3.68a3.7,3.7,0,0,0,.35,1.88,1.76,1.76,0,0,0,3,.25,4.06,4.06,0,0,0,0-4.18,1.68,1.68,0,0,0-1.36-.68,1.78,1.78,0,0,0-1.4.7A3.09,3.09,0,0,0,833.85,263.72Z" transform="translate(-238.74 -99.75)"/><path class="g" d="M840.52,258.79v-1.41h1.23v1.41Zm0,8.61v-7.26h1.23v7.26Z" transform="translate(-238.74 -99.75)"/><path class="g" d="M843.59,267.4v-10h1.23v10Z" transform="translate(-238.74 -99.75)"/><path class="g" d="M846.74,258.79v-1.41H848v1.41Zm0,8.61v-7.26H848v7.26Z" transform="translate(-238.74 -99.75)"/><path class="g" d="M852.53,266.3l.18,1.09a4.85,4.85,0,0,1-.93.11,2,2,0,0,1-1-.22,1.15,1.15,0,0,1-.52-.55,4.46,4.46,0,0,1-.15-1.46V261.1h-.9v-1h.9v-1.8l1.22-.74v2.54h1.24v1h-1.24v4.24a1.94,1.94,0,0,0,.07.68.49.49,0,0,0,.21.24.82.82,0,0,0,.42.09A4.31,4.31,0,0,0,852.53,266.3Z" transform="translate(-238.74 -99.75)"/><path class="g" d="M853.68,270.2l-.14-1.16a2.86,2.86,0,0,0,.7.11,1.35,1.35,0,0,0,.66-.14,1,1,0,0,0,.4-.38,5.38,5.38,0,0,0,.38-.91c0-.07.06-.17.11-.31L853,260.14h1.33l1.51,4.2c.2.54.37,1.1.53,1.69.14-.57.31-1.12.5-1.66l1.56-4.23h1.23l-2.77,7.38a12.4,12.4,0,0,1-.69,1.65,2.33,2.33,0,0,1-.75.89,1.77,1.77,0,0,1-1,.29A2.43,2.43,0,0,1,853.68,270.2Z" transform="translate(-238.74 -99.75)"/></g><rect class="e" x="513.26" y="200.44" width="10" height="35.26"/><g class="f"><path class="g" d="M773.57,322.72v-7.26h1.1v1.1a3.22,3.22,0,0,1,.79-1,1.39,1.39,0,0,1,.79-.24,2.43,2.43,0,0,1,1.26.39l-.42,1.14a1.82,1.82,0,0,0-.9-.26,1.18,1.18,0,0,0-.73.24,1.35,1.35,0,0,0-.46.67,5.06,5.06,0,0,0-.2,1.44v3.8Z" transform="translate(-238.74 -99.75)"/><path class="g" d="M783.21,320.38l1.27.16a3.12,3.12,0,0,1-1.11,1.73,3.36,3.36,0,0,1-2.08.61,3.28,3.28,0,0,1-2.52-1,3.79,3.79,0,0,1-.94-2.75,4,4,0,0,1,.95-2.84,3.15,3.15,0,0,1,2.44-1,3.1,3.1,0,0,1,2.38,1,3.91,3.91,0,0,1,.92,2.79v.32H779.1a2.88,2.88,0,0,0,.68,1.84,2,2,0,0,0,1.52.63,1.91,1.91,0,0,0,1.15-.35A2.34,2.34,0,0,0,783.21,320.38Zm-4-2h4.06a2.44,2.44,0,0,0-.47-1.37,1.89,1.89,0,0,0-1.52-.71,2,2,0,0,0-1.43.57A2.24,2.24,0,0,0,779.17,318.39Z" transform="translate(-238.74 -99.75)"/><path class="g" d="M790.74,322.72v-.92a2.26,2.26,0,0,1-2,1.08,2.93,2.93,0,0,1-1.6-.47,3.24,3.24,0,0,1-1.13-1.34,4.71,4.71,0,0,1-.4-2,5.25,5.25,0,0,1,.37-2,2.82,2.82,0,0,1,1.08-1.35,2.89,2.89,0,0,1,1.62-.47,2.46,2.46,0,0,1,1.17.27,2.68,2.68,0,0,1,.84.72V312.7h1.22v10Zm-3.89-3.62a3.09,3.09,0,0,0,.59,2.08,1.75,1.75,0,0,0,2.76,0,3.07,3.07,0,0,0,.56-2,3.46,3.46,0,0,0-.57-2.19,1.8,1.8,0,0,0-1.42-.7,1.72,1.72,0,0,0-1.37.67A3.3,3.3,0,0,0,786.85,319.1Z" transform="translate(-238.74 -99.75)"/><path class="g" d="M798.57,322.72v-1.07a2.65,2.65,0,0,1-2.3,1.23,3,3,0,0,1-1.2-.24,2,2,0,0,1-.83-.62,2.43,2.43,0,0,1-.38-.91,6.41,6.41,0,0,1-.07-1.15v-4.5H795v4a7.43,7.43,0,0,0,.07,1.3,1.29,1.29,0,0,0,.5.76,1.55,1.55,0,0,0,.93.27,2,2,0,0,0,1-.28,1.55,1.55,0,0,0,.69-.77,3.79,3.79,0,0,0,.2-1.42v-3.89h1.23v7.26Z" transform="translate(-238.74 -99.75)"/><path class="g" d="M806.34,320.06l1.21.16a3.14,3.14,0,0,1-1,2,2.94,2.94,0,0,1-2,.7,3.11,3.11,0,0,1-2.4-1,4,4,0,0,1-.9-2.79,5.05,5.05,0,0,1,.38-2.06,2.7,2.7,0,0,1,1.19-1.32,3.45,3.45,0,0,1,1.73-.44,3.07,3.07,0,0,1,1.94.59,2.76,2.76,0,0,1,1,1.7l-1.19.19a2,2,0,0,0-.61-1.1,1.55,1.55,0,0,0-1-.37,1.92,1.92,0,0,0-1.51.66,3.17,3.17,0,0,0-.58,2.11,3.29,3.29,0,0,0,.56,2.13,1.82,1.82,0,0,0,1.46.66,1.73,1.73,0,0,0,1.21-.44A2.2,2.2,0,0,0,806.34,320.06Z" transform="translate(-238.74 -99.75)"/><path class="g" d="M813.57,320.38l1.27.16a3.12,3.12,0,0,1-1.11,1.73,3.36,3.36,0,0,1-2.08.61,3.32,3.32,0,0,1-2.53-1,3.83,3.83,0,0,1-.93-2.75,4,4,0,0,1,.94-2.84,3.18,3.18,0,0,1,2.45-1,3.1,3.1,0,0,1,2.38,1,3.91,3.91,0,0,1,.92,2.79v.32h-5.42a2.82,2.82,0,0,0,.68,1.84,2,2,0,0,0,1.52.63,1.91,1.91,0,0,0,1.15-.35A2.41,2.41,0,0,0,813.57,320.38Zm-4-2h4.05a2.36,2.36,0,0,0-.46-1.37,1.89,1.89,0,0,0-1.52-.71,2,2,0,0,0-1.43.57A2.19,2.19,0,0,0,809.53,318.39Z" transform="translate(-238.74 -99.75)"/><path class="g" d="M821.1,322.72v-.92a2.26,2.26,0,0,1-2,1.08,2.93,2.93,0,0,1-1.6-.47,3.24,3.24,0,0,1-1.13-1.34,4.71,4.71,0,0,1-.4-2,5.06,5.06,0,0,1,.37-2,2.82,2.82,0,0,1,1.08-1.35,2.89,2.89,0,0,1,1.62-.47,2.46,2.46,0,0,1,1.17.27,2.68,2.68,0,0,1,.84.72V312.7h1.22v10Zm-3.89-3.62a3.09,3.09,0,0,0,.59,2.08,1.76,1.76,0,0,0,1.38.69,1.73,1.73,0,0,0,1.37-.66,3,3,0,0,0,.57-2,3.39,3.39,0,0,0-.58-2.19,1.77,1.77,0,0,0-1.41-.7,1.71,1.71,0,0,0-1.37.67A3.3,3.3,0,0,0,817.21,319.1Z" transform="translate(-238.74 -99.75)"/><path class="g" d="M832.77,322.72v-.92a2.25,2.25,0,0,1-2,1.08,2.88,2.88,0,0,1-1.59-.47,3.17,3.17,0,0,1-1.13-1.34,4.56,4.56,0,0,1-.4-2,5.25,5.25,0,0,1,.36-2,2.78,2.78,0,0,1,1.09-1.35,2.85,2.85,0,0,1,1.62-.47,2.46,2.46,0,0,1,1.17.27,2.53,2.53,0,0,1,.83.72V312.7h1.22v10Zm-3.89-3.62a3.15,3.15,0,0,0,.59,2.08,1.78,1.78,0,0,0,1.39.69,1.74,1.74,0,0,0,1.37-.66,3,3,0,0,0,.56-2,3.46,3.46,0,0,0-.57-2.19,1.79,1.79,0,0,0-1.42-.7,1.74,1.74,0,0,0-1.37.67A3.36,3.36,0,0,0,828.88,319.1Z" transform="translate(-238.74 -99.75)"/><path class="g" d="M840.59,321.82a4.41,4.41,0,0,1-1.32.82,3.78,3.78,0,0,1-1.36.24,2.66,2.66,0,0,1-1.84-.58,2,2,0,0,1-.64-1.49,2,2,0,0,1,.24-1,2.19,2.19,0,0,1,.64-.71,3.14,3.14,0,0,1,.89-.4,9.72,9.72,0,0,1,1.09-.18,10.84,10.84,0,0,0,2.19-.43c0-.17,0-.27,0-.32a1.38,1.38,0,0,0-.35-1.06,2,2,0,0,0-1.4-.42,2.17,2.17,0,0,0-1.28.31,1.81,1.81,0,0,0-.61,1.08l-1.21-.17a3.06,3.06,0,0,1,.54-1.25,2.44,2.44,0,0,1,1.09-.73,4.89,4.89,0,0,1,1.65-.25,4.53,4.53,0,0,1,1.51.21,1.91,1.91,0,0,1,.85.56,1.94,1.94,0,0,1,.39.83,7.16,7.16,0,0,1,.06,1.14v1.64a15.86,15.86,0,0,0,.08,2.17,2.6,2.6,0,0,0,.31.87h-1.29A2.58,2.58,0,0,1,840.59,321.82Zm-.11-2.74a9.16,9.16,0,0,1-2,.46,4.56,4.56,0,0,0-1.07.25,1.09,1.09,0,0,0-.66,1,1,1,0,0,0,.38.82,1.6,1.6,0,0,0,1.09.33,2.5,2.5,0,0,0,1.26-.31,2,2,0,0,0,.82-.85,3,3,0,0,0,.19-1.23Z" transform="translate(-238.74 -99.75)"/><path class="g" d="M846.32,321.62l.18,1.09a4.85,4.85,0,0,1-.93.11,2,2,0,0,1-1-.22,1.15,1.15,0,0,1-.52-.55,4.46,4.46,0,0,1-.15-1.46v-4.17H843v-1h.9v-1.8l1.22-.74v2.54h1.24v1h-1.24v4.24a2.22,2.22,0,0,0,.07.68.49.49,0,0,0,.21.24.82.82,0,0,0,.42.09A4.31,4.31,0,0,0,846.32,321.62Z" transform="translate(-238.74 -99.75)"/><path class="g" d="M852.26,321.82a4.26,4.26,0,0,1-1.31.82,3.85,3.85,0,0,1-1.36.24,2.64,2.64,0,0,1-1.84-.58,1.92,1.92,0,0,1-.64-1.49,2,2,0,0,1,.24-1,2,2,0,0,1,.64-.71,3.08,3.08,0,0,1,.88-.4,10,10,0,0,1,1.1-.18,10.84,10.84,0,0,0,2.19-.43c0-.17,0-.27,0-.32a1.38,1.38,0,0,0-.35-1.06,2.05,2.05,0,0,0-1.4-.42,2.23,2.23,0,0,0-1.29.31,1.92,1.92,0,0,0-.61,1.08l-1.2-.17a3.06,3.06,0,0,1,.54-1.25,2.38,2.38,0,0,1,1.09-.73,4.83,4.83,0,0,1,1.64-.25,4.49,4.49,0,0,1,1.51.21,2,2,0,0,1,.86.56,1.93,1.93,0,0,1,.38.83,7.16,7.16,0,0,1,.06,1.14v1.64a17.82,17.82,0,0,0,.08,2.17,2.84,2.84,0,0,0,.31.87h-1.28A2.58,2.58,0,0,1,852.26,321.82Zm-.1-2.74a9.45,9.45,0,0,1-2,.46,4.43,4.43,0,0,0-1.07.25,1.08,1.08,0,0,0-.49.4,1.06,1.06,0,0,0-.17.58,1,1,0,0,0,.37.82,1.6,1.6,0,0,0,1.09.33,2.52,2.52,0,0,0,1.27-.31,1.9,1.9,0,0,0,.81-.85,3,3,0,0,0,.2-1.23Z" transform="translate(-238.74 -99.75)"/></g><rect class="e" x="513.26" y="308.26" width="10" height="11.99"/><g class="f"><path class="g" d="M776.27,417.81l.17,1.08a4,4,0,0,1-.92.11,2.1,2.1,0,0,1-1-.21,1.17,1.17,0,0,1-.52-.56,4.39,4.39,0,0,1-.15-1.45V412.6h-.91v-1h.91v-1.8l1.22-.74v2.54h1.24v1H775v4.25a2.39,2.39,0,0,0,.06.68.49.49,0,0,0,.22.23.77.77,0,0,0,.42.09A4.26,4.26,0,0,0,776.27,417.81Z" transform="translate(-238.74 -99.75)"/><path class="g" d="M777.46,418.91v-7.26h1.1v1.1a3,3,0,0,1,.79-1,1.33,1.33,0,0,1,.79-.25,2.36,2.36,0,0,1,1.26.4L781,413a1.74,1.74,0,0,0-.91-.27,1.19,1.19,0,0,0-.72.25,1.31,1.31,0,0,0-.46.67,5.06,5.06,0,0,0-.2,1.44v3.8Z" transform="translate(-238.74 -99.75)"/><path class="g" d="M786.87,418a4.49,4.49,0,0,1-1.32.82,3.76,3.76,0,0,1-1.35.24,2.64,2.64,0,0,1-1.84-.58,1.93,1.93,0,0,1-.64-1.5,2,2,0,0,1,.87-1.68,3,3,0,0,1,.89-.4,7.53,7.53,0,0,1,1.09-.19,11.73,11.73,0,0,0,2.2-.42V414a1.36,1.36,0,0,0-.34-1.06,2.08,2.08,0,0,0-1.41-.42,2.22,2.22,0,0,0-1.28.3,1.93,1.93,0,0,0-.61,1.08l-1.2-.16a3,3,0,0,1,.54-1.25,2.33,2.33,0,0,1,1.08-.73,4.93,4.93,0,0,1,1.65-.26,4.46,4.46,0,0,1,1.51.22,2.1,2.1,0,0,1,.86.55,1.92,1.92,0,0,1,.38.84,7.09,7.09,0,0,1,.06,1.13v1.64a18,18,0,0,0,.08,2.18,2.84,2.84,0,0,0,.31.87h-1.28A2.71,2.71,0,0,1,786.87,418Zm-.1-2.75a8.78,8.78,0,0,1-2,.47,4.66,4.66,0,0,0-1.08.24,1.06,1.06,0,0,0-.48.4,1,1,0,0,0-.17.59,1,1,0,0,0,.37.82,1.6,1.6,0,0,0,1.09.33,2.65,2.65,0,0,0,1.27-.31,2,2,0,0,0,.81-.86,3,3,0,0,0,.2-1.23Z" transform="translate(-238.74 -99.75)"/><path class="g" d="M789.92,418.91v-7.26H791v1a2.6,2.6,0,0,1,2.31-1.2,3,3,0,0,1,1.2.24,1.93,1.93,0,0,1,.83.62,2.34,2.34,0,0,1,.38.91,7.47,7.47,0,0,1,.07,1.19v4.47h-1.23v-4.42a3.13,3.13,0,0,0-.15-1.12,1.14,1.14,0,0,0-.51-.6,1.58,1.58,0,0,0-.85-.22,2,2,0,0,0-1.36.5,2.45,2.45,0,0,0-.57,1.89v4Z" transform="translate(-238.74 -99.75)"/><path class="g" d="M797.21,416.74l1.22-.19a1.71,1.71,0,0,0,.57,1.12,2,2,0,0,0,1.31.39,2,2,0,0,0,1.26-.35,1,1,0,0,0,.41-.81.74.74,0,0,0-.37-.65,5.07,5.07,0,0,0-1.25-.42,11.22,11.22,0,0,1-1.88-.59,1.79,1.79,0,0,1-1.06-1.67,1.81,1.81,0,0,1,.22-.89,2,2,0,0,1,.6-.69,2.78,2.78,0,0,1,.79-.36,3.62,3.62,0,0,1,1.06-.15,4.07,4.07,0,0,1,1.5.25,2,2,0,0,1,.95.66,2.65,2.65,0,0,1,.43,1.13l-1.2.16a1.35,1.35,0,0,0-.48-.87,1.73,1.73,0,0,0-1.11-.32,2,2,0,0,0-1.21.28.83.83,0,0,0-.36.66.68.68,0,0,0,.15.43,1.09,1.09,0,0,0,.47.33c.12.05.48.15,1.09.31.87.24,1.47.43,1.82.57a1.94,1.94,0,0,1,.81.65,1.83,1.83,0,0,1,.29,1,2.06,2.06,0,0,1-.36,1.16,2.27,2.27,0,0,1-1,.84,3.73,3.73,0,0,1-1.53.3,3.41,3.41,0,0,1-2.16-.59A2.71,2.71,0,0,1,797.21,416.74Z" transform="translate(-238.74 -99.75)"/><path class="g" d="M805,418.91V412.6h-1.09v-1H805v-.78a3.24,3.24,0,0,1,.13-1.08,1.63,1.63,0,0,1,.62-.78,2.26,2.26,0,0,1,1.26-.3,6.32,6.32,0,0,1,1.15.13l-.19,1.07a3.65,3.65,0,0,0-.72-.07,1.09,1.09,0,0,0-.8.24,1.34,1.34,0,0,0-.23.9v.67h1.42v1h-1.42v6.31Z" transform="translate(-238.74 -99.75)"/><path class="g" d="M813.56,416.57l1.28.16a3.18,3.18,0,0,1-1.12,1.73,3.78,3.78,0,0,1-4.6-.37,3.84,3.84,0,0,1-.94-2.75,4,4,0,0,1,1-2.85,3.2,3.2,0,0,1,2.44-1,3.09,3.09,0,0,1,2.38,1,3.92,3.92,0,0,1,.93,2.79c0,.08,0,.19,0,.33h-5.41a2.77,2.77,0,0,0,.67,1.83,2,2,0,0,0,1.52.64,1.88,1.88,0,0,0,1.16-.36A2.31,2.31,0,0,0,813.56,416.57Zm-4-2h4.06a2.44,2.44,0,0,0-.47-1.37,1.87,1.87,0,0,0-1.52-.72,2,2,0,0,0-1.43.57A2.28,2.28,0,0,0,809.52,414.58Z" transform="translate(-238.74 -99.75)"/><path class="g" d="M816.37,418.91v-7.26h1.1v1.1a3,3,0,0,1,.79-1,1.33,1.33,0,0,1,.79-.25,2.36,2.36,0,0,1,1.26.4l-.42,1.14a1.74,1.74,0,0,0-.91-.27,1.19,1.19,0,0,0-.72.25,1.31,1.31,0,0,0-.46.67,5.06,5.06,0,0,0-.2,1.44v3.8Z" transform="translate(-238.74 -99.75)"/><path class="g" d="M825.78,418a4.49,4.49,0,0,1-1.32.82,3.76,3.76,0,0,1-1.35.24,2.64,2.64,0,0,1-1.84-.58,1.93,1.93,0,0,1-.64-1.5,2,2,0,0,1,.87-1.68,3,3,0,0,1,.89-.4,7.8,7.8,0,0,1,1.09-.19,11.73,11.73,0,0,0,2.2-.42V414a1.36,1.36,0,0,0-.34-1.06,2.08,2.08,0,0,0-1.41-.42,2.22,2.22,0,0,0-1.28.3,1.93,1.93,0,0,0-.61,1.08l-1.2-.16a3,3,0,0,1,.54-1.25,2.33,2.33,0,0,1,1.08-.73,4.93,4.93,0,0,1,1.65-.26,4.46,4.46,0,0,1,1.51.22,2.1,2.1,0,0,1,.86.55,1.92,1.92,0,0,1,.38.84,7.09,7.09,0,0,1,.06,1.13v1.64A18,18,0,0,0,827,418a2.84,2.84,0,0,0,.31.87H826A2.71,2.71,0,0,1,825.78,418Zm-.1-2.75a8.78,8.78,0,0,1-2,.47,4.66,4.66,0,0,0-1.08.24,1.06,1.06,0,0,0-.48.4,1.1,1.1,0,0,0-.17.59,1,1,0,0,0,.37.82,1.6,1.6,0,0,0,1.09.33,2.62,2.62,0,0,0,1.27-.31,2,2,0,0,0,.81-.86,3,3,0,0,0,.2-1.23Z" transform="translate(-238.74 -99.75)"/><path class="g" d="M830,418.91h-1.14v-10h1.23v3.58a2.44,2.44,0,0,1,2-1,3,3,0,0,1,1.27.27,2.57,2.57,0,0,1,1,.76,3.76,3.76,0,0,1,.61,1.18,5,5,0,0,1,.22,1.48,4.12,4.12,0,0,1-.93,2.88,2.87,2.87,0,0,1-2.21,1,2.33,2.33,0,0,1-2-1.07Zm0-3.69a3.75,3.75,0,0,0,.36,1.89,1.77,1.77,0,0,0,1.57.95,1.75,1.75,0,0,0,1.39-.7,3.21,3.21,0,0,0,.59-2.09,3.27,3.27,0,0,0-.56-2.1,1.73,1.73,0,0,0-1.37-.68,1.76,1.76,0,0,0-1.39.71A3.06,3.06,0,0,0,830,415.22Z" transform="translate(-238.74 -99.75)"/><path class="g" d="M836.62,410.3v-1.42h1.23v1.42Zm0,8.61v-7.26h1.23v7.26Z" transform="translate(-238.74 -99.75)"/><path class="g" d="M839.7,418.91v-10h1.23v10Z" transform="translate(-238.74 -99.75)"/><path class="g" d="M842.84,410.3v-1.42h1.23v1.42Zm0,8.61v-7.26h1.23v7.26Z" transform="translate(-238.74 -99.75)"/><path class="g" d="M848.63,417.81l.18,1.08a4.17,4.17,0,0,1-.93.11,2.13,2.13,0,0,1-1-.21,1.22,1.22,0,0,1-.52-.56,4.39,4.39,0,0,1-.15-1.45V412.6h-.9v-1h.9v-1.8l1.23-.74v2.54h1.23v1H847.4v4.25a2.39,2.39,0,0,0,.06.68.43.43,0,0,0,.21.23.82.82,0,0,0,.42.09A4,4,0,0,0,848.63,417.81Z" transform="translate(-238.74 -99.75)"/><path class="g" d="M849.78,421.7l-.14-1.15a2.93,2.93,0,0,0,.71.11,1.33,1.33,0,0,0,.65-.14,1.15,1.15,0,0,0,.41-.38,6,6,0,0,0,.37-.92c0-.07.06-.17.11-.3l-2.75-7.27h1.32l1.52,4.2c.19.53.37,1.09.52,1.68a15.74,15.74,0,0,1,.51-1.65l1.55-4.23h1.23L853,419a16,16,0,0,1-.69,1.65,2.51,2.51,0,0,1-.75.89,1.79,1.79,0,0,1-1,.28A2.48,2.48,0,0,1,849.78,421.7Z" transform="translate(-238.74 -99.75)"/></g><rect class="e" x="513.26" y="0.25" width="10" height="124.81"/><g class="f"><path class="g" d="M773.57,167.3V160h1.1v1.1a3,3,0,0,1,.79-1,1.33,1.33,0,0,1,.79-.25,2.36,2.36,0,0,1,1.26.4l-.42,1.14a1.74,1.74,0,0,0-.9-.27,1.18,1.18,0,0,0-.73.24,1.38,1.38,0,0,0-.46.68,5,5,0,0,0-.2,1.43v3.8Z" transform="translate(-238.74 -99.75)"/><path class="g" d="M783.21,165l1.27.15a3.08,3.08,0,0,1-1.11,1.73,3.36,3.36,0,0,1-2.08.62,3.32,3.32,0,0,1-2.52-1,3.81,3.81,0,0,1-.94-2.75,4,4,0,0,1,.95-2.85,3.18,3.18,0,0,1,2.44-1,3.1,3.1,0,0,1,2.38,1,3.91,3.91,0,0,1,.92,2.79V164H779.1a2.82,2.82,0,0,0,.68,1.83,2,2,0,0,0,1.52.64,1.86,1.86,0,0,0,1.15-.36A2.3,2.3,0,0,0,783.21,165Zm-4-2h4.06a2.5,2.5,0,0,0-.47-1.38,1.89,1.89,0,0,0-1.52-.71,2,2,0,0,0-1.43.57A2.26,2.26,0,0,0,779.17,163Z" transform="translate(-238.74 -99.75)"/><path class="g" d="M790.77,166.41a4.63,4.63,0,0,1-1.32.82,3.78,3.78,0,0,1-1.36.24,2.66,2.66,0,0,1-1.84-.59,1.94,1.94,0,0,1-.64-1.49,2,2,0,0,1,.24-1,2.1,2.1,0,0,1,.64-.71,3.16,3.16,0,0,1,.89-.41,9.72,9.72,0,0,1,1.09-.18,11.76,11.76,0,0,0,2.19-.42c0-.17,0-.28,0-.32a1.35,1.35,0,0,0-.35-1.06,2,2,0,0,0-1.4-.42,2.18,2.18,0,0,0-1.28.3,1.84,1.84,0,0,0-.61,1.08l-1.21-.16a2.94,2.94,0,0,1,.54-1.25,2.36,2.36,0,0,1,1.09-.73,4.84,4.84,0,0,1,1.65-.26,4.27,4.27,0,0,1,1.51.22,1.9,1.9,0,0,1,.85.55,1.93,1.93,0,0,1,.39.84,7,7,0,0,1,.06,1.13v1.64a15.77,15.77,0,0,0,.08,2.17,2.45,2.45,0,0,0,.31.87H791A2.38,2.38,0,0,1,790.77,166.41Zm-.11-2.75a9.05,9.05,0,0,1-2,.47,4.67,4.67,0,0,0-1.07.24,1.06,1.06,0,0,0-.48.4,1,1,0,0,0-.18.59,1.06,1.06,0,0,0,.38.82,1.65,1.65,0,0,0,1.09.32,2.5,2.5,0,0,0,1.26-.31,1.92,1.92,0,0,0,.82-.85,3,3,0,0,0,.19-1.23Z" transform="translate(-238.74 -99.75)"/><path class="g" d="M793.32,165.14l1.22-.19a1.73,1.73,0,0,0,.57,1.12,2,2,0,0,0,1.31.39,2,2,0,0,0,1.26-.35,1,1,0,0,0,.41-.81.75.75,0,0,0-.36-.66,6.13,6.13,0,0,0-1.26-.41,12.27,12.27,0,0,1-1.88-.59,1.79,1.79,0,0,1-1.06-1.67,1.87,1.87,0,0,1,.22-.9,2.06,2.06,0,0,1,.6-.68,2.53,2.53,0,0,1,.79-.36,3.62,3.62,0,0,1,1.06-.15,4.07,4.07,0,0,1,1.5.25,2,2,0,0,1,.95.66,2.6,2.6,0,0,1,.43,1.13l-1.2.16a1.35,1.35,0,0,0-.48-.87,1.73,1.73,0,0,0-1.11-.32,2,2,0,0,0-1.21.28.83.83,0,0,0-.36.66.68.68,0,0,0,.15.43,1.09,1.09,0,0,0,.47.33c.12,0,.48.15,1.09.31a14.71,14.71,0,0,1,1.82.57,1.94,1.94,0,0,1,.81.65,1.83,1.83,0,0,1,.29,1,2.06,2.06,0,0,1-.36,1.16,2.34,2.34,0,0,1-1,.84,3.73,3.73,0,0,1-1.53.3,3.41,3.41,0,0,1-2.16-.59A2.71,2.71,0,0,1,793.32,165.14Z" transform="translate(-238.74 -99.75)"/><path class="g" d="M800.36,163.67a3.71,3.71,0,0,1,1.12-3,3.35,3.35,0,0,1,2.28-.81,3.27,3.27,0,0,1,2.45,1,3.74,3.74,0,0,1,.95,2.71,4.83,4.83,0,0,1-.42,2.21,2.94,2.94,0,0,1-1.23,1.24,3.51,3.51,0,0,1-1.75.45,3.26,3.26,0,0,1-2.46-1A3.89,3.89,0,0,1,800.36,163.67Zm1.26,0a3.07,3.07,0,0,0,.61,2.09,2,2,0,0,0,3.06,0,3.2,3.2,0,0,0,.6-2.13,3,3,0,0,0-.61-2,2,2,0,0,0-1.52-.69,2,2,0,0,0-1.53.69A3,3,0,0,0,801.62,163.67Z" transform="translate(-238.74 -99.75)"/><path class="g" d="M808.6,167.3V160h1.11v1a2.6,2.6,0,0,1,2.31-1.2,3,3,0,0,1,1.21.24,1.88,1.88,0,0,1,.82.61,2.4,2.4,0,0,1,.38.91,6.62,6.62,0,0,1,.07,1.2v4.46h-1.23v-4.41a3.54,3.54,0,0,0-.14-1.13,1.22,1.22,0,0,0-.51-.59,1.62,1.62,0,0,0-.86-.22,2,2,0,0,0-1.36.5,2.45,2.45,0,0,0-.57,1.89v4Z" transform="translate(-238.74 -99.75)"/><path class="g" d="M816.39,158.7v-1.42h1.23v1.42Zm0,8.6V160h1.23v7.26Z" transform="translate(-238.74 -99.75)"/><path class="g" d="M819.5,167.3V160h1.1v1a2.63,2.63,0,0,1,2.32-1.2,3,3,0,0,1,1.2.24,1.92,1.92,0,0,1,.83.61,2.4,2.4,0,0,1,.38.91,7.72,7.72,0,0,1,.07,1.2v4.46h-1.23v-4.41a3.23,3.23,0,0,0-.15-1.13,1.12,1.12,0,0,0-.51-.59,1.58,1.58,0,0,0-.85-.22,2,2,0,0,0-1.36.5,2.45,2.45,0,0,0-.57,1.89v4Z" transform="translate(-238.74 -99.75)"/><path class="g" d="M827.06,167.91l1.19.17a1.14,1.14,0,0,0,.42.81,2,2,0,0,0,1.25.34,2.18,2.18,0,0,0,1.32-.34,1.7,1.7,0,0,0,.63-1,8.49,8.49,0,0,0,.09-1.58,2.52,2.52,0,0,1-2,1,2.75,2.75,0,0,1-2.32-1.08,4.19,4.19,0,0,1-.82-2.59,4.79,4.79,0,0,1,.38-1.91,3,3,0,0,1,1.09-1.36,2.91,2.91,0,0,1,1.68-.48,2.63,2.63,0,0,1,2.12,1V160h1.13v6.28a6,6,0,0,1-.34,2.4,2.53,2.53,0,0,1-1.1,1.12,3.82,3.82,0,0,1-1.84.41,3.46,3.46,0,0,1-2.1-.58A2,2,0,0,1,827.06,167.91Zm1-4.37a3.2,3.2,0,0,0,.56,2.09,1.87,1.87,0,0,0,2.85,0,3,3,0,0,0,.57-2,3,3,0,0,0-.59-2,1.8,1.8,0,0,0-1.42-.68,1.76,1.76,0,0,0-1.4.67A3,3,0,0,0,828.08,163.54Z" transform="translate(-238.74 -99.75)"/></g></svg>