<?xml version="1.0" encoding="utf-8"?>
<!-- Generator: Adobe Illustrator 26.0.2, SVG Export Plug-In . SVG Version: 6.00 Build 0)  -->
<svg version="1.1" id="Layer_1" xmlns="http://www.w3.org/2000/svg" xmlns:xlink="http://www.w3.org/1999/xlink" x="0px" y="0px"
	 viewBox="0 0 800.6 500" style="enable-background:new 0 0 800.6 500;" xml:space="preserve">
<style type="text/css">
	.st0{fill:#450256;}
	.st1{fill:url(#SVGID_1_);}
	.st2{fill:url(#SVGID_00000029007133977594984130000001401909599151226508_);}
	.st3{fill:#57BCD6;}
	.st4{fill:url(#SVGID_00000086668241129154407660000005729283776834973374_);}
	.st5{fill:url(#SVGID_00000118370383125543723650000010932956301713792157_);}
	.st6{fill:url(#SVGID_00000104701125767250016430000009359501120759652258_);}
	.st7{fill:url(#SVGID_00000034054403437358503580000015941364265937205654_);}
	.st8{fill:url(#SVGID_00000147919918949274507290000000566847533835067063_);}
	.st9{fill:url(#SVGID_00000168830059328969492470000007387687773682124185_);}
	.st10{fill:#333333;stroke:#444444;stroke-width:0.5;}
	.st11{fill:#333333;}
	.st12{font-family:'ArialMT';}
	.st13{font-size:13px;}
	.st14{enable-background:new    ;}
	.st15{fill:#CCCCCC;stroke:#FFFFFF;stroke-width:0.5;}
</style>
<path class="st0" d="M131.5,248.1c127.5,0,127.5,20.8,255,20.8v5.7c-127.5,0-127.5-20.8-255-20.8V248.1z"/>
<linearGradient id="SVGID_1_" gradientUnits="userSpaceOnUse" x1="396.5207" y1="266.6912" x2="651.5207" y2="266.6912">
	<stop  offset="0" style="stop-color:#450256"/>
	<stop  offset="0.1149" style="stop-color:#480659"/>
	<stop  offset="0.2397" style="stop-color:#521362"/>
	<stop  offset="0.3692" style="stop-color:#622970"/>
	<stop  offset="0.5019" style="stop-color:#784885"/>
	<stop  offset="0.6371" style="stop-color:#956F9F"/>
	<stop  offset="0.7744" style="stop-color:#B89FBF"/>
	<stop  offset="0.9107" style="stop-color:#E1D6E4"/>
	<stop  offset="1" style="stop-color:#FFFFFF"/>
</linearGradient>
<path class="st1" d="M396.5,295.1c127.5,0,127.5-62.6,255-62.6v5.7c-127.5,0-127.5,62.6-255,62.6V295.1z"/>
<path class="st0" d="M131.5,216.5c127.5,0,127.5-7.1,255-7.1v5.7c-127.5,0-127.5,7.1-255,7.1V216.5z"/>
<linearGradient id="SVGID_00000011020117059417220550000006894018885411523744_" gradientUnits="userSpaceOnUse" x1="396.5207" y1="220.0184" x2="651.5207" y2="220.0184">
	<stop  offset="0" style="stop-color:#450256"/>
	<stop  offset="0.1149" style="stop-color:#480659"/>
	<stop  offset="0.2397" style="stop-color:#521362"/>
	<stop  offset="0.3692" style="stop-color:#622970"/>
	<stop  offset="0.5019" style="stop-color:#784885"/>
	<stop  offset="0.6371" style="stop-color:#956F9F"/>
	<stop  offset="0.7744" style="stop-color:#B89FBF"/>
	<stop  offset="0.9107" style="stop-color:#E1D6E4"/>
	<stop  offset="1" style="stop-color:#FFFFFF"/>
</linearGradient>
<path style="fill:url(#SVGID_00000011020117059417220550000006894018885411523744_);" d="M396.5,219c127.5,0,127.5-3.6,255-3.6v5.7
	c-127.5,0-127.5,3.6-255,3.6V219z"/>
<path class="st3" d="M131.5,359.1c127.5,0,127.5,23.6,255,23.6v5.7c-127.5,0-127.5-23.6-255-23.6V359.1z"/>
<linearGradient id="SVGID_00000038378263529680154940000004824075739545989526_" gradientUnits="userSpaceOnUse" x1="396.5207" y1="326.2684" x2="651.5207" y2="326.2684">
	<stop  offset="0" style="stop-color:#57BCD6"/>
	<stop  offset="0.1431" style="stop-color:#5BBED7"/>
	<stop  offset="0.2983" style="stop-color:#68C3DA"/>
	<stop  offset="0.4592" style="stop-color:#7ECCE0"/>
	<stop  offset="0.6242" style="stop-color:#9DD8E7"/>
	<stop  offset="0.7921" style="stop-color:#C4E7F1"/>
	<stop  offset="0.9604" style="stop-color:#F3FAFC"/>
	<stop  offset="1" style="stop-color:#FFFFFF"/>
</linearGradient>
<path style="fill:url(#SVGID_00000038378263529680154940000004824075739545989526_);" d="M396.5,397.1
	c127.5,0,127.5-147.3,255-147.3v5.7c-127.5,0-127.5,147.3-255,147.3V397.1z"/>
<path class="st0" d="M131.5,222.3c127.5,0,127.5-7.1,255-7.1v2.9c-127.5,0-127.5,7.1-255,7.1V222.3z"/>
<path class="st3" d="M131.5,321.8c127.5,0,127.5-80.9,255-80.9v2.9c-127.5,0-127.5,80.9-255,80.9V321.8z"/>
<path class="st3" d="M396.5,209.4c127.5,0,127.5-89.3,255-89.3v1.9c-127.5,0-127.5,89.3-255,89.3V209.4z"/>
<path class="st3" d="M396.5,241.9c127.5,0,127.5,164.2,255,164.2v1.9c-127.5,0-127.5-164.2-255-164.2V241.9z"/>
<path class="st3" d="M396.5,238.1c127.5,0,127.5,125.8,255,125.8v1.9C524,365.8,524,240,396.5,240V238.1z"/>
<path class="st0" d="M131.5,225.1c127.5,0,127.5-7.1,255-7.1v5.7c-127.5,0-127.5,7.1-255,7.1V225.1z"/>
<path class="st0" d="M396.5,211.3c127.5,0,127.5-89.3,255-89.3v5.7c-127.5,0-127.5,89.3-255,89.3V211.3z"/>
<path class="st0" d="M131.5,230.9c127.5,0,127.5-7.1,255-7.1v5.7c-127.5,0-127.5,7.1-255,7.1V230.9z"/>
<linearGradient id="SVGID_00000010276904560527865890000008611442412609270708_" gradientUnits="userSpaceOnUse" x1="396.5207" y1="225.7537" x2="651.5207" y2="225.7537">
	<stop  offset="0" style="stop-color:#450256"/>
	<stop  offset="0.1149" style="stop-color:#480659"/>
	<stop  offset="0.2397" style="stop-color:#521362"/>
	<stop  offset="0.3692" style="stop-color:#622970"/>
	<stop  offset="0.5019" style="stop-color:#784885"/>
	<stop  offset="0.6371" style="stop-color:#956F9F"/>
	<stop  offset="0.7744" style="stop-color:#B89FBF"/>
	<stop  offset="0.9107" style="stop-color:#E1D6E4"/>
	<stop  offset="1" style="stop-color:#FFFFFF"/>
</linearGradient>
<path style="fill:url(#SVGID_00000010276904560527865890000008611442412609270708_);" d="M396.5,224.7c127.5,0,127.5-3.6,255-3.6
	v5.7c-127.5,0-127.5,3.6-255,3.6V224.7z"/>
<linearGradient id="SVGID_00000034047316222388338490000017974562210410760833_" gradientUnits="userSpaceOnUse" x1="396.5207" y1="272.4265" x2="651.5207" y2="272.4265">
	<stop  offset="0" style="stop-color:#450256"/>
	<stop  offset="0.1149" style="stop-color:#480659"/>
	<stop  offset="0.2397" style="stop-color:#521362"/>
	<stop  offset="0.3692" style="stop-color:#622970"/>
	<stop  offset="0.5019" style="stop-color:#784885"/>
	<stop  offset="0.6371" style="stop-color:#956F9F"/>
	<stop  offset="0.7744" style="stop-color:#B89FBF"/>
	<stop  offset="0.9107" style="stop-color:#E1D6E4"/>
	<stop  offset="1" style="stop-color:#FFFFFF"/>
</linearGradient>
<path style="fill:url(#SVGID_00000034047316222388338490000017974562210410760833_);" d="M396.5,300.8c127.5,0,127.5-62.6,255-62.6
	v5.7c-127.5,0-127.5,62.6-255,62.6V300.8z"/>
<path class="st0" d="M131.5,182.1c127.5,0,127.5-32.1,255-32.1v5.7c-127.5,0-127.5,32.1-255,32.1V182.1z"/>
<path class="st0" d="M396.5,183c127.5,0,127.5,221.7,255,221.7v1.4c-127.5,0-127.5-221.7-255-221.7V183z"/>
<path class="st0" d="M396.5,181.5c127.5,0,127.5,181,255,181v1.4c-127.5,0-127.5-181-255-181V181.5z"/>
<path class="st0" d="M396.5,177.2c127.5,0,127.5,136.4,255,136.4v1.4C524,315,524,178.7,396.5,178.7V177.2z"/>
<path class="st0" d="M396.5,175.8c127.5,0,127.5,104.7,255,104.7v1.4c-127.5,0-127.5-104.7-255-104.7V175.8z"/>
<path class="st0" d="M131.5,282.5c127.5,0,127.5,85.9,255,85.9v2.9c-127.5,0-127.5-85.9-255-85.9V282.5z"/>
<path class="st3" d="M131.5,364.8c127.5,0,127.5,23.6,255,23.6v2.9c-127.5,0-127.5-23.6-255-23.6V364.8z"/>
<path class="st3" d="M396.5,368.4c127.5,0,127.5-212.5,255-212.5v2.9c-127.5,0-127.5,212.5-255,212.5V368.4z"/>
<path class="st3" d="M396.5,411.4c127.5,0,127.5-37.4,255-37.4v2.9c-127.5,0-127.5,37.4-255,37.4V411.4z"/>
<path class="st3" d="M131.5,367.7c127.5,0,127.5,23.6,255,23.6v5.7c-127.5,0-127.5-23.6-255-23.6V367.7z"/>
<path class="st3" d="M396.5,371.2c127.5,0,127.5-212.5,255-212.5v2.9c-127.5,0-127.5,212.5-255,212.5V371.2z"/>
<path class="st3" d="M396.5,405.7c127.5,0,127.5-73.9,255-73.9v2.9c-127.5,0-127.5,73.9-255,73.9V405.7z"/>
<path class="st0" d="M131.5,285.3c127.5,0,127.5,85.9,255,85.9v2.9c-127.5,0-127.5-85.9-255-85.9V285.3z"/>
<path class="st3" d="M131.5,373.4c127.5,0,127.5,23.6,255,23.6v2.9c-127.5,0-127.5-23.6-255-23.6V373.4z"/>
<path class="st3" d="M396.5,374.1c127.5,0,127.5-212.5,255-212.5v2.9C524,164.5,524,377,396.5,377V374.1z"/>
<path class="st3" d="M396.5,414.3c127.5,0,127.5-37.4,255-37.4v2.9c-127.5,0-127.5,37.4-255,37.4V414.3z"/>
<path class="st0" d="M131.5,253.8c127.5,0,127.5,20.8,255,20.8v5.7c-127.5,0-127.5-20.8-255-20.8V253.8z"/>
<path class="st0" d="M396.5,268.8c127.5,0,127.5-139.2,255-139.2v2.9c-127.5,0-127.5,139.2-255,139.2V268.8z"/>
<path class="st0" d="M396.5,334.3c127.5,0,127.5,73.8,255,73.8v2.9c-127.5,0-127.5-73.8-255-73.8V334.3z"/>
<path class="st0" d="M131.5,187.8c127.5,0,127.5-32.1,255-32.1v5.7c-127.5,0-127.5,32.1-255,32.1V187.8z"/>
<path class="st0" d="M396.5,150c127.5,0,127.5-50,255-50v5.7c-127.5,0-127.5,50-255,50V150z"/>
<path class="st0" d="M131.5,193.6c127.5,0,127.5-32.1,255-32.1v5.7c-127.5,0-127.5,32.1-255,32.1V193.6z"/>
<path class="st0" d="M396.5,155.7c127.5,0,127.5-50,255-50v5.7c-127.5,0-127.5,50-255,50V155.7z"/>
<path class="st3" d="M131.5,324.7c127.5,0,127.5-21.4,255-21.4v5.7c-127.5,0-127.5,21.4-255,21.4V324.7z"/>
<path class="st3" d="M396.5,271.7c127.5,0,127.5-139.2,255-139.2v1.9c-127.5,0-127.5,139.2-255,139.2V271.7z"/>
<path class="st3" d="M396.5,328.1c127.5,0,127.5,39.7,255,39.7v1.9C524,369.7,524,330,396.5,330V328.1z"/>
<path class="st3" d="M396.5,314.2c127.5,0,127.5,3.7,255,3.7v1.9c-127.5,0-127.5-3.7-255-3.7V314.2z"/>
<path class="st3" d="M131.5,376.3c127.5,0,127.5,23.6,255,23.6v5.7C259,405.7,259,382,131.5,382V376.3z"/>
<path class="st3" d="M396.5,377c127.5,0,127.5-212.5,255-212.5v2.9c-127.5,0-127.5,212.5-255,212.5V377z"/>
<path class="st3" d="M396.5,402.8c127.5,0,127.5-117.1,255-117.1v2.9c-127.5,0-127.5,117.1-255,117.1V402.8z"/>
<path class="st0" d="M131.5,288.2c127.5,0,127.5,85.9,255,85.9v2.9c-127.5,0-127.5-85.9-255-85.9V288.2z"/>
<path class="st3" d="M131.5,382c127.5,0,127.5,23.6,255,23.6v2.9c-127.5,0-127.5-23.6-255-23.6V382z"/>
<path class="st3" d="M396.5,379.9c127.5,0,127.5-212.5,255-212.5v5.7c-127.5,0-127.5,212.5-255,212.5V379.9z"/>
<path class="st3" d="M131.5,384.9c127.5,0,127.5,23.6,255,23.6v5.7c-127.5,0-127.5-23.6-255-23.6V384.9z"/>
<path class="st3" d="M396.5,417.1c127.5,0,127.5,0,255,0v2.9c-127.5,0-127.5,0-255,0V417.1z"/>
<path class="st3" d="M396.5,408.5c127.5,0,127.5-73.9,255-73.9v2.9c-127.5,0-127.5,73.9-255,73.9V408.5z"/>
<path class="st0" d="M131.5,199.3c127.5,0,127.5-32.1,255-32.1v5.7C259,172.9,259,205,131.5,205V199.3z"/>
<linearGradient id="SVGID_00000085930986621266454720000001793077698591116417_" gradientUnits="userSpaceOnUse" x1="396.5207" y1="192.7022" x2="651.5207" y2="192.7022">
	<stop  offset="0" style="stop-color:#450256"/>
	<stop  offset="0.1149" style="stop-color:#480659"/>
	<stop  offset="0.2397" style="stop-color:#521362"/>
	<stop  offset="0.3692" style="stop-color:#622970"/>
	<stop  offset="0.5019" style="stop-color:#784885"/>
	<stop  offset="0.6371" style="stop-color:#956F9F"/>
	<stop  offset="0.7744" style="stop-color:#B89FBF"/>
	<stop  offset="0.9107" style="stop-color:#E1D6E4"/>
	<stop  offset="1" style="stop-color:#FFFFFF"/>
</linearGradient>
<path style="fill:url(#SVGID_00000085930986621266454720000001793077698591116417_);" d="M396.5,170.1c127.5,0,127.5,39.5,255,39.5
	v5.7c-127.5,0-127.5-39.5-255-39.5V170.1z"/>
<path class="st0" d="M131.5,291.1c127.5,0,127.5,85.9,255,85.9v5.7c-127.5,0-127.5-85.9-255-85.9V291.1z"/>
<path class="st0" d="M396.5,385.6c127.5,0,127.5-212.5,255-212.5v5.7c-127.5,0-127.5,212.5-255,212.5V385.6z"/>
<path class="st3" d="M131.5,330.4c127.5,0,127.5-21.4,255-21.4v5.7c-127.5,0-127.5,21.4-255,21.4V330.4z"/>
<path class="st3" d="M396.5,273.6c127.5,0,127.5-139.2,255-139.2v2.9c-127.5,0-127.5,139.2-255,139.2V273.6z"/>
<path class="st3" d="M396.5,316.1c127.5,0,127.5,3.7,255,3.7v2.9c-127.5,0-127.5-3.7-255-3.7V316.1z"/>
<path class="st0" d="M131.5,259.5c127.5,0,127.5,20.8,255,20.8v5.7c-127.5,0-127.5-20.8-255-20.8V259.5z"/>
<path class="st0" d="M396.5,276.5c127.5,0,127.5-139.2,255-139.2v2.9c-127.5,0-127.5,139.2-255,139.2V276.5z"/>
<path class="st0" d="M396.5,330c127.5,0,127.5,39.7,255,39.7v2.9c-127.5,0-127.5-39.7-255-39.7V330z"/>
<path class="st0" d="M131.5,265.3c127.5,0,127.5,20.8,255,20.8v5.7C259,291.8,259,271,131.5,271V265.3z"/>
<path class="st0" d="M396.5,279.3c127.5,0,127.5-139.2,255-139.2v5.7c-127.5,0-127.5,139.2-255,139.2V279.3z"/>
<path class="st0" d="M131.5,205c127.5,0,127.5-32.1,255-32.1v5.7c-127.5,0-127.5,32.1-255,32.1V205z"/>
<path class="st0" d="M396.5,161.5c127.5,0,127.5-50,255-50v5.7c-127.5,0-127.5,50-255,50V161.5z"/>
<path class="st0" d="M131.5,210.8c127.5,0,127.5-32.1,255-32.1v5.7c-127.5,0-127.5,32.1-255,32.1V210.8z"/>
<path class="st0" d="M396.5,167.2c127.5,0,127.5-50,255-50v2.9c-127.5,0-127.5,50-255,50V167.2z"/>
<path class="st0" d="M396.5,178.7C524,178.7,524,315,651.5,315v2.9c-127.5,0-127.5-136.4-255-136.4V178.7z"/>
<path class="st3" d="M131.5,336.1c127.5,0,127.5-21.4,255-21.4v5.7c-127.5,0-127.5,21.4-255,21.4V336.1z"/>
<path class="st3" d="M396.5,319c127.5,0,127.5,3.7,255,3.7v5.7c-127.5,0-127.5-3.7-255-3.7V319z"/>
<path class="st3" d="M131.5,390.6c127.5,0,127.5,23.6,255,23.6v5.7c-127.5,0-127.5-23.6-255-23.6V390.6z"/>
<path class="st3" d="M396.5,391.3c127.5,0,127.5-212.5,255-212.5v5.7c-127.5,0-127.5,212.5-255,212.5V391.3z"/>
<path class="st3" d="M131.5,341.9c127.5,0,127.5-21.4,255-21.4v5.7c-127.5,0-127.5,21.4-255,21.4V341.9z"/>
<path class="st3" d="M396.5,285.1c127.5,0,127.5-139.2,255-139.2v1.4c-127.5,0-127.5,139.2-255,139.2V285.1z"/>
<path class="st3" d="M396.5,337.2c127.5,0,127.5,73.8,255,73.8v1.4c-127.5,0-127.5-73.8-255-73.8V337.2z"/>
<path class="st3" d="M396.5,332.9c127.5,0,127.5,39.7,255,39.7v1.4c-127.5,0-127.5-39.7-255-39.7V332.9z"/>
<path class="st3" d="M396.5,324.7c127.5,0,127.5,3.7,255,3.7v1.4c-127.5,0-127.5-3.7-255-3.7V324.7z"/>
<path class="st3" d="M131.5,347.6c127.5,0,127.5-21.4,255-21.4v5.7c-127.5,0-127.5,21.4-255,21.4V347.6z"/>
<path class="st3" d="M396.5,286.5c127.5,0,127.5-139.2,255-139.2v5.7c-127.5,0-127.5,139.2-255,139.2V286.5z"/>
<path class="st0" d="M131.5,271c127.5,0,127.5,20.8,255,20.8v5.7c-127.5,0-127.5-20.8-255-20.8V271z"/>
<linearGradient id="SVGID_00000120522901088916226310000011519307446360990650_" gradientUnits="userSpaceOnUse" x1="396.5207" y1="278.1618" x2="651.5207" y2="278.1618">
	<stop  offset="0" style="stop-color:#450256"/>
	<stop  offset="0.1149" style="stop-color:#480659"/>
	<stop  offset="0.2397" style="stop-color:#521362"/>
	<stop  offset="0.3692" style="stop-color:#622970"/>
	<stop  offset="0.5019" style="stop-color:#784885"/>
	<stop  offset="0.6371" style="stop-color:#956F9F"/>
	<stop  offset="0.7744" style="stop-color:#B89FBF"/>
	<stop  offset="0.9107" style="stop-color:#E1D6E4"/>
	<stop  offset="1" style="stop-color:#FFFFFF"/>
</linearGradient>
<path style="fill:url(#SVGID_00000120522901088916226310000011519307446360990650_);" d="M396.5,306.6c127.5,0,127.5-62.6,255-62.6
	v5.7c-127.5,0-127.5,62.6-255,62.6V306.6z"/>
<path class="st0" d="M131.5,236.6c127.5,0,127.5-7.1,255-7.1v5.7c-127.5,0-127.5,7.1-255,7.1V236.6z"/>
<linearGradient id="SVGID_00000123427432406252447960000006903762808116793259_" gradientUnits="userSpaceOnUse" x1="396.5207" y1="231.489" x2="651.5207" y2="231.489">
	<stop  offset="0" style="stop-color:#450256"/>
	<stop  offset="0.1149" style="stop-color:#480659"/>
	<stop  offset="0.2397" style="stop-color:#521362"/>
	<stop  offset="0.3692" style="stop-color:#622970"/>
	<stop  offset="0.5019" style="stop-color:#784885"/>
	<stop  offset="0.6371" style="stop-color:#956F9F"/>
	<stop  offset="0.7744" style="stop-color:#B89FBF"/>
	<stop  offset="0.9107" style="stop-color:#E1D6E4"/>
	<stop  offset="1" style="stop-color:#FFFFFF"/>
</linearGradient>
<path style="fill:url(#SVGID_00000123427432406252447960000006903762808116793259_);" d="M396.5,230.4c127.5,0,127.5-3.6,255-3.6
	v5.7c-127.5,0-127.5,3.6-255,3.6V230.4z"/>
<path class="st0" d="M131.5,276.7c127.5,0,127.5,20.8,255,20.8v5.7c-127.5,0-127.5-20.8-255-20.8V276.7z"/>
<path class="st0" d="M396.5,338.6c127.5,0,127.5,73.8,255,73.8v1.9c-127.5,0-127.5-73.8-255-73.8V338.6z"/>
<path class="st0" d="M396.5,326.2c127.5,0,127.5,3.7,255,3.7v1.9c-127.5,0-127.5-3.7-255-3.7V326.2z"/>
<path class="st0" d="M396.5,312.3c127.5,0,127.5-28.5,255-28.5v1.9c-127.5,0-127.5,28.5-255,28.5V312.3z"/>
<path class="st0" d="M131.5,242.3c127.5,0,127.5-7.1,255-7.1v5.7c-127.5,0-127.5,7.1-255,7.1V242.3z"/>
<path class="st0" d="M396.5,217.1c127.5,0,127.5-89.3,255-89.3v1.9C524,129.6,524,219,396.5,219V217.1z"/>
<path class="st0" d="M396.5,240c127.5,0,127.5,125.8,255,125.8v1.9c-127.5,0-127.5-125.8-255-125.8V240z"/>
<path class="st0" d="M396.5,236.2c127.5,0,127.5,45.7,255,45.7v1.9c-127.5,0-127.5-45.7-255-45.7V236.2z"/>
<path class="st3" d="M131.5,353.4c127.5,0,127.5-21.4,255-21.4v5.7c-127.5,0-127.5,21.4-255,21.4V353.4z"/>
<path class="st3" d="M396.5,292.2c127.5,0,127.5-139.2,255-139.2v2.9c-127.5,0-127.5,139.2-255,139.2V292.2z"/>
<path class="st3" d="M396.5,340.5c127.5,0,127.5,73.8,255,73.8v2.9c-127.5,0-127.5-73.8-255-73.8V340.5z"/>
<rect x="386.5" y="268.8" class="st10" width="10" height="74.6"/>
<text transform="matrix(1 0 0 1 378.9493 265.6273)" class="st11 st12 st13">rules</text>
<rect x="386.5" y="368.4" class="st10" width="10" height="51.6"/>
<text transform="matrix(1 0 0 1 378.7631 363.2811)" class="st11 st12 st13">logic</text>
<rect x="386.5" y="209.4" class="st10" width="10" height="34.4"/>
<text transform="matrix(1 0 0 1 371.957 206.2671)" class="st11 st12 st13">frames</text>
<rect x="386.5" y="150" class="st10" width="10" height="34.4"/>
<text transform="matrix(1 0 0 1 340.7173 145.0641)" class="st11 st12 st13">semantic network</text>
<rect x="121.5" y="182.1" class="st10" width="10" height="114.7"/>
<text transform="matrix(1 0 0 1 59.1061 221.0059)" class="st14"><tspan x="0" y="0" class="st11 st12 st13">implicit (</tspan><tspan x="-18.1" y="15.6" class="st11 st12 st13">knowledge </tspan><tspan x="-31.1" y="31.2" class="st11 st12 st13">is embedded)</tspan></text>
<rect x="121.5" y="321.8" class="st10" width="10" height="74.6"/>
<text transform="matrix(1 0 0 1 67.0344 340.6384)" class="st14"><tspan x="0" y="0" class="st11 st12 st13">explicit</tspan><tspan x="-34" y="15.6" class="st11 st12 st13"> (knowledge </tspan><tspan x="-46.3" y="31.2" class="st11 st12 st13">is represented </tspan><tspan x="-34.7" y="46.8" class="st11 st12 st13">symbolically)</tspan></text>
<rect x="651.5" y="100" class="st10" width="10" height="84.6"/>
<text transform="matrix(1 0 0 1 670.3508 146.8478)" class="st11 st12 st13">reasoning</text>
<rect x="651.5" y="404.7" class="st10" width="10" height="15.3"/>
<text transform="matrix(1 0 0 1 670.3508 416.903)" class="st11 st12 st13">OOD generalization</text>
<rect x="651.5" y="362.5" class="st10" width="10" height="17.2"/>
<text transform="matrix(1 0 0 1 670.3508 375.653)" class="st11 st12 st13">interpretability</text>
<rect x="651.5" y="313.6" class="st10" width="10" height="23.9"/>
<text transform="matrix(1 0 0 1 670.3508 330.1015)" class="st11 st12 st13">reduced data</text>
<rect x="651.5" y="280.5" class="st10" width="10" height="8.1"/>
<text transform="matrix(1 0 0 1 670.3508 289.0905)" class="st11 st12 st13">transferability</text>
<rect x="651.5" y="209.6" class="st15" width="10" height="45.9"/>
<text transform="matrix(1 0 0 1 670.3508 237.0872)" class="st11 st12 st13">none</text>
</svg>
