<?xml version="1.0" encoding="utf-8"?>
<!-- Generator: Adobe Illustrator 26.0.3, SVG Export Plug-In . SVG Version: 6.00 Build 0)  -->
<svg version="1.1" xmlns="http://www.w3.org/2000/svg" xmlns:xlink="http://www.w3.org/1999/xlink" x="0px" y="0px"
	 viewBox="0 0 956.5 896" style="enable-background:new 0 0 956.5 896;" xml:space="preserve">
<style type="text/css">
	.st0{fill:#450256;stroke:#000000;stroke-width:0.25;stroke-miterlimit:10;}
	.st1{opacity:0.25;fill:#450256;stroke:#000000;stroke-width:0.25;stroke-miterlimit:10;}
	.st2{fill:#89B79F;stroke:#000000;stroke-width:0.25;stroke-miterlimit:10;}
	.st3{opacity:0.25;fill:#89B79F;stroke:#000000;stroke-width:0.25;stroke-miterlimit:10;}
	.st4{fill:#57BCD6;stroke:#000000;stroke-width:0.25;stroke-miterlimit:10;}
	.st5{fill:#333333;stroke:#444444;stroke-width:0.5;}
	.st6{opacity:0.25;fill:#333333;stroke:#444444;stroke-width:0.5;}
	.st7{fill:#333333;}
	.st8{font-family:'ArialMT';}
	.st9{font-size:13px;}
	.st10{fill:#450256;stroke:#000000;stroke-width:0.25;}
	.st11{font-size:24px;}
</style>
<g id="Layer_1">
	<path class="st0" d="M90,193.3c152.5,0,152.5-47,305-47v2.7c-152.5,0-152.5,47-305,47V193.3z"/>
	<path class="st0" d="M90,229c152.5,0,152.5,21.9,305,21.9v2.7c-152.5,0-152.5-21.9-305-21.9V229z"/>
	<path class="st1" d="M405,190.2c152.5,0,152.5,74.2,305,74.2v2.7c-152.5,0-152.5-74.2-305-74.2V190.2z"/>
	<path class="st1" d="M405,303.1c152.5,0,152.5-22.3,305-22.3v2.7c-152.5,0-152.5,22.3-305,22.3V303.1z"/>
	<path class="st0" d="M90,196c152.5,0,152.5-47,305-47v2.7c-152.5,0-152.5,47-305,47V196z"/>
	<path class="st1" d="M405,192.9c152.5,0,152.5,74.2,305,74.2v2.7c-152.5,0-152.5-74.2-305-74.2V192.9z"/>
	<path class="st2" d="M90,297.9c152.5,0,152.5,57.6,305,57.6v2.7c-152.5,0-152.5-57.6-305-57.6V297.9z"/>
	<path class="st3" d="M405,374.8c152.5,0,152.5-85.7,305-85.7v2.7c-152.5,0-152.5,85.7-305,85.7V374.8z"/>
	<path class="st4" d="M90,344.9c152.5,0,152.5-61,305-61v2.7c-152.5,0-152.5,61-305,61V344.9z"/>
	<path class="st4" d="M405,250.9c152.5,0,152.5-157.7,305-157.7V96c-152.5,0-152.5,157.7-305,157.7V250.9z"/>
	<path class="st4" d="M405,289.4c152.5,0,152.5-66.5,305-66.5v2.7c-152.5,0-152.5,66.5-305,66.5V289.4z"/>
	<path class="st4" d="M405,275.6c152.5,0,152.5-102.5,305-102.5v2.7c-152.5,0-152.5,102.5-305,102.5V275.6z"/>
	<path class="st0" d="M90,231.7c152.5,0,152.5,21.9,305,21.9v2.7c-152.5,0-152.5-21.9-305-21.9V231.7z"/>
	<path class="st0" d="M405,253.6C557.5,253.6,557.5,96,710,96v2.7c-152.5,0-152.5,157.7-305,157.7V253.6z"/>
	<path class="st0" d="M90,198.8c152.5,0,152.5-47,305-47v2.7c-152.5,0-152.5,47-305,47V198.8z"/>
	<path class="st0" d="M90,234.5c152.5,0,152.5,21.9,305,21.9v2.7c-152.5,0-152.5-21.9-305-21.9V234.5z"/>
	<path class="st1" d="M405,195.7c152.5,0,152.5,74.2,305,74.2v2.7c-152.5,0-152.5-74.2-305-74.2V195.7z"/>
	<path class="st1" d="M405,305.8c152.5,0,152.5-22.3,305-22.3v2.7c-152.5,0-152.5,22.3-305,22.3V305.8z"/>
	<path class="st2" d="M90,284.2c152.5,0,152.5-102.2,305-102.2v2.7c-152.5,0-152.5,102.2-305,102.2V284.2z"/>
	<path class="st3" d="M405,198.4c152.5,0,152.5,74.2,305,74.2v2.7c-152.5,0-152.5-74.2-305-74.2V198.4z"/>
	<path class="st0" d="M90,201.5c152.5,0,152.5-47,305-47v2.7c-152.5,0-152.5,47-305,47V201.5z"/>
	<path class="st0" d="M90,237.2c152.5,0,152.5,21.9,305,21.9v2.7c-152.5,0-152.5-21.9-305-21.9V237.2z"/>
	<path class="st0" d="M405,179.2c152.5,0,152.5,32.7,305,32.7v2.7c-152.5,0-152.5-32.7-305-32.7V179.2z"/>
	<path class="st0" d="M405,168.2c152.5,0,152.5-6.1,305-6.1v2.7c-152.5,0-152.5,6.1-305,6.1V168.2z"/>
	<path class="st0" d="M405,206.7c152.5,0,152.5,112.9,305,112.9v2.7c-152.5,0-152.5-112.9-305-112.9V206.7z"/>
	<path class="st0" d="M405,217.7c152.5,0,152.5,157.1,305,157.1v2.7c-152.5,0-152.5-157.1-305-157.1V217.7z"/>
	<path class="st0" d="M405,292.1c152.5,0,152.5-66.5,305-66.5v2.7c-152.5,0-152.5,66.5-305,66.5V292.1z"/>
	<path class="st0" d="M405,278.4c152.5,0,152.5-102.5,305-102.5v2.7c-152.5,0-152.5,102.5-305,102.5V278.4z"/>
	<path class="st0" d="M405,311.3c152.5,0,152.5,19.2,305,19.2v2.7c-152.5,0-152.5-19.2-305-19.2V311.3z"/>
	<path class="st0" d="M405,322.3c152.5,0,152.5,60.7,305,60.7v2.7c-152.5,0-152.5-60.7-305-60.7V322.3z"/>
	<path class="st4" d="M90,347.6c152.5,0,152.5-61,305-61v2.7c-152.5,0-152.5,61-305,61V347.6z"/>
	<path class="st4" d="M405,256.4c152.5,0,152.5-157.7,305-157.7v2.7c-152.5,0-152.5,157.7-305,157.7V256.4z"/>
	<path class="st4" d="M405,281.1c152.5,0,152.5-102.5,305-102.5v2.7c-152.5,0-152.5,102.5-305,102.5V281.1z"/>
	<path class="st2" d="M90,300.7c152.5,0,152.5,57.6,305,57.6v2.7c-152.5,0-152.5-57.6-305-57.6V300.7z"/>
	<path class="st2" d="M405,352.8c152.5,0,152.5-234.9,305-234.9v2.7c-152.5,0-152.5,234.9-305,234.9V352.8z"/>
	<path class="st2" d="M405,380.3c152.5,0,152.5-38.7,305-38.7v2.7c-152.5,0-152.5,38.7-305,38.7V380.3z"/>
	<path class="st4" d="M90,350.4c152.5,0,152.5-61,305-61v2.7c-152.5,0-152.5,61-305,61V350.4z"/>
	<path class="st4" d="M405,259.1c152.5,0,152.5-157.7,305-157.7v2.7c-152.5,0-152.5,157.7-305,157.7V259.1z"/>
	<path class="st4" d="M405,283.9c152.5,0,152.5-102.5,305-102.5v2.7c-152.5,0-152.5,102.5-305,102.5V283.9z"/>
	<path class="st0" d="M90,204.3c152.5,0,152.5-47,305-47v2.7c-152.5,0-152.5,47-305,47V204.3z"/>
	<path class="st0" d="M90,240c152.5,0,152.5,21.9,305,21.9v2.7c-152.5,0-152.5-21.9-305-21.9V240z"/>
	<path class="st0" d="M405,146.3c152.5,0,152.5-75,305-75V74c-152.5,0-152.5,75-305,75V146.3z"/>
	<path class="st0" d="M405,182c152.5,0,152.5,32.7,305,32.7v2.7c-152.5,0-152.5-32.7-305-32.7V182z"/>
	<path class="st0" d="M405,261.9c152.5,0,152.5-157.7,305-157.7v2.7c-152.5,0-152.5,157.7-305,157.7V261.9z"/>
	<path class="st0" d="M405,294.8c152.5,0,152.5-66.5,305-66.5v2.7c-152.5,0-152.5,66.5-305,66.5V294.8z"/>
	<path class="st0" d="M90,207c152.5,0,152.5-47,305-47v2.7c-152.5,0-152.5,47-305,47V207z"/>
	<path class="st0" d="M90,242.7c152.5,0,152.5,21.9,305,21.9v2.7c-152.5,0-152.5-21.9-305-21.9V242.7z"/>
	<path class="st0" d="M405,149c152.5,0,152.5-75,305-75v2.7c-152.5,0-152.5,75-305,75V149z"/>
	<path class="st0" d="M405,264.6c152.5,0,152.5-157.7,305-157.7v2.7c-152.5,0-152.5,157.7-305,157.7V264.6z"/>
	<path class="st0" d="M90,245.5c152.5,0,152.5,21.9,305,21.9v2.7c-152.5,0-152.5-21.9-305-21.9V245.5z"/>
	<path class="st0" d="M405,267.4c152.5,0,152.5-157.7,305-157.7v2.7c-152.5,0-152.5,157.7-305,157.7V267.4z"/>
	<path class="st2" d="M90,292.4c152.5,0,152.5-14.1,305-14.1v2.7c-152.5,0-152.5,14.1-305,14.1V292.4z"/>
	<path class="st2" d="M405,270.1c152.5,0,152.5-157.7,305-157.7v2.7c-152.5,0-152.5,157.7-305,157.7V270.1z"/>
	<path class="st2" d="M405,286.6c152.5,0,152.5-102.5,305-102.5v2.7c-152.5,0-152.5,102.5-305,102.5V286.6z"/>
	<path class="st2" d="M405,314.1c152.5,0,152.5,19.2,305,19.2v2.7c-152.5,0-152.5-19.2-305-19.2V314.1z"/>
	<path class="st2" d="M90,303.4c152.5,0,152.5,57.6,305,57.6v2.7c-152.5,0-152.5-57.6-305-57.6V303.4z"/>
	<path class="st2" d="M405,355.6c152.5,0,152.5-234.9,305-234.9v2.7c-152.5,0-152.5,234.9-305,234.9V355.6z"/>
	<path class="st2" d="M405,388.5c152.5,0,152.5,0,305,0v2.7c-152.5,0-152.5,0-305,0V388.5z"/>
	<path class="st4" d="M90,353.1c152.5,0,152.5,24.4,305,24.4v2.7c-152.5,0-152.5-24.4-305-24.4V353.1z"/>
	<path class="st4" d="M405,358.3c152.5,0,152.5-234.9,305-234.9v2.7C557.5,126.2,557.5,361,405,361V358.3z"/>
	<path class="st2" d="M90,295.2c152.5,0,152.5-14.1,305-14.1v2.7c-152.5,0-152.5,14.1-305,14.1V295.2z"/>
	<path class="st2" d="M405,297.6c152.5,0,152.5-66.5,305-66.5v2.7c-152.5,0-152.5,66.5-305,66.5V297.6z"/>
	<path class="st2" d="M405,316.8c152.5,0,152.5,19.2,305,19.2v2.7c-152.5,0-152.5-19.2-305-19.2V316.8z"/>
	<path class="st0" d="M90,209.8c152.5,0,152.5-47,305-47v2.7c-152.5,0-152.5,47-305,47V209.8z"/>
	<path class="st0" d="M90,248.2c152.5,0,152.5,21.9,305,21.9v2.7c-152.5,0-152.5-21.9-305-21.9V248.2z"/>
	<path class="st1" d="M405,201.2c152.5,0,152.5,74.2,305,74.2v2.7c-152.5,0-152.5-74.2-305-74.2V201.2z"/>
	<path class="st1" d="M405,308.6c152.5,0,152.5-22.3,305-22.3v2.7c-152.5,0-152.5,22.3-305,22.3V308.6z"/>
	<path class="st2" d="M90,286.9c152.5,0,152.5-102.2,305-102.2v2.7c-152.5,0-152.5,102.2-305,102.2V286.9z"/>
	<path class="st2" d="M405,151.7c152.5,0,152.5-75,305-75v2.7c-152.5,0-152.5,75-305,75V151.7z"/>
	<path class="st2" d="M90,306.2c152.5,0,152.5,57.6,305,57.6v2.7c-152.5,0-152.5-57.6-305-57.6V306.2z"/>
	<path class="st2" d="M405,361c152.5,0,152.5-234.9,305-234.9v2.7c-152.5,0-152.5,234.9-305,234.9V361z"/>
	<path class="st2" d="M405,383c152.5,0,152.5-38.7,305-38.7v2.7c-152.5,0-152.5,38.7-305,38.7V383z"/>
	<path class="st0" d="M90,212.5c152.5,0,152.5-47,305-47v2.7c-152.5,0-152.5,47-305,47V212.5z"/>
	<path class="st0" d="M405,154.5c152.5,0,152.5-75,305-75v2.7c-152.5,0-152.5,75-305,75V154.5z"/>
	<path class="st0" d="M405,171c152.5,0,152.5-6.1,305-6.1v2.7c-152.5,0-152.5,6.1-305,6.1V171z"/>
	<path class="st0" d="M90,215.2c152.5,0,152.5-47,305-47v2.7c-152.5,0-152.5,47-305,47V215.2z"/>
	<path class="st0" d="M405,157.2c152.5,0,152.5-75,305-75V85c-152.5,0-152.5,75-305,75V157.2z"/>
	<path class="st0" d="M90,251c152.5,0,152.5,21.9,305,21.9v2.7c-152.5,0-152.5-21.9-305-21.9V251z"/>
	<path class="st0" d="M405,272.9c152.5,0,152.5-157.7,305-157.7v2.7c-152.5,0-152.5,157.7-305,157.7V272.9z"/>
	<path class="st0" d="M90,218c152.5,0,152.5-47,305-47v2.7c-152.5,0-152.5,47-305,47V218z"/>
	<path class="st0" d="M405,160c152.5,0,152.5-75,305-75v2.7c-152.5,0-152.5,75-305,75V160z"/>
	<path class="st0" d="M405,209.4c152.5,0,152.5,112.9,305,112.9v2.7c-152.5,0-152.5-112.9-305-112.9V209.4z"/>
	<path class="st2" d="M90,308.9c152.5,0,152.5,57.6,305,57.6v2.7c-152.5,0-152.5-57.6-305-57.6V308.9z"/>
	<path class="st2" d="M405,385.8c152.5,0,152.5-38.7,305-38.7v2.7c-152.5,0-152.5,38.7-305,38.7V385.8z"/>
	<path class="st2" d="M90,311.7c152.5,0,152.5,57.6,305,57.6v2.7c-152.5,0-152.5-57.6-305-57.6V311.7z"/>
	<path class="st2" d="M405,363.8c152.5,0,152.5-234.9,305-234.9v2.7c-152.5,0-152.5,234.9-305,234.9V363.8z"/>
	<path class="st2" d="M90,289.7c152.5,0,152.5-102.2,305-102.2v2.7c-152.5,0-152.5,102.2-305,102.2V289.7z"/>
	<path class="st2" d="M405,162.7c152.5,0,152.5-75,305-75v2.7c-152.5,0-152.5,75-305,75V162.7z"/>
	<path class="st2" d="M405,184.7c152.5,0,152.5,32.7,305,32.7v2.7c-152.5,0-152.5-32.7-305-32.7V184.7z"/>
	<path class="st2" d="M405,173.7c152.5,0,152.5-6.1,305-6.1v2.7c-152.5,0-152.5,6.1-305,6.1V173.7z"/>
	<path class="st2" d="M405,212.2c152.5,0,152.5,112.9,305,112.9v2.7c-152.5,0-152.5-112.9-305-112.9V212.2z"/>
	<path class="st2" d="M90,314.4c152.5,0,152.5,57.6,305,57.6v2.7c-152.5,0-152.5-57.6-305-57.6V314.4z"/>
	<path class="st2" d="M405,366.5c152.5,0,152.5-234.9,305-234.9v2.7c-152.5,0-152.5,234.9-305,234.9V366.5z"/>
	<path class="st0" d="M90,220.7c152.5,0,152.5-47,305-47v2.7c-152.5,0-152.5,47-305,47V220.7z"/>
	<path class="st1" d="M405,203.9c152.5,0,152.5,74.2,305,74.2v2.7c-152.5,0-152.5-74.2-305-74.2V203.9z"/>
	<path class="st0" d="M90,256.4c152.5,0,152.5,96.4,305,96.4v2.7c-152.5,0-152.5-96.4-305-96.4V256.4z"/>
	<path class="st1" d="M405,377.5c152.5,0,152.5-85.7,305-85.7v2.7c-152.5,0-152.5,85.7-305,85.7V377.5z"/>
	<path class="st0" d="M90,223.5c152.5,0,152.5-47,305-47v2.7c-152.5,0-152.5,47-305,47V223.5z"/>
	<path class="st0" d="M90,253.7c152.5,0,152.5,21.9,305,21.9v2.7c-152.5,0-152.5-21.9-305-21.9V253.7z"/>
	<path class="st0" d="M405,187.5c152.5,0,152.5,32.7,305,32.7v2.7c-152.5,0-152.5-32.7-305-32.7V187.5z"/>
	<path class="st0" d="M405,214.9c152.5,0,152.5,112.9,305,112.9v2.7c-152.5,0-152.5-112.9-305-112.9V214.9z"/>
	<path class="st0" d="M405,220.4c152.5,0,152.5,157.1,305,157.1v2.7c-152.5,0-152.5-157.1-305-157.1V220.4z"/>
	<path class="st0" d="M405,300.3c152.5,0,152.5-66.5,305-66.5v2.7c-152.5,0-152.5,66.5-305,66.5V300.3z"/>
	<path class="st0" d="M405,319.6c152.5,0,152.5,19.2,305,19.2v2.7c-152.5,0-152.5-19.2-305-19.2V319.6z"/>
	<path class="st0" d="M405,325.1c152.5,0,152.5,60.7,305,60.7v2.7c-152.5,0-152.5-60.7-305-60.7V325.1z"/>
	<path class="st0" d="M90,226.2c152.5,0,152.5-47,305-47v2.7c-152.5,0-152.5,47-305,47V226.2z"/>
	<path class="st0" d="M405,165.5c152.5,0,152.5-75,305-75v2.7c-152.5,0-152.5,75-305,75V165.5z"/>
	<path class="st0" d="M405,176.5c152.5,0,152.5-6.1,305-6.1v2.7c-152.5,0-152.5,6.1-305,6.1V176.5z"/>
	<path class="st0" d="M405,223.2c152.5,0,152.5,157.1,305,157.1v2.7c-152.5,0-152.5-157.1-305-157.1V223.2z"/>
	<path class="st2" d="M90,317.2c152.5,0,152.5,57.6,305,57.6v2.7c-152.5,0-152.5-57.6-305-57.6V317.2z"/>
	<path class="st2" d="M405,369.3c152.5,0,152.5-234.9,305-234.9v2.7C557.5,137.2,557.5,372,405,372V369.3z"/>
	<path class="st2" d="M405,372c152.5,0,152.5-135.4,305-135.4v2.7c-152.5,0-152.5,135.4-305,135.4V372z"/>
	<rect x="395" y="146.3" class="st5" width="10" height="79.6"/>
	<rect x="395" y="250.9" class="st5" width="10" height="76.9"/>
	<rect x="395" y="352.8" class="st5" width="10" height="38.5"/>
	<rect x="710" y="71.3" class="st5" width="10" height="65.9"/>
	<rect x="710" y="211.9" class="st5" width="10" height="27.5"/>
	<rect x="710" y="162.2" class="st5" width="10" height="24.7"/>
	<rect x="710" y="319.6" class="st5" width="10" height="30.2"/>
	<rect x="710" y="374.8" class="st5" width="10" height="16.5"/>
	<rect x="710" y="264.4" class="st6" width="10" height="30.2"/>
	<rect x="80" y="344.9" class="st5" width="10" height="11"/>
	<rect x="80" y="284.2" class="st5" width="10" height="35.7"/>
	<rect x="80" y="193.3" class="st5" width="10" height="65.9"/>
</g>
<g id="Layer_2">
	<text transform="matrix(1 0 0 1 230.9886 135.268)" class="st7 st8 st9">Leverages Natural Language Structure</text>
	<text transform="matrix(1 0 0 1 292.205 244.3982)" class="st7 st8 st9">Leverages Relational Structure (KG)</text>
	<text transform="matrix(1 0 0 1 318.8208 343.0434)" class="st7 st8 st9">No Structure Leverage</text>
	<text transform="matrix(1 0 0 1 726.7876 108.7626)" class="st7 st8 st9">Reasoning</text>
	<text transform="matrix(1 0 0 1 726.7875 230.1713)" class="st7 st8 st9">Out-of-distribution Generalization</text>
	<text transform="matrix(1 0 0 1 726.7871 179.0791)" class="st7 st8 st9">Interpretability</text>
	<text transform="matrix(1 0 0 1 726.7871 339.2206)" class="st7 st8 st9">Reduced Data</text>
	<text transform="matrix(1 0 0 1 726.7871 387.5653)" class="st7 st8 st9">Transferability</text>
	<text transform="matrix(1 0 0 1 726.7876 284.0096)" class="st7 st8 st9">None</text>
	<text transform="matrix(1 0 0 1 42.6151 352.8106)" class="st7 st8 st9">Both</text>
	<text transform="matrix(1 0 0 1 28.1805 304.4658)" class="st7 st8 st9">Explicit</text>
	<text transform="matrix(1 0 0 1 28.9105 228.6554)" class="st7 st8 st9">Implicit</text>
</g>
<g id="Layer_3">
	<path class="st0" d="M96.8,564.1c152.5,0,152.5,0,305,0v2.9c-152.5,0-152.5,0-305,0V564.1z"/>
	<path class="st0" d="M96.8,618.6c152.5,0,152.5,42.2,305,42.2v2.9c-152.5,0-152.5-42.2-305-42.2V618.6z"/>
	<path class="st1" d="M411.8,589c152.5,0,152.5,9.7,305,9.7v2.9c-152.5,0-152.5-9.7-305-9.7V589z"/>
	<path class="st1" d="M411.8,691.9c152.5,0,152.5-67.4,305-67.4v2.9c-152.5,0-152.5,67.4-305,67.4V691.9z"/>
	<path class="st0" d="M96.8,567c152.5,0,152.5,0,305,0v5.7c-152.5,0-152.5,0-305,0V567z"/>
	<path class="st1" d="M411.8,591.8c152.5,0,152.5,9.7,305,9.7v5.7c-152.5,0-152.5-9.7-305-9.7V591.8z"/>
	<path class="st2" d="M96.8,715.3c152.5,0,152.5,42.2,305,42.2v5.7c-152.5,0-152.5-42.2-305-42.2V715.3z"/>
	<path class="st3" d="M411.8,780.4c152.5,0,152.5-147.3,305-147.3v5.7c-152.5,0-152.5,147.3-305,147.3V780.4z"/>
	<path class="st4" d="M96.8,786.2c152.5,0,152.5-76.6,305-76.6v5.7c-152.5,0-152.5,76.6-305,76.6V786.2z"/>
	<path class="st4" d="M411.8,660.8c152.5,0,152.5-146.8,305-146.8v1.9c-152.5,0-152.5,146.8-305,146.8V660.8z"/>
	<path class="st4" d="M411.8,710.8c152.5,0,152.5,5.6,305,5.6v1.9c-152.5,0-152.5-5.6-305-5.6V710.8z"/>
	<path class="st4" d="M411.8,700.5c152.5,0,152.5-24,305-24v1.9c-152.5,0-152.5,24-305,24V700.5z"/>
	<path class="st0" d="M96.8,621.5c152.5,0,152.5,42.2,305,42.2v5.7c-152.5,0-152.5-42.2-305-42.2V621.5z"/>
	<path class="st0" d="M411.8,662.7c152.5,0,152.5-146.8,305-146.8v5.7c-152.5,0-152.5,146.8-305,146.8V662.7z"/>
	<path class="st0" d="M96.8,572.7c152.5,0,152.5,0,305,0v2.9c-152.5,0-152.5,0-305,0V572.7z"/>
	<path class="st0" d="M96.8,627.2c152.5,0,152.5,42.2,305,42.2v2.9c-152.5,0-152.5-42.2-305-42.2V627.2z"/>
	<path class="st1" d="M411.8,597.6c152.5,0,152.5,9.7,305,9.7v2.9c-152.5,0-152.5-9.7-305-9.7V597.6z"/>
	<path class="st1" d="M411.8,694.7c152.5,0,152.5-67.4,305-67.4v2.9c-152.5,0-152.5,67.4-305,67.4V694.7z"/>
	<path class="st2" d="M96.8,686.6c152.5,0,152.5-68,305-68v5.7c-152.5,0-152.5,68-305,68V686.6z"/>
	<path class="st3" d="M411.8,600.4c152.5,0,152.5,9.7,305,9.7v5.7c-152.5,0-152.5-9.7-305-9.7V600.4z"/>
	<path class="st0" d="M96.8,575.6c152.5,0,152.5,0,305,0v2.9c-152.5,0-152.5,0-305,0V575.6z"/>
	<path class="st0" d="M96.8,630.1c152.5,0,152.5,42.2,305,42.2v2.9c-152.5,0-152.5-42.2-305-42.2V630.1z"/>
	<path class="st10" d="M411.8,621.7c152.5,0,152.5,90.1,305,90.1v0.7c-152.5,0-152.5-90.1-305-90.1V621.7z"/>
	<path class="st10" d="M411.8,614.8c152.5,0,152.5,54.8,305,54.8v0.7c-152.5,0-152.5-54.8-305-54.8V614.8z"/>
	<path class="st10" d="M411.8,629.8c152.5,0,152.5,155.4,305,155.4v0.7c-152.5,0-152.5-155.4-305-155.4V629.8z"/>
	<path class="st10" d="M411.8,626.3c152.5,0,152.5,125.8,305,125.8v0.7c-152.5,0-152.5-125.8-305-125.8V626.3z"/>
	<path class="st10" d="M411.8,712.7c152.5,0,152.5,5.6,305,5.6v0.7c-152.5,0-152.5-5.6-305-5.6V712.7z"/>
	<path class="st10" d="M411.8,702.4c152.5,0,152.5-24,305-24v0.7c-152.5,0-152.5,24-305,24V702.4z"/>
	<path class="st10" d="M411.8,720.3c152.5,0,152.5,70.9,305,70.9v0.7c-152.5,0-152.5-70.9-305-70.9V720.3z"/>
	<path class="st10" d="M411.8,718.6c152.5,0,152.5,37,305,37v0.7c-152.5,0-152.5-37-305-37V718.6z"/>
	<path class="st4" d="M96.8,791.9c152.5,0,152.5-76.6,305-76.6v5.7c-152.5,0-152.5,76.6-305,76.6V791.9z"/>
	<path class="st4" d="M411.8,668.5c152.5,0,152.5-146.8,305-146.8v2.9c-152.5,0-152.5,146.8-305,146.8V668.5z"/>
	<path class="st4" d="M411.8,703.1c152.5,0,152.5-24,305-24v2.9c-152.5,0-152.5,24-305,24V703.1z"/>
	<path class="st2" d="M96.8,721c152.5,0,152.5,42.2,305,42.2v5.7c-152.5,0-152.5-42.2-305-42.2V721z"/>
	<path class="st2" d="M411.8,751.8c152.5,0,152.5-206.7,305-206.7v2.9c-152.5,0-152.5,206.7-305,206.7V751.8z"/>
	<path class="st2" d="M411.8,797.6c152.5,0,152.5,0,305,0v2.9c-152.5,0-152.5,0-305,0V797.6z"/>
	<path class="st4" d="M96.8,797.6c152.5,0,152.5-76.6,305-76.6v5.7c-152.5,0-152.5,76.6-305,76.6V797.6z"/>
	<path class="st4" d="M411.8,671.3c152.5,0,152.5-146.8,305-146.8v2.9c-152.5,0-152.5,146.8-305,146.8V671.3z"/>
	<path class="st4" d="M411.8,706c152.5,0,152.5-24,305-24v2.9c-152.5,0-152.5,24-305,24V706z"/>
	<path class="st0" d="M96.8,578.5c152.5,0,152.5,0,305,0v2.9c-152.5,0-152.5,0-305,0V578.5z"/>
	<path class="st0" d="M96.8,632.9c152.5,0,152.5,42.2,305,42.2v2.9c-152.5,0-152.5-42.2-305-42.2V632.9z"/>
	<path class="st0" d="M411.8,564.1c152.5,0,152.5-75,305-75v1.4c-152.5,0-152.5,75-305,75V564.1z"/>
	<path class="st0" d="M411.8,622.4c152.5,0,152.5,90.1,305,90.1v1.4c-152.5,0-152.5-90.1-305-90.1V622.4z"/>
	<path class="st0" d="M411.8,674.2c152.5,0,152.5-146.8,305-146.8v1.4c-152.5,0-152.5,146.8-305,146.8V674.2z"/>
	<path class="st0" d="M411.8,713.4c152.5,0,152.5,5.6,305,5.6v1.4c-152.5,0-152.5-5.6-305-5.6V713.4z"/>
	<path class="st0" d="M96.8,581.3c152.5,0,152.5,0,305,0v2.9c-152.5,0-152.5,0-305,0V581.3z"/>
	<path class="st0" d="M96.8,635.8c152.5,0,152.5,42.2,305,42.2v2.9c-152.5,0-152.5-42.2-305-42.2V635.8z"/>
	<path class="st0" d="M411.8,565.6c152.5,0,152.5-75,305-75v2.9c-152.5,0-152.5,75-305,75V565.6z"/>
	<path class="st0" d="M411.8,675.6c152.5,0,152.5-146.8,305-146.8v2.9c-152.5,0-152.5,146.8-305,146.8V675.6z"/>
	<path class="st0" d="M96.8,638.7c152.5,0,152.5,42.2,305,42.2v5.7c-152.5,0-152.5-42.2-305-42.2V638.7z"/>
	<path class="st0" d="M411.8,678.5c152.5,0,152.5-146.8,305-146.8v5.7c-152.5,0-152.5,146.8-305,146.8V678.5z"/>
	<path class="st2" d="M96.8,703.8c152.5,0,152.5-5.7,305-5.7v5.7c-152.5,0-152.5,5.7-305,5.7V703.8z"/>
	<path class="st2" d="M411.8,684.2c152.5,0,152.5-146.8,305-146.8v1.9c-152.5,0-152.5,146.8-305,146.8V684.2z"/>
	<path class="st2" d="M411.8,708.8c152.5,0,152.5-24,305-24v1.9c-152.5,0-152.5,24-305,24V708.8z"/>
	<path class="st2" d="M411.8,721c152.5,0,152.5,70.9,305,70.9v1.9c-152.5,0-152.5-70.9-305-70.9V721z"/>
	<path class="st2" d="M96.8,726.8c152.5,0,152.5,42.2,305,42.2v5.7c-152.5,0-152.5-42.2-305-42.2V726.8z"/>
	<path class="st2" d="M411.8,754.6c152.5,0,152.5-206.7,305-206.7v2.9c-152.5,0-152.5,206.7-305,206.7V754.6z"/>
	<path class="st2" d="M411.8,794.8c152.5,0,152.5-37.4,305-37.4v2.9c-152.5,0-152.5,37.4-305,37.4V794.8z"/>
	<path class="st4" d="M96.8,803.4c152.5,0,152.5,0,305,0v5.7c-152.5,0-152.5,0-305,0V803.4z"/>
	<path class="st4" d="M411.8,757.5c152.5,0,152.5-206.7,305-206.7v5.7c-152.5,0-152.5,206.7-305,206.7V757.5z"/>
	<path class="st2" d="M96.8,709.6c152.5,0,152.5-5.7,305-5.7v5.7c-152.5,0-152.5,5.7-305,5.7V709.6z"/>
	<path class="st2" d="M411.8,714.8c152.5,0,152.5,5.6,305,5.6v2.9c-152.5,0-152.5-5.6-305-5.6V714.8z"/>
	<path class="st2" d="M411.8,722.9c152.5,0,152.5,70.9,305,70.9v2.9c-152.5,0-152.5-70.9-305-70.9V722.9z"/>
	<path class="st0" d="M96.8,584.2c152.5,0,152.5,0,305,0v2.9c-152.5,0-152.5,0-305,0V584.2z"/>
	<path class="st0" d="M96.8,644.4c152.5,0,152.5,42.2,305,42.2v2.9c-152.5,0-152.5-42.2-305-42.2V644.4z"/>
	<path class="st1" d="M411.8,606.2c152.5,0,152.5,9.7,305,9.7v2.9c-152.5,0-152.5-9.7-305-9.7V606.2z"/>
	<path class="st1" d="M411.8,697.6c152.5,0,152.5-67.4,305-67.4v2.9c-152.5,0-152.5,67.4-305,67.4V697.6z"/>
	<path class="st2" d="M96.8,692.4c152.5,0,152.5-68,305-68v5.7c-152.5,0-152.5,68-305,68V692.4z"/>
	<path class="st2" d="M411.8,568.4c152.5,0,152.5-75,305-75v5.7c-152.5,0-152.5,75-305,75V568.4z"/>
	<path class="st2" d="M96.8,732.5c152.5,0,152.5,42.2,305,42.2v5.7c-152.5,0-152.5-42.2-305-42.2V732.5z"/>
	<path class="st2" d="M411.8,763.2c152.5,0,152.5-206.7,305-206.7v2.9c-152.5,0-152.5,206.7-305,206.7V763.2z"/>
	<path class="st2" d="M411.8,800.5c152.5,0,152.5,0,305,0v2.9c-152.5,0-152.5,0-305,0V800.5z"/>
	<path class="st0" d="M96.8,587.1c152.5,0,152.5,0,305,0v5.7c-152.5,0-152.5,0-305,0V587.1z"/>
	<path class="st0" d="M411.8,574.2c152.5,0,152.5-75,305-75v2.9c-152.5,0-152.5,75-305,75V574.2z"/>
	<path class="st0" d="M411.8,615.5c152.5,0,152.5,54.8,305,54.8v2.9c-152.5,0-152.5-54.8-305-54.8V615.5z"/>
	<path class="st0" d="M96.8,592.8c152.5,0,152.5,0,305,0v5.7c-152.5,0-152.5,0-305,0V592.8z"/>
	<path class="st0" d="M411.8,577c152.5,0,152.5-75,305-75v5.7c-152.5,0-152.5,75-305,75V577z"/>
	<path class="st0" d="M96.8,647.3c152.5,0,152.5,42.2,305,42.2v5.7c-152.5,0-152.5-42.2-305-42.2V647.3z"/>
	<path class="st0" d="M411.8,686.1c152.5,0,152.5-146.8,305-146.8v5.7c-152.5,0-152.5,146.8-305,146.8V686.1z"/>
	<path class="st0" d="M96.8,598.5c152.5,0,152.5,0,305,0v5.7c-152.5,0-152.5,0-305,0V598.5z"/>
	<path class="st0" d="M411.8,582.8c152.5,0,152.5-75,305-75v2.9c-152.5,0-152.5,75-305,75V582.8z"/>
	<path class="st0" d="M411.8,630.6c152.5,0,152.5,155.4,305,155.4v2.9c-152.5,0-152.5-155.4-305-155.4V630.6z"/>
	<path class="st2" d="M96.8,738.2c152.5,0,152.5,42.2,305,42.2v5.7c-152.5,0-152.5-42.2-305-42.2V738.2z"/>
	<path class="st2" d="M411.8,803.4c152.5,0,152.5,0,305,0v5.7c-152.5,0-152.5,0-305,0V803.4z"/>
	<path class="st2" d="M96.8,744c152.5,0,152.5,42.2,305,42.2v5.7c-152.5,0-152.5-42.2-305-42.2V744z"/>
	<path class="st2" d="M411.8,766.1c152.5,0,152.5-206.7,305-206.7v5.7c-152.5,0-152.5,206.7-305,206.7V766.1z"/>
	<path class="st2" d="M96.8,698.1c152.5,0,152.5-68,305-68v5.7c-152.5,0-152.5,68-305,68V698.1z"/>
	<path class="st2" d="M411.8,585.6c152.5,0,152.5-75,305-75v1.4c-152.5,0-152.5,75-305,75V585.6z"/>
	<path class="st2" d="M411.8,623.9c152.5,0,152.5,90.1,305,90.1v1.4c-152.5,0-152.5-90.1-305-90.1V623.9z"/>
	<path class="st2" d="M411.8,618.4c152.5,0,152.5,54.8,305,54.8v1.4c-152.5,0-152.5-54.8-305-54.8V618.4z"/>
	<path class="st2" d="M411.8,633.4c152.5,0,152.5,155.4,305,155.4v1.4c-152.5,0-152.5-155.4-305-155.4V633.4z"/>
	<path class="st2" d="M96.8,749.7c152.5,0,152.5,42.2,305,42.2v5.7c-152.5,0-152.5-42.2-305-42.2V749.7z"/>
	<path class="st2" d="M411.8,771.8c152.5,0,152.5-206.7,305-206.7v5.7c-152.5,0-152.5,206.7-305,206.7V771.8z"/>
	<path class="st0" d="M96.8,604.3c152.5,0,152.5,0,305,0v5.7c-152.5,0-152.5,0-305,0V604.3z"/>
	<path class="st1" d="M411.8,609c152.5,0,152.5,9.7,305,9.7v5.7c-152.5,0-152.5-9.7-305-9.7V609z"/>
	<path class="st0" d="M96.8,655.9c152.5,0,152.5,95.9,305,95.9v5.7c-152.5,0-152.5-95.9-305-95.9V655.9z"/>
	<path class="st1" d="M411.8,786.2c152.5,0,152.5-147.3,305-147.3v5.7c-152.5,0-152.5,147.3-305,147.3V786.2z"/>
	<path class="st0" d="M96.8,610c152.5,0,152.5,0,305,0v2.9c-152.5,0-152.5,0-305,0V610z"/>
	<path class="st0" d="M96.8,653c152.5,0,152.5,42.2,305,42.2v2.9c-152.5,0-152.5-42.2-305-42.2V653z"/>
	<path class="st10" d="M411.8,625.3c152.5,0,152.5,90.1,305,90.1v1c-152.5,0-152.5-90.1-305-90.1V625.3z"/>
	<path class="st10" d="M411.8,634.9c152.5,0,152.5,155.4,305,155.4v1c-152.5,0-152.5-155.4-305-155.4V634.9z"/>
	<path class="st10" d="M411.8,627c152.5,0,152.5,125.8,305,125.8v1c-152.5,0-152.5-125.8-305-125.8V627z"/>
	<path class="st10" d="M411.8,717.7c152.5,0,152.5,5.6,305,5.6v1c-152.5,0-152.5-5.6-305-5.6V717.7z"/>
	<path class="st10" d="M411.8,725.8c152.5,0,152.5,70.9,305,70.9v1c-152.5,0-152.5-70.9-305-70.9V725.8z"/>
	<path class="st10" d="M411.8,719.4c152.5,0,152.5,37,305,37v1c-152.5,0-152.5-37-305-37V719.4z"/>
	<path class="st0" d="M96.8,612.9c152.5,0,152.5,0,305,0v5.7c-152.5,0-152.5,0-305,0V612.9z"/>
	<path class="st0" d="M411.8,587.1c152.5,0,152.5-75,305-75v1.9c-152.5,0-152.5,75-305,75V587.1z"/>
	<path class="st0" d="M411.8,619.8c152.5,0,152.5,54.8,305,54.8v1.9c-152.5,0-152.5-54.8-305-54.8V619.8z"/>
	<path class="st0" d="M411.8,627.9c152.5,0,152.5,125.8,305,125.8v1.9c-152.5,0-152.5-125.8-305-125.8V627.9z"/>
	<path class="st2" d="M96.8,755.4c152.5,0,152.5,42.2,305,42.2v5.7c-152.5,0-152.5-42.2-305-42.2V755.4z"/>
	<path class="st2" d="M411.8,777.6c152.5,0,152.5-206.7,305-206.7v2.9c-152.5,0-152.5,206.7-305,206.7V777.6z"/>
	<path class="st2" d="M411.8,791.9c152.5,0,152.5-67.7,305-67.7v2.9c-152.5,0-152.5,67.7-305,67.7V791.9z"/>
	<rect x="401.8" y="564.1" class="st5" width="10" height="71.7"/>
	<rect x="401.8" y="660.8" class="st5" width="10" height="66"/>
	<rect x="401.8" y="751.8" class="st5" width="10" height="57.4"/>
	<rect x="716.8" y="489.1" class="st5" width="10" height="84.6"/>
	<rect x="716.8" y="711.8" class="st5" width="10" height="15.3"/>
	<rect x="716.8" y="669.6" class="st5" width="10" height="17.2"/>
	<rect x="716.8" y="785.2" class="st5" width="10" height="23.9"/>
	<rect x="716.8" y="752.1" class="st5" width="10" height="8.1"/>
	<rect x="716.8" y="598.7" class="st6" width="10" height="45.9"/>
	<rect x="86.8" y="786.2" class="st5" width="10" height="22.9"/>
	<rect x="86.8" y="686.6" class="st5" width="10" height="74.6"/>
	<rect x="86.8" y="564.1" class="st5" width="10" height="97.5"/>
	<text transform="matrix(1 0 0 1 237.2888 552.3488)" class="st7 st8 st9">Leverages Natural Language Structure</text>
	<text transform="matrix(1 0 0 1 319.7978 653.6246)" class="st7 st8 st9">Leverages Relational Structure (KG)</text>
	<text transform="matrix(1 0 0 1 333.9042 746.4008)" class="st7 st8 st9">No Structure Leverage</text>
	<text transform="matrix(1 0 0 1 736.2825 535.9681)" class="st7 st8 st9">Reasoning</text>
	<text transform="matrix(1 0 0 1 736.2816 724.0013)" class="st7 st8 st9">Out-of-distribution Generalization</text>
	<text transform="matrix(1 0 0 1 736.282 682.7512)" class="st7 st8 st9">Interpretability</text>
	<text transform="matrix(1 0 0 1 736.282 801.7218)" class="st7 st8 st9">Reduced Data</text>
	<text transform="matrix(1 0 0 1 736.282 760.7108)" class="st7 st8 st9">Transferability</text>
	<text transform="matrix(1 0 0 1 736.2825 626.2075)" class="st7 st8 st9">None</text>
	<text transform="matrix(1 0 0 1 46.1916 802.1999)" class="st7 st8 st9">Both</text>
	<text transform="matrix(1 0 0 1 31.757 728.4497)" class="st7 st8 st9">Explicit</text>
	<text transform="matrix(1 0 0 1 32.487 617.4203)" class="st7 st8 st9">Implicit</text>
	<text transform="matrix(1 0 0 1 24.4712 80.0777)" class="st8 st11">Unweighted</text>
	<text transform="matrix(1 0 0 1 24.4709 516.4442)" class="st8 st11">Weighted</text>
</g>
</svg>
