<?xml version="1.0" encoding="utf-8"?>
<!-- Generator: Adobe Illustrator 26.0.3, SVG Export Plug-In . SVG Version: 6.00 Build 0)  -->
<svg version="1.1" id="Layer_1" xmlns="http://www.w3.org/2000/svg" xmlns:xlink="http://www.w3.org/1999/xlink" x="0px" y="0px"
	 viewBox="0 0 667 500" style="enable-background:new 0 0 667 500;" xml:space="preserve">
<style type="text/css">
	.st0{opacity:0.25;fill:#89B79F;}
	.st1{opacity:0.25;fill:#450256;}
	.st2{fill:#57BCD6;}
	.st3{fill:#89B79F;}
	.st4{fill:#450256;}
	.st5{fill:#333333;stroke:#444444;stroke-width:0.5;}
	.st6{enable-background:new    ;}
	.st7{fill:#333333;}
	.st8{opacity:0.25;fill:#333333;stroke:#444444;stroke-width:0.5;}
</style>
<g transform="translate(80,100)matrix(1 0 0 1 0 0)">
	<g>
		<path class="st0" d="M10,275.3c210,0,210-22.8,420-22.8v5.7c-210,0-210,22.8-420,22.8V275.3z"/>
		<path class="st0" d="M10,281c210,0,210-22.8,420-22.8v5.7c-210,0-210,22.8-420,22.8V281z"/>
		<path class="st1" d="M10,178.1c210,0,210,62.9,420,62.9v5.7c-210,0-210-62.9-420-62.9V178.1z"/>
		<path class="st2" d="M10,70C220,70,220,0,430,0v1.9c-210,0-210,70-420,70V70z"/>
		<path class="st2" d="M10,91c210,0,210,109.7,420,109.7v1.9c-210,0-210-109.7-420-109.7V91z"/>
		<path class="st2" d="M10,83.3c210,0,210,26.2,420,26.2v1.9c-210,0-210-26.2-420-26.2V83.3z"/>
		<path class="st3" d="M10,217.5c210,0,210-172.1,420-172.1v5.7c-210,0-210,172.1-420,172.1V217.5z"/>
		<path class="st0" d="M10,286.8c210,0,210-22.8,420-22.8v5.7c-210,0-210,22.8-420,22.8V286.8z"/>
		<path class="st1" d="M10,183.9c210,0,210,62.9,420,62.9v5.7c-210,0-210-62.9-420-62.9V183.9z"/>
		<path class="st3" d="M10,269.1c210,0,210-59.3,420-59.3v1.4c-210,0-210,59.3-420,59.3V269.1z"/>
		<path class="st3" d="M10,256.7c210,0,210-136.1,420-136.1v1.4c-210,0-210,136.1-420,136.1V256.7z"/>
		<path class="st3" d="M10,262.9c210,0,210-93.4,420-93.4v1.4c-210,0-210,93.4-420,93.4V262.9z"/>
		<path class="st3" d="M10,309.7c210,0,210,5,420,5v1.4c-210,0-210-5-420-5V309.7z"/>
		<path class="st2" d="M10,71.9c210,0,210-70,420-70v2.9c-210,0-210,70-420,70V71.9z"/>
		<path class="st2" d="M10,85.3c210,0,210,26.2,420,26.2v2.9c-210,0-210-26.2-420-26.2V85.3z"/>
		<path class="st4" d="M10,117.9c210,0,210-104.5,420-104.5v2.9c-210,0-210,104.5-420,104.5V117.9z"/>
		<path class="st4" d="M10,153.3c210,0,210-1.5,420-1.5v2.9c-210,0-210,1.5-420,1.5V153.3z"/>
		<path class="st2" d="M10,74.7c210,0,210-70,420-70v2.9c-210,0-210,70-420,70V74.7z"/>
		<path class="st2" d="M10,88.1c210,0,210,26.2,420,26.2v2.9C220,117.2,220,91,10,91V88.1z"/>
		<path class="st3" d="M10,223.2c210,0,210-172.1,420-172.1V54C220,54,220,226.1,10,226.1V223.2z"/>
		<path class="st3" d="M10,270.5c210,0,210-59.3,420-59.3v2.9c-210,0-210,59.3-420,59.3V270.5z"/>
		<path class="st3" d="M10,226.1C220,226.1,220,54,430,54v5.7c-210,0-210,172.1-420,172.1V226.1z"/>
		<path class="st3" d="M10,231.8c210,0,210-172.1,420-172.1v5.7c-210,0-210,172.1-420,172.1V231.8z"/>
		<path class="st4" d="M10,120.8c210,0,210-104.5,420-104.5v1.9c-210,0-210,104.5-420,104.5V120.8z"/>
		<path class="st4" d="M10,149.9c210,0,210-32.7,420-32.7v1.9c-210,0-210,32.7-420,32.7V149.9z"/>
		<path class="st4" d="M10,156.1c210,0,210-1.5,420-1.5v1.9c-210,0-210,1.5-420,1.5V156.1z"/>
		<path class="st4" d="M10,122.7c210,0,210-104.5,420-104.5V21C220,21,220,125.6,10,125.6V122.7z"/>
		<path class="st4" d="M10,189.6c210,0,210,122.3,420,122.3v2.9c-210,0-210-122.3-420-122.3V189.6z"/>
		<path class="st2" d="M10,77.6c210,0,210-70,420-70v5.7c-210,0-210,70-420,70V77.6z"/>
		<path class="st4" d="M10,171c210,0,210,31.7,420,31.7v2.9c-210,0-210-31.7-420-31.7V171z"/>
		<path class="st4" d="M10,158.1c210,0,210-1.5,420-1.5v2.9c-210,0-210,1.5-420,1.5V158.1z"/>
		<path class="st0" d="M10,292.5c210,0,210-22.8,420-22.8v5.7c-210,0-210,22.8-420,22.8V292.5z"/>
		<path class="st4" d="M10,125.6C220,125.6,220,21,430,21v5.7c-210,0-210,104.5-420,104.5V125.6z"/>
		<path class="st4" d="M10,131.3c210,0,210-104.5,420-104.5v2.9c-210,0-210,104.5-420,104.5V131.3z"/>
		<path class="st4" d="M10,160.9c210,0,210-1.5,420-1.5v2.9c-210,0-210,1.5-420,1.5V160.9z"/>
		<path class="st3" d="M10,237.5c210,0,210-172.1,420-172.1v2.9c-210,0-210,172.1-420,172.1V237.5z"/>
		<path class="st3" d="M10,258.1c210,0,210-136.1,420-136.1v2.9C220,124.9,220,261,10,261V258.1z"/>
		<path class="st3" d="M10,240.4c210,0,210-172.1,420-172.1v5.7c-210,0-210,172.1-420,172.1V240.4z"/>
		<path class="st3" d="M10,246.1c210,0,210-172.1,420-172.1v5.7c-210,0-210,172.1-420,172.1V246.1z"/>
		<path class="st3" d="M10,251.9c210,0,210-172.1,420-172.1v2.9c-210,0-210,172.1-420,172.1V251.9z"/>
		<path class="st3" d="M10,264.3c210,0,210-93.4,420-93.4v2.9c-210,0-210,93.4-420,93.4V264.3z"/>
		<path class="st4" d="M10,163.8c210,0,210-1.5,420-1.5v5.7c-210,0-210,1.5-420,1.5V163.8z"/>
		<path class="st4" d="M10,134.2c210,0,210-104.5,420-104.5v5.7c-210,0-210,104.5-420,104.5V134.2z"/>
		<path class="st4" d="M10,139.9c210,0,210-104.5,420-104.5v1.4c-210,0-210,104.5-420,104.5V139.9z"/>
		<path class="st4" d="M10,173.8c210,0,210,31.7,420,31.7v1.4c-210,0-210-31.7-420-31.7V173.8z"/>
		<path class="st4" d="M10,151.8c210,0,210-32.7,420-32.7v1.4c-210,0-210,32.7-420,32.7V151.8z"/>
		<path class="st4" d="M10,169.5c210,0,210-1.5,420-1.5v1.4c-210,0-210,1.5-420,1.5V169.5z"/>
		<path class="st4" d="M10,141.3c210,0,210-104.5,420-104.5v5.7c-210,0-210,104.5-420,104.5V141.3z"/>
		<path class="st0" d="M10,298.2c210,0,210-22.8,420-22.8v5.7c-210,0-210,22.8-420,22.8V298.2z"/>
		<path class="st0" d="M10,304c210,0,210-22.8,420-22.8v5.7c-210,0-210,22.8-420,22.8V304z"/>
		<path class="st3" d="M10,273.4c210,0,210-59.3,420-59.3v1.9c-210,0-210,59.3-420,59.3V273.4z"/>
		<path class="st3" d="M10,267.2c210,0,210-93.4,420-93.4v1.9c-210,0-210,93.4-420,93.4V267.2z"/>
		<path class="st3" d="M10,311.1c210,0,210,5,420,5v1.9c-210,0-210-5-420-5V311.1z"/>
		<path class="st3" d="M10,254.7c210,0,210-172.1,420-172.1v1.9c-210,0-210,172.1-420,172.1V254.7z"/>
		<path class="st3" d="M10,261c210,0,210-136.1,420-136.1v1.9c-210,0-210,136.1-420,136.1V261z"/>
		<path class="st3" d="M10,313.1c210,0,210,5,420,5v1.9c-210,0-210-5-420-5V313.1z"/>
		<path class="st4" d="M10,147.1c210,0,210-104.5,420-104.5v2.9c-210,0-210,104.5-420,104.5V147.1z"/>
		<path class="st4" d="M10,175.3c210,0,210,31.7,420,31.7v2.9c-210,0-210-31.7-420-31.7V175.3z"/>
	</g>
	<g>
		<g transform="translate(430.000,0.000)">
			<rect class="st5" width="10" height="84.6"/>
			<g class="st6">
				<path class="st7" d="M19.5,45.3V36h4.1c0.8,0,1.5,0.1,1.9,0.3s0.8,0.5,1,0.9c0.3,0.4,0.4,0.9,0.4,1.4c0,0.7-0.2,1.2-0.6,1.7
					c-0.4,0.5-1.1,0.7-2,0.9c0.3,0.2,0.6,0.3,0.7,0.5c0.4,0.3,0.7,0.7,1,1.2l1.6,2.5h-1.5l-1.2-1.9c-0.4-0.6-0.7-1-0.9-1.3
					c-0.2-0.3-0.4-0.5-0.6-0.6c-0.2-0.1-0.4-0.2-0.6-0.2c-0.1,0-0.4,0-0.7,0h-1.4v4.1H19.5z M20.7,40.1h2.6c0.6,0,1-0.1,1.3-0.2
					s0.6-0.3,0.7-0.6s0.2-0.5,0.2-0.8c0-0.4-0.2-0.8-0.5-1.1c-0.3-0.3-0.8-0.4-1.5-0.4h-2.9V40.1z"/>
				<path class="st7" d="M33.3,43.2l1.2,0.1c-0.2,0.7-0.5,1.2-1,1.6s-1.1,0.6-1.9,0.6c-1,0-1.8-0.3-2.3-0.9s-0.9-1.5-0.9-2.6
					c0-1.1,0.3-2,0.9-2.6s1.3-0.9,2.3-0.9c0.9,0,1.6,0.3,2.2,0.9c0.6,0.6,0.9,1.5,0.9,2.6c0,0.1,0,0.2,0,0.3h-5
					c0,0.7,0.3,1.3,0.6,1.7c0.4,0.4,0.8,0.6,1.4,0.6c0.4,0,0.8-0.1,1.1-0.3S33.2,43.7,33.3,43.2z M29.6,41.3h3.8
					c-0.1-0.6-0.2-1-0.4-1.3c-0.4-0.4-0.8-0.7-1.4-0.7c-0.5,0-1,0.2-1.3,0.5C29.8,40.3,29.6,40.7,29.6,41.3z"/>
				<path class="st7" d="M40.4,44.5c-0.4,0.4-0.8,0.6-1.2,0.8c-0.4,0.1-0.8,0.2-1.3,0.2c-0.7,0-1.3-0.2-1.7-0.5
					c-0.4-0.4-0.6-0.8-0.6-1.4c0-0.3,0.1-0.6,0.2-0.9c0.1-0.3,0.3-0.5,0.6-0.7s0.5-0.3,0.8-0.4c0.2-0.1,0.6-0.1,1-0.2
					c0.9-0.1,1.6-0.2,2-0.4c0-0.2,0-0.3,0-0.3c0-0.5-0.1-0.8-0.3-1c-0.3-0.3-0.7-0.4-1.3-0.4c-0.5,0-0.9,0.1-1.2,0.3
					c-0.3,0.2-0.4,0.5-0.6,1l-1.1-0.2c0.1-0.5,0.3-0.9,0.5-1.2s0.6-0.5,1-0.7c0.4-0.2,1-0.2,1.5-0.2c0.6,0,1,0.1,1.4,0.2
					c0.4,0.1,0.6,0.3,0.8,0.5s0.3,0.5,0.4,0.8c0,0.2,0.1,0.5,0.1,1.1v1.5c0,1.1,0,1.7,0.1,2c0,0.3,0.1,0.6,0.3,0.8h-1.2
					C40.5,45.1,40.4,44.8,40.4,44.5z M40.3,42c-0.4,0.2-1,0.3-1.9,0.4c-0.5,0.1-0.8,0.1-1,0.2c-0.2,0.1-0.3,0.2-0.5,0.4
					c-0.1,0.2-0.2,0.3-0.2,0.5c0,0.3,0.1,0.6,0.3,0.8s0.6,0.3,1,0.3c0.4,0,0.8-0.1,1.2-0.3c0.3-0.2,0.6-0.5,0.8-0.8
					c0.1-0.3,0.2-0.6,0.2-1.1V42z"/>
				<path class="st7" d="M42.7,43.3l1.1-0.2c0.1,0.5,0.2,0.8,0.5,1c0.3,0.2,0.7,0.4,1.2,0.4c0.5,0,0.9-0.1,1.2-0.3s0.4-0.5,0.4-0.8
					c0-0.3-0.1-0.5-0.3-0.6c-0.2-0.1-0.5-0.2-1.2-0.4c-0.8-0.2-1.4-0.4-1.7-0.5s-0.6-0.4-0.7-0.6c-0.2-0.3-0.3-0.6-0.3-0.9
					c0-0.3,0.1-0.6,0.2-0.8c0.1-0.3,0.3-0.5,0.6-0.6c0.2-0.1,0.4-0.2,0.7-0.3s0.6-0.1,1-0.1c0.5,0,1,0.1,1.4,0.2
					c0.4,0.2,0.7,0.4,0.9,0.6c0.2,0.3,0.3,0.6,0.4,1L47,40.5c-0.1-0.3-0.2-0.6-0.4-0.8c-0.2-0.2-0.6-0.3-1-0.3
					c-0.5,0-0.9,0.1-1.1,0.3C44.1,39.8,44,40,44,40.3c0,0.1,0,0.3,0.1,0.4c0.1,0.1,0.2,0.2,0.4,0.3c0.1,0,0.5,0.1,1,0.3
					c0.8,0.2,1.4,0.4,1.7,0.5c0.3,0.1,0.6,0.3,0.8,0.6c0.2,0.3,0.3,0.6,0.3,1c0,0.4-0.1,0.7-0.3,1.1c-0.2,0.3-0.5,0.6-1,0.8
					c-0.4,0.2-0.9,0.3-1.4,0.3c-0.9,0-1.5-0.2-2-0.5S42.9,44.1,42.7,43.3z"/>
				<path class="st7" d="M49.3,42c0-1.2,0.3-2.2,1-2.8c0.6-0.5,1.3-0.7,2.1-0.7c0.9,0,1.7,0.3,2.3,0.9c0.6,0.6,0.9,1.4,0.9,2.5
					c0,0.9-0.1,1.5-0.4,2s-0.6,0.9-1.1,1.2c-0.5,0.3-1,0.4-1.6,0.4c-0.9,0-1.7-0.3-2.3-0.9C49.6,44,49.3,43.1,49.3,42z M50.4,42
					c0,0.9,0.2,1.5,0.6,1.9c0.4,0.4,0.8,0.6,1.4,0.6c0.6,0,1-0.2,1.4-0.6s0.6-1.1,0.6-2c0-0.8-0.2-1.5-0.6-1.9s-0.8-0.6-1.4-0.6
					c-0.6,0-1,0.2-1.4,0.6C50.6,40.5,50.4,41.1,50.4,42z"/>
				<path class="st7" d="M56.9,45.3v-6.7h1v1c0.5-0.7,1.2-1.1,2.1-1.1c0.4,0,0.8,0.1,1.1,0.2c0.3,0.1,0.6,0.3,0.8,0.6
					c0.2,0.2,0.3,0.5,0.4,0.8c0,0.2,0.1,0.6,0.1,1.1v4.1h-1.1v-4.1c0-0.5,0-0.8-0.1-1c-0.1-0.2-0.2-0.4-0.5-0.6s-0.5-0.2-0.8-0.2
					c-0.5,0-0.9,0.2-1.3,0.5c-0.4,0.3-0.5,0.9-0.5,1.8v3.7H56.9z"/>
				<path class="st7" d="M64.2,37.4V36h1.1v1.3H64.2z M64.2,45.3v-6.7h1.1v6.7H64.2z"/>
				<path class="st7" d="M67,45.3v-6.7h1v1c0.5-0.7,1.2-1.1,2.1-1.1c0.4,0,0.8,0.1,1.1,0.2c0.3,0.1,0.6,0.3,0.8,0.6
					c0.2,0.2,0.3,0.5,0.4,0.8c0,0.2,0.1,0.6,0.1,1.1v4.1h-1.1v-4.1c0-0.5,0-0.8-0.1-1c-0.1-0.2-0.2-0.4-0.5-0.6
					c-0.2-0.1-0.5-0.2-0.8-0.2c-0.5,0-0.9,0.2-1.3,0.5c-0.4,0.3-0.5,0.9-0.5,1.8v3.7H67z"/>
				<path class="st7" d="M74.1,45.9l1.1,0.2c0,0.3,0.2,0.6,0.4,0.7c0.3,0.2,0.7,0.3,1.2,0.3c0.5,0,0.9-0.1,1.2-0.3
					c0.3-0.2,0.5-0.5,0.6-0.9c0.1-0.2,0.1-0.7,0.1-1.5c-0.5,0.6-1.1,0.9-1.9,0.9c-0.9,0-1.6-0.3-2.2-1s-0.8-1.5-0.8-2.4
					c0-0.6,0.1-1.2,0.3-1.8s0.6-1,1-1.3c0.4-0.3,1-0.4,1.6-0.4c0.8,0,1.5,0.3,2,1v-0.8h1.1v5.8c0,1-0.1,1.8-0.3,2.2
					c-0.2,0.4-0.6,0.8-1,1c-0.5,0.3-1,0.4-1.7,0.4c-0.8,0-1.5-0.2-1.9-0.5C74.3,47.2,74,46.6,74.1,45.9z M75,41.9
					c0,0.9,0.2,1.5,0.5,1.9c0.4,0.4,0.8,0.6,1.3,0.6c0.5,0,1-0.2,1.3-0.6s0.5-1,0.5-1.9c0-0.8-0.2-1.4-0.5-1.9
					c-0.4-0.4-0.8-0.6-1.3-0.6c-0.5,0-0.9,0.2-1.3,0.6C75.2,40.4,75,41,75,41.9z"/>
			</g>
		</g>
		<g transform="translate(430.000,200.699)">
			<rect y="0" class="st5" width="10" height="15.3"/>
			<g class="st6">
				<path class="st7" d="M19.1,6.2c0-1.5,0.4-2.8,1.2-3.6c0.8-0.9,1.9-1.3,3.2-1.3c0.9,0,1.6,0.2,2.3,0.6c0.7,0.4,1.2,1,1.6,1.7
					C27.8,4.3,28,5.1,28,6.1c0,0.9-0.2,1.8-0.6,2.5s-0.9,1.3-1.6,1.7s-1.5,0.6-2.3,0.6c-0.9,0-1.7-0.2-2.3-0.6
					c-0.7-0.4-1.2-1-1.6-1.7S19.1,7,19.1,6.2z M20.4,6.2c0,1.1,0.3,2,0.9,2.7c0.6,0.6,1.4,1,2.3,1c0.9,0,1.7-0.3,2.3-1
					c0.6-0.7,0.9-1.6,0.9-2.8c0-0.8-0.1-1.4-0.4-2c-0.3-0.6-0.6-1-1.1-1.3c-0.5-0.3-1-0.5-1.7-0.5c-0.9,0-1.6,0.3-2.2,0.9
					C20.7,3.8,20.4,4.8,20.4,6.2z"/>
				<path class="st7" d="M29.2,6.2c0-1.5,0.4-2.8,1.2-3.6s1.9-1.3,3.2-1.3c0.9,0,1.6,0.2,2.3,0.6c0.7,0.4,1.2,1,1.6,1.7
					c0.4,0.7,0.5,1.6,0.5,2.5c0,0.9-0.2,1.8-0.6,2.5s-0.9,1.3-1.6,1.7c-0.7,0.4-1.5,0.6-2.3,0.6c-0.9,0-1.7-0.2-2.3-0.6
					c-0.7-0.4-1.2-1-1.6-1.7S29.2,7,29.2,6.2z M30.5,6.2c0,1.1,0.3,2,0.9,2.7s1.4,1,2.3,1c0.9,0,1.7-0.3,2.3-1
					c0.6-0.7,0.9-1.6,0.9-2.8c0-0.8-0.1-1.4-0.4-2c-0.3-0.6-0.6-1-1.1-1.3c-0.5-0.3-1-0.5-1.7-0.5c-0.9,0-1.6,0.3-2.2,0.9
					C30.8,3.8,30.5,4.8,30.5,6.2z"/>
				<path class="st7" d="M39.7,10.7V1.4h3.2c0.7,0,1.3,0,1.7,0.1c0.5,0.1,1,0.3,1.4,0.7c0.5,0.4,0.9,0.9,1.1,1.6
					c0.2,0.6,0.4,1.4,0.4,2.2c0,0.7-0.1,1.3-0.2,1.9c-0.2,0.5-0.4,1-0.6,1.4c-0.3,0.4-0.5,0.6-0.8,0.8c-0.3,0.2-0.7,0.4-1.1,0.5
					c-0.4,0.1-0.9,0.2-1.5,0.2H39.7z M40.9,9.6h2c0.6,0,1.1-0.1,1.4-0.2c0.3-0.1,0.6-0.3,0.8-0.5c0.3-0.3,0.5-0.7,0.7-1.2
					c0.2-0.5,0.2-1.1,0.2-1.8c0-1-0.2-1.7-0.5-2.2S45,2.9,44.5,2.7c-0.3-0.1-0.9-0.2-1.6-0.2h-2V9.6z"/>
				<path class="st7" d="M57.1,7V6l3.9,0v3.5c-0.6,0.5-1.2,0.8-1.9,1.1s-1.3,0.4-2,0.4c-0.9,0-1.7-0.2-2.5-0.6s-1.3-1-1.7-1.7
					c-0.4-0.7-0.6-1.6-0.6-2.5c0-0.9,0.2-1.8,0.6-2.5c0.4-0.8,0.9-1.4,1.6-1.7s1.5-0.6,2.5-0.6c0.7,0,1.3,0.1,1.8,0.3s1,0.5,1.3,0.9
					s0.5,0.9,0.7,1.5l-1.1,0.3c-0.1-0.5-0.3-0.8-0.5-1.1s-0.5-0.5-0.9-0.7s-0.8-0.2-1.3-0.2c-0.6,0-1,0.1-1.5,0.3
					c-0.4,0.2-0.7,0.4-1,0.7c-0.3,0.3-0.4,0.6-0.6,0.9c-0.2,0.6-0.4,1.2-0.4,1.9c0,0.8,0.1,1.5,0.4,2.1c0.3,0.6,0.7,1,1.2,1.2
					c0.5,0.3,1.1,0.4,1.7,0.4c0.5,0,1.1-0.1,1.6-0.3s0.9-0.4,1.2-0.7V7H57.1z"/>
				<path class="st7" d="M67.3,8.5l1.2,0.1c-0.2,0.7-0.5,1.2-1,1.6s-1.1,0.6-1.9,0.6c-1,0-1.8-0.3-2.3-0.9s-0.9-1.5-0.9-2.6
					c0-1.1,0.3-2,0.9-2.6s1.3-0.9,2.3-0.9c0.9,0,1.6,0.3,2.2,0.9c0.6,0.6,0.9,1.5,0.9,2.6c0,0.1,0,0.2,0,0.3h-5
					c0,0.7,0.3,1.3,0.6,1.7c0.4,0.4,0.8,0.6,1.4,0.6c0.4,0,0.8-0.1,1.1-0.3S67.1,9,67.3,8.5z M63.5,6.7h3.8c-0.1-0.6-0.2-1-0.4-1.3
					C66.5,5,66,4.7,65.5,4.7c-0.5,0-1,0.2-1.3,0.5C63.8,5.6,63.6,6.1,63.5,6.7z"/>
				<path class="st7" d="M69.9,10.7V4h1v1c0.5-0.7,1.2-1.1,2.1-1.1c0.4,0,0.8,0.1,1.1,0.2c0.3,0.1,0.6,0.3,0.8,0.6
					c0.2,0.2,0.3,0.5,0.4,0.8c0,0.2,0.1,0.6,0.1,1.1v4.1h-1.1V6.6c0-0.5,0-0.8-0.1-1C74,5.3,73.9,5.1,73.6,5
					c-0.2-0.1-0.5-0.2-0.8-0.2c-0.5,0-0.9,0.2-1.3,0.5c-0.4,0.3-0.5,0.9-0.5,1.8v3.7H69.9z"/>
				<path class="st7" d="M81.8,8.5l1.2,0.1c-0.2,0.7-0.5,1.2-1,1.6s-1.1,0.6-1.9,0.6c-1,0-1.8-0.3-2.3-0.9c-0.6-0.6-0.9-1.5-0.9-2.6
					c0-1.1,0.3-2,0.9-2.6s1.3-0.9,2.3-0.9c0.9,0,1.6,0.3,2.2,0.9C82.7,5.3,83,6.2,83,7.3c0,0.1,0,0.2,0,0.3h-5
					c0,0.7,0.3,1.3,0.6,1.7c0.4,0.4,0.8,0.6,1.4,0.6c0.4,0,0.8-0.1,1.1-0.3S81.6,9,81.8,8.5z M78,6.7h3.8c-0.1-0.6-0.2-1-0.4-1.3
					C81,5,80.5,4.7,79.9,4.7c-0.5,0-1,0.2-1.3,0.5C78.2,5.6,78,6.1,78,6.7z"/>
				<path class="st7" d="M84.4,10.7V4h1v1c0.3-0.5,0.5-0.8,0.7-0.9c0.2-0.2,0.5-0.2,0.7-0.2c0.4,0,0.8,0.1,1.2,0.4l-0.4,1.1
					C87.3,5.1,87.1,5,86.8,5c-0.2,0-0.5,0.1-0.7,0.2s-0.3,0.4-0.4,0.6c-0.1,0.4-0.2,0.9-0.2,1.3v3.5H84.4z"/>
				<path class="st7" d="M93.1,9.9c-0.4,0.4-0.8,0.6-1.2,0.8c-0.4,0.1-0.8,0.2-1.3,0.2c-0.7,0-1.3-0.2-1.7-0.5
					c-0.4-0.4-0.6-0.8-0.6-1.4c0-0.3,0.1-0.6,0.2-0.9c0.1-0.3,0.3-0.5,0.6-0.7S89.6,7.1,90,7c0.2-0.1,0.6-0.1,1-0.2
					c0.9-0.1,1.6-0.2,2-0.4c0-0.2,0-0.3,0-0.3c0-0.5-0.1-0.8-0.3-1c-0.3-0.3-0.7-0.4-1.3-0.4c-0.5,0-0.9,0.1-1.2,0.3
					c-0.3,0.2-0.4,0.5-0.6,1l-1.1-0.2C88.6,5.4,88.8,5,89,4.7s0.6-0.5,1-0.7c0.4-0.2,1-0.2,1.5-0.2c0.6,0,1,0.1,1.4,0.2
					c0.4,0.1,0.6,0.3,0.8,0.5S94,5,94.1,5.3c0,0.2,0.1,0.5,0.1,1.1v1.5c0,1.1,0,1.7,0.1,2c0,0.3,0.1,0.6,0.3,0.8h-1.2
					C93.2,10.5,93.1,10.2,93.1,9.9z M93,7.3c-0.4,0.2-1,0.3-1.9,0.4c-0.5,0.1-0.8,0.1-1,0.2c-0.2,0.1-0.3,0.2-0.5,0.4
					c-0.1,0.2-0.2,0.3-0.2,0.5c0,0.3,0.1,0.6,0.3,0.8s0.6,0.3,1,0.3c0.4,0,0.8-0.1,1.2-0.3c0.3-0.2,0.6-0.5,0.8-0.8
					C92.9,8.6,93,8.2,93,7.7V7.3z"/>
				<path class="st7" d="M95.9,10.7V1.4H97v9.3H95.9z"/>
				<path class="st7" d="M98.8,2.7V1.4h1.1v1.3H98.8z M98.8,10.7V4h1.1v6.7H98.8z"/>
				<path class="st7" d="M101.1,10.7V9.8l4.3-4.9c-0.5,0-0.9,0-1.3,0h-2.7V4h5.5v0.8L103.2,9l-0.7,0.8c0.5,0,1-0.1,1.4-0.1h3.1v1
					H101.1z"/>
				<path class="st7" d="M112.6,9.9c-0.4,0.4-0.8,0.6-1.2,0.8c-0.4,0.1-0.8,0.2-1.3,0.2c-0.7,0-1.3-0.2-1.7-0.5
					c-0.4-0.4-0.6-0.8-0.6-1.4c0-0.3,0.1-0.6,0.2-0.9c0.1-0.3,0.3-0.5,0.6-0.7c0.2-0.2,0.5-0.3,0.8-0.4c0.2-0.1,0.6-0.1,1-0.2
					c0.9-0.1,1.6-0.2,2-0.4c0-0.2,0-0.3,0-0.3c0-0.5-0.1-0.8-0.3-1c-0.3-0.3-0.7-0.4-1.3-0.4c-0.5,0-0.9,0.1-1.2,0.3s-0.4,0.5-0.6,1
					L108,5.9c0.1-0.5,0.3-0.9,0.5-1.2c0.2-0.3,0.6-0.5,1-0.7c0.4-0.2,1-0.2,1.5-0.2c0.6,0,1,0.1,1.4,0.2c0.4,0.1,0.6,0.3,0.8,0.5
					c0.2,0.2,0.3,0.5,0.4,0.8c0,0.2,0.1,0.5,0.1,1.1v1.5c0,1.1,0,1.7,0.1,2s0.1,0.6,0.3,0.8h-1.2C112.7,10.5,112.6,10.2,112.6,9.9z
					 M112.5,7.3c-0.4,0.2-1,0.3-1.9,0.4c-0.5,0.1-0.8,0.1-1,0.2c-0.2,0.1-0.3,0.2-0.5,0.4S109,8.7,109,8.9c0,0.3,0.1,0.6,0.3,0.8
					c0.2,0.2,0.6,0.3,1,0.3c0.4,0,0.8-0.1,1.2-0.3s0.6-0.5,0.8-0.8c0.1-0.3,0.2-0.6,0.2-1.1V7.3z"/>
				<path class="st7" d="M117.9,9.7l0.2,1c-0.3,0.1-0.6,0.1-0.9,0.1c-0.4,0-0.7-0.1-1-0.2c-0.2-0.1-0.4-0.3-0.5-0.5
					s-0.1-0.7-0.1-1.3V4.8h-0.8V4h0.8V2.3l1.1-0.7V4h1.1v0.9h-1.1v3.9c0,0.3,0,0.5,0.1,0.6c0,0.1,0.1,0.2,0.2,0.2
					c0.1,0.1,0.2,0.1,0.4,0.1C117.6,9.7,117.7,9.7,117.9,9.7z"/>
				<path class="st7" d="M119.1,2.7V1.4h1.1v1.3H119.1z M119.1,10.7V4h1.1v6.7H119.1z"/>
				<path class="st7" d="M121.5,7.3c0-1.2,0.3-2.2,1-2.8c0.6-0.5,1.3-0.7,2.1-0.7c0.9,0,1.7,0.3,2.3,0.9s0.9,1.4,0.9,2.5
					c0,0.9-0.1,1.5-0.4,2c-0.3,0.5-0.6,0.9-1.1,1.2c-0.5,0.3-1,0.4-1.6,0.4c-0.9,0-1.7-0.3-2.3-0.9C121.8,9.3,121.5,8.5,121.5,7.3z
					 M122.7,7.3c0,0.9,0.2,1.5,0.6,1.9s0.9,0.6,1.4,0.6c0.6,0,1-0.2,1.4-0.6c0.4-0.4,0.6-1.1,0.6-2c0-0.8-0.2-1.5-0.6-1.9
					s-0.8-0.6-1.4-0.6c-0.6,0-1,0.2-1.4,0.6S122.7,6.5,122.7,7.3z"/>
				<path class="st7" d="M129.2,10.7V4h1v1c0.5-0.7,1.2-1.1,2.1-1.1c0.4,0,0.8,0.1,1.1,0.2c0.3,0.1,0.6,0.3,0.8,0.6
					c0.2,0.2,0.3,0.5,0.4,0.8c0,0.2,0.1,0.6,0.1,1.1v4.1h-1.1V6.6c0-0.5,0-0.8-0.1-1s-0.2-0.4-0.5-0.6c-0.2-0.1-0.5-0.2-0.8-0.2
					c-0.5,0-0.9,0.2-1.3,0.5c-0.4,0.3-0.5,0.9-0.5,1.8v3.7H129.2z"/>
			</g>
		</g>
		<g transform="translate(430.000,109.596)">
			<rect y="0" class="st5" width="10" height="17.2"/>
			<g class="st6">
				<path class="st7" d="M19.7,11.7V2.3h1.2v9.3H19.7z"/>
				<path class="st7" d="M23,11.7V4.9h1v1c0.5-0.7,1.2-1.1,2.1-1.1c0.4,0,0.8,0.1,1.1,0.2c0.3,0.1,0.6,0.3,0.8,0.6
					c0.2,0.2,0.3,0.5,0.4,0.8c0,0.2,0.1,0.6,0.1,1.1v4.1h-1.1V7.6c0-0.5,0-0.8-0.1-1c-0.1-0.2-0.2-0.4-0.5-0.6
					c-0.2-0.1-0.5-0.2-0.8-0.2c-0.5,0-0.9,0.2-1.3,0.5c-0.4,0.3-0.5,0.9-0.5,1.8v3.7H23z"/>
				<path class="st7" d="M32.7,10.6l0.2,1c-0.3,0.1-0.6,0.1-0.9,0.1c-0.4,0-0.7-0.1-1-0.2c-0.2-0.1-0.4-0.3-0.5-0.5
					c-0.1-0.2-0.1-0.7-0.1-1.3V5.8h-0.8V4.9h0.8V3.2l1.1-0.7v2.4h1.1v0.9h-1.1v3.9c0,0.3,0,0.5,0.1,0.6c0,0.1,0.1,0.2,0.2,0.2
					c0.1,0.1,0.2,0.1,0.4,0.1C32.3,10.7,32.5,10.7,32.7,10.6z"/>
				<path class="st7" d="M38.4,9.5l1.2,0.1c-0.2,0.7-0.5,1.2-1,1.6c-0.5,0.4-1.1,0.6-1.9,0.6c-1,0-1.8-0.3-2.3-0.9
					c-0.6-0.6-0.9-1.5-0.9-2.6c0-1.1,0.3-2,0.9-2.6s1.3-0.9,2.3-0.9c0.9,0,1.6,0.3,2.2,0.9c0.6,0.6,0.9,1.5,0.9,2.6
					c0,0.1,0,0.2,0,0.3h-5c0,0.7,0.3,1.3,0.6,1.7c0.4,0.4,0.8,0.6,1.4,0.6c0.4,0,0.8-0.1,1.1-0.3C38,10.3,38.2,10,38.4,9.5z
					 M34.7,7.6h3.8c-0.1-0.6-0.2-1-0.4-1.3c-0.4-0.4-0.8-0.7-1.4-0.7c-0.5,0-1,0.2-1.3,0.5C34.9,6.6,34.7,7,34.7,7.6z"/>
				<path class="st7" d="M41,11.7V4.9h1v1c0.3-0.5,0.5-0.8,0.7-0.9s0.5-0.2,0.7-0.2c0.4,0,0.8,0.1,1.2,0.4l-0.4,1.1
					C44,6,43.7,5.9,43.4,5.9c-0.2,0-0.5,0.1-0.7,0.2c-0.2,0.2-0.3,0.4-0.4,0.6c-0.1,0.4-0.2,0.9-0.2,1.3v3.5H41z"/>
				<path class="st7" d="M45.4,14.2V4.9h1v0.9c0.2-0.3,0.5-0.6,0.8-0.8c0.3-0.2,0.7-0.3,1.1-0.3c0.6,0,1.1,0.1,1.5,0.4
					s0.8,0.7,1,1.3c0.2,0.5,0.3,1.1,0.3,1.8c0,0.7-0.1,1.3-0.4,1.9c-0.2,0.6-0.6,1-1.1,1.3c-0.5,0.3-1,0.4-1.5,0.4
					c-0.4,0-0.7-0.1-1-0.2c-0.3-0.2-0.6-0.4-0.7-0.6v3.3H45.4z M46.4,8.3c0,0.9,0.2,1.5,0.5,1.9s0.8,0.6,1.3,0.6
					c0.5,0,0.9-0.2,1.3-0.6s0.5-1.1,0.5-2c0-0.9-0.2-1.5-0.5-1.9c-0.4-0.4-0.8-0.6-1.3-0.6c-0.5,0-0.9,0.2-1.3,0.7
					S46.4,7.5,46.4,8.3z"/>
				<path class="st7" d="M52.6,11.7V4.9h1v1c0.3-0.5,0.5-0.8,0.7-0.9c0.2-0.2,0.5-0.2,0.7-0.2c0.4,0,0.8,0.1,1.2,0.4l-0.4,1.1
					C55.6,6,55.3,5.9,55,5.9c-0.2,0-0.5,0.1-0.7,0.2S54,6.5,53.9,6.8c-0.1,0.4-0.2,0.9-0.2,1.3v3.5H52.6z"/>
				<path class="st7" d="M61.5,9.5l1.2,0.1c-0.2,0.7-0.5,1.2-1,1.6c-0.5,0.4-1.1,0.6-1.9,0.6c-1,0-1.8-0.3-2.3-0.9
					c-0.6-0.6-0.9-1.5-0.9-2.6c0-1.1,0.3-2,0.9-2.6s1.3-0.9,2.3-0.9c0.9,0,1.6,0.3,2.2,0.9c0.6,0.6,0.9,1.5,0.9,2.6
					c0,0.1,0,0.2,0,0.3h-5c0,0.7,0.3,1.3,0.6,1.7c0.4,0.4,0.8,0.6,1.4,0.6c0.4,0,0.8-0.1,1.1-0.3C61.1,10.3,61.4,10,61.5,9.5z
					 M57.8,7.6h3.8c-0.1-0.6-0.2-1-0.4-1.3c-0.4-0.4-0.8-0.7-1.4-0.7c-0.5,0-1,0.2-1.3,0.5C58,6.6,57.8,7,57.8,7.6z"/>
				<path class="st7" d="M66.6,10.6l0.2,1c-0.3,0.1-0.6,0.1-0.9,0.1c-0.4,0-0.7-0.1-1-0.2c-0.2-0.1-0.4-0.3-0.5-0.5
					c-0.1-0.2-0.1-0.7-0.1-1.3V5.8h-0.8V4.9h0.8V3.2l1.1-0.7v2.4h1.1v0.9h-1.1v3.9c0,0.3,0,0.5,0.1,0.6c0,0.1,0.1,0.2,0.2,0.2
					c0.1,0.1,0.2,0.1,0.4,0.1C66.3,10.7,66.4,10.7,66.6,10.6z"/>
				<path class="st7" d="M72.2,10.8c-0.4,0.4-0.8,0.6-1.2,0.8c-0.4,0.1-0.8,0.2-1.3,0.2c-0.7,0-1.3-0.2-1.7-0.5
					c-0.4-0.4-0.6-0.8-0.6-1.4c0-0.3,0.1-0.6,0.2-0.9c0.2-0.3,0.3-0.5,0.6-0.7C68.4,8.1,68.7,8,69,7.9c0.2-0.1,0.6-0.1,1-0.2
					c0.9-0.1,1.6-0.2,2-0.4c0-0.2,0-0.3,0-0.3c0-0.5-0.1-0.8-0.3-1c-0.3-0.3-0.7-0.4-1.3-0.4c-0.5,0-0.9,0.1-1.2,0.3s-0.4,0.5-0.6,1
					l-1.1-0.2c0.1-0.5,0.3-0.9,0.5-1.2s0.6-0.5,1-0.7c0.4-0.2,0.9-0.2,1.5-0.2c0.6,0,1,0.1,1.4,0.2c0.4,0.1,0.6,0.3,0.8,0.5
					s0.3,0.5,0.4,0.8c0,0.2,0.1,0.5,0.1,1.1v1.5c0,1.1,0,1.7,0.1,2s0.1,0.6,0.3,0.8h-1.2C72.3,11.4,72.2,11.1,72.2,10.8z M72.1,8.3
					c-0.4,0.2-1,0.3-1.9,0.4c-0.5,0.1-0.8,0.1-1,0.2C69,9,68.9,9.1,68.8,9.3c-0.1,0.2-0.2,0.3-0.2,0.5c0,0.3,0.1,0.6,0.3,0.8
					c0.2,0.2,0.6,0.3,1,0.3c0.4,0,0.8-0.1,1.2-0.3c0.3-0.2,0.6-0.5,0.8-0.8c0.1-0.3,0.2-0.6,0.2-1.1V8.3z"/>
				<path class="st7" d="M76,11.7H75V2.3h1.1v3.3c0.5-0.6,1.1-0.9,1.8-0.9c0.4,0,0.8,0.1,1.2,0.3c0.4,0.2,0.7,0.4,0.9,0.7
					c0.2,0.3,0.4,0.7,0.6,1.1c0.1,0.4,0.2,0.9,0.2,1.4c0,1.2-0.3,2-0.9,2.7c-0.6,0.6-1.3,0.9-2.1,0.9c-0.8,0-1.4-0.3-1.9-1V11.7z
					 M76,8.2c0,0.8,0.1,1.4,0.3,1.8c0.4,0.6,0.8,0.9,1.5,0.9c0.5,0,0.9-0.2,1.3-0.7s0.5-1.1,0.5-1.9c0-0.9-0.2-1.5-0.5-1.9
					c-0.3-0.4-0.8-0.6-1.3-0.6c-0.5,0-0.9,0.2-1.3,0.7S76,7.4,76,8.2z"/>
				<path class="st7" d="M82.2,3.7V2.3h1.1v1.3H82.2z M82.2,11.7V4.9h1.1v6.7H82.2z"/>
				<path class="st7" d="M85.1,11.7V2.3h1.1v9.3H85.1z"/>
				<path class="st7" d="M88,3.7V2.3h1.1v1.3H88z M88,11.7V4.9h1.1v6.7H88z"/>
				<path class="st7" d="M93.4,10.6l0.2,1c-0.3,0.1-0.6,0.1-0.9,0.1c-0.4,0-0.7-0.1-1-0.2c-0.2-0.1-0.4-0.3-0.5-0.5
					c-0.1-0.2-0.1-0.7-0.1-1.3V5.8h-0.8V4.9h0.8V3.2l1.1-0.7v2.4h1.1v0.9h-1.1v3.9c0,0.3,0,0.5,0.1,0.6c0,0.1,0.1,0.2,0.2,0.2
					c0.1,0.1,0.2,0.1,0.4,0.1C93,10.7,93.2,10.7,93.4,10.6z"/>
				<path class="st7" d="M94.4,14.2l-0.1-1.1c0.2,0.1,0.5,0.1,0.7,0.1c0.3,0,0.5,0,0.6-0.1s0.3-0.2,0.4-0.4c0.1-0.1,0.2-0.4,0.3-0.9
					c0-0.1,0.1-0.2,0.1-0.3l-2.6-6.8h1.2l1.4,3.9c0.2,0.5,0.3,1,0.5,1.6c0.1-0.5,0.3-1,0.5-1.5l1.4-3.9h1.1l-2.6,6.9
					c-0.3,0.7-0.5,1.3-0.6,1.5c-0.2,0.4-0.4,0.7-0.7,0.8c-0.3,0.2-0.6,0.3-0.9,0.3C95,14.4,94.7,14.3,94.4,14.2z"/>
			</g>
		</g>
		<g transform="translate(430.000,151.801)">
			<rect y="0" class="st5" width="10" height="23.9"/>
			<g class="st6">
				<path class="st7" d="M19.5,15V5.7h4.1c0.8,0,1.5,0.1,1.9,0.3s0.8,0.5,1,0.9C26.8,7.3,27,7.7,27,8.2c0,0.7-0.2,1.2-0.6,1.7
					c-0.4,0.5-1.1,0.7-2,0.9c0.3,0.2,0.6,0.3,0.7,0.5c0.4,0.3,0.7,0.7,1,1.2l1.6,2.5h-1.5l-1.2-1.9c-0.4-0.6-0.7-1-0.9-1.3
					c-0.2-0.3-0.4-0.5-0.6-0.6C23.2,11,23,11,22.9,10.9c-0.1,0-0.4,0-0.7,0h-1.4V15H19.5z M20.7,9.8h2.6c0.6,0,1-0.1,1.3-0.2
					c0.3-0.1,0.6-0.3,0.7-0.6c0.2-0.3,0.2-0.5,0.2-0.8c0-0.4-0.2-0.8-0.5-1.1c-0.3-0.3-0.8-0.4-1.5-0.4h-2.9V9.8z"/>
				<path class="st7" d="M33.3,12.8l1.2,0.1c-0.2,0.7-0.5,1.2-1,1.6c-0.5,0.4-1.1,0.6-1.9,0.6c-1,0-1.8-0.3-2.3-0.9
					c-0.6-0.6-0.9-1.5-0.9-2.6c0-1.1,0.3-2,0.9-2.6s1.3-0.9,2.3-0.9c0.9,0,1.6,0.3,2.2,0.9c0.6,0.6,0.9,1.5,0.9,2.6
					c0,0.1,0,0.2,0,0.3h-5c0,0.7,0.3,1.3,0.6,1.7c0.4,0.4,0.8,0.6,1.4,0.6c0.4,0,0.8-0.1,1.1-0.3C32.9,13.7,33.2,13.3,33.3,12.8z
					 M29.6,11h3.8c-0.1-0.6-0.2-1-0.4-1.3C32.6,9.3,32.1,9,31.5,9c-0.5,0-1,0.2-1.3,0.5C29.8,9.9,29.6,10.4,29.6,11z"/>
				<path class="st7" d="M40.3,15v-0.9c-0.4,0.7-1.1,1-1.9,1c-0.5,0-1-0.1-1.5-0.4s-0.8-0.7-1-1.2s-0.4-1.1-0.4-1.8
					c0-0.7,0.1-1.3,0.3-1.8s0.6-1,1-1.3c0.4-0.3,0.9-0.4,1.5-0.4c0.4,0,0.8,0.1,1.1,0.3c0.3,0.2,0.6,0.4,0.8,0.7V5.7h1.1V15H40.3z
					 M36.7,11.6c0,0.9,0.2,1.5,0.5,1.9c0.4,0.4,0.8,0.6,1.3,0.6c0.5,0,0.9-0.2,1.3-0.6s0.5-1,0.5-1.9c0-0.9-0.2-1.6-0.5-2
					S39,9.1,38.5,9.1c-0.5,0-0.9,0.2-1.3,0.6C36.9,10.1,36.7,10.7,36.7,11.6z"/>
				<path class="st7" d="M47.6,15v-1c-0.5,0.8-1.2,1.1-2.1,1.1c-0.4,0-0.8-0.1-1.1-0.2c-0.3-0.2-0.6-0.3-0.8-0.6
					c-0.2-0.2-0.3-0.5-0.4-0.8c0-0.2-0.1-0.6-0.1-1.1V8.3h1.1V12c0,0.6,0,1,0.1,1.2c0.1,0.3,0.2,0.5,0.5,0.7
					c0.2,0.2,0.5,0.3,0.9,0.3s0.7-0.1,1-0.3s0.5-0.4,0.6-0.7s0.2-0.7,0.2-1.3V8.3h1.1V15H47.6z"/>
				<path class="st7" d="M54.8,12.5l1.1,0.1c-0.1,0.8-0.4,1.4-0.9,1.8c-0.5,0.4-1.1,0.7-1.9,0.7c-0.9,0-1.7-0.3-2.2-0.9
					c-0.6-0.6-0.8-1.5-0.8-2.6c0-0.7,0.1-1.4,0.4-1.9s0.6-1,1.1-1.2c0.5-0.3,1-0.4,1.6-0.4c0.7,0,1.3,0.2,1.8,0.6s0.8,0.9,0.9,1.6
					l-1.1,0.2c-0.1-0.5-0.3-0.8-0.6-1c-0.3-0.2-0.6-0.3-1-0.3c-0.6,0-1,0.2-1.4,0.6c-0.4,0.4-0.5,1.1-0.5,2c0,0.9,0.2,1.6,0.5,2
					c0.3,0.4,0.8,0.6,1.4,0.6c0.4,0,0.8-0.1,1.1-0.4C54.6,13.5,54.7,13.1,54.8,12.5z"/>
				<path class="st7" d="M61.5,12.8l1.2,0.1c-0.2,0.7-0.5,1.2-1,1.6s-1.1,0.6-1.9,0.6c-1,0-1.8-0.3-2.3-0.9s-0.9-1.5-0.9-2.6
					c0-1.1,0.3-2,0.9-2.6s1.3-0.9,2.3-0.9c0.9,0,1.6,0.3,2.2,0.9c0.6,0.6,0.9,1.5,0.9,2.6c0,0.1,0,0.2,0,0.3h-5
					c0,0.7,0.3,1.3,0.6,1.7c0.4,0.4,0.8,0.6,1.4,0.6c0.4,0,0.8-0.1,1.1-0.3S61.4,13.3,61.5,12.8z M57.8,11h3.8
					c-0.1-0.6-0.2-1-0.4-1.3C60.8,9.3,60.3,9,59.7,9c-0.5,0-1,0.2-1.3,0.5C58,9.9,57.8,10.4,57.8,11z"/>
				<path class="st7" d="M68.5,15v-0.9c-0.4,0.7-1.1,1-1.9,1c-0.5,0-1-0.1-1.5-0.4c-0.5-0.3-0.8-0.7-1-1.2c-0.2-0.5-0.4-1.1-0.4-1.8
					c0-0.7,0.1-1.3,0.3-1.8c0.2-0.5,0.6-1,1-1.3c0.4-0.3,1-0.4,1.5-0.4c0.4,0,0.8,0.1,1.1,0.3C68,8.5,68.3,8.8,68.5,9V5.7h1.1V15
					H68.5z M64.9,11.6c0,0.9,0.2,1.5,0.5,1.9c0.4,0.4,0.8,0.6,1.3,0.6c0.5,0,0.9-0.2,1.3-0.6c0.3-0.4,0.5-1,0.5-1.9
					c0-0.9-0.2-1.6-0.5-2s-0.8-0.6-1.3-0.6c-0.5,0-0.9,0.2-1.3,0.6C65.1,10.1,64.9,10.7,64.9,11.6z"/>
				<path class="st7" d="M75.1,15V5.7h3.2c0.7,0,1.3,0,1.7,0.1c0.5,0.1,1,0.3,1.4,0.7c0.5,0.4,0.9,0.9,1.1,1.6
					c0.2,0.6,0.4,1.4,0.4,2.2c0,0.7-0.1,1.3-0.2,1.9c-0.2,0.5-0.4,1-0.6,1.4c-0.3,0.4-0.5,0.6-0.8,0.8c-0.3,0.2-0.7,0.4-1.1,0.5
					c-0.4,0.1-0.9,0.2-1.5,0.2H75.1z M76.4,13.9h2c0.6,0,1.1-0.1,1.4-0.2c0.3-0.1,0.6-0.3,0.8-0.5c0.3-0.3,0.5-0.7,0.7-1.2
					c0.2-0.5,0.2-1.1,0.2-1.8c0-1-0.2-1.7-0.5-2.2S80.4,7.2,79.9,7c-0.3-0.1-0.9-0.2-1.6-0.2h-2V13.9z"/>
				<path class="st7" d="M88.8,14.2c-0.4,0.4-0.8,0.6-1.2,0.8c-0.4,0.1-0.8,0.2-1.3,0.2c-0.7,0-1.3-0.2-1.7-0.5
					c-0.4-0.4-0.6-0.8-0.6-1.4c0-0.3,0.1-0.6,0.2-0.9c0.2-0.3,0.3-0.5,0.6-0.7c0.2-0.2,0.5-0.3,0.8-0.4c0.2-0.1,0.6-0.1,1-0.2
					c0.9-0.1,1.6-0.2,2-0.4c0-0.2,0-0.3,0-0.3c0-0.5-0.1-0.8-0.3-1c-0.3-0.3-0.7-0.4-1.3-0.4c-0.5,0-0.9,0.1-1.2,0.3
					c-0.3,0.2-0.4,0.5-0.6,1l-1.1-0.2c0.1-0.5,0.3-0.9,0.5-1.2c0.2-0.3,0.6-0.5,1-0.7c0.4-0.2,1-0.2,1.5-0.2c0.6,0,1,0.1,1.4,0.2
					s0.6,0.3,0.8,0.5c0.2,0.2,0.3,0.5,0.4,0.8c0,0.2,0.1,0.5,0.1,1.1v1.5c0,1.1,0,1.7,0.1,2c0,0.3,0.1,0.6,0.3,0.8H89
					C88.9,14.8,88.8,14.5,88.8,14.2z M88.7,11.6c-0.4,0.2-1,0.3-1.9,0.4c-0.5,0.1-0.8,0.1-1,0.2c-0.2,0.1-0.3,0.2-0.5,0.4
					s-0.2,0.3-0.2,0.5c0,0.3,0.1,0.6,0.3,0.8s0.6,0.3,1,0.3c0.4,0,0.8-0.1,1.2-0.3s0.6-0.5,0.8-0.8c0.1-0.3,0.2-0.6,0.2-1.1V11.6z"
					/>
				<path class="st7" d="M94.1,14l0.2,1c-0.3,0.1-0.6,0.1-0.9,0.1c-0.4,0-0.7-0.1-1-0.2c-0.2-0.1-0.4-0.3-0.5-0.5s-0.1-0.7-0.1-1.3
					V9.1H91V8.3h0.8V6.6L93,5.9v2.4h1.1v0.9H93v3.9c0,0.3,0,0.5,0.1,0.6s0.1,0.2,0.2,0.2c0.1,0.1,0.2,0.1,0.4,0.1
					C93.7,14,93.9,14,94.1,14z"/>
				<path class="st7" d="M99.6,14.2c-0.4,0.4-0.8,0.6-1.2,0.8c-0.4,0.1-0.8,0.2-1.3,0.2c-0.7,0-1.3-0.2-1.7-0.5
					c-0.4-0.4-0.6-0.8-0.6-1.4c0-0.3,0.1-0.6,0.2-0.9c0.2-0.3,0.3-0.5,0.6-0.7c0.2-0.2,0.5-0.3,0.8-0.4c0.2-0.1,0.6-0.1,1-0.2
					c0.9-0.1,1.6-0.2,2-0.4c0-0.2,0-0.3,0-0.3c0-0.5-0.1-0.8-0.3-1c-0.3-0.3-0.7-0.4-1.3-0.4c-0.5,0-0.9,0.1-1.2,0.3
					c-0.3,0.2-0.4,0.5-0.6,1L95,10.2c0.1-0.5,0.3-0.9,0.5-1.2c0.2-0.3,0.6-0.5,1-0.7c0.4-0.2,1-0.2,1.5-0.2c0.6,0,1,0.1,1.4,0.2
					s0.6,0.3,0.8,0.5c0.2,0.2,0.3,0.5,0.4,0.8c0,0.2,0.1,0.5,0.1,1.1v1.5c0,1.1,0,1.7,0.1,2c0,0.3,0.1,0.6,0.3,0.8h-1.2
					C99.7,14.8,99.7,14.5,99.6,14.2z M99.5,11.6c-0.4,0.2-1,0.3-1.9,0.4c-0.5,0.1-0.8,0.1-1,0.2c-0.2,0.1-0.3,0.2-0.5,0.4
					s-0.2,0.3-0.2,0.5c0,0.3,0.1,0.6,0.3,0.8s0.6,0.3,1,0.3c0.4,0,0.8-0.1,1.2-0.3s0.6-0.5,0.8-0.8c0.1-0.3,0.2-0.6,0.2-1.1V11.6z"
					/>
			</g>
		</g>
		<g transform="translate(430.000,311.875)">
			<rect class="st5" width="10" height="8.1"/>
			<g class="st6">
				<path class="st7" d="M21.9,7.1v-8.2h-3.1v-1.1h7.4v1.1h-3.1v8.2H21.9z"/>
				<path class="st7" d="M26.8,7.1V0.4h1v1c0.3-0.5,0.5-0.8,0.7-0.9c0.2-0.2,0.5-0.2,0.7-0.2c0.4,0,0.8,0.1,1.2,0.4l-0.4,1.1
					c-0.3-0.2-0.6-0.2-0.8-0.2c-0.2,0-0.5,0.1-0.7,0.2S28.2,2,28.1,2.2c-0.1,0.4-0.2,0.9-0.2,1.3v3.5H26.8z"/>
				<path class="st7" d="M35.5,6.3c-0.4,0.4-0.8,0.6-1.2,0.8c-0.4,0.1-0.8,0.2-1.3,0.2c-0.7,0-1.3-0.2-1.7-0.5
					c-0.4-0.4-0.6-0.8-0.6-1.4c0-0.3,0.1-0.6,0.2-0.9c0.2-0.3,0.3-0.5,0.6-0.7c0.2-0.2,0.5-0.3,0.8-0.4c0.2-0.1,0.6-0.1,1-0.2
					c0.9-0.1,1.6-0.2,2-0.4c0-0.2,0-0.3,0-0.3c0-0.5-0.1-0.8-0.3-1c-0.3-0.3-0.7-0.4-1.3-0.4c-0.5,0-0.9,0.1-1.2,0.3s-0.4,0.5-0.6,1
					l-1.1-0.2c0.1-0.5,0.3-0.9,0.5-1.2s0.6-0.5,1-0.7c0.4-0.2,0.9-0.2,1.5-0.2c0.6,0,1,0.1,1.4,0.2c0.4,0.1,0.6,0.3,0.8,0.5
					s0.3,0.5,0.4,0.8c0,0.2,0.1,0.5,0.1,1.1v1.5c0,1.1,0,1.7,0.1,2s0.1,0.6,0.3,0.8h-1.2C35.6,6.9,35.6,6.6,35.5,6.3z M35.4,3.7
					c-0.4,0.2-1,0.3-1.9,0.4c-0.5,0.1-0.8,0.1-1,0.2c-0.2,0.1-0.3,0.2-0.5,0.4C32,4.9,32,5.1,32,5.3c0,0.3,0.1,0.6,0.3,0.8
					c0.2,0.2,0.6,0.3,1,0.3c0.4,0,0.8-0.1,1.2-0.3c0.3-0.2,0.6-0.5,0.8-0.8c0.1-0.3,0.2-0.6,0.2-1.1V3.7z"/>
				<path class="st7" d="M38.4,7.1V0.4h1v1c0.5-0.7,1.2-1.1,2.1-1.1c0.4,0,0.8,0.1,1.1,0.2C43,0.6,43.3,0.8,43.4,1
					c0.2,0.2,0.3,0.5,0.4,0.8c0,0.2,0.1,0.6,0.1,1.1v4.1h-1.1V3c0-0.5,0-0.8-0.1-1s-0.2-0.4-0.5-0.6s-0.5-0.2-0.8-0.2
					c-0.5,0-0.9,0.2-1.3,0.5c-0.4,0.3-0.5,0.9-0.5,1.8v3.7H38.4z"/>
				<path class="st7" d="M45.1,5.1l1.1-0.2c0.1,0.5,0.2,0.8,0.5,1c0.3,0.2,0.7,0.4,1.2,0.4c0.5,0,0.9-0.1,1.2-0.3s0.4-0.5,0.4-0.8
					c0-0.3-0.1-0.5-0.3-0.6c-0.2-0.1-0.5-0.2-1.2-0.4c-0.8-0.2-1.4-0.4-1.7-0.5c-0.3-0.2-0.6-0.4-0.7-0.6c-0.2-0.3-0.2-0.6-0.2-0.9
					c0-0.3,0.1-0.6,0.2-0.8s0.3-0.5,0.6-0.6c0.2-0.1,0.4-0.2,0.7-0.3s0.6-0.1,1-0.1c0.5,0,1,0.1,1.4,0.2c0.4,0.2,0.7,0.4,0.9,0.6
					c0.2,0.3,0.3,0.6,0.4,1l-1.1,0.2c-0.1-0.3-0.2-0.6-0.4-0.8c-0.2-0.2-0.6-0.3-1-0.3c-0.5,0-0.9,0.1-1.1,0.3
					c-0.2,0.2-0.3,0.4-0.3,0.6c0,0.1,0,0.3,0.1,0.4c0.1,0.1,0.2,0.2,0.4,0.3c0.1,0,0.5,0.1,1,0.3c0.8,0.2,1.4,0.4,1.7,0.5
					c0.3,0.1,0.6,0.3,0.8,0.6s0.3,0.6,0.3,1c0,0.4-0.1,0.7-0.3,1.1c-0.2,0.3-0.5,0.6-1,0.8C49,7.2,48.5,7.3,48,7.3
					c-0.9,0-1.5-0.2-2-0.5C45.6,6.4,45.3,5.8,45.1,5.1z"/>
				<path class="st7" d="M52.4,7.1V1.3h-1V0.4h1v-0.7c0-0.5,0-0.8,0.1-1c0.1-0.3,0.3-0.5,0.6-0.7c0.3-0.2,0.7-0.3,1.2-0.3
					c0.3,0,0.7,0,1.1,0.1l-0.2,1c-0.2,0-0.5-0.1-0.7-0.1c-0.3,0-0.6,0.1-0.7,0.2c-0.1,0.1-0.2,0.4-0.2,0.8v0.6h1.3v0.9h-1.3v5.9
					H52.4z"/>
				<path class="st7" d="M60.3,4.9l1.2,0.1c-0.2,0.7-0.5,1.2-1,1.6s-1.1,0.6-1.9,0.6c-1,0-1.8-0.3-2.3-0.9s-0.9-1.5-0.9-2.6
					c0-1.1,0.3-2,0.9-2.6s1.3-0.9,2.3-0.9c0.9,0,1.6,0.3,2.2,0.9c0.6,0.6,0.9,1.5,0.9,2.6c0,0.1,0,0.2,0,0.3h-5
					c0,0.7,0.3,1.3,0.6,1.7c0.4,0.4,0.8,0.6,1.4,0.6c0.4,0,0.8-0.1,1.1-0.3S60.1,5.4,60.3,4.9z M56.6,3.1h3.8
					c-0.1-0.6-0.2-1-0.4-1.3c-0.4-0.4-0.8-0.7-1.4-0.7c-0.5,0-1,0.2-1.3,0.5C56.8,2,56.6,2.5,56.6,3.1z"/>
				<path class="st7" d="M62.9,7.1V0.4h1v1c0.3-0.5,0.5-0.8,0.7-0.9c0.2-0.2,0.5-0.2,0.7-0.2c0.4,0,0.8,0.1,1.2,0.4l-0.4,1.1
					c-0.3-0.2-0.6-0.2-0.8-0.2c-0.2,0-0.5,0.1-0.7,0.2S64.3,2,64.3,2.2c-0.1,0.4-0.2,0.9-0.2,1.3v3.5H62.9z"/>
				<path class="st7" d="M71.7,6.3c-0.4,0.4-0.8,0.6-1.2,0.8c-0.4,0.1-0.8,0.2-1.3,0.2c-0.7,0-1.3-0.2-1.7-0.5
					c-0.4-0.4-0.6-0.8-0.6-1.4c0-0.3,0.1-0.6,0.2-0.9c0.2-0.3,0.3-0.5,0.6-0.7c0.2-0.2,0.5-0.3,0.8-0.4c0.2-0.1,0.6-0.1,1-0.2
					c0.9-0.1,1.6-0.2,2-0.4c0-0.2,0-0.3,0-0.3c0-0.5-0.1-0.8-0.3-1C71,1.3,70.5,1.2,70,1.2c-0.5,0-0.9,0.1-1.2,0.3s-0.4,0.5-0.6,1
					l-1.1-0.2c0.1-0.5,0.3-0.9,0.5-1.2s0.6-0.5,1-0.7c0.4-0.2,0.9-0.2,1.5-0.2c0.6,0,1,0.1,1.4,0.2c0.4,0.1,0.6,0.3,0.8,0.5
					s0.3,0.5,0.4,0.8c0,0.2,0.1,0.5,0.1,1.1v1.5c0,1.1,0,1.7,0.1,2s0.1,0.6,0.3,0.8h-1.2C71.8,6.9,71.7,6.6,71.7,6.3z M71.6,3.7
					c-0.4,0.2-1,0.3-1.9,0.4c-0.5,0.1-0.8,0.1-1,0.2c-0.2,0.1-0.3,0.2-0.5,0.4c-0.1,0.2-0.2,0.3-0.2,0.5c0,0.3,0.1,0.6,0.3,0.8
					c0.2,0.2,0.6,0.3,1,0.3c0.4,0,0.8-0.1,1.2-0.3c0.3-0.2,0.6-0.5,0.8-0.8c0.1-0.3,0.2-0.6,0.2-1.1V3.7z"/>
				<path class="st7" d="M75.5,7.1h-1.1v-9.3h1.1v3.3c0.5-0.6,1.1-0.9,1.8-0.9c0.4,0,0.8,0.1,1.2,0.3c0.4,0.2,0.7,0.4,0.9,0.7
					c0.2,0.3,0.4,0.7,0.6,1.1c0.1,0.4,0.2,0.9,0.2,1.4c0,1.2-0.3,2-0.9,2.7c-0.6,0.6-1.3,0.9-2.1,0.9c-0.8,0-1.4-0.3-1.9-1V7.1z
					 M75.5,3.7c0,0.8,0.1,1.4,0.3,1.8c0.4,0.6,0.8,0.9,1.5,0.9c0.5,0,0.9-0.2,1.3-0.7s0.5-1.1,0.5-1.9c0-0.9-0.2-1.5-0.5-1.9
					c-0.3-0.4-0.8-0.6-1.3-0.6c-0.5,0-0.9,0.2-1.3,0.7S75.5,2.9,75.5,3.7z"/>
				<path class="st7" d="M81.7-0.9v-1.3h1.1v1.3H81.7z M81.7,7.1V0.4h1.1v6.7H81.7z"/>
				<path class="st7" d="M84.6,7.1v-9.3h1.1v9.3H84.6z"/>
				<path class="st7" d="M87.5-0.9v-1.3h1.1v1.3H87.5z M87.5,7.1V0.4h1.1v6.7H87.5z"/>
				<path class="st7" d="M92.9,6.1l0.2,1c-0.3,0.1-0.6,0.1-0.9,0.1c-0.4,0-0.7-0.1-1-0.2c-0.2-0.1-0.4-0.3-0.5-0.5
					c-0.1-0.2-0.1-0.7-0.1-1.3V1.3h-0.8V0.4h0.8v-1.7L91.7-2v2.4h1.1v0.9h-1.1v3.9c0,0.3,0,0.5,0.1,0.6c0,0.1,0.1,0.2,0.2,0.2
					c0.1,0.1,0.2,0.1,0.4,0.1C92.5,6.1,92.7,6.1,92.9,6.1z"/>
				<path class="st7" d="M94,9.7l-0.1-1.1c0.2,0.1,0.5,0.1,0.7,0.1c0.3,0,0.5,0,0.6-0.1s0.3-0.2,0.4-0.4c0.1-0.1,0.2-0.4,0.3-0.9
					c0-0.1,0.1-0.2,0.1-0.3l-2.6-6.8h1.2L96,4.3c0.2,0.5,0.3,1,0.5,1.6c0.1-0.5,0.3-1,0.5-1.5l1.4-3.9h1.1L97,7.2
					c-0.3,0.7-0.5,1.3-0.6,1.5c-0.2,0.4-0.4,0.7-0.7,0.8c-0.3,0.2-0.6,0.3-0.9,0.3C94.5,9.8,94.2,9.8,94,9.7z"/>
			</g>
		</g>
		<g transform="translate(430.000,240.993)">
			<rect y="0" class="st8" width="10" height="45.9"/>
			<g class="st6">
				<path class="st7" d="M19.5,26v-9.3h1.3l4.9,7.3v-7.3h1.2V26h-1.3l-4.9-7.3V26H19.5z"/>
				<path class="st7" d="M28.3,22.6c0-1.2,0.3-2.2,1-2.8c0.6-0.5,1.3-0.7,2.1-0.7c0.9,0,1.7,0.3,2.3,0.9c0.6,0.6,0.9,1.4,0.9,2.5
					c0,0.9-0.1,1.5-0.4,2c-0.3,0.5-0.6,0.9-1.1,1.2c-0.5,0.3-1,0.4-1.6,0.4c-0.9,0-1.7-0.3-2.3-0.9C28.6,24.6,28.3,23.8,28.3,22.6z
					 M29.5,22.6c0,0.9,0.2,1.5,0.6,1.9c0.4,0.4,0.9,0.6,1.4,0.6c0.6,0,1-0.2,1.4-0.6s0.6-1.1,0.6-2c0-0.8-0.2-1.5-0.6-1.9
					C32.5,20.3,32,20,31.5,20c-0.6,0-1,0.2-1.4,0.6C29.7,21.1,29.5,21.8,29.5,22.6z"/>
				<path class="st7" d="M36,26v-6.7h1v1c0.5-0.7,1.2-1.1,2.1-1.1c0.4,0,0.8,0.1,1.1,0.2c0.3,0.1,0.6,0.3,0.8,0.6
					c0.2,0.2,0.3,0.5,0.4,0.8c0,0.2,0.1,0.6,0.1,1.1V26h-1.1v-4.1c0-0.5,0-0.8-0.1-1c-0.1-0.2-0.2-0.4-0.5-0.6
					c-0.2-0.1-0.5-0.2-0.8-0.2c-0.5,0-0.9,0.2-1.3,0.5c-0.4,0.3-0.5,0.9-0.5,1.8V26H36z"/>
				<path class="st7" d="M47.8,23.8L49,24c-0.2,0.7-0.5,1.2-1,1.6s-1.1,0.6-1.9,0.6c-1,0-1.8-0.3-2.3-0.9c-0.6-0.6-0.9-1.5-0.9-2.6
					c0-1.1,0.3-2,0.9-2.6s1.3-0.9,2.3-0.9c0.9,0,1.6,0.3,2.2,0.9c0.6,0.6,0.9,1.5,0.9,2.6c0,0.1,0,0.2,0,0.3h-5
					c0,0.7,0.3,1.3,0.6,1.7c0.4,0.4,0.8,0.6,1.4,0.6c0.4,0,0.8-0.1,1.1-0.3S47.6,24.3,47.8,23.8z M44.1,22h3.8
					c-0.1-0.6-0.2-1-0.4-1.3C47,20.3,46.6,20,46,20c-0.5,0-1,0.2-1.3,0.5C44.3,20.9,44.1,21.4,44.1,22z"/>
			</g>
		</g>
		<g transform="translate(0.000,217.465)">
			<rect y="0" class="st5" width="10" height="97.5"/>
			<g class="st6">
				<path class="st7" d="M-49,53.3V44h1.2v9.3H-49z"/>
				<path class="st7" d="M-45.7,53.3v-6.7h1v0.9c0.2-0.3,0.5-0.6,0.8-0.8s0.8-0.3,1.2-0.3c0.5,0,0.9,0.1,1.2,0.3
					c0.3,0.2,0.5,0.5,0.7,0.9c0.5-0.8,1.2-1.2,2.1-1.2c0.7,0,1.2,0.2,1.5,0.6s0.5,0.9,0.5,1.7v4.6h-1.1v-4.2c0-0.5,0-0.8-0.1-1
					c-0.1-0.2-0.2-0.4-0.4-0.5c-0.2-0.1-0.4-0.2-0.7-0.2c-0.5,0-0.9,0.2-1.2,0.5s-0.5,0.8-0.5,1.5v3.9h-1.1v-4.4
					c0-0.5-0.1-0.9-0.3-1.1s-0.5-0.4-0.9-0.4c-0.3,0-0.6,0.1-0.9,0.3c-0.3,0.2-0.5,0.4-0.6,0.7c-0.1,0.3-0.2,0.8-0.2,1.4v3.5H-45.7z
					"/>
				<path class="st7" d="M-34.9,55.9v-9.3h1v0.9c0.2-0.3,0.5-0.6,0.8-0.8c0.3-0.2,0.7-0.3,1.1-0.3c0.6,0,1.1,0.1,1.5,0.4
					s0.8,0.7,1,1.3c0.2,0.5,0.3,1.1,0.3,1.8c0,0.7-0.1,1.3-0.4,1.9c-0.2,0.6-0.6,1-1.1,1.3c-0.5,0.3-1,0.4-1.5,0.4
					c-0.4,0-0.7-0.1-1-0.2c-0.3-0.2-0.6-0.4-0.7-0.6v3.3H-34.9z M-33.9,50c0,0.9,0.2,1.5,0.5,1.9s0.8,0.6,1.3,0.6
					c0.5,0,0.9-0.2,1.3-0.6c0.4-0.4,0.5-1.1,0.5-2c0-0.9-0.2-1.5-0.5-1.9c-0.4-0.4-0.8-0.6-1.3-0.6c-0.5,0-0.9,0.2-1.3,0.7
					C-33.7,48.4-33.9,49.1-33.9,50z"/>
				<path class="st7" d="M-27.7,53.3V44h1.1v9.3H-27.7z"/>
				<path class="st7" d="M-24.8,45.3V44h1.1v1.3H-24.8z M-24.8,53.3v-6.7h1.1v6.7H-24.8z"/>
				<path class="st7" d="M-17.5,50.8l1.1,0.1c-0.1,0.8-0.4,1.4-0.9,1.8c-0.5,0.4-1.1,0.7-1.9,0.7c-0.9,0-1.7-0.3-2.2-0.9
					c-0.6-0.6-0.8-1.5-0.8-2.6c0-0.7,0.1-1.4,0.4-1.9s0.6-1,1.1-1.2c0.5-0.3,1-0.4,1.6-0.4c0.7,0,1.3,0.2,1.8,0.6s0.8,0.9,0.9,1.6
					l-1.1,0.2c-0.1-0.5-0.3-0.8-0.6-1c-0.3-0.2-0.6-0.3-1-0.3c-0.6,0-1,0.2-1.4,0.6c-0.4,0.4-0.5,1.1-0.5,2c0,0.9,0.2,1.6,0.5,2
					c0.3,0.4,0.8,0.6,1.4,0.6c0.4,0,0.8-0.1,1.1-0.4C-17.8,51.8-17.6,51.4-17.5,50.8z"/>
				<path class="st7" d="M-15.4,45.3V44h1.1v1.3H-15.4z M-15.4,53.3v-6.7h1.1v6.7H-15.4z"/>
				<path class="st7" d="M-10,52.3l0.2,1c-0.3,0.1-0.6,0.1-0.9,0.1c-0.4,0-0.7-0.1-1-0.2c-0.2-0.1-0.4-0.3-0.5-0.5s-0.1-0.7-0.1-1.3
					v-3.9h-0.8v-0.9h0.8v-1.7l1.1-0.7v2.4h1.1v0.9h-1.1v3.9c0,0.3,0,0.5,0.1,0.6c0,0.1,0.1,0.2,0.2,0.2c0.1,0.1,0.2,0.1,0.4,0.1
					C-10.4,52.3-10.2,52.3-10,52.3z"/>
			</g>
		</g>
		<g transform="translate(0.000,117.906)">
			<rect y="0" class="st5" width="10" height="74.6"/>
			<g class="st6">
				<path class="st7" d="M-49.9,41.8v-9.3h6.7v1.1h-5.5v2.8h5.1v1.1h-5.1v3.2h5.7v1.1H-49.9z"/>
				<path class="st7" d="M-42.2,41.8l2.5-3.5l-2.3-3.2h1.4l1,1.6c0.2,0.3,0.4,0.6,0.5,0.8c0.2-0.3,0.4-0.5,0.5-0.7l1.1-1.6h1.4
					l-2.3,3.2l2.5,3.6h-1.4l-1.4-2.1l-0.4-0.6l-1.8,2.7H-42.2z"/>
				<path class="st7" d="M-34.9,44.4v-9.3h1V36c0.2-0.3,0.5-0.6,0.8-0.8c0.3-0.2,0.7-0.3,1.1-0.3c0.6,0,1.1,0.1,1.5,0.4
					s0.8,0.7,1,1.3c0.2,0.5,0.3,1.1,0.3,1.8c0,0.7-0.1,1.3-0.4,1.9c-0.2,0.6-0.6,1-1.1,1.3c-0.5,0.3-1,0.4-1.5,0.4
					c-0.4,0-0.7-0.1-1-0.2c-0.3-0.2-0.6-0.4-0.7-0.6v3.3H-34.9z M-33.9,38.5c0,0.9,0.2,1.5,0.5,1.9s0.8,0.6,1.3,0.6
					c0.5,0,0.9-0.2,1.3-0.6c0.4-0.4,0.5-1.1,0.5-2c0-0.9-0.2-1.5-0.5-1.9c-0.4-0.4-0.8-0.6-1.3-0.6c-0.5,0-0.9,0.2-1.3,0.7
					C-33.7,37-33.9,37.6-33.9,38.5z"/>
				<path class="st7" d="M-27.7,41.8v-9.3h1.1v9.3H-27.7z"/>
				<path class="st7" d="M-24.8,33.8v-1.3h1.1v1.3H-24.8z M-24.8,41.8v-6.7h1.1v6.7H-24.8z"/>
				<path class="st7" d="M-17.5,39.4l1.1,0.1c-0.1,0.8-0.4,1.4-0.9,1.8c-0.5,0.4-1.1,0.7-1.9,0.7c-0.9,0-1.7-0.3-2.2-0.9
					c-0.6-0.6-0.8-1.5-0.8-2.6c0-0.7,0.1-1.4,0.4-1.9s0.6-1,1.1-1.2c0.5-0.3,1-0.4,1.6-0.4c0.7,0,1.3,0.2,1.8,0.6s0.8,0.9,0.9,1.6
					l-1.1,0.2c-0.1-0.5-0.3-0.8-0.6-1c-0.3-0.2-0.6-0.3-1-0.3c-0.6,0-1,0.2-1.4,0.6c-0.4,0.4-0.5,1.1-0.5,2c0,0.9,0.2,1.6,0.5,2
					c0.3,0.4,0.8,0.6,1.4,0.6c0.4,0,0.8-0.1,1.1-0.4C-17.8,40.4-17.6,39.9-17.5,39.4z"/>
				<path class="st7" d="M-15.4,33.8v-1.3h1.1v1.3H-15.4z M-15.4,41.8v-6.7h1.1v6.7H-15.4z"/>
				<path class="st7" d="M-10,40.8l0.2,1c-0.3,0.1-0.6,0.1-0.9,0.1c-0.4,0-0.7-0.1-1-0.2c-0.2-0.1-0.4-0.3-0.5-0.5s-0.1-0.7-0.1-1.3
					V36h-0.8v-0.9h0.8v-1.7l1.1-0.7v2.4h1.1V36h-1.1v3.9c0,0.3,0,0.5,0.1,0.6c0,0.1,0.1,0.2,0.2,0.2c0.1,0.1,0.2,0.1,0.4,0.1
					C-10.4,40.9-10.2,40.8-10,40.8z"/>
			</g>
		</g>
		<g transform="translate(0.000,69.965)">
			<rect y="0" class="st5" width="10" height="22.9"/>
			<g class="st6">
				<path class="st7" d="M-35.5,16V6.7h3.5c0.7,0,1.3,0.1,1.7,0.3c0.4,0.2,0.8,0.5,1,0.9c0.2,0.4,0.4,0.8,0.4,1.2
					c0,0.4-0.1,0.8-0.3,1.1s-0.5,0.6-1,0.9c0.6,0.2,1,0.4,1.3,0.8c0.3,0.4,0.5,0.9,0.5,1.4c0,0.4-0.1,0.8-0.3,1.2
					c-0.2,0.4-0.4,0.7-0.7,0.9s-0.6,0.4-1,0.5C-30.9,16-31.4,16-32,16H-35.5z M-34.3,10.6h2c0.5,0,0.9,0,1.2-0.1
					c0.3-0.1,0.5-0.2,0.7-0.5c0.2-0.2,0.2-0.5,0.2-0.8c0-0.3-0.1-0.6-0.2-0.8C-30.5,8.2-30.8,8-31,7.9c-0.3-0.1-0.7-0.1-1.4-0.1
					h-1.9V10.6z M-34.3,14.9h2.3c0.4,0,0.7,0,0.8,0c0.3-0.1,0.5-0.1,0.7-0.3s0.3-0.3,0.5-0.5s0.2-0.5,0.2-0.8c0-0.3-0.1-0.6-0.3-0.9
					s-0.4-0.4-0.7-0.5c-0.3-0.1-0.8-0.2-1.4-0.2h-2.2V14.9z"/>
				<path class="st7" d="M-27.4,12.6c0-1.2,0.3-2.2,1-2.8c0.6-0.5,1.3-0.7,2.1-0.7c0.9,0,1.7,0.3,2.3,0.9s0.9,1.4,0.9,2.5
					c0,0.9-0.1,1.5-0.4,2c-0.3,0.5-0.6,0.9-1.1,1.2c-0.5,0.3-1,0.4-1.6,0.4c-0.9,0-1.7-0.3-2.3-0.9C-27.1,14.7-27.4,13.8-27.4,12.6z
					 M-26.2,12.6c0,0.9,0.2,1.5,0.6,1.9s0.9,0.6,1.4,0.6c0.6,0,1-0.2,1.4-0.6s0.6-1.1,0.6-2c0-0.8-0.2-1.5-0.6-1.9
					c-0.4-0.4-0.8-0.6-1.4-0.6c-0.6,0-1,0.2-1.4,0.6S-26.2,11.8-26.2,12.6z"/>
				<path class="st7" d="M-17.2,15l0.2,1c-0.3,0.1-0.6,0.1-0.9,0.1c-0.4,0-0.7-0.1-1-0.2c-0.2-0.1-0.4-0.3-0.5-0.5s-0.1-0.7-0.1-1.3
					v-3.9h-0.8V9.3h0.8V7.6l1.1-0.7v2.4h1.1v0.9h-1.1v3.9c0,0.3,0,0.5,0.1,0.6c0,0.1,0.1,0.2,0.2,0.2C-18,15-17.9,15-17.7,15
					C-17.6,15-17.4,15-17.2,15z"/>
				<path class="st7" d="M-16.1,16V6.7h1.1v3.3c0.5-0.6,1.2-0.9,2-0.9c0.5,0,0.9,0.1,1.3,0.3c0.4,0.2,0.6,0.5,0.8,0.8
					c0.2,0.3,0.2,0.9,0.2,1.5V16h-1.1v-4.3c0-0.6-0.1-1-0.4-1.2c-0.2-0.3-0.6-0.4-1.1-0.4c-0.3,0-0.7,0.1-1,0.3
					c-0.3,0.2-0.5,0.4-0.6,0.7c-0.1,0.3-0.2,0.7-0.2,1.2V16H-16.1z"/>
			</g>
		</g>
	</g>
</g>
</svg>
