<?xml version="1.0" encoding="utf-8"?>
<!-- Generator: Adobe Illustrator 26.0.2, SVG Export Plug-In . SVG Version: 6.00 Build 0)  -->
<svg version="1.1" id="Layer_1" xmlns="http://www.w3.org/2000/svg" xmlns:xlink="http://www.w3.org/1999/xlink" x="0px" y="0px"
	 viewBox="0 0 756 500" style="enable-background:new 0 0 756 500;" xml:space="preserve">
<style type="text/css">
	.st0{fill:#450256;}
	.st1{fill:#57BCD6;}
	.st2{fill:#333333;stroke:#444444;stroke-width:0.5;}
	.st3{enable-background:new    ;}
	.st4{fill:#333333;}
</style>
<path class="st0" d="M159,235.4c102.5,0,102.5,3.7,205,3.7v7.4c-102.5,0-102.5-3.7-205-3.7V235.4z"/>
<path class="st0" d="M159,194.5c102.5,0,102.5-25,205-25v7.4c-102.5,0-102.5,25-205,25V194.5z"/>
<path class="st1" d="M159,371.7c102.5,0,102.5,0,205,0v7.4c-102.5,0-102.5,0-205,0V371.7z"/>
<path class="st0" d="M159,202c102.5,0,102.5-25,205-25v3.7c-102.5,0-102.5,25-205,25V202z"/>
<path class="st1" d="M159,323.5c102.5,0,102.5-113.1,205-113.1v3.7c-102.5,0-102.5,113.1-205,113.1V323.5z"/>
<path class="st1" d="M374,169.5c102.5,0,102.5-16.6,205-16.6v2.5c-102.5,0-102.5,16.6-205,16.6V169.5z"/>
<path class="st1" d="M374,189.3c102.5,0,102.5,212.7,205,212.7v2.5c-102.5,0-102.5-212.7-205-212.7V189.3z"/>
<path class="st1" d="M374,184.4c102.5,0,102.5,170.4,205,170.4v2.5c-102.5,0-102.5-170.4-205-170.4V184.4z"/>
<path class="st0" d="M159,205.7c102.5,0,102.5-25,205-25v7.4c-102.5,0-102.5,25-205,25V205.7z"/>
<path class="st0" d="M374,172c102.5,0,102.5-16.6,205-16.6v7.4c-102.5,0-102.5,16.6-205,16.6V172z"/>
<path class="st0" d="M159,213.1c102.5,0,102.5-25,205-25v7.4c-102.5,0-102.5,25-205,25V213.1z"/>
<path class="st0" d="M159,150c102.5,0,102.5-50,205-50v7.4c-102.5,0-102.5,50-205,50V150z"/>
<path class="st0" d="M374,135.3c102.5,0,102.5,264.9,205,264.9v1.9c-102.5,0-102.5-264.9-205-264.9V135.3z"/>
<path class="st0" d="M374,133.4c102.5,0,102.5,219.5,205,219.5v1.9c-102.5,0-102.5-219.5-205-219.5V133.4z"/>
<path class="st0" d="M374,126c102.5,0,102.5,135.5,205,135.5v1.9c-102.5,0-102.5-135.5-205-135.5V126z"/>
<path class="st0" d="M374,131.6c102.5,0,102.5,185.9,205,185.9v1.9c-102.5,0-102.5-185.9-205-185.9V131.6z"/>
<path class="st0" d="M159,279.9c102.5,0,102.5,73.3,205,73.3v3.7c-102.5,0-102.5-73.3-205-73.3V279.9z"/>
<path class="st1" d="M159,379.2c102.5,0,102.5,0,205,0v3.7c-102.5,0-102.5,0-205,0V379.2z"/>
<path class="st1" d="M374,353.2c102.5,0,102.5-153.8,205-153.8v3.7c-102.5,0-102.5,153.8-205,153.8V353.2z"/>
<path class="st1" d="M374,401.4c102.5,0,102.5-33.7,205-33.7v3.7c-102.5,0-102.5,33.7-205,33.7V401.4z"/>
<path class="st1" d="M159,382.9c102.5,0,102.5,0,205,0v7.4c-102.5,0-102.5,0-205,0V382.9z"/>
<path class="st1" d="M374,356.9c102.5,0,102.5-153.8,205-153.8v3.7c-102.5,0-102.5,153.8-205,153.8V356.9z"/>
<path class="st1" d="M374,390.3c102.5,0,102.5-105.3,205-105.3v3.7C476.5,288.7,476.5,394,374,394V390.3z"/>
<path class="st0" d="M159,283.6c102.5,0,102.5,73.3,205,73.3v3.7c-102.5,0-102.5-73.3-205-73.3V283.6z"/>
<path class="st1" d="M159,390.3c102.5,0,102.5,0,205,0v3.7c-102.5,0-102.5,0-205,0V390.3z"/>
<path class="st1" d="M374,360.6c102.5,0,102.5-153.8,205-153.8v3.7c-102.5,0-102.5,153.8-205,153.8V360.6z"/>
<path class="st1" d="M374,405.2c102.5,0,102.5-33.7,205-33.7v3.7c-102.5,0-102.5,33.7-205,33.7V405.2z"/>
<path class="st0" d="M159,242.8c102.5,0,102.5,3.7,205,3.7v7.4c-102.5,0-102.5-3.7-205-3.7V242.8z"/>
<path class="st0" d="M374,239.1c102.5,0,102.5-73.8,205-73.8v3.7c-102.5,0-102.5,73.8-205,73.8V239.1z"/>
<path class="st0" d="M374,301.6c102.5,0,102.5,103,205,103v3.7c-102.5,0-102.5-103-205-103V301.6z"/>
<path class="st0" d="M159,157.4c102.5,0,102.5-50,205-50v7.4c-102.5,0-102.5,50-205,50V157.4z"/>
<path class="st0" d="M374,100c102.5,0,102.5,27,205,27v7.4c-102.5,0-102.5-27-205-27V100z"/>
<path class="st0" d="M159,164.8c102.5,0,102.5-50,205-50v7.4c-102.5,0-102.5,50-205,50V164.8z"/>
<path class="st0" d="M374,107.4c102.5,0,102.5,27,205,27v7.4c-102.5,0-102.5-27-205-27V107.4z"/>
<path class="st1" d="M159,327.2c102.5,0,102.5-43.6,205-43.6v7.4c-102.5,0-102.5,43.6-205,43.6V327.2z"/>
<path class="st1" d="M374,242.8c102.5,0,102.5-73.8,205-73.8v2.5c-102.5,0-102.5,73.8-205,73.8V242.8z"/>
<path class="st1" d="M374,293.5c102.5,0,102.5,66.2,205,66.2v2.5c-102.5,0-102.5-66.2-205-66.2V293.5z"/>
<path class="st1" d="M374,273.1c102.5,0,102.5-6.1,205-6.1v2.5c-102.5,0-102.5,6.1-205,6.1V273.1z"/>
<path class="st1" d="M159,394c102.5,0,102.5,0,205,0v7.4c-102.5,0-102.5,0-205,0V394z"/>
<path class="st1" d="M374,364.3c102.5,0,102.5-153.8,205-153.8v3.7C476.5,214.2,476.5,368,374,368V364.3z"/>
<path class="st1" d="M374,397.7c102.5,0,102.5-73.5,205-73.5v3.7c-102.5,0-102.5,73.5-205,73.5V397.7z"/>
<path class="st0" d="M159,287.3c102.5,0,102.5,73.3,205,73.3v3.7c-102.5,0-102.5-73.3-205-73.3V287.3z"/>
<path class="st1" d="M159,401.4c102.5,0,102.5,0,205,0v3.7c-102.5,0-102.5,0-205,0V401.4z"/>
<path class="st1" d="M374,368c102.5,0,102.5-153.8,205-153.8v7.4c-102.5,0-102.5,153.8-205,153.8V368z"/>
<path class="st1" d="M159,405.2c102.5,0,102.5,0,205,0v7.4c-102.5,0-102.5,0-205,0V405.2z"/>
<path class="st1" d="M374,408.9c102.5,0,102.5,7.4,205,7.4v3.7c-102.5,0-102.5-7.4-205-7.4V408.9z"/>
<path class="st1" d="M374,394c102.5,0,102.5-105.3,205-105.3v3.7c-102.5,0-102.5,105.3-205,105.3V394z"/>
<path class="st0" d="M159,172.3c102.5,0,102.5-50,205-50v7.4c-102.5,0-102.5,50-205,50V172.3z"/>
<path class="st0" d="M159,291.1c102.5,0,102.5,73.3,205,73.3v7.4c-102.5,0-102.5-73.3-205-73.3V291.1z"/>
<path class="st0" d="M374,375.5c102.5,0,102.5-153.8,205-153.8v7.4c-102.5,0-102.5,153.8-205,153.8V375.5z"/>
<path class="st1" d="M159,334.6c102.5,0,102.5-43.6,205-43.6v7.4c-102.5,0-102.5,43.6-205,43.6V334.6z"/>
<path class="st1" d="M374,245.3c102.5,0,102.5-73.8,205-73.8v3.7c-102.5,0-102.5,73.8-205,73.8V245.3z"/>
<path class="st1" d="M374,275.6c102.5,0,102.5-6.1,205-6.1v3.7c-102.5,0-102.5,6.1-205,6.1V275.6z"/>
<path class="st0" d="M159,250.2c102.5,0,102.5,3.7,205,3.7v7.4c-102.5,0-102.5-3.7-205-3.7V250.2z"/>
<path class="st0" d="M374,249c102.5,0,102.5-73.8,205-73.8v3.7c-102.5,0-102.5,73.8-205,73.8V249z"/>
<path class="st0" d="M374,296c102.5,0,102.5,66.2,205,66.2v3.7c-102.5,0-102.5-66.2-205-66.2V296z"/>
<path class="st0" d="M159,257.7c102.5,0,102.5,3.7,205,3.7v7.4c-102.5,0-102.5-3.7-205-3.7V257.7z"/>
<path class="st0" d="M374,252.7c102.5,0,102.5-73.8,205-73.8v7.4c-102.5,0-102.5,73.8-205,73.8V252.7z"/>
<path class="st0" d="M159,179.7c102.5,0,102.5-50,205-50v7.4c-102.5,0-102.5,50-205,50V179.7z"/>
<path class="st0" d="M374,114.8c102.5,0,102.5,27,205,27v7.4c-102.5,0-102.5-27-205-27V114.8z"/>
<path class="st0" d="M159,187.1c102.5,0,102.5-50,205-50v7.4c-102.5,0-102.5,50-205,50V187.1z"/>
<path class="st0" d="M374,122.3c102.5,0,102.5,27,205,27v3.7c-102.5,0-102.5-27-205-27V122.3z"/>
<path class="st0" d="M374,127.8c102.5,0,102.5,135.5,205,135.5v3.7c-102.5,0-102.5-135.5-205-135.5V127.8z"/>
<path class="st1" d="M159,342c102.5,0,102.5-43.6,205-43.6v7.4c-102.5,0-102.5,43.6-205,43.6V342z"/>
<path class="st1" d="M374,279.3c102.5,0,102.5-6.1,205-6.1v7.4c-102.5,0-102.5,6.1-205,6.1V279.3z"/>
<path class="st1" d="M159,412.6c102.5,0,102.5,0,205,0v7.4c-102.5,0-102.5,0-205,0V412.6z"/>
<path class="st1" d="M374,382.9c102.5,0,102.5-153.8,205-153.8v7.4c-102.5,0-102.5,153.8-205,153.8V382.9z"/>
<path class="st1" d="M159,349.5c102.5,0,102.5-43.6,205-43.6v7.4c-102.5,0-102.5,43.6-205,43.6V349.5z"/>
<path class="st1" d="M374,260.1c102.5,0,102.5-73.8,205-73.8v1.9c-102.5,0-102.5,73.8-205,73.8V260.1z"/>
<path class="st1" d="M374,305.3c102.5,0,102.5,103,205,103v1.9c-102.5,0-102.5-103-205-103V305.3z"/>
<path class="st1" d="M374,299.7c102.5,0,102.5,66.2,205,66.2v1.9c-102.5,0-102.5-66.2-205-66.2V299.7z"/>
<path class="st1" d="M374,286.7c102.5,0,102.5-6.1,205-6.1v1.9c-102.5,0-102.5,6.1-205,6.1V286.7z"/>
<path class="st1" d="M159,356.9c102.5,0,102.5-43.6,205-43.6v7.4c-102.5,0-102.5,43.6-205,43.6V356.9z"/>
<path class="st1" d="M374,262c102.5,0,102.5-73.8,205-73.8v7.4c-102.5,0-102.5,73.8-205,73.8V262z"/>
<path class="st0" d="M159,265.1c102.5,0,102.5,3.7,205,3.7v7.4c-102.5,0-102.5-3.7-205-3.7V265.1z"/>
<path class="st0" d="M159,220.5c102.5,0,102.5-25,205-25v7.4c-102.5,0-102.5,25-205,25V220.5z"/>
<path class="st0" d="M159,272.5c102.5,0,102.5,3.7,205,3.7v7.4c-102.5,0-102.5-3.7-205-3.7V272.5z"/>
<path class="st0" d="M374,307.1c102.5,0,102.5,103,205,103v2.5c-102.5,0-102.5-103-205-103V307.1z"/>
<path class="st0" d="M374,288.6c102.5,0,102.5-6.1,205-6.1v2.5c-102.5,0-102.5,6.1-205,6.1V288.6z"/>
<path class="st0" d="M374,291.1c102.5,0,102.5,30.7,205,30.7v2.5c-102.5,0-102.5-30.7-205-30.7V291.1z"/>
<path class="st0" d="M159,228c102.5,0,102.5-25,205-25v7.4c-102.5,0-102.5,25-205,25V228z"/>
<path class="st0" d="M374,179.4c102.5,0,102.5-16.6,205-16.6v2.5c-102.5,0-102.5,16.6-205,16.6V179.4z"/>
<path class="st0" d="M374,186.9c102.5,0,102.5,170.4,205,170.4v2.5c-102.5,0-102.5-170.4-205-170.4V186.9z"/>
<path class="st0" d="M374,181.9c102.5,0,102.5,137.3,205,137.3v2.5c-102.5,0-102.5-137.3-205-137.3V181.9z"/>
<path class="st1" d="M159,364.3c102.5,0,102.5-43.6,205-43.6v7.4c-102.5,0-102.5,43.6-205,43.6V364.3z"/>
<path class="st1" d="M374,269.4c102.5,0,102.5-73.8,205-73.8v3.7c-102.5,0-102.5,73.8-205,73.8V269.4z"/>
<path class="st1" d="M374,309.6c102.5,0,102.5,103,205,103v3.7c-102.5,0-102.5-103-205-103V309.6z"/>
<rect x="364" y="239.1" class="st2" width="10" height="89.1"/>
<g class="st3">
	<path class="st4" d="M363.1,236.2v-6.7h1v1c0.3-0.5,0.5-0.8,0.7-0.9c0.2-0.2,0.5-0.2,0.7-0.2c0.4,0,0.8,0.1,1.2,0.4l-0.4,1.1
		c-0.3-0.2-0.6-0.2-0.8-0.2c-0.2,0-0.5,0.1-0.7,0.2s-0.3,0.4-0.4,0.6c-0.1,0.4-0.2,0.9-0.2,1.3v3.5H363.1z"/>
	<path class="st4" d="M371.9,236.2v-1c-0.5,0.8-1.2,1.1-2.1,1.1c-0.4,0-0.8-0.1-1.1-0.2c-0.3-0.2-0.6-0.3-0.8-0.6
		c-0.2-0.2-0.3-0.5-0.4-0.8c0-0.2-0.1-0.6-0.1-1.1v-4.2h1.1v3.7c0,0.6,0,1,0.1,1.2c0.1,0.3,0.2,0.5,0.5,0.7c0.2,0.2,0.5,0.3,0.9,0.3
		s0.7-0.1,1-0.3s0.5-0.4,0.6-0.7c0.1-0.3,0.2-0.7,0.2-1.3v-3.6h1.1v6.7H371.9z"/>
	<path class="st4" d="M374.6,236.2v-9.3h1.1v9.3H374.6z"/>
	<path class="st4" d="M382.2,234l1.2,0.1c-0.2,0.7-0.5,1.2-1,1.6c-0.5,0.4-1.1,0.6-1.9,0.6c-1,0-1.8-0.3-2.3-0.9
		c-0.6-0.6-0.9-1.5-0.9-2.6c0-1.1,0.3-2,0.9-2.6s1.3-0.9,2.3-0.9c0.9,0,1.6,0.3,2.2,0.9c0.6,0.6,0.9,1.5,0.9,2.6c0,0.1,0,0.2,0,0.3
		h-5c0,0.7,0.3,1.3,0.6,1.7c0.4,0.4,0.8,0.6,1.4,0.6c0.4,0,0.8-0.1,1.1-0.3C381.8,234.8,382,234.5,382.2,234z M378.4,232.2h3.8
		c-0.1-0.6-0.2-1-0.4-1.3c-0.4-0.4-0.8-0.7-1.4-0.7c-0.5,0-1,0.2-1.3,0.5C378.7,231.1,378.5,231.6,378.4,232.2z"/>
	<path class="st4" d="M384.3,234.2l1.1-0.2c0.1,0.5,0.2,0.8,0.5,1c0.3,0.2,0.7,0.4,1.2,0.4c0.5,0,0.9-0.1,1.2-0.3s0.4-0.5,0.4-0.8
		c0-0.3-0.1-0.5-0.3-0.6c-0.2-0.1-0.5-0.2-1.2-0.4c-0.8-0.2-1.4-0.4-1.7-0.5c-0.3-0.2-0.6-0.4-0.7-0.6c-0.2-0.3-0.2-0.6-0.2-0.9
		c0-0.3,0.1-0.6,0.2-0.8c0.1-0.3,0.3-0.5,0.6-0.6c0.2-0.1,0.4-0.2,0.7-0.3c0.3-0.1,0.6-0.1,1-0.1c0.5,0,1,0.1,1.4,0.2
		s0.7,0.4,0.9,0.6c0.2,0.3,0.3,0.6,0.4,1l-1.1,0.2c-0.1-0.3-0.2-0.6-0.4-0.8c-0.2-0.2-0.6-0.3-1-0.3c-0.5,0-0.9,0.1-1.1,0.3
		c-0.2,0.2-0.3,0.4-0.3,0.6c0,0.1,0,0.3,0.1,0.4c0.1,0.1,0.2,0.2,0.4,0.3c0.1,0,0.5,0.1,1,0.3c0.8,0.2,1.4,0.4,1.7,0.5
		c0.3,0.1,0.6,0.3,0.8,0.6c0.2,0.3,0.3,0.6,0.3,1c0,0.4-0.1,0.7-0.3,1.1c-0.2,0.3-0.5,0.6-1,0.8c-0.4,0.2-0.9,0.3-1.4,0.3
		c-0.9,0-1.5-0.2-2-0.5C384.7,235.4,384.5,234.9,384.3,234.2z"/>
</g>
<rect x="364" y="353.2" class="st2" width="10" height="66.8"/>
<g class="st3">
	<path class="st4" d="M363.1,348.1v-9.3h1.1v9.3H363.1z"/>
	<path class="st4" d="M365.6,344.8c0-1.2,0.3-2.2,1-2.8c0.6-0.5,1.3-0.7,2.1-0.7c0.9,0,1.7,0.3,2.3,0.9c0.6,0.6,0.9,1.4,0.9,2.5
		c0,0.9-0.1,1.5-0.4,2c-0.3,0.5-0.6,0.9-1.1,1.2c-0.5,0.3-1,0.4-1.6,0.4c-0.9,0-1.7-0.3-2.3-0.9
		C365.9,346.8,365.6,345.9,365.6,344.8z M366.7,344.8c0,0.9,0.2,1.5,0.6,1.9s0.9,0.6,1.4,0.6c0.6,0,1-0.2,1.4-0.6
		c0.4-0.4,0.6-1.1,0.6-2c0-0.8-0.2-1.5-0.6-1.9c-0.4-0.4-0.8-0.6-1.4-0.6c-0.6,0-1,0.2-1.4,0.6S366.7,343.9,366.7,344.8z"/>
	<path class="st4" d="M373,348.7l1.1,0.2c0,0.3,0.2,0.6,0.4,0.7c0.3,0.2,0.7,0.3,1.2,0.3c0.5,0,0.9-0.1,1.2-0.3
		c0.3-0.2,0.5-0.5,0.6-0.9c0.1-0.2,0.1-0.7,0.1-1.5c-0.5,0.6-1.1,0.9-1.9,0.9c-0.9,0-1.6-0.3-2.2-1c-0.5-0.7-0.8-1.5-0.8-2.4
		c0-0.6,0.1-1.2,0.3-1.8c0.2-0.5,0.6-1,1-1.3c0.4-0.3,1-0.4,1.6-0.4c0.8,0,1.5,0.3,2,1v-0.8h1.1v5.8c0,1.1-0.1,1.8-0.3,2.2
		c-0.2,0.4-0.6,0.8-1,1c-0.5,0.3-1,0.4-1.7,0.4c-0.8,0-1.5-0.2-1.9-0.5C373.2,350,373,349.4,373,348.7z M374,344.7
		c0,0.9,0.2,1.5,0.5,1.9s0.8,0.6,1.3,0.6c0.5,0,1-0.2,1.3-0.6s0.5-1,0.5-1.9c0-0.8-0.2-1.4-0.5-1.9c-0.4-0.4-0.8-0.6-1.3-0.6
		c-0.5,0-0.9,0.2-1.3,0.6S374,343.8,374,344.7z"/>
	<path class="st4" d="M380.5,340.1v-1.3h1.1v1.3H380.5z M380.5,348.1v-6.7h1.1v6.7H380.5z"/>
	<path class="st4" d="M387.7,345.7l1.1,0.1c-0.1,0.8-0.4,1.4-0.9,1.8c-0.5,0.4-1.1,0.7-1.9,0.7c-0.9,0-1.7-0.3-2.2-0.9
		c-0.6-0.6-0.8-1.5-0.8-2.6c0-0.7,0.1-1.4,0.4-1.9c0.2-0.5,0.6-1,1.1-1.2c0.5-0.3,1-0.4,1.6-0.4c0.7,0,1.3,0.2,1.8,0.6
		c0.5,0.4,0.8,0.9,0.9,1.6l-1.1,0.2c-0.1-0.5-0.3-0.8-0.6-1s-0.6-0.3-1-0.3c-0.6,0-1,0.2-1.4,0.6c-0.4,0.4-0.5,1.1-0.5,2
		c0,0.9,0.2,1.6,0.5,2c0.3,0.4,0.8,0.6,1.4,0.6c0.4,0,0.8-0.1,1.1-0.4S387.7,346.2,387.7,345.7z"/>
</g>
<rect x="364" y="169.5" class="st2" width="10" height="44.5"/>
<g class="st3">
	<path class="st4" d="M363.4,165.4v-5.9h-1v-0.9h1v-0.7c0-0.5,0-0.8,0.1-1c0.1-0.3,0.3-0.5,0.6-0.7c0.3-0.2,0.7-0.3,1.2-0.3
		c0.3,0,0.7,0,1.1,0.1l-0.2,1c-0.2,0-0.5-0.1-0.7-0.1c-0.3,0-0.6,0.1-0.7,0.2c-0.1,0.1-0.2,0.4-0.2,0.8v0.6h1.3v0.9h-1.3v5.9H363.4z
		"/>
	<path class="st4" d="M366.7,165.4v-6.7h1v1c0.3-0.5,0.5-0.8,0.7-0.9c0.2-0.2,0.5-0.2,0.7-0.2c0.4,0,0.8,0.1,1.2,0.4l-0.4,1.1
		c-0.3-0.2-0.6-0.2-0.8-0.2c-0.2,0-0.5,0.1-0.7,0.2s-0.3,0.4-0.4,0.6c-0.1,0.4-0.2,0.9-0.2,1.3v3.5H366.7z"/>
	<path class="st4" d="M375.4,164.5c-0.4,0.4-0.8,0.6-1.2,0.8c-0.4,0.1-0.8,0.2-1.3,0.2c-0.7,0-1.3-0.2-1.7-0.5
		c-0.4-0.4-0.6-0.8-0.6-1.4c0-0.3,0.1-0.6,0.2-0.9c0.1-0.3,0.3-0.5,0.6-0.7c0.2-0.2,0.5-0.3,0.8-0.4c0.2-0.1,0.6-0.1,1-0.2
		c0.9-0.1,1.6-0.2,2-0.4c0-0.2,0-0.3,0-0.3c0-0.5-0.1-0.8-0.3-1c-0.3-0.3-0.7-0.4-1.3-0.4c-0.5,0-0.9,0.1-1.2,0.3s-0.4,0.5-0.6,1
		l-1.1-0.2c0.1-0.5,0.3-0.9,0.5-1.2c0.2-0.3,0.6-0.5,1-0.7c0.4-0.2,1-0.2,1.5-0.2c0.6,0,1,0.1,1.4,0.2s0.6,0.3,0.8,0.5
		c0.2,0.2,0.3,0.5,0.4,0.8c0,0.2,0.1,0.5,0.1,1.1v1.5c0,1.1,0,1.7,0.1,2s0.1,0.6,0.3,0.8h-1.2C375.6,165.1,375.5,164.9,375.4,164.5z
		 M375.4,162c-0.4,0.2-1,0.3-1.9,0.4c-0.5,0.1-0.8,0.1-1,0.2c-0.2,0.1-0.3,0.2-0.5,0.4s-0.2,0.3-0.2,0.5c0,0.3,0.1,0.6,0.3,0.8
		c0.2,0.2,0.6,0.3,1,0.3c0.4,0,0.8-0.1,1.2-0.3s0.6-0.5,0.8-0.8c0.1-0.3,0.2-0.6,0.2-1.1V162z"/>
	<path class="st4" d="M378.3,165.4v-6.7h1v0.9c0.2-0.3,0.5-0.6,0.8-0.8c0.4-0.2,0.8-0.3,1.2-0.3c0.5,0,0.9,0.1,1.2,0.3
		c0.3,0.2,0.5,0.5,0.7,0.9c0.5-0.8,1.2-1.2,2.1-1.2c0.7,0,1.2,0.2,1.5,0.6c0.4,0.4,0.5,0.9,0.5,1.7v4.6h-1.1v-4.2c0-0.5,0-0.8-0.1-1
		c-0.1-0.2-0.2-0.4-0.4-0.5c-0.2-0.1-0.4-0.2-0.7-0.2c-0.5,0-0.9,0.2-1.2,0.5s-0.5,0.8-0.5,1.5v3.9h-1.1V161c0-0.5-0.1-0.9-0.3-1.1
		s-0.5-0.4-0.9-0.4c-0.3,0-0.6,0.1-0.9,0.3c-0.3,0.2-0.5,0.4-0.6,0.7c-0.1,0.3-0.2,0.8-0.2,1.4v3.5H378.3z"/>
	<path class="st4" d="M393.7,163.2l1.2,0.1c-0.2,0.7-0.5,1.2-1,1.6c-0.5,0.4-1.1,0.6-1.9,0.6c-1,0-1.8-0.3-2.3-0.9
		c-0.6-0.6-0.9-1.5-0.9-2.6c0-1.1,0.3-2,0.9-2.6s1.3-0.9,2.3-0.9c0.9,0,1.6,0.3,2.2,0.9c0.6,0.6,0.9,1.5,0.9,2.6c0,0.1,0,0.2,0,0.3
		h-5c0,0.7,0.3,1.3,0.6,1.7c0.4,0.4,0.8,0.6,1.4,0.6c0.4,0,0.8-0.1,1.1-0.3C393.3,164,393.5,163.7,393.7,163.2z M390,161.4h3.8
		c-0.1-0.6-0.2-1-0.4-1.3c-0.4-0.4-0.8-0.7-1.4-0.7c-0.5,0-1,0.2-1.3,0.5C390.2,160.3,390,160.8,390,161.4z"/>
	<path class="st4" d="M395.9,163.4l1.1-0.2c0.1,0.5,0.2,0.8,0.5,1c0.3,0.2,0.7,0.4,1.2,0.4c0.5,0,0.9-0.1,1.2-0.3s0.4-0.5,0.4-0.8
		c0-0.3-0.1-0.5-0.3-0.6c-0.2-0.1-0.5-0.2-1.2-0.4c-0.8-0.2-1.4-0.4-1.7-0.5c-0.3-0.2-0.6-0.4-0.7-0.6c-0.2-0.3-0.2-0.6-0.2-0.9
		c0-0.3,0.1-0.6,0.2-0.8c0.1-0.3,0.3-0.5,0.6-0.6c0.2-0.1,0.4-0.2,0.7-0.3c0.3-0.1,0.6-0.1,1-0.1c0.5,0,1,0.1,1.4,0.2
		s0.7,0.4,0.9,0.6c0.2,0.3,0.3,0.6,0.4,1l-1.1,0.2c-0.1-0.3-0.2-0.6-0.4-0.8c-0.2-0.2-0.6-0.3-1-0.3c-0.5,0-0.9,0.1-1.1,0.3
		c-0.2,0.2-0.3,0.4-0.3,0.6c0,0.1,0,0.3,0.1,0.4c0.1,0.1,0.2,0.2,0.4,0.3c0.1,0,0.5,0.1,1,0.3c0.8,0.2,1.4,0.4,1.7,0.5
		c0.3,0.1,0.6,0.3,0.8,0.6c0.2,0.3,0.3,0.6,0.3,1c0,0.4-0.1,0.7-0.3,1.1c-0.2,0.3-0.5,0.6-1,0.8c-0.4,0.2-0.9,0.3-1.4,0.3
		c-0.9,0-1.5-0.2-2-0.5C396.3,164.6,396,164.1,395.9,163.4z"/>
</g>
<rect x="364" y="100" class="st2" width="10" height="44.5"/>
<g class="st3">
	<path class="st4" d="M362.6,93.8l1.1-0.2c0.1,0.5,0.2,0.8,0.5,1c0.3,0.2,0.7,0.4,1.2,0.4c0.5,0,0.9-0.1,1.2-0.3s0.4-0.5,0.4-0.8
		c0-0.3-0.1-0.5-0.3-0.6c-0.2-0.1-0.5-0.2-1.2-0.4c-0.8-0.2-1.4-0.4-1.7-0.5c-0.3-0.2-0.6-0.4-0.7-0.6c-0.2-0.3-0.3-0.6-0.3-0.9
		c0-0.3,0.1-0.6,0.2-0.8c0.1-0.3,0.3-0.5,0.6-0.6c0.2-0.1,0.4-0.2,0.7-0.3c0.3-0.1,0.6-0.1,1-0.1c0.5,0,1,0.1,1.4,0.2
		c0.4,0.2,0.7,0.4,0.9,0.6c0.2,0.3,0.3,0.6,0.4,1l-1.1,0.2c-0.1-0.3-0.2-0.6-0.4-0.8c-0.2-0.2-0.6-0.3-1-0.3c-0.5,0-0.9,0.1-1.1,0.3
		c-0.2,0.2-0.3,0.4-0.3,0.6c0,0.1,0,0.3,0.1,0.4c0.1,0.1,0.2,0.2,0.4,0.3c0.1,0,0.5,0.1,1,0.3c0.8,0.2,1.4,0.4,1.7,0.5
		c0.3,0.1,0.6,0.3,0.8,0.6s0.3,0.6,0.3,1c0,0.4-0.1,0.7-0.3,1.1c-0.2,0.3-0.5,0.6-1,0.8c-0.4,0.2-0.9,0.3-1.4,0.3
		c-0.9,0-1.5-0.2-2-0.5C363.1,95.1,362.8,94.5,362.6,93.8z"/>
	<path class="st4" d="M374.2,93.7l1.2,0.1c-0.2,0.7-0.5,1.2-1,1.6c-0.5,0.4-1.1,0.6-1.9,0.6c-1,0-1.8-0.3-2.3-0.9
		c-0.6-0.6-0.9-1.5-0.9-2.6c0-1.1,0.3-2,0.9-2.6c0.6-0.6,1.3-0.9,2.3-0.9c0.9,0,1.6,0.3,2.2,0.9c0.6,0.6,0.9,1.5,0.9,2.6
		c0,0.1,0,0.2,0,0.3h-5c0,0.7,0.3,1.3,0.6,1.7c0.4,0.4,0.8,0.6,1.4,0.6c0.4,0,0.8-0.1,1.1-0.3C373.8,94.5,374,94.1,374.2,93.7z
		 M370.5,91.8h3.8c-0.1-0.6-0.2-1-0.4-1.3c-0.4-0.4-0.8-0.7-1.4-0.7c-0.5,0-1,0.2-1.3,0.5C370.7,90.7,370.5,91.2,370.5,91.8z"/>
	<path class="st4" d="M376.8,95.8v-6.7h1V90c0.2-0.3,0.5-0.6,0.8-0.8s0.8-0.3,1.2-0.3c0.5,0,0.9,0.1,1.2,0.3
		c0.3,0.2,0.5,0.5,0.7,0.9c0.5-0.8,1.2-1.2,2.1-1.2c0.7,0,1.2,0.2,1.5,0.6s0.5,0.9,0.5,1.7v4.6h-1.1v-4.2c0-0.5,0-0.8-0.1-1
		c-0.1-0.2-0.2-0.4-0.4-0.5c-0.2-0.1-0.4-0.2-0.7-0.2c-0.5,0-0.9,0.2-1.2,0.5c-0.3,0.3-0.5,0.8-0.5,1.5v3.9h-1.1v-4.4
		c0-0.5-0.1-0.9-0.3-1.1c-0.2-0.3-0.5-0.4-0.9-0.4c-0.3,0-0.6,0.1-0.9,0.3c-0.3,0.2-0.5,0.4-0.6,0.7c-0.1,0.3-0.2,0.8-0.2,1.4v3.5
		H376.8z"/>
	<path class="st4" d="M392.1,95c-0.4,0.4-0.8,0.6-1.2,0.8c-0.4,0.1-0.8,0.2-1.3,0.2c-0.7,0-1.3-0.2-1.7-0.5
		c-0.4-0.4-0.6-0.8-0.6-1.4c0-0.3,0.1-0.6,0.2-0.9c0.2-0.3,0.3-0.5,0.6-0.7c0.2-0.2,0.5-0.3,0.8-0.4c0.2-0.1,0.6-0.1,1-0.2
		c0.9-0.1,1.6-0.2,2-0.4c0-0.2,0-0.3,0-0.3c0-0.5-0.1-0.8-0.3-1c-0.3-0.3-0.7-0.4-1.3-0.4c-0.5,0-0.9,0.1-1.2,0.3
		c-0.3,0.2-0.4,0.5-0.6,1l-1.1-0.2c0.1-0.5,0.3-0.9,0.5-1.2c0.2-0.3,0.6-0.5,1-0.7c0.4-0.2,1-0.2,1.5-0.2c0.6,0,1,0.1,1.4,0.2
		s0.6,0.3,0.8,0.5c0.2,0.2,0.3,0.5,0.4,0.8c0,0.2,0.1,0.5,0.1,1.1V93c0,1.1,0,1.7,0.1,2c0,0.3,0.1,0.6,0.3,0.8h-1.2
		C392.2,95.6,392.1,95.3,392.1,95z M392,92.4c-0.4,0.2-1,0.3-1.9,0.4c-0.5,0.1-0.8,0.1-1,0.2c-0.2,0.1-0.3,0.2-0.5,0.4
		s-0.2,0.3-0.2,0.5c0,0.3,0.1,0.6,0.3,0.8s0.6,0.3,1,0.3c0.4,0,0.8-0.1,1.2-0.3s0.6-0.5,0.8-0.8c0.1-0.3,0.2-0.6,0.2-1.1V92.4z"/>
	<path class="st4" d="M394.9,95.8v-6.7h1v1c0.5-0.7,1.2-1.1,2.1-1.1c0.4,0,0.8,0.1,1.1,0.2c0.3,0.1,0.6,0.3,0.8,0.6
		c0.2,0.2,0.3,0.5,0.4,0.8c0,0.2,0.1,0.6,0.1,1.1v4.1h-1.1v-4.1c0-0.5,0-0.8-0.1-1c-0.1-0.2-0.2-0.4-0.5-0.6s-0.5-0.2-0.8-0.2
		c-0.5,0-0.9,0.2-1.3,0.5c-0.4,0.3-0.5,0.9-0.5,1.8v3.7H394.9z"/>
	<path class="st4" d="M404.6,94.8l0.2,1c-0.3,0.1-0.6,0.1-0.9,0.1c-0.4,0-0.7-0.1-1-0.2c-0.2-0.1-0.4-0.3-0.5-0.5
		c-0.1-0.2-0.1-0.7-0.1-1.3V90h-0.8v-0.9h0.8v-1.7l1.1-0.7v2.4h1.1V90h-1.1v3.9c0,0.3,0,0.5,0.1,0.6c0,0.1,0.1,0.2,0.2,0.2
		c0.1,0.1,0.2,0.1,0.4,0.1C404.2,94.8,404.4,94.8,404.6,94.8z"/>
	<path class="st4" d="M405.7,87.8v-1.3h1.1v1.3H405.7z M405.7,95.8v-6.7h1.1v6.7H405.7z"/>
	<path class="st4" d="M413,93.4l1.1,0.1c-0.1,0.8-0.4,1.4-0.9,1.8c-0.5,0.4-1.1,0.7-1.9,0.7c-0.9,0-1.7-0.3-2.2-0.9
		c-0.6-0.6-0.8-1.5-0.8-2.6c0-0.7,0.1-1.4,0.4-1.9s0.6-1,1.1-1.2c0.5-0.3,1-0.4,1.6-0.4c0.7,0,1.3,0.2,1.8,0.6s0.8,0.9,0.9,1.6
		l-1.1,0.2c-0.1-0.5-0.3-0.8-0.6-1c-0.3-0.2-0.6-0.3-1-0.3c-0.6,0-1,0.2-1.4,0.6c-0.4,0.4-0.5,1.1-0.5,2c0,0.9,0.2,1.6,0.5,2
		c0.3,0.4,0.8,0.6,1.4,0.6c0.4,0,0.8-0.1,1.1-0.4C412.8,94.3,412.9,93.9,413,93.4z"/>
	<path class="st4" d="M418.7,95.8v-6.7h1v1c0.5-0.7,1.2-1.1,2.1-1.1c0.4,0,0.8,0.1,1.1,0.2c0.3,0.1,0.6,0.3,0.8,0.6
		c0.2,0.2,0.3,0.5,0.4,0.8c0,0.2,0.1,0.6,0.1,1.1v4.1h-1.1v-4.1c0-0.5,0-0.8-0.1-1c-0.1-0.2-0.2-0.4-0.5-0.6s-0.5-0.2-0.8-0.2
		c-0.5,0-0.9,0.2-1.3,0.5c-0.4,0.3-0.5,0.9-0.5,1.8v3.7H418.7z"/>
	<path class="st4" d="M430.6,93.7l1.2,0.1c-0.2,0.7-0.5,1.2-1,1.6s-1.1,0.6-1.9,0.6c-1,0-1.8-0.3-2.3-0.9s-0.9-1.5-0.9-2.6
		c0-1.1,0.3-2,0.9-2.6s1.3-0.9,2.3-0.9c0.9,0,1.6,0.3,2.2,0.9c0.6,0.6,0.9,1.5,0.9,2.6c0,0.1,0,0.2,0,0.3h-5c0,0.7,0.3,1.3,0.6,1.7
		c0.4,0.4,0.8,0.6,1.4,0.6c0.4,0,0.8-0.1,1.1-0.3S430.4,94.1,430.6,93.7z M426.8,91.8h3.8c-0.1-0.6-0.2-1-0.4-1.3
		c-0.4-0.4-0.8-0.7-1.4-0.7c-0.5,0-1,0.2-1.3,0.5C427.1,90.7,426.9,91.2,426.8,91.8z"/>
	<path class="st4" d="M435.7,94.8l0.2,1c-0.3,0.1-0.6,0.1-0.9,0.1c-0.4,0-0.7-0.1-1-0.2c-0.2-0.1-0.4-0.3-0.5-0.5s-0.1-0.7-0.1-1.3
		V90h-0.8v-0.9h0.8v-1.7l1.1-0.7v2.4h1.1V90h-1.1v3.9c0,0.3,0,0.5,0.1,0.6c0,0.1,0.1,0.2,0.2,0.2c0.1,0.1,0.2,0.1,0.4,0.1
		C435.3,94.8,435.5,94.8,435.7,94.8z"/>
	<path class="st4" d="M438.1,95.8l-2.1-6.7h1.2l1.1,3.9l0.4,1.4c0-0.1,0.1-0.5,0.3-1.4l1.1-3.9h1.2l1,3.9l0.3,1.3L443,93l1.2-3.9
		h1.1l-2.1,6.7h-1.2l-1.1-4l-0.3-1.1l-1.4,5.2H438.1z"/>
	<path class="st4" d="M445.8,92.5c0-1.2,0.3-2.2,1-2.8c0.6-0.5,1.3-0.7,2.1-0.7c0.9,0,1.7,0.3,2.3,0.9s0.9,1.4,0.9,2.5
		c0,0.9-0.1,1.5-0.4,2c-0.3,0.5-0.6,0.9-1.1,1.2c-0.5,0.3-1,0.4-1.6,0.4c-0.9,0-1.7-0.3-2.3-0.9C446.1,94.5,445.8,93.6,445.8,92.5z
		 M446.9,92.5c0,0.9,0.2,1.5,0.6,1.9s0.9,0.6,1.4,0.6c0.6,0,1-0.2,1.4-0.6c0.4-0.4,0.6-1.1,0.6-2c0-0.8-0.2-1.5-0.6-1.9
		s-0.8-0.6-1.4-0.6c-0.6,0-1,0.2-1.4,0.6S446.9,91.6,446.9,92.5z"/>
	<path class="st4" d="M453.4,95.8v-6.7h1v1c0.3-0.5,0.5-0.8,0.7-0.9s0.5-0.2,0.7-0.2c0.4,0,0.8,0.1,1.2,0.4l-0.4,1.1
		c-0.3-0.2-0.6-0.2-0.8-0.2c-0.2,0-0.5,0.1-0.7,0.2c-0.2,0.2-0.3,0.4-0.4,0.6c-0.1,0.4-0.2,0.9-0.2,1.3v3.5H453.4z"/>
	<path class="st4" d="M457.8,95.8v-9.3h1.1v5.3l2.7-2.7h1.5l-2.6,2.5l2.8,4.2h-1.4l-2.2-3.4l-0.8,0.8v2.7H457.8z"/>
</g>
<rect x="149" y="150" class="st2" width="10" height="148.5"/>
<g class="st3">
	<path class="st4" d="M96,197.8v-1.3h1.1v1.3H96z M96,205.8v-6.7h1.1v6.7H96z"/>
	<path class="st4" d="M98.9,205.8v-6.7h1v0.9c0.2-0.3,0.5-0.6,0.8-0.8s0.8-0.3,1.2-0.3c0.5,0,0.9,0.1,1.2,0.3
		c0.3,0.2,0.5,0.5,0.7,0.9c0.5-0.8,1.2-1.2,2.1-1.2c0.7,0,1.2,0.2,1.5,0.6s0.5,0.9,0.5,1.7v4.6h-1.1v-4.2c0-0.5,0-0.8-0.1-1
		c-0.1-0.2-0.2-0.4-0.4-0.5c-0.2-0.1-0.4-0.2-0.7-0.2c-0.5,0-0.9,0.2-1.2,0.5s-0.5,0.8-0.5,1.5v3.9h-1.1v-4.4c0-0.5-0.1-0.9-0.3-1.1
		s-0.5-0.4-0.9-0.4c-0.3,0-0.6,0.1-0.9,0.3c-0.3,0.2-0.5,0.4-0.6,0.7c-0.1,0.3-0.2,0.8-0.2,1.4v3.5H98.9z"/>
	<path class="st4" d="M109.7,208.4v-9.3h1v0.9c0.2-0.3,0.5-0.6,0.8-0.8c0.3-0.2,0.7-0.3,1.1-0.3c0.6,0,1.1,0.1,1.5,0.4
		s0.8,0.7,1,1.3c0.2,0.5,0.3,1.1,0.3,1.8c0,0.7-0.1,1.3-0.4,1.9c-0.2,0.6-0.6,1-1.1,1.3c-0.5,0.3-1,0.4-1.5,0.4
		c-0.4,0-0.7-0.1-1-0.2c-0.3-0.2-0.6-0.4-0.7-0.6v3.3H109.7z M110.8,202.5c0,0.9,0.2,1.5,0.5,1.9s0.8,0.6,1.3,0.6
		c0.5,0,0.9-0.2,1.3-0.6c0.4-0.4,0.5-1.1,0.5-2c0-0.9-0.2-1.5-0.5-1.9c-0.4-0.4-0.8-0.6-1.3-0.6c-0.5,0-0.9,0.2-1.3,0.7
		C111,200.9,110.8,201.6,110.8,202.5z"/>
	<path class="st4" d="M116.9,205.8v-9.3h1.1v9.3H116.9z"/>
	<path class="st4" d="M119.9,197.8v-1.3h1.1v1.3H119.9z M119.9,205.8v-6.7h1.1v6.7H119.9z"/>
	<path class="st4" d="M127.1,203.3l1.1,0.1c-0.1,0.8-0.4,1.4-0.9,1.8c-0.5,0.4-1.1,0.7-1.9,0.7c-0.9,0-1.7-0.3-2.2-0.9
		c-0.6-0.6-0.8-1.5-0.8-2.6c0-0.7,0.1-1.4,0.4-1.9s0.6-1,1.1-1.2c0.5-0.3,1-0.4,1.6-0.4c0.7,0,1.3,0.2,1.8,0.6s0.8,0.9,0.9,1.6
		l-1.1,0.2c-0.1-0.5-0.3-0.8-0.6-1c-0.3-0.2-0.6-0.3-1-0.3c-0.6,0-1,0.2-1.4,0.6c-0.4,0.4-0.5,1.1-0.5,2c0,0.9,0.2,1.6,0.5,2
		c0.3,0.4,0.8,0.6,1.4,0.6c0.4,0,0.8-0.1,1.1-0.4C126.9,204.3,127.1,203.9,127.1,203.3z"/>
	<path class="st4" d="M129.3,197.8v-1.3h1.1v1.3H129.3z M129.3,205.8v-6.7h1.1v6.7H129.3z"/>
	<path class="st4" d="M134.6,204.8l0.2,1c-0.3,0.1-0.6,0.1-0.9,0.1c-0.4,0-0.7-0.1-1-0.2c-0.2-0.1-0.4-0.3-0.5-0.5s-0.1-0.7-0.1-1.3
		v-3.9h-0.8v-0.9h0.8v-1.7l1.1-0.7v2.4h1.1v0.9h-1.1v3.9c0,0.3,0,0.5,0.1,0.6c0,0.1,0.1,0.2,0.2,0.2c0.1,0.1,0.2,0.1,0.4,0.1
		C134.3,204.8,134.4,204.8,134.6,204.8z"/>
	<path class="st4" d="M73.2,237l1.9-9.3h1.1l-1.2,5.8l3.4-3.2h1.5l-2.9,2.5l1.7,4.2h-1.3l-1.3-3.5l-1.4,1.2l-0.5,2.3H73.2z"/>
	<path class="st4" d="M79.7,237l1.4-6.7h1l-0.2,1.2c0.5-0.5,0.9-0.8,1.3-1s0.8-0.3,1.2-0.3c0.5,0,1,0.1,1.3,0.4
		c0.3,0.3,0.5,0.7,0.5,1.2c0,0.2-0.1,0.6-0.2,1.2l-0.9,4.1h-1.1l0.9-4.3c0.1-0.4,0.1-0.7,0.1-0.9c0-0.2-0.1-0.4-0.2-0.5
		c-0.2-0.1-0.4-0.2-0.7-0.2c-0.6,0-1.1,0.2-1.6,0.6c-0.5,0.4-0.8,1.1-1,2.2l-0.7,3.1H79.7z"/>
	<path class="st4" d="M87.1,234.4c0-1.3,0.4-2.4,1.2-3.3c0.6-0.7,1.5-1.1,2.5-1.1c0.8,0,1.5,0.3,2,0.8c0.5,0.5,0.7,1.2,0.7,2.1
		c0,0.8-0.2,1.5-0.5,2.2c-0.3,0.7-0.8,1.2-1.3,1.5c-0.6,0.4-1.2,0.5-1.8,0.5c-0.5,0-1-0.1-1.4-0.3c-0.4-0.2-0.8-0.5-1-1
		C87.2,235.4,87.1,235,87.1,234.4z M88.2,234.3c0,0.6,0.2,1.1,0.5,1.4s0.7,0.5,1.2,0.5c0.2,0,0.5,0,0.7-0.1s0.5-0.3,0.7-0.5
		s0.4-0.4,0.5-0.7c0.1-0.3,0.3-0.5,0.4-0.8c0.1-0.4,0.2-0.8,0.2-1.2c0-0.6-0.2-1.1-0.5-1.4c-0.3-0.3-0.7-0.5-1.2-0.5
		c-0.4,0-0.7,0.1-1,0.3c-0.3,0.2-0.6,0.4-0.8,0.8c-0.2,0.3-0.4,0.7-0.5,1.2C88.3,233.6,88.2,234,88.2,234.3z"/>
	<path class="st4" d="M95.4,237l-0.7-6.7h1.1l0.3,3l0.1,1.7c0,0.1,0,0.4,0,0.8c0.1-0.4,0.2-0.8,0.3-1s0.2-0.6,0.4-1l1.6-3.5h1.3
		l0.2,3.4c0,0.5,0.1,1.2,0.1,2.1c0.2-0.6,0.6-1.4,1-2.4l1.4-3.1h1.1l-3.3,6.7h-1.2l-0.3-4c0-0.2,0-0.7,0-1.4
		c-0.2,0.5-0.4,0.9-0.6,1.5l-1.8,3.9H95.4z"/>
	<path class="st4" d="M103.4,237l1.9-9.3h1.1l-1.9,9.3H103.4z"/>
	<path class="st4" d="M111.4,234.7l1.1,0.1c-0.2,0.6-0.5,1.1-1.1,1.6c-0.6,0.5-1.3,0.7-2.1,0.7c-0.5,0-1-0.1-1.4-0.3
		c-0.4-0.2-0.7-0.6-1-1c-0.2-0.4-0.3-0.9-0.3-1.5c0-0.7,0.2-1.5,0.5-2.1c0.3-0.7,0.8-1.2,1.3-1.5c0.5-0.3,1.1-0.5,1.8-0.5
		c0.8,0,1.4,0.2,1.9,0.7c0.5,0.5,0.7,1.2,0.7,2c0,0.3,0,0.7-0.1,1h-5c0,0.1,0,0.2,0,0.4c0,0.6,0.1,1.1,0.4,1.4
		c0.3,0.3,0.6,0.5,1.1,0.5c0.4,0,0.8-0.1,1.2-0.4C110.8,235.6,111.1,235.2,111.4,234.7z M108,233h3.8c0-0.1,0-0.2,0-0.3
		c0-0.6-0.1-1-0.4-1.3s-0.7-0.5-1.1-0.5c-0.5,0-0.9,0.2-1.3,0.5C108.5,231.8,108.2,232.4,108,233z"/>
	<path class="st4" d="M118.2,236c-0.7,0.8-1.3,1.1-2.1,1.1c-0.6,0-1.2-0.2-1.6-0.7c-0.4-0.5-0.6-1.2-0.6-2.1c0-0.8,0.2-1.6,0.5-2.2
		c0.3-0.7,0.8-1.2,1.3-1.5c0.5-0.3,1-0.5,1.5-0.5c0.8,0,1.5,0.4,1.9,1.2l0.8-3.6h1.1L119,237H118L118.2,236z M115,234.2
		c0,0.5,0,0.8,0.1,1.1s0.3,0.5,0.5,0.7s0.5,0.3,0.8,0.3c0.5,0,1-0.3,1.4-0.8c0.6-0.7,0.9-1.6,0.9-2.7c0-0.5-0.1-1-0.4-1.3
		s-0.6-0.5-1.1-0.5c-0.3,0-0.5,0.1-0.8,0.2c-0.2,0.1-0.5,0.3-0.7,0.6c-0.2,0.3-0.4,0.7-0.6,1.1C115.1,233.4,115,233.8,115,234.2z"/>
	<path class="st4" d="M120.8,237.6l1.2,0.1c0,0.3,0,0.5,0.1,0.6s0.2,0.2,0.3,0.3c0.2,0.1,0.5,0.1,0.8,0.1c0.7,0,1.2-0.2,1.5-0.5
		c0.2-0.2,0.4-0.8,0.6-1.6l0.1-0.5c-0.6,0.6-1.2,0.9-1.9,0.9c-0.7,0-1.3-0.3-1.7-0.8c-0.5-0.5-0.7-1.2-0.7-2.1
		c0-0.8,0.2-1.5,0.5-2.1c0.4-0.6,0.8-1.1,1.3-1.4c0.5-0.3,1-0.5,1.5-0.5c0.9,0,1.6,0.4,2,1.3l0.2-1.1h1.1l-1.4,6.5
		c-0.1,0.7-0.3,1.3-0.6,1.7c-0.2,0.4-0.6,0.7-1,0.9c-0.4,0.2-0.9,0.3-1.5,0.3c-0.5,0-1-0.1-1.4-0.2c-0.4-0.1-0.7-0.3-0.9-0.6
		c-0.2-0.3-0.3-0.6-0.3-0.9C120.8,237.8,120.8,237.7,120.8,237.6z M122.2,234c0,0.5,0,0.8,0.1,1c0.1,0.3,0.3,0.6,0.5,0.7
		c0.2,0.2,0.5,0.3,0.8,0.3c0.4,0,0.8-0.1,1.1-0.4s0.7-0.7,0.9-1.2c0.2-0.6,0.3-1.1,0.3-1.6c0-0.6-0.2-1-0.5-1.3
		c-0.3-0.3-0.7-0.5-1.1-0.5c-0.3,0-0.6,0.1-0.8,0.2s-0.5,0.4-0.7,0.7c-0.2,0.3-0.4,0.7-0.5,1.1C122.3,233.5,122.2,233.8,122.2,234z"
		/>
	<path class="st4" d="M133,234.7l1.1,0.1c-0.2,0.6-0.5,1.1-1.1,1.6c-0.6,0.5-1.3,0.7-2.1,0.7c-0.5,0-1-0.1-1.4-0.3
		c-0.4-0.2-0.7-0.6-1-1c-0.2-0.4-0.3-0.9-0.3-1.5c0-0.7,0.2-1.5,0.5-2.1c0.3-0.7,0.8-1.2,1.3-1.5c0.5-0.3,1.1-0.5,1.8-0.5
		c0.8,0,1.4,0.2,1.9,0.7c0.5,0.5,0.7,1.2,0.7,2c0,0.3,0,0.7-0.1,1h-5c0,0.1,0,0.2,0,0.4c0,0.6,0.1,1.1,0.4,1.4
		c0.3,0.3,0.6,0.5,1.1,0.5c0.4,0,0.8-0.1,1.2-0.4C132.5,235.6,132.8,235.2,133,234.7z M129.7,233h3.8c0-0.1,0-0.2,0-0.3
		c0-0.6-0.1-1-0.4-1.3s-0.7-0.5-1.1-0.5c-0.5,0-0.9,0.2-1.3,0.5C130.2,231.8,129.9,232.4,129.7,233z"/>
	<path class="st4" d="M60.8,252.6l1.4-6.7h1.1l-1.4,6.7H60.8z M62.5,244.6l0.3-1.3h1.1l-0.3,1.3H62.5z"/>
	<path class="st4" d="M63.9,250.3l1.1-0.1c0,0.3,0.1,0.6,0.2,0.8c0.1,0.2,0.3,0.4,0.6,0.6c0.3,0.1,0.6,0.2,1,0.2
		c0.5,0,0.9-0.1,1.1-0.3s0.4-0.4,0.4-0.7c0-0.2-0.1-0.4-0.2-0.6c-0.2-0.2-0.5-0.4-1.1-0.7c-0.6-0.3-1-0.4-1.2-0.5
		c-0.3-0.2-0.5-0.4-0.6-0.6c-0.1-0.2-0.2-0.5-0.2-0.8c0-0.5,0.2-1,0.6-1.4s1-0.6,1.8-0.6c0.8,0,1.5,0.2,1.9,0.6
		c0.4,0.4,0.7,0.9,0.7,1.5l-1.1,0.1c0-0.4-0.2-0.7-0.4-1s-0.7-0.4-1.1-0.4c-0.4,0-0.7,0.1-0.9,0.3c-0.2,0.2-0.3,0.4-0.3,0.6
		s0.1,0.4,0.3,0.6c0.1,0.1,0.5,0.3,1,0.5c0.9,0.4,1.4,0.7,1.7,0.9c0.4,0.4,0.5,0.8,0.5,1.3c0,0.3-0.1,0.7-0.3,1
		c-0.2,0.3-0.5,0.6-0.9,0.8c-0.4,0.2-0.9,0.3-1.5,0.3c-0.8,0-1.4-0.2-2-0.6C64.1,251.8,63.8,251.2,63.9,250.3z"/>
	<path class="st4" d="M78.8,250.3l1.1,0.1c-0.2,0.6-0.5,1.1-1.1,1.6c-0.6,0.5-1.3,0.7-2.1,0.7c-0.5,0-1-0.1-1.4-0.3
		c-0.4-0.2-0.7-0.6-1-1c-0.2-0.4-0.3-0.9-0.3-1.5c0-0.7,0.2-1.5,0.5-2.1c0.3-0.7,0.8-1.2,1.3-1.5c0.5-0.3,1.1-0.5,1.8-0.5
		c0.8,0,1.4,0.2,1.9,0.7c0.5,0.5,0.7,1.2,0.7,2c0,0.3,0,0.7-0.1,1h-5c0,0.1,0,0.2,0,0.4c0,0.6,0.1,1.1,0.4,1.4
		c0.3,0.3,0.6,0.5,1.1,0.5c0.4,0,0.8-0.1,1.2-0.4C78.3,251.2,78.6,250.8,78.8,250.3z M75.5,248.6h3.8c0-0.1,0-0.2,0-0.3
		c0-0.6-0.1-1-0.4-1.3s-0.7-0.5-1.1-0.5c-0.5,0-0.9,0.2-1.3,0.5C76,247.4,75.7,247.9,75.5,248.6z"/>
	<path class="st4" d="M81.1,252.6l1.4-6.7h1.1l-0.2,1.1c0.4-0.5,0.8-0.8,1.1-1c0.3-0.2,0.7-0.3,1.1-0.3c0.4,0,0.8,0.1,1.1,0.3
		c0.3,0.2,0.5,0.5,0.6,0.9c0.3-0.4,0.7-0.7,1.1-0.9c0.4-0.2,0.8-0.3,1.2-0.3c0.6,0,1,0.1,1.3,0.4c0.3,0.3,0.4,0.6,0.4,1.1
		c0,0.2,0,0.5-0.1,1l-0.9,4.3H89l0.9-4.5c0.1-0.4,0.1-0.6,0.1-0.8c0-0.2-0.1-0.4-0.2-0.5s-0.3-0.2-0.6-0.2c-0.3,0-0.7,0.1-1,0.3
		s-0.6,0.5-0.8,0.8c-0.2,0.3-0.4,0.9-0.5,1.6l-0.7,3.3h-1.1l1-4.6c0.1-0.3,0.1-0.5,0.1-0.7c0-0.2-0.1-0.4-0.2-0.5
		c-0.1-0.1-0.3-0.2-0.5-0.2c-0.3,0-0.7,0.1-1,0.3c-0.4,0.2-0.6,0.5-0.9,0.9s-0.4,0.9-0.6,1.6l-0.7,3.2H81.1z"/>
	<path class="st4" d="M91.9,252.6l1.9-9.3H95l-0.7,3.3c0.4-0.3,0.7-0.6,1-0.7s0.6-0.2,0.9-0.2c0.6,0,1.2,0.2,1.6,0.7
		c0.4,0.5,0.6,1.2,0.6,2.1c0,0.6-0.1,1.1-0.3,1.6s-0.4,0.9-0.6,1.2c-0.2,0.3-0.5,0.6-0.8,0.8s-0.5,0.4-0.8,0.5s-0.5,0.1-0.8,0.1
		c-0.4,0-0.8-0.1-1.2-0.4c-0.3-0.2-0.6-0.6-0.8-1.1l-0.3,1.3H91.9z M93.6,249.8l0,0.2c0,0.6,0.1,1,0.4,1.3c0.3,0.3,0.6,0.5,1,0.5
		c0.4,0,0.8-0.1,1.1-0.4c0.3-0.3,0.6-0.7,0.8-1.3s0.3-1.1,0.3-1.7c0-0.6-0.1-1-0.4-1.3c-0.3-0.3-0.6-0.5-1-0.5
		c-0.4,0-0.8,0.2-1.1,0.5s-0.6,0.8-0.9,1.5C93.7,249.1,93.6,249.5,93.6,249.8z"/>
	<path class="st4" d="M104.1,250.3l1.1,0.1c-0.2,0.6-0.5,1.1-1.1,1.6c-0.6,0.5-1.3,0.7-2.1,0.7c-0.5,0-1-0.1-1.4-0.3
		c-0.4-0.2-0.7-0.6-1-1c-0.2-0.4-0.3-0.9-0.3-1.5c0-0.7,0.2-1.5,0.5-2.1c0.3-0.7,0.8-1.2,1.3-1.5c0.5-0.3,1.1-0.5,1.8-0.5
		c0.8,0,1.4,0.2,1.9,0.7c0.5,0.5,0.7,1.2,0.7,2c0,0.3,0,0.7-0.1,1h-5c0,0.1,0,0.2,0,0.4c0,0.6,0.1,1.1,0.4,1.4
		c0.3,0.3,0.6,0.5,1.1,0.5c0.4,0,0.8-0.1,1.2-0.4C103.6,251.2,103.9,250.8,104.1,250.3z M100.8,248.6h3.8c0-0.1,0-0.2,0-0.3
		c0-0.6-0.1-1-0.4-1.3s-0.7-0.5-1.1-0.5c-0.5,0-0.9,0.2-1.3,0.5C101.3,247.4,101,247.9,100.8,248.6z"/>
	<path class="st4" d="M110.9,251.6c-0.7,0.8-1.3,1.1-2.1,1.1c-0.6,0-1.2-0.2-1.6-0.7c-0.4-0.5-0.6-1.2-0.6-2.1
		c0-0.8,0.2-1.6,0.5-2.2c0.3-0.7,0.8-1.2,1.3-1.5c0.5-0.3,1-0.5,1.5-0.5c0.8,0,1.5,0.4,1.9,1.2l0.8-3.6h1.1l-1.9,9.3h-1.1
		L110.9,251.6z M107.8,249.8c0,0.5,0,0.8,0.1,1.1c0.1,0.3,0.3,0.5,0.5,0.7s0.5,0.3,0.8,0.3c0.5,0,1-0.3,1.4-0.8
		c0.6-0.7,0.9-1.6,0.9-2.7c0-0.5-0.1-1-0.4-1.3s-0.6-0.5-1.1-0.5c-0.3,0-0.5,0.1-0.8,0.2c-0.2,0.1-0.5,0.3-0.7,0.6
		c-0.2,0.3-0.4,0.7-0.6,1.1C107.9,249,107.8,249.4,107.8,249.8z"/>
	<path class="st4" d="M118.2,251.6c-0.7,0.8-1.3,1.1-2.1,1.1c-0.6,0-1.2-0.2-1.6-0.7c-0.4-0.5-0.6-1.2-0.6-2.1
		c0-0.8,0.2-1.6,0.5-2.2c0.3-0.7,0.8-1.2,1.3-1.5c0.5-0.3,1-0.5,1.5-0.5c0.8,0,1.5,0.4,1.9,1.2l0.8-3.6h1.1l-1.9,9.3H118
		L118.2,251.6z M115,249.8c0,0.5,0,0.8,0.1,1.1c0.1,0.3,0.3,0.5,0.5,0.7s0.5,0.3,0.8,0.3c0.5,0,1-0.3,1.4-0.8
		c0.6-0.7,0.9-1.6,0.9-2.7c0-0.5-0.1-1-0.4-1.3s-0.6-0.5-1.1-0.5c-0.3,0-0.5,0.1-0.8,0.2c-0.2,0.1-0.5,0.3-0.7,0.6
		c-0.2,0.3-0.4,0.7-0.6,1.1C115.1,249,115,249.4,115,249.8z"/>
	<path class="st4" d="M125.8,250.3l1.1,0.1c-0.2,0.6-0.5,1.1-1.1,1.6c-0.6,0.5-1.3,0.7-2.1,0.7c-0.5,0-1-0.1-1.4-0.3
		c-0.4-0.2-0.7-0.6-1-1c-0.2-0.4-0.3-0.9-0.3-1.5c0-0.7,0.2-1.5,0.5-2.1c0.3-0.7,0.8-1.2,1.3-1.5c0.5-0.3,1.1-0.5,1.8-0.5
		c0.8,0,1.4,0.2,1.9,0.7c0.5,0.5,0.7,1.2,0.7,2c0,0.3,0,0.7-0.1,1h-5c0,0.1,0,0.2,0,0.4c0,0.6,0.1,1.1,0.4,1.4
		c0.3,0.3,0.6,0.5,1.1,0.5c0.4,0,0.8-0.1,1.2-0.4C125.3,251.2,125.6,250.8,125.8,250.3z M122.5,248.6h3.8c0-0.1,0-0.2,0-0.3
		c0-0.6-0.1-1-0.4-1.3s-0.7-0.5-1.1-0.5c-0.5,0-0.9,0.2-1.3,0.5C123,247.4,122.7,247.9,122.5,248.6z"/>
	<path class="st4" d="M132.6,251.6c-0.7,0.8-1.3,1.1-2.1,1.1c-0.6,0-1.2-0.2-1.6-0.7c-0.4-0.5-0.6-1.2-0.6-2.1
		c0-0.8,0.2-1.6,0.5-2.2c0.3-0.7,0.8-1.2,1.3-1.5c0.5-0.3,1-0.5,1.5-0.5c0.8,0,1.5,0.4,1.9,1.2l0.8-3.6h1.1l-1.9,9.3h-1.1
		L132.6,251.6z M129.5,249.8c0,0.5,0,0.8,0.1,1.1c0.1,0.3,0.3,0.5,0.5,0.7s0.5,0.3,0.8,0.3c0.5,0,1-0.3,1.4-0.8
		c0.6-0.7,0.9-1.6,0.9-2.7c0-0.5-0.1-1-0.4-1.3s-0.6-0.5-1.1-0.5c-0.3,0-0.5,0.1-0.8,0.2c-0.2,0.1-0.5,0.3-0.7,0.6
		c-0.2,0.3-0.4,0.7-0.6,1.1C129.6,249,129.5,249.4,129.5,249.8z"/>
</g>
<rect x="149" y="323.5" class="st2" width="10" height="96.5"/>
<g class="st3">
	<path class="st4" d="M100.6,349.1l1.2,0.1c-0.2,0.7-0.5,1.2-1,1.6s-1.1,0.6-1.9,0.6c-1,0-1.8-0.3-2.3-0.9c-0.6-0.6-0.9-1.5-0.9-2.6
		c0-1.1,0.3-2,0.9-2.6s1.3-0.9,2.3-0.9c0.9,0,1.6,0.3,2.2,0.9c0.6,0.6,0.9,1.5,0.9,2.6c0,0.1,0,0.2,0,0.3h-5c0,0.7,0.3,1.3,0.6,1.7
		c0.4,0.4,0.8,0.6,1.4,0.6c0.4,0,0.8-0.1,1.1-0.3S100.4,349.6,100.6,349.1z M96.9,347.3h3.8c-0.1-0.6-0.2-1-0.4-1.3
		c-0.4-0.4-0.8-0.7-1.4-0.7c-0.5,0-1,0.2-1.3,0.5C97.1,346.2,96.9,346.7,96.9,347.3z"/>
	<path class="st4" d="M102.5,351.3l2.5-3.5l-2.3-3.2h1.4l1,1.6c0.2,0.3,0.4,0.6,0.5,0.8c0.2-0.3,0.4-0.5,0.5-0.7l1.1-1.6h1.4
		l-2.3,3.2l2.5,3.6h-1.4l-1.4-2.1l-0.4-0.6l-1.8,2.7H102.5z"/>
	<path class="st4" d="M109.7,353.9v-9.3h1v0.9c0.2-0.3,0.5-0.6,0.8-0.8c0.3-0.2,0.7-0.3,1.1-0.3c0.6,0,1.1,0.1,1.5,0.4
		s0.8,0.7,1,1.3c0.2,0.5,0.3,1.1,0.3,1.8c0,0.7-0.1,1.3-0.4,1.9c-0.2,0.6-0.6,1-1.1,1.3c-0.5,0.3-1,0.4-1.5,0.4
		c-0.4,0-0.7-0.1-1-0.2c-0.3-0.2-0.6-0.4-0.7-0.6v3.3H109.7z M110.8,348c0,0.9,0.2,1.5,0.5,1.9s0.8,0.6,1.3,0.6
		c0.5,0,0.9-0.2,1.3-0.6c0.4-0.4,0.5-1.1,0.5-2c0-0.9-0.2-1.5-0.5-1.9c-0.4-0.4-0.8-0.6-1.3-0.6c-0.5,0-0.9,0.2-1.3,0.7
		C111,346.4,110.8,347.1,110.8,348z"/>
	<path class="st4" d="M116.9,351.3V342h1.1v9.3H116.9z"/>
	<path class="st4" d="M119.9,343.3V342h1.1v1.3H119.9z M119.9,351.3v-6.7h1.1v6.7H119.9z"/>
	<path class="st4" d="M127.1,348.8l1.1,0.1c-0.1,0.8-0.4,1.4-0.9,1.8c-0.5,0.4-1.1,0.7-1.9,0.7c-0.9,0-1.7-0.3-2.2-0.9
		c-0.6-0.6-0.8-1.5-0.8-2.6c0-0.7,0.1-1.4,0.4-1.9s0.6-1,1.1-1.2c0.5-0.3,1-0.4,1.6-0.4c0.7,0,1.3,0.2,1.8,0.6s0.8,0.9,0.9,1.6
		l-1.1,0.2c-0.1-0.5-0.3-0.8-0.6-1c-0.3-0.2-0.6-0.3-1-0.3c-0.6,0-1,0.2-1.4,0.6c-0.4,0.4-0.5,1.1-0.5,2c0,0.9,0.2,1.6,0.5,2
		c0.3,0.4,0.8,0.6,1.4,0.6c0.4,0,0.8-0.1,1.1-0.4C126.9,349.8,127.1,349.4,127.1,348.8z"/>
	<path class="st4" d="M129.3,343.3V342h1.1v1.3H129.3z M129.3,351.3v-6.7h1.1v6.7H129.3z"/>
	<path class="st4" d="M134.6,350.3l0.2,1c-0.3,0.1-0.6,0.1-0.9,0.1c-0.4,0-0.7-0.1-1-0.2c-0.2-0.1-0.4-0.3-0.5-0.5s-0.1-0.7-0.1-1.3
		v-3.9h-0.8v-0.9h0.8v-1.7l1.1-0.7v2.4h1.1v0.9h-1.1v3.9c0,0.3,0,0.5,0.1,0.6c0,0.1,0.1,0.2,0.2,0.2c0.1,0.1,0.2,0.1,0.4,0.1
		C134.3,350.3,134.4,350.3,134.6,350.3z"/>
	<path class="st4" d="M73.2,382.5l1.9-9.3h1.1l-1.2,5.8l3.4-3.2h1.5l-2.9,2.5l1.7,4.2h-1.3l-1.3-3.5l-1.4,1.2l-0.5,2.3H73.2z"/>
	<path class="st4" d="M79.7,382.5l1.4-6.7h1l-0.2,1.2c0.5-0.5,0.9-0.8,1.3-1s0.8-0.3,1.2-0.3c0.5,0,1,0.1,1.3,0.4
		c0.3,0.3,0.5,0.7,0.5,1.2c0,0.2-0.1,0.6-0.2,1.2l-0.9,4.1h-1.1l0.9-4.3c0.1-0.4,0.1-0.7,0.1-0.9c0-0.2-0.1-0.4-0.2-0.5
		c-0.2-0.1-0.4-0.2-0.7-0.2c-0.6,0-1.1,0.2-1.6,0.6c-0.5,0.4-0.8,1.1-1,2.2l-0.7,3.1H79.7z"/>
	<path class="st4" d="M87.1,379.9c0-1.3,0.4-2.4,1.2-3.3c0.6-0.7,1.5-1.1,2.5-1.1c0.8,0,1.5,0.3,2,0.8c0.5,0.5,0.7,1.2,0.7,2.1
		c0,0.8-0.2,1.5-0.5,2.2c-0.3,0.7-0.8,1.2-1.3,1.5c-0.6,0.4-1.2,0.5-1.8,0.5c-0.5,0-1-0.1-1.4-0.3c-0.4-0.2-0.8-0.5-1-1
		C87.2,380.9,87.1,380.5,87.1,379.9z M88.2,379.8c0,0.6,0.2,1.1,0.5,1.4s0.7,0.5,1.2,0.5c0.2,0,0.5,0,0.7-0.1s0.5-0.3,0.7-0.5
		s0.4-0.4,0.5-0.7c0.1-0.3,0.3-0.5,0.4-0.8c0.1-0.4,0.2-0.8,0.2-1.2c0-0.6-0.2-1.1-0.5-1.4c-0.3-0.3-0.7-0.5-1.2-0.5
		c-0.4,0-0.7,0.1-1,0.3c-0.3,0.2-0.6,0.4-0.8,0.8c-0.2,0.3-0.4,0.7-0.5,1.2C88.3,379.1,88.2,379.5,88.2,379.8z"/>
	<path class="st4" d="M95.4,382.5l-0.7-6.7h1.1l0.3,3l0.1,1.7c0,0.1,0,0.4,0,0.8c0.1-0.4,0.2-0.8,0.3-1s0.2-0.6,0.4-1l1.6-3.5h1.3
		l0.2,3.4c0,0.5,0.1,1.2,0.1,2.1c0.2-0.6,0.6-1.4,1-2.4l1.4-3.1h1.1l-3.3,6.7h-1.2l-0.3-4c0-0.2,0-0.7,0-1.4
		c-0.2,0.5-0.4,0.9-0.6,1.5l-1.8,3.9H95.4z"/>
	<path class="st4" d="M103.4,382.5l1.9-9.3h1.1l-1.9,9.3H103.4z"/>
	<path class="st4" d="M111.4,380.2l1.1,0.1c-0.2,0.6-0.5,1.1-1.1,1.6c-0.6,0.5-1.3,0.7-2.1,0.7c-0.5,0-1-0.1-1.4-0.3
		c-0.4-0.2-0.7-0.6-1-1c-0.2-0.4-0.3-0.9-0.3-1.5c0-0.7,0.2-1.5,0.5-2.1c0.3-0.7,0.8-1.2,1.3-1.5c0.5-0.3,1.1-0.5,1.8-0.5
		c0.8,0,1.4,0.2,1.9,0.7c0.5,0.5,0.7,1.2,0.7,2c0,0.3,0,0.7-0.1,1h-5c0,0.1,0,0.2,0,0.4c0,0.6,0.1,1.1,0.4,1.4
		c0.3,0.3,0.6,0.5,1.1,0.5c0.4,0,0.8-0.1,1.2-0.4C110.8,381.1,111.1,380.7,111.4,380.2z M108,378.5h3.8c0-0.1,0-0.2,0-0.3
		c0-0.6-0.1-1-0.4-1.3s-0.7-0.5-1.1-0.5c-0.5,0-0.9,0.2-1.3,0.5C108.5,377.3,108.2,377.9,108,378.5z"/>
	<path class="st4" d="M118.2,381.5c-0.7,0.8-1.3,1.1-2.1,1.1c-0.6,0-1.2-0.2-1.6-0.7c-0.4-0.5-0.6-1.2-0.6-2.1
		c0-0.8,0.2-1.6,0.5-2.2c0.3-0.7,0.8-1.2,1.3-1.5c0.5-0.3,1-0.5,1.5-0.5c0.8,0,1.5,0.4,1.9,1.2l0.8-3.6h1.1l-1.9,9.3H118
		L118.2,381.5z M115,379.7c0,0.5,0,0.8,0.1,1.1s0.3,0.5,0.5,0.7s0.5,0.3,0.8,0.3c0.5,0,1-0.3,1.4-0.8c0.6-0.7,0.9-1.6,0.9-2.7
		c0-0.5-0.1-1-0.4-1.3s-0.6-0.5-1.1-0.5c-0.3,0-0.5,0.1-0.8,0.2c-0.2,0.1-0.5,0.3-0.7,0.6c-0.2,0.3-0.4,0.7-0.6,1.1
		C115.1,378.9,115,379.3,115,379.7z"/>
	<path class="st4" d="M120.8,383.1l1.2,0.1c0,0.3,0,0.5,0.1,0.6s0.2,0.2,0.3,0.3c0.2,0.1,0.5,0.1,0.8,0.1c0.7,0,1.2-0.2,1.5-0.5
		c0.2-0.2,0.4-0.8,0.6-1.6l0.1-0.5c-0.6,0.6-1.2,0.9-1.9,0.9c-0.7,0-1.3-0.3-1.7-0.8c-0.5-0.5-0.7-1.2-0.7-2.1
		c0-0.8,0.2-1.5,0.5-2.1c0.4-0.6,0.8-1.1,1.3-1.4c0.5-0.3,1-0.5,1.5-0.5c0.9,0,1.6,0.4,2,1.3l0.2-1.1h1.1l-1.4,6.5
		c-0.1,0.7-0.3,1.3-0.6,1.7c-0.2,0.4-0.6,0.7-1,0.9c-0.4,0.2-0.9,0.3-1.5,0.3c-0.5,0-1-0.1-1.4-0.2c-0.4-0.1-0.7-0.3-0.9-0.6
		c-0.2-0.3-0.3-0.6-0.3-0.9C120.8,383.3,120.8,383.2,120.8,383.1z M122.2,379.5c0,0.5,0,0.8,0.1,1c0.1,0.3,0.3,0.6,0.5,0.7
		c0.2,0.2,0.5,0.3,0.8,0.3c0.4,0,0.8-0.1,1.1-0.4s0.7-0.7,0.9-1.2c0.2-0.6,0.3-1.1,0.3-1.6c0-0.6-0.2-1-0.5-1.3
		c-0.3-0.3-0.7-0.5-1.1-0.5c-0.3,0-0.6,0.1-0.8,0.2s-0.5,0.4-0.7,0.7c-0.2,0.3-0.4,0.7-0.5,1.1C122.3,379,122.2,379.3,122.2,379.5z"
		/>
	<path class="st4" d="M133,380.2l1.1,0.1c-0.2,0.6-0.5,1.1-1.1,1.6c-0.6,0.5-1.3,0.7-2.1,0.7c-0.5,0-1-0.1-1.4-0.3
		c-0.4-0.2-0.7-0.6-1-1c-0.2-0.4-0.3-0.9-0.3-1.5c0-0.7,0.2-1.5,0.5-2.1c0.3-0.7,0.8-1.2,1.3-1.5c0.5-0.3,1.1-0.5,1.8-0.5
		c0.8,0,1.4,0.2,1.9,0.7c0.5,0.5,0.7,1.2,0.7,2c0,0.3,0,0.7-0.1,1h-5c0,0.1,0,0.2,0,0.4c0,0.6,0.1,1.1,0.4,1.4
		c0.3,0.3,0.6,0.5,1.1,0.5c0.4,0,0.8-0.1,1.2-0.4C132.5,381.1,132.8,380.7,133,380.2z M129.7,378.5h3.8c0-0.1,0-0.2,0-0.3
		c0-0.6-0.1-1-0.4-1.3s-0.7-0.5-1.1-0.5c-0.5,0-0.9,0.2-1.3,0.5C130.2,377.3,129.9,377.9,129.7,378.5z"/>
	<path class="st4" d="M52.9,398.1l1.4-6.7h1.1l-1.4,6.7H52.9z M54.6,390.1l0.3-1.3H56l-0.3,1.3H54.6z"/>
	<path class="st4" d="M55.9,395.8l1.1-0.1c0,0.3,0.1,0.6,0.2,0.8c0.1,0.2,0.3,0.4,0.6,0.6c0.3,0.1,0.6,0.2,1,0.2
		c0.5,0,0.9-0.1,1.1-0.3s0.4-0.4,0.4-0.7c0-0.2-0.1-0.4-0.2-0.6c-0.2-0.2-0.5-0.4-1.1-0.7c-0.6-0.3-1-0.4-1.2-0.5
		c-0.3-0.2-0.5-0.4-0.6-0.6c-0.1-0.2-0.2-0.5-0.2-0.8c0-0.5,0.2-1,0.6-1.4s1-0.6,1.8-0.6c0.8,0,1.5,0.2,1.9,0.6
		c0.4,0.4,0.7,0.9,0.7,1.5l-1.1,0.1c0-0.4-0.2-0.7-0.4-1s-0.7-0.4-1.1-0.4c-0.4,0-0.7,0.1-0.9,0.3c-0.2,0.2-0.3,0.4-0.3,0.6
		s0.1,0.4,0.3,0.6c0.1,0.1,0.5,0.3,1,0.5c0.9,0.4,1.4,0.7,1.7,0.9c0.4,0.4,0.5,0.8,0.5,1.3c0,0.3-0.1,0.7-0.3,1
		c-0.2,0.3-0.5,0.6-0.9,0.8c-0.4,0.2-0.9,0.3-1.5,0.3c-0.8,0-1.4-0.2-2-0.6C56.2,397.3,55.9,396.7,55.9,395.8z"/>
	<path class="st4" d="M65.9,398.1l1.4-6.7h1l-0.3,1.4c0.3-0.5,0.7-0.9,1-1.2c0.3-0.2,0.7-0.4,1-0.4c0.2,0,0.5,0.1,0.8,0.2l-0.5,1.1
		c-0.2-0.1-0.4-0.2-0.7-0.2c-0.4,0-0.8,0.2-1.2,0.7c-0.4,0.4-0.8,1.3-1,2.4l-0.6,2.7H65.9z"/>
	<path class="st4" d="M75.2,395.8l1.1,0.1c-0.2,0.6-0.5,1.1-1.1,1.6c-0.6,0.5-1.3,0.7-2.1,0.7c-0.5,0-1-0.1-1.4-0.3
		c-0.4-0.2-0.7-0.6-1-1c-0.2-0.4-0.3-0.9-0.3-1.5c0-0.7,0.2-1.5,0.5-2.1c0.3-0.7,0.8-1.2,1.3-1.5c0.5-0.3,1.1-0.5,1.8-0.5
		c0.8,0,1.4,0.2,1.9,0.7c0.5,0.5,0.7,1.2,0.7,2c0,0.3,0,0.7-0.1,1h-5c0,0.1,0,0.2,0,0.4c0,0.6,0.1,1.1,0.4,1.4
		c0.3,0.3,0.6,0.5,1.1,0.5c0.4,0,0.8-0.1,1.2-0.4C74.7,396.7,75,396.3,75.2,395.8z M71.9,394.1h3.8c0-0.1,0-0.2,0-0.3
		c0-0.6-0.1-1-0.4-1.3s-0.7-0.5-1.1-0.5c-0.5,0-0.9,0.2-1.3,0.5C72.4,392.9,72.1,393.5,71.9,394.1z"/>
	<path class="st4" d="M76.9,400.7l1.9-9.3h1.1l-0.2,0.9c0.4-0.4,0.7-0.7,1.1-0.9c0.3-0.2,0.6-0.2,1-0.2c0.6,0,1.2,0.2,1.6,0.7
		s0.6,1.1,0.6,2c0,0.7-0.1,1.3-0.3,1.9c-0.2,0.6-0.5,1-0.9,1.4c-0.3,0.4-0.7,0.6-1,0.8c-0.3,0.2-0.7,0.2-1.1,0.2
		c-0.8,0-1.4-0.4-1.9-1.2l-0.8,3.7H76.9z M79.2,395.3c0,0.5,0,0.9,0.1,1c0.1,0.3,0.3,0.5,0.5,0.7s0.5,0.3,0.8,0.3
		c0.7,0,1.2-0.4,1.6-1.1c0.4-0.7,0.6-1.5,0.6-2.3c0-0.6-0.1-1-0.4-1.3c-0.3-0.3-0.6-0.5-1-0.5c-0.3,0-0.6,0.1-0.8,0.2
		s-0.5,0.4-0.7,0.7c-0.2,0.3-0.4,0.7-0.5,1.1C79.3,394.6,79.2,395,79.2,395.3z"/>
	<path class="st4" d="M84.7,398.1l1.4-6.7h1l-0.3,1.4c0.3-0.5,0.7-0.9,1-1.2c0.3-0.2,0.7-0.4,1-0.4c0.2,0,0.5,0.1,0.8,0.2l-0.5,1.1
		c-0.2-0.1-0.4-0.2-0.7-0.2c-0.4,0-0.8,0.2-1.2,0.7c-0.4,0.4-0.8,1.3-1,2.4l-0.6,2.7H84.7z"/>
	<path class="st4" d="M94,395.8l1.1,0.1c-0.2,0.6-0.5,1.1-1.1,1.6c-0.6,0.5-1.3,0.7-2.1,0.7c-0.5,0-1-0.1-1.4-0.3
		c-0.4-0.2-0.7-0.6-1-1c-0.2-0.4-0.3-0.9-0.3-1.5c0-0.7,0.2-1.5,0.5-2.1c0.3-0.7,0.8-1.2,1.3-1.5c0.5-0.3,1.1-0.5,1.8-0.5
		c0.8,0,1.4,0.2,1.9,0.7c0.5,0.5,0.7,1.2,0.7,2c0,0.3,0,0.7-0.1,1h-5c0,0.1,0,0.2,0,0.4c0,0.6,0.1,1.1,0.4,1.4
		c0.3,0.3,0.6,0.5,1.1,0.5c0.4,0,0.8-0.1,1.2-0.4C93.5,396.7,93.8,396.3,94,395.8z M90.7,394.1h3.8c0-0.1,0-0.2,0-0.3
		c0-0.6-0.1-1-0.4-1.3s-0.7-0.5-1.1-0.5c-0.5,0-0.9,0.2-1.3,0.5C91.2,392.9,90.9,393.5,90.7,394.1z"/>
	<path class="st4" d="M96.4,395.8l1.1-0.1c0,0.3,0.1,0.6,0.2,0.8c0.1,0.2,0.3,0.4,0.6,0.6c0.3,0.1,0.6,0.2,1,0.2
		c0.5,0,0.9-0.1,1.1-0.3s0.4-0.4,0.4-0.7c0-0.2-0.1-0.4-0.2-0.6c-0.2-0.2-0.5-0.4-1.1-0.7c-0.6-0.3-1-0.4-1.2-0.5
		c-0.3-0.2-0.5-0.4-0.6-0.6c-0.1-0.2-0.2-0.5-0.2-0.8c0-0.5,0.2-1,0.6-1.4s1-0.6,1.8-0.6c0.8,0,1.5,0.2,1.9,0.6
		c0.4,0.4,0.7,0.9,0.7,1.5l-1.1,0.1c0-0.4-0.2-0.7-0.4-1s-0.7-0.4-1.1-0.4c-0.4,0-0.7,0.1-0.9,0.3c-0.2,0.2-0.3,0.4-0.3,0.6
		s0.1,0.4,0.3,0.6c0.1,0.1,0.5,0.3,1,0.5c0.9,0.4,1.4,0.7,1.7,0.9c0.4,0.4,0.5,0.8,0.5,1.3c0,0.3-0.1,0.7-0.3,1
		c-0.2,0.3-0.5,0.6-0.9,0.8c-0.4,0.2-0.9,0.3-1.5,0.3c-0.8,0-1.4-0.2-2-0.6C96.6,397.3,96.4,396.7,96.4,395.8z"/>
	<path class="st4" d="M107.7,395.8l1.1,0.1c-0.2,0.6-0.5,1.1-1.1,1.6c-0.6,0.5-1.3,0.7-2.1,0.7c-0.5,0-1-0.1-1.4-0.3
		c-0.4-0.2-0.7-0.6-1-1c-0.2-0.4-0.3-0.9-0.3-1.5c0-0.7,0.2-1.5,0.5-2.1c0.3-0.7,0.8-1.2,1.3-1.5c0.5-0.3,1.1-0.5,1.8-0.5
		c0.8,0,1.4,0.2,1.9,0.7c0.5,0.5,0.7,1.2,0.7,2c0,0.3,0,0.7-0.1,1h-5c0,0.1,0,0.2,0,0.4c0,0.6,0.1,1.1,0.4,1.4
		c0.3,0.3,0.6,0.5,1.1,0.5c0.4,0,0.8-0.1,1.2-0.4C107.2,396.7,107.5,396.3,107.7,395.8z M104.4,394.1h3.8c0-0.1,0-0.2,0-0.3
		c0-0.6-0.1-1-0.4-1.3s-0.7-0.5-1.1-0.5c-0.5,0-0.9,0.2-1.3,0.5C104.9,392.9,104.6,393.5,104.4,394.1z"/>
	<path class="st4" d="M110,398.1l1.4-6.7h1l-0.2,1.2c0.5-0.5,0.9-0.8,1.3-1s0.8-0.3,1.2-0.3c0.5,0,1,0.1,1.3,0.4
		c0.3,0.3,0.5,0.7,0.5,1.2c0,0.2-0.1,0.6-0.2,1.2l-0.9,4.1h-1.1l0.9-4.3c0.1-0.4,0.1-0.7,0.1-0.9c0-0.2-0.1-0.4-0.2-0.5
		c-0.2-0.1-0.4-0.2-0.7-0.2c-0.6,0-1.1,0.2-1.6,0.6c-0.5,0.4-0.8,1.1-1,2.2l-0.7,3.1H110z"/>
	<path class="st4" d="M119.9,397.2l-0.2,0.9c-0.3,0.1-0.5,0.1-0.8,0.1c-0.5,0-0.8-0.1-1.1-0.3c-0.2-0.2-0.3-0.4-0.3-0.7
		c0-0.1,0.1-0.5,0.2-1l0.8-3.9h-0.9l0.2-0.9h0.9l0.3-1.7l1.3-0.8l-0.5,2.5h1.1l-0.2,0.9h-1.1l-0.8,3.7c-0.1,0.5-0.1,0.8-0.1,0.9
		c0,0.1,0,0.2,0.1,0.3c0.1,0.1,0.2,0.1,0.4,0.1C119.5,397.2,119.7,397.2,119.9,397.2z"/>
	<path class="st4" d="M125.8,395.8l1.1,0.1c-0.2,0.6-0.5,1.1-1.1,1.6c-0.6,0.5-1.3,0.7-2.1,0.7c-0.5,0-1-0.1-1.4-0.3
		c-0.4-0.2-0.7-0.6-1-1c-0.2-0.4-0.3-0.9-0.3-1.5c0-0.7,0.2-1.5,0.5-2.1c0.3-0.7,0.8-1.2,1.3-1.5c0.5-0.3,1.1-0.5,1.8-0.5
		c0.8,0,1.4,0.2,1.9,0.7c0.5,0.5,0.7,1.2,0.7,2c0,0.3,0,0.7-0.1,1h-5c0,0.1,0,0.2,0,0.4c0,0.6,0.1,1.1,0.4,1.4
		c0.3,0.3,0.6,0.5,1.1,0.5c0.4,0,0.8-0.1,1.2-0.4C125.3,396.7,125.6,396.3,125.8,395.8z M122.5,394.1h3.8c0-0.1,0-0.2,0-0.3
		c0-0.6-0.1-1-0.4-1.3s-0.7-0.5-1.1-0.5c-0.5,0-0.9,0.2-1.3,0.5C123,392.9,122.7,393.5,122.5,394.1z"/>
	<path class="st4" d="M132.6,397.1c-0.7,0.8-1.3,1.1-2.1,1.1c-0.6,0-1.2-0.2-1.6-0.7c-0.4-0.5-0.6-1.2-0.6-2.1
		c0-0.8,0.2-1.6,0.5-2.2c0.3-0.7,0.8-1.2,1.3-1.5c0.5-0.3,1-0.5,1.5-0.5c0.8,0,1.5,0.4,1.9,1.2l0.8-3.6h1.1l-1.9,9.3h-1.1
		L132.6,397.1z M129.5,395.3c0,0.5,0,0.8,0.1,1.1s0.3,0.5,0.5,0.7s0.5,0.3,0.8,0.3c0.5,0,1-0.3,1.4-0.8c0.6-0.7,0.9-1.6,0.9-2.7
		c0-0.5-0.1-1-0.4-1.3s-0.6-0.5-1.1-0.5c-0.3,0-0.5,0.1-0.8,0.2c-0.2,0.1-0.5,0.3-0.7,0.6c-0.2,0.3-0.4,0.7-0.6,1.1
		C129.6,394.5,129.5,394.9,129.5,395.3z"/>
	<path class="st4" d="M65.4,411.4l1.1-0.1c0,0.3,0.1,0.6,0.2,0.8c0.1,0.2,0.3,0.4,0.6,0.6c0.3,0.1,0.6,0.2,1,0.2
		c0.5,0,0.9-0.1,1.1-0.3s0.4-0.4,0.4-0.7c0-0.2-0.1-0.4-0.2-0.6c-0.2-0.2-0.5-0.4-1.1-0.7c-0.6-0.3-1-0.4-1.2-0.5
		c-0.3-0.2-0.5-0.4-0.6-0.6c-0.1-0.2-0.2-0.5-0.2-0.8c0-0.5,0.2-1,0.6-1.4s1-0.6,1.8-0.6c0.8,0,1.5,0.2,1.9,0.6
		c0.4,0.4,0.7,0.9,0.7,1.5l-1.1,0.1c0-0.4-0.2-0.7-0.4-1s-0.7-0.4-1.1-0.4c-0.4,0-0.7,0.1-0.9,0.3c-0.2,0.2-0.3,0.4-0.3,0.6
		s0.1,0.4,0.3,0.6c0.1,0.1,0.5,0.3,1,0.5c0.9,0.4,1.4,0.7,1.7,0.9c0.4,0.4,0.5,0.8,0.5,1.3c0,0.3-0.1,0.7-0.3,1
		c-0.2,0.3-0.5,0.6-0.9,0.8c-0.4,0.2-0.9,0.3-1.5,0.3c-0.8,0-1.4-0.2-2-0.6C65.6,412.9,65.3,412.3,65.4,411.4z"/>
	<path class="st4" d="M71.3,416.3l0.1-1.1c0.2,0.1,0.5,0.1,0.7,0.1c0.2,0,0.4-0.1,0.6-0.2c0.2-0.1,0.4-0.4,0.6-0.8l0.4-0.7l-1.1-6.8
		h1.1l0.5,3.4c0.1,0.7,0.2,1.3,0.3,2l3-5.4h1.2l-4.3,7.6c-0.4,0.7-0.8,1.2-1.1,1.5s-0.7,0.4-1.1,0.4
		C71.8,416.4,71.6,416.4,71.3,416.3z"/>
	<path class="st4" d="M78.2,413.7l1.4-6.7h1.1l-0.2,1.1c0.4-0.5,0.8-0.8,1.1-1c0.3-0.2,0.7-0.3,1.1-0.3c0.4,0,0.8,0.1,1.1,0.3
		c0.3,0.2,0.5,0.5,0.6,0.9c0.3-0.4,0.7-0.7,1.1-0.9c0.4-0.2,0.8-0.3,1.2-0.3c0.6,0,1,0.1,1.3,0.4c0.3,0.3,0.4,0.6,0.4,1.1
		c0,0.2,0,0.5-0.1,1l-0.9,4.3h-1.1l0.9-4.5c0.1-0.4,0.1-0.6,0.1-0.8c0-0.2-0.1-0.4-0.2-0.5s-0.3-0.2-0.6-0.2c-0.3,0-0.7,0.1-1,0.3
		s-0.6,0.5-0.8,0.8c-0.2,0.3-0.4,0.9-0.5,1.6l-0.7,3.3h-1.1l1-4.6c0.1-0.3,0.1-0.5,0.1-0.7c0-0.2-0.1-0.4-0.2-0.5
		c-0.1-0.1-0.3-0.2-0.5-0.2c-0.3,0-0.7,0.1-1,0.3c-0.4,0.2-0.6,0.5-0.9,0.9s-0.4,0.9-0.6,1.6l-0.7,3.2H78.2z"/>
	<path class="st4" d="M89.1,413.7l1.9-9.3h1.1l-0.7,3.3c0.4-0.3,0.7-0.6,1-0.7s0.6-0.2,0.9-0.2c0.6,0,1.2,0.2,1.6,0.7
		c0.4,0.5,0.6,1.2,0.6,2.1c0,0.6-0.1,1.1-0.3,1.6s-0.4,0.9-0.6,1.2c-0.2,0.3-0.5,0.6-0.8,0.8s-0.5,0.4-0.8,0.5s-0.5,0.1-0.8,0.1
		c-0.4,0-0.8-0.1-1.2-0.4c-0.3-0.2-0.6-0.6-0.8-1.1l-0.3,1.3H89.1z M90.8,410.9l0,0.2c0,0.6,0.1,1,0.4,1.3c0.3,0.3,0.6,0.5,1,0.5
		c0.4,0,0.8-0.1,1.1-0.4c0.3-0.3,0.6-0.7,0.8-1.3s0.3-1.1,0.3-1.7c0-0.6-0.1-1-0.4-1.3c-0.3-0.3-0.6-0.5-1-0.5
		c-0.4,0-0.8,0.2-1.1,0.5s-0.6,0.8-0.9,1.5C90.9,410.2,90.8,410.6,90.8,410.9z"/>
	<path class="st4" d="M96.5,411.1c0-1.3,0.4-2.4,1.2-3.3c0.6-0.7,1.5-1.1,2.5-1.1c0.8,0,1.5,0.3,2,0.8c0.5,0.5,0.7,1.2,0.7,2.1
		c0,0.8-0.2,1.5-0.5,2.2c-0.3,0.7-0.8,1.2-1.3,1.5c-0.6,0.4-1.2,0.5-1.8,0.5c-0.5,0-1-0.1-1.4-0.3c-0.4-0.2-0.8-0.5-1-1
		C96.6,412.1,96.5,411.7,96.5,411.1z M97.7,411c0,0.6,0.2,1.1,0.5,1.4s0.7,0.5,1.2,0.5c0.2,0,0.5,0,0.7-0.1s0.5-0.3,0.7-0.5
		s0.4-0.4,0.5-0.7c0.1-0.3,0.3-0.5,0.4-0.8c0.1-0.4,0.2-0.8,0.2-1.2c0-0.6-0.2-1.1-0.5-1.4c-0.3-0.3-0.7-0.5-1.2-0.5
		c-0.4,0-0.7,0.1-1,0.3c-0.3,0.2-0.6,0.4-0.8,0.8c-0.2,0.3-0.4,0.7-0.5,1.2C97.7,410.3,97.7,410.7,97.7,411z"/>
	<path class="st4" d="M103.4,413.7l1.9-9.3h1.1l-1.9,9.3H103.4z"/>
	<path class="st4" d="M106.4,413.7l1.4-6.7h1.1l-1.4,6.7H106.4z M108.1,405.7l0.3-1.3h1.1l-0.3,1.3H108.1z"/>
	<path class="st4" d="M114,411.2l1.1,0.1c-0.3,0.8-0.7,1.5-1.2,1.9c-0.5,0.4-1.1,0.6-1.8,0.6c-0.7,0-1.3-0.2-1.8-0.7
		c-0.5-0.5-0.7-1.1-0.7-2c0-0.7,0.1-1.5,0.4-2.2s0.7-1.3,1.3-1.6c0.5-0.4,1.2-0.6,1.9-0.6c0.7,0,1.3,0.2,1.7,0.6s0.6,0.9,0.6,1.6
		l-1.1,0.1c0-0.4-0.1-0.8-0.4-1c-0.2-0.2-0.6-0.4-1-0.4c-0.5,0-0.9,0.1-1.2,0.4s-0.6,0.7-0.8,1.3c-0.2,0.6-0.3,1.2-0.3,1.7
		c0,0.6,0.1,1,0.4,1.3s0.6,0.4,0.9,0.4s0.7-0.1,1.1-0.4C113.5,412.2,113.8,411.8,114,411.2z"/>
	<path class="st4" d="M120.4,412.9c-0.4,0.3-0.8,0.6-1.1,0.8c-0.4,0.2-0.8,0.2-1.2,0.2c-0.6,0-1.1-0.2-1.5-0.5s-0.6-0.8-0.6-1.4
		c0-0.4,0.1-0.7,0.3-1c0.2-0.3,0.4-0.5,0.7-0.7s0.6-0.3,1-0.4c0.3-0.1,0.7-0.1,1.5-0.1c0.7,0,1.2-0.1,1.6-0.2
		c0.1-0.3,0.1-0.6,0.1-0.8c0-0.3-0.1-0.5-0.3-0.6c-0.3-0.2-0.7-0.3-1.2-0.3c-0.5,0-0.9,0.1-1.2,0.3c-0.3,0.2-0.5,0.5-0.7,0.9
		l-1.2-0.1c0.2-0.7,0.6-1.2,1.1-1.5c0.5-0.4,1.2-0.5,1.9-0.5c0.8,0,1.5,0.2,2,0.6c0.4,0.3,0.6,0.7,0.6,1.2c0,0.4-0.1,0.8-0.2,1.3
		l-0.4,1.7c-0.1,0.5-0.2,1-0.2,1.3c0,0.2,0,0.5,0.1,0.9h-1.2C120.4,413.5,120.4,413.2,120.4,412.9z M120.8,410.3
		c-0.2,0.1-0.3,0.1-0.5,0.1c-0.2,0-0.5,0.1-0.9,0.1c-0.7,0.1-1.1,0.1-1.4,0.2s-0.5,0.2-0.6,0.4s-0.2,0.4-0.2,0.7
		c0,0.3,0.1,0.6,0.3,0.8c0.2,0.2,0.5,0.3,0.9,0.3c0.4,0,0.7-0.1,1.1-0.3s0.6-0.5,0.8-0.8S120.7,410.9,120.8,410.3z"/>
	<path class="st4" d="M123,413.7l1.9-9.3h1.1l-1.9,9.3H123z"/>
	<path class="st4" d="M125.8,413.7l1.9-9.3h1.1l-1.9,9.3H125.8z"/>
	<path class="st4" d="M128.4,416.3l0.1-1.1c0.2,0.1,0.5,0.1,0.7,0.1c0.2,0,0.4-0.1,0.6-0.2c0.2-0.1,0.4-0.4,0.6-0.8l0.4-0.7
		l-1.1-6.8h1.1l0.5,3.4c0.1,0.7,0.2,1.3,0.3,2l3-5.4h1.2l-4.3,7.6c-0.4,0.7-0.8,1.2-1.1,1.5s-0.7,0.4-1.1,0.4
		C128.9,416.4,128.6,416.4,128.4,416.3z"/>
</g>
<rect x="579" y="127" class="st2" width="10" height="109.5"/>
<g class="st3">
	<path class="st4" d="M601.4,186.3v-6.7h1v1c0.3-0.5,0.5-0.8,0.7-0.9c0.2-0.2,0.5-0.2,0.7-0.2c0.4,0,0.8,0.1,1.2,0.4l-0.4,1.1
		c-0.3-0.2-0.6-0.2-0.8-0.2c-0.2,0-0.5,0.1-0.7,0.2s-0.3,0.4-0.4,0.6c-0.1,0.4-0.2,0.9-0.2,1.3v3.5H601.4z"/>
	<path class="st4" d="M610.4,184.1l1.2,0.1c-0.2,0.7-0.5,1.2-1,1.6c-0.5,0.4-1.1,0.6-1.9,0.6c-1,0-1.8-0.3-2.3-0.9
		c-0.6-0.6-0.9-1.5-0.9-2.6c0-1.1,0.3-2,0.9-2.6s1.3-0.9,2.3-0.9c0.9,0,1.6,0.3,2.2,0.9c0.6,0.6,0.9,1.5,0.9,2.6c0,0.1,0,0.2,0,0.3
		h-5c0,0.7,0.3,1.3,0.6,1.7c0.4,0.4,0.8,0.6,1.4,0.6c0.4,0,0.8-0.1,1.1-0.3C610,184.9,610.2,184.6,610.4,184.1z M606.6,182.3h3.8
		c-0.1-0.6-0.2-1-0.4-1.3c-0.4-0.4-0.8-0.7-1.4-0.7c-0.5,0-1,0.2-1.3,0.5C606.9,181.2,606.7,181.7,606.6,182.3z"/>
	<path class="st4" d="M617.4,185.4c-0.4,0.4-0.8,0.6-1.2,0.8c-0.4,0.1-0.8,0.2-1.3,0.2c-0.7,0-1.3-0.2-1.7-0.5
		c-0.4-0.4-0.6-0.8-0.6-1.4c0-0.3,0.1-0.6,0.2-0.9c0.1-0.3,0.3-0.5,0.6-0.7c0.2-0.2,0.5-0.3,0.8-0.4c0.2-0.1,0.6-0.1,1-0.2
		c0.9-0.1,1.6-0.2,2-0.4c0-0.2,0-0.3,0-0.3c0-0.5-0.1-0.8-0.3-1c-0.3-0.3-0.7-0.4-1.3-0.4c-0.5,0-0.9,0.1-1.2,0.3s-0.4,0.5-0.6,1
		l-1.1-0.2c0.1-0.5,0.3-0.9,0.5-1.2c0.2-0.3,0.6-0.5,1-0.7c0.4-0.2,1-0.2,1.5-0.2c0.6,0,1,0.1,1.4,0.2s0.6,0.3,0.8,0.5
		c0.2,0.2,0.3,0.5,0.4,0.8c0,0.2,0.1,0.5,0.1,1.1v1.5c0,1.1,0,1.7,0.1,2s0.1,0.6,0.3,0.8h-1.2C617.5,186,617.4,185.8,617.4,185.4z
		 M617.3,182.9c-0.4,0.2-1,0.3-1.9,0.4c-0.5,0.1-0.8,0.1-1,0.2c-0.2,0.1-0.3,0.2-0.5,0.4s-0.2,0.3-0.2,0.5c0,0.3,0.1,0.6,0.3,0.8
		c0.2,0.2,0.6,0.3,1,0.3c0.4,0,0.8-0.1,1.2-0.3s0.6-0.5,0.8-0.8c0.1-0.3,0.2-0.6,0.2-1.1V182.9z"/>
	<path class="st4" d="M619.8,184.3l1.1-0.2c0.1,0.5,0.2,0.8,0.5,1c0.3,0.2,0.7,0.4,1.2,0.4c0.5,0,0.9-0.1,1.2-0.3s0.4-0.5,0.4-0.8
		c0-0.3-0.1-0.5-0.3-0.6c-0.2-0.1-0.5-0.2-1.2-0.4c-0.8-0.2-1.4-0.4-1.7-0.5c-0.3-0.2-0.6-0.4-0.7-0.6c-0.2-0.3-0.2-0.6-0.2-0.9
		c0-0.3,0.1-0.6,0.2-0.8s0.3-0.5,0.6-0.6c0.2-0.1,0.4-0.2,0.7-0.3s0.6-0.1,1-0.1c0.5,0,1,0.1,1.4,0.2c0.4,0.2,0.7,0.4,0.9,0.6
		c0.2,0.3,0.3,0.6,0.4,1l-1.1,0.2c-0.1-0.3-0.2-0.6-0.4-0.8c-0.2-0.2-0.6-0.3-1-0.3c-0.5,0-0.9,0.1-1.1,0.3
		c-0.2,0.2-0.3,0.4-0.3,0.6c0,0.1,0,0.3,0.1,0.4c0.1,0.1,0.2,0.2,0.4,0.3c0.1,0,0.5,0.1,1,0.3c0.8,0.2,1.4,0.4,1.7,0.5
		c0.3,0.1,0.6,0.3,0.8,0.6s0.3,0.6,0.3,1c0,0.4-0.1,0.7-0.3,1.1c-0.2,0.3-0.5,0.6-1,0.8c-0.4,0.2-0.9,0.3-1.4,0.3
		c-0.9,0-1.5-0.2-2-0.5C620.2,185.5,619.9,185,619.8,184.3z"/>
	<path class="st4" d="M626.3,182.9c0-1.2,0.3-2.2,1-2.8c0.6-0.5,1.3-0.7,2.1-0.7c0.9,0,1.7,0.3,2.3,0.9s0.9,1.4,0.9,2.5
		c0,0.9-0.1,1.5-0.4,2c-0.3,0.5-0.6,0.9-1.1,1.2c-0.5,0.3-1,0.4-1.6,0.4c-0.9,0-1.7-0.3-2.3-0.9C626.6,184.9,626.3,184,626.3,182.9z
		 M627.5,182.9c0,0.9,0.2,1.5,0.6,1.9s0.9,0.6,1.4,0.6c0.6,0,1-0.2,1.4-0.6c0.4-0.4,0.6-1.1,0.6-2c0-0.8-0.2-1.5-0.6-1.9
		s-0.8-0.6-1.4-0.6c-0.6,0-1,0.2-1.4,0.6S627.5,182,627.5,182.9z"/>
	<path class="st4" d="M634,186.3v-6.7h1v1c0.5-0.7,1.2-1.1,2.1-1.1c0.4,0,0.8,0.1,1.1,0.2c0.3,0.1,0.6,0.3,0.8,0.6
		c0.2,0.2,0.3,0.5,0.4,0.8c0,0.2,0.1,0.6,0.1,1.1v4.1h-1.1v-4.1c0-0.5,0-0.8-0.1-1s-0.2-0.4-0.5-0.6c-0.2-0.1-0.5-0.2-0.8-0.2
		c-0.5,0-0.9,0.2-1.3,0.5c-0.4,0.3-0.5,0.9-0.5,1.8v3.7H634z"/>
	<path class="st4" d="M641.2,178.3V177h1.1v1.3H641.2z M641.2,186.3v-6.7h1.1v6.7H641.2z"/>
	<path class="st4" d="M644.1,186.3v-6.7h1v1c0.5-0.7,1.2-1.1,2.1-1.1c0.4,0,0.8,0.1,1.1,0.2c0.3,0.1,0.6,0.3,0.8,0.6
		c0.2,0.2,0.3,0.5,0.4,0.8c0,0.2,0.1,0.6,0.1,1.1v4.1h-1.1v-4.1c0-0.5,0-0.8-0.1-1s-0.2-0.4-0.5-0.6s-0.5-0.2-0.8-0.2
		c-0.5,0-0.9,0.2-1.3,0.5c-0.4,0.3-0.5,0.9-0.5,1.8v3.7H644.1z"/>
	<path class="st4" d="M651.1,186.8l1.1,0.2c0,0.3,0.2,0.6,0.4,0.7c0.3,0.2,0.7,0.3,1.2,0.3c0.5,0,0.9-0.1,1.2-0.3s0.5-0.5,0.6-0.9
		c0.1-0.2,0.1-0.7,0.1-1.5c-0.5,0.6-1.1,0.9-1.9,0.9c-0.9,0-1.6-0.3-2.2-1s-0.8-1.5-0.8-2.4c0-0.6,0.1-1.2,0.3-1.8
		c0.2-0.5,0.6-1,1-1.3c0.4-0.3,1-0.4,1.6-0.4c0.8,0,1.5,0.3,2,1v-0.8h1.1v5.8c0,1-0.1,1.8-0.3,2.2c-0.2,0.4-0.6,0.8-1,1
		c-0.5,0.3-1,0.4-1.7,0.4c-0.8,0-1.5-0.2-1.9-0.5C651.3,188.1,651.1,187.6,651.1,186.8z M652,182.8c0,0.9,0.2,1.5,0.5,1.9
		s0.8,0.6,1.3,0.6c0.5,0,1-0.2,1.3-0.6s0.5-1,0.5-1.9c0-0.8-0.2-1.4-0.5-1.9c-0.4-0.4-0.8-0.6-1.3-0.6c-0.5,0-0.9,0.2-1.3,0.6
		C652.2,181.4,652,182,652,182.8z"/>
</g>
<rect x="579" y="400.2" class="st2" width="10" height="19.8"/>
<g class="st3">
	<path class="st4" d="M601.2,410.1c0-1.5,0.4-2.8,1.2-3.6c0.8-0.9,1.9-1.3,3.2-1.3c0.9,0,1.6,0.2,2.3,0.6c0.7,0.4,1.2,1,1.6,1.7
		c0.4,0.7,0.5,1.6,0.5,2.5c0,0.9-0.2,1.8-0.6,2.5s-0.9,1.3-1.6,1.7s-1.5,0.6-2.3,0.6c-0.9,0-1.7-0.2-2.3-0.6c-0.7-0.4-1.2-1-1.6-1.7
		S601.2,410.9,601.2,410.1z M602.5,410.1c0,1.1,0.3,2,0.9,2.7c0.6,0.6,1.4,1,2.3,1c0.9,0,1.7-0.3,2.3-1c0.6-0.7,0.9-1.6,0.9-2.8
		c0-0.8-0.1-1.4-0.4-2c-0.3-0.6-0.6-1-1.1-1.3c-0.5-0.3-1-0.5-1.7-0.5c-0.9,0-1.6,0.3-2.2,0.9C602.8,407.7,602.5,408.7,602.5,410.1z
		"/>
	<path class="st4" d="M611.3,410.1c0-1.5,0.4-2.8,1.2-3.6s1.9-1.3,3.2-1.3c0.9,0,1.6,0.2,2.3,0.6c0.7,0.4,1.2,1,1.6,1.7
		s0.5,1.6,0.5,2.5c0,0.9-0.2,1.8-0.6,2.5s-0.9,1.3-1.6,1.7c-0.7,0.4-1.5,0.6-2.3,0.6c-0.9,0-1.7-0.2-2.3-0.6c-0.7-0.4-1.2-1-1.6-1.7
		S611.3,410.9,611.3,410.1z M612.6,410.1c0,1.1,0.3,2,0.9,2.7c0.6,0.6,1.4,1,2.3,1c0.9,0,1.7-0.3,2.3-1c0.6-0.7,0.9-1.6,0.9-2.8
		c0-0.8-0.1-1.4-0.4-2c-0.3-0.6-0.6-1-1.1-1.3c-0.5-0.3-1-0.5-1.7-0.5c-0.9,0-1.6,0.3-2.2,0.9S612.6,408.7,612.6,410.1z"/>
	<path class="st4" d="M621.8,414.7v-9.3h3.2c0.7,0,1.3,0,1.7,0.1c0.5,0.1,1,0.3,1.4,0.7c0.5,0.4,0.9,0.9,1.1,1.6s0.4,1.4,0.4,2.2
		c0,0.7-0.1,1.3-0.2,1.9c-0.2,0.5-0.4,1-0.6,1.4c-0.3,0.4-0.5,0.6-0.8,0.8s-0.7,0.4-1.1,0.5c-0.4,0.1-0.9,0.2-1.5,0.2H621.8z
		 M623,413.6h2c0.6,0,1.1-0.1,1.4-0.2c0.3-0.1,0.6-0.3,0.8-0.5c0.3-0.3,0.5-0.7,0.7-1.2s0.2-1.1,0.2-1.8c0-1-0.2-1.7-0.5-2.2
		c-0.3-0.5-0.7-0.9-1.2-1.1c-0.3-0.1-0.9-0.2-1.6-0.2h-2V413.6z"/>
	<path class="st4" d="M634.5,415.2l1.1,0.2c0,0.3,0.2,0.6,0.4,0.7c0.3,0.2,0.7,0.3,1.2,0.3c0.5,0,0.9-0.1,1.2-0.3s0.5-0.5,0.6-0.9
		c0.1-0.2,0.1-0.7,0.1-1.5c-0.5,0.6-1.1,0.9-1.9,0.9c-0.9,0-1.6-0.3-2.2-1s-0.8-1.5-0.8-2.4c0-0.6,0.1-1.2,0.3-1.8
		c0.2-0.5,0.6-1,1-1.3s1-0.4,1.6-0.4c0.8,0,1.5,0.3,2,1v-0.8h1.1v5.8c0,1-0.1,1.8-0.3,2.2c-0.2,0.4-0.6,0.8-1,1
		c-0.5,0.3-1,0.4-1.7,0.4c-0.8,0-1.5-0.2-1.9-0.5C634.7,416.5,634.4,415.9,634.5,415.2z M635.4,411.2c0,0.9,0.2,1.5,0.5,1.9
		s0.8,0.6,1.3,0.6c0.5,0,1-0.2,1.3-0.6s0.5-1,0.5-1.9c0-0.8-0.2-1.4-0.5-1.9s-0.8-0.6-1.3-0.6c-0.5,0-0.9,0.2-1.3,0.6
		C635.6,409.7,635.4,410.3,635.4,411.2z"/>
	<path class="st4" d="M646.5,412.5l1.2,0.1c-0.2,0.7-0.5,1.2-1,1.6s-1.1,0.6-1.9,0.6c-1,0-1.8-0.3-2.3-0.9s-0.9-1.5-0.9-2.6
		c0-1.1,0.3-2,0.9-2.6s1.3-0.9,2.3-0.9c0.9,0,1.6,0.3,2.2,0.9c0.6,0.6,0.9,1.5,0.9,2.6c0,0.1,0,0.2,0,0.3h-5c0,0.7,0.3,1.3,0.6,1.7
		c0.4,0.4,0.8,0.6,1.4,0.6c0.4,0,0.8-0.1,1.1-0.3S646.3,413,646.5,412.5z M642.8,410.6h3.8c-0.1-0.6-0.2-1-0.4-1.3
		c-0.4-0.4-0.8-0.7-1.4-0.7c-0.5,0-1,0.2-1.3,0.5C643,409.6,642.8,410,642.8,410.6z"/>
	<path class="st4" d="M649.1,414.7v-6.7h1v1c0.5-0.7,1.2-1.1,2.1-1.1c0.4,0,0.8,0.1,1.1,0.2c0.3,0.1,0.6,0.3,0.8,0.6
		c0.2,0.2,0.3,0.5,0.4,0.8c0,0.2,0.1,0.6,0.1,1.1v4.1h-1.1v-4.1c0-0.5,0-0.8-0.1-1c-0.1-0.2-0.2-0.4-0.5-0.6
		c-0.2-0.1-0.5-0.2-0.8-0.2c-0.5,0-0.9,0.2-1.3,0.5c-0.4,0.3-0.5,0.9-0.5,1.8v3.7H649.1z"/>
	<path class="st4" d="M661,412.5l1.2,0.1c-0.2,0.7-0.5,1.2-1,1.6s-1.1,0.6-1.9,0.6c-1,0-1.8-0.3-2.3-0.9c-0.6-0.6-0.9-1.5-0.9-2.6
		c0-1.1,0.3-2,0.9-2.6s1.3-0.9,2.3-0.9c0.9,0,1.6,0.3,2.2,0.9c0.6,0.6,0.9,1.5,0.9,2.6c0,0.1,0,0.2,0,0.3h-5c0,0.7,0.3,1.3,0.6,1.7
		c0.4,0.4,0.8,0.6,1.4,0.6c0.4,0,0.8-0.1,1.1-0.3S660.8,413,661,412.5z M657.2,410.6h3.8c-0.1-0.6-0.2-1-0.4-1.3
		c-0.4-0.4-0.8-0.7-1.4-0.7c-0.5,0-1,0.2-1.3,0.5C657.5,409.6,657.3,410,657.2,410.6z"/>
	<path class="st4" d="M663.6,414.7v-6.7h1v1c0.3-0.5,0.5-0.8,0.7-0.9c0.2-0.2,0.5-0.2,0.7-0.2c0.4,0,0.8,0.1,1.2,0.4l-0.4,1.1
		c-0.3-0.2-0.6-0.2-0.8-0.2c-0.2,0-0.5,0.1-0.7,0.2s-0.3,0.4-0.4,0.6c-0.1,0.4-0.2,0.9-0.2,1.3v3.5H663.6z"/>
	<path class="st4" d="M672.3,413.8c-0.4,0.4-0.8,0.6-1.2,0.8c-0.4,0.1-0.8,0.2-1.3,0.2c-0.7,0-1.3-0.2-1.7-0.5
		c-0.4-0.4-0.6-0.8-0.6-1.4c0-0.3,0.1-0.6,0.2-0.9c0.1-0.3,0.3-0.5,0.6-0.7s0.5-0.3,0.8-0.4c0.2-0.1,0.6-0.1,1-0.2
		c0.9-0.1,1.6-0.2,2-0.4c0-0.2,0-0.3,0-0.3c0-0.5-0.1-0.8-0.3-1c-0.3-0.3-0.7-0.4-1.3-0.4c-0.5,0-0.9,0.1-1.2,0.3
		c-0.3,0.2-0.4,0.5-0.6,1l-1.1-0.2c0.1-0.5,0.3-0.9,0.5-1.2s0.6-0.5,1-0.7c0.4-0.2,1-0.2,1.5-0.2c0.6,0,1,0.1,1.4,0.2
		c0.4,0.1,0.6,0.3,0.8,0.5s0.3,0.5,0.4,0.8c0,0.2,0.1,0.5,0.1,1.1v1.5c0,1.1,0,1.7,0.1,2c0,0.3,0.1,0.6,0.3,0.8h-1.2
		C672.4,414.4,672.3,414.1,672.3,413.8z M672.2,411.3c-0.4,0.2-1,0.3-1.9,0.4c-0.5,0.1-0.8,0.1-1,0.2c-0.2,0.1-0.3,0.2-0.5,0.4
		c-0.1,0.2-0.2,0.3-0.2,0.5c0,0.3,0.1,0.6,0.3,0.8s0.6,0.3,1,0.3c0.4,0,0.8-0.1,1.2-0.3c0.3-0.2,0.6-0.5,0.8-0.8
		c0.1-0.3,0.2-0.6,0.2-1.1V411.3z"/>
	<path class="st4" d="M675.1,414.7v-9.3h1.1v9.3H675.1z"/>
	<path class="st4" d="M678,406.7v-1.3h1.1v1.3H678z M678,414.7v-6.7h1.1v6.7H678z"/>
	<path class="st4" d="M680.3,414.7v-0.9l4.3-4.9c-0.5,0-0.9,0-1.3,0h-2.7v-0.9h5.5v0.8l-3.7,4.3l-0.7,0.8c0.5,0,1-0.1,1.4-0.1h3.1v1
		H680.3z"/>
	<path class="st4" d="M691.8,413.8c-0.4,0.4-0.8,0.6-1.2,0.8c-0.4,0.1-0.8,0.2-1.3,0.2c-0.7,0-1.3-0.2-1.7-0.5
		c-0.4-0.4-0.6-0.8-0.6-1.4c0-0.3,0.1-0.6,0.2-0.9c0.1-0.3,0.3-0.5,0.6-0.7c0.2-0.2,0.5-0.3,0.8-0.4c0.2-0.1,0.6-0.1,1-0.2
		c0.9-0.1,1.6-0.2,2-0.4c0-0.2,0-0.3,0-0.3c0-0.5-0.1-0.8-0.3-1c-0.3-0.3-0.7-0.4-1.3-0.4c-0.5,0-0.9,0.1-1.2,0.3s-0.4,0.5-0.6,1
		l-1.1-0.2c0.1-0.5,0.3-0.9,0.5-1.2c0.2-0.3,0.6-0.5,1-0.7c0.4-0.2,1-0.2,1.5-0.2c0.6,0,1,0.1,1.4,0.2s0.6,0.3,0.8,0.5
		c0.2,0.2,0.3,0.5,0.4,0.8c0,0.2,0.1,0.5,0.1,1.1v1.5c0,1.1,0,1.7,0.1,2s0.1,0.6,0.3,0.8H692C691.9,414.4,691.8,414.1,691.8,413.8z
		 M691.7,411.3c-0.4,0.2-1,0.3-1.9,0.4c-0.5,0.1-0.8,0.1-1,0.2c-0.2,0.1-0.3,0.2-0.5,0.4s-0.2,0.3-0.2,0.5c0,0.3,0.1,0.6,0.3,0.8
		c0.2,0.2,0.6,0.3,1,0.3c0.4,0,0.8-0.1,1.2-0.3s0.6-0.5,0.8-0.8c0.1-0.3,0.2-0.6,0.2-1.1V411.3z"/>
	<path class="st4" d="M697.1,413.6l0.2,1c-0.3,0.1-0.6,0.1-0.9,0.1c-0.4,0-0.7-0.1-1-0.2c-0.2-0.1-0.4-0.3-0.5-0.5s-0.1-0.7-0.1-1.3
		v-3.9H694v-0.9h0.8v-1.7l1.1-0.7v2.4h1.1v0.9H696v3.9c0,0.3,0,0.5,0.1,0.6c0,0.1,0.1,0.2,0.2,0.2c0.1,0.1,0.2,0.1,0.4,0.1
		C696.8,413.7,696.9,413.7,697.1,413.6z"/>
	<path class="st4" d="M698.3,406.7v-1.3h1.1v1.3H698.3z M698.3,414.7v-6.7h1.1v6.7H698.3z"/>
	<path class="st4" d="M700.7,411.3c0-1.2,0.3-2.2,1-2.8c0.6-0.5,1.3-0.7,2.1-0.7c0.9,0,1.7,0.3,2.3,0.9s0.9,1.4,0.9,2.5
		c0,0.9-0.1,1.5-0.4,2c-0.3,0.5-0.6,0.9-1.1,1.2c-0.5,0.3-1,0.4-1.6,0.4c-0.9,0-1.7-0.3-2.3-0.9C701,413.3,700.7,412.4,700.7,411.3z
		 M701.9,411.3c0,0.9,0.2,1.5,0.6,1.9s0.9,0.6,1.4,0.6c0.6,0,1-0.2,1.4-0.6c0.4-0.4,0.6-1.1,0.6-2c0-0.8-0.2-1.5-0.6-1.9
		s-0.8-0.6-1.4-0.6c-0.6,0-1,0.2-1.4,0.6S701.9,410.4,701.9,411.3z"/>
	<path class="st4" d="M708.4,414.7v-6.7h1v1c0.5-0.7,1.2-1.1,2.1-1.1c0.4,0,0.8,0.1,1.1,0.2c0.3,0.1,0.6,0.3,0.8,0.6
		c0.2,0.2,0.3,0.5,0.4,0.8c0,0.2,0.1,0.6,0.1,1.1v4.1h-1.1v-4.1c0-0.5,0-0.8-0.1-1s-0.2-0.4-0.5-0.6c-0.2-0.1-0.5-0.2-0.8-0.2
		c-0.5,0-0.9,0.2-1.3,0.5c-0.4,0.3-0.5,0.9-0.5,1.8v3.7H708.4z"/>
</g>
<rect x="579" y="352.9" class="st2" width="10" height="22.3"/>
<g class="st3">
	<path class="st4" d="M601.4,360.6v-1.3h1.1v1.3H601.4z M601.4,368.6v-6.7h1.1v6.7H601.4z"/>
	<path class="st4" d="M604.3,368.6v-6.7h1v1c0.5-0.7,1.2-1.1,2.1-1.1c0.4,0,0.8,0.1,1.1,0.2c0.3,0.1,0.6,0.3,0.8,0.6
		c0.2,0.2,0.3,0.5,0.4,0.8c0,0.2,0.1,0.6,0.1,1.1v4.1h-1.1v-4.1c0-0.5,0-0.8-0.1-1s-0.2-0.4-0.5-0.6c-0.2-0.1-0.5-0.2-0.8-0.2
		c-0.5,0-0.9,0.2-1.3,0.5c-0.4,0.3-0.5,0.9-0.5,1.8v3.7H604.3z"/>
	<path class="st4" d="M614.1,367.6l0.2,1c-0.3,0.1-0.6,0.1-0.9,0.1c-0.4,0-0.7-0.1-1-0.2c-0.2-0.1-0.4-0.3-0.5-0.5s-0.1-0.7-0.1-1.3
		v-3.9h-0.8v-0.9h0.8v-1.7l1.1-0.7v2.4h1.1v0.9h-1.1v3.9c0,0.3,0,0.5,0.1,0.6s0.1,0.2,0.2,0.2c0.1,0.1,0.2,0.1,0.4,0.1
		C613.7,367.6,613.8,367.6,614.1,367.6z"/>
	<path class="st4" d="M619.8,366.4l1.2,0.1c-0.2,0.7-0.5,1.2-1,1.6s-1.1,0.6-1.9,0.6c-1,0-1.8-0.3-2.3-0.9c-0.6-0.6-0.9-1.5-0.9-2.6
		c0-1.1,0.3-2,0.9-2.6s1.3-0.9,2.3-0.9c0.9,0,1.6,0.3,2.2,0.9c0.6,0.6,0.9,1.5,0.9,2.6c0,0.1,0,0.2,0,0.3h-5c0,0.7,0.3,1.3,0.6,1.7
		c0.4,0.4,0.8,0.6,1.4,0.6c0.4,0,0.8-0.1,1.1-0.3S619.6,366.9,619.8,366.4z M616,364.6h3.8c-0.1-0.6-0.2-1-0.4-1.3
		c-0.4-0.4-0.8-0.7-1.4-0.7c-0.5,0-1,0.2-1.3,0.5C616.3,363.5,616.1,364,616,364.6z"/>
	<path class="st4" d="M622.4,368.6v-6.7h1v1c0.3-0.5,0.5-0.8,0.7-0.9c0.2-0.2,0.5-0.2,0.7-0.2c0.4,0,0.8,0.1,1.2,0.4l-0.4,1.1
		c-0.3-0.2-0.6-0.2-0.8-0.2c-0.2,0-0.5,0.1-0.7,0.2s-0.3,0.4-0.4,0.6c-0.1,0.4-0.2,0.9-0.2,1.3v3.5H622.4z"/>
	<path class="st4" d="M626.7,371.2v-9.3h1v0.9c0.2-0.3,0.5-0.6,0.8-0.8c0.3-0.2,0.7-0.3,1.1-0.3c0.6,0,1.1,0.1,1.5,0.4
		c0.4,0.3,0.8,0.7,1,1.3c0.2,0.5,0.3,1.1,0.3,1.8c0,0.7-0.1,1.3-0.4,1.9c-0.2,0.6-0.6,1-1.1,1.3c-0.5,0.3-1,0.4-1.5,0.4
		c-0.4,0-0.7-0.1-1-0.2s-0.6-0.4-0.7-0.6v3.3H626.7z M627.8,365.3c0,0.9,0.2,1.5,0.5,1.9c0.4,0.4,0.8,0.6,1.3,0.6
		c0.5,0,0.9-0.2,1.3-0.6c0.4-0.4,0.5-1.1,0.5-2c0-0.9-0.2-1.5-0.5-1.9c-0.4-0.4-0.8-0.6-1.3-0.6c-0.5,0-0.9,0.2-1.3,0.7
		C627.9,363.8,627.8,364.4,627.8,365.3z"/>
	<path class="st4" d="M633.9,368.6v-6.7h1v1c0.3-0.5,0.5-0.8,0.7-0.9s0.5-0.2,0.7-0.2c0.4,0,0.8,0.1,1.2,0.4l-0.4,1.1
		c-0.3-0.2-0.6-0.2-0.8-0.2c-0.2,0-0.5,0.1-0.7,0.2c-0.2,0.2-0.3,0.4-0.4,0.6c-0.1,0.4-0.2,0.9-0.2,1.3v3.5H633.9z"/>
	<path class="st4" d="M642.9,366.4l1.2,0.1c-0.2,0.7-0.5,1.2-1,1.6s-1.1,0.6-1.9,0.6c-1,0-1.8-0.3-2.3-0.9s-0.9-1.5-0.9-2.6
		c0-1.1,0.3-2,0.9-2.6s1.3-0.9,2.3-0.9c0.9,0,1.6,0.3,2.2,0.9c0.6,0.6,0.9,1.5,0.9,2.6c0,0.1,0,0.2,0,0.3h-5c0,0.7,0.3,1.3,0.6,1.7
		c0.4,0.4,0.8,0.6,1.4,0.6c0.4,0,0.8-0.1,1.1-0.3S642.7,366.9,642.9,366.4z M639.1,364.6h3.8c-0.1-0.6-0.2-1-0.4-1.3
		c-0.4-0.4-0.8-0.7-1.4-0.7c-0.5,0-1,0.2-1.3,0.5C639.4,363.5,639.2,364,639.1,364.6z"/>
	<path class="st4" d="M648,367.6l0.2,1c-0.3,0.1-0.6,0.1-0.9,0.1c-0.4,0-0.7-0.1-1-0.2c-0.2-0.1-0.4-0.3-0.5-0.5s-0.1-0.7-0.1-1.3
		v-3.9h-0.8v-0.9h0.8v-1.7l1.1-0.7v2.4h1.1v0.9h-1.1v3.9c0,0.3,0,0.5,0.1,0.6c0,0.1,0.1,0.2,0.2,0.2c0.1,0.1,0.2,0.1,0.4,0.1
		C647.6,367.6,647.8,367.6,648,367.6z"/>
	<path class="st4" d="M653.5,367.8c-0.4,0.4-0.8,0.6-1.2,0.8c-0.4,0.1-0.8,0.2-1.3,0.2c-0.7,0-1.3-0.2-1.7-0.5
		c-0.4-0.4-0.6-0.8-0.6-1.4c0-0.3,0.1-0.6,0.2-0.9c0.1-0.3,0.3-0.5,0.6-0.7c0.2-0.2,0.5-0.3,0.8-0.4c0.2-0.1,0.6-0.1,1-0.2
		c0.9-0.1,1.6-0.2,2-0.4c0-0.2,0-0.3,0-0.3c0-0.5-0.1-0.8-0.3-1c-0.3-0.3-0.7-0.4-1.3-0.4c-0.5,0-0.9,0.1-1.2,0.3s-0.4,0.5-0.6,1
		l-1.1-0.2c0.1-0.5,0.3-0.9,0.5-1.2c0.2-0.3,0.6-0.5,1-0.7c0.4-0.2,1-0.2,1.5-0.2c0.6,0,1,0.1,1.4,0.2s0.6,0.3,0.8,0.5
		c0.2,0.2,0.3,0.5,0.4,0.8c0,0.2,0.1,0.5,0.1,1.1v1.5c0,1.1,0,1.7,0.1,2s0.1,0.6,0.3,0.8h-1.2C653.6,368.4,653.6,368.1,653.5,367.8z
		 M653.4,365.2c-0.4,0.2-1,0.3-1.9,0.4c-0.5,0.1-0.8,0.1-1,0.2c-0.2,0.1-0.3,0.2-0.5,0.4s-0.2,0.3-0.2,0.5c0,0.3,0.1,0.6,0.3,0.8
		c0.2,0.2,0.6,0.3,1,0.3c0.4,0,0.8-0.1,1.2-0.3s0.6-0.5,0.8-0.8c0.1-0.3,0.2-0.6,0.2-1.1V365.2z"/>
	<path class="st4" d="M657.4,368.6h-1.1v-9.3h1.1v3.3c0.5-0.6,1.1-0.9,1.8-0.9c0.4,0,0.8,0.1,1.2,0.3s0.7,0.4,0.9,0.7
		s0.4,0.7,0.6,1.1c0.1,0.4,0.2,0.9,0.2,1.4c0,1.2-0.3,2-0.9,2.7c-0.6,0.6-1.3,0.9-2.1,0.9c-0.8,0-1.4-0.3-1.9-1V368.6z M657.4,365.2
		c0,0.8,0.1,1.4,0.3,1.8c0.4,0.6,0.8,0.9,1.5,0.9c0.5,0,0.9-0.2,1.3-0.7c0.4-0.4,0.5-1.1,0.5-1.9c0-0.9-0.2-1.5-0.5-1.9
		c-0.3-0.4-0.8-0.6-1.3-0.6c-0.5,0-0.9,0.2-1.3,0.7C657.6,363.7,657.4,364.4,657.4,365.2z"/>
	<path class="st4" d="M663.6,360.6v-1.3h1.1v1.3H663.6z M663.6,368.6v-6.7h1.1v6.7H663.6z"/>
	<path class="st4" d="M666.5,368.6v-9.3h1.1v9.3H666.5z"/>
	<path class="st4" d="M669.4,360.6v-1.3h1.1v1.3H669.4z M669.4,368.6v-6.7h1.1v6.7H669.4z"/>
	<path class="st4" d="M674.7,367.6l0.2,1c-0.3,0.1-0.6,0.1-0.9,0.1c-0.4,0-0.7-0.1-1-0.2c-0.2-0.1-0.4-0.3-0.5-0.5s-0.1-0.7-0.1-1.3
		v-3.9h-0.8v-0.9h0.8v-1.7l1.1-0.7v2.4h1.1v0.9h-1.1v3.9c0,0.3,0,0.5,0.1,0.6c0,0.1,0.1,0.2,0.2,0.2c0.1,0.1,0.2,0.1,0.4,0.1
		C674.4,367.6,674.5,367.6,674.7,367.6z"/>
	<path class="st4" d="M675.8,371.2l-0.1-1.1c0.2,0.1,0.5,0.1,0.7,0.1c0.3,0,0.5,0,0.6-0.1s0.3-0.2,0.4-0.4c0.1-0.1,0.2-0.4,0.3-0.9
		c0-0.1,0.1-0.2,0.1-0.3l-2.6-6.8h1.2l1.4,3.9c0.2,0.5,0.3,1,0.5,1.6c0.1-0.5,0.3-1,0.5-1.5l1.4-3.9h1.1l-2.6,6.9
		c-0.3,0.7-0.5,1.3-0.6,1.5c-0.2,0.4-0.4,0.7-0.7,0.8s-0.6,0.3-0.9,0.3C676.3,371.4,676.1,371.3,675.8,371.2z"/>
</g>
<rect x="579" y="261.5" class="st2" width="10" height="30.9"/>
<g class="st3">
	<path class="st4" d="M601.4,281.5v-6.7h1v1c0.3-0.5,0.5-0.8,0.7-0.9c0.2-0.2,0.5-0.2,0.7-0.2c0.4,0,0.8,0.1,1.2,0.4l-0.4,1.1
		c-0.3-0.2-0.6-0.2-0.8-0.2c-0.2,0-0.5,0.1-0.7,0.2s-0.3,0.4-0.4,0.6c-0.1,0.4-0.2,0.9-0.2,1.3v3.5H601.4z"/>
	<path class="st4" d="M610.4,279.3l1.2,0.1c-0.2,0.7-0.5,1.2-1,1.6c-0.5,0.4-1.1,0.6-1.9,0.6c-1,0-1.8-0.3-2.3-0.9
		c-0.6-0.6-0.9-1.5-0.9-2.6c0-1.1,0.3-2,0.9-2.6s1.3-0.9,2.3-0.9c0.9,0,1.6,0.3,2.2,0.9c0.6,0.6,0.9,1.5,0.9,2.6c0,0.1,0,0.2,0,0.3
		h-5c0,0.7,0.3,1.3,0.6,1.7c0.4,0.4,0.8,0.6,1.4,0.6c0.4,0,0.8-0.1,1.1-0.3C610,280.2,610.2,279.8,610.4,279.3z M606.6,277.5h3.8
		c-0.1-0.6-0.2-1-0.4-1.3c-0.4-0.4-0.8-0.7-1.4-0.7c-0.5,0-1,0.2-1.3,0.5C606.9,276.4,606.7,276.9,606.6,277.5z"/>
	<path class="st4" d="M617.4,281.5v-0.9c-0.4,0.7-1.1,1-1.9,1c-0.5,0-1-0.1-1.5-0.4c-0.5-0.3-0.8-0.7-1-1.2
		c-0.2-0.5-0.4-1.1-0.4-1.8c0-0.7,0.1-1.3,0.3-1.8s0.6-1,1-1.3c0.4-0.3,1-0.4,1.5-0.4c0.4,0,0.8,0.1,1.1,0.3
		c0.3,0.2,0.6,0.4,0.8,0.7v-3.3h1.1v9.3H617.4z M613.8,278.1c0,0.9,0.2,1.5,0.5,1.9c0.4,0.4,0.8,0.6,1.3,0.6c0.5,0,0.9-0.2,1.3-0.6
		c0.3-0.4,0.5-1,0.5-1.9c0-0.9-0.2-1.6-0.5-2s-0.8-0.6-1.3-0.6c-0.5,0-0.9,0.2-1.3,0.6C613.9,276.6,613.8,277.2,613.8,278.1z"/>
	<path class="st4" d="M624.6,281.5v-1c-0.5,0.8-1.2,1.1-2.1,1.1c-0.4,0-0.8-0.1-1.1-0.2s-0.6-0.3-0.8-0.6s-0.3-0.5-0.4-0.8
		c0-0.2-0.1-0.6-0.1-1.1v-4.2h1.1v3.7c0,0.6,0,1,0.1,1.2c0.1,0.3,0.2,0.5,0.5,0.7c0.2,0.2,0.5,0.3,0.9,0.3s0.7-0.1,1-0.3
		s0.5-0.4,0.6-0.7c0.1-0.3,0.2-0.7,0.2-1.3v-3.6h1.1v6.7H624.6z"/>
	<path class="st4" d="M631.9,279l1.1,0.1c-0.1,0.8-0.4,1.4-0.9,1.8c-0.5,0.4-1.1,0.7-1.9,0.7c-0.9,0-1.7-0.3-2.2-0.9
		c-0.6-0.6-0.8-1.5-0.8-2.6c0-0.7,0.1-1.4,0.4-1.9s0.6-1,1.1-1.2c0.5-0.3,1-0.4,1.6-0.4c0.7,0,1.3,0.2,1.8,0.6s0.8,0.9,0.9,1.6
		l-1.1,0.2c-0.1-0.5-0.3-0.8-0.6-1c-0.3-0.2-0.6-0.3-1-0.3c-0.6,0-1,0.2-1.4,0.6c-0.4,0.4-0.5,1.1-0.5,2c0,0.9,0.2,1.6,0.5,2
		c0.3,0.4,0.8,0.6,1.4,0.6c0.4,0,0.8-0.1,1.1-0.4C631.6,280,631.8,279.6,631.9,279z"/>
	<path class="st4" d="M638.6,279.3l1.2,0.1c-0.2,0.7-0.5,1.2-1,1.6s-1.1,0.6-1.9,0.6c-1,0-1.8-0.3-2.3-0.9c-0.6-0.6-0.9-1.5-0.9-2.6
		c0-1.1,0.3-2,0.9-2.6s1.3-0.9,2.3-0.9c0.9,0,1.6,0.3,2.2,0.9c0.6,0.6,0.9,1.5,0.9,2.6c0,0.1,0,0.2,0,0.3h-5c0,0.7,0.3,1.3,0.6,1.7
		c0.4,0.4,0.8,0.6,1.4,0.6c0.4,0,0.8-0.1,1.1-0.3S638.4,279.8,638.6,279.3z M634.8,277.5h3.8c-0.1-0.6-0.2-1-0.4-1.3
		c-0.4-0.4-0.8-0.7-1.4-0.7c-0.5,0-1,0.2-1.3,0.5C635.1,276.4,634.9,276.9,634.8,277.5z"/>
	<path class="st4" d="M645.6,281.5v-0.9c-0.4,0.7-1.1,1-1.9,1c-0.5,0-1-0.1-1.5-0.4c-0.5-0.3-0.8-0.7-1-1.2
		c-0.2-0.5-0.4-1.1-0.4-1.8c0-0.7,0.1-1.3,0.3-1.8c0.2-0.5,0.6-1,1-1.3c0.4-0.3,1-0.4,1.5-0.4c0.4,0,0.8,0.1,1.1,0.3
		c0.3,0.2,0.6,0.4,0.8,0.7v-3.3h1.1v9.3H645.6z M641.9,278.1c0,0.9,0.2,1.5,0.5,1.9c0.4,0.4,0.8,0.6,1.3,0.6c0.5,0,0.9-0.2,1.3-0.6
		c0.3-0.4,0.5-1,0.5-1.9c0-0.9-0.2-1.6-0.5-2s-0.8-0.6-1.3-0.6c-0.5,0-0.9,0.2-1.3,0.6C642.1,276.6,641.9,277.2,641.9,278.1z"/>
	<path class="st4" d="M656.4,281.5v-0.9c-0.4,0.7-1.1,1-1.9,1c-0.5,0-1-0.1-1.5-0.4c-0.5-0.3-0.8-0.7-1-1.2
		c-0.2-0.5-0.4-1.1-0.4-1.8c0-0.7,0.1-1.3,0.3-1.8c0.2-0.5,0.6-1,1-1.3c0.4-0.3,1-0.4,1.5-0.4c0.4,0,0.8,0.1,1.1,0.3
		c0.3,0.2,0.6,0.4,0.8,0.7v-3.3h1.1v9.3H656.4z M652.8,278.1c0,0.9,0.2,1.5,0.5,1.9c0.4,0.4,0.8,0.6,1.3,0.6c0.5,0,0.9-0.2,1.3-0.6
		c0.3-0.4,0.5-1,0.5-1.9c0-0.9-0.2-1.6-0.5-2s-0.8-0.6-1.3-0.6c-0.5,0-0.9,0.2-1.3,0.6C653,276.6,652.8,277.2,652.8,278.1z"/>
	<path class="st4" d="M663.7,280.7c-0.4,0.4-0.8,0.6-1.2,0.8c-0.4,0.1-0.8,0.2-1.3,0.2c-0.7,0-1.3-0.2-1.7-0.5
		c-0.4-0.4-0.6-0.8-0.6-1.4c0-0.3,0.1-0.6,0.2-0.9c0.1-0.3,0.3-0.5,0.6-0.7c0.2-0.2,0.5-0.3,0.8-0.4c0.2-0.1,0.6-0.1,1-0.2
		c0.9-0.1,1.6-0.2,2-0.4c0-0.2,0-0.3,0-0.3c0-0.5-0.1-0.8-0.3-1c-0.3-0.3-0.7-0.4-1.3-0.4c-0.5,0-0.9,0.1-1.2,0.3s-0.4,0.5-0.6,1
		l-1.1-0.2c0.1-0.5,0.3-0.9,0.5-1.2c0.2-0.3,0.6-0.5,1-0.7c0.4-0.2,1-0.2,1.5-0.2c0.6,0,1,0.1,1.4,0.2s0.6,0.3,0.8,0.5
		c0.2,0.2,0.3,0.5,0.4,0.8c0,0.2,0.1,0.5,0.1,1.1v1.5c0,1.1,0,1.7,0.1,2s0.1,0.6,0.3,0.8h-1.2C663.8,281.3,663.7,281,663.7,280.7z
		 M663.6,278.1c-0.4,0.2-1,0.3-1.9,0.4c-0.5,0.1-0.8,0.1-1,0.2c-0.2,0.1-0.3,0.2-0.5,0.4s-0.2,0.3-0.2,0.5c0,0.3,0.1,0.6,0.3,0.8
		c0.2,0.2,0.6,0.3,1,0.3c0.4,0,0.8-0.1,1.2-0.3s0.6-0.5,0.8-0.8c0.1-0.3,0.2-0.6,0.2-1.1V278.1z"/>
	<path class="st4" d="M669,280.5l0.2,1c-0.3,0.1-0.6,0.1-0.9,0.1c-0.4,0-0.7-0.1-1-0.2c-0.2-0.1-0.4-0.3-0.5-0.5s-0.1-0.7-0.1-1.3
		v-3.9h-0.8v-0.9h0.8v-1.7l1.1-0.7v2.4h1.1v0.9h-1.1v3.9c0,0.3,0,0.5,0.1,0.6c0,0.1,0.1,0.2,0.2,0.2c0.1,0.1,0.2,0.1,0.4,0.1
		C668.6,280.5,668.8,280.5,669,280.5z"/>
	<path class="st4" d="M674.5,280.7c-0.4,0.4-0.8,0.6-1.2,0.8c-0.4,0.1-0.8,0.2-1.3,0.2c-0.7,0-1.3-0.2-1.7-0.5
		c-0.4-0.4-0.6-0.8-0.6-1.4c0-0.3,0.1-0.6,0.2-0.9c0.1-0.3,0.3-0.5,0.6-0.7c0.2-0.2,0.5-0.3,0.8-0.4c0.2-0.1,0.6-0.1,1-0.2
		c0.9-0.1,1.6-0.2,2-0.4c0-0.2,0-0.3,0-0.3c0-0.5-0.1-0.8-0.3-1c-0.3-0.3-0.7-0.4-1.3-0.4c-0.5,0-0.9,0.1-1.2,0.3s-0.4,0.5-0.6,1
		l-1.1-0.2c0.1-0.5,0.3-0.9,0.5-1.2c0.2-0.3,0.6-0.5,1-0.7c0.4-0.2,1-0.2,1.5-0.2c0.6,0,1,0.1,1.4,0.2s0.6,0.3,0.8,0.5
		c0.2,0.2,0.3,0.5,0.4,0.8c0,0.2,0.1,0.5,0.1,1.1v1.5c0,1.1,0,1.7,0.1,2s0.1,0.6,0.3,0.8h-1.2C674.6,281.3,674.5,281,674.5,280.7z
		 M674.4,278.1c-0.4,0.2-1,0.3-1.9,0.4c-0.5,0.1-0.8,0.1-1,0.2c-0.2,0.1-0.3,0.2-0.5,0.4s-0.2,0.3-0.2,0.5c0,0.3,0.1,0.6,0.3,0.8
		c0.2,0.2,0.6,0.3,1,0.3c0.4,0,0.8-0.1,1.2-0.3s0.6-0.5,0.8-0.8c0.1-0.3,0.2-0.6,0.2-1.1V278.1z"/>
</g>
<rect x="579" y="317.4" class="st2" width="10" height="10.5"/>
<g class="st3">
	<path class="st4" d="M603.9,326.2l0.2,1c-0.3,0.1-0.6,0.1-0.9,0.1c-0.4,0-0.7-0.1-1-0.2c-0.2-0.1-0.4-0.3-0.5-0.5s-0.1-0.7-0.1-1.3
		v-3.9h-0.8v-0.9h0.8v-1.7l1.1-0.7v2.4h1.1v0.9h-1.1v3.9c0,0.3,0,0.5,0.1,0.6c0,0.1,0.1,0.2,0.2,0.2c0.1,0.1,0.2,0.1,0.4,0.1
		C603.6,326.2,603.7,326.2,603.9,326.2z"/>
	<path class="st4" d="M605,327.2v-6.7h1v1c0.3-0.5,0.5-0.8,0.7-0.9c0.2-0.2,0.5-0.2,0.7-0.2c0.4,0,0.8,0.1,1.2,0.4l-0.4,1.1
		c-0.3-0.2-0.6-0.2-0.8-0.2c-0.2,0-0.5,0.1-0.7,0.2c-0.2,0.2-0.3,0.4-0.4,0.6c-0.1,0.4-0.2,0.9-0.2,1.3v3.5H605z"/>
	<path class="st4" d="M613.8,326.4c-0.4,0.4-0.8,0.6-1.2,0.8c-0.4,0.1-0.8,0.2-1.3,0.2c-0.7,0-1.3-0.2-1.7-0.5
		c-0.4-0.4-0.6-0.8-0.6-1.4c0-0.3,0.1-0.6,0.2-0.9c0.2-0.3,0.3-0.5,0.6-0.7c0.2-0.2,0.5-0.3,0.8-0.4c0.2-0.1,0.6-0.1,1-0.2
		c0.9-0.1,1.6-0.2,2-0.4c0-0.2,0-0.3,0-0.3c0-0.5-0.1-0.8-0.3-1c-0.3-0.3-0.7-0.4-1.3-0.4c-0.5,0-0.9,0.1-1.2,0.3
		c-0.3,0.2-0.4,0.5-0.6,1l-1.1-0.2c0.1-0.5,0.3-0.9,0.5-1.2c0.2-0.3,0.6-0.5,1-0.7c0.4-0.2,1-0.2,1.5-0.2c0.6,0,1,0.1,1.4,0.2
		s0.6,0.3,0.8,0.5c0.2,0.2,0.3,0.5,0.4,0.8c0,0.2,0.1,0.5,0.1,1.1v1.5c0,1.1,0,1.7,0.1,2c0,0.3,0.1,0.6,0.3,0.8H614
		C613.9,327,613.8,326.7,613.8,326.4z M613.7,323.8c-0.4,0.2-1,0.3-1.9,0.4c-0.5,0.1-0.8,0.1-1,0.2c-0.2,0.1-0.3,0.2-0.5,0.4
		s-0.2,0.3-0.2,0.5c0,0.3,0.1,0.6,0.3,0.8s0.6,0.3,1,0.3c0.4,0,0.8-0.1,1.2-0.3s0.6-0.5,0.8-0.8c0.1-0.3,0.2-0.6,0.2-1.1V323.8z"/>
	<path class="st4" d="M616.6,327.2v-6.7h1v1c0.5-0.7,1.2-1.1,2.1-1.1c0.4,0,0.8,0.1,1.1,0.2c0.3,0.1,0.6,0.3,0.8,0.6
		c0.2,0.2,0.3,0.5,0.4,0.8c0,0.2,0.1,0.6,0.1,1.1v4.1h-1.1v-4.1c0-0.5,0-0.8-0.1-1c-0.1-0.2-0.2-0.4-0.5-0.6s-0.5-0.2-0.8-0.2
		c-0.5,0-0.9,0.2-1.3,0.5c-0.4,0.3-0.5,0.9-0.5,1.8v3.7H616.6z"/>
	<path class="st4" d="M623.4,325.2l1.1-0.2c0.1,0.5,0.2,0.8,0.5,1c0.3,0.2,0.7,0.4,1.2,0.4c0.5,0,0.9-0.1,1.2-0.3s0.4-0.5,0.4-0.8
		c0-0.3-0.1-0.5-0.3-0.6c-0.2-0.1-0.5-0.2-1.2-0.4c-0.8-0.2-1.4-0.4-1.7-0.5c-0.3-0.2-0.6-0.4-0.7-0.6c-0.2-0.3-0.2-0.6-0.2-0.9
		c0-0.3,0.1-0.6,0.2-0.8c0.1-0.3,0.3-0.5,0.6-0.6c0.2-0.1,0.4-0.2,0.7-0.3c0.3-0.1,0.6-0.1,1-0.1c0.5,0,1,0.1,1.4,0.2
		s0.7,0.4,0.9,0.6c0.2,0.3,0.3,0.6,0.4,1l-1.1,0.2c-0.1-0.3-0.2-0.6-0.4-0.8c-0.2-0.2-0.6-0.3-1-0.3c-0.5,0-0.9,0.1-1.1,0.3
		c-0.2,0.2-0.3,0.4-0.3,0.6c0,0.1,0,0.3,0.1,0.4c0.1,0.1,0.2,0.2,0.4,0.3c0.1,0,0.5,0.1,1,0.3c0.8,0.2,1.4,0.4,1.7,0.5
		c0.3,0.1,0.6,0.3,0.8,0.6c0.2,0.3,0.3,0.6,0.3,1c0,0.4-0.1,0.7-0.3,1.1c-0.2,0.3-0.5,0.6-1,0.8c-0.4,0.2-0.9,0.3-1.4,0.3
		c-0.9,0-1.5-0.2-2-0.5C623.8,326.5,623.5,325.9,623.4,325.2z"/>
	<path class="st4" d="M630.6,327.2v-5.9h-1v-0.9h1v-0.7c0-0.5,0-0.8,0.1-1c0.1-0.3,0.3-0.5,0.6-0.7c0.3-0.2,0.7-0.3,1.2-0.3
		c0.3,0,0.7,0,1.1,0.1l-0.2,1c-0.2,0-0.5-0.1-0.7-0.1c-0.3,0-0.6,0.1-0.7,0.2c-0.1,0.1-0.2,0.4-0.2,0.8v0.6h1.3v0.9h-1.3v5.9H630.6z
		"/>
	<path class="st4" d="M638.6,325l1.2,0.1c-0.2,0.7-0.5,1.2-1,1.6c-0.5,0.4-1.1,0.6-1.9,0.6c-1,0-1.8-0.3-2.3-0.9
		c-0.6-0.6-0.9-1.5-0.9-2.6c0-1.1,0.3-2,0.9-2.6s1.3-0.9,2.3-0.9c0.9,0,1.6,0.3,2.2,0.9c0.6,0.6,0.9,1.5,0.9,2.6c0,0.1,0,0.2,0,0.3
		h-5c0,0.7,0.3,1.3,0.6,1.7c0.4,0.4,0.8,0.6,1.4,0.6c0.4,0,0.8-0.1,1.1-0.3C638.2,325.9,638.4,325.5,638.6,325z M634.8,323.2h3.8
		c-0.1-0.6-0.2-1-0.4-1.3c-0.4-0.4-0.8-0.7-1.4-0.7c-0.5,0-1,0.2-1.3,0.5C635,322.1,634.9,322.6,634.8,323.2z"/>
	<path class="st4" d="M641.2,327.2v-6.7h1v1c0.3-0.5,0.5-0.8,0.7-0.9c0.2-0.2,0.5-0.2,0.7-0.2c0.4,0,0.8,0.1,1.2,0.4l-0.4,1.1
		c-0.3-0.2-0.6-0.2-0.8-0.2c-0.2,0-0.5,0.1-0.7,0.2c-0.2,0.2-0.3,0.4-0.4,0.6c-0.1,0.4-0.2,0.9-0.2,1.3v3.5H641.2z"/>
	<path class="st4" d="M649.9,326.4c-0.4,0.4-0.8,0.6-1.2,0.8c-0.4,0.1-0.8,0.2-1.3,0.2c-0.7,0-1.3-0.2-1.7-0.5
		c-0.4-0.4-0.6-0.8-0.6-1.4c0-0.3,0.1-0.6,0.2-0.9c0.2-0.3,0.3-0.5,0.6-0.7c0.2-0.2,0.5-0.3,0.8-0.4c0.2-0.1,0.6-0.1,1-0.2
		c0.9-0.1,1.6-0.2,2-0.4c0-0.2,0-0.3,0-0.3c0-0.5-0.1-0.8-0.3-1c-0.3-0.3-0.7-0.4-1.3-0.4c-0.5,0-0.9,0.1-1.2,0.3
		c-0.3,0.2-0.4,0.5-0.6,1l-1.1-0.2c0.1-0.5,0.3-0.9,0.5-1.2c0.2-0.3,0.6-0.5,1-0.7c0.4-0.2,1-0.2,1.5-0.2c0.6,0,1,0.1,1.4,0.2
		s0.6,0.3,0.8,0.5c0.2,0.2,0.3,0.5,0.4,0.8c0,0.2,0.1,0.5,0.1,1.1v1.5c0,1.1,0,1.7,0.1,2c0,0.3,0.1,0.6,0.3,0.8h-1.2
		C650,327,649.9,326.7,649.9,326.4z M649.8,323.8c-0.4,0.2-1,0.3-1.9,0.4c-0.5,0.1-0.8,0.1-1,0.2c-0.2,0.1-0.3,0.2-0.5,0.4
		s-0.2,0.3-0.2,0.5c0,0.3,0.1,0.6,0.3,0.8s0.6,0.3,1,0.3c0.4,0,0.8-0.1,1.2-0.3s0.6-0.5,0.8-0.8c0.1-0.3,0.2-0.6,0.2-1.1V323.8z"/>
	<path class="st4" d="M653.8,327.2h-1.1v-9.3h1.1v3.3c0.5-0.6,1.1-0.9,1.8-0.9c0.4,0,0.8,0.1,1.2,0.3c0.4,0.2,0.7,0.4,0.9,0.7
		c0.2,0.3,0.4,0.7,0.6,1.1c0.1,0.4,0.2,0.9,0.2,1.4c0,1.2-0.3,2-0.9,2.7c-0.6,0.6-1.3,0.9-2.1,0.9c-0.8,0-1.4-0.3-1.9-1V327.2z
		 M653.8,323.8c0,0.8,0.1,1.4,0.3,1.8c0.4,0.6,0.8,0.9,1.5,0.9c0.5,0,0.9-0.2,1.3-0.7c0.4-0.4,0.5-1.1,0.5-1.9
		c0-0.9-0.2-1.5-0.5-1.9c-0.3-0.4-0.8-0.6-1.3-0.6c-0.5,0-0.9,0.2-1.3,0.7C654,322.4,653.8,323,653.8,323.8z"/>
	<path class="st4" d="M660,319.2v-1.3h1.1v1.3H660z M660,327.2v-6.7h1.1v6.7H660z"/>
	<path class="st4" d="M662.8,327.2v-9.3h1.1v9.3H662.8z"/>
	<path class="st4" d="M665.8,319.2v-1.3h1.1v1.3H665.8z M665.8,327.2v-6.7h1.1v6.7H665.8z"/>
	<path class="st4" d="M671.1,326.2l0.2,1c-0.3,0.1-0.6,0.1-0.9,0.1c-0.4,0-0.7-0.1-1-0.2c-0.2-0.1-0.4-0.3-0.5-0.5s-0.1-0.7-0.1-1.3
		v-3.9H668v-0.9h0.8v-1.7l1.1-0.7v2.4h1.1v0.9H670v3.9c0,0.3,0,0.5,0.1,0.6s0.1,0.2,0.2,0.2c0.1,0.1,0.2,0.1,0.4,0.1
		C670.8,326.2,670.9,326.2,671.1,326.2z"/>
	<path class="st4" d="M672.2,329.8l-0.1-1.1c0.2,0.1,0.5,0.1,0.7,0.1c0.3,0,0.5,0,0.6-0.1s0.3-0.2,0.4-0.4c0.1-0.1,0.2-0.4,0.3-0.9
		c0-0.1,0.1-0.2,0.1-0.3l-2.6-6.8h1.2l1.4,3.9c0.2,0.5,0.3,1,0.5,1.6c0.1-0.5,0.3-1,0.5-1.5l1.4-3.9h1.1l-2.6,6.9
		c-0.3,0.7-0.5,1.3-0.6,1.5c-0.2,0.4-0.4,0.7-0.7,0.8s-0.6,0.3-0.9,0.3C672.7,330,672.5,329.9,672.2,329.8z"/>
</g>
</svg>
