<?xml version="1.0" encoding="utf-8"?>
<!-- Generator: Adobe Illustrator 26.0.3, SVG Export Plug-In . SVG Version: 6.00 Build 0)  -->
<svg version="1.1" id="Layer_1" xmlns="http://www.w3.org/2000/svg" xmlns:xlink="http://www.w3.org/1999/xlink" x="0px" y="0px"
	 viewBox="0 0 686 500" style="enable-background:new 0 0 686 500;" xml:space="preserve">
<style type="text/css">
	.st0{fill:#450256;}
	.st1{opacity:0.25;fill:#450256;}
	.st2{fill:#57BCD6;}
	.st3{fill:#333333;stroke:#444444;stroke-width:0.5;}
	.st4{enable-background:new    ;}
	.st5{fill:#333333;}
	.st6{opacity:0.25;fill:#333333;stroke:#444444;stroke-width:0.5;}
</style>
<path class="st0" d="M90,184.9c102.5,0,102.5,15.1,205,15.1v4.2c-102.5,0-102.5-15.1-205-15.1V184.9z"/>
<path class="st0" d="M90,265.5c102.5,0,102.5,57,205,57v4.2c-102.5,0-102.5-57-205-57V265.5z"/>
<path class="st1" d="M305,233.9c102.5,0,102.5-29.1,205-29.1v4.2c-102.5,0-102.5,29.1-205,29.1V233.9z"/>
<path class="st1" d="M305,368.4c102.5,0,102.5-125.4,205-125.4v4.2c-102.5,0-102.5,125.4-205,125.4V368.4z"/>
<path class="st0" d="M90,189.2c102.5,0,102.5,15.1,205,15.1v8.5c-102.5,0-102.5-15.1-205-15.1V189.2z"/>
<path class="st1" d="M305,238.2c102.5,0,102.5-29.1,205-29.1v8.5c-102.5,0-102.5,29.1-205,29.1V238.2z"/>
<path class="st0" d="M90,269.7c102.5,0,102.5,57,205,57v4.2c-102.5,0-102.5-57-205-57V269.7z"/>
<path class="st2" d="M90,366.8c102.5,0,102.5,23.6,205,23.6v4.2c-102.5,0-102.5-23.6-205-23.6V366.8z"/>
<path class="st2" d="M305,322.5c102.5,0,102.5-188.6,205-188.6v2.8c-102.5,0-102.5,188.6-205,188.6V322.5z"/>
<path class="st2" d="M305,405.9c102.5,0,102.5-27.5,205-27.5v2.8c-102.5,0-102.5,27.5-205,27.5V405.9z"/>
<path class="st2" d="M305,390.7c102.5,0,102.5-59.2,205-59.2v2.8c-102.5,0-102.5,59.2-205,59.2V390.7z"/>
<path class="st0" d="M90,273.9c102.5,0,102.5,57,205,57v8.5c-102.5,0-102.5-57-205-57V273.9z"/>
<path class="st0" d="M305,325.3c102.5,0,102.5-188.6,205-188.6v8.5c-102.5,0-102.5,188.6-205,188.6V325.3z"/>
<path class="st0" d="M90,197.6c102.5,0,102.5,15.1,205,15.1v4.2c-102.5,0-102.5-15.1-205-15.1V197.6z"/>
<path class="st0" d="M90,282.4c102.5,0,102.5,57,205,57v4.2c-102.5,0-102.5-57-205-57V282.4z"/>
<path class="st1" d="M305,246.6c102.5,0,102.5-29.1,205-29.1v4.2c-102.5,0-102.5,29.1-205,29.1V246.6z"/>
<path class="st1" d="M305,372.7c102.5,0,102.5-125.4,205-125.4v4.2c-102.5,0-102.5,125.4-205,125.4V372.7z"/>
<path class="st1" d="M305,250.9c102.5,0,102.5-29.1,205-29.1v8.5c-102.5,0-102.5,29.1-205,29.1V250.9z"/>
<path class="st0" d="M90,201.9c102.5,0,102.5,15.1,205,15.1v4.2c-102.5,0-102.5-15.1-205-15.1V201.9z"/>
<path class="st0" d="M90,286.7c102.5,0,102.5,57,205,57v4.2c-102.5,0-102.5-57-205-57V286.7z"/>
<path class="st0" d="M305,288.3c102.5,0,102.5,83.4,205,83.4v1.1c-102.5,0-102.5-83.4-205-83.4V288.3z"/>
<path class="st0" d="M305,280.9c102.5,0,102.5,43.2,205,43.2v1.1c-102.5,0-102.5-43.2-205-43.2V280.9z"/>
<path class="st0" d="M305,272.1c102.5,0,102.5,8.6,205,8.6v1.1c-102.5,0-102.5-8.6-205-8.6V272.1z"/>
<path class="st0" d="M305,295c102.5,0,102.5,120,205,120v1.1c-102.5,0-102.5-120-205-120V295z"/>
<path class="st0" d="M305,408.7c102.5,0,102.5-27.5,205-27.5v1.1c-102.5,0-102.5,27.5-205,27.5V408.7z"/>
<path class="st0" d="M305,393.5c102.5,0,102.5-59.2,205-59.2v1.1c-102.5,0-102.5,59.2-205,59.2V393.5z"/>
<path class="st0" d="M305,381.1c102.5,0,102.5-91.6,205-91.6v1.1c-102.5,0-102.5,91.6-205,91.6V381.1z"/>
<path class="st0" d="M305,417.5c102.5,0,102.5,0,205,0v1.1c-102.5,0-102.5,0-205,0V417.5z"/>
<path class="st0" d="M90,290.9c102.5,0,102.5,57,205,57v4.2c-102.5,0-102.5-57-205-57V290.9z"/>
<path class="st2" d="M90,371c102.5,0,102.5,23.6,205,23.6v4.2c-102.5,0-102.5-23.6-205-23.6V371z"/>
<path class="st2" d="M305,333.8c102.5,0,102.5-188.6,205-188.6v4.2C407.5,149.5,407.5,338,305,338V333.8z"/>
<path class="st2" d="M305,394.6c102.5,0,102.5-59.2,205-59.2v4.2c-102.5,0-102.5,59.2-205,59.2V394.6z"/>
<path class="st0" d="M90,295.1c102.5,0,102.5,57,205,57v4.2c-102.5,0-102.5-57-205-57V295.1z"/>
<path class="st2" d="M90,375.2c102.5,0,102.5,23.6,205,23.6v4.2c-102.5,0-102.5-23.6-205-23.6V375.2z"/>
<path class="st2" d="M305,338c102.5,0,102.5-188.6,205-188.6v4.2c-102.5,0-102.5,188.6-205,188.6V338z"/>
<path class="st2" d="M305,398.8c102.5,0,102.5-59.2,205-59.2v4.2c-102.5,0-102.5,59.2-205,59.2V398.8z"/>
<path class="st0" d="M90,206.1c102.5,0,102.5,15.1,205,15.1v4.2c-102.5,0-102.5-15.1-205-15.1V206.1z"/>
<path class="st0" d="M90,299.4c102.5,0,102.5,57,205,57v4.2c-102.5,0-102.5-57-205-57V299.4z"/>
<path class="st0" d="M305,200c102.5,0,102.5-100,205-100v2.1c-102.5,0-102.5,100-205,100V200z"/>
<path class="st0" d="M305,289.4c102.5,0,102.5,83.4,205,83.4v2.1c-102.5,0-102.5-83.4-205-83.4V289.4z"/>
<path class="st0" d="M305,342.3c102.5,0,102.5-188.6,205-188.6v2.1c-102.5,0-102.5,188.6-205,188.6V342.3z"/>
<path class="st0" d="M305,409.8c102.5,0,102.5-27.5,205-27.5v2.1c-102.5,0-102.5,27.5-205,27.5V409.8z"/>
<path class="st0" d="M90,210.4c102.5,0,102.5,15.1,205,15.1v4.2c-102.5,0-102.5-15.1-205-15.1V210.4z"/>
<path class="st0" d="M90,303.6c102.5,0,102.5,57,205,57v4.2c-102.5,0-102.5-57-205-57V303.6z"/>
<path class="st0" d="M305,202.1c102.5,0,102.5-100,205-100v4.2c-102.5,0-102.5,100-205,100V202.1z"/>
<path class="st0" d="M305,344.4c102.5,0,102.5-188.6,205-188.6v4.2c-102.5,0-102.5,188.6-205,188.6V344.4z"/>
<path class="st0" d="M90,307.9c102.5,0,102.5,57,205,57v8.5c-102.5,0-102.5-57-205-57V307.9z"/>
<path class="st0" d="M305,348.6c102.5,0,102.5-188.6,205-188.6v8.5c-102.5,0-102.5,188.6-205,188.6V348.6z"/>
<path class="st2" d="M90,379.5c102.5,0,102.5,23.6,205,23.6v8.5c-102.5,0-102.5-23.6-205-23.6V379.5z"/>
<path class="st2" d="M305,357.1c102.5,0,102.5-188.6,205-188.6v2.8c-102.5,0-102.5,188.6-205,188.6V357.1z"/>
<path class="st2" d="M305,403c102.5,0,102.5-59.2,205-59.2v2.8c-102.5,0-102.5,59.2-205,59.2V403z"/>
<path class="st2" d="M305,382.2c102.5,0,102.5-91.6,205-91.6v2.8c-102.5,0-102.5,91.6-205,91.6V382.2z"/>
<path class="st2" d="M90,388c102.5,0,102.5,23.6,205,23.6v8.5c-102.5,0-102.5-23.6-205-23.6V388z"/>
<path class="st2" d="M305,411.9c102.5,0,102.5-27.5,205-27.5v4.2c-102.5,0-102.5,27.5-205,27.5V411.9z"/>
<path class="st2" d="M305,385c102.5,0,102.5-91.6,205-91.6v4.2c-102.5,0-102.5,91.6-205,91.6V385z"/>
<path class="st0" d="M90,214.6c102.5,0,102.5,15.1,205,15.1v4.2c-102.5,0-102.5-15.1-205-15.1V214.6z"/>
<path class="st0" d="M90,316.3c102.5,0,102.5,57,205,57v4.2c-102.5,0-102.5-57-205-57V316.3z"/>
<path class="st1" d="M305,259.3c102.5,0,102.5-29.1,205-29.1v4.2c-102.5,0-102.5,29.1-205,29.1V259.3z"/>
<path class="st1" d="M305,376.9c102.5,0,102.5-125.4,205-125.4v4.2c-102.5,0-102.5,125.4-205,125.4V376.9z"/>
<path class="st0" d="M90,218.8c102.5,0,102.5,15.1,205,15.1v8.5c-102.5,0-102.5-15.1-205-15.1V218.8z"/>
<path class="st0" d="M305,206.4c102.5,0,102.5-100,205-100v8.5c-102.5,0-102.5,100-205,100V206.4z"/>
<path class="st0" d="M90,227.3c102.5,0,102.5,15.1,205,15.1v8.5c-102.5,0-102.5-15.1-205-15.1V227.3z"/>
<path class="st0" d="M305,214.8c102.5,0,102.5-100,205-100v4.2c-102.5,0-102.5,100-205,100V214.8z"/>
<path class="st0" d="M305,282c102.5,0,102.5,43.2,205,43.2v4.2c-102.5,0-102.5-43.2-205-43.2V282z"/>
<path class="st0" d="M90,235.8c102.5,0,102.5,15.1,205,15.1v8.5c-102.5,0-102.5-15.1-205-15.1V235.8z"/>
<path class="st0" d="M305,219.1c102.5,0,102.5-100,205-100v8.5c-102.5,0-102.5,100-205,100V219.1z"/>
<path class="st0" d="M90,320.6c102.5,0,102.5,57,205,57v8.5c-102.5,0-102.5-57-205-57V320.6z"/>
<path class="st0" d="M305,359.9c102.5,0,102.5-188.6,205-188.6v8.5c-102.5,0-102.5,188.6-205,188.6V359.9z"/>
<path class="st0" d="M90,244.3c102.5,0,102.5,15.1,205,15.1v8.5c-102.5,0-102.5-15.1-205-15.1V244.3z"/>
<path class="st0" d="M305,227.6c102.5,0,102.5-100,205-100v4.2c-102.5,0-102.5,100-205,100V227.6z"/>
<path class="st0" d="M305,273.1c102.5,0,102.5,8.6,205,8.6v4.2c-102.5,0-102.5-8.6-205-8.6V273.1z"/>
<path class="st2" d="M90,358.3c102.5,0,102.5-77.7,205-77.7v8.5c-102.5,0-102.5,77.7-205,77.7V358.3z"/>
<path class="st2" d="M305,231.8c102.5,0,102.5-100,205-100v2.1c-102.5,0-102.5,100-205,100V231.8z"/>
<path class="st2" d="M305,291.5c102.5,0,102.5,83.4,205,83.4v2.1c-102.5,0-102.5-83.4-205-83.4V291.5z"/>
<path class="st2" d="M305,286.2c102.5,0,102.5,43.2,205,43.2v2.1c-102.5,0-102.5-43.2-205-43.2V286.2z"/>
<path class="st2" d="M305,277.4c102.5,0,102.5,8.6,205,8.6v2.1c-102.5,0-102.5-8.6-205-8.6V277.4z"/>
<path class="st0" d="M90,252.7c102.5,0,102.5,15.1,205,15.1v8.5c-102.5,0-102.5-15.1-205-15.1V252.7z"/>
<path class="st1" d="M305,263.6c102.5,0,102.5-29.1,205-29.1v8.5c-102.5,0-102.5,29.1-205,29.1V263.6z"/>
<path class="st0" d="M90,261.2c102.5,0,102.5,15.1,205,15.1v4.2c-102.5,0-102.5-15.1-205-15.1V261.2z"/>
<path class="st0" d="M90,329c102.5,0,102.5,57,205,57v4.2c-102.5,0-102.5-57-205-57V329z"/>
<path class="st0" d="M305,293.6c102.5,0,102.5,83.4,205,83.4v1.4c-102.5,0-102.5-83.4-205-83.4V293.6z"/>
<path class="st0" d="M305,279.5c102.5,0,102.5,8.6,205,8.6v1.4c-102.5,0-102.5-8.6-205-8.6V279.5z"/>
<path class="st0" d="M305,296.1c102.5,0,102.5,120,205,120v1.4c-102.5,0-102.5-120-205-120V296.1z"/>
<path class="st0" d="M305,416.1c102.5,0,102.5-27.5,205-27.5v1.4c-102.5,0-102.5,27.5-205,27.5V416.1z"/>
<path class="st0" d="M305,389.3c102.5,0,102.5-91.6,205-91.6v1.4c-102.5,0-102.5,91.6-205,91.6V389.3z"/>
<path class="st0" d="M305,418.6c102.5,0,102.5,0,205,0v1.4c-102.5,0-102.5,0-205,0V418.6z"/>
<rect x="295" y="200" class="st3" width="10" height="97.5"/>
<g class="st4">
	<path class="st5" d="M250.2,178.3V169h1.2v8.2h4.6v1.1H250.2z"/>
	<path class="st5" d="M257.3,170.3V169h1.1v1.3H257.3z M257.3,178.3v-6.7h1.1v6.7H257.3z"/>
	<path class="st5" d="M260.2,178.3v-6.7h1v1c0.5-0.7,1.2-1.1,2.1-1.1c0.4,0,0.8,0.1,1.1,0.2c0.3,0.1,0.6,0.3,0.8,0.6
		c0.2,0.2,0.3,0.5,0.4,0.8c0,0.2,0.1,0.6,0.1,1.1v4.1h-1.1v-4.1c0-0.5,0-0.8-0.1-1s-0.2-0.4-0.5-0.6c-0.2-0.1-0.5-0.2-0.8-0.2
		c-0.5,0-0.9,0.2-1.3,0.5c-0.4,0.3-0.5,0.9-0.5,1.8v3.7H260.2z"/>
	<path class="st5" d="M267.2,178.9l1.1,0.2c0,0.3,0.2,0.6,0.4,0.7c0.3,0.2,0.7,0.3,1.2,0.3c0.5,0,0.9-0.1,1.2-0.3s0.5-0.5,0.6-0.9
		c0.1-0.2,0.1-0.7,0.1-1.5c-0.5,0.6-1.1,0.9-1.9,0.9c-0.9,0-1.6-0.3-2.2-1s-0.8-1.5-0.8-2.4c0-0.6,0.1-1.2,0.3-1.8s0.6-1,1-1.3
		c0.4-0.3,1-0.4,1.6-0.4c0.8,0,1.5,0.3,2,1v-0.8h1.1v5.8c0,1-0.1,1.8-0.3,2.2c-0.2,0.4-0.6,0.8-1,1c-0.5,0.3-1,0.4-1.7,0.4
		c-0.8,0-1.5-0.2-1.9-0.5C267.5,180.1,267.2,179.6,267.2,178.9z M268.2,174.8c0,0.9,0.2,1.5,0.5,1.9s0.8,0.6,1.3,0.6
		c0.5,0,1-0.2,1.3-0.6s0.5-1,0.5-1.9c0-0.8-0.2-1.4-0.5-1.9c-0.4-0.4-0.8-0.6-1.3-0.6c-0.5,0-0.9,0.2-1.3,0.6
		C268.4,173.4,268.2,174,268.2,174.8z"/>
	<path class="st5" d="M279.1,178.3v-1c-0.5,0.8-1.2,1.1-2.1,1.1c-0.4,0-0.8-0.1-1.1-0.2c-0.3-0.2-0.6-0.3-0.8-0.6
		c-0.2-0.2-0.3-0.5-0.4-0.8c0-0.2-0.1-0.6-0.1-1.1v-4.2h1.1v3.7c0,0.6,0,1,0.1,1.2c0.1,0.3,0.2,0.5,0.5,0.7c0.2,0.2,0.5,0.3,0.9,0.3
		s0.7-0.1,1-0.3s0.5-0.4,0.6-0.7c0.1-0.3,0.2-0.7,0.2-1.3v-3.6h1.1v6.7H279.1z"/>
	<path class="st5" d="M281.9,170.3V169h1.1v1.3H281.9z M281.9,178.3v-6.7h1.1v6.7H281.9z"/>
	<path class="st5" d="M284.3,176.3l1.1-0.2c0.1,0.5,0.2,0.8,0.5,1c0.3,0.2,0.7,0.4,1.2,0.4c0.5,0,0.9-0.1,1.2-0.3s0.4-0.5,0.4-0.8
		c0-0.3-0.1-0.5-0.3-0.6c-0.2-0.1-0.5-0.2-1.2-0.4c-0.8-0.2-1.4-0.4-1.7-0.5c-0.3-0.2-0.6-0.4-0.7-0.6c-0.2-0.3-0.3-0.6-0.3-0.9
		c0-0.3,0.1-0.6,0.2-0.8c0.1-0.3,0.3-0.5,0.6-0.6c0.2-0.1,0.4-0.2,0.7-0.3c0.3-0.1,0.6-0.1,1-0.1c0.5,0,1,0.1,1.4,0.2
		c0.4,0.2,0.7,0.4,0.9,0.6c0.2,0.3,0.3,0.6,0.4,1l-1.1,0.2c-0.1-0.3-0.2-0.6-0.4-0.8c-0.2-0.2-0.6-0.3-1-0.3c-0.5,0-0.9,0.1-1.1,0.3
		c-0.2,0.2-0.3,0.4-0.3,0.6c0,0.1,0,0.3,0.1,0.4c0.1,0.1,0.2,0.2,0.4,0.3c0.1,0,0.5,0.1,1,0.3c0.8,0.2,1.4,0.4,1.7,0.5
		c0.3,0.1,0.6,0.3,0.8,0.6s0.3,0.6,0.3,1c0,0.4-0.1,0.7-0.3,1.1c-0.2,0.3-0.5,0.6-1,0.8c-0.4,0.2-0.9,0.3-1.4,0.3
		c-0.9,0-1.5-0.2-2-0.5C284.8,177.5,284.5,177,284.3,176.3z"/>
	<path class="st5" d="M293.8,177.3l0.2,1c-0.3,0.1-0.6,0.1-0.9,0.1c-0.4,0-0.7-0.1-1-0.2c-0.2-0.1-0.4-0.3-0.5-0.5s-0.1-0.7-0.1-1.3
		v-3.9h-0.8v-0.9h0.8v-1.7l1.1-0.7v2.4h1.1v0.9h-1.1v3.9c0,0.3,0,0.5,0.1,0.6c0,0.1,0.1,0.2,0.2,0.2c0.1,0.1,0.2,0.1,0.4,0.1
		C293.4,177.3,293.6,177.3,293.8,177.3z"/>
	<path class="st5" d="M294.9,170.3V169h1.1v1.3H294.9z M294.9,178.3v-6.7h1.1v6.7H294.9z"/>
	<path class="st5" d="M302.2,175.8l1.1,0.1c-0.1,0.8-0.4,1.4-0.9,1.8c-0.5,0.4-1.1,0.7-1.9,0.7c-0.9,0-1.7-0.3-2.2-0.9
		c-0.6-0.6-0.8-1.5-0.8-2.6c0-0.7,0.1-1.4,0.4-1.9s0.6-1,1.1-1.2c0.5-0.3,1-0.4,1.6-0.4c0.7,0,1.3,0.2,1.8,0.6
		c0.5,0.4,0.8,0.9,0.9,1.6l-1.1,0.2c-0.1-0.5-0.3-0.8-0.6-1c-0.3-0.2-0.6-0.3-1-0.3c-0.6,0-1,0.2-1.4,0.6c-0.4,0.4-0.5,1.1-0.5,2
		c0,0.9,0.2,1.6,0.5,2c0.3,0.4,0.8,0.6,1.4,0.6c0.4,0,0.8-0.1,1.1-0.4C301.9,176.8,302.1,176.4,302.2,175.8z"/>
	<path class="st5" d="M307.6,175.3l1.2-0.1c0.1,0.5,0.2,0.8,0.4,1.1c0.2,0.3,0.5,0.5,0.9,0.7c0.4,0.2,0.9,0.3,1.4,0.3
		c0.5,0,0.9-0.1,1.2-0.2c0.4-0.1,0.6-0.3,0.8-0.6s0.3-0.5,0.3-0.8c0-0.3-0.1-0.5-0.3-0.8c-0.2-0.2-0.4-0.4-0.8-0.5
		c-0.2-0.1-0.8-0.2-1.7-0.5s-1.5-0.4-1.8-0.6c-0.4-0.2-0.8-0.5-1-0.9c-0.2-0.3-0.3-0.7-0.3-1.2c0-0.5,0.1-0.9,0.4-1.3
		s0.7-0.7,1.2-0.9c0.5-0.2,1.1-0.3,1.7-0.3c0.7,0,1.3,0.1,1.8,0.3c0.5,0.2,0.9,0.5,1.2,1s0.4,0.9,0.5,1.5l-1.2,0.1
		c-0.1-0.6-0.3-1-0.6-1.3c-0.4-0.3-0.9-0.5-1.6-0.5c-0.7,0-1.3,0.1-1.6,0.4c-0.3,0.3-0.5,0.6-0.5,1c0,0.3,0.1,0.6,0.4,0.8
		c0.2,0.2,0.9,0.4,1.9,0.7c1,0.2,1.7,0.4,2.1,0.6c0.5,0.2,0.9,0.6,1.2,0.9c0.3,0.4,0.4,0.8,0.4,1.3c0,0.5-0.1,1-0.4,1.4
		c-0.3,0.4-0.7,0.8-1.2,1s-1.1,0.4-1.8,0.4c-0.8,0-1.5-0.1-2.1-0.4c-0.6-0.2-1-0.6-1.3-1.1C307.8,176.5,307.7,175.9,307.6,175.3z"/>
	<path class="st5" d="M319.1,177.3l0.2,1c-0.3,0.1-0.6,0.1-0.9,0.1c-0.4,0-0.7-0.1-1-0.2c-0.2-0.1-0.4-0.3-0.5-0.5
		c-0.1-0.2-0.1-0.7-0.1-1.3v-3.9H316v-0.9h0.8v-1.7l1.1-0.7v2.4h1.1v0.9h-1.1v3.9c0,0.3,0,0.5,0.1,0.6c0,0.1,0.1,0.2,0.2,0.2
		c0.1,0.1,0.2,0.1,0.4,0.1C318.7,177.3,318.9,177.3,319.1,177.3z"/>
	<path class="st5" d="M320.2,178.3v-6.7h1v1c0.3-0.5,0.5-0.8,0.7-0.9c0.2-0.2,0.5-0.2,0.7-0.2c0.4,0,0.8,0.1,1.2,0.4l-0.4,1.1
		c-0.3-0.2-0.6-0.2-0.8-0.2c-0.2,0-0.5,0.1-0.7,0.2s-0.3,0.4-0.4,0.6c-0.1,0.4-0.2,0.9-0.2,1.3v3.5H320.2z"/>
	<path class="st5" d="M328.9,178.3v-1c-0.5,0.8-1.2,1.1-2.1,1.1c-0.4,0-0.8-0.1-1.1-0.2c-0.3-0.2-0.6-0.3-0.8-0.6
		c-0.2-0.2-0.3-0.5-0.4-0.8c0-0.2-0.1-0.6-0.1-1.1v-4.2h1.1v3.7c0,0.6,0,1,0.1,1.2c0.1,0.3,0.2,0.5,0.5,0.7c0.2,0.2,0.5,0.3,0.9,0.3
		s0.7-0.1,1-0.3s0.5-0.4,0.6-0.7s0.2-0.7,0.2-1.3v-3.6h1.1v6.7H328.9z"/>
	<path class="st5" d="M336.2,175.8l1.1,0.1c-0.1,0.8-0.4,1.4-0.9,1.8c-0.5,0.4-1.1,0.7-1.9,0.7c-0.9,0-1.7-0.3-2.2-0.9
		c-0.6-0.6-0.8-1.5-0.8-2.6c0-0.7,0.1-1.4,0.4-1.9s0.6-1,1.1-1.2c0.5-0.3,1-0.4,1.6-0.4c0.7,0,1.3,0.2,1.8,0.6s0.8,0.9,0.9,1.6
		l-1.1,0.2c-0.1-0.5-0.3-0.8-0.6-1c-0.3-0.2-0.6-0.3-1-0.3c-0.6,0-1,0.2-1.4,0.6c-0.4,0.4-0.5,1.1-0.5,2c0,0.9,0.2,1.6,0.5,2
		c0.3,0.4,0.8,0.6,1.4,0.6c0.4,0,0.8-0.1,1.1-0.4C335.9,176.8,336.1,176.4,336.2,175.8z"/>
	<path class="st5" d="M340.8,177.3l0.2,1c-0.3,0.1-0.6,0.1-0.9,0.1c-0.4,0-0.7-0.1-1-0.2c-0.2-0.1-0.4-0.3-0.5-0.5
		c-0.1-0.2-0.1-0.7-0.1-1.3v-3.9h-0.8v-0.9h0.8v-1.7l1.1-0.7v2.4h1.1v0.9h-1.1v3.9c0,0.3,0,0.5,0.1,0.6c0,0.1,0.1,0.2,0.2,0.2
		c0.1,0.1,0.2,0.1,0.4,0.1C340.4,177.3,340.5,177.3,340.8,177.3z"/>
	<path class="st5" d="M346.3,178.3v-1c-0.5,0.8-1.2,1.1-2.1,1.1c-0.4,0-0.8-0.1-1.1-0.2c-0.3-0.2-0.6-0.3-0.8-0.6
		c-0.2-0.2-0.3-0.5-0.4-0.8c0-0.2-0.1-0.6-0.1-1.1v-4.2h1.1v3.7c0,0.6,0,1,0.1,1.2c0.1,0.3,0.2,0.5,0.5,0.7c0.2,0.2,0.5,0.3,0.9,0.3
		s0.7-0.1,1-0.3s0.5-0.4,0.6-0.7s0.2-0.7,0.2-1.3v-3.6h1.1v6.7H346.3z"/>
	<path class="st5" d="M349.1,178.3v-6.7h1v1c0.3-0.5,0.5-0.8,0.7-0.9c0.2-0.2,0.5-0.2,0.7-0.2c0.4,0,0.8,0.1,1.2,0.4l-0.4,1.1
		c-0.3-0.2-0.6-0.2-0.8-0.2c-0.2,0-0.5,0.1-0.7,0.2c-0.2,0.2-0.3,0.4-0.4,0.6c-0.1,0.4-0.2,0.9-0.2,1.3v3.5H349.1z"/>
	<path class="st5" d="M358,176.1l1.2,0.1c-0.2,0.7-0.5,1.2-1,1.6s-1.1,0.6-1.9,0.6c-1,0-1.8-0.3-2.3-0.9c-0.6-0.6-0.9-1.5-0.9-2.6
		c0-1.1,0.3-2,0.9-2.6s1.3-0.9,2.3-0.9c0.9,0,1.6,0.3,2.2,0.9c0.6,0.6,0.9,1.5,0.9,2.6c0,0.1,0,0.2,0,0.3h-5c0,0.7,0.3,1.3,0.6,1.7
		c0.4,0.4,0.8,0.6,1.4,0.6c0.4,0,0.8-0.1,1.1-0.3S357.9,176.6,358,176.1z M354.3,174.3h3.8c-0.1-0.6-0.2-1-0.4-1.3
		c-0.4-0.4-0.8-0.7-1.4-0.7c-0.5,0-1,0.2-1.3,0.5C354.5,173.2,354.3,173.7,354.3,174.3z"/>
</g>
<rect x="295" y="322.5" class="st3" width="10" height="97.5"/>
<g class="st4">
	<path class="st5" d="M246.3,443.8v-9.3h4.1c0.8,0,1.5,0.1,1.9,0.3s0.8,0.5,1,0.9c0.3,0.4,0.4,0.9,0.4,1.4c0,0.7-0.2,1.2-0.6,1.7
		c-0.4,0.5-1.1,0.7-2,0.9c0.3,0.2,0.6,0.3,0.7,0.5c0.4,0.3,0.7,0.7,1,1.2l1.6,2.5h-1.5l-1.2-1.9c-0.4-0.6-0.7-1-0.9-1.3
		c-0.2-0.3-0.4-0.5-0.6-0.6c-0.2-0.1-0.4-0.2-0.6-0.2c-0.1,0-0.4,0-0.7,0h-1.4v4.1H246.3z M247.5,438.6h2.6c0.6,0,1-0.1,1.3-0.2
		s0.6-0.3,0.7-0.6s0.2-0.5,0.2-0.8c0-0.4-0.2-0.8-0.5-1.1c-0.3-0.3-0.8-0.4-1.5-0.4h-2.9V438.6z"/>
	<path class="st5" d="M260.1,441.6l1.2,0.1c-0.2,0.7-0.5,1.2-1,1.6s-1.1,0.6-1.9,0.6c-1,0-1.8-0.3-2.3-0.9c-0.6-0.6-0.9-1.5-0.9-2.6
		c0-1.1,0.3-2,0.9-2.6s1.3-0.9,2.3-0.9c0.9,0,1.6,0.3,2.2,0.9c0.6,0.6,0.9,1.5,0.9,2.6c0,0.1,0,0.2,0,0.3h-5c0,0.7,0.3,1.3,0.6,1.7
		c0.4,0.4,0.8,0.6,1.4,0.6c0.4,0,0.8-0.1,1.1-0.3S259.9,442.1,260.1,441.6z M256.4,439.8h3.8c-0.1-0.6-0.2-1-0.4-1.3
		c-0.4-0.4-0.8-0.7-1.4-0.7c-0.5,0-1,0.2-1.3,0.5C256.6,438.7,256.4,439.2,256.4,439.8z"/>
	<path class="st5" d="M262.7,443.8v-9.3h1.1v9.3H262.7z"/>
	<path class="st5" d="M270,443c-0.4,0.4-0.8,0.6-1.2,0.8c-0.4,0.1-0.8,0.2-1.3,0.2c-0.7,0-1.3-0.2-1.7-0.5c-0.4-0.4-0.6-0.8-0.6-1.4
		c0-0.3,0.1-0.6,0.2-0.9c0.1-0.3,0.3-0.5,0.6-0.7c0.2-0.2,0.5-0.3,0.8-0.4c0.2-0.1,0.6-0.1,1-0.2c0.9-0.1,1.6-0.2,2-0.4
		c0-0.2,0-0.3,0-0.3c0-0.5-0.1-0.8-0.3-1c-0.3-0.3-0.7-0.4-1.3-0.4c-0.5,0-0.9,0.1-1.2,0.3c-0.3,0.2-0.4,0.5-0.6,1l-1.1-0.2
		c0.1-0.5,0.3-0.9,0.5-1.2s0.6-0.5,1-0.7c0.4-0.2,1-0.2,1.5-0.2c0.6,0,1,0.1,1.4,0.2s0.6,0.3,0.8,0.5s0.3,0.5,0.4,0.8
		c0,0.2,0.1,0.5,0.1,1.1v1.5c0,1.1,0,1.7,0.1,2c0,0.3,0.1,0.6,0.3,0.8h-1.2C270.1,443.6,270,443.3,270,443z M269.9,440.4
		c-0.4,0.2-1,0.3-1.9,0.4c-0.5,0.1-0.8,0.1-1,0.2c-0.2,0.1-0.3,0.2-0.5,0.4s-0.2,0.3-0.2,0.5c0,0.3,0.1,0.6,0.3,0.8
		c0.2,0.2,0.6,0.3,1,0.3c0.4,0,0.8-0.1,1.2-0.3s0.6-0.5,0.8-0.8c0.1-0.3,0.2-0.6,0.2-1.1V440.4z"/>
	<path class="st5" d="M275.3,442.8l0.2,1c-0.3,0.1-0.6,0.1-0.9,0.1c-0.4,0-0.7-0.1-1-0.2c-0.2-0.1-0.4-0.3-0.5-0.5s-0.1-0.7-0.1-1.3
		v-3.9h-0.8v-0.9h0.8v-1.7l1.1-0.7v2.4h1.1v0.9h-1.1v3.9c0,0.3,0,0.5,0.1,0.6c0,0.1,0.1,0.2,0.2,0.2c0.1,0.1,0.2,0.1,0.4,0.1
		C275,442.8,275.1,442.8,275.3,442.8z"/>
	<path class="st5" d="M276.5,435.8v-1.3h1.1v1.3H276.5z M276.5,443.8v-6.7h1.1v6.7H276.5z"/>
	<path class="st5" d="M278.9,440.4c0-1.2,0.3-2.2,1-2.8c0.6-0.5,1.3-0.7,2.1-0.7c0.9,0,1.7,0.3,2.3,0.9s0.9,1.4,0.9,2.5
		c0,0.9-0.1,1.5-0.4,2c-0.3,0.5-0.6,0.9-1.1,1.2c-0.5,0.3-1,0.4-1.6,0.4c-0.9,0-1.7-0.3-2.3-0.9
		C279.2,442.4,278.9,441.6,278.9,440.4z M280.1,440.4c0,0.9,0.2,1.5,0.6,1.9s0.9,0.6,1.4,0.6c0.6,0,1-0.2,1.4-0.6s0.6-1.1,0.6-2
		c0-0.8-0.2-1.5-0.6-1.9c-0.4-0.4-0.8-0.6-1.4-0.6c-0.6,0-1,0.2-1.4,0.6S280.1,439.6,280.1,440.4z"/>
	<path class="st5" d="M286.6,443.8v-6.7h1v1c0.5-0.7,1.2-1.1,2.1-1.1c0.4,0,0.8,0.1,1.1,0.2c0.3,0.1,0.6,0.3,0.8,0.6
		c0.2,0.2,0.3,0.5,0.4,0.8c0,0.2,0.1,0.6,0.1,1.1v4.1h-1.1v-4.1c0-0.5,0-0.8-0.1-1s-0.2-0.4-0.5-0.6c-0.2-0.1-0.5-0.2-0.8-0.2
		c-0.5,0-0.9,0.2-1.3,0.5c-0.4,0.3-0.5,0.9-0.5,1.8v3.7H286.6z"/>
	<path class="st5" d="M298.2,443c-0.4,0.4-0.8,0.6-1.2,0.8c-0.4,0.1-0.8,0.2-1.3,0.2c-0.7,0-1.3-0.2-1.7-0.5
		c-0.4-0.4-0.6-0.8-0.6-1.4c0-0.3,0.1-0.6,0.2-0.9c0.1-0.3,0.3-0.5,0.6-0.7c0.2-0.2,0.5-0.3,0.8-0.4c0.2-0.1,0.6-0.1,1-0.2
		c0.9-0.1,1.6-0.2,2-0.4c0-0.2,0-0.3,0-0.3c0-0.5-0.1-0.8-0.3-1c-0.3-0.3-0.7-0.4-1.3-0.4c-0.5,0-0.9,0.1-1.2,0.3
		c-0.3,0.2-0.4,0.5-0.6,1l-1.1-0.2c0.1-0.5,0.3-0.9,0.5-1.2s0.6-0.5,1-0.7c0.4-0.2,1-0.2,1.5-0.2c0.6,0,1,0.1,1.4,0.2
		s0.6,0.3,0.8,0.5s0.3,0.5,0.4,0.8c0,0.2,0.1,0.5,0.1,1.1v1.5c0,1.1,0,1.7,0.1,2c0,0.3,0.1,0.6,0.3,0.8h-1.2
		C298.3,443.6,298.2,443.3,298.2,443z M298.1,440.4c-0.4,0.2-1,0.3-1.9,0.4c-0.5,0.1-0.8,0.1-1,0.2c-0.2,0.1-0.3,0.2-0.5,0.4
		s-0.2,0.3-0.2,0.5c0,0.3,0.1,0.6,0.3,0.8c0.2,0.2,0.6,0.3,1,0.3c0.4,0,0.8-0.1,1.2-0.3s0.6-0.5,0.8-0.8c0.1-0.3,0.2-0.6,0.2-1.1
		V440.4z"/>
	<path class="st5" d="M301,443.8v-9.3h1.1v9.3H301z"/>
	<path class="st5" d="M307.3,440.8l1.2-0.1c0.1,0.5,0.2,0.8,0.4,1.1c0.2,0.3,0.5,0.5,0.9,0.7c0.4,0.2,0.9,0.3,1.4,0.3
		c0.5,0,0.9-0.1,1.2-0.2c0.4-0.1,0.6-0.3,0.8-0.6c0.2-0.2,0.3-0.5,0.3-0.8c0-0.3-0.1-0.5-0.3-0.8c-0.2-0.2-0.4-0.4-0.8-0.5
		c-0.2-0.1-0.8-0.2-1.7-0.5s-1.5-0.4-1.8-0.6c-0.4-0.2-0.8-0.5-1-0.9c-0.2-0.3-0.3-0.7-0.3-1.2c0-0.5,0.1-0.9,0.4-1.3
		s0.7-0.7,1.2-0.9c0.5-0.2,1.1-0.3,1.7-0.3c0.7,0,1.3,0.1,1.8,0.3c0.5,0.2,0.9,0.5,1.2,1s0.4,0.9,0.5,1.5l-1.2,0.1
		c-0.1-0.6-0.3-1-0.6-1.3c-0.4-0.3-0.9-0.5-1.6-0.5c-0.7,0-1.3,0.1-1.6,0.4c-0.3,0.3-0.5,0.6-0.5,1c0,0.3,0.1,0.6,0.4,0.8
		c0.2,0.2,0.9,0.4,1.9,0.7c1,0.2,1.7,0.4,2.1,0.6c0.5,0.2,0.9,0.6,1.2,0.9c0.3,0.4,0.4,0.8,0.4,1.3c0,0.5-0.1,1-0.4,1.4
		c-0.3,0.4-0.7,0.8-1.2,1c-0.5,0.2-1.1,0.4-1.8,0.4c-0.8,0-1.5-0.1-2.1-0.4c-0.6-0.2-1-0.6-1.3-1.1S307.3,441.4,307.3,440.8z"/>
	<path class="st5" d="M318.7,442.8l0.2,1c-0.3,0.1-0.6,0.1-0.9,0.1c-0.4,0-0.7-0.1-1-0.2c-0.2-0.1-0.4-0.3-0.5-0.5
		c-0.1-0.2-0.1-0.7-0.1-1.3v-3.9h-0.8v-0.9h0.8v-1.7l1.1-0.7v2.4h1.1v0.9h-1.1v3.9c0,0.3,0,0.5,0.1,0.6c0,0.1,0.1,0.2,0.2,0.2
		c0.1,0.1,0.2,0.1,0.4,0.1C318.3,442.8,318.5,442.8,318.7,442.8z"/>
	<path class="st5" d="M319.8,443.8v-6.7h1v1c0.3-0.5,0.5-0.8,0.7-0.9c0.2-0.2,0.5-0.2,0.7-0.2c0.4,0,0.8,0.1,1.2,0.4l-0.4,1.1
		c-0.3-0.2-0.6-0.2-0.8-0.2c-0.2,0-0.5,0.1-0.7,0.2s-0.3,0.4-0.4,0.6c-0.1,0.4-0.2,0.9-0.2,1.3v3.5H319.8z"/>
	<path class="st5" d="M328.6,443.8v-1c-0.5,0.8-1.2,1.1-2.1,1.1c-0.4,0-0.8-0.1-1.1-0.2s-0.6-0.3-0.8-0.6s-0.3-0.5-0.4-0.8
		c0-0.2-0.1-0.6-0.1-1.1v-4.2h1.1v3.7c0,0.6,0,1,0.1,1.2c0.1,0.3,0.2,0.5,0.5,0.7c0.2,0.2,0.5,0.3,0.9,0.3s0.7-0.1,1-0.3
		s0.5-0.4,0.6-0.7c0.1-0.3,0.2-0.7,0.2-1.3v-3.6h1.1v6.7H328.6z"/>
	<path class="st5" d="M335.8,441.3l1.1,0.1c-0.1,0.8-0.4,1.4-0.9,1.8c-0.5,0.4-1.1,0.7-1.9,0.7c-0.9,0-1.7-0.3-2.2-0.9
		c-0.6-0.6-0.8-1.5-0.8-2.6c0-0.7,0.1-1.4,0.4-1.9s0.6-1,1.1-1.2c0.5-0.3,1-0.4,1.6-0.4c0.7,0,1.3,0.2,1.8,0.6s0.8,0.9,0.9,1.6
		l-1.1,0.2c-0.1-0.5-0.3-0.8-0.6-1c-0.3-0.2-0.6-0.3-1-0.3c-0.6,0-1,0.2-1.4,0.6c-0.4,0.4-0.5,1.1-0.5,2c0,0.9,0.2,1.6,0.5,2
		c0.3,0.4,0.8,0.6,1.4,0.6c0.4,0,0.8-0.1,1.1-0.4C335.5,442.3,335.7,441.9,335.8,441.3z"/>
	<path class="st5" d="M340.4,442.8l0.2,1c-0.3,0.1-0.6,0.1-0.9,0.1c-0.4,0-0.7-0.1-1-0.2c-0.2-0.1-0.4-0.3-0.5-0.5
		c-0.1-0.2-0.1-0.7-0.1-1.3v-3.9h-0.8v-0.9h0.8v-1.7l1.1-0.7v2.4h1.1v0.9h-1.1v3.9c0,0.3,0,0.5,0.1,0.6c0,0.1,0.1,0.2,0.2,0.2
		c0.1,0.1,0.2,0.1,0.4,0.1C340,442.8,340.2,442.8,340.4,442.8z"/>
	<path class="st5" d="M345.9,443.8v-1c-0.5,0.8-1.2,1.1-2.1,1.1c-0.4,0-0.8-0.1-1.1-0.2s-0.6-0.3-0.8-0.6s-0.3-0.5-0.4-0.8
		c0-0.2-0.1-0.6-0.1-1.1v-4.2h1.1v3.7c0,0.6,0,1,0.1,1.2c0.1,0.3,0.2,0.5,0.5,0.7c0.2,0.2,0.5,0.3,0.9,0.3s0.7-0.1,1-0.3
		s0.5-0.4,0.6-0.7c0.1-0.3,0.2-0.7,0.2-1.3v-3.6h1.1v6.7H345.9z"/>
	<path class="st5" d="M348.7,443.8v-6.7h1v1c0.3-0.5,0.5-0.8,0.7-0.9s0.5-0.2,0.7-0.2c0.4,0,0.8,0.1,1.2,0.4l-0.4,1.1
		c-0.3-0.2-0.6-0.2-0.8-0.2c-0.2,0-0.5,0.1-0.7,0.2c-0.2,0.2-0.3,0.4-0.4,0.6c-0.1,0.4-0.2,0.9-0.2,1.3v3.5H348.7z"/>
	<path class="st5" d="M357.7,441.6l1.2,0.1c-0.2,0.7-0.5,1.2-1,1.6s-1.1,0.6-1.9,0.6c-1,0-1.8-0.3-2.3-0.9s-0.9-1.5-0.9-2.6
		c0-1.1,0.3-2,0.9-2.6s1.3-0.9,2.3-0.9c0.9,0,1.6,0.3,2.2,0.9c0.6,0.6,0.9,1.5,0.9,2.6c0,0.1,0,0.2,0,0.3h-5c0,0.7,0.3,1.3,0.6,1.7
		c0.4,0.4,0.8,0.6,1.4,0.6c0.4,0,0.8-0.1,1.1-0.3S357.5,442.1,357.7,441.6z M353.9,439.8h3.8c-0.1-0.6-0.2-1-0.4-1.3
		c-0.4-0.4-0.8-0.7-1.4-0.7c-0.5,0-1,0.2-1.3,0.5C354.1,438.7,353.9,439.2,353.9,439.8z"/>
</g>
<rect x="80" y="184.9" class="st3" width="10" height="148.4"/>
<g class="st4">
	<path class="st5" d="M26,256.7v-9.3h1.2v9.3H26z"/>
	<path class="st5" d="M29.3,256.7v-6.7h1v0.9c0.2-0.3,0.5-0.6,0.8-0.8s0.8-0.3,1.2-0.3c0.5,0,0.9,0.1,1.2,0.3
		c0.3,0.2,0.5,0.5,0.7,0.9c0.5-0.8,1.2-1.2,2.1-1.2c0.7,0,1.2,0.2,1.5,0.6s0.5,0.9,0.5,1.7v4.6h-1.1v-4.2c0-0.5,0-0.8-0.1-1
		c-0.1-0.2-0.2-0.4-0.4-0.5c-0.2-0.1-0.4-0.2-0.7-0.2c-0.5,0-0.9,0.2-1.2,0.5c-0.3,0.3-0.5,0.8-0.5,1.5v3.9h-1.1v-4.4
		c0-0.5-0.1-0.9-0.3-1.1c-0.2-0.3-0.5-0.4-0.9-0.4c-0.3,0-0.6,0.1-0.9,0.3c-0.3,0.2-0.5,0.4-0.6,0.7c-0.1,0.3-0.2,0.8-0.2,1.4v3.5
		H29.3z"/>
	<path class="st5" d="M40.1,259.2v-9.3h1v0.9c0.2-0.3,0.5-0.6,0.8-0.8c0.3-0.2,0.7-0.3,1.1-0.3c0.6,0,1.1,0.1,1.5,0.4s0.8,0.7,1,1.3
		c0.2,0.5,0.3,1.1,0.3,1.8c0,0.7-0.1,1.3-0.4,1.9c-0.2,0.6-0.6,1-1.1,1.3c-0.5,0.3-1,0.4-1.5,0.4c-0.4,0-0.7-0.1-1-0.2
		c-0.3-0.2-0.6-0.4-0.7-0.6v3.3H40.1z M41.1,253.3c0,0.9,0.2,1.5,0.5,1.9s0.8,0.6,1.3,0.6c0.5,0,0.9-0.2,1.3-0.6
		c0.4-0.4,0.5-1.1,0.5-2c0-0.9-0.2-1.5-0.5-1.9c-0.4-0.4-0.8-0.6-1.3-0.6c-0.5,0-0.9,0.2-1.3,0.7C41.3,251.8,41.1,252.5,41.1,253.3z
		"/>
	<path class="st5" d="M47.3,256.7v-9.3h1.1v9.3H47.3z"/>
	<path class="st5" d="M50.2,248.7v-1.3h1.1v1.3H50.2z M50.2,256.7v-6.7h1.1v6.7H50.2z"/>
	<path class="st5" d="M57.5,254.2l1.1,0.1c-0.1,0.8-0.4,1.4-0.9,1.8c-0.5,0.4-1.1,0.7-1.9,0.7c-0.9,0-1.7-0.3-2.2-0.9
		c-0.6-0.6-0.8-1.5-0.8-2.6c0-0.7,0.1-1.4,0.4-1.9c0.2-0.5,0.6-1,1.1-1.2c0.5-0.3,1-0.4,1.6-0.4c0.7,0,1.3,0.2,1.8,0.6
		s0.8,0.9,0.9,1.6l-1.1,0.2c-0.1-0.5-0.3-0.8-0.6-1c-0.3-0.2-0.6-0.3-1-0.3c-0.6,0-1,0.2-1.4,0.6c-0.4,0.4-0.5,1.1-0.5,2
		c0,0.9,0.2,1.6,0.5,2c0.3,0.4,0.8,0.6,1.4,0.6c0.4,0,0.8-0.1,1.1-0.4C57.2,255.2,57.4,254.8,57.5,254.2z"/>
	<path class="st5" d="M59.6,248.7v-1.3h1.1v1.3H59.6z M59.6,256.7v-6.7h1.1v6.7H59.6z"/>
	<path class="st5" d="M65,255.6l0.2,1c-0.3,0.1-0.6,0.1-0.9,0.1c-0.4,0-0.7-0.1-1-0.2c-0.2-0.1-0.4-0.3-0.5-0.5s-0.1-0.7-0.1-1.3
		v-3.9h-0.8v-0.9h0.8v-1.7l1.1-0.7v2.4H65v0.9h-1.1v3.9c0,0.3,0,0.5,0.1,0.6c0,0.1,0.1,0.2,0.2,0.2c0.1,0.1,0.2,0.1,0.4,0.1
		C64.6,255.7,64.8,255.7,65,255.6z"/>
</g>
<rect x="80" y="358.3" class="st3" width="10" height="38.2"/>
<g class="st4">
	<path class="st5" d="M25.1,374.9v-9.3h6.7v1.1h-5.5v2.8h5.1v1.1h-5.1v3.2H32v1.1H25.1z"/>
	<path class="st5" d="M32.8,374.9l2.5-3.5l-2.3-3.2h1.4l1,1.6c0.2,0.3,0.4,0.6,0.5,0.8c0.2-0.3,0.4-0.5,0.5-0.7l1.1-1.6H39l-2.3,3.2
		l2.5,3.6h-1.4l-1.4-2.1l-0.4-0.6l-1.8,2.7H32.8z"/>
	<path class="st5" d="M40.1,377.5v-9.3h1v0.9c0.2-0.3,0.5-0.6,0.8-0.8c0.3-0.2,0.7-0.3,1.1-0.3c0.6,0,1.1,0.1,1.5,0.4s0.8,0.7,1,1.3
		c0.2,0.5,0.3,1.1,0.3,1.8c0,0.7-0.1,1.3-0.4,1.9c-0.2,0.6-0.6,1-1.1,1.3c-0.5,0.3-1,0.4-1.5,0.4c-0.4,0-0.7-0.1-1-0.2
		c-0.3-0.2-0.6-0.4-0.7-0.6v3.3H40.1z M41.1,371.6c0,0.9,0.2,1.5,0.5,1.9s0.8,0.6,1.3,0.6c0.5,0,0.9-0.2,1.3-0.6
		c0.4-0.4,0.5-1.1,0.5-2c0-0.9-0.2-1.5-0.5-1.9c-0.4-0.4-0.8-0.6-1.3-0.6c-0.5,0-0.9,0.2-1.3,0.7C41.3,370.1,41.1,370.7,41.1,371.6z
		"/>
	<path class="st5" d="M47.3,374.9v-9.3h1.1v9.3H47.3z"/>
	<path class="st5" d="M50.2,366.9v-1.3h1.1v1.3H50.2z M50.2,374.9v-6.7h1.1v6.7H50.2z"/>
	<path class="st5" d="M57.5,372.4l1.1,0.1c-0.1,0.8-0.4,1.4-0.9,1.8c-0.5,0.4-1.1,0.7-1.9,0.7c-0.9,0-1.7-0.3-2.2-0.9
		c-0.6-0.6-0.8-1.5-0.8-2.6c0-0.7,0.1-1.4,0.4-1.9s0.6-1,1.1-1.2c0.5-0.3,1-0.4,1.6-0.4c0.7,0,1.3,0.2,1.8,0.6s0.8,0.9,0.9,1.6
		l-1.1,0.2c-0.1-0.5-0.3-0.8-0.6-1c-0.3-0.2-0.6-0.3-1-0.3c-0.6,0-1,0.2-1.4,0.6c-0.4,0.4-0.5,1.1-0.5,2c0,0.9,0.2,1.6,0.5,2
		c0.3,0.4,0.8,0.6,1.4,0.6c0.4,0,0.8-0.1,1.1-0.4C57.2,373.4,57.4,373,57.5,372.4z"/>
	<path class="st5" d="M59.6,366.9v-1.3h1.1v1.3H59.6z M59.6,374.9v-6.7h1.1v6.7H59.6z"/>
	<path class="st5" d="M65,373.9l0.2,1c-0.3,0.1-0.6,0.1-0.9,0.1c-0.4,0-0.7-0.1-1-0.2c-0.2-0.1-0.4-0.3-0.5-0.5s-0.1-0.7-0.1-1.3
		v-3.9h-0.8v-0.9h0.8v-1.7l1.1-0.7v2.4H65v0.9h-1.1v3.9c0,0.3,0,0.5,0.1,0.6c0,0.1,0.1,0.2,0.2,0.2c0.1,0.1,0.2,0.1,0.4,0.1
		C64.6,373.9,64.8,373.9,65,373.9z"/>
</g>
<rect x="510" y="100" class="st3" width="10" height="79.8"/>
<g class="st4">
	<path class="st5" d="M532.7,144.5v-9.3h4.1c0.8,0,1.5,0.1,1.9,0.3s0.8,0.5,1,0.9c0.3,0.4,0.4,0.9,0.4,1.4c0,0.7-0.2,1.2-0.6,1.7
		c-0.4,0.5-1.1,0.7-2,0.9c0.3,0.2,0.6,0.3,0.7,0.5c0.4,0.3,0.7,0.7,1,1.2l1.6,2.5h-1.5l-1.2-1.9c-0.4-0.6-0.7-1-0.9-1.3
		c-0.2-0.3-0.4-0.5-0.6-0.6c-0.2-0.1-0.4-0.2-0.6-0.2c-0.1,0-0.4,0-0.7,0H534v4.1H532.7z M534,139.3h2.6c0.6,0,1-0.1,1.3-0.2
		s0.6-0.3,0.7-0.6s0.2-0.5,0.2-0.8c0-0.4-0.2-0.8-0.5-1.1c-0.3-0.3-0.8-0.4-1.5-0.4H534V139.3z"/>
	<path class="st5" d="M546.6,142.3l1.2,0.1c-0.2,0.7-0.5,1.2-1,1.6s-1.1,0.6-1.9,0.6c-1,0-1.8-0.3-2.3-0.9s-0.9-1.5-0.9-2.6
		c0-1.1,0.3-2,0.9-2.6s1.3-0.9,2.3-0.9c0.9,0,1.6,0.3,2.2,0.9c0.6,0.6,0.9,1.5,0.9,2.6c0,0.1,0,0.2,0,0.3h-5c0,0.7,0.3,1.3,0.6,1.7
		c0.4,0.4,0.8,0.6,1.4,0.6c0.4,0,0.8-0.1,1.1-0.3S546.4,142.8,546.6,142.3z M542.8,140.5h3.8c-0.1-0.6-0.2-1-0.4-1.3
		c-0.4-0.4-0.8-0.7-1.4-0.7c-0.5,0-1,0.2-1.3,0.5C543,139.4,542.8,139.9,542.8,140.5z"/>
	<path class="st5" d="M553.6,143.6c-0.4,0.4-0.8,0.6-1.2,0.8c-0.4,0.1-0.8,0.2-1.3,0.2c-0.7,0-1.3-0.2-1.7-0.5
		c-0.4-0.4-0.6-0.8-0.6-1.4c0-0.3,0.1-0.6,0.2-0.9c0.1-0.3,0.3-0.5,0.6-0.7s0.5-0.3,0.8-0.4c0.2-0.1,0.6-0.1,1-0.2
		c0.9-0.1,1.6-0.2,2-0.4c0-0.2,0-0.3,0-0.3c0-0.5-0.1-0.8-0.3-1c-0.3-0.3-0.7-0.4-1.3-0.4c-0.5,0-0.9,0.1-1.2,0.3
		c-0.3,0.2-0.4,0.5-0.6,1l-1.1-0.2c0.1-0.5,0.3-0.9,0.5-1.2s0.6-0.5,1-0.7c0.4-0.2,1-0.2,1.5-0.2c0.6,0,1,0.1,1.4,0.2
		c0.4,0.1,0.6,0.3,0.8,0.5s0.3,0.5,0.4,0.8c0,0.2,0.1,0.5,0.1,1.1v1.5c0,1.1,0,1.7,0.1,2c0,0.3,0.1,0.6,0.3,0.8h-1.2
		C553.7,144.2,553.6,144,553.6,143.6z M553.5,141.1c-0.4,0.2-1,0.3-1.9,0.4c-0.5,0.1-0.8,0.1-1,0.2c-0.2,0.1-0.3,0.2-0.5,0.4
		c-0.1,0.2-0.2,0.3-0.2,0.5c0,0.3,0.1,0.6,0.3,0.8s0.6,0.3,1,0.3c0.4,0,0.8-0.1,1.2-0.3c0.3-0.2,0.6-0.5,0.8-0.8
		c0.1-0.3,0.2-0.6,0.2-1.1V141.1z"/>
	<path class="st5" d="M555.9,142.5l1.1-0.2c0.1,0.5,0.2,0.8,0.5,1c0.3,0.2,0.7,0.4,1.2,0.4c0.5,0,0.9-0.1,1.2-0.3s0.4-0.5,0.4-0.8
		c0-0.3-0.1-0.5-0.3-0.6c-0.2-0.1-0.5-0.2-1.2-0.4c-0.8-0.2-1.4-0.4-1.7-0.5s-0.6-0.4-0.7-0.6c-0.2-0.3-0.3-0.6-0.3-0.9
		c0-0.3,0.1-0.6,0.2-0.8c0.1-0.3,0.3-0.5,0.6-0.6c0.2-0.1,0.4-0.2,0.7-0.3s0.6-0.1,1-0.1c0.5,0,1,0.1,1.4,0.2
		c0.4,0.2,0.7,0.4,0.9,0.6c0.2,0.3,0.3,0.6,0.4,1l-1.1,0.2c-0.1-0.3-0.2-0.6-0.4-0.8c-0.2-0.2-0.6-0.3-1-0.3c-0.5,0-0.9,0.1-1.1,0.3
		c-0.2,0.2-0.3,0.4-0.3,0.6c0,0.1,0,0.3,0.1,0.4c0.1,0.1,0.2,0.2,0.4,0.3c0.1,0,0.5,0.1,1,0.3c0.8,0.2,1.4,0.4,1.7,0.5
		c0.3,0.1,0.6,0.3,0.8,0.6c0.2,0.3,0.3,0.6,0.3,1c0,0.4-0.1,0.7-0.3,1.1c-0.2,0.3-0.5,0.6-1,0.8c-0.4,0.2-0.9,0.3-1.4,0.3
		c-0.9,0-1.5-0.2-2-0.5S556.1,143.2,555.9,142.5z"/>
	<path class="st5" d="M562.5,141.1c0-1.2,0.3-2.2,1-2.8c0.6-0.5,1.3-0.7,2.1-0.7c0.9,0,1.7,0.3,2.3,0.9c0.6,0.6,0.9,1.4,0.9,2.5
		c0,0.9-0.1,1.5-0.4,2s-0.6,0.9-1.1,1.2c-0.5,0.3-1,0.4-1.6,0.4c-0.9,0-1.7-0.3-2.3-0.9C562.8,143.1,562.5,142.2,562.5,141.1z
		 M563.7,141.1c0,0.9,0.2,1.5,0.6,1.9c0.4,0.4,0.8,0.6,1.4,0.6c0.6,0,1-0.2,1.4-0.6s0.6-1.1,0.6-2c0-0.8-0.2-1.5-0.6-1.9
		s-0.8-0.6-1.4-0.6c-0.6,0-1,0.2-1.4,0.6C563.8,139.6,563.7,140.2,563.7,141.1z"/>
	<path class="st5" d="M570.1,144.5v-6.7h1v1c0.5-0.7,1.2-1.1,2.1-1.1c0.4,0,0.8,0.1,1.1,0.2c0.3,0.1,0.6,0.3,0.8,0.6
		c0.2,0.2,0.3,0.5,0.4,0.8c0,0.2,0.1,0.6,0.1,1.1v4.1h-1.1v-4.1c0-0.5,0-0.8-0.1-1c-0.1-0.2-0.2-0.4-0.5-0.6s-0.5-0.2-0.8-0.2
		c-0.5,0-0.9,0.2-1.3,0.5c-0.4,0.3-0.5,0.9-0.5,1.8v3.7H570.1z"/>
	<path class="st5" d="M577.4,136.5v-1.3h1.1v1.3H577.4z M577.4,144.5v-6.7h1.1v6.7H577.4z"/>
	<path class="st5" d="M580.3,144.5v-6.7h1v1c0.5-0.7,1.2-1.1,2.1-1.1c0.4,0,0.8,0.1,1.1,0.2c0.3,0.1,0.6,0.3,0.8,0.6
		c0.2,0.2,0.3,0.5,0.4,0.8c0,0.2,0.1,0.6,0.1,1.1v4.1h-1.1v-4.1c0-0.5,0-0.8-0.1-1c-0.1-0.2-0.2-0.4-0.5-0.6
		c-0.2-0.1-0.5-0.2-0.8-0.2c-0.5,0-0.9,0.2-1.3,0.5c-0.4,0.3-0.5,0.9-0.5,1.8v3.7H580.3z"/>
	<path class="st5" d="M587.3,145l1.1,0.2c0,0.3,0.2,0.6,0.4,0.7c0.3,0.2,0.7,0.3,1.2,0.3c0.5,0,0.9-0.1,1.2-0.3
		c0.3-0.2,0.5-0.5,0.6-0.9c0.1-0.2,0.1-0.7,0.1-1.5c-0.5,0.6-1.1,0.9-1.9,0.9c-0.9,0-1.6-0.3-2.2-1s-0.8-1.5-0.8-2.4
		c0-0.6,0.1-1.2,0.3-1.8s0.6-1,1-1.3c0.4-0.3,1-0.4,1.6-0.4c0.8,0,1.5,0.3,2,1v-0.8h1.1v5.8c0,1-0.1,1.8-0.3,2.2
		c-0.2,0.4-0.6,0.8-1,1c-0.5,0.3-1,0.4-1.7,0.4c-0.8,0-1.5-0.2-1.9-0.5C587.5,146.3,587.3,145.8,587.3,145z M588.2,141
		c0,0.9,0.2,1.5,0.5,1.9c0.4,0.4,0.8,0.6,1.3,0.6c0.5,0,1-0.2,1.3-0.6s0.5-1,0.5-1.9c0-0.8-0.2-1.4-0.5-1.9
		c-0.4-0.4-0.8-0.6-1.3-0.6c-0.5,0-0.9,0.2-1.3,0.6C588.4,139.6,588.2,140.2,588.2,141z"/>
</g>
<rect x="510" y="371.7" class="st3" width="10" height="18.4"/>
<g class="st4">
	<path class="st5" d="M532.3,380.9c0-1.5,0.4-2.8,1.2-3.6c0.8-0.9,1.9-1.3,3.2-1.3c0.9,0,1.6,0.2,2.3,0.6c0.7,0.4,1.2,1,1.6,1.7
		c0.4,0.7,0.5,1.6,0.5,2.5c0,0.9-0.2,1.8-0.6,2.5s-0.9,1.3-1.6,1.7s-1.5,0.6-2.3,0.6c-0.9,0-1.7-0.2-2.3-0.6c-0.7-0.4-1.2-1-1.6-1.7
		S532.3,381.7,532.3,380.9z M533.6,380.9c0,1.1,0.3,2,0.9,2.7c0.6,0.6,1.4,1,2.3,1c0.9,0,1.7-0.3,2.3-1c0.6-0.7,0.9-1.6,0.9-2.8
		c0-0.8-0.1-1.4-0.4-2c-0.3-0.6-0.6-1-1.1-1.3c-0.5-0.3-1-0.5-1.7-0.5c-0.9,0-1.6,0.3-2.2,0.9C533.9,378.5,533.6,379.5,533.6,380.9z
		"/>
	<path class="st5" d="M542.4,380.9c0-1.5,0.4-2.8,1.2-3.6s1.9-1.3,3.2-1.3c0.9,0,1.6,0.2,2.3,0.6c0.7,0.4,1.2,1,1.6,1.7
		c0.4,0.7,0.5,1.6,0.5,2.5c0,0.9-0.2,1.8-0.6,2.5s-0.9,1.3-1.6,1.7c-0.7,0.4-1.5,0.6-2.3,0.6c-0.9,0-1.7-0.2-2.3-0.6
		c-0.7-0.4-1.2-1-1.6-1.7S542.4,381.7,542.4,380.9z M543.7,380.9c0,1.1,0.3,2,0.9,2.7s1.4,1,2.3,1c0.9,0,1.7-0.3,2.3-1
		c0.6-0.7,0.9-1.6,0.9-2.8c0-0.8-0.1-1.4-0.4-2c-0.3-0.6-0.6-1-1.1-1.3c-0.5-0.3-1-0.5-1.7-0.5c-0.9,0-1.6,0.3-2.2,0.9
		C544,378.5,543.7,379.5,543.7,380.9z"/>
	<path class="st5" d="M552.9,385.4v-9.3h3.2c0.7,0,1.3,0,1.7,0.1c0.5,0.1,1,0.3,1.4,0.7c0.5,0.4,0.9,0.9,1.1,1.6
		c0.2,0.6,0.4,1.4,0.4,2.2c0,0.7-0.1,1.3-0.2,1.9c-0.2,0.5-0.4,1-0.6,1.4c-0.3,0.4-0.5,0.6-0.8,0.8c-0.3,0.2-0.7,0.4-1.1,0.5
		c-0.4,0.1-0.9,0.2-1.5,0.2H552.9z M554.2,384.3h2c0.6,0,1.1-0.1,1.4-0.2c0.3-0.1,0.6-0.3,0.8-0.5c0.3-0.3,0.5-0.7,0.7-1.2
		c0.2-0.5,0.2-1.1,0.2-1.8c0-1-0.2-1.7-0.5-2.2s-0.7-0.9-1.2-1.1c-0.3-0.1-0.9-0.2-1.6-0.2h-2V384.3z"/>
	<path class="st5" d="M570.3,381.8v-1.1l3.9,0v3.5c-0.6,0.5-1.2,0.8-1.9,1.1s-1.3,0.4-2,0.4c-0.9,0-1.7-0.2-2.5-0.6s-1.3-1-1.7-1.7
		c-0.4-0.7-0.6-1.6-0.6-2.5c0-0.9,0.2-1.8,0.6-2.5c0.4-0.8,0.9-1.4,1.6-1.7s1.5-0.6,2.5-0.6c0.7,0,1.3,0.1,1.8,0.3s1,0.5,1.3,0.9
		s0.5,0.9,0.7,1.5L573,379c-0.1-0.5-0.3-0.8-0.5-1.1s-0.5-0.5-0.9-0.7s-0.8-0.2-1.3-0.2c-0.6,0-1,0.1-1.5,0.3
		c-0.4,0.2-0.7,0.4-1,0.7c-0.3,0.3-0.4,0.6-0.6,0.9c-0.2,0.6-0.4,1.2-0.4,1.9c0,0.8,0.1,1.5,0.4,2.1c0.3,0.6,0.7,1,1.2,1.2
		c0.5,0.3,1.1,0.4,1.7,0.4c0.5,0,1.1-0.1,1.6-0.3s0.9-0.4,1.2-0.7v-1.7H570.3z"/>
	<path class="st5" d="M580.5,383.2l1.2,0.1c-0.2,0.7-0.5,1.2-1,1.6s-1.1,0.6-1.9,0.6c-1,0-1.8-0.3-2.3-0.9s-0.9-1.5-0.9-2.6
		c0-1.1,0.3-2,0.9-2.6s1.3-0.9,2.3-0.9c0.9,0,1.6,0.3,2.2,0.9c0.6,0.6,0.9,1.5,0.9,2.6c0,0.1,0,0.2,0,0.3h-5c0,0.7,0.3,1.3,0.6,1.7
		c0.4,0.4,0.8,0.6,1.4,0.6c0.4,0,0.8-0.1,1.1-0.3S580.3,383.7,580.5,383.2z M576.8,381.4h3.8c-0.1-0.6-0.2-1-0.4-1.3
		c-0.4-0.4-0.8-0.7-1.4-0.7c-0.5,0-1,0.2-1.3,0.5C577,380.3,576.8,380.8,576.8,381.4z"/>
	<path class="st5" d="M583.1,385.4v-6.7h1v1c0.5-0.7,1.2-1.1,2.1-1.1c0.4,0,0.8,0.1,1.1,0.2c0.3,0.1,0.6,0.3,0.8,0.6
		c0.2,0.2,0.3,0.5,0.4,0.8c0,0.2,0.1,0.6,0.1,1.1v4.1h-1.1v-4.1c0-0.5,0-0.8-0.1-1c-0.1-0.2-0.2-0.4-0.5-0.6
		c-0.2-0.1-0.5-0.2-0.8-0.2c-0.5,0-0.9,0.2-1.3,0.5c-0.4,0.3-0.5,0.9-0.5,1.8v3.7H583.1z"/>
	<path class="st5" d="M595,383.2l1.2,0.1c-0.2,0.7-0.5,1.2-1,1.6s-1.1,0.6-1.9,0.6c-1,0-1.8-0.3-2.3-0.9c-0.6-0.6-0.9-1.5-0.9-2.6
		c0-1.1,0.3-2,0.9-2.6s1.3-0.9,2.3-0.9c0.9,0,1.6,0.3,2.2,0.9c0.6,0.6,0.9,1.5,0.9,2.6c0,0.1,0,0.2,0,0.3h-5c0,0.7,0.3,1.3,0.6,1.7
		c0.4,0.4,0.8,0.6,1.4,0.6c0.4,0,0.8-0.1,1.1-0.3S594.8,383.7,595,383.2z M591.2,381.4h3.8c-0.1-0.6-0.2-1-0.4-1.3
		c-0.4-0.4-0.8-0.7-1.4-0.7c-0.5,0-1,0.2-1.3,0.5C591.5,380.3,591.3,380.8,591.2,381.4z"/>
	<path class="st5" d="M597.6,385.4v-6.7h1v1c0.3-0.5,0.5-0.8,0.7-0.9c0.2-0.2,0.5-0.2,0.7-0.2c0.4,0,0.8,0.1,1.2,0.4l-0.4,1.1
		c-0.3-0.2-0.6-0.2-0.8-0.2c-0.2,0-0.5,0.1-0.7,0.2s-0.3,0.4-0.4,0.6c-0.1,0.4-0.2,0.9-0.2,1.3v3.5H597.6z"/>
	<path class="st5" d="M606.3,384.6c-0.4,0.4-0.8,0.6-1.2,0.8c-0.4,0.1-0.8,0.2-1.3,0.2c-0.7,0-1.3-0.2-1.7-0.5
		c-0.4-0.4-0.6-0.8-0.6-1.4c0-0.3,0.1-0.6,0.2-0.9c0.1-0.3,0.3-0.5,0.6-0.7s0.5-0.3,0.8-0.4c0.2-0.1,0.6-0.1,1-0.2
		c0.9-0.1,1.6-0.2,2-0.4c0-0.2,0-0.3,0-0.3c0-0.5-0.1-0.8-0.3-1c-0.3-0.3-0.7-0.4-1.3-0.4c-0.5,0-0.9,0.1-1.2,0.3
		c-0.3,0.2-0.4,0.5-0.6,1l-1.1-0.2c0.1-0.5,0.3-0.9,0.5-1.2s0.6-0.5,1-0.7c0.4-0.2,1-0.2,1.5-0.2c0.6,0,1,0.1,1.4,0.2
		c0.4,0.1,0.6,0.3,0.8,0.5s0.3,0.5,0.4,0.8c0,0.2,0.1,0.5,0.1,1.1v1.5c0,1.1,0,1.7,0.1,2c0,0.3,0.1,0.6,0.3,0.8h-1.2
		C606.4,385.2,606.3,384.9,606.3,384.6z M606.2,382c-0.4,0.2-1,0.3-1.9,0.4c-0.5,0.1-0.8,0.1-1,0.2c-0.2,0.1-0.3,0.2-0.5,0.4
		c-0.1,0.2-0.2,0.3-0.2,0.5c0,0.3,0.1,0.6,0.3,0.8s0.6,0.3,1,0.3c0.4,0,0.8-0.1,1.2-0.3c0.3-0.2,0.6-0.5,0.8-0.8
		c0.1-0.3,0.2-0.6,0.2-1.1V382z"/>
	<path class="st5" d="M609.1,385.4v-9.3h1.1v9.3H609.1z"/>
	<path class="st5" d="M612,377.4v-1.3h1.1v1.3H612z M612,385.4v-6.7h1.1v6.7H612z"/>
	<path class="st5" d="M614.3,385.4v-0.9l4.3-4.9c-0.5,0-0.9,0-1.3,0h-2.7v-0.9h5.5v0.8l-3.7,4.3l-0.7,0.8c0.5,0,1-0.1,1.4-0.1h3.1v1
		H614.3z"/>
	<path class="st5" d="M625.8,384.6c-0.4,0.4-0.8,0.6-1.2,0.8c-0.4,0.1-0.8,0.2-1.3,0.2c-0.7,0-1.3-0.2-1.7-0.5
		c-0.4-0.4-0.6-0.8-0.6-1.4c0-0.3,0.1-0.6,0.2-0.9c0.1-0.3,0.3-0.5,0.6-0.7c0.2-0.2,0.5-0.3,0.8-0.4c0.2-0.1,0.6-0.1,1-0.2
		c0.9-0.1,1.6-0.2,2-0.4c0-0.2,0-0.3,0-0.3c0-0.5-0.1-0.8-0.3-1c-0.3-0.3-0.7-0.4-1.3-0.4c-0.5,0-0.9,0.1-1.2,0.3s-0.4,0.5-0.6,1
		l-1.1-0.2c0.1-0.5,0.3-0.9,0.5-1.2c0.2-0.3,0.6-0.5,1-0.7c0.4-0.2,1-0.2,1.5-0.2c0.6,0,1,0.1,1.4,0.2s0.6,0.3,0.8,0.5
		c0.2,0.2,0.3,0.5,0.4,0.8c0,0.2,0.1,0.5,0.1,1.1v1.5c0,1.1,0,1.7,0.1,2s0.1,0.6,0.3,0.8H626C625.9,385.2,625.8,384.9,625.8,384.6z
		 M625.7,382c-0.4,0.2-1,0.3-1.9,0.4c-0.5,0.1-0.8,0.1-1,0.2c-0.2,0.1-0.3,0.2-0.5,0.4s-0.2,0.3-0.2,0.5c0,0.3,0.1,0.6,0.3,0.8
		c0.2,0.2,0.6,0.3,1,0.3c0.4,0,0.8-0.1,1.2-0.3s0.6-0.5,0.8-0.8c0.1-0.3,0.2-0.6,0.2-1.1V382z"/>
	<path class="st5" d="M631.1,384.4l0.2,1c-0.3,0.1-0.6,0.1-0.9,0.1c-0.4,0-0.7-0.1-1-0.2c-0.2-0.1-0.4-0.3-0.5-0.5s-0.1-0.7-0.1-1.3
		v-3.9H628v-0.9h0.8V377l1.1-0.7v2.4h1.1v0.9H630v3.9c0,0.3,0,0.5,0.1,0.6c0,0.1,0.1,0.2,0.2,0.2c0.1,0.1,0.2,0.1,0.4,0.1
		C630.8,384.4,630.9,384.4,631.1,384.4z"/>
	<path class="st5" d="M632.3,377.4v-1.3h1.1v1.3H632.3z M632.3,385.4v-6.7h1.1v6.7H632.3z"/>
	<path class="st5" d="M634.7,382c0-1.2,0.3-2.2,1-2.8c0.6-0.5,1.3-0.7,2.1-0.7c0.9,0,1.7,0.3,2.3,0.9s0.9,1.4,0.9,2.5
		c0,0.9-0.1,1.5-0.4,2c-0.3,0.5-0.6,0.9-1.1,1.2c-0.5,0.3-1,0.4-1.6,0.4c-0.9,0-1.7-0.3-2.3-0.9C635,384.1,634.7,383.2,634.7,382z
		 M635.9,382c0,0.9,0.2,1.5,0.6,1.9s0.9,0.6,1.4,0.6c0.6,0,1-0.2,1.4-0.6c0.4-0.4,0.6-1.1,0.6-2c0-0.8-0.2-1.5-0.6-1.9
		s-0.8-0.6-1.4-0.6c-0.6,0-1,0.2-1.4,0.6S635.9,381.2,635.9,382z"/>
	<path class="st5" d="M642.4,385.4v-6.7h1v1c0.5-0.7,1.2-1.1,2.1-1.1c0.4,0,0.8,0.1,1.1,0.2c0.3,0.1,0.6,0.3,0.8,0.6
		c0.2,0.2,0.3,0.5,0.4,0.8c0,0.2,0.1,0.6,0.1,1.1v4.1h-1.1v-4.1c0-0.5,0-0.8-0.1-1s-0.2-0.4-0.5-0.6c-0.2-0.1-0.5-0.2-0.8-0.2
		c-0.5,0-0.9,0.2-1.3,0.5c-0.4,0.3-0.5,0.9-0.5,1.8v3.7H642.4z"/>
</g>
<rect x="510" y="324.1" class="st3" width="10" height="22.6"/>
<g class="st4">
	<path class="st5" d="M532.9,339.9v-9.3h1.2v9.3H532.9z"/>
	<path class="st5" d="M536.2,339.9v-6.7h1v1c0.5-0.7,1.2-1.1,2.1-1.1c0.4,0,0.8,0.1,1.1,0.2c0.3,0.1,0.6,0.3,0.8,0.6
		c0.2,0.2,0.3,0.5,0.4,0.8c0,0.2,0.1,0.6,0.1,1.1v4.1h-1.1v-4.1c0-0.5,0-0.8-0.1-1c-0.1-0.2-0.2-0.4-0.5-0.6
		c-0.2-0.1-0.5-0.2-0.8-0.2c-0.5,0-0.9,0.2-1.3,0.5c-0.4,0.3-0.5,0.9-0.5,1.8v3.7H536.2z"/>
	<path class="st5" d="M545.9,338.9l0.2,1c-0.3,0.1-0.6,0.1-0.9,0.1c-0.4,0-0.7-0.1-1-0.2c-0.2-0.1-0.4-0.3-0.5-0.5
		c-0.1-0.2-0.1-0.7-0.1-1.3v-3.9h-0.8v-0.9h0.8v-1.7l1.1-0.7v2.4h1.1v0.9h-1.1v3.9c0,0.3,0,0.5,0.1,0.6c0,0.1,0.1,0.2,0.2,0.2
		c0.1,0.1,0.2,0.1,0.4,0.1C545.5,339,545.7,338.9,545.9,338.9z"/>
	<path class="st5" d="M551.6,337.8l1.2,0.1c-0.2,0.7-0.5,1.2-1,1.6c-0.5,0.4-1.1,0.6-1.9,0.6c-1,0-1.8-0.3-2.3-0.9
		c-0.6-0.6-0.9-1.5-0.9-2.6c0-1.1,0.3-2,0.9-2.6s1.3-0.9,2.3-0.9c0.9,0,1.6,0.3,2.2,0.9c0.6,0.6,0.9,1.5,0.9,2.6c0,0.1,0,0.2,0,0.3
		h-5c0,0.7,0.3,1.3,0.6,1.7c0.4,0.4,0.8,0.6,1.4,0.6c0.4,0,0.8-0.1,1.1-0.3C551.2,338.6,551.5,338.2,551.6,337.8z M547.9,335.9h3.8
		c-0.1-0.6-0.2-1-0.4-1.3c-0.4-0.4-0.8-0.7-1.4-0.7c-0.5,0-1,0.2-1.3,0.5C548.1,334.9,547.9,335.3,547.9,335.9z"/>
	<path class="st5" d="M554.2,339.9v-6.7h1v1c0.3-0.5,0.5-0.8,0.7-0.9s0.5-0.2,0.7-0.2c0.4,0,0.8,0.1,1.2,0.4l-0.4,1.1
		c-0.3-0.2-0.6-0.2-0.8-0.2c-0.2,0-0.5,0.1-0.7,0.2c-0.2,0.2-0.3,0.4-0.4,0.6c-0.1,0.4-0.2,0.9-0.2,1.3v3.5H554.2z"/>
	<path class="st5" d="M558.6,342.5v-9.3h1v0.9c0.2-0.3,0.5-0.6,0.8-0.8c0.3-0.2,0.7-0.3,1.1-0.3c0.6,0,1.1,0.1,1.5,0.4
		s0.8,0.7,1,1.3c0.2,0.5,0.3,1.1,0.3,1.8c0,0.7-0.1,1.3-0.4,1.9c-0.2,0.6-0.6,1-1.1,1.3c-0.5,0.3-1,0.4-1.5,0.4
		c-0.4,0-0.7-0.1-1-0.2c-0.3-0.2-0.6-0.4-0.7-0.6v3.3H558.6z M559.6,336.6c0,0.9,0.2,1.5,0.5,1.9s0.8,0.6,1.3,0.6
		c0.5,0,0.9-0.2,1.3-0.6s0.5-1.1,0.5-2c0-0.9-0.2-1.5-0.5-1.9c-0.4-0.4-0.8-0.6-1.3-0.6c-0.5,0-0.9,0.2-1.3,0.7
		S559.6,335.7,559.6,336.6z"/>
	<path class="st5" d="M565.8,339.9v-6.7h1v1c0.3-0.5,0.5-0.8,0.7-0.9c0.2-0.2,0.5-0.2,0.7-0.2c0.4,0,0.8,0.1,1.2,0.4l-0.4,1.1
		c-0.3-0.2-0.6-0.2-0.8-0.2c-0.2,0-0.5,0.1-0.7,0.2s-0.3,0.4-0.4,0.6c-0.1,0.4-0.2,0.9-0.2,1.3v3.5H565.8z"/>
	<path class="st5" d="M574.7,337.8l1.2,0.1c-0.2,0.7-0.5,1.2-1,1.6c-0.5,0.4-1.1,0.6-1.9,0.6c-1,0-1.8-0.3-2.3-0.9
		c-0.6-0.6-0.9-1.5-0.9-2.6c0-1.1,0.3-2,0.9-2.6s1.3-0.9,2.3-0.9c0.9,0,1.6,0.3,2.2,0.9c0.6,0.6,0.9,1.5,0.9,2.6c0,0.1,0,0.2,0,0.3
		h-5c0,0.7,0.3,1.3,0.6,1.7c0.4,0.4,0.8,0.6,1.4,0.6c0.4,0,0.8-0.1,1.1-0.3C574.3,338.6,574.6,338.2,574.7,337.8z M571,335.9h3.8
		c-0.1-0.6-0.2-1-0.4-1.3c-0.4-0.4-0.8-0.7-1.4-0.7c-0.5,0-1,0.2-1.3,0.5C571.2,334.9,571,335.3,571,335.9z"/>
	<path class="st5" d="M579.9,338.9l0.2,1c-0.3,0.1-0.6,0.1-0.9,0.1c-0.4,0-0.7-0.1-1-0.2c-0.2-0.1-0.4-0.3-0.5-0.5
		c-0.1-0.2-0.1-0.7-0.1-1.3v-3.9h-0.8v-0.9h0.8v-1.7l1.1-0.7v2.4h1.1v0.9h-1.1v3.9c0,0.3,0,0.5,0.1,0.6c0,0.1,0.1,0.2,0.2,0.2
		c0.1,0.1,0.2,0.1,0.4,0.1C579.5,339,579.6,338.9,579.9,338.9z"/>
	<path class="st5" d="M585.4,339.1c-0.4,0.4-0.8,0.6-1.2,0.8c-0.4,0.1-0.8,0.2-1.3,0.2c-0.7,0-1.3-0.2-1.7-0.5
		c-0.4-0.4-0.6-0.8-0.6-1.4c0-0.3,0.1-0.6,0.2-0.9c0.2-0.3,0.3-0.5,0.6-0.7c0.2-0.2,0.5-0.3,0.8-0.4c0.2-0.1,0.6-0.1,1-0.2
		c0.9-0.1,1.6-0.2,2-0.4c0-0.2,0-0.3,0-0.3c0-0.5-0.1-0.8-0.3-1c-0.3-0.3-0.7-0.4-1.3-0.4c-0.5,0-0.9,0.1-1.2,0.3s-0.4,0.5-0.6,1
		l-1.1-0.2c0.1-0.5,0.3-0.9,0.5-1.2s0.6-0.5,1-0.7c0.4-0.2,0.9-0.2,1.5-0.2c0.6,0,1,0.1,1.4,0.2c0.4,0.1,0.6,0.3,0.8,0.5
		s0.3,0.5,0.4,0.8c0,0.2,0.1,0.5,0.1,1.1v1.5c0,1.1,0,1.7,0.1,2s0.1,0.6,0.3,0.8h-1.2C585.5,339.7,585.4,339.4,585.4,339.1z
		 M585.3,336.5c-0.4,0.2-1,0.3-1.9,0.4c-0.5,0.1-0.8,0.1-1,0.2c-0.2,0.1-0.3,0.2-0.5,0.4c-0.1,0.2-0.2,0.3-0.2,0.5
		c0,0.3,0.1,0.6,0.3,0.8c0.2,0.2,0.6,0.3,1,0.3c0.4,0,0.8-0.1,1.2-0.3c0.3-0.2,0.6-0.5,0.8-0.8c0.1-0.3,0.2-0.6,0.2-1.1V336.5z"/>
	<path class="st5" d="M589.3,339.9h-1.1v-9.3h1.1v3.3c0.5-0.6,1.1-0.9,1.8-0.9c0.4,0,0.8,0.1,1.2,0.3c0.4,0.2,0.7,0.4,0.9,0.7
		c0.2,0.3,0.4,0.7,0.6,1.1c0.1,0.4,0.2,0.9,0.2,1.4c0,1.2-0.3,2-0.9,2.7c-0.6,0.6-1.3,0.9-2.1,0.9c-0.8,0-1.4-0.3-1.9-1V339.9z
		 M589.2,336.5c0,0.8,0.1,1.4,0.3,1.8c0.4,0.6,0.8,0.9,1.5,0.9c0.5,0,0.9-0.2,1.3-0.7s0.5-1.1,0.5-1.9c0-0.9-0.2-1.5-0.5-1.9
		c-0.3-0.4-0.8-0.6-1.3-0.6c-0.5,0-0.9,0.2-1.3,0.7S589.2,335.7,589.2,336.5z"/>
	<path class="st5" d="M595.4,331.9v-1.3h1.1v1.3H595.4z M595.4,339.9v-6.7h1.1v6.7H595.4z"/>
	<path class="st5" d="M598.3,339.9v-9.3h1.1v9.3H598.3z"/>
	<path class="st5" d="M601.2,331.9v-1.3h1.1v1.3H601.2z M601.2,339.9v-6.7h1.1v6.7H601.2z"/>
	<path class="st5" d="M606.6,338.9l0.2,1c-0.3,0.1-0.6,0.1-0.9,0.1c-0.4,0-0.7-0.1-1-0.2c-0.2-0.1-0.4-0.3-0.5-0.5
		c-0.1-0.2-0.1-0.7-0.1-1.3v-3.9h-0.8v-0.9h0.8v-1.7l1.1-0.7v2.4h1.1v0.9h-1.1v3.9c0,0.3,0,0.5,0.1,0.6c0,0.1,0.1,0.2,0.2,0.2
		c0.1,0.1,0.2,0.1,0.4,0.1C606.2,339,606.4,338.9,606.6,338.9z"/>
	<path class="st5" d="M607.7,342.5l-0.1-1.1c0.2,0.1,0.5,0.1,0.7,0.1c0.3,0,0.5,0,0.6-0.1s0.3-0.2,0.4-0.4c0.1-0.1,0.2-0.4,0.3-0.9
		c0-0.1,0.1-0.2,0.1-0.3l-2.6-6.8h1.2l1.4,3.9c0.2,0.5,0.3,1,0.5,1.6c0.1-0.5,0.3-1,0.5-1.5l1.4-3.9h1.1l-2.6,6.9
		c-0.3,0.7-0.5,1.3-0.6,1.5c-0.2,0.4-0.4,0.7-0.7,0.8c-0.3,0.2-0.6,0.3-0.9,0.3C608.2,342.7,607.9,342.6,607.7,342.5z"/>
</g>
<rect x="510" y="280.7" class="st3" width="10" height="18.4"/>
<g class="st4">
	<path class="st5" d="M532.7,294.4v-9.3h4.1c0.8,0,1.5,0.1,1.9,0.3s0.8,0.5,1,0.9c0.3,0.4,0.4,0.9,0.4,1.4c0,0.7-0.2,1.2-0.6,1.7
		c-0.4,0.5-1.1,0.7-2,0.9c0.3,0.2,0.6,0.3,0.7,0.5c0.4,0.3,0.7,0.7,1,1.2l1.6,2.5h-1.5l-1.2-1.9c-0.4-0.6-0.7-1-0.9-1.3
		c-0.2-0.3-0.4-0.5-0.6-0.6c-0.2-0.1-0.4-0.2-0.6-0.2c-0.1,0-0.4,0-0.7,0H534v4.1H532.7z M534,289.2h2.6c0.6,0,1-0.1,1.3-0.2
		c0.3-0.1,0.6-0.3,0.7-0.6c0.2-0.3,0.2-0.5,0.2-0.8c0-0.4-0.2-0.8-0.5-1.1c-0.3-0.3-0.8-0.4-1.5-0.4H534V289.2z"/>
	<path class="st5" d="M546.6,292.3l1.2,0.1c-0.2,0.7-0.5,1.2-1,1.6c-0.5,0.4-1.1,0.6-1.9,0.6c-1,0-1.8-0.3-2.3-0.9
		c-0.6-0.6-0.9-1.5-0.9-2.6c0-1.1,0.3-2,0.9-2.6s1.3-0.9,2.3-0.9c0.9,0,1.6,0.3,2.2,0.9c0.6,0.6,0.9,1.5,0.9,2.6c0,0.1,0,0.2,0,0.3
		h-5c0,0.7,0.3,1.3,0.6,1.7c0.4,0.4,0.8,0.6,1.4,0.6c0.4,0,0.8-0.1,1.1-0.3C546.2,293.1,546.4,292.8,546.6,292.3z M542.8,290.4h3.8
		c-0.1-0.6-0.2-1-0.4-1.3c-0.4-0.4-0.8-0.7-1.4-0.7c-0.5,0-1,0.2-1.3,0.5C543,289.4,542.8,289.8,542.8,290.4z"/>
	<path class="st5" d="M553.5,294.4v-0.9c-0.4,0.7-1.1,1-1.9,1c-0.5,0-1-0.1-1.5-0.4s-0.8-0.7-1-1.2s-0.4-1.1-0.4-1.8
		c0-0.7,0.1-1.3,0.3-1.8s0.6-1,1-1.3c0.4-0.3,0.9-0.4,1.5-0.4c0.4,0,0.8,0.1,1.1,0.3c0.3,0.2,0.6,0.4,0.8,0.7v-3.3h1.1v9.3H553.5z
		 M549.9,291.1c0,0.9,0.2,1.5,0.5,1.9c0.4,0.4,0.8,0.6,1.3,0.6c0.5,0,0.9-0.2,1.3-0.6s0.5-1,0.5-1.9c0-0.9-0.2-1.6-0.5-2
		s-0.8-0.6-1.3-0.6c-0.5,0-0.9,0.2-1.3,0.6C550.1,289.5,549.9,290.2,549.9,291.1z"/>
	<path class="st5" d="M560.8,294.4v-1c-0.5,0.8-1.2,1.1-2.1,1.1c-0.4,0-0.8-0.1-1.1-0.2c-0.3-0.2-0.6-0.3-0.8-0.6
		c-0.2-0.2-0.3-0.5-0.4-0.8c0-0.2-0.1-0.6-0.1-1.1v-4.2h1.1v3.7c0,0.6,0,1,0.1,1.2c0.1,0.3,0.2,0.5,0.5,0.7c0.2,0.2,0.5,0.3,0.9,0.3
		s0.7-0.1,1-0.3s0.5-0.4,0.6-0.7s0.2-0.7,0.2-1.3v-3.6h1.1v6.7H560.8z"/>
	<path class="st5" d="M568,292l1.1,0.1c-0.1,0.8-0.4,1.4-0.9,1.8c-0.5,0.4-1.1,0.7-1.9,0.7c-0.9,0-1.7-0.3-2.2-0.9
		c-0.6-0.6-0.8-1.5-0.8-2.6c0-0.7,0.1-1.4,0.4-1.9s0.6-1,1.1-1.2c0.5-0.3,1-0.4,1.6-0.4c0.7,0,1.3,0.2,1.8,0.6s0.8,0.9,0.9,1.6
		l-1.1,0.2c-0.1-0.5-0.3-0.8-0.6-1c-0.3-0.2-0.6-0.3-1-0.3c-0.6,0-1,0.2-1.4,0.6c-0.4,0.4-0.5,1.1-0.5,2c0,0.9,0.2,1.6,0.5,2
		c0.3,0.4,0.8,0.6,1.4,0.6c0.4,0,0.8-0.1,1.1-0.4C567.8,293,568,292.5,568,292z"/>
	<path class="st5" d="M574.7,292.3l1.2,0.1c-0.2,0.7-0.5,1.2-1,1.6s-1.1,0.6-1.9,0.6c-1,0-1.8-0.3-2.3-0.9s-0.9-1.5-0.9-2.6
		c0-1.1,0.3-2,0.9-2.6s1.3-0.9,2.3-0.9c0.9,0,1.6,0.3,2.2,0.9c0.6,0.6,0.9,1.5,0.9,2.6c0,0.1,0,0.2,0,0.3h-5c0,0.7,0.3,1.3,0.6,1.7
		c0.4,0.4,0.8,0.6,1.4,0.6c0.4,0,0.8-0.1,1.1-0.3S574.6,292.8,574.7,292.3z M571,290.4h3.8c-0.1-0.6-0.2-1-0.4-1.3
		c-0.4-0.4-0.8-0.7-1.4-0.7c-0.5,0-1,0.2-1.3,0.5C571.2,289.4,571,289.8,571,290.4z"/>
	<path class="st5" d="M581.7,294.4v-0.9c-0.4,0.7-1.1,1-1.9,1c-0.5,0-1-0.1-1.5-0.4c-0.5-0.3-0.8-0.7-1-1.2
		c-0.2-0.5-0.4-1.1-0.4-1.8c0-0.7,0.1-1.3,0.3-1.8c0.2-0.5,0.6-1,1-1.3c0.4-0.3,1-0.4,1.5-0.4c0.4,0,0.8,0.1,1.1,0.3
		c0.3,0.2,0.6,0.4,0.8,0.7v-3.3h1.1v9.3H581.7z M578.1,291.1c0,0.9,0.2,1.5,0.5,1.9c0.4,0.4,0.8,0.6,1.3,0.6c0.5,0,0.9-0.2,1.3-0.6
		c0.3-0.4,0.5-1,0.5-1.9c0-0.9-0.2-1.6-0.5-2s-0.8-0.6-1.3-0.6c-0.5,0-0.9,0.2-1.3,0.6C578.3,289.5,578.1,290.2,578.1,291.1z"/>
	<path class="st5" d="M588.4,294.4v-9.3h3.2c0.7,0,1.3,0,1.7,0.1c0.5,0.1,1,0.3,1.4,0.7c0.5,0.4,0.9,0.9,1.1,1.6
		c0.2,0.6,0.4,1.4,0.4,2.2c0,0.7-0.1,1.3-0.2,1.9c-0.2,0.5-0.4,1-0.6,1.4c-0.3,0.4-0.5,0.6-0.8,0.8c-0.3,0.2-0.7,0.4-1.1,0.5
		c-0.4,0.1-0.9,0.2-1.5,0.2H588.4z M589.6,293.3h2c0.6,0,1.1-0.1,1.4-0.2c0.3-0.1,0.6-0.3,0.8-0.5c0.3-0.3,0.5-0.7,0.7-1.2
		c0.2-0.5,0.2-1.1,0.2-1.8c0-1-0.2-1.7-0.5-2.2s-0.7-0.9-1.2-1.1c-0.3-0.1-0.9-0.2-1.6-0.2h-2V293.3z"/>
	<path class="st5" d="M602,293.6c-0.4,0.4-0.8,0.6-1.2,0.8c-0.4,0.1-0.8,0.2-1.3,0.2c-0.7,0-1.3-0.2-1.7-0.5
		c-0.4-0.4-0.6-0.8-0.6-1.4c0-0.3,0.1-0.6,0.2-0.9c0.2-0.3,0.3-0.5,0.6-0.7c0.2-0.2,0.5-0.3,0.8-0.4c0.2-0.1,0.6-0.1,1-0.2
		c0.9-0.1,1.6-0.2,2-0.4c0-0.2,0-0.3,0-0.3c0-0.5-0.1-0.8-0.3-1c-0.3-0.3-0.7-0.4-1.3-0.4c-0.5,0-0.9,0.1-1.2,0.3
		c-0.3,0.2-0.4,0.5-0.6,1l-1.1-0.2c0.1-0.5,0.3-0.9,0.5-1.2c0.2-0.3,0.6-0.5,1-0.7c0.4-0.2,1-0.2,1.5-0.2c0.6,0,1,0.1,1.4,0.2
		s0.6,0.3,0.8,0.5c0.2,0.2,0.3,0.5,0.4,0.8c0,0.2,0.1,0.5,0.1,1.1v1.5c0,1.1,0,1.7,0.1,2c0,0.3,0.1,0.6,0.3,0.8h-1.2
		C602.1,294.2,602,293.9,602,293.6z M601.9,291.1c-0.4,0.2-1,0.3-1.9,0.4c-0.5,0.1-0.8,0.1-1,0.2c-0.2,0.1-0.3,0.2-0.5,0.4
		s-0.2,0.3-0.2,0.5c0,0.3,0.1,0.6,0.3,0.8s0.6,0.3,1,0.3c0.4,0,0.8-0.1,1.2-0.3s0.6-0.5,0.8-0.8c0.1-0.3,0.2-0.6,0.2-1.1V291.1z"/>
	<path class="st5" d="M607.3,293.4l0.2,1c-0.3,0.1-0.6,0.1-0.9,0.1c-0.4,0-0.7-0.1-1-0.2c-0.2-0.1-0.4-0.3-0.5-0.5s-0.1-0.7-0.1-1.3
		v-3.9h-0.8v-0.9h0.8V286l1.1-0.7v2.4h1.1v0.9h-1.1v3.9c0,0.3,0,0.5,0.1,0.6s0.1,0.2,0.2,0.2c0.1,0.1,0.2,0.1,0.4,0.1
		C606.9,293.5,607.1,293.4,607.3,293.4z"/>
	<path class="st5" d="M612.8,293.6c-0.4,0.4-0.8,0.6-1.2,0.8c-0.4,0.1-0.8,0.2-1.3,0.2c-0.7,0-1.3-0.2-1.7-0.5
		c-0.4-0.4-0.6-0.8-0.6-1.4c0-0.3,0.1-0.6,0.2-0.9c0.2-0.3,0.3-0.5,0.6-0.7c0.2-0.2,0.5-0.3,0.8-0.4c0.2-0.1,0.6-0.1,1-0.2
		c0.9-0.1,1.6-0.2,2-0.4c0-0.2,0-0.3,0-0.3c0-0.5-0.1-0.8-0.3-1c-0.3-0.3-0.7-0.4-1.3-0.4c-0.5,0-0.9,0.1-1.2,0.3
		c-0.3,0.2-0.4,0.5-0.6,1l-1.1-0.2c0.1-0.5,0.3-0.9,0.5-1.2c0.2-0.3,0.6-0.5,1-0.7c0.4-0.2,1-0.2,1.5-0.2c0.6,0,1,0.1,1.4,0.2
		s0.6,0.3,0.8,0.5c0.2,0.2,0.3,0.5,0.4,0.8c0,0.2,0.1,0.5,0.1,1.1v1.5c0,1.1,0,1.7,0.1,2c0,0.3,0.1,0.6,0.3,0.8h-1.2
		C612.9,294.2,612.9,293.9,612.8,293.6z M612.7,291.1c-0.4,0.2-1,0.3-1.9,0.4c-0.5,0.1-0.8,0.1-1,0.2c-0.2,0.1-0.3,0.2-0.5,0.4
		s-0.2,0.3-0.2,0.5c0,0.3,0.1,0.6,0.3,0.8s0.6,0.3,1,0.3c0.4,0,0.8-0.1,1.2-0.3s0.6-0.5,0.8-0.8c0.1-0.3,0.2-0.6,0.2-1.1V291.1z"/>
</g>
<rect x="510" y="415.1" class="st3" width="10" height="4.9"/>
<g class="st4">
	<path class="st5" d="M535.1,422.1v-8.2H532v-1.1h7.4v1.1h-3.1v8.2H535.1z"/>
	<path class="st5" d="M540,422.1v-6.7h1v1c0.3-0.5,0.5-0.8,0.7-0.9c0.2-0.2,0.5-0.2,0.7-0.2c0.4,0,0.8,0.1,1.2,0.4l-0.4,1.1
		c-0.3-0.2-0.6-0.2-0.8-0.2c-0.2,0-0.5,0.1-0.7,0.2s-0.3,0.4-0.4,0.6c-0.1,0.4-0.2,0.9-0.2,1.3v3.5H540z"/>
	<path class="st5" d="M548.7,421.2c-0.4,0.4-0.8,0.6-1.2,0.8c-0.4,0.1-0.8,0.2-1.3,0.2c-0.7,0-1.3-0.2-1.7-0.5
		c-0.4-0.4-0.6-0.8-0.6-1.4c0-0.3,0.1-0.6,0.2-0.9c0.2-0.3,0.3-0.5,0.6-0.7c0.2-0.2,0.5-0.3,0.8-0.4c0.2-0.1,0.6-0.1,1-0.2
		c0.9-0.1,1.6-0.2,2-0.4c0-0.2,0-0.3,0-0.3c0-0.5-0.1-0.8-0.3-1c-0.3-0.3-0.7-0.4-1.3-0.4c-0.5,0-0.9,0.1-1.2,0.3s-0.4,0.5-0.6,1
		l-1.1-0.2c0.1-0.5,0.3-0.9,0.5-1.2s0.6-0.5,1-0.7c0.4-0.2,0.9-0.2,1.5-0.2c0.6,0,1,0.1,1.4,0.2c0.4,0.1,0.6,0.3,0.8,0.5
		s0.3,0.5,0.4,0.8c0,0.2,0.1,0.5,0.1,1.1v1.5c0,1.1,0,1.7,0.1,2s0.1,0.6,0.3,0.8H549C548.9,421.8,548.8,421.6,548.7,421.2z
		 M548.6,418.7c-0.4,0.2-1,0.3-1.9,0.4c-0.5,0.1-0.8,0.1-1,0.2c-0.2,0.1-0.3,0.2-0.5,0.4c-0.1,0.2-0.2,0.3-0.2,0.5
		c0,0.3,0.1,0.6,0.3,0.8c0.2,0.2,0.6,0.3,1,0.3c0.4,0,0.8-0.1,1.2-0.3c0.3-0.2,0.6-0.5,0.8-0.8c0.1-0.3,0.2-0.6,0.2-1.1V418.7z"/>
	<path class="st5" d="M551.6,422.1v-6.7h1v1c0.5-0.7,1.2-1.1,2.1-1.1c0.4,0,0.8,0.1,1.1,0.2c0.3,0.1,0.6,0.3,0.8,0.6
		c0.2,0.2,0.3,0.5,0.4,0.8c0,0.2,0.1,0.6,0.1,1.1v4.1h-1.1V418c0-0.5,0-0.8-0.1-1s-0.2-0.4-0.5-0.6s-0.5-0.2-0.8-0.2
		c-0.5,0-0.9,0.2-1.3,0.5c-0.4,0.3-0.5,0.9-0.5,1.8v3.7H551.6z"/>
	<path class="st5" d="M558.3,420.1l1.1-0.2c0.1,0.5,0.2,0.8,0.5,1c0.3,0.2,0.7,0.4,1.2,0.4c0.5,0,0.9-0.1,1.2-0.3s0.4-0.5,0.4-0.8
		c0-0.3-0.1-0.5-0.3-0.6c-0.2-0.1-0.5-0.2-1.2-0.4c-0.8-0.2-1.4-0.4-1.7-0.5c-0.3-0.2-0.6-0.4-0.7-0.6c-0.2-0.3-0.2-0.6-0.2-0.9
		c0-0.3,0.1-0.6,0.2-0.8s0.3-0.5,0.6-0.6c0.2-0.1,0.4-0.2,0.7-0.3s0.6-0.1,1-0.1c0.5,0,1,0.1,1.4,0.2c0.4,0.2,0.7,0.4,0.9,0.6
		c0.2,0.3,0.3,0.6,0.4,1l-1.1,0.2c-0.1-0.3-0.2-0.6-0.4-0.8c-0.2-0.2-0.6-0.3-1-0.3c-0.5,0-0.9,0.1-1.1,0.3
		c-0.2,0.2-0.3,0.4-0.3,0.6c0,0.1,0,0.3,0.1,0.4c0.1,0.1,0.2,0.2,0.4,0.3c0.1,0,0.5,0.1,1,0.3c0.8,0.2,1.4,0.4,1.7,0.5
		c0.3,0.1,0.6,0.3,0.8,0.6s0.3,0.6,0.3,1c0,0.4-0.1,0.7-0.3,1.1c-0.2,0.3-0.5,0.6-1,0.8c-0.4,0.2-0.9,0.3-1.4,0.3
		c-0.9,0-1.5-0.2-2-0.5C558.8,421.3,558.5,420.8,558.3,420.1z"/>
	<path class="st5" d="M565.6,422.1v-5.9h-1v-0.9h1v-0.7c0-0.5,0-0.8,0.1-1c0.1-0.3,0.3-0.5,0.6-0.7c0.3-0.2,0.7-0.3,1.2-0.3
		c0.3,0,0.7,0,1.1,0.1l-0.2,1c-0.2,0-0.5-0.1-0.7-0.1c-0.3,0-0.6,0.1-0.7,0.2c-0.1,0.1-0.2,0.4-0.2,0.8v0.6h1.3v0.9h-1.3v5.9H565.6z
		"/>
	<path class="st5" d="M573.5,419.9l1.2,0.1c-0.2,0.7-0.5,1.2-1,1.6s-1.1,0.6-1.9,0.6c-1,0-1.8-0.3-2.3-0.9s-0.9-1.5-0.9-2.6
		c0-1.1,0.3-2,0.9-2.6s1.3-0.9,2.3-0.9c0.9,0,1.6,0.3,2.2,0.9c0.6,0.6,0.9,1.5,0.9,2.6c0,0.1,0,0.2,0,0.3h-5c0,0.7,0.3,1.3,0.6,1.7
		c0.4,0.4,0.8,0.6,1.4,0.6c0.4,0,0.8-0.1,1.1-0.3S573.4,420.4,573.5,419.9z M569.8,418.1h3.8c-0.1-0.6-0.2-1-0.4-1.3
		c-0.4-0.4-0.8-0.7-1.4-0.7c-0.5,0-1,0.2-1.3,0.5C570,417,569.8,417.5,569.8,418.1z"/>
	<path class="st5" d="M576.1,422.1v-6.7h1v1c0.3-0.5,0.5-0.8,0.7-0.9c0.2-0.2,0.5-0.2,0.7-0.2c0.4,0,0.8,0.1,1.2,0.4l-0.4,1.1
		c-0.3-0.2-0.6-0.2-0.8-0.2c-0.2,0-0.5,0.1-0.7,0.2s-0.3,0.4-0.4,0.6c-0.1,0.4-0.2,0.9-0.2,1.3v3.5H576.1z"/>
	<path class="st5" d="M584.9,421.2c-0.4,0.4-0.8,0.6-1.2,0.8c-0.4,0.1-0.8,0.2-1.3,0.2c-0.7,0-1.3-0.2-1.7-0.5
		c-0.4-0.4-0.6-0.8-0.6-1.4c0-0.3,0.1-0.6,0.2-0.9c0.2-0.3,0.3-0.5,0.6-0.7c0.2-0.2,0.5-0.3,0.8-0.4c0.2-0.1,0.6-0.1,1-0.2
		c0.9-0.1,1.6-0.2,2-0.4c0-0.2,0-0.3,0-0.3c0-0.5-0.1-0.8-0.3-1c-0.3-0.3-0.7-0.4-1.3-0.4c-0.5,0-0.9,0.1-1.2,0.3s-0.4,0.5-0.6,1
		l-1.1-0.2c0.1-0.5,0.3-0.9,0.5-1.2s0.6-0.5,1-0.7c0.4-0.2,0.9-0.2,1.5-0.2c0.6,0,1,0.1,1.4,0.2c0.4,0.1,0.6,0.3,0.8,0.5
		s0.3,0.5,0.4,0.8c0,0.2,0.1,0.5,0.1,1.1v1.5c0,1.1,0,1.7,0.1,2s0.1,0.6,0.3,0.8h-1.2C585,421.8,584.9,421.6,584.9,421.2z
		 M584.8,418.7c-0.4,0.2-1,0.3-1.9,0.4c-0.5,0.1-0.8,0.1-1,0.2c-0.2,0.1-0.3,0.2-0.5,0.4c-0.1,0.2-0.2,0.3-0.2,0.5
		c0,0.3,0.1,0.6,0.3,0.8c0.2,0.2,0.6,0.3,1,0.3c0.4,0,0.8-0.1,1.2-0.3c0.3-0.2,0.6-0.5,0.8-0.8c0.1-0.3,0.2-0.6,0.2-1.1V418.7z"/>
	<path class="st5" d="M588.8,422.1h-1.1v-9.3h1.1v3.3c0.5-0.6,1.1-0.9,1.8-0.9c0.4,0,0.8,0.1,1.2,0.3c0.4,0.2,0.7,0.4,0.9,0.7
		c0.2,0.3,0.4,0.7,0.6,1.1c0.1,0.4,0.2,0.9,0.2,1.4c0,1.2-0.3,2-0.9,2.7c-0.6,0.6-1.3,0.9-2.1,0.9c-0.8,0-1.4-0.3-1.9-1V422.1z
		 M588.7,418.7c0,0.8,0.1,1.4,0.3,1.8c0.4,0.6,0.8,0.9,1.5,0.9c0.5,0,0.9-0.2,1.3-0.7s0.5-1.1,0.5-1.9c0-0.9-0.2-1.5-0.5-1.9
		c-0.3-0.4-0.8-0.6-1.3-0.6c-0.5,0-0.9,0.2-1.3,0.7S588.7,417.8,588.7,418.7z"/>
	<path class="st5" d="M594.9,414.1v-1.3h1.1v1.3H594.9z M594.9,422.1v-6.7h1.1v6.7H594.9z"/>
	<path class="st5" d="M597.8,422.1v-9.3h1.1v9.3H597.8z"/>
	<path class="st5" d="M600.7,414.1v-1.3h1.1v1.3H600.7z M600.7,422.1v-6.7h1.1v6.7H600.7z"/>
	<path class="st5" d="M606.1,421.1l0.2,1c-0.3,0.1-0.6,0.1-0.9,0.1c-0.4,0-0.7-0.1-1-0.2c-0.2-0.1-0.4-0.3-0.5-0.5
		c-0.1-0.2-0.1-0.7-0.1-1.3v-3.9H603v-0.9h0.8v-1.7l1.1-0.7v2.4h1.1v0.9h-1.1v3.9c0,0.3,0,0.5,0.1,0.6c0,0.1,0.1,0.2,0.2,0.2
		c0.1,0.1,0.2,0.1,0.4,0.1C605.7,421.1,605.9,421.1,606.1,421.1z"/>
	<path class="st5" d="M607.2,424.7l-0.1-1.1c0.2,0.1,0.5,0.1,0.7,0.1c0.3,0,0.5,0,0.6-0.1s0.3-0.2,0.4-0.4c0.1-0.1,0.2-0.4,0.3-0.9
		c0-0.1,0.1-0.2,0.1-0.3l-2.6-6.8h1.2l1.4,3.9c0.2,0.5,0.3,1,0.5,1.6c0.1-0.5,0.3-1,0.5-1.5l1.4-3.9h1.1l-2.6,6.9
		c-0.3,0.7-0.5,1.3-0.6,1.5c-0.2,0.4-0.4,0.7-0.7,0.8c-0.3,0.2-0.6,0.3-0.9,0.3C607.7,424.8,607.4,424.8,607.2,424.7z"/>
</g>
<rect x="510" y="204.8" class="st6" width="10" height="50.9"/>
<g class="st4">
	<path class="st5" d="M532.7,234.8v-9.3h1.3l4.9,7.3v-7.3h1.2v9.3h-1.3l-4.9-7.3v7.3H532.7z"/>
	<path class="st5" d="M541.7,230.3c0-1.5,0.4-2.8,1.2-3.6c0.8-0.9,1.9-1.3,3.2-1.3c0.9,0,1.6,0.2,2.3,0.6c0.7,0.4,1.2,1,1.6,1.7
		c0.4,0.7,0.5,1.6,0.5,2.5c0,0.9-0.2,1.8-0.6,2.5s-0.9,1.3-1.6,1.7s-1.5,0.6-2.3,0.6c-0.9,0-1.7-0.2-2.3-0.6c-0.7-0.4-1.2-1-1.6-1.7
		S541.7,231.1,541.7,230.3z M543,230.3c0,1.1,0.3,2,0.9,2.7c0.6,0.6,1.4,1,2.3,1c0.9,0,1.7-0.3,2.3-1c0.6-0.7,0.9-1.6,0.9-2.8
		c0-0.8-0.1-1.4-0.4-2c-0.3-0.6-0.6-1-1.1-1.3c-0.5-0.3-1-0.5-1.7-0.5c-0.9,0-1.6,0.3-2.2,0.9C543.3,227.9,543,228.9,543,230.3z"/>
	<path class="st5" d="M552.2,234.8v-9.3h1.3l4.9,7.3v-7.3h1.2v9.3h-1.3l-4.9-7.3v7.3H552.2z"/>
	<path class="st5" d="M561.6,234.8v-9.3h6.7v1.1h-5.5v2.8h5.1v1.1h-5.1v3.2h5.7v1.1H561.6z"/>
</g>
</svg>
