<?xml version="1.0" encoding="utf-8"?>
<!-- Generator: Adobe Illustrator 26.0.3, SVG Export Plug-In . SVG Version: 6.00 Build 0)  -->
<svg version="1.1" id="Layer_1" xmlns="http://www.w3.org/2000/svg" xmlns:xlink="http://www.w3.org/1999/xlink" x="0px" y="0px"
	 viewBox="0 0 735 500" style="enable-background:new 0 0 735 500;" xml:space="preserve">
<style type="text/css">
	.st0{fill:#89B79F;}
	.st1{fill:#9C4397;}
	.st2{fill:#57BCD6;}
	.st3{fill:#450256;}
	.st4{fill:#333333;stroke:#444444;stroke-width:0.5;}
	.st5{enable-background:new    ;}
	.st6{fill:#333333;}
</style>
<g transform="translate(80,100)matrix(1 0 0 1 0 0)">
	<g>
		<path class="st0" d="M62,215.2c210,0,210-90.8,420-90.8v5c-210,0-210,90.8-420,90.8V215.2z"/>
		<path class="st1" d="M62,90.2c210,0,210,5.8,420,5.8v5c-210,0-210-5.8-420-5.8V90.2z"/>
		<path class="st2" d="M62,145.2c210,0,210-40,420-40v5c-210,0-210,40-420,40V145.2z"/>
		<path class="st1" d="M62,76C272,76,272,1,482,1v5C272,6,272,81,62,81V76z"/>
		<path class="st1" d="M62,99.3c210,0,210,87.5,420,87.5v5c-210,0-210-87.5-420-87.5V99.3z"/>
		<path class="st1" d="M62,83.5c210,0,210-45,420-45v5c-210,0-210,45-420,45V83.5z"/>
		<path class="st0" d="M62,246.8c210,0,210,20,420,20v5c-210,0-210-20-420-20V246.8z"/>
		<path class="st3" d="M62,311c210,0,210-29.2,420-29.2v5c-210,0-210,29.2-420,29.2V311z"/>
		<path class="st2" d="M62,150.2c210,0,210-40,420-40v5c-210,0-210,40-420,40V150.2z"/>
		<path class="st2" d="M62,171c210,0,210,90.8,420,90.8v5c-210,0-210-90.8-420-90.8V171z"/>
		<path class="st2" d="M62,155.2c210,0,210-40,420-40v2.5c-210,0-210,40-420,40V155.2z"/>
		<path class="st2" d="M62,131C272,131,272,8.5,482,8.5V11C272,11,272,133.5,62,133.5V131z"/>
		<path class="st0" d="M62,251.8c210,0,210,20,420,20v5c-210,0-210-20-420-20V251.8z"/>
		<path class="st3" d="M62,316c210,0,210-29.2,420-29.2v5c-210,0-210,29.2-420,29.2V316z"/>
		<path class="st3" d="M62,293.5c210,0,210-144.2,420-144.2v5c-210,0-210,144.2-420,144.2V293.5z"/>
		<path class="st0" d="M62,203.5c210,0,210-146.7,420-146.7v1.7c-210,0-210,146.7-420,146.7V203.5z"/>
		<path class="st0" d="M62,245.2c210,0,210-12.5,420-12.5v1.7c-210,0-210,12.5-420,12.5V245.2z"/>
		<path class="st0" d="M62,261.8c210,0,210,55,420,55v1.7c-210,0-210-55-420-55V261.8z"/>
		<path class="st2" d="M62,133.5c210,0,210-88.3,420-88.3v1.7c-210,0-210,88.3-420,88.3V133.5z"/>
		<path class="st2" d="M62,164.3c210,0,210,27.5,420,27.5v1.7c-210,0-210-27.5-420-27.5V164.3z"/>
		<path class="st2" d="M62,157.7c210,0,210-40,420-40v1.7c-210,0-210,40-420,40V157.7z"/>
		<path class="st2" d="M62,135.2c210,0,210-88.3,420-88.3v5c-210,0-210,88.3-420,88.3V135.2z"/>
		<path class="st2" d="M62,166c210,0,210,61.7,420,61.7v5c-210,0-210-61.7-420-61.7V166z"/>
		<path class="st3" d="M62,291c210,0,210-222.5,420-222.5V71C272,71,272,293.5,62,293.5V291z"/>
		<path class="st3" d="M62,298.5c210,0,210-144.2,420-144.2v2.5C272,156.8,272,301,62,301V298.5z"/>
		<path class="st2" d="M62,140.2c210,0,210-88.3,420-88.3v2.5c-210,0-210,88.3-420,88.3V140.2z"/>
		<path class="st2" d="M62,142.7c210,0,210-88.3,420-88.3v2.5c-210,0-210,88.3-420,88.3V142.7z"/>
		<path class="st0" d="M62,220.2c210,0,210-90.8,420-90.8v5c-210,0-210,90.8-420,90.8V220.2z"/>
		<path class="st0" d="M62,225.2c210,0,210-90.8,420-90.8v5c-210,0-210,90.8-420,90.8V225.2z"/>
		<path class="st0" d="M62,205.2c210,0,210-146.7,420-146.7v5c-210,0-210,146.7-420,146.7V205.2z"/>
		<path class="st3" d="M62,306c210,0,210-107.5,420-107.5v2.5c-210,0-210,107.5-420,107.5V306z"/>
		<path class="st3" d="M62,308.5c210,0,210-74.2,420-74.2v2.5c-210,0-210,74.2-420,74.2V308.5z"/>
		<path class="st3" d="M62,301c210,0,210-144.2,420-144.2v5C272,161.8,272,306,62,306V301z"/>
		<path class="st0" d="M62,210.2c210,0,210-146.7,420-146.7v5c-210,0-210,146.7-420,146.7V210.2z"/>
		<path class="st2" d="M62,159.3c210,0,210-40,420-40v5c-210,0-210,40-420,40V159.3z"/>
		<path class="st0" d="M62,230.2c210,0,210-90.8,420-90.8v2.5c-210,0-210,90.8-420,90.8V230.2z"/>
		<path class="st0" d="M62,263.5c210,0,210,55,420,55v2.5c-210,0-210-55-420-55V263.5z"/>
		<path class="st0" d="M62,256.8c210,0,210,20,420,20v5c-210,0-210-20-420-20V256.8z"/>
		<path class="st0" d="M62,232.7c210,0,210-90.8,420-90.8v2.5c-210,0-210,90.8-420,90.8V232.7z"/>
		<path class="st0" d="M62,201c210,0,210-190,420-190v2.5c-210,0-210,190-420,190V201z"/>
		<path class="st1" d="M62,88.5c210,0,210-45,420-45v1.7c-210,0-210,45-420,45V88.5z"/>
		<path class="st1" d="M62,95.2c210,0,210,5.8,420,5.8v1.7c-210,0-210-5.8-420-5.8V95.2z"/>
		<path class="st1" d="M62,104.3c210,0,210,121.7,420,121.7v1.7C272,227.7,272,106,62,106V104.3z"/>
		<path class="st0" d="M62,240.2c210,0,210-46.7,420-46.7v5c-210,0-210,46.7-420,46.7V240.2z"/>
		<path class="st1" d="M62,96.8c210,0,210,5.8,420,5.8v2.5c-210,0-210-5.8-420-5.8V96.8z"/>
		<path class="st1" d="M62,81C272,81,272,6,482,6v2.5c-210,0-210,75-420,75V81z"/>
		<path class="st0" d="M62,235.2c210,0,210-90.8,420-90.8v5c-210,0-210,90.8-420,90.8V235.2z"/>
	</g>
	<g>
		<g transform="translate(430.000,95.000)">
			<rect x="52" y="1" class="st4" width="10" height="65.8"/>
			<g class="st5">
				<path class="st6" d="M70.7,24.5l1.2-0.1c0.1,0.5,0.2,0.8,0.4,1.1c0.2,0.3,0.5,0.5,0.9,0.7c0.4,0.2,0.9,0.3,1.4,0.3
					c0.5,0,0.9-0.1,1.2-0.2s0.6-0.3,0.8-0.6s0.3-0.5,0.3-0.8c0-0.3-0.1-0.5-0.3-0.8s-0.4-0.4-0.8-0.5c-0.2-0.1-0.8-0.2-1.7-0.5
					c-0.9-0.2-1.5-0.4-1.8-0.6c-0.4-0.2-0.8-0.5-1-0.9s-0.3-0.7-0.3-1.2c0-0.5,0.1-0.9,0.4-1.3c0.3-0.4,0.7-0.7,1.2-0.9
					c0.5-0.2,1.1-0.3,1.7-0.3c0.7,0,1.3,0.1,1.8,0.3c0.5,0.2,0.9,0.5,1.2,1c0.3,0.4,0.4,0.9,0.5,1.5l-1.2,0.1
					c-0.1-0.6-0.3-1-0.6-1.3c-0.4-0.3-0.9-0.5-1.6-0.5c-0.7,0-1.3,0.1-1.6,0.4c-0.3,0.3-0.5,0.6-0.5,1c0,0.3,0.1,0.6,0.4,0.8
					c0.2,0.2,0.9,0.4,1.9,0.7s1.7,0.4,2.1,0.6c0.5,0.2,0.9,0.6,1.2,0.9s0.4,0.8,0.4,1.3c0,0.5-0.1,1-0.4,1.4c-0.3,0.4-0.7,0.8-1.2,1
					c-0.5,0.2-1.1,0.4-1.8,0.4c-0.8,0-1.5-0.1-2.1-0.4c-0.6-0.2-1-0.6-1.3-1.1C70.9,25.7,70.8,25.1,70.7,24.5z"/>
				<path class="st6" d="M84.3,25.3l1.2,0.1c-0.2,0.7-0.5,1.2-1,1.6c-0.5,0.4-1.1,0.6-1.9,0.6c-1,0-1.8-0.3-2.3-0.9
					c-0.6-0.6-0.9-1.5-0.9-2.6c0-1.1,0.3-2,0.9-2.6s1.3-0.9,2.3-0.9c0.9,0,1.6,0.3,2.2,0.9c0.6,0.6,0.9,1.5,0.9,2.6
					c0,0.1,0,0.2,0,0.3h-5c0,0.7,0.3,1.3,0.6,1.7c0.4,0.4,0.8,0.6,1.4,0.6c0.4,0,0.8-0.1,1.1-0.3C83.9,26.1,84.1,25.8,84.3,25.3z
					 M80.5,23.4h3.8c-0.1-0.6-0.2-1-0.4-1.3c-0.4-0.4-0.8-0.7-1.4-0.7c-0.5,0-1,0.2-1.3,0.5C80.8,22.4,80.6,22.9,80.5,23.4z"/>
				<path class="st6" d="M91.2,30.1v-3.3c-0.2,0.2-0.4,0.5-0.7,0.6c-0.3,0.2-0.7,0.2-1,0.2c-0.8,0-1.5-0.3-2.1-1
					c-0.6-0.6-0.9-1.5-0.9-2.6c0-0.7,0.1-1.3,0.4-1.8c0.2-0.5,0.6-0.9,1-1.2c0.4-0.3,0.9-0.4,1.5-0.4c0.8,0,1.5,0.4,2,1.1v-0.9h1
					v9.3H91.2z M87.7,24.1c0,0.9,0.2,1.5,0.5,2s0.8,0.7,1.3,0.7c0.5,0,0.9-0.2,1.3-0.6c0.4-0.4,0.5-1,0.5-1.9c0-0.9-0.2-1.6-0.6-2
					c-0.4-0.5-0.8-0.7-1.3-0.7c-0.5,0-0.9,0.2-1.3,0.6C87.9,22.5,87.7,23.2,87.7,24.1z"/>
				<path class="st6" d="M98.6,27.5v-1c-0.5,0.8-1.2,1.1-2.1,1.1c-0.4,0-0.8-0.1-1.1-0.2c-0.3-0.2-0.6-0.3-0.8-0.6
					c-0.2-0.2-0.3-0.5-0.4-0.8c0-0.2-0.1-0.6-0.1-1.1v-4.2h1.1v3.7c0,0.6,0,1,0.1,1.2c0.1,0.3,0.2,0.5,0.5,0.7
					c0.2,0.2,0.5,0.3,0.9,0.3s0.7-0.1,1-0.3s0.5-0.4,0.6-0.7s0.2-0.7,0.2-1.3v-3.6h1.1v6.7H98.6z"/>
				<path class="st6" d="M106,25.3l1.2,0.1c-0.2,0.7-0.5,1.2-1,1.6s-1.1,0.6-1.9,0.6c-1,0-1.8-0.3-2.3-0.9s-0.9-1.5-0.9-2.6
					c0-1.1,0.3-2,0.9-2.6s1.3-0.9,2.3-0.9c0.9,0,1.6,0.3,2.2,0.9c0.6,0.6,0.9,1.5,0.9,2.6c0,0.1,0,0.2,0,0.3h-5
					c0,0.7,0.3,1.3,0.6,1.7c0.4,0.4,0.8,0.6,1.4,0.6c0.4,0,0.8-0.1,1.1-0.3S105.8,25.8,106,25.3z M102.2,23.4h3.8
					c-0.1-0.6-0.2-1-0.4-1.3c-0.4-0.4-0.8-0.7-1.4-0.7c-0.5,0-1,0.2-1.3,0.5C102.5,22.4,102.3,22.9,102.2,23.4z"/>
				<path class="st6" d="M108.6,27.5v-6.7h1v1c0.5-0.7,1.2-1.1,2.1-1.1c0.4,0,0.8,0.1,1.1,0.2c0.3,0.1,0.6,0.3,0.8,0.6
					c0.2,0.2,0.3,0.5,0.4,0.8c0,0.2,0.1,0.6,0.1,1.1v4.1h-1.1v-4.1c0-0.5,0-0.8-0.1-1c-0.1-0.2-0.2-0.4-0.5-0.6
					c-0.2-0.1-0.5-0.2-0.8-0.2c-0.5,0-0.9,0.2-1.3,0.5c-0.4,0.3-0.5,0.9-0.5,1.8v3.7H108.6z"/>
				<path class="st6" d="M120.2,25l1.1,0.1c-0.1,0.8-0.4,1.4-0.9,1.8c-0.5,0.4-1.1,0.7-1.9,0.7c-0.9,0-1.7-0.3-2.2-0.9
					c-0.6-0.6-0.8-1.5-0.8-2.6c0-0.7,0.1-1.4,0.4-1.9s0.6-1,1.1-1.2c0.5-0.3,1-0.4,1.6-0.4c0.7,0,1.3,0.2,1.8,0.6s0.8,0.9,0.9,1.6
					l-1.1,0.2c-0.1-0.5-0.3-0.8-0.6-1c-0.3-0.2-0.6-0.3-1-0.3c-0.6,0-1,0.2-1.4,0.6c-0.4,0.4-0.5,1.1-0.5,2c0,0.9,0.2,1.6,0.5,2
					c0.3,0.4,0.8,0.6,1.4,0.6c0.4,0,0.8-0.1,1.1-0.4C120,26,120.1,25.6,120.2,25z"/>
				<path class="st6" d="M126.9,25.3l1.2,0.1c-0.2,0.7-0.5,1.2-1,1.6s-1.1,0.6-1.9,0.6c-1,0-1.8-0.3-2.3-0.9
					c-0.6-0.6-0.9-1.5-0.9-2.6c0-1.1,0.3-2,0.9-2.6s1.3-0.9,2.3-0.9c0.9,0,1.6,0.3,2.2,0.9c0.6,0.6,0.9,1.5,0.9,2.6
					c0,0.1,0,0.2,0,0.3h-5c0,0.7,0.3,1.3,0.6,1.7c0.4,0.4,0.8,0.6,1.4,0.6c0.4,0,0.8-0.1,1.1-0.3S126.8,25.8,126.9,25.3z
					 M123.2,23.4h3.8c-0.1-0.6-0.2-1-0.4-1.3c-0.4-0.4-0.8-0.7-1.4-0.7c-0.5,0-1,0.2-1.3,0.5C123.4,22.4,123.2,22.9,123.2,23.4z"/>
				<path class="st6" d="M129.1,24.7v-1.1h3.5v1.1H129.1z"/>
				<path class="st6" d="M136.4,26.4l0.2,1c-0.3,0.1-0.6,0.1-0.9,0.1c-0.4,0-0.7-0.1-1-0.2c-0.2-0.1-0.4-0.3-0.5-0.5
					s-0.1-0.7-0.1-1.3v-3.9h-0.8v-0.9h0.8v-1.7l1.1-0.7v2.4h1.1v0.9h-1.1v3.9c0,0.3,0,0.5,0.1,0.6c0,0.1,0.1,0.2,0.2,0.2
					c0.1,0.1,0.2,0.1,0.4,0.1C136,26.5,136.2,26.5,136.4,26.4z"/>
				<path class="st6" d="M137.1,24.1c0-1.2,0.3-2.2,1-2.8c0.6-0.5,1.3-0.7,2.1-0.7c0.9,0,1.7,0.3,2.3,0.9c0.6,0.6,0.9,1.4,0.9,2.5
					c0,0.9-0.1,1.5-0.4,2c-0.3,0.5-0.6,0.9-1.1,1.2c-0.5,0.3-1,0.4-1.6,0.4c-0.9,0-1.7-0.3-2.3-0.9
					C137.4,26.1,137.1,25.2,137.1,24.1z M138.2,24.1c0,0.9,0.2,1.5,0.6,1.9c0.4,0.4,0.9,0.6,1.4,0.6c0.6,0,1-0.2,1.4-0.6
					s0.6-1.1,0.6-2c0-0.8-0.2-1.5-0.6-1.9c-0.4-0.4-0.8-0.6-1.4-0.6c-0.6,0-1,0.2-1.4,0.6C138.4,22.6,138.2,23.2,138.2,24.1z"/>
				<path class="st6" d="M144.3,24.7v-1.1h3.5v1.1H144.3z"/>
				<path class="st6" d="M148.8,24.5l1.2-0.1c0.1,0.5,0.2,0.8,0.4,1.1c0.2,0.3,0.5,0.5,0.9,0.7c0.4,0.2,0.9,0.3,1.4,0.3
					c0.5,0,0.9-0.1,1.2-0.2s0.6-0.3,0.8-0.6s0.3-0.5,0.3-0.8c0-0.3-0.1-0.5-0.3-0.8s-0.4-0.4-0.8-0.5c-0.2-0.1-0.8-0.2-1.7-0.5
					c-0.9-0.2-1.5-0.4-1.8-0.6c-0.4-0.2-0.8-0.5-1-0.9s-0.3-0.7-0.3-1.2c0-0.5,0.1-0.9,0.4-1.3c0.3-0.4,0.7-0.7,1.2-0.9
					c0.5-0.2,1.1-0.3,1.7-0.3c0.7,0,1.3,0.1,1.8,0.3c0.5,0.2,0.9,0.5,1.2,1c0.3,0.4,0.4,0.9,0.5,1.5l-1.2,0.1
					c-0.1-0.6-0.3-1-0.6-1.3c-0.4-0.3-0.9-0.5-1.6-0.5c-0.7,0-1.3,0.1-1.6,0.4c-0.3,0.3-0.5,0.6-0.5,1c0,0.3,0.1,0.6,0.4,0.8
					c0.2,0.2,0.9,0.4,1.9,0.7s1.7,0.4,2.1,0.6c0.5,0.2,0.9,0.6,1.2,0.9s0.4,0.8,0.4,1.3c0,0.5-0.1,1-0.4,1.4c-0.3,0.4-0.7,0.8-1.2,1
					c-0.5,0.2-1.1,0.4-1.8,0.4c-0.8,0-1.5-0.1-2.1-0.4c-0.6-0.2-1-0.6-1.3-1.1C149,25.7,148.8,25.1,148.8,24.5z"/>
				<path class="st6" d="M162.3,25.3l1.2,0.1c-0.2,0.7-0.5,1.2-1,1.6c-0.5,0.4-1.1,0.6-1.9,0.6c-1,0-1.8-0.3-2.3-0.9
					c-0.6-0.6-0.9-1.5-0.9-2.6c0-1.1,0.3-2,0.9-2.6s1.3-0.9,2.3-0.9c0.9,0,1.6,0.3,2.2,0.9c0.6,0.6,0.9,1.5,0.9,2.6
					c0,0.1,0,0.2,0,0.3h-5c0,0.7,0.3,1.3,0.6,1.7c0.4,0.4,0.8,0.6,1.4,0.6c0.4,0,0.8-0.1,1.1-0.3C161.9,26.1,162.2,25.8,162.3,25.3z
					 M158.6,23.4h3.8c-0.1-0.6-0.2-1-0.4-1.3c-0.4-0.4-0.8-0.7-1.4-0.7c-0.5,0-1,0.2-1.3,0.5C158.8,22.4,158.6,22.9,158.6,23.4z"/>
				<path class="st6" d="M169.3,30.1v-3.3c-0.2,0.2-0.4,0.5-0.7,0.6c-0.3,0.2-0.7,0.2-1,0.2c-0.8,0-1.5-0.3-2.1-1
					c-0.6-0.6-0.9-1.5-0.9-2.6c0-0.7,0.1-1.3,0.4-1.8c0.2-0.5,0.6-0.9,1-1.2c0.4-0.3,0.9-0.4,1.5-0.4c0.8,0,1.5,0.4,2,1.1v-0.9h1
					v9.3H169.3z M165.7,24.1c0,0.9,0.2,1.5,0.5,2s0.8,0.7,1.3,0.7c0.5,0,0.9-0.2,1.3-0.6c0.4-0.4,0.5-1,0.5-1.9c0-0.9-0.2-1.6-0.6-2
					c-0.4-0.5-0.8-0.7-1.3-0.7c-0.5,0-0.9,0.2-1.3,0.6C165.9,22.5,165.7,23.2,165.7,24.1z"/>
				<path class="st6" d="M176.6,27.5v-1c-0.5,0.8-1.2,1.1-2.1,1.1c-0.4,0-0.8-0.1-1.1-0.2c-0.3-0.2-0.6-0.3-0.8-0.6
					c-0.2-0.2-0.3-0.5-0.4-0.8c0-0.2-0.1-0.6-0.1-1.1v-4.2h1.1v3.7c0,0.6,0,1,0.1,1.2c0.1,0.3,0.2,0.5,0.5,0.7
					c0.2,0.2,0.5,0.3,0.9,0.3s0.7-0.1,1-0.3s0.5-0.4,0.6-0.7s0.2-0.7,0.2-1.3v-3.6h1.1v6.7H176.6z"/>
				<path class="st6" d="M184,25.3l1.2,0.1c-0.2,0.7-0.5,1.2-1,1.6s-1.1,0.6-1.9,0.6c-1,0-1.8-0.3-2.3-0.9s-0.9-1.5-0.9-2.6
					c0-1.1,0.3-2,0.9-2.6s1.3-0.9,2.3-0.9c0.9,0,1.6,0.3,2.2,0.9c0.6,0.6,0.9,1.5,0.9,2.6c0,0.1,0,0.2,0,0.3h-5
					c0,0.7,0.3,1.3,0.6,1.7c0.4,0.4,0.8,0.6,1.4,0.6c0.4,0,0.8-0.1,1.1-0.3S183.9,25.8,184,25.3z M180.3,23.4h3.8
					c-0.1-0.6-0.2-1-0.4-1.3c-0.4-0.4-0.8-0.7-1.4-0.7c-0.5,0-1,0.2-1.3,0.5C180.5,22.4,180.3,22.9,180.3,23.4z"/>
				<path class="st6" d="M186.6,27.5v-6.7h1v1c0.5-0.7,1.2-1.1,2.1-1.1c0.4,0,0.8,0.1,1.1,0.2c0.3,0.1,0.6,0.3,0.8,0.6
					c0.2,0.2,0.3,0.5,0.4,0.8c0,0.2,0.1,0.6,0.1,1.1v4.1H191v-4.1c0-0.5,0-0.8-0.1-1c-0.1-0.2-0.2-0.4-0.5-0.6
					c-0.2-0.1-0.5-0.2-0.8-0.2c-0.5,0-0.9,0.2-1.3,0.5c-0.4,0.3-0.5,0.9-0.5,1.8v3.7H186.6z"/>
				<path class="st6" d="M198.3,25l1.1,0.1c-0.1,0.8-0.4,1.4-0.9,1.8c-0.5,0.4-1.1,0.7-1.9,0.7c-0.9,0-1.7-0.3-2.2-0.9
					c-0.6-0.6-0.8-1.5-0.8-2.6c0-0.7,0.1-1.4,0.4-1.9s0.6-1,1.1-1.2c0.5-0.3,1-0.4,1.6-0.4c0.7,0,1.3,0.2,1.8,0.6s0.8,0.9,0.9,1.6
					l-1.1,0.2c-0.1-0.5-0.3-0.8-0.6-1c-0.3-0.2-0.6-0.3-1-0.3c-0.6,0-1,0.2-1.4,0.6c-0.4,0.4-0.5,1.1-0.5,2c0,0.9,0.2,1.6,0.5,2
					c0.3,0.4,0.8,0.6,1.4,0.6c0.4,0,0.8-0.1,1.1-0.4C198,26,198.2,25.6,198.3,25z"/>
				<path class="st6" d="M205,25.3l1.2,0.1c-0.2,0.7-0.5,1.2-1,1.6s-1.1,0.6-1.9,0.6c-1,0-1.8-0.3-2.3-0.9c-0.6-0.6-0.9-1.5-0.9-2.6
					c0-1.1,0.3-2,0.9-2.6s1.3-0.9,2.3-0.9c0.9,0,1.6,0.3,2.2,0.9c0.6,0.6,0.9,1.5,0.9,2.6c0,0.1,0,0.2,0,0.3h-5
					c0,0.7,0.3,1.3,0.6,1.7c0.4,0.4,0.8,0.6,1.4,0.6c0.4,0,0.8-0.1,1.1-0.3S204.8,25.8,205,25.3z M201.2,23.4h3.8
					c-0.1-0.6-0.2-1-0.4-1.3c-0.4-0.4-0.8-0.7-1.4-0.7c-0.5,0-1,0.2-1.3,0.5C201.5,22.4,201.3,22.9,201.2,23.4z"/>
				<path class="st6" d="M73.2,45.8C72.6,45,72,44.1,71.6,43c-0.4-1.1-0.7-2.2-0.7-3.3c0-1,0.2-2,0.5-2.9c0.4-1.1,1-2.1,1.8-3.2H74
					c-0.5,0.9-0.9,1.5-1,1.9c-0.3,0.6-0.5,1.2-0.6,1.8c-0.2,0.8-0.3,1.6-0.3,2.4c0,2,0.6,4.1,1.9,6.1H73.2z"/>
				<path class="st6" d="M75.5,43.1v-9.3h4.1c0.8,0,1.5,0.1,1.9,0.3s0.8,0.5,1,0.9c0.3,0.4,0.4,0.9,0.4,1.4c0,0.7-0.2,1.2-0.6,1.7
					c-0.4,0.5-1.1,0.7-2,0.9c0.3,0.2,0.6,0.3,0.7,0.5c0.4,0.3,0.7,0.7,1,1.2l1.6,2.5h-1.5l-1.2-1.9c-0.4-0.6-0.7-1-0.9-1.3
					c-0.2-0.3-0.4-0.5-0.6-0.6C79.2,39.1,79,39,78.8,39c-0.1,0-0.4,0-0.7,0h-1.4v4.1H75.5z M76.7,37.9h2.6c0.6,0,1-0.1,1.3-0.2
					s0.6-0.3,0.7-0.6s0.2-0.5,0.2-0.8c0-0.4-0.2-0.8-0.5-1.1c-0.3-0.3-0.8-0.4-1.5-0.4h-2.9V37.9z"/>
				<path class="st6" d="M84.9,43.1v-9.3h1.3l4.9,7.3v-7.3h1.2v9.3h-1.3L86,35.8v7.3H84.9z"/>
				<path class="st6" d="M94.2,43.1v-9.3h1.3l4.9,7.3v-7.3h1.2v9.3h-1.3l-4.9-7.3v7.3H94.2z"/>
				<path class="st6" d="M103.8,43.1v-1.3h1.3v1.3c0,0.5-0.1,0.9-0.3,1.2s-0.4,0.5-0.8,0.7l-0.3-0.5c0.2-0.1,0.4-0.3,0.5-0.5
					c0.1-0.2,0.2-0.5,0.2-0.9H103.8z"/>
				<path class="st6" d="M107.3,43.1v-9.3h4.1c0.8,0,1.5,0.1,1.9,0.3s0.8,0.5,1,0.9c0.3,0.4,0.4,0.9,0.4,1.4c0,0.7-0.2,1.2-0.6,1.7
					c-0.4,0.5-1.1,0.7-2,0.9c0.3,0.2,0.6,0.3,0.7,0.5c0.4,0.3,0.7,0.7,1,1.2l1.6,2.5h-1.5l-1.2-1.9c-0.4-0.6-0.7-1-0.9-1.3
					c-0.2-0.3-0.4-0.5-0.6-0.6c-0.2-0.1-0.4-0.2-0.6-0.2c-0.1,0-0.4,0-0.7,0h-1.4v4.1H107.3z M108.5,37.9h2.6c0.6,0,1-0.1,1.3-0.2
					s0.6-0.3,0.7-0.6s0.2-0.5,0.2-0.8c0-0.4-0.2-0.8-0.5-1.1c-0.3-0.3-0.8-0.4-1.5-0.4h-2.9V37.9z"/>
				<path class="st6" d="M120.9,40.6l1.1,0.1c-0.1,0.8-0.4,1.4-0.9,1.8c-0.5,0.4-1.1,0.7-1.9,0.7c-0.9,0-1.7-0.3-2.2-0.9
					c-0.6-0.6-0.8-1.5-0.8-2.6c0-0.7,0.1-1.4,0.4-1.9s0.6-1,1.1-1.2c0.5-0.3,1-0.4,1.6-0.4c0.7,0,1.3,0.2,1.8,0.6s0.8,0.9,0.9,1.6
					l-1.1,0.2c-0.1-0.5-0.3-0.8-0.6-1c-0.3-0.2-0.6-0.3-1-0.3c-0.6,0-1,0.2-1.4,0.6c-0.4,0.4-0.5,1.1-0.5,2c0,0.9,0.2,1.6,0.5,2
					c0.3,0.4,0.8,0.6,1.4,0.6c0.4,0,0.8-0.1,1.1-0.4C120.6,41.6,120.8,41.2,120.9,40.6z"/>
				<path class="st6" d="M123.1,43.1v-9.3h1.3l4.9,7.3v-7.3h1.2v9.3h-1.3l-4.9-7.3v7.3H123.1z"/>
				<path class="st6" d="M132.5,43.1v-9.3h1.3l4.9,7.3v-7.3h1.2v9.3h-1.3l-4.9-7.3v7.3H132.5z"/>
				<path class="st6" d="M142.5,45.8h-0.8c1.3-2,1.9-4.1,1.9-6.1c0-0.8-0.1-1.6-0.3-2.4c-0.1-0.6-0.3-1.2-0.6-1.8
					c-0.2-0.4-0.5-1-1-1.9h0.8c0.8,1.1,1.4,2.1,1.8,3.2c0.3,0.9,0.5,1.9,0.5,2.9c0,1.1-0.2,2.2-0.7,3.3S143.2,45,142.5,45.8z"/>
			</g>
		</g>
		<g transform="translate(430.000,-0.000)">
			<rect x="52" y="1" class="st4" width="10" height="12.5"/>
			<g class="st5">
				<path class="st6" d="M71.1,5.8v-9.3h1.3l4.9,7.3v-7.3h1.2v9.3h-1.3l-4.9-7.3v7.3H71.1z"/>
				<path class="st6" d="M85,3.6l1.2,0.1c-0.2,0.7-0.5,1.2-1,1.6S84,6,83.2,6c-1,0-1.8-0.3-2.3-0.9S80,3.6,80,2.5
					c0-1.1,0.3-2,0.9-2.6s1.3-0.9,2.3-0.9c0.9,0,1.6,0.3,2.2,0.9c0.6,0.6,0.9,1.5,0.9,2.6c0,0.1,0,0.2,0,0.3h-5
					c0,0.7,0.3,1.3,0.6,1.7C82.2,4.8,82.7,5,83.2,5c0.4,0,0.8-0.1,1.1-0.3S84.8,4.1,85,3.6z M81.3,1.8H85c-0.1-0.6-0.2-1-0.4-1.3
					c-0.4-0.4-0.8-0.7-1.4-0.7c-0.5,0-1,0.2-1.3,0.5C81.5,0.7,81.3,1.2,81.3,1.8z"/>
				<path class="st6" d="M92,5.8v-1C91.5,5.6,90.8,6,89.9,6c-0.4,0-0.8-0.1-1.1-0.2S88.2,5.4,88,5.1s-0.3-0.5-0.4-0.8
					c0-0.2-0.1-0.6-0.1-1.1v-4.2h1.1v3.7c0,0.6,0,1,0.1,1.2c0.1,0.3,0.2,0.5,0.5,0.7C89.5,4.9,89.8,5,90.1,5s0.7-0.1,1-0.3
					s0.5-0.4,0.6-0.7c0.1-0.3,0.2-0.7,0.2-1.3v-3.6h1.1v6.7H92z"/>
				<path class="st6" d="M94.8,5.8v-6.7h1v1c0.3-0.5,0.5-0.8,0.7-0.9s0.5-0.2,0.7-0.2c0.4,0,0.8,0.1,1.2,0.4l-0.4,1.1
					c-0.3-0.2-0.6-0.2-0.8-0.2c-0.2,0-0.5,0.1-0.7,0.2c-0.2,0.2-0.3,0.4-0.4,0.6C96,1.3,96,1.8,96,2.3v3.5H94.8z"/>
				<path class="st6" d="M98.8,2.4c0-1.2,0.3-2.2,1-2.8c0.6-0.5,1.3-0.7,2.1-0.7c0.9,0,1.7,0.3,2.3,0.9c0.6,0.6,0.9,1.4,0.9,2.5
					c0,0.9-0.1,1.5-0.4,2c-0.3,0.5-0.6,0.9-1.1,1.2c-0.5,0.3-1,0.4-1.6,0.4c-0.9,0-1.7-0.3-2.3-0.9C99,4.4,98.8,3.6,98.8,2.4z
					 M99.9,2.4c0,0.9,0.2,1.5,0.6,1.9c0.4,0.4,0.9,0.6,1.4,0.6c0.6,0,1-0.2,1.4-0.6s0.6-1.1,0.6-2c0-0.8-0.2-1.5-0.6-1.9
					c-0.4-0.4-0.8-0.6-1.4-0.6c-0.6,0-1,0.2-1.4,0.6C100.1,0.9,99.9,1.6,99.9,2.4z"/>
				<path class="st6" d="M106,3V1.9h3.5V3H106z"/>
				<path class="st6" d="M110.5,2.8l1.2-0.1c0.1,0.5,0.2,0.8,0.4,1.1c0.2,0.3,0.5,0.5,0.9,0.7c0.4,0.2,0.9,0.3,1.4,0.3
					c0.5,0,0.9-0.1,1.2-0.2s0.6-0.3,0.8-0.6s0.3-0.5,0.3-0.8c0-0.3-0.1-0.5-0.3-0.8S116,2.1,115.6,2c-0.2-0.1-0.8-0.2-1.7-0.5
					c-0.9-0.2-1.5-0.4-1.8-0.6c-0.4-0.2-0.8-0.5-1-0.9s-0.3-0.7-0.3-1.2c0-0.5,0.1-0.9,0.4-1.3c0.3-0.4,0.7-0.7,1.2-0.9
					c0.5-0.2,1.1-0.3,1.7-0.3c0.7,0,1.3,0.1,1.8,0.3c0.5,0.2,0.9,0.5,1.2,1c0.3,0.4,0.4,0.9,0.5,1.5l-1.2,0.1
					c-0.1-0.6-0.3-1-0.6-1.3c-0.4-0.3-0.9-0.5-1.6-0.5c-0.7,0-1.3,0.1-1.6,0.4c-0.3,0.3-0.5,0.6-0.5,1c0,0.3,0.1,0.6,0.4,0.8
					c0.2,0.2,0.9,0.4,1.9,0.7s1.7,0.4,2.1,0.6c0.5,0.2,0.9,0.6,1.2,0.9s0.4,0.8,0.4,1.3c0,0.5-0.1,1-0.4,1.4c-0.3,0.4-0.7,0.8-1.2,1
					c-0.5,0.2-1.1,0.4-1.8,0.4c-0.8,0-1.5-0.1-2.1-0.4c-0.6-0.2-1-0.6-1.3-1.1C110.7,4,110.5,3.4,110.5,2.8z"/>
				<path class="st6" d="M119.4,8.4l-0.1-1.1c0.2,0.1,0.5,0.1,0.7,0.1c0.3,0,0.5,0,0.6-0.1s0.3-0.2,0.4-0.4c0.1-0.1,0.2-0.4,0.3-0.9
					c0-0.1,0.1-0.2,0.1-0.3l-2.6-6.8h1.2l1.4,3.9c0.2,0.5,0.3,1,0.5,1.6c0.1-0.5,0.3-1,0.5-1.5l1.4-3.9h1.1l-2.6,6.9
					c-0.3,0.7-0.5,1.3-0.6,1.5c-0.2,0.4-0.4,0.7-0.7,0.8c-0.3,0.2-0.6,0.3-0.9,0.3C119.9,8.5,119.6,8.5,119.4,8.4z"/>
				<path class="st6" d="M125.9,5.8v-6.7h1V0c0.2-0.3,0.5-0.6,0.8-0.8c0.4-0.2,0.8-0.3,1.2-0.3c0.5,0,0.9,0.1,1.2,0.3
					c0.3,0.2,0.5,0.5,0.7,0.9c0.5-0.8,1.2-1.2,2.1-1.2c0.7,0,1.2,0.2,1.5,0.6c0.4,0.4,0.5,0.9,0.5,1.7v4.6h-1.1V1.6
					c0-0.5,0-0.8-0.1-1c-0.1-0.2-0.2-0.4-0.4-0.5c-0.2-0.1-0.4-0.2-0.7-0.2c-0.5,0-0.9,0.2-1.2,0.5s-0.5,0.8-0.5,1.5v3.9h-1.1V1.4
					c0-0.5-0.1-0.9-0.3-1.1s-0.5-0.4-0.9-0.4c-0.3,0-0.6,0.1-0.9,0.3c-0.3,0.2-0.5,0.4-0.6,0.7c-0.1,0.3-0.2,0.8-0.2,1.4v3.5H125.9z
					"/>
				<path class="st6" d="M137.8,5.8h-1.1v-9.3h1.1v3.3c0.5-0.6,1.1-0.9,1.8-0.9c0.4,0,0.8,0.1,1.2,0.3c0.4,0.2,0.7,0.4,0.9,0.7
					c0.2,0.3,0.4,0.7,0.6,1.1c0.1,0.4,0.2,0.9,0.2,1.4c0,1.2-0.3,2-0.9,2.7c-0.6,0.6-1.3,0.9-2.1,0.9c-0.8,0-1.4-0.3-1.9-1V5.8z
					 M137.8,2.4c0,0.8,0.1,1.4,0.3,1.8c0.4,0.6,0.8,0.9,1.5,0.9c0.5,0,0.9-0.2,1.3-0.7c0.4-0.4,0.5-1.1,0.5-1.9
					c0-0.9-0.2-1.5-0.5-1.9c-0.3-0.4-0.8-0.6-1.3-0.6c-0.5,0-0.9,0.2-1.3,0.7C138,0.9,137.8,1.6,137.8,2.4z"/>
				<path class="st6" d="M143.5,2.4c0-1.2,0.3-2.2,1-2.8c0.6-0.5,1.3-0.7,2.1-0.7c0.9,0,1.7,0.3,2.3,0.9c0.6,0.6,0.9,1.4,0.9,2.5
					c0,0.9-0.1,1.5-0.4,2c-0.3,0.5-0.6,0.9-1.1,1.2c-0.5,0.3-1,0.4-1.6,0.4c-0.9,0-1.7-0.3-2.3-0.9C143.8,4.4,143.5,3.6,143.5,2.4z
					 M144.7,2.4c0,0.9,0.2,1.5,0.6,1.9c0.4,0.4,0.9,0.6,1.4,0.6c0.6,0,1-0.2,1.4-0.6s0.6-1.1,0.6-2c0-0.8-0.2-1.5-0.6-1.9
					c-0.4-0.4-0.8-0.6-1.4-0.6c-0.6,0-1,0.2-1.4,0.6C144.9,0.9,144.7,1.6,144.7,2.4z"/>
				<path class="st6" d="M151.2,5.8v-9.3h1.1v9.3H151.2z"/>
				<path class="st6" d="M154.1-2.2v-1.3h1.1v1.3H154.1z M154.1,5.8v-6.7h1.1v6.7H154.1z"/>
				<path class="st6" d="M161.4,3.3l1.1,0.1c-0.1,0.8-0.4,1.4-0.9,1.8c-0.5,0.4-1.1,0.7-1.9,0.7c-0.9,0-1.7-0.3-2.2-0.9
					c-0.6-0.6-0.8-1.5-0.8-2.6c0-0.7,0.1-1.4,0.4-1.9c0.2-0.5,0.6-1,1.1-1.2c0.5-0.3,1-0.4,1.6-0.4c0.7,0,1.3,0.2,1.8,0.6
					c0.5,0.4,0.8,0.9,0.9,1.6l-1.1,0.2c-0.1-0.5-0.3-0.8-0.6-1s-0.6-0.3-1-0.3c-0.6,0-1,0.2-1.4,0.6c-0.4,0.4-0.5,1.1-0.5,2
					c0,0.9,0.2,1.6,0.5,2c0.3,0.4,0.8,0.6,1.4,0.6c0.4,0,0.8-0.1,1.1-0.4C161.1,4.3,161.3,3.9,161.4,3.3z"/>
				<path class="st6" d="M73.2,24.1c-0.6-0.8-1.2-1.7-1.6-2.8c-0.4-1.1-0.7-2.2-0.7-3.3c0-1,0.2-2,0.5-2.9c0.4-1.1,1-2.1,1.8-3.2H74
					c-0.5,0.9-0.9,1.5-1,1.9c-0.3,0.6-0.5,1.2-0.6,1.8c-0.2,0.8-0.3,1.6-0.3,2.4c0,2,0.6,4.1,1.9,6.1H73.2z"/>
				<path class="st6" d="M75.4,21.4v-9.3h1.2v8.2h4.6v1.1H75.4z"/>
				<path class="st6" d="M84.1,21.4v-8.2H81v-1.1h7.4v1.1h-3.1v8.2H84.1z"/>
				<path class="st6" d="M89.7,21.4v-9.3h1.3l4.9,7.3v-7.3H97v9.3h-1.3l-4.9-7.3v7.3H89.7z"/>
				<path class="st6" d="M99.2,21.4v-1.3h1.3v1.3c0,0.5-0.1,0.9-0.3,1.2s-0.4,0.5-0.8,0.7l-0.3-0.5c0.2-0.1,0.4-0.3,0.5-0.5
					c0.1-0.2,0.2-0.5,0.2-0.9H99.2z"/>
				<path class="st6" d="M102.7,21.4v-9.3h4.1c0.8,0,1.5,0.1,1.9,0.3s0.8,0.5,1,0.9c0.3,0.4,0.4,0.9,0.4,1.4c0,0.7-0.2,1.2-0.6,1.7
					c-0.4,0.5-1.1,0.7-2,0.9c0.3,0.2,0.6,0.3,0.7,0.5c0.4,0.3,0.7,0.7,1,1.2l1.6,2.5h-1.5l-1.2-1.9c-0.4-0.6-0.7-1-0.9-1.3
					c-0.2-0.3-0.4-0.5-0.6-0.6c-0.2-0.1-0.4-0.2-0.6-0.2c-0.1,0-0.4,0-0.7,0h-1.4v4.1H102.7z M103.9,16.2h2.6c0.6,0,1-0.1,1.3-0.2
					s0.6-0.3,0.7-0.6s0.2-0.5,0.2-0.8c0-0.4-0.2-0.8-0.5-1.1c-0.3-0.3-0.8-0.4-1.5-0.4h-2.9V16.2z"/>
				<path class="st6" d="M112.1,21.4v-9.3h1.3l4.9,7.3v-7.3h1.2v9.3h-1.3l-4.9-7.3v7.3H112.1z"/>
				<path class="st6" d="M121.4,21.4v-9.3h1.2v4.6l4.6-4.6h1.7l-3.9,3.8l4.1,5.5h-1.6l-3.3-4.7l-1.5,1.5v3.2H121.4z"/>
				<path class="st6" d="M130.1,21.4v-9.3h1.3l4.9,7.3v-7.3h1.2v9.3h-1.3l-4.9-7.3v7.3H130.1z"/>
				<path class="st6" d="M139.7,21.4v-1.3h1.3v1.3c0,0.5-0.1,0.9-0.3,1.2s-0.4,0.5-0.8,0.7l-0.3-0.5c0.2-0.1,0.4-0.3,0.5-0.5
					c0.1-0.2,0.2-0.5,0.2-0.9H139.7z"/>
				<path class="st6" d="M145.5,21.4v-8.2h-3.1v-1.1h7.4v1.1h-3.1v8.2H145.5z"/>
				<path class="st6" d="M151.1,21.4v-9.3h3.5c0.6,0,1.1,0,1.4,0.1c0.5,0.1,0.8,0.2,1.1,0.4s0.6,0.5,0.7,0.9
					c0.2,0.4,0.3,0.8,0.3,1.3c0,0.8-0.3,1.5-0.8,2c-0.5,0.5-1.4,0.8-2.7,0.8h-2.4v3.8H151.1z M152.3,16.5h2.4c0.8,0,1.4-0.1,1.7-0.4
					c0.3-0.3,0.5-0.7,0.5-1.2c0-0.4-0.1-0.7-0.3-1s-0.5-0.5-0.8-0.5c-0.2-0.1-0.6-0.1-1.1-0.1h-2.4V16.5z"/>
				<path class="st6" d="M159.8,21.4v-9.3h4.1c0.8,0,1.5,0.1,1.9,0.3s0.8,0.5,1,0.9c0.3,0.4,0.4,0.9,0.4,1.4c0,0.7-0.2,1.2-0.6,1.7
					c-0.4,0.5-1.1,0.7-2,0.9c0.3,0.2,0.6,0.3,0.7,0.5c0.4,0.3,0.7,0.7,1,1.2l1.6,2.5h-1.5l-1.2-1.9c-0.4-0.6-0.7-1-0.9-1.3
					c-0.2-0.3-0.4-0.5-0.6-0.6c-0.2-0.1-0.4-0.2-0.6-0.2c-0.1,0-0.4,0-0.7,0H161v4.1H159.8z M161,16.2h2.6c0.6,0,1-0.1,1.3-0.2
					c0.3-0.1,0.6-0.3,0.7-0.6c0.2-0.3,0.2-0.5,0.2-0.8c0-0.4-0.2-0.8-0.5-1.1c-0.3-0.3-0.8-0.4-1.5-0.4H161V16.2z"/>
				<path class="st6" d="M169.7,24.1h-0.8c1.3-2,1.9-4.1,1.9-6.1c0-0.8-0.1-1.6-0.3-2.4c-0.1-0.6-0.3-1.2-0.6-1.8
					c-0.2-0.4-0.5-1-1-1.9h0.8c0.8,1.1,1.4,2.1,1.8,3.2c0.3,0.9,0.5,1.9,0.5,2.9c0,1.1-0.2,2.2-0.7,3.3
					C170.9,22.4,170.4,23.3,169.7,24.1z"/>
			</g>
		</g>
		<g transform="translate(430.000,37.500)">
			<rect x="52" y="1" class="st4" width="10" height="32.5"/>
			<g class="st5">
				<path class="st6" d="M71.2,13.8V4.5h6.7v1.1h-5.5v2.8h5.1v1.1h-5.1v3.2h5.7v1.1H71.2z"/>
				<path class="st6" d="M84.1,13c-0.4,0.4-0.8,0.6-1.2,0.8C82.5,13.9,82,14,81.6,14c-0.7,0-1.3-0.2-1.7-0.5
					c-0.4-0.4-0.6-0.8-0.6-1.4c0-0.3,0.1-0.6,0.2-0.9c0.1-0.3,0.3-0.5,0.6-0.7s0.5-0.3,0.8-0.4c0.2-0.1,0.6-0.1,1-0.2
					c0.9-0.1,1.6-0.2,2-0.4c0-0.2,0-0.3,0-0.3c0-0.5-0.1-0.8-0.3-1c-0.3-0.3-0.7-0.4-1.3-0.4c-0.5,0-0.9,0.1-1.2,0.3
					c-0.3,0.2-0.4,0.5-0.6,1L79.5,9c0.1-0.5,0.3-0.9,0.5-1.2s0.6-0.5,1-0.7c0.4-0.2,1-0.2,1.5-0.2c0.6,0,1,0.1,1.4,0.2
					c0.4,0.1,0.6,0.3,0.8,0.5s0.3,0.5,0.4,0.8c0,0.2,0.1,0.5,0.1,1.1V11c0,1.1,0,1.7,0.1,2c0,0.3,0.1,0.6,0.3,0.8h-1.2
					C84.2,13.6,84.1,13.3,84.1,13z M84,10.4c-0.4,0.2-1,0.3-1.9,0.4c-0.5,0.1-0.8,0.1-1,0.2c-0.2,0.1-0.3,0.2-0.5,0.4
					c-0.1,0.2-0.2,0.3-0.2,0.5c0,0.3,0.1,0.6,0.3,0.8s0.6,0.3,1,0.3c0.4,0,0.8-0.1,1.2-0.3c0.3-0.2,0.6-0.5,0.8-0.8
					c0.1-0.3,0.2-0.6,0.2-1.1V10.4z"/>
				<path class="st6" d="M86.9,13.8V7.1h1v1c0.3-0.5,0.5-0.8,0.7-0.9s0.5-0.2,0.7-0.2c0.4,0,0.8,0.1,1.2,0.4l-0.4,1.1
					c-0.3-0.2-0.6-0.2-0.8-0.2c-0.2,0-0.5,0.1-0.7,0.2c-0.2,0.2-0.3,0.4-0.4,0.6C88.1,9.3,88,9.8,88,10.3v3.5H86.9z"/>
				<path class="st6" d="M91.2,13.8V4.5h1.1v9.3H91.2z"/>
				<path class="st6" d="M94.1,16.4l-0.1-1.1c0.2,0.1,0.5,0.1,0.7,0.1c0.3,0,0.5,0,0.6-0.1s0.3-0.2,0.4-0.4c0.1-0.1,0.2-0.4,0.3-0.9
					c0-0.1,0.1-0.2,0.1-0.3l-2.6-6.8h1.2l1.4,3.9c0.2,0.5,0.3,1,0.5,1.6c0.1-0.5,0.3-1,0.5-1.5l1.4-3.9h1.1l-2.6,6.9
					c-0.3,0.7-0.5,1.3-0.6,1.5c-0.2,0.4-0.4,0.7-0.7,0.8c-0.3,0.2-0.6,0.3-0.9,0.3C94.6,16.5,94.3,16.5,94.1,16.4z"/>
				<path class="st6" d="M108.7,10.1V9.1l3.9,0v3.5c-0.6,0.5-1.2,0.8-1.9,1.1c-0.6,0.2-1.3,0.4-2,0.4c-0.9,0-1.7-0.2-2.5-0.6
					c-0.7-0.4-1.3-1-1.7-1.7c-0.4-0.7-0.6-1.6-0.6-2.5c0-0.9,0.2-1.8,0.6-2.5s0.9-1.4,1.6-1.7s1.5-0.6,2.5-0.6
					c0.7,0,1.3,0.1,1.8,0.3c0.5,0.2,1,0.5,1.3,0.9c0.3,0.4,0.5,0.9,0.7,1.5l-1.1,0.3c-0.1-0.5-0.3-0.8-0.5-1.1
					c-0.2-0.3-0.5-0.5-0.9-0.7c-0.4-0.2-0.8-0.2-1.3-0.2c-0.6,0-1,0.1-1.5,0.3c-0.4,0.2-0.7,0.4-1,0.7c-0.3,0.3-0.4,0.6-0.6,0.9
					c-0.2,0.6-0.4,1.2-0.4,1.9c0,0.8,0.1,1.5,0.4,2.1c0.3,0.6,0.7,1,1.2,1.2s1.1,0.4,1.7,0.4c0.5,0,1.1-0.1,1.6-0.3s0.9-0.4,1.2-0.7
					v-1.7H108.7z"/>
				<path class="st6" d="M119,11.6l1.2,0.1c-0.2,0.7-0.5,1.2-1,1.6c-0.5,0.4-1.1,0.6-1.9,0.6c-1,0-1.8-0.3-2.3-0.9
					c-0.6-0.6-0.9-1.5-0.9-2.6c0-1.1,0.3-2,0.9-2.6s1.3-0.9,2.3-0.9c0.9,0,1.6,0.3,2.2,0.9c0.6,0.6,0.9,1.5,0.9,2.6
					c0,0.1,0,0.2,0,0.3h-5c0,0.7,0.3,1.3,0.6,1.7c0.4,0.4,0.8,0.6,1.4,0.6c0.4,0,0.8-0.1,1.1-0.3C118.6,12.5,118.8,12.1,119,11.6z
					 M115.2,9.8h3.8c-0.1-0.6-0.2-1-0.4-1.3c-0.4-0.4-0.8-0.7-1.4-0.7c-0.5,0-1,0.2-1.3,0.5C115.4,8.7,115.2,9.2,115.2,9.8z"/>
				<path class="st6" d="M121.6,13.8V7.1h1v1c0.5-0.7,1.2-1.1,2.1-1.1c0.4,0,0.8,0.1,1.1,0.2c0.3,0.1,0.6,0.3,0.8,0.6
					c0.2,0.2,0.3,0.5,0.4,0.8c0,0.2,0.1,0.6,0.1,1.1v4.1h-1.1V9.7c0-0.5,0-0.8-0.1-1s-0.2-0.4-0.5-0.6s-0.5-0.2-0.8-0.2
					c-0.5,0-0.9,0.2-1.3,0.5c-0.4,0.3-0.5,0.9-0.5,1.8v3.7H121.6z"/>
				<path class="st6" d="M133.4,11.6l1.2,0.1c-0.2,0.7-0.5,1.2-1,1.6c-0.5,0.4-1.1,0.6-1.9,0.6c-1,0-1.8-0.3-2.3-0.9
					c-0.6-0.6-0.9-1.5-0.9-2.6c0-1.1,0.3-2,0.9-2.6s1.3-0.9,2.3-0.9c0.9,0,1.6,0.3,2.2,0.9c0.6,0.6,0.9,1.5,0.9,2.6
					c0,0.1,0,0.2,0,0.3h-5c0,0.7,0.3,1.3,0.6,1.7c0.4,0.4,0.8,0.6,1.4,0.6c0.4,0,0.8-0.1,1.1-0.3C133,12.5,133.2,12.1,133.4,11.6z
					 M129.7,9.8h3.8c-0.1-0.6-0.2-1-0.4-1.3c-0.4-0.4-0.8-0.7-1.4-0.7c-0.5,0-1,0.2-1.3,0.5C129.9,8.7,129.7,9.2,129.7,9.8z"/>
				<path class="st6" d="M136,13.8V7.1h1v1c0.3-0.5,0.5-0.8,0.7-0.9s0.5-0.2,0.7-0.2c0.4,0,0.8,0.1,1.2,0.4l-0.4,1.1
					c-0.3-0.2-0.6-0.2-0.8-0.2c-0.2,0-0.5,0.1-0.7,0.2c-0.2,0.2-0.3,0.4-0.4,0.6c-0.1,0.4-0.2,0.9-0.2,1.3v3.5H136z"/>
				<path class="st6" d="M144.8,13c-0.4,0.4-0.8,0.6-1.2,0.8c-0.4,0.1-0.8,0.2-1.3,0.2c-0.7,0-1.3-0.2-1.7-0.5
					c-0.4-0.4-0.6-0.8-0.6-1.4c0-0.3,0.1-0.6,0.2-0.9c0.1-0.3,0.3-0.5,0.6-0.7c0.2-0.2,0.5-0.3,0.8-0.4c0.2-0.1,0.6-0.1,1-0.2
					c0.9-0.1,1.6-0.2,2-0.4c0-0.2,0-0.3,0-0.3c0-0.5-0.1-0.8-0.3-1c-0.3-0.3-0.7-0.4-1.3-0.4c-0.5,0-0.9,0.1-1.2,0.3s-0.4,0.5-0.6,1
					L140.2,9c0.1-0.5,0.3-0.9,0.5-1.2c0.2-0.3,0.6-0.5,1-0.7c0.4-0.2,1-0.2,1.5-0.2c0.6,0,1,0.1,1.4,0.2s0.6,0.3,0.8,0.5
					c0.2,0.2,0.3,0.5,0.4,0.8c0,0.2,0.1,0.5,0.1,1.1V11c0,1.1,0,1.7,0.1,2s0.1,0.6,0.3,0.8H145C144.9,13.6,144.8,13.3,144.8,13z
					 M144.7,10.4c-0.4,0.2-1,0.3-1.9,0.4c-0.5,0.1-0.8,0.1-1,0.2c-0.2,0.1-0.3,0.2-0.5,0.4s-0.2,0.3-0.2,0.5c0,0.3,0.1,0.6,0.3,0.8
					c0.2,0.2,0.6,0.3,1,0.3c0.4,0,0.8-0.1,1.2-0.3s0.6-0.5,0.8-0.8c0.1-0.3,0.2-0.6,0.2-1.1V10.4z"/>
				<path class="st6" d="M150.1,12.8l0.2,1c-0.3,0.1-0.6,0.1-0.9,0.1c-0.4,0-0.7-0.1-1-0.2c-0.2-0.1-0.4-0.3-0.5-0.5
					s-0.1-0.7-0.1-1.3V7.9H147V7.1h0.8V5.4l1.1-0.7v2.4h1.1v0.9h-1.1v3.9c0,0.3,0,0.5,0.1,0.6c0,0.1,0.1,0.2,0.2,0.2
					c0.1,0.1,0.2,0.1,0.4,0.1C149.7,12.8,149.9,12.8,150.1,12.8z"/>
				<path class="st6" d="M151.2,5.8V4.5h1.1v1.3H151.2z M151.2,13.8V7.1h1.1v6.7H151.2z"/>
				<path class="st6" d="M153.7,10.4c0-1.2,0.3-2.2,1-2.8c0.6-0.5,1.3-0.7,2.1-0.7c0.9,0,1.7,0.3,2.3,0.9s0.9,1.4,0.9,2.5
					c0,0.9-0.1,1.5-0.4,2c-0.3,0.5-0.6,0.9-1.1,1.2c-0.5,0.3-1,0.4-1.6,0.4c-0.9,0-1.7-0.3-2.3-0.9C154,12.4,153.7,11.6,153.7,10.4z
					 M154.8,10.4c0,0.9,0.2,1.5,0.6,1.9s0.9,0.6,1.4,0.6c0.6,0,1-0.2,1.4-0.6c0.4-0.4,0.6-1.1,0.6-2c0-0.8-0.2-1.5-0.6-1.9
					s-0.8-0.6-1.4-0.6c-0.6,0-1,0.2-1.4,0.6S154.8,9.6,154.8,10.4z"/>
				<path class="st6" d="M161.3,13.8V7.1h1v1c0.5-0.7,1.2-1.1,2.1-1.1c0.4,0,0.8,0.1,1.1,0.2c0.3,0.1,0.6,0.3,0.8,0.6
					c0.2,0.2,0.3,0.5,0.4,0.8c0,0.2,0.1,0.6,0.1,1.1v4.1h-1.1V9.7c0-0.5,0-0.8-0.1-1s-0.2-0.4-0.5-0.6c-0.2-0.1-0.5-0.2-0.8-0.2
					c-0.5,0-0.9,0.2-1.3,0.5c-0.4,0.3-0.5,0.9-0.5,1.8v3.7H161.3z"/>
				<path class="st6" d="M73.2,32.1c-0.6-0.8-1.2-1.7-1.6-2.8c-0.4-1.1-0.7-2.2-0.7-3.3c0-1,0.2-2,0.5-2.9c0.4-1.1,1-2.1,1.8-3.2H74
					c-0.5,0.9-0.9,1.5-1,1.9c-0.3,0.6-0.5,1.2-0.6,1.8c-0.2,0.8-0.3,1.6-0.3,2.4c0,2,0.6,4.1,1.9,6.1H73.2z"/>
				<path class="st6" d="M82.1,26.1l1.2,0.3c-0.3,1-0.7,1.8-1.4,2.3s-1.5,0.8-2.5,0.8c-1,0-1.8-0.2-2.4-0.6c-0.6-0.4-1.1-1-1.4-1.8
					c-0.3-0.8-0.5-1.6-0.5-2.5c0-1,0.2-1.8,0.6-2.5s0.9-1.3,1.6-1.6c0.7-0.4,1.4-0.6,2.3-0.6c0.9,0,1.7,0.2,2.3,0.7
					c0.6,0.5,1.1,1.1,1.3,2L82,22.9c-0.2-0.7-0.5-1.2-0.9-1.5S80.1,21,79.5,21c-0.7,0-1.3,0.2-1.8,0.5s-0.8,0.8-1,1.4
					c-0.2,0.6-0.3,1.2-0.3,1.8c0,0.8,0.1,1.5,0.3,2.1c0.2,0.6,0.6,1,1.1,1.3s1,0.4,1.6,0.4c0.7,0,1.3-0.2,1.8-0.6
					C81.6,27.5,82,26.9,82.1,26.1z"/>
				<path class="st6" d="M84.9,29.4v-9.3h1.3l4.9,7.3v-7.3h1.2v9.3h-1.3L86,22.1v7.3H84.9z"/>
				<path class="st6" d="M94.2,29.4v-9.3h1.3l4.9,7.3v-7.3h1.2v9.3h-1.3l-4.9-7.3v7.3H94.2z"/>
				<path class="st6" d="M103.8,29.4v-1.3h1.3v1.3c0,0.5-0.1,0.9-0.3,1.2s-0.4,0.5-0.8,0.7l-0.3-0.5c0.2-0.1,0.4-0.3,0.5-0.5
					c0.1-0.2,0.2-0.5,0.2-0.9H103.8z"/>
				<path class="st6" d="M110.8,29.4v-9.3h1.9l2.2,6.6c0.2,0.6,0.4,1.1,0.4,1.4c0.1-0.3,0.3-0.8,0.5-1.5l2.2-6.5h1.7v9.3h-1.2v-7.8
					l-2.7,7.8h-1.1l-2.7-7.9v7.9H110.8z"/>
				<path class="st6" d="M121.6,29.4v-9.3h1.2v8.2h4.6v1.1H121.6z"/>
				<path class="st6" d="M128.9,29.4v-9.3h3.5c0.6,0,1.1,0,1.4,0.1c0.5,0.1,0.8,0.2,1.1,0.4c0.3,0.2,0.6,0.5,0.7,0.9
					c0.2,0.4,0.3,0.8,0.3,1.3c0,0.8-0.3,1.5-0.8,2s-1.4,0.8-2.7,0.8h-2.4v3.8H128.9z M130.2,24.5h2.4c0.8,0,1.4-0.1,1.7-0.4
					c0.3-0.3,0.5-0.7,0.5-1.2c0-0.4-0.1-0.7-0.3-1c-0.2-0.3-0.5-0.5-0.8-0.5c-0.2-0.1-0.6-0.1-1.1-0.1h-2.4V24.5z"/>
				<path class="st6" d="M138.2,32.1h-0.8c1.3-2,1.9-4.1,1.9-6.1c0-0.8-0.1-1.6-0.3-2.4c-0.1-0.6-0.3-1.2-0.6-1.8
					c-0.2-0.4-0.5-1-1-1.9h0.8c0.8,1.1,1.4,2.1,1.8,3.2c0.3,0.9,0.5,1.9,0.5,2.9c0,1.1-0.2,2.2-0.7,3.3
					C139.4,30.4,138.8,31.3,138.2,32.1z"/>
			</g>
		</g>
		<g transform="translate(430.000,185.833)">
			<rect x="52" y="1" class="st4" width="10" height="14.2"/>
			<g class="st5">
				<path class="st6" d="M75.5,4V2.9l3.9,0v3.5c-0.6,0.5-1.2,0.8-1.9,1.1s-1.3,0.4-2,0.4c-0.9,0-1.7-0.2-2.5-0.6
					c-0.7-0.4-1.3-1-1.7-1.7C71,4.8,70.8,3.9,70.8,3c0-0.9,0.2-1.8,0.6-2.5s0.9-1.4,1.6-1.7s1.5-0.6,2.5-0.6c0.7,0,1.3,0.1,1.8,0.3
					c0.5,0.2,1,0.5,1.3,0.9s0.5,0.9,0.7,1.5l-1.1,0.3c-0.1-0.5-0.3-0.8-0.5-1.1s-0.5-0.5-0.9-0.7S76-0.8,75.5-0.8
					c-0.6,0-1,0.1-1.5,0.3c-0.4,0.2-0.7,0.4-1,0.7s-0.4,0.6-0.6,0.9c-0.2,0.6-0.4,1.2-0.4,1.9c0,0.8,0.1,1.5,0.4,2.1
					c0.3,0.6,0.7,1,1.2,1.2c0.5,0.3,1.1,0.4,1.7,0.4c0.5,0,1.1-0.1,1.6-0.3s0.9-0.4,1.2-0.7V4H75.5z"/>
				<path class="st6" d="M81.1,7.6V0.9h1v1c0.3-0.5,0.5-0.8,0.7-0.9s0.5-0.2,0.7-0.2c0.4,0,0.8,0.1,1.2,0.4l-0.4,1.1
					c-0.3-0.2-0.6-0.2-0.8-0.2c-0.2,0-0.5,0.1-0.7,0.2c-0.2,0.2-0.3,0.4-0.4,0.6c-0.1,0.4-0.2,0.9-0.2,1.3v3.5H81.1z"/>
				<path class="st6" d="M89.8,6.8c-0.4,0.4-0.8,0.6-1.2,0.8c-0.4,0.1-0.8,0.2-1.3,0.2c-0.7,0-1.3-0.2-1.7-0.5
					c-0.4-0.4-0.6-0.8-0.6-1.4c0-0.3,0.1-0.6,0.2-0.9c0.1-0.3,0.3-0.5,0.6-0.7c0.2-0.2,0.5-0.3,0.8-0.4c0.2-0.1,0.6-0.1,1-0.2
					c0.9-0.1,1.6-0.2,2-0.4c0-0.2,0-0.3,0-0.3c0-0.5-0.1-0.8-0.3-1c-0.3-0.3-0.7-0.4-1.3-0.4c-0.5,0-0.9,0.1-1.2,0.3s-0.4,0.5-0.6,1
					l-1.1-0.2c0.1-0.5,0.3-0.9,0.5-1.2c0.2-0.3,0.6-0.5,1-0.7c0.4-0.2,1-0.2,1.5-0.2c0.6,0,1,0.1,1.4,0.2s0.6,0.3,0.8,0.5
					c0.2,0.2,0.3,0.5,0.4,0.8c0,0.2,0.1,0.5,0.1,1.1v1.5c0,1.1,0,1.7,0.1,2s0.1,0.6,0.3,0.8h-1.2C90,7.4,89.9,7.1,89.8,6.8z
					 M89.8,4.3c-0.4,0.2-1,0.3-1.9,0.4c-0.5,0.1-0.8,0.1-1,0.2c-0.2,0.1-0.3,0.2-0.5,0.4s-0.2,0.3-0.2,0.5c0,0.3,0.1,0.6,0.3,0.8
					c0.2,0.2,0.6,0.3,1,0.3c0.4,0,0.8-0.1,1.2-0.3s0.6-0.5,0.8-0.8c0.1-0.3,0.2-0.6,0.2-1.1V4.3z"/>
				<path class="st6" d="M92.7,10.2V0.9h1v0.9C94,1.4,94.2,1.2,94.5,1c0.3-0.2,0.7-0.3,1.1-0.3c0.6,0,1.1,0.1,1.5,0.4
					c0.4,0.3,0.8,0.7,1,1.3c0.2,0.5,0.3,1.1,0.3,1.8c0,0.7-0.1,1.3-0.4,1.9c-0.2,0.6-0.6,1-1.1,1.3c-0.5,0.3-1,0.4-1.5,0.4
					c-0.4,0-0.7-0.1-1-0.2S94,7.2,93.8,6.9v3.3H92.7z M93.7,4.3c0,0.9,0.2,1.5,0.5,1.9c0.4,0.4,0.8,0.6,1.3,0.6
					c0.5,0,0.9-0.2,1.3-0.6c0.4-0.4,0.5-1.1,0.5-2c0-0.9-0.2-1.5-0.5-1.9c-0.4-0.4-0.8-0.6-1.3-0.6c-0.5,0-0.9,0.2-1.3,0.7
					C93.9,2.8,93.7,3.4,93.7,4.3z"/>
				<path class="st6" d="M99.9,7.6v-9.3h1.1v3.3c0.5-0.6,1.2-0.9,2-0.9c0.5,0,0.9,0.1,1.3,0.3c0.4,0.2,0.6,0.5,0.8,0.8
					c0.2,0.3,0.2,0.9,0.2,1.5v4.3h-1.1V3.4c0-0.6-0.1-1-0.4-1.2c-0.2-0.3-0.6-0.4-1.1-0.4c-0.3,0-0.7,0.1-1,0.3s-0.5,0.4-0.6,0.7
					C101.1,3,101,3.4,101,3.9v3.7H99.9z"/>
				<path class="st6" d="M107.1-0.4v-1.3h1.1v1.3H107.1z M107.1,7.6V0.9h1.1v6.7H107.1z"/>
				<path class="st6" d="M114.4,5.2l1.1,0.1c-0.1,0.8-0.4,1.4-0.9,1.8c-0.5,0.4-1.1,0.7-1.9,0.7c-0.9,0-1.7-0.3-2.2-0.9
					c-0.6-0.6-0.8-1.5-0.8-2.6c0-0.7,0.1-1.4,0.4-1.9s0.6-1,1.1-1.2c0.5-0.3,1-0.4,1.6-0.4c0.7,0,1.3,0.2,1.8,0.6s0.8,0.9,0.9,1.6
					L114.3,3c-0.1-0.5-0.3-0.8-0.6-1c-0.3-0.2-0.6-0.3-1-0.3c-0.6,0-1,0.2-1.4,0.6c-0.4,0.4-0.5,1.1-0.5,2c0,0.9,0.2,1.6,0.5,2
					c0.3,0.4,0.8,0.6,1.4,0.6c0.4,0,0.8-0.1,1.1-0.4C114.2,6.2,114.3,5.7,114.4,5.2z"/>
				<path class="st6" d="M120.9,6.8c-0.4,0.4-0.8,0.6-1.2,0.8c-0.4,0.1-0.8,0.2-1.3,0.2c-0.7,0-1.3-0.2-1.7-0.5
					c-0.4-0.4-0.6-0.8-0.6-1.4c0-0.3,0.1-0.6,0.2-0.9c0.1-0.3,0.3-0.5,0.6-0.7c0.2-0.2,0.5-0.3,0.8-0.4c0.2-0.1,0.6-0.1,1-0.2
					c0.9-0.1,1.6-0.2,2-0.4c0-0.2,0-0.3,0-0.3c0-0.5-0.1-0.8-0.3-1c-0.3-0.3-0.7-0.4-1.3-0.4c-0.5,0-0.9,0.1-1.2,0.3s-0.4,0.5-0.6,1
					l-1.1-0.2c0.1-0.5,0.3-0.9,0.5-1.2c0.2-0.3,0.6-0.5,1-0.7c0.4-0.2,1-0.2,1.5-0.2c0.6,0,1,0.1,1.4,0.2s0.6,0.3,0.8,0.5
					c0.2,0.2,0.3,0.5,0.4,0.8c0,0.2,0.1,0.5,0.1,1.1v1.5c0,1.1,0,1.7,0.1,2s0.1,0.6,0.3,0.8h-1.2C121,7.4,121,7.1,120.9,6.8z
					 M120.8,4.3c-0.4,0.2-1,0.3-1.9,0.4c-0.5,0.1-0.8,0.1-1,0.2c-0.2,0.1-0.3,0.2-0.5,0.4s-0.2,0.3-0.2,0.5c0,0.3,0.1,0.6,0.3,0.8
					c0.2,0.2,0.6,0.3,1,0.3c0.4,0,0.8-0.1,1.2-0.3s0.6-0.5,0.8-0.8c0.1-0.3,0.2-0.6,0.2-1.1V4.3z"/>
				<path class="st6" d="M123.7,7.6v-9.3h1.1v9.3H123.7z"/>
				<path class="st6" d="M130.4,7.6v-9.3h1.9l2.2,6.6c0.2,0.6,0.4,1.1,0.4,1.4c0.1-0.3,0.3-0.8,0.5-1.5l2.2-6.5h1.7v9.3h-1.2v-7.8
					l-2.7,7.8h-1.1l-2.7-7.9v7.9H130.4z"/>
				<path class="st6" d="M140.7,4.3c0-1.2,0.3-2.2,1-2.8c0.6-0.5,1.3-0.7,2.1-0.7c0.9,0,1.7,0.3,2.3,0.9s0.9,1.4,0.9,2.5
					c0,0.9-0.1,1.5-0.4,2c-0.3,0.5-0.6,0.9-1.1,1.2c-0.5,0.3-1,0.4-1.6,0.4c-0.9,0-1.7-0.3-2.3-0.9C140.9,6.3,140.7,5.4,140.7,4.3z
					 M141.8,4.3c0,0.9,0.2,1.5,0.6,1.9s0.9,0.6,1.4,0.6c0.6,0,1-0.2,1.4-0.6c0.4-0.4,0.6-1.1,0.6-2c0-0.8-0.2-1.5-0.6-1.9
					c-0.4-0.4-0.8-0.6-1.4-0.6c-0.6,0-1,0.2-1.4,0.6S141.8,3.4,141.8,4.3z"/>
				<path class="st6" d="M152.7,7.6V6.8c-0.4,0.7-1.1,1-1.9,1c-0.5,0-1-0.1-1.5-0.4c-0.5-0.3-0.8-0.7-1-1.2
					c-0.2-0.5-0.4-1.1-0.4-1.8c0-0.7,0.1-1.3,0.3-1.8s0.6-1,1-1.3c0.4-0.3,1-0.4,1.5-0.4c0.4,0,0.8,0.1,1.1,0.3
					c0.3,0.2,0.6,0.4,0.8,0.7v-3.3h1.1v9.3H152.7z M149.1,4.3c0,0.9,0.2,1.5,0.5,1.9c0.4,0.4,0.8,0.6,1.3,0.6c0.5,0,0.9-0.2,1.3-0.6
					c0.3-0.4,0.5-1,0.5-1.9c0-0.9-0.2-1.6-0.5-2s-0.8-0.6-1.3-0.6c-0.5,0-0.9,0.2-1.3,0.6C149.2,2.7,149.1,3.4,149.1,4.3z"/>
				<path class="st6" d="M160.2,5.5l1.2,0.1c-0.2,0.7-0.5,1.2-1,1.6c-0.5,0.4-1.1,0.6-1.9,0.6c-1,0-1.8-0.3-2.3-0.9
					c-0.6-0.6-0.9-1.5-0.9-2.6c0-1.1,0.3-2,0.9-2.6s1.3-0.9,2.3-0.9c0.9,0,1.6,0.3,2.2,0.9c0.6,0.6,0.9,1.5,0.9,2.6
					c0,0.1,0,0.2,0,0.3h-5c0,0.7,0.3,1.3,0.6,1.7c0.4,0.4,0.8,0.6,1.4,0.6c0.4,0,0.8-0.1,1.1-0.3C159.8,6.3,160,5.9,160.2,5.5z
					 M156.4,3.6h3.8c-0.1-0.6-0.2-1-0.4-1.3c-0.4-0.4-0.8-0.7-1.4-0.7c-0.5,0-1,0.2-1.3,0.5C156.6,2.6,156.4,3,156.4,3.6z"/>
				<path class="st6" d="M162.7,7.6v-9.3h1.1v9.3H162.7z"/>
				<path class="st6" d="M165.2,5.6l1.1-0.2c0.1,0.5,0.2,0.8,0.5,1c0.3,0.2,0.7,0.4,1.2,0.4c0.5,0,0.9-0.1,1.2-0.3s0.4-0.5,0.4-0.8
					c0-0.3-0.1-0.5-0.3-0.6c-0.2-0.1-0.5-0.2-1.2-0.4c-0.8-0.2-1.4-0.4-1.7-0.5c-0.3-0.2-0.6-0.4-0.7-0.6c-0.2-0.3-0.3-0.6-0.3-0.9
					c0-0.3,0.1-0.6,0.2-0.8c0.1-0.3,0.3-0.5,0.6-0.6c0.2-0.1,0.4-0.2,0.7-0.3c0.3-0.1,0.6-0.1,1-0.1c0.5,0,1,0.1,1.4,0.2
					c0.4,0.2,0.7,0.4,0.9,0.6c0.2,0.3,0.3,0.6,0.4,1l-1.1,0.2c-0.1-0.3-0.2-0.6-0.4-0.8s-0.6-0.3-1-0.3c-0.5,0-0.9,0.1-1.1,0.3
					c-0.2,0.2-0.3,0.4-0.3,0.6c0,0.1,0,0.3,0.1,0.4c0.1,0.1,0.2,0.2,0.4,0.3c0.1,0,0.5,0.1,1,0.3c0.8,0.2,1.4,0.4,1.7,0.5
					s0.6,0.3,0.8,0.6s0.3,0.6,0.3,1c0,0.4-0.1,0.7-0.3,1.1c-0.2,0.3-0.5,0.6-1,0.8c-0.4,0.2-0.9,0.3-1.4,0.3c-0.9,0-1.5-0.2-2-0.5
					S165.3,6.3,165.2,5.6z"/>
				<path class="st6" d="M73.2,26c-0.6-0.8-1.2-1.7-1.6-2.8c-0.4-1.1-0.7-2.2-0.7-3.3c0-1,0.2-2,0.5-2.9c0.4-1.1,1-2.1,1.8-3.2H74
					c-0.5,0.9-0.9,1.5-1,1.9c-0.3,0.6-0.5,1.2-0.6,1.8c-0.2,0.8-0.3,1.6-0.3,2.4c0,2,0.6,4.1,1.9,6.1H73.2z"/>
				<path class="st6" d="M79.8,19.6v-1.1l3.9,0v3.5c-0.6,0.5-1.2,0.8-1.9,1.1s-1.3,0.4-2,0.4c-0.9,0-1.7-0.2-2.5-0.6s-1.3-1-1.7-1.7
					c-0.4-0.7-0.6-1.6-0.6-2.5c0-0.9,0.2-1.8,0.6-2.5c0.4-0.8,0.9-1.4,1.6-1.7s1.5-0.6,2.5-0.6c0.7,0,1.3,0.1,1.8,0.3s1,0.5,1.3,0.9
					s0.5,0.9,0.7,1.5l-1.1,0.3c-0.1-0.5-0.3-0.8-0.5-1.1s-0.5-0.5-0.9-0.7s-0.8-0.2-1.3-0.2c-0.6,0-1,0.1-1.5,0.3
					c-0.4,0.2-0.7,0.4-1,0.7c-0.3,0.3-0.4,0.6-0.6,0.9c-0.2,0.6-0.4,1.2-0.4,1.9c0,0.8,0.1,1.5,0.4,2.1c0.3,0.6,0.7,1,1.2,1.2
					c0.5,0.3,1.1,0.4,1.7,0.4c0.5,0,1.1-0.1,1.6-0.3s0.9-0.4,1.2-0.7v-1.7H79.8z"/>
				<path class="st6" d="M85.6,23.2v-9.3h1.3l4.9,7.3v-7.3h1.2v9.3h-1.3l-4.9-7.3v7.3H85.6z"/>
				<path class="st6" d="M95,23.2v-9.3h1.3l4.9,7.3v-7.3h1.2v9.3H101l-4.9-7.3v7.3H95z"/>
				<path class="st6" d="M104.5,23.2v-1.3h1.3v1.3c0,0.5-0.1,0.9-0.3,1.2s-0.4,0.5-0.8,0.7l-0.3-0.5c0.2-0.1,0.4-0.3,0.5-0.5
					c0.1-0.2,0.2-0.5,0.2-0.9H104.5z"/>
				<path class="st6" d="M108,23.2v-9.3h3.2c0.7,0,1.3,0,1.7,0.1c0.5,0.1,1,0.3,1.4,0.7c0.5,0.4,0.9,0.9,1.1,1.6
					c0.2,0.6,0.4,1.4,0.4,2.2c0,0.7-0.1,1.3-0.2,1.9c-0.2,0.5-0.4,1-0.6,1.4c-0.3,0.4-0.5,0.6-0.8,0.8c-0.3,0.2-0.7,0.4-1.1,0.5
					c-0.4,0.1-0.9,0.2-1.5,0.2H108z M109.2,22.1h2c0.6,0,1.1-0.1,1.4-0.2c0.3-0.1,0.6-0.3,0.8-0.5c0.3-0.3,0.5-0.7,0.7-1.2
					c0.2-0.5,0.2-1.1,0.2-1.8c0-1-0.2-1.7-0.5-2.2s-0.7-0.9-1.2-1.1c-0.3-0.1-0.9-0.2-1.6-0.2h-2V22.1z"/>
				<path class="st6" d="M117.3,23.2v-9.3h3.5c0.7,0,1.3,0.1,1.7,0.3s0.8,0.5,1,0.9c0.2,0.4,0.4,0.8,0.4,1.2c0,0.4-0.1,0.8-0.3,1.1
					s-0.5,0.6-1,0.9c0.6,0.2,1,0.4,1.3,0.8c0.3,0.4,0.5,0.9,0.5,1.4c0,0.4-0.1,0.8-0.3,1.2c-0.2,0.4-0.4,0.7-0.7,0.9
					c-0.3,0.2-0.6,0.4-1,0.5s-0.9,0.2-1.5,0.2H117.3z M118.5,17.8h2c0.5,0,0.9,0,1.2-0.1c0.3-0.1,0.5-0.2,0.7-0.5s0.2-0.5,0.2-0.8
					c0-0.3-0.1-0.6-0.2-0.8c-0.1-0.2-0.4-0.4-0.6-0.5c-0.3-0.1-0.7-0.1-1.4-0.1h-1.9V17.8z M118.5,22.1h2.3c0.4,0,0.7,0,0.8,0
					c0.3-0.1,0.5-0.1,0.7-0.3s0.3-0.3,0.5-0.5s0.2-0.5,0.2-0.8c0-0.3-0.1-0.6-0.3-0.9s-0.4-0.4-0.7-0.5c-0.3-0.1-0.8-0.2-1.4-0.2
					h-2.2V22.1z"/>
				<path class="st6" d="M126,23.2v-9.3h1.3l4.9,7.3v-7.3h1.2v9.3h-1.3l-4.9-7.3v7.3H126z"/>
				<path class="st6" d="M136,26h-0.8c1.3-2,1.9-4.1,1.9-6.1c0-0.8-0.1-1.6-0.3-2.4c-0.1-0.6-0.3-1.2-0.6-1.8c-0.2-0.4-0.5-1-1-1.9
					h0.8c0.8,1.1,1.4,2.1,1.8,3.2c0.3,0.9,0.5,1.9,0.5,2.9c0,1.1-0.2,2.2-0.7,3.3C137.2,24.2,136.7,25.2,136,26z"/>
			</g>
		</g>
		<g transform="translate(430.000,225.000)">
			<rect x="52" y="1" class="st4" width="10" height="10.8"/>
			<g class="st5">
				<path class="st6" d="M71.1,6v-9.3H73l2.2,6.6c0.2,0.6,0.4,1.1,0.4,1.4c0.1-0.3,0.3-0.8,0.5-1.5l2.2-6.5H80V6h-1.2v-7.8L76.1,6
					H75L72.3-2V6H71.1z"/>
				<path class="st6" d="M86.4,3.8l1.2,0.1c-0.2,0.7-0.5,1.2-1,1.6c-0.5,0.4-1.1,0.6-1.9,0.6c-1,0-1.8-0.3-2.3-0.9
					c-0.6-0.6-0.9-1.5-0.9-2.6c0-1.1,0.3-2,0.9-2.6s1.3-0.9,2.3-0.9c0.9,0,1.6,0.3,2.2,0.9c0.6,0.6,0.9,1.5,0.9,2.6
					c0,0.1,0,0.2,0,0.3h-5c0,0.7,0.3,1.3,0.6,1.7c0.4,0.4,0.8,0.6,1.4,0.6c0.4,0,0.8-0.1,1.1-0.3C86,4.6,86.3,4.3,86.4,3.8z
					 M82.7,1.9h3.8c-0.1-0.6-0.2-1-0.4-1.3C85.7,0.2,85.2,0,84.6,0c-0.5,0-1,0.2-1.3,0.5C82.9,0.9,82.7,1.4,82.7,1.9z"/>
				<path class="st6" d="M89.1,6v-6.7h1v0.9c0.2-0.3,0.5-0.6,0.8-0.8s0.8-0.3,1.2-0.3c0.5,0,0.9,0.1,1.2,0.3
					c0.3,0.2,0.5,0.5,0.7,0.9c0.5-0.8,1.2-1.2,2.1-1.2c0.7,0,1.2,0.2,1.5,0.6s0.5,0.9,0.5,1.7V6h-1.1V1.7c0-0.5,0-0.8-0.1-1
					s-0.2-0.4-0.4-0.5c-0.2-0.1-0.4-0.2-0.7-0.2c-0.5,0-0.9,0.2-1.2,0.5c-0.3,0.3-0.5,0.8-0.5,1.5V6h-1.1V1.6c0-0.5-0.1-0.9-0.3-1.1
					c-0.2-0.3-0.5-0.4-0.9-0.4c-0.3,0-0.6,0.1-0.9,0.3s-0.5,0.4-0.6,0.7c-0.1,0.3-0.2,0.8-0.2,1.4V6H89.1z"/>
				<path class="st6" d="M99.5,2.6c0-1.2,0.3-2.2,1-2.8c0.6-0.5,1.3-0.7,2.1-0.7c0.9,0,1.7,0.3,2.3,0.9c0.6,0.6,0.9,1.4,0.9,2.5
					c0,0.9-0.1,1.5-0.4,2c-0.3,0.5-0.6,0.9-1.1,1.2c-0.5,0.3-1,0.4-1.6,0.4c-0.9,0-1.7-0.3-2.3-0.9C99.8,4.6,99.5,3.7,99.5,2.6z
					 M100.6,2.6c0,0.9,0.2,1.5,0.6,1.9c0.4,0.4,0.9,0.6,1.4,0.6c0.6,0,1-0.2,1.4-0.6s0.6-1.1,0.6-2c0-0.8-0.2-1.5-0.6-1.9
					c-0.4-0.4-0.8-0.6-1.4-0.6c-0.6,0-1,0.2-1.4,0.6C100.8,1.1,100.6,1.7,100.6,2.6z"/>
				<path class="st6" d="M107.1,6v-6.7h1v1c0.3-0.5,0.5-0.8,0.7-0.9c0.2-0.2,0.5-0.2,0.7-0.2c0.4,0,0.8,0.1,1.2,0.4l-0.4,1.1
					c-0.3-0.2-0.6-0.2-0.8-0.2c-0.2,0-0.5,0.1-0.7,0.2s-0.3,0.4-0.4,0.6c-0.1,0.4-0.2,0.9-0.2,1.3V6H107.1z"/>
				<path class="st6" d="M111.4,8.6l-0.1-1.1c0.2,0.1,0.5,0.1,0.7,0.1c0.3,0,0.5,0,0.6-0.1s0.3-0.2,0.4-0.4c0.1-0.1,0.2-0.4,0.3-0.9
					c0-0.1,0.1-0.2,0.1-0.3l-2.6-6.8h1.2l1.4,3.9c0.2,0.5,0.3,1,0.5,1.6c0.1-0.5,0.3-1,0.5-1.5l1.4-3.9h1.1l-2.6,6.9
					c-0.3,0.7-0.5,1.3-0.6,1.5c-0.2,0.4-0.4,0.7-0.7,0.8c-0.3,0.2-0.6,0.3-0.9,0.3C111.9,8.7,111.7,8.7,111.4,8.6z"/>
				<path class="st6" d="M121.7,6v-9.3h1.3l4.9,7.3v-7.3h1.2V6h-1.3l-4.9-7.3V6H121.7z"/>
				<path class="st6" d="M135.6,3.8l1.2,0.1c-0.2,0.7-0.5,1.2-1,1.6c-0.5,0.4-1.1,0.6-1.9,0.6c-1,0-1.8-0.3-2.3-0.9
					c-0.6-0.6-0.9-1.5-0.9-2.6c0-1.1,0.3-2,0.9-2.6s1.3-0.9,2.3-0.9c0.9,0,1.6,0.3,2.2,0.9c0.6,0.6,0.9,1.5,0.9,2.6
					c0,0.1,0,0.2,0,0.3h-5c0,0.7,0.3,1.3,0.6,1.7c0.4,0.4,0.8,0.6,1.4,0.6c0.4,0,0.8-0.1,1.1-0.3C135.2,4.6,135.4,4.3,135.6,3.8z
					 M131.8,1.9h3.8c-0.1-0.6-0.2-1-0.4-1.3c-0.4-0.4-0.8-0.7-1.4-0.7c-0.5,0-1,0.2-1.3,0.5C132.1,0.9,131.9,1.4,131.8,1.9z"/>
				<path class="st6" d="M140.7,4.9l0.2,1c-0.3,0.1-0.6,0.1-0.9,0.1c-0.4,0-0.7-0.1-1-0.2c-0.2-0.1-0.4-0.3-0.5-0.5
					c-0.1-0.2-0.1-0.7-0.1-1.3V0.1h-0.8v-0.9h0.8v-1.7l1.1-0.7v2.4h1.1v0.9h-1.1v3.9c0,0.3,0,0.5,0.1,0.6c0,0.1,0.1,0.2,0.2,0.2
					C139.9,5,140,5,140.2,5C140.3,5,140.5,5,140.7,4.9z"/>
				<path class="st6" d="M143,6L141-0.8h1.2l1.1,3.9l0.4,1.4c0-0.1,0.1-0.5,0.3-1.4l1.1-3.9h1.2l1,3.9l0.3,1.3l0.4-1.3l1.2-3.9h1.1
					L148.1,6h-1.2l-1.1-4l-0.3-1.1L144.2,6H143z"/>
				<path class="st6" d="M150.8,2.6c0-1.2,0.3-2.2,1-2.8c0.6-0.5,1.3-0.7,2.1-0.7c0.9,0,1.7,0.3,2.3,0.9c0.6,0.6,0.9,1.4,0.9,2.5
					c0,0.9-0.1,1.5-0.4,2c-0.3,0.5-0.6,0.9-1.1,1.2c-0.5,0.3-1,0.4-1.6,0.4c-0.9,0-1.7-0.3-2.3-0.9C151,4.6,150.8,3.7,150.8,2.6z
					 M151.9,2.6c0,0.9,0.2,1.5,0.6,1.9c0.4,0.4,0.9,0.6,1.4,0.6c0.6,0,1-0.2,1.4-0.6s0.6-1.1,0.6-2c0-0.8-0.2-1.5-0.6-1.9
					C155,0.2,154.5,0,153.9,0c-0.6,0-1,0.2-1.4,0.6C152.1,1.1,151.9,1.7,151.9,2.6z"/>
				<path class="st6" d="M158.4,6v-6.7h1v1c0.3-0.5,0.5-0.8,0.7-0.9c0.2-0.2,0.5-0.2,0.7-0.2c0.4,0,0.8,0.1,1.2,0.4l-0.4,1.1
					c-0.3-0.2-0.6-0.2-0.8-0.2c-0.2,0-0.5,0.1-0.7,0.2s-0.3,0.4-0.4,0.6c-0.1,0.4-0.2,0.9-0.2,1.3V6H158.4z"/>
				<path class="st6" d="M162.7,6v-9.3h1.1V2l2.7-2.7h1.5l-2.6,2.5l2.8,4.2h-1.4l-2.2-3.4l-0.8,0.8V6H162.7z"/>
				<path class="st6" d="M168.8,4l1.1-0.2c0.1,0.5,0.2,0.8,0.5,1c0.3,0.2,0.7,0.4,1.2,0.4c0.5,0,0.9-0.1,1.2-0.3s0.4-0.5,0.4-0.8
					c0-0.3-0.1-0.5-0.3-0.6c-0.2-0.1-0.5-0.2-1.2-0.4c-0.8-0.2-1.4-0.4-1.7-0.5c-0.3-0.2-0.6-0.4-0.7-0.6C169.1,1.6,169,1.3,169,1
					c0-0.3,0.1-0.6,0.2-0.8c0.1-0.3,0.3-0.5,0.6-0.6c0.2-0.1,0.4-0.2,0.7-0.3c0.3-0.1,0.6-0.1,1-0.1c0.5,0,1,0.1,1.4,0.2
					c0.4,0.2,0.7,0.4,0.9,0.6c0.2,0.3,0.3,0.6,0.4,1L173,1.1c-0.1-0.3-0.2-0.6-0.4-0.8S172,0,171.5,0c-0.5,0-0.9,0.1-1.1,0.3
					c-0.2,0.2-0.3,0.4-0.3,0.6c0,0.1,0,0.3,0.1,0.4c0.1,0.1,0.2,0.2,0.4,0.3c0.1,0,0.5,0.1,1,0.3c0.8,0.2,1.4,0.4,1.7,0.5
					s0.6,0.3,0.8,0.6s0.3,0.6,0.3,1c0,0.4-0.1,0.7-0.3,1.1c-0.2,0.3-0.5,0.6-1,0.8c-0.4,0.2-0.9,0.3-1.4,0.3c-0.9,0-1.5-0.2-2-0.5
					S168.9,4.7,168.8,4z"/>
				<path class="st6" d="M73.2,24.3c-0.6-0.8-1.2-1.7-1.6-2.8c-0.4-1.1-0.7-2.2-0.7-3.3c0-1,0.2-2,0.5-2.9c0.4-1.1,1-2.1,1.8-3.2H74
					c-0.5,0.9-0.9,1.5-1,1.9c-0.3,0.6-0.5,1.2-0.6,1.8c-0.2,0.8-0.3,1.6-0.3,2.4c0,2,0.6,4.1,1.9,6.1H73.2z"/>
				<path class="st6" d="M77.8,21.6v-8.2h-3.1v-1.1h7.4v1.1h-3.1v8.2H77.8z"/>
				<path class="st6" d="M82.8,21.6v-6.7h1v1c0.3-0.5,0.5-0.8,0.7-0.9s0.5-0.2,0.7-0.2c0.4,0,0.8,0.1,1.2,0.4L86,16.1
					c-0.3-0.2-0.6-0.2-0.8-0.2c-0.2,0-0.5,0.1-0.7,0.2c-0.2,0.2-0.3,0.4-0.4,0.6c-0.1,0.4-0.2,0.9-0.2,1.3v3.5H82.8z"/>
				<path class="st6" d="M91.5,20.7c-0.4,0.4-0.8,0.6-1.2,0.8c-0.4,0.1-0.8,0.2-1.3,0.2c-0.7,0-1.3-0.2-1.7-0.5
					c-0.4-0.4-0.6-0.8-0.6-1.4c0-0.3,0.1-0.6,0.2-0.9c0.1-0.3,0.3-0.5,0.6-0.7c0.2-0.2,0.5-0.3,0.8-0.4c0.2-0.1,0.6-0.1,1-0.2
					c0.9-0.1,1.6-0.2,2-0.4c0-0.2,0-0.3,0-0.3c0-0.5-0.1-0.8-0.3-1c-0.3-0.3-0.7-0.4-1.3-0.4c-0.5,0-0.9,0.1-1.2,0.3s-0.4,0.5-0.6,1
					l-1.1-0.2c0.1-0.5,0.3-0.9,0.5-1.2c0.2-0.3,0.6-0.5,1-0.7c0.4-0.2,1-0.2,1.5-0.2c0.6,0,1,0.1,1.4,0.2s0.6,0.3,0.8,0.5
					c0.2,0.2,0.3,0.5,0.4,0.8c0,0.2,0.1,0.5,0.1,1.1v1.5c0,1.1,0,1.7,0.1,2s0.1,0.6,0.3,0.8h-1.2C91.6,21.3,91.6,21.1,91.5,20.7z
					 M91.4,18.2c-0.4,0.2-1,0.3-1.9,0.4c-0.5,0.1-0.8,0.1-1,0.2c-0.2,0.1-0.3,0.2-0.5,0.4S88,19.6,88,19.8c0,0.3,0.1,0.6,0.3,0.8
					c0.2,0.2,0.6,0.3,1,0.3c0.4,0,0.8-0.1,1.2-0.3s0.6-0.5,0.8-0.8c0.1-0.3,0.2-0.6,0.2-1.1V18.2z"/>
				<path class="st6" d="M94.4,21.6v-6.7h1v1c0.5-0.7,1.2-1.1,2.1-1.1c0.4,0,0.8,0.1,1.1,0.2c0.3,0.1,0.6,0.3,0.8,0.6
					c0.2,0.2,0.3,0.5,0.4,0.8c0,0.2,0.1,0.6,0.1,1.1v4.1h-1.1v-4.1c0-0.5,0-0.8-0.1-1c-0.1-0.2-0.2-0.4-0.5-0.6
					c-0.2-0.1-0.5-0.2-0.8-0.2c-0.5,0-0.9,0.2-1.3,0.5c-0.4,0.3-0.5,0.9-0.5,1.8v3.7H94.4z"/>
				<path class="st6" d="M101.1,19.6l1.1-0.2c0.1,0.5,0.2,0.8,0.5,1c0.3,0.2,0.7,0.4,1.2,0.4c0.5,0,0.9-0.1,1.2-0.3s0.4-0.5,0.4-0.8
					c0-0.3-0.1-0.5-0.3-0.6c-0.2-0.1-0.5-0.2-1.2-0.4c-0.8-0.2-1.4-0.4-1.7-0.5s-0.6-0.4-0.7-0.6c-0.2-0.3-0.3-0.6-0.3-0.9
					c0-0.3,0.1-0.6,0.2-0.8c0.1-0.3,0.3-0.5,0.6-0.6c0.2-0.1,0.4-0.2,0.7-0.3s0.6-0.1,1-0.1c0.5,0,1,0.1,1.4,0.2
					c0.4,0.2,0.7,0.4,0.9,0.6c0.2,0.3,0.3,0.6,0.4,1l-1.1,0.2c-0.1-0.3-0.2-0.6-0.4-0.8c-0.2-0.2-0.6-0.3-1-0.3
					c-0.5,0-0.9,0.1-1.1,0.3c-0.2,0.2-0.3,0.4-0.3,0.6c0,0.1,0,0.3,0.1,0.4c0.1,0.1,0.2,0.2,0.4,0.3c0.1,0,0.5,0.1,1,0.3
					c0.8,0.2,1.4,0.4,1.7,0.5c0.3,0.1,0.6,0.3,0.8,0.6c0.2,0.3,0.3,0.6,0.3,1c0,0.4-0.1,0.7-0.3,1.1c-0.2,0.3-0.5,0.6-1,0.8
					c-0.4,0.2-0.9,0.3-1.4,0.3c-0.9,0-1.5-0.2-2-0.5S101.3,20.3,101.1,19.6z"/>
				<path class="st6" d="M108.4,21.6v-5.9h-1v-0.9h1v-0.7c0-0.5,0-0.8,0.1-1c0.1-0.3,0.3-0.5,0.6-0.7c0.3-0.2,0.7-0.3,1.2-0.3
					c0.3,0,0.7,0,1.1,0.1l-0.2,1c-0.2,0-0.5-0.1-0.7-0.1c-0.3,0-0.6,0.1-0.7,0.2c-0.1,0.1-0.2,0.4-0.2,0.8v0.6h1.3v0.9h-1.3v5.9
					H108.4z"/>
				<path class="st6" d="M111.3,18.2c0-1.2,0.3-2.2,1-2.8c0.6-0.5,1.3-0.7,2.1-0.7c0.9,0,1.7,0.3,2.3,0.9s0.9,1.4,0.9,2.5
					c0,0.9-0.1,1.5-0.4,2c-0.3,0.5-0.6,0.9-1.1,1.2c-0.5,0.3-1,0.4-1.6,0.4c-0.9,0-1.7-0.3-2.3-0.9
					C111.6,20.2,111.3,19.3,111.3,18.2z M112.4,18.2c0,0.9,0.2,1.5,0.6,1.9s0.9,0.6,1.4,0.6c0.6,0,1-0.2,1.4-0.6
					c0.4-0.4,0.6-1.1,0.6-2c0-0.8-0.2-1.5-0.6-1.9s-0.8-0.6-1.4-0.6c-0.6,0-1,0.2-1.4,0.6S112.4,17.3,112.4,18.2z"/>
				<path class="st6" d="M118.9,21.6v-6.7h1v1c0.3-0.5,0.5-0.8,0.7-0.9s0.5-0.2,0.7-0.2c0.4,0,0.8,0.1,1.2,0.4l-0.4,1.1
					c-0.3-0.2-0.6-0.2-0.8-0.2c-0.2,0-0.5,0.1-0.7,0.2c-0.2,0.2-0.3,0.4-0.4,0.6c-0.1,0.4-0.2,0.9-0.2,1.3v3.5H118.9z"/>
				<path class="st6" d="M123.3,21.6v-6.7h1v0.9c0.2-0.3,0.5-0.6,0.8-0.8s0.8-0.3,1.2-0.3c0.5,0,0.9,0.1,1.2,0.3
					c0.3,0.2,0.5,0.5,0.7,0.9c0.5-0.8,1.2-1.2,2.1-1.2c0.7,0,1.2,0.2,1.5,0.6s0.5,0.9,0.5,1.7v4.6h-1.1v-4.2c0-0.5,0-0.8-0.1-1
					c-0.1-0.2-0.2-0.4-0.4-0.5c-0.2-0.1-0.4-0.2-0.7-0.2c-0.5,0-0.9,0.2-1.2,0.5c-0.3,0.3-0.5,0.8-0.5,1.5v3.9h-1.1v-4.4
					c0-0.5-0.1-0.9-0.3-1.1c-0.2-0.3-0.5-0.4-0.9-0.4c-0.3,0-0.6,0.1-0.9,0.3c-0.3,0.2-0.5,0.4-0.6,0.7c-0.1,0.3-0.2,0.8-0.2,1.4
					v3.5H123.3z"/>
				<path class="st6" d="M138.7,19.4l1.2,0.1c-0.2,0.7-0.5,1.2-1,1.6s-1.1,0.6-1.9,0.6c-1,0-1.8-0.3-2.3-0.9
					c-0.6-0.6-0.9-1.5-0.9-2.6c0-1.1,0.3-2,0.9-2.6s1.3-0.9,2.3-0.9c0.9,0,1.6,0.3,2.2,0.9c0.6,0.6,0.9,1.5,0.9,2.6
					c0,0.1,0,0.2,0,0.3h-5c0,0.7,0.3,1.3,0.6,1.7c0.4,0.4,0.8,0.6,1.4,0.6c0.4,0,0.8-0.1,1.1-0.3S138.5,19.9,138.7,19.4z
					 M134.9,17.5h3.8c-0.1-0.6-0.2-1-0.4-1.3c-0.4-0.4-0.8-0.7-1.4-0.7c-0.5,0-1,0.2-1.3,0.5C135.2,16.5,135,17,134.9,17.5z"/>
				<path class="st6" d="M141.3,21.6v-6.7h1v1c0.3-0.5,0.5-0.8,0.7-0.9c0.2-0.2,0.5-0.2,0.7-0.2c0.4,0,0.8,0.1,1.2,0.4l-0.4,1.1
					c-0.3-0.2-0.6-0.2-0.8-0.2c-0.2,0-0.5,0.1-0.7,0.2s-0.3,0.4-0.4,0.6c-0.1,0.4-0.2,0.9-0.2,1.3v3.5H141.3z"/>
				<path class="st6" d="M145.2,21.6v-1.3h1.3v1.3c0,0.5-0.1,0.9-0.3,1.2s-0.4,0.5-0.8,0.7l-0.3-0.5c0.2-0.1,0.4-0.3,0.5-0.5
					c0.1-0.2,0.2-0.5,0.2-0.9H145.2z"/>
				<path class="st6" d="M150.6,21.6l3.6-9.3h1.3l3.8,9.3h-1.4l-1.1-2.8h-3.9l-1,2.8H150.6z M153.2,17.7h3.2l-1-2.6
					c-0.3-0.8-0.5-1.4-0.7-1.9c-0.1,0.6-0.3,1.2-0.5,1.8L153.2,17.7z"/>
				<path class="st6" d="M162.6,20.5l0.2,1c-0.3,0.1-0.6,0.1-0.9,0.1c-0.4,0-0.7-0.1-1-0.2c-0.2-0.1-0.4-0.3-0.5-0.5
					s-0.1-0.7-0.1-1.3v-3.9h-0.8v-0.9h0.8v-1.7l1.1-0.7v2.4h1.1v0.9h-1.1v3.9c0,0.3,0,0.5,0.1,0.6s0.1,0.2,0.2,0.2
					c0.1,0.1,0.2,0.1,0.4,0.1C162.2,20.6,162.4,20.6,162.6,20.5z"/>
				<path class="st6" d="M166.2,20.5l0.2,1c-0.3,0.1-0.6,0.1-0.9,0.1c-0.4,0-0.7-0.1-1-0.2c-0.2-0.1-0.4-0.3-0.5-0.5
					c-0.1-0.2-0.1-0.7-0.1-1.3v-3.9h-0.8v-0.9h0.8v-1.7l1.1-0.7v2.4h1.1v0.9h-1.1v3.9c0,0.3,0,0.5,0.1,0.6c0,0.1,0.1,0.2,0.2,0.2
					c0.1,0.1,0.2,0.1,0.4,0.1C165.8,20.6,166,20.6,166.2,20.5z"/>
				<path class="st6" d="M168.1,24.3h-0.8c1.3-2,1.9-4.1,1.9-6.1c0-0.8-0.1-1.6-0.3-2.4c-0.1-0.6-0.3-1.2-0.6-1.8
					c-0.2-0.4-0.5-1-1-1.9h0.8c0.8,1.1,1.4,2.1,1.8,3.2c0.3,0.9,0.5,1.9,0.5,2.9c0,1.1-0.2,2.2-0.7,3.3
					C169.2,22.6,168.7,23.5,168.1,24.3z"/>
			</g>
		</g>
		<g transform="translate(430.000,260.833)">
			<rect x="52" y="1" class="st4" width="10" height="30"/>
			<g class="st5">
				<path class="st6" d="M71.1,13.5V4.2h1.2v8.2h4.6v1.1H71.1z"/>
				<path class="st6" d="M78.2,5.6V4.2h1.1v1.3H78.2z M78.2,13.5V6.8h1.1v6.7H78.2z"/>
				<path class="st6" d="M81.1,13.5V6.8h1v1c0.5-0.7,1.2-1.1,2.1-1.1c0.4,0,0.8,0.1,1.1,0.2C85.8,7,86,7.2,86.2,7.5
					c0.2,0.2,0.3,0.5,0.4,0.8c0,0.2,0.1,0.6,0.1,1.1v4.1h-1.1V9.4c0-0.5,0-0.8-0.1-1c-0.1-0.2-0.2-0.4-0.5-0.6
					c-0.2-0.1-0.5-0.2-0.8-0.2c-0.5,0-0.9,0.2-1.3,0.5c-0.4,0.3-0.5,0.9-0.5,1.8v3.7H81.1z"/>
				<path class="st6" d="M93,11.4l1.2,0.1c-0.2,0.7-0.5,1.2-1,1.6s-1.1,0.6-1.9,0.6c-1,0-1.8-0.3-2.3-0.9c-0.6-0.6-0.9-1.5-0.9-2.6
					c0-1.1,0.3-2,0.9-2.6s1.3-0.9,2.3-0.9c0.9,0,1.6,0.3,2.2,0.9c0.6,0.6,0.9,1.5,0.9,2.6c0,0.1,0,0.2,0,0.3h-5
					c0,0.7,0.3,1.3,0.6,1.7c0.4,0.4,0.8,0.6,1.4,0.6c0.4,0,0.8-0.1,1.1-0.3S92.8,11.9,93,11.4z M89.2,9.5H93c-0.1-0.6-0.2-1-0.4-1.3
					c-0.4-0.4-0.8-0.7-1.4-0.7c-0.5,0-1,0.2-1.3,0.5C89.5,8.5,89.3,8.9,89.2,9.5z"/>
				<path class="st6" d="M100,12.7c-0.4,0.4-0.8,0.6-1.2,0.8c-0.4,0.1-0.8,0.2-1.3,0.2c-0.7,0-1.3-0.2-1.7-0.5
					c-0.4-0.4-0.6-0.8-0.6-1.4c0-0.3,0.1-0.6,0.2-0.9c0.2-0.3,0.3-0.5,0.6-0.7c0.2-0.2,0.5-0.3,0.8-0.4c0.2-0.1,0.6-0.1,1-0.2
					c0.9-0.1,1.6-0.2,2-0.4c0-0.2,0-0.3,0-0.3c0-0.5-0.1-0.8-0.3-1c-0.3-0.3-0.7-0.4-1.3-0.4c-0.5,0-0.9,0.1-1.2,0.3s-0.4,0.5-0.6,1
					l-1.1-0.2c0.1-0.5,0.3-0.9,0.5-1.2s0.6-0.5,1-0.7c0.4-0.2,0.9-0.2,1.5-0.2c0.6,0,1,0.1,1.4,0.2c0.4,0.1,0.6,0.3,0.8,0.5
					s0.3,0.5,0.4,0.8c0,0.2,0.1,0.5,0.1,1.1v1.5c0,1.1,0,1.7,0.1,2s0.1,0.6,0.3,0.8h-1.2C100.1,13.3,100,13,100,12.7z M99.9,10.2
					c-0.4,0.2-1,0.3-1.9,0.4c-0.5,0.1-0.8,0.1-1,0.2c-0.2,0.1-0.3,0.2-0.5,0.4c-0.1,0.2-0.2,0.3-0.2,0.5c0,0.3,0.1,0.6,0.3,0.8
					c0.2,0.2,0.6,0.3,1,0.3c0.4,0,0.8-0.1,1.2-0.3c0.3-0.2,0.6-0.5,0.8-0.8c0.1-0.3,0.2-0.6,0.2-1.1V10.2z"/>
				<path class="st6" d="M102.8,13.5V6.8h1v1c0.3-0.5,0.5-0.8,0.7-0.9c0.2-0.2,0.5-0.2,0.7-0.2c0.4,0,0.8,0.1,1.2,0.4l-0.4,1.1
					c-0.3-0.2-0.6-0.2-0.8-0.2c-0.2,0-0.5,0.1-0.7,0.2c-0.2,0.2-0.3,0.4-0.4,0.6c-0.1,0.4-0.2,0.9-0.2,1.3v3.5H102.8z"/>
				<path class="st6" d="M110.9,13.5V4.2h1.9l2.2,6.6c0.2,0.6,0.4,1.1,0.4,1.4c0.1-0.3,0.3-0.8,0.5-1.5l2.2-6.5h1.7v9.3h-1.2V5.8
					l-2.7,7.8h-1.1L112,5.6v7.9H110.9z"/>
				<path class="st6" d="M121.2,10.2c0-1.2,0.3-2.2,1-2.8c0.6-0.5,1.3-0.7,2.1-0.7c0.9,0,1.7,0.3,2.3,0.9s0.9,1.4,0.9,2.5
					c0,0.9-0.1,1.5-0.4,2c-0.3,0.5-0.6,0.9-1.1,1.2c-0.5,0.3-1,0.4-1.6,0.4c-0.9,0-1.7-0.3-2.3-0.9
					C121.4,12.2,121.2,11.3,121.2,10.2z M122.3,10.2c0,0.9,0.2,1.5,0.6,1.9s0.9,0.6,1.4,0.6c0.6,0,1-0.2,1.4-0.6
					c0.4-0.4,0.6-1.1,0.6-2c0-0.8-0.2-1.5-0.6-1.9c-0.4-0.4-0.8-0.6-1.4-0.6c-0.6,0-1,0.2-1.4,0.6S122.3,9.3,122.3,10.2z"/>
				<path class="st6" d="M133.2,13.5v-0.9c-0.4,0.7-1.1,1-1.9,1c-0.5,0-1-0.1-1.5-0.4c-0.5-0.3-0.8-0.7-1-1.2
					c-0.2-0.5-0.4-1.1-0.4-1.8c0-0.7,0.1-1.3,0.3-1.8s0.6-1,1-1.3c0.4-0.3,1-0.4,1.5-0.4c0.4,0,0.8,0.1,1.1,0.3
					c0.3,0.2,0.6,0.4,0.8,0.7V4.2h1.1v9.3H133.2z M129.6,10.2c0,0.9,0.2,1.5,0.5,1.9c0.4,0.4,0.8,0.6,1.3,0.6c0.5,0,0.9-0.2,1.3-0.6
					c0.3-0.4,0.5-1,0.5-1.9c0-0.9-0.2-1.6-0.5-2s-0.8-0.6-1.3-0.6c-0.5,0-0.9,0.2-1.3,0.6C129.7,8.6,129.6,9.3,129.6,10.2z"/>
				<path class="st6" d="M140.7,11.4l1.2,0.1c-0.2,0.7-0.5,1.2-1,1.6c-0.5,0.4-1.1,0.6-1.9,0.6c-1,0-1.8-0.3-2.3-0.9
					c-0.6-0.6-0.9-1.5-0.9-2.6c0-1.1,0.3-2,0.9-2.6s1.3-0.9,2.3-0.9c0.9,0,1.6,0.3,2.2,0.9c0.6,0.6,0.9,1.5,0.9,2.6
					c0,0.1,0,0.2,0,0.3h-5c0,0.7,0.3,1.3,0.6,1.7c0.4,0.4,0.8,0.6,1.4,0.6c0.4,0,0.8-0.1,1.1-0.3C140.2,12.2,140.5,11.9,140.7,11.4z
					 M136.9,9.5h3.8c-0.1-0.6-0.2-1-0.4-1.3c-0.4-0.4-0.8-0.7-1.4-0.7c-0.5,0-1,0.2-1.3,0.5C137.1,8.5,136.9,8.9,136.9,9.5z"/>
				<path class="st6" d="M143.2,13.5V4.2h1.1v9.3H143.2z"/>
				<path class="st6" d="M145.7,11.5l1.1-0.2c0.1,0.5,0.2,0.8,0.5,1c0.3,0.2,0.7,0.4,1.2,0.4c0.5,0,0.9-0.1,1.2-0.3s0.4-0.5,0.4-0.8
					c0-0.3-0.1-0.5-0.3-0.6c-0.2-0.1-0.5-0.2-1.2-0.4c-0.8-0.2-1.4-0.4-1.7-0.5c-0.3-0.2-0.6-0.4-0.7-0.6c-0.2-0.3-0.3-0.6-0.3-0.9
					c0-0.3,0.1-0.6,0.2-0.8c0.1-0.3,0.3-0.5,0.6-0.6c0.2-0.1,0.4-0.2,0.7-0.3c0.3-0.1,0.6-0.1,1-0.1c0.5,0,1,0.1,1.4,0.2
					c0.4,0.2,0.7,0.4,0.9,0.6c0.2,0.3,0.3,0.6,0.4,1l-1.1,0.2c-0.1-0.3-0.2-0.6-0.4-0.8s-0.6-0.3-1-0.3c-0.5,0-0.9,0.1-1.1,0.3
					C147.1,8,147,8.2,147,8.5c0,0.1,0,0.3,0.1,0.4c0.1,0.1,0.2,0.2,0.4,0.3c0.1,0,0.5,0.1,1,0.3c0.8,0.2,1.4,0.4,1.7,0.5
					s0.6,0.3,0.8,0.6s0.3,0.6,0.3,1c0,0.4-0.1,0.7-0.3,1.1c-0.2,0.3-0.5,0.6-1,0.8c-0.4,0.2-0.9,0.3-1.4,0.3c-0.9,0-1.5-0.2-2-0.5
					S145.8,12.3,145.7,11.5z"/>
				<path class="st6" d="M73.2,31.9c-0.6-0.8-1.2-1.7-1.6-2.8c-0.4-1.1-0.7-2.2-0.7-3.3c0-1,0.2-2,0.5-2.9c0.4-1.1,1-2.1,1.8-3.2H74
					c-0.5,0.9-0.9,1.5-1,1.9c-0.3,0.6-0.5,1.2-0.6,1.8c-0.2,0.8-0.3,1.6-0.3,2.4c0,2,0.6,4.1,1.9,6.1H73.2z"/>
				<path class="st6" d="M75.1,26.2l1.2-0.1c0.1,0.5,0.2,0.8,0.4,1.1c0.2,0.3,0.5,0.5,0.9,0.7c0.4,0.2,0.9,0.3,1.4,0.3
					c0.5,0,0.9-0.1,1.2-0.2s0.6-0.3,0.8-0.6c0.2-0.2,0.3-0.5,0.3-0.8c0-0.3-0.1-0.5-0.3-0.8s-0.4-0.4-0.8-0.5
					c-0.2-0.1-0.8-0.2-1.7-0.5c-0.9-0.2-1.5-0.4-1.8-0.6c-0.4-0.2-0.8-0.5-1-0.9c-0.2-0.3-0.3-0.7-0.3-1.2c0-0.5,0.1-0.9,0.4-1.3
					c0.3-0.4,0.7-0.7,1.2-0.9c0.5-0.2,1.1-0.3,1.7-0.3c0.7,0,1.3,0.1,1.8,0.3c0.5,0.2,0.9,0.5,1.2,1c0.3,0.4,0.4,0.9,0.5,1.5
					L81,22.6c-0.1-0.6-0.3-1-0.6-1.3c-0.4-0.3-0.9-0.5-1.6-0.5c-0.7,0-1.3,0.1-1.6,0.4c-0.3,0.3-0.5,0.6-0.5,1
					c0,0.3,0.1,0.6,0.4,0.8c0.2,0.2,0.9,0.4,1.9,0.7c1,0.2,1.7,0.4,2.1,0.6c0.5,0.2,0.9,0.6,1.2,0.9s0.4,0.8,0.4,1.3
					c0,0.5-0.1,1-0.4,1.4c-0.3,0.4-0.7,0.8-1.2,1s-1.1,0.4-1.8,0.4c-0.8,0-1.5-0.1-2.1-0.4c-0.6-0.2-1-0.6-1.3-1.1
					C75.2,27.3,75.1,26.8,75.1,26.2z"/>
				<path class="st6" d="M86.8,29.1l-3.6-9.3h1.3l2.4,6.8c0.2,0.5,0.4,1,0.5,1.5c0.1-0.5,0.3-1,0.5-1.5l2.5-6.8h1.3l-3.6,9.3H86.8z"
					/>
				<path class="st6" d="M92.8,29.1v-9.3h1.9l2.2,6.6c0.2,0.6,0.4,1.1,0.4,1.4c0.1-0.3,0.3-0.8,0.5-1.5l2.2-6.5h1.7v9.3h-1.2v-7.8
					l-2.7,7.8h-1.1L94,21.2v7.9H92.8z"/>
				<path class="st6" d="M104.3,31.9h-0.8c1.3-2,1.9-4.1,1.9-6.1c0-0.8-0.1-1.6-0.3-2.4c-0.1-0.6-0.3-1.2-0.6-1.8
					c-0.2-0.4-0.5-1-1-1.9h0.8c0.8,1.1,1.4,2.1,1.8,3.2c0.3,0.9,0.5,1.9,0.5,2.9c0,1.1-0.2,2.2-0.7,3.3
					C105.4,30.2,104.9,31.1,104.3,31.9z"/>
			</g>
		</g>
		<g transform="translate(430.000,315.833)">
			<rect x="52" y="1" class="st4" width="10" height="4.2"/>
			<g class="st5">
				<path class="st6" d="M71.2,2.6v-9.3h1.2v3.8h4.8v-3.8h1.2v9.3h-1.2v-4.4h-4.8v4.4H71.2z"/>
				<path class="st6" d="M80.3,5.2l-0.1-1.1c0.2,0.1,0.5,0.1,0.7,0.1c0.3,0,0.5,0,0.6-0.1s0.3-0.2,0.4-0.4c0.1-0.1,0.2-0.4,0.3-0.9
					c0-0.1,0.1-0.2,0.1-0.3l-2.6-6.8H81l1.4,3.9c0.2,0.5,0.3,1,0.5,1.6c0.1-0.5,0.3-1,0.5-1.5l1.4-3.9h1.1l-2.6,6.9
					c-0.3,0.7-0.5,1.3-0.6,1.5c-0.2,0.4-0.4,0.7-0.7,0.8c-0.3,0.2-0.6,0.3-0.9,0.3C80.9,5.4,80.6,5.3,80.3,5.2z"/>
				<path class="st6" d="M87.9,2.6h-1.1v-9.3H88v3.3c0.5-0.6,1.1-0.9,1.8-0.9c0.4,0,0.8,0.1,1.2,0.3c0.4,0.2,0.7,0.4,0.9,0.7
					s0.4,0.7,0.6,1.1c0.1,0.4,0.2,0.9,0.2,1.4c0,1.2-0.3,2-0.9,2.7c-0.6,0.6-1.3,0.9-2.1,0.9c-0.8,0-1.4-0.3-1.9-1V2.6z M87.9-0.8
					C87.9,0,88,0.6,88.3,1c0.4,0.6,0.8,0.9,1.5,0.9c0.5,0,0.9-0.2,1.3-0.7c0.4-0.4,0.5-1.1,0.5-1.9c0-0.9-0.2-1.5-0.5-1.9
					c-0.3-0.4-0.8-0.6-1.3-0.6c-0.5,0-0.9,0.2-1.3,0.7C88.1-2.2,87.9-1.6,87.9-0.8z"/>
				<path class="st6" d="M94.1,2.6v-6.7h1v1c0.3-0.5,0.5-0.8,0.7-0.9c0.2-0.2,0.5-0.2,0.7-0.2c0.4,0,0.8,0.1,1.2,0.4l-0.4,1.1
					c-0.3-0.2-0.6-0.2-0.8-0.2c-0.2,0-0.5,0.1-0.7,0.2c-0.2,0.2-0.3,0.4-0.4,0.6c-0.1,0.4-0.2,0.9-0.2,1.3v3.5H94.1z"/>
				<path class="st6" d="M98.5-5.4v-1.3h1.1v1.3H98.5z M98.5,2.6v-6.7h1.1v6.7H98.5z"/>
				<path class="st6" d="M105.7,2.6V1.8c-0.4,0.7-1.1,1-1.9,1c-0.5,0-1-0.1-1.5-0.4c-0.5-0.3-0.8-0.7-1-1.2
					c-0.2-0.5-0.4-1.1-0.4-1.8c0-0.7,0.1-1.3,0.3-1.8c0.2-0.5,0.6-1,1-1.3c0.4-0.3,1-0.4,1.5-0.4c0.4,0,0.8,0.1,1.1,0.3
					c0.3,0.2,0.6,0.4,0.8,0.7v-3.3h1.1v9.3H105.7z M102.1-0.7c0,0.9,0.2,1.5,0.5,1.9c0.4,0.4,0.8,0.6,1.3,0.6c0.5,0,0.9-0.2,1.3-0.6
					c0.3-0.4,0.5-1,0.5-1.9c0-0.9-0.2-1.6-0.5-2s-0.8-0.6-1.3-0.6c-0.5,0-0.9,0.2-1.3,0.6C102.3-2.3,102.1-1.6,102.1-0.7z"/>
				<path class="st6" d="M112.3,2.6v-9.3h1.9l2.2,6.6c0.2,0.6,0.4,1.1,0.4,1.4c0.1-0.3,0.3-0.8,0.5-1.5l2.2-6.5h1.7v9.3H120v-7.8
					l-2.7,7.8h-1.1l-2.7-7.9v7.9H112.3z"/>
				<path class="st6" d="M122.6-0.7c0-1.2,0.3-2.2,1-2.8c0.6-0.5,1.3-0.7,2.1-0.7c0.9,0,1.7,0.3,2.3,0.9s0.9,1.4,0.9,2.5
					c0,0.9-0.1,1.5-0.4,2c-0.3,0.5-0.6,0.9-1.1,1.2c-0.5,0.3-1,0.4-1.6,0.4c-0.9,0-1.7-0.3-2.3-0.9C122.9,1.3,122.6,0.4,122.6-0.7z
					 M123.8-0.7c0,0.9,0.2,1.5,0.6,1.9s0.9,0.6,1.4,0.6c0.6,0,1-0.2,1.4-0.6c0.4-0.4,0.6-1.1,0.6-2c0-0.8-0.2-1.5-0.6-1.9
					c-0.4-0.4-0.8-0.6-1.4-0.6c-0.6,0-1,0.2-1.4,0.6S123.8-1.6,123.8-0.7z"/>
				<path class="st6" d="M134.6,2.6V1.8c-0.4,0.7-1.1,1-1.9,1c-0.5,0-1-0.1-1.5-0.4c-0.5-0.3-0.8-0.7-1-1.2
					c-0.2-0.5-0.4-1.1-0.4-1.8c0-0.7,0.1-1.3,0.3-1.8s0.6-1,1-1.3c0.4-0.3,1-0.4,1.5-0.4c0.4,0,0.8,0.1,1.1,0.3
					c0.3,0.2,0.6,0.4,0.8,0.7v-3.3h1.1v9.3H134.6z M131-0.7c0,0.9,0.2,1.5,0.5,1.9c0.4,0.4,0.8,0.6,1.3,0.6c0.5,0,0.9-0.2,1.3-0.6
					c0.3-0.4,0.5-1,0.5-1.9c0-0.9-0.2-1.6-0.5-2s-0.8-0.6-1.3-0.6c-0.5,0-0.9,0.2-1.3,0.6C131.2-2.3,131-1.6,131-0.7z"/>
				<path class="st6" d="M142.1,0.5l1.2,0.1c-0.2,0.7-0.5,1.2-1,1.6c-0.5,0.4-1.1,0.6-1.9,0.6c-1,0-1.8-0.3-2.3-0.9
					c-0.6-0.6-0.9-1.5-0.9-2.6c0-1.1,0.3-2,0.9-2.6s1.3-0.9,2.3-0.9c0.9,0,1.6,0.3,2.2,0.9c0.6,0.6,0.9,1.5,0.9,2.6
					c0,0.1,0,0.2,0,0.3h-5c0,0.7,0.3,1.3,0.6,1.7c0.4,0.4,0.8,0.6,1.4,0.6c0.4,0,0.8-0.1,1.1-0.3C141.7,1.3,141.9,0.9,142.1,0.5z
					 M138.3-1.4h3.8c-0.1-0.6-0.2-1-0.4-1.3c-0.4-0.4-0.8-0.7-1.4-0.7c-0.5,0-1,0.2-1.3,0.5C138.6-2.4,138.4-2,138.3-1.4z"/>
				<path class="st6" d="M144.7,2.6v-9.3h1.1v9.3H144.7z"/>
				<path class="st6" d="M147.1,0.6l1.1-0.2c0.1,0.5,0.2,0.8,0.5,1c0.3,0.2,0.7,0.4,1.2,0.4c0.5,0,0.9-0.1,1.2-0.3s0.4-0.5,0.4-0.8
					c0-0.3-0.1-0.5-0.3-0.6c-0.2-0.1-0.5-0.2-1.2-0.4c-0.8-0.2-1.4-0.4-1.7-0.5c-0.3-0.2-0.6-0.4-0.7-0.6c-0.2-0.3-0.3-0.6-0.3-0.9
					c0-0.3,0.1-0.6,0.2-0.8c0.1-0.3,0.3-0.5,0.6-0.6c0.2-0.1,0.4-0.2,0.7-0.3c0.3-0.1,0.6-0.1,1-0.1c0.5,0,1,0.1,1.4,0.2
					c0.4,0.2,0.7,0.4,0.9,0.6c0.2,0.3,0.3,0.6,0.4,1l-1.1,0.2c-0.1-0.3-0.2-0.6-0.4-0.8s-0.6-0.3-1-0.3c-0.5,0-0.9,0.1-1.1,0.3
					c-0.2,0.2-0.3,0.4-0.3,0.6c0,0.1,0,0.3,0.1,0.4c0.1,0.1,0.2,0.2,0.4,0.3c0.1,0,0.5,0.1,1,0.3c0.8,0.2,1.4,0.4,1.7,0.5
					s0.6,0.3,0.8,0.6s0.3,0.6,0.3,1c0,0.4-0.1,0.7-0.3,1.1c-0.2,0.3-0.5,0.6-1,0.8c-0.4,0.2-0.9,0.3-1.4,0.3c-0.9,0-1.5-0.2-2-0.5
					S147.3,1.3,147.1,0.6z"/>
				<path class="st6" d="M73.2,21c-0.6-0.8-1.2-1.7-1.6-2.8s-0.7-2.2-0.7-3.3c0-1,0.2-2,0.5-2.9c0.4-1.1,1-2.1,1.8-3.2H74
					c-0.5,0.9-0.9,1.5-1,1.9c-0.3,0.6-0.5,1.2-0.6,1.8c-0.2,0.8-0.3,1.6-0.3,2.4c0,2,0.6,4.1,1.9,6.1H73.2z"/>
				<path class="st6" d="M75.5,18.2V8.9h4.1c0.8,0,1.5,0.1,1.9,0.3s0.8,0.5,1,0.9c0.3,0.4,0.4,0.9,0.4,1.4c0,0.7-0.2,1.2-0.6,1.7
					c-0.4,0.5-1.1,0.7-2,0.9c0.3,0.2,0.6,0.3,0.7,0.5c0.4,0.3,0.7,0.7,1,1.2l1.6,2.5h-1.5l-1.2-1.9c-0.4-0.6-0.7-1-0.9-1.3
					c-0.2-0.3-0.4-0.5-0.6-0.6c-0.2-0.1-0.4-0.2-0.6-0.2c-0.1,0-0.4,0-0.7,0h-1.4v4.1H75.5z M76.7,13h2.6c0.6,0,1-0.1,1.3-0.2
					c0.3-0.1,0.6-0.3,0.7-0.6c0.2-0.3,0.2-0.5,0.2-0.8c0-0.4-0.2-0.8-0.5-1.1c-0.3-0.3-0.8-0.4-1.5-0.4h-2.9V13z"/>
				<path class="st6" d="M84.8,18.2V8.9H86v8.2h4.6v1.1H84.8z"/>
				<path class="st6" d="M92.7,21h-0.8c1.3-2,1.9-4.1,1.9-6.1c0-0.8-0.1-1.6-0.3-2.4c-0.1-0.6-0.3-1.2-0.6-1.8c-0.2-0.4-0.5-1-1-1.9
					h0.8c0.8,1.1,1.4,2.1,1.8,3.2c0.3,0.9,0.5,1.9,0.5,2.9c0,1.1-0.2,2.2-0.7,3.3C93.9,19.2,93.3,20.2,92.7,21z"/>
			</g>
		</g>
		<g transform="translate(0.000,290.000)">
			<rect x="52" y="1" class="st4" width="10" height="30"/>
			<g class="st5">
				<path class="st6" d="M-63.6,17.6l1.2-0.1c0.1,0.5,0.2,0.8,0.4,1.1c0.2,0.3,0.5,0.5,0.9,0.7c0.4,0.2,0.9,0.3,1.4,0.3
					c0.5,0,0.9-0.1,1.2-0.2s0.6-0.3,0.8-0.6c0.2-0.2,0.3-0.5,0.3-0.8c0-0.3-0.1-0.5-0.3-0.8s-0.4-0.4-0.8-0.5
					c-0.2-0.1-0.8-0.2-1.7-0.5s-1.5-0.4-1.8-0.6c-0.4-0.2-0.8-0.5-1-0.9c-0.2-0.3-0.3-0.7-0.3-1.2c0-0.5,0.1-0.9,0.4-1.3
					s0.7-0.7,1.2-0.9c0.5-0.2,1.1-0.3,1.7-0.3c0.7,0,1.3,0.1,1.8,0.3c0.5,0.2,0.9,0.5,1.2,1s0.4,0.9,0.5,1.5l-1.2,0.1
					c-0.1-0.6-0.3-1-0.6-1.3c-0.4-0.3-0.9-0.5-1.6-0.5c-0.7,0-1.3,0.1-1.6,0.4c-0.3,0.3-0.5,0.6-0.5,1c0,0.3,0.1,0.6,0.4,0.8
					c0.2,0.2,0.9,0.4,1.9,0.7c1,0.2,1.7,0.4,2.1,0.6c0.5,0.2,0.9,0.6,1.2,0.9s0.4,0.8,0.4,1.3c0,0.5-0.1,1-0.4,1.4
					c-0.3,0.4-0.7,0.8-1.2,1c-0.5,0.2-1.1,0.4-1.8,0.4c-0.8,0-1.5-0.1-2.1-0.4c-0.6-0.2-1-0.6-1.3-1.1
					C-63.5,18.7-63.6,18.2-63.6,17.6z"/>
				<path class="st6" d="M-50.1,18.4l1.2,0.1c-0.2,0.7-0.5,1.2-1,1.6s-1.1,0.6-1.9,0.6c-1,0-1.8-0.3-2.3-0.9
					c-0.6-0.6-0.9-1.5-0.9-2.6c0-1.1,0.3-2,0.9-2.6s1.3-0.9,2.3-0.9c0.9,0,1.6,0.3,2.2,0.9c0.6,0.6,0.9,1.5,0.9,2.6
					c0,0.1,0,0.2,0,0.3h-5c0,0.7,0.3,1.3,0.6,1.7c0.4,0.4,0.8,0.6,1.4,0.6c0.4,0,0.8-0.1,1.1-0.3S-50.3,18.9-50.1,18.4z M-53.8,16.5
					h3.8c-0.1-0.6-0.2-1-0.4-1.3c-0.4-0.4-0.8-0.7-1.4-0.7c-0.5,0-1,0.2-1.3,0.5C-53.6,15.5-53.8,15.9-53.8,16.5z"/>
				<path class="st6" d="M-47.5,20.5v-6.7h1v0.9c0.2-0.3,0.5-0.6,0.8-0.8s0.8-0.3,1.2-0.3c0.5,0,0.9,0.1,1.2,0.3
					c0.3,0.2,0.5,0.5,0.7,0.9c0.5-0.8,1.2-1.2,2.1-1.2c0.7,0,1.2,0.2,1.5,0.6s0.5,0.9,0.5,1.7v4.6h-1.1v-4.2c0-0.5,0-0.8-0.1-1
					c-0.1-0.2-0.2-0.4-0.4-0.5c-0.2-0.1-0.4-0.2-0.7-0.2c-0.5,0-0.9,0.2-1.2,0.5s-0.5,0.8-0.5,1.5v3.9h-1.1v-4.4
					c0-0.5-0.1-0.9-0.3-1.1s-0.5-0.4-0.9-0.4c-0.3,0-0.6,0.1-0.9,0.3c-0.3,0.2-0.5,0.4-0.6,0.7c-0.1,0.3-0.2,0.8-0.2,1.4v3.5H-47.5z
					"/>
				<path class="st6" d="M-32.2,19.7c-0.4,0.4-0.8,0.6-1.2,0.8c-0.4,0.1-0.8,0.2-1.3,0.2c-0.7,0-1.3-0.2-1.7-0.5
					c-0.4-0.4-0.6-0.8-0.6-1.4c0-0.3,0.1-0.6,0.2-0.9c0.1-0.3,0.3-0.5,0.6-0.7c0.2-0.2,0.5-0.3,0.8-0.4c0.2-0.1,0.6-0.1,1-0.2
					c0.9-0.1,1.6-0.2,2-0.4c0-0.2,0-0.3,0-0.3c0-0.5-0.1-0.8-0.3-1c-0.3-0.3-0.7-0.4-1.3-0.4c-0.5,0-0.9,0.1-1.2,0.3
					c-0.3,0.2-0.4,0.5-0.6,1l-1.1-0.2c0.1-0.5,0.3-0.9,0.5-1.2s0.6-0.5,1-0.7c0.4-0.2,1-0.2,1.5-0.2c0.6,0,1,0.1,1.4,0.2
					s0.6,0.3,0.8,0.5s0.3,0.5,0.4,0.8c0,0.2,0.1,0.5,0.1,1.1v1.5c0,1.1,0,1.7,0.1,2c0,0.3,0.1,0.6,0.3,0.8H-32
					C-32.1,20.3-32.2,20-32.2,19.7z M-32.3,17.2c-0.4,0.2-1,0.3-1.9,0.4c-0.5,0.1-0.8,0.1-1,0.2c-0.2,0.1-0.3,0.2-0.5,0.4
					s-0.2,0.3-0.2,0.5c0,0.3,0.1,0.6,0.3,0.8c0.2,0.2,0.6,0.3,1,0.3c0.4,0,0.8-0.1,1.2-0.3s0.6-0.5,0.8-0.8c0.1-0.3,0.2-0.6,0.2-1.1
					V17.2z"/>
				<path class="st6" d="M-29.4,20.5v-6.7h1v1c0.5-0.7,1.2-1.1,2.1-1.1c0.4,0,0.8,0.1,1.1,0.2c0.3,0.1,0.6,0.3,0.8,0.6
					c0.2,0.2,0.3,0.5,0.4,0.8c0,0.2,0.1,0.6,0.1,1.1v4.1h-1.1v-4.1c0-0.5,0-0.8-0.1-1s-0.2-0.4-0.5-0.6c-0.2-0.1-0.5-0.2-0.8-0.2
					c-0.5,0-0.9,0.2-1.3,0.5c-0.4,0.3-0.5,0.9-0.5,1.8v3.7H-29.4z"/>
				<path class="st6" d="M-19.7,19.5l0.2,1c-0.3,0.1-0.6,0.1-0.9,0.1c-0.4,0-0.7-0.1-1-0.2c-0.2-0.1-0.4-0.3-0.5-0.5
					s-0.1-0.7-0.1-1.3v-3.9h-0.8v-0.9h0.8v-1.7l1.1-0.7v2.4h1.1v0.9h-1.1v3.9c0,0.3,0,0.5,0.1,0.6c0,0.1,0.1,0.2,0.2,0.2
					c0.1,0.1,0.2,0.1,0.4,0.1C-20.1,19.6-19.9,19.6-19.7,19.5z"/>
				<path class="st6" d="M-18.6,12.6v-1.3h1.1v1.3H-18.6z M-18.6,20.5v-6.7h1.1v6.7H-18.6z"/>
				<path class="st6" d="M-11.3,18.1l1.1,0.1c-0.1,0.8-0.4,1.4-0.9,1.8c-0.5,0.4-1.1,0.7-1.9,0.7c-0.9,0-1.7-0.3-2.2-0.9
					c-0.6-0.6-0.8-1.5-0.8-2.6c0-0.7,0.1-1.4,0.4-1.9s0.6-1,1.1-1.2c0.5-0.3,1-0.4,1.6-0.4c0.7,0,1.3,0.2,1.8,0.6s0.8,0.9,0.9,1.6
					l-1.1,0.2c-0.1-0.5-0.3-0.8-0.6-1c-0.3-0.2-0.6-0.3-1-0.3c-0.6,0-1,0.2-1.4,0.6c-0.4,0.4-0.5,1.1-0.5,2c0,0.9,0.2,1.6,0.5,2
					c0.3,0.4,0.8,0.6,1.4,0.6c0.4,0,0.8-0.1,1.1-0.4C-11.6,19.1-11.4,18.7-11.3,18.1z"/>
				<path class="st6" d="M-5.4,20.5v-9.3h1.3l4.9,7.3v-7.3h1.2v9.3H0.6l-4.9-7.3v7.3H-5.4z"/>
				<path class="st6" d="M8.4,18.4l1.2,0.1c-0.2,0.7-0.5,1.2-1,1.6s-1.1,0.6-1.9,0.6c-1,0-1.8-0.3-2.3-0.9c-0.6-0.6-0.9-1.5-0.9-2.6
					c0-1.1,0.3-2,0.9-2.6s1.3-0.9,2.3-0.9c0.9,0,1.6,0.3,2.2,0.9c0.6,0.6,0.9,1.5,0.9,2.6c0,0.1,0,0.2,0,0.3h-5
					c0,0.7,0.3,1.3,0.6,1.7c0.4,0.4,0.8,0.6,1.4,0.6c0.4,0,0.8-0.1,1.1-0.3S8.3,18.9,8.4,18.4z M4.7,16.5h3.8
					c-0.1-0.6-0.2-1-0.4-1.3c-0.4-0.4-0.8-0.7-1.4-0.7c-0.5,0-1,0.2-1.3,0.5C4.9,15.5,4.7,15.9,4.7,16.5z"/>
				<path class="st6" d="M13.5,19.5l0.2,1c-0.3,0.1-0.6,0.1-0.9,0.1c-0.4,0-0.7-0.1-1-0.2c-0.2-0.1-0.4-0.3-0.5-0.5
					s-0.1-0.7-0.1-1.3v-3.9h-0.8v-0.9h0.8v-1.7l1.1-0.7v2.4h1.1v0.9h-1.1v3.9c0,0.3,0,0.5,0.1,0.6c0,0.1,0.1,0.2,0.2,0.2
					c0.1,0.1,0.2,0.1,0.4,0.1C13.2,19.6,13.3,19.6,13.5,19.5z"/>
				<path class="st6" d="M15.9,20.5l-2.1-6.7H15l1.1,3.9l0.4,1.4c0-0.1,0.1-0.5,0.3-1.4l1.1-3.9h1.2l1,3.9l0.3,1.3l0.4-1.3l1.2-3.9
					h1.1L21,20.5h-1.2l-1.1-4l-0.3-1.1l-1.4,5.2H15.9z"/>
				<path class="st6" d="M23.6,17.2c0-1.2,0.3-2.2,1-2.8c0.6-0.5,1.3-0.7,2.1-0.7c0.9,0,1.7,0.3,2.3,0.9s0.9,1.4,0.9,2.5
					c0,0.9-0.1,1.5-0.4,2c-0.3,0.5-0.6,0.9-1.1,1.2c-0.5,0.3-1,0.4-1.6,0.4c-0.9,0-1.7-0.3-2.3-0.9C23.9,19.2,23.6,18.3,23.6,17.2z
					 M24.8,17.2c0,0.9,0.2,1.5,0.6,1.9s0.9,0.6,1.4,0.6c0.6,0,1-0.2,1.4-0.6s0.6-1.1,0.6-2c0-0.8-0.2-1.5-0.6-1.9
					c-0.4-0.4-0.8-0.6-1.4-0.6c-0.6,0-1,0.2-1.4,0.6S24.8,16.3,24.8,17.2z"/>
				<path class="st6" d="M31.3,20.5v-6.7h1v1c0.3-0.5,0.5-0.8,0.7-0.9c0.2-0.2,0.5-0.2,0.7-0.2c0.4,0,0.8,0.1,1.2,0.4l-0.4,1.1
					c-0.3-0.2-0.6-0.2-0.8-0.2c-0.2,0-0.5,0.1-0.7,0.2s-0.3,0.4-0.4,0.6c-0.1,0.4-0.2,0.9-0.2,1.3v3.5H31.3z"/>
				<path class="st6" d="M35.6,20.5v-9.3h1.1v5.3l2.7-2.7h1.5l-2.6,2.5l2.8,4.2h-1.4l-2.2-3.4l-0.8,0.8v2.7H35.6z"/>
			</g>
		</g>
		<g transform="translate(0.000,130.000)">
			<rect x="52" y="1" class="st4" width="10" height="45"/>
			<g class="st5">
				<path class="st6" d="M1,28v-9.3h1.2V27h4.6V28H1z"/>
				<path class="st6" d="M7.7,24.7c0-1.2,0.3-2.2,1-2.8c0.6-0.5,1.3-0.7,2.1-0.7c0.9,0,1.7,0.3,2.3,0.9s0.9,1.4,0.9,2.5
					c0,0.9-0.1,1.5-0.4,2c-0.3,0.5-0.6,0.9-1.1,1.2c-0.5,0.3-1,0.4-1.6,0.4c-0.9,0-1.7-0.3-2.3-0.9C8,26.7,7.7,25.8,7.7,24.7z
					 M8.9,24.7c0,0.9,0.2,1.5,0.6,1.9s0.9,0.6,1.4,0.6c0.6,0,1-0.2,1.4-0.6s0.6-1.1,0.6-2c0-0.8-0.2-1.5-0.6-1.9
					c-0.4-0.4-0.8-0.6-1.4-0.6c-0.6,0-1,0.2-1.4,0.6S8.9,23.8,8.9,24.7z"/>
				<path class="st6" d="M15.2,28.6l1.1,0.2c0,0.3,0.2,0.6,0.4,0.7c0.3,0.2,0.7,0.3,1.2,0.3c0.5,0,0.9-0.1,1.2-0.3s0.5-0.5,0.6-0.9
					c0.1-0.2,0.1-0.7,0.1-1.5c-0.5,0.6-1.1,0.9-1.9,0.9c-0.9,0-1.6-0.3-2.2-1s-0.8-1.5-0.8-2.4c0-0.6,0.1-1.2,0.3-1.8s0.6-1,1-1.3
					c0.4-0.3,1-0.4,1.6-0.4c0.8,0,1.5,0.3,2,1v-0.8h1.1v5.8c0,1-0.1,1.8-0.3,2.2c-0.2,0.4-0.6,0.8-1,1c-0.5,0.3-1,0.4-1.7,0.4
					c-0.8,0-1.5-0.2-1.9-0.5C15.4,29.9,15.1,29.3,15.2,28.6z M16.1,24.6c0,0.9,0.2,1.5,0.5,1.9s0.8,0.6,1.3,0.6c0.5,0,1-0.2,1.3-0.6
					s0.5-1,0.5-1.9c0-0.8-0.2-1.4-0.5-1.9c-0.4-0.4-0.8-0.6-1.3-0.6c-0.5,0-0.9,0.2-1.3,0.6C16.3,23.1,16.1,23.7,16.1,24.6z"/>
				<path class="st6" d="M22.6,20.1v-1.3h1.1v1.3H22.6z M22.6,28v-6.7h1.1V28H22.6z"/>
				<path class="st6" d="M29.9,25.6l1.1,0.1c-0.1,0.8-0.4,1.4-0.9,1.8c-0.5,0.4-1.1,0.7-1.9,0.7c-0.9,0-1.7-0.3-2.2-0.9
					c-0.6-0.6-0.8-1.5-0.8-2.6c0-0.7,0.1-1.4,0.4-1.9s0.6-1,1.1-1.2c0.5-0.3,1-0.4,1.6-0.4c0.7,0,1.3,0.2,1.8,0.6s0.8,0.9,0.9,1.6
					l-1.1,0.2c-0.1-0.5-0.3-0.8-0.6-1c-0.3-0.2-0.6-0.3-1-0.3c-0.6,0-1,0.2-1.4,0.6c-0.4,0.4-0.5,1.1-0.5,2c0,0.9,0.2,1.6,0.5,2
					c0.3,0.4,0.8,0.6,1.4,0.6c0.4,0,0.8-0.1,1.1-0.4C29.6,26.6,29.8,26.2,29.9,25.6z"/>
				<path class="st6" d="M36.4,27.2c-0.4,0.4-0.8,0.6-1.2,0.8c-0.4,0.1-0.8,0.2-1.3,0.2c-0.7,0-1.3-0.2-1.7-0.5
					c-0.4-0.4-0.6-0.8-0.6-1.4c0-0.3,0.1-0.6,0.2-0.9c0.1-0.3,0.3-0.5,0.6-0.7c0.2-0.2,0.5-0.3,0.8-0.4c0.2-0.1,0.6-0.1,1-0.2
					c0.9-0.1,1.6-0.2,2-0.4c0-0.2,0-0.3,0-0.3c0-0.5-0.1-0.8-0.3-1c-0.3-0.3-0.7-0.4-1.3-0.4c-0.5,0-0.9,0.1-1.2,0.3
					c-0.3,0.2-0.4,0.5-0.6,1l-1.1-0.2c0.1-0.5,0.3-0.9,0.5-1.2s0.6-0.5,1-0.7c0.4-0.2,1-0.2,1.5-0.2c0.6,0,1,0.1,1.4,0.2
					s0.6,0.3,0.8,0.5s0.3,0.5,0.4,0.8c0,0.2,0.1,0.5,0.1,1.1v1.5c0,1.1,0,1.7,0.1,2c0,0.3,0.1,0.6,0.3,0.8h-1.2
					C36.5,27.8,36.4,27.5,36.4,27.2z M36.3,24.7c-0.4,0.2-1,0.3-1.9,0.4c-0.5,0.1-0.8,0.1-1,0.2c-0.2,0.1-0.3,0.2-0.5,0.4
					s-0.2,0.3-0.2,0.5c0,0.3,0.1,0.6,0.3,0.8c0.2,0.2,0.6,0.3,1,0.3c0.4,0,0.8-0.1,1.2-0.3s0.6-0.5,0.8-0.8c0.1-0.3,0.2-0.6,0.2-1.1
					V24.7z"/>
				<path class="st6" d="M39.2,28v-9.3h1.1V28H39.2z"/>
			</g>
		</g>
		<g transform="translate(0.000,200.000)">
			<rect x="52" y="1" class="st4" width="10" height="65"/>
			<g class="st5">
				<path class="st6" d="M9,38v-9.3h4.1c0.8,0,1.5,0.1,1.9,0.3s0.8,0.5,1,0.9c0.3,0.4,0.4,0.9,0.4,1.4c0,0.7-0.2,1.2-0.6,1.7
					c-0.4,0.5-1.1,0.7-2,0.9c0.3,0.2,0.6,0.3,0.7,0.5c0.4,0.3,0.7,0.7,1,1.2l1.6,2.5h-1.5l-1.2-1.9c-0.4-0.6-0.7-1-0.9-1.3
					c-0.2-0.3-0.4-0.5-0.6-0.6c-0.2-0.1-0.4-0.2-0.6-0.2c-0.1,0-0.4,0-0.7,0h-1.4V38H9z M10.3,32.9h2.6c0.6,0,1-0.1,1.3-0.2
					s0.6-0.3,0.7-0.6s0.2-0.5,0.2-0.8c0-0.4-0.2-0.8-0.5-1.1c-0.3-0.3-0.8-0.4-1.5-0.4h-2.9V32.9z"/>
				<path class="st6" d="M22.7,38v-1c-0.5,0.8-1.2,1.1-2.1,1.1c-0.4,0-0.8-0.1-1.1-0.2c-0.3-0.2-0.6-0.3-0.8-0.6
					c-0.2-0.2-0.3-0.5-0.4-0.8c0-0.2-0.1-0.6-0.1-1.1v-4.2h1.1V35c0,0.6,0,1,0.1,1.2c0.1,0.3,0.2,0.5,0.5,0.7
					c0.2,0.2,0.5,0.3,0.9,0.3s0.7-0.1,1-0.3s0.5-0.4,0.6-0.7c0.1-0.3,0.2-0.7,0.2-1.3v-3.6h1.1V38H22.7z"/>
				<path class="st6" d="M25.5,38v-9.3h1.1V38H25.5z"/>
				<path class="st6" d="M33,35.9l1.2,0.1c-0.2,0.7-0.5,1.2-1,1.6s-1.1,0.6-1.9,0.6c-1,0-1.8-0.3-2.3-0.9c-0.6-0.6-0.9-1.5-0.9-2.6
					c0-1.1,0.3-2,0.9-2.6s1.3-0.9,2.3-0.9c0.9,0,1.6,0.3,2.2,0.9c0.6,0.6,0.9,1.5,0.9,2.6c0,0.1,0,0.2,0,0.3h-5
					c0,0.7,0.3,1.3,0.6,1.7c0.4,0.4,0.8,0.6,1.4,0.6c0.4,0,0.8-0.1,1.1-0.3S32.8,36.4,33,35.9z M29.2,34H33c-0.1-0.6-0.2-1-0.4-1.3
					c-0.4-0.4-0.8-0.7-1.4-0.7c-0.5,0-1,0.2-1.3,0.5C29.5,33,29.3,33.4,29.2,34z"/>
				<path class="st6" d="M35.1,36l1.1-0.2c0.1,0.5,0.2,0.8,0.5,1c0.3,0.2,0.7,0.4,1.2,0.4c0.5,0,0.9-0.1,1.2-0.3s0.4-0.5,0.4-0.8
					c0-0.3-0.1-0.5-0.3-0.6c-0.2-0.1-0.5-0.2-1.2-0.4c-0.8-0.2-1.4-0.4-1.7-0.5c-0.3-0.2-0.6-0.4-0.7-0.6c-0.2-0.3-0.3-0.6-0.3-0.9
					c0-0.3,0.1-0.6,0.2-0.8c0.1-0.3,0.3-0.5,0.6-0.6c0.2-0.1,0.4-0.2,0.7-0.3c0.3-0.1,0.6-0.1,1-0.1c0.5,0,1,0.1,1.4,0.2
					c0.4,0.2,0.7,0.4,0.9,0.6c0.2,0.3,0.3,0.6,0.4,1l-1.1,0.2c-0.1-0.3-0.2-0.6-0.4-0.8c-0.2-0.2-0.6-0.3-1-0.3
					c-0.5,0-0.9,0.1-1.1,0.3c-0.2,0.2-0.3,0.4-0.3,0.6c0,0.1,0,0.3,0.1,0.4c0.1,0.1,0.2,0.2,0.4,0.3c0.1,0,0.5,0.1,1,0.3
					c0.8,0.2,1.4,0.4,1.7,0.5c0.3,0.1,0.6,0.3,0.8,0.6s0.3,0.6,0.3,1c0,0.4-0.1,0.7-0.3,1.1c-0.2,0.3-0.5,0.6-1,0.8
					c-0.4,0.2-0.9,0.3-1.4,0.3c-0.9,0-1.5-0.2-2-0.5C35.6,37.3,35.3,36.8,35.1,36z"/>
			</g>
		</g>
		<g transform="translate(0.000,75.000)">
			<rect x="52" y="1" class="st4" width="10" height="30"/>
			<g class="st5">
				<path class="st6" d="M-1.7,20.5v-9.3h6.3v1.1h-5v2.9h4.4v1.1h-4.4v4.2H-1.7z"/>
				<path class="st6" d="M6,20.5v-6.7h1v1c0.3-0.5,0.5-0.8,0.7-0.9c0.2-0.2,0.5-0.2,0.7-0.2c0.4,0,0.8,0.1,1.2,0.4l-0.4,1.1
					c-0.3-0.2-0.6-0.2-0.8-0.2c-0.2,0-0.5,0.1-0.7,0.2s-0.3,0.4-0.4,0.6c-0.1,0.4-0.2,0.9-0.2,1.3v3.5H6z"/>
				<path class="st6" d="M14.7,19.7c-0.4,0.4-0.8,0.6-1.2,0.8c-0.4,0.1-0.8,0.2-1.3,0.2c-0.7,0-1.3-0.2-1.7-0.5
					c-0.4-0.4-0.6-0.8-0.6-1.4c0-0.3,0.1-0.6,0.2-0.9c0.1-0.3,0.3-0.5,0.6-0.7c0.2-0.2,0.5-0.3,0.8-0.4c0.2-0.1,0.6-0.1,1-0.2
					c0.9-0.1,1.6-0.2,2-0.4c0-0.2,0-0.3,0-0.3c0-0.5-0.1-0.8-0.3-1c-0.3-0.3-0.7-0.4-1.3-0.4c-0.5,0-0.9,0.1-1.2,0.3
					c-0.3,0.2-0.4,0.5-0.6,1l-1.1-0.2c0.1-0.5,0.3-0.9,0.5-1.2s0.6-0.5,1-0.7c0.4-0.2,1-0.2,1.5-0.2c0.6,0,1,0.1,1.4,0.2
					s0.6,0.3,0.8,0.5s0.3,0.5,0.4,0.8c0,0.2,0.1,0.5,0.1,1.1v1.5c0,1.1,0,1.7,0.1,2c0,0.3,0.1,0.6,0.3,0.8h-1.2
					C14.8,20.3,14.8,20,14.7,19.7z M14.6,17.2c-0.4,0.2-1,0.3-1.9,0.4c-0.5,0.1-0.8,0.1-1,0.2c-0.2,0.1-0.3,0.2-0.5,0.4
					s-0.2,0.3-0.2,0.5c0,0.3,0.1,0.6,0.3,0.8c0.2,0.2,0.6,0.3,1,0.3c0.4,0,0.8-0.1,1.2-0.3s0.6-0.5,0.8-0.8c0.1-0.3,0.2-0.6,0.2-1.1
					V17.2z"/>
				<path class="st6" d="M17.5,20.5v-6.7h1v0.9c0.2-0.3,0.5-0.6,0.8-0.8s0.8-0.3,1.2-0.3c0.5,0,0.9,0.1,1.2,0.3
					c0.3,0.2,0.5,0.5,0.7,0.9c0.5-0.8,1.2-1.2,2.1-1.2c0.7,0,1.2,0.2,1.5,0.6s0.5,0.9,0.5,1.7v4.6h-1.1v-4.2c0-0.5,0-0.8-0.1-1
					c-0.1-0.2-0.2-0.4-0.4-0.5c-0.2-0.1-0.4-0.2-0.7-0.2c-0.5,0-0.9,0.2-1.2,0.5s-0.5,0.8-0.5,1.5v3.9h-1.1v-4.4
					c0-0.5-0.1-0.9-0.3-1.1s-0.5-0.4-0.9-0.4c-0.3,0-0.6,0.1-0.9,0.3c-0.3,0.2-0.5,0.4-0.6,0.7c-0.1,0.3-0.2,0.8-0.2,1.4v3.5H17.5z"
					/>
				<path class="st6" d="M33,18.4l1.2,0.1c-0.2,0.7-0.5,1.2-1,1.6s-1.1,0.6-1.9,0.6c-1,0-1.8-0.3-2.3-0.9c-0.6-0.6-0.9-1.5-0.9-2.6
					c0-1.1,0.3-2,0.9-2.6s1.3-0.9,2.3-0.9c0.9,0,1.6,0.3,2.2,0.9c0.6,0.6,0.9,1.5,0.9,2.6c0,0.1,0,0.2,0,0.3h-5
					c0,0.7,0.3,1.3,0.6,1.7c0.4,0.4,0.8,0.6,1.4,0.6c0.4,0,0.8-0.1,1.1-0.3S32.8,18.9,33,18.4z M29.2,16.5H33
					c-0.1-0.6-0.2-1-0.4-1.3c-0.4-0.4-0.8-0.7-1.4-0.7c-0.5,0-1,0.2-1.3,0.5C29.5,15.5,29.3,15.9,29.2,16.5z"/>
				<path class="st6" d="M35.1,18.5l1.1-0.2c0.1,0.5,0.2,0.8,0.5,1c0.3,0.2,0.7,0.4,1.2,0.4c0.5,0,0.9-0.1,1.2-0.3s0.4-0.5,0.4-0.8
					c0-0.3-0.1-0.5-0.3-0.6c-0.2-0.1-0.5-0.2-1.2-0.4c-0.8-0.2-1.4-0.4-1.7-0.5c-0.3-0.2-0.6-0.4-0.7-0.6c-0.2-0.3-0.3-0.6-0.3-0.9
					c0-0.3,0.1-0.6,0.2-0.8c0.1-0.3,0.3-0.5,0.6-0.6c0.2-0.1,0.4-0.2,0.7-0.3c0.3-0.1,0.6-0.1,1-0.1c0.5,0,1,0.1,1.4,0.2
					c0.4,0.2,0.7,0.4,0.9,0.6c0.2,0.3,0.3,0.6,0.4,1l-1.1,0.2c-0.1-0.3-0.2-0.6-0.4-0.8c-0.2-0.2-0.6-0.3-1-0.3
					c-0.5,0-0.9,0.1-1.1,0.3c-0.2,0.2-0.3,0.4-0.3,0.6c0,0.1,0,0.3,0.1,0.4c0.1,0.1,0.2,0.2,0.4,0.3c0.1,0,0.5,0.1,1,0.3
					c0.8,0.2,1.4,0.4,1.7,0.5c0.3,0.1,0.6,0.3,0.8,0.6s0.3,0.6,0.3,1c0,0.4-0.1,0.7-0.3,1.1c-0.2,0.3-0.5,0.6-1,0.8
					c-0.4,0.2-0.9,0.3-1.4,0.3c-0.9,0-1.5-0.2-2-0.5C35.6,19.8,35.3,19.3,35.1,18.5z"/>
			</g>
		</g>
	</g>
</g>
</svg>
