<?xml version="1.0" encoding="utf-8"?>
<!-- Generator: Adobe Illustrator 26.0.2, SVG Export Plug-In . SVG Version: 6.00 Build 0)  -->
<svg version="1.1" id="Layer_1" xmlns="http://www.w3.org/2000/svg" xmlns:xlink="http://www.w3.org/1999/xlink" x="0px" y="0px"
	 viewBox="0 0 805.3 349.1" style="enable-background:new 0 0 805.3 349.1;" xml:space="preserve">
<style type="text/css">
	.st0{fill:#57BCD6;}
	.st1{fill:#450256;}
	.st2{fill:#2070B4;}
	.st3{fill:#89B79F;}
	.st4{stroke:#444444;stroke-width:0.5;}
	.st5{fill-opacity:0;}
	.st6{fill:#333333;}
	.st7{font-family:'ArialMT';}
	.st8{font-size:14px;}
</style>
<g>
	<path class="st0" d="M140.8,124.7c160,0,300,9.2,460,9.2v2.3c-160,0-300-9.2-460-9.2V124.7z"/>
	<path class="st1" d="M140.8,260.6c160,0,300-96.5,460-96.5v2.3c-160,0-300,96.5-460,96.5V260.6z"/>
	<path class="st2" d="M140.8,173.8c160,0,300-28.4,460-28.4v2.3c-160,0-300,28.4-460,28.4V173.8z"/>
	<path class="st1" d="M140.8,272.2c160,0,300,59.3,460,59.3v2.3c-160,0-300-59.3-460-59.3V272.2z"/>
	<path class="st3" d="M140.8,218.4c160,0,300-63.6,460-63.6v2.3c-160,0-300,63.6-460,63.6V218.4z"/>
	<path class="st1" d="M140.8,269.8c160,0,300,37.9,460,37.9v2.3c-160,0-300-37.9-460-37.9V269.8z"/>
	<path class="st1" d="M140.8,258.3c160,0,300-148,460-148v2.3c-160,0-300,148-460,148V258.3z"/>
	<path class="st0" d="M140.8,108.5c160,0,300-68.7,460-68.7v2.3c-160,0-300,68.7-460,68.7V108.5z"/>
	<path class="st3" d="M140.8,227.6c160,0,300-30.7,460-30.7v2.3c-160,0-300,30.7-460,30.7V227.6z"/>
	<path class="st2" d="M140.8,176.2c160,0,300-28.4,460-28.4v2.3c-160,0-300,28.4-460,28.4V176.2z"/>
	<path class="st2" d="M140.8,164.6c160,0,300-117.9,460-117.9V49c-160,0-300,117.9-460,117.9V164.6z"/>
	<path class="st2" d="M140.8,187.8c160,0,300,56.5,460,56.5v2.3c-160,0-300-56.5-460-56.5V187.8z"/>
	<path class="st0" d="M140.8,110.8c160,0,300-68.7,460-68.7v2.3c-160,0-300,68.7-460,68.7V110.8z"/>
	<path class="st3" d="M140.8,216c160,0,300-167,460-167v2.3c-160,0-300,167-460,167V216z"/>
	<path class="st3" d="M140.8,220.7c160,0,300-63.6,460-63.6v2.3c-160,0-300,63.6-460,63.6V220.7z"/>
	<path class="st0" d="M140.8,117.7c160,0,300-19.1,460-19.1v2.3c-160,0-300,19.1-460,19.1V117.7z"/>
	<path class="st0" d="M140.8,103.8c160,0,300-90.1,460-90.1v2.3c-160,0-300,90.1-460,90.1V103.8z"/>
	<path class="st2" d="M140.8,190.1c160,0,300,80.2,460,80.2v2.3c-160,0-300-80.2-460-80.2V190.1z"/>
	<path class="st2" d="M140.8,169.2c160,0,300-63.6,460-63.6v2.3c-160,0-300,63.6-460,63.6V169.2z"/>
	<path class="st2" d="M140.8,183.1c160,0,300,11.5,460,11.5v2.3c-160,0-300-11.5-460-11.5V183.1z"/>
	<path class="st3" d="M140.8,230c160,0,300,44.9,460,44.9v2.3c-160,0-300-44.9-460-44.9V230z"/>
	<path class="st2" d="M140.8,192.4c160,0,300,80.2,460,80.2v2.3c-160,0-300-80.2-460-80.2V192.4z"/>
	<path class="st0" d="M140.8,127c160,0,300,9.2,460,9.2v2.3c-160,0-300-9.2-460-9.2V127z"/>
	<path class="st0" d="M140.8,129.3c160,0,300,9.2,460,9.2v2.3c-160,0-300-9.2-460-9.2V129.3z"/>
	<path class="st0" d="M140.8,138.6c160,0,300,129.3,460,129.3v2.3c-160,0-300-129.3-460-129.3V138.6z"/>
	<path class="st3" d="M140.8,234.6c160,0,300,70.9,460,70.9v2.3c-160,0-300-70.9-460-70.9V234.6z"/>
	<path class="st3" d="M140.8,223c160,0,300-63.6,460-63.6v2.3c-160,0-300,63.6-460,63.6V223z"/>
	<path class="st0" d="M140.8,120c160,0,300-19.1,460-19.1v2.3c-160,0-300,19.1-460,19.1V120z"/>
	<path class="st2" d="M140.8,178.5c160,0,300-28.4,460-28.4v2.3c-160,0-300,28.4-460,28.4V178.5z"/>
	<path class="st0" d="M140.8,131.6c160,0,300,9.2,460,9.2v2.3c-160,0-300-9.2-460-9.2V131.6z"/>
	<path class="st0" d="M140.8,113.1c160,0,300-68.7,460-68.7v2.3c-160,0-300,68.7-460,68.7V113.1z"/>
	<path class="st0" d="M140.8,115.4c160,0,300-42.7,460-42.7V75c-160,0-300,42.7-460,42.7V115.4z"/>
	<path class="st1" d="M140.8,262.9c160,0,300-96.5,460-96.5v2.3c-160,0-300,96.5-460,96.5V262.9z"/>
	<path class="st0" d="M140.8,140.9c160,0,300,162.2,460,162.2v2.3c-160,0-300-162.2-460-162.2V140.9z"/>
	<path class="st1" d="M140.8,265.2c160,0,300-96.5,460-96.5v2.3c-160,0-300,96.5-460,96.5V265.2z"/>
	<path class="st0" d="M140.8,134c160,0,300,9.2,460,9.2v2.3c-160,0-300-9.2-460-9.2V134z"/>
	<path class="st3" d="M140.8,232.3c160,0,300,44.9,460,44.9v2.3c-160,0-300-44.9-460-44.9V232.3z"/>
	<path class="st2" d="M140.8,166.9c160,0,300-91.9,460-91.9v2.3c-160,0-300,91.9-460,91.9V166.9z"/>
	<path class="st0" d="M140.8,136.3c160,0,300,56,460,56v2.3c-160,0-300-56-460-56V136.3z"/>
	<path class="st0" d="M140.8,122.4c160,0,300-19.1,460-19.1v2.3c-160,0-300,19.1-460,19.1V122.4z"/>
	<path class="st2" d="M140.8,180.8c160,0,300-28.4,460-28.4v2.3c-160,0-300,28.4-460,28.4V180.8z"/>
	<path class="st2" d="M140.8,185.4c160,0,300,35.2,460,35.2v2.3c-160,0-300-35.2-460-35.2V185.4z"/>
	<path class="st3" d="M140.8,225.3c160,0,300-63.6,460-63.6v2.3c-160,0-300,63.6-460,63.6V225.3z"/>
	<path class="st2" d="M140.8,171.5c160,0,300-63.6,460-63.6v2.3c-160,0-300,63.6-460,63.6V171.5z"/>
	<path class="st0" d="M140.8,106.1c160,0,300-90.1,460-90.1v2.3c-160,0-300,90.1-460,90.1V106.1z"/>
	<path class="st1" d="M140.8,267.5c160,0,300,12,460,12v2.3c-160,0-300-12-460-12V267.5z"/>
</g>
<rect x="130.8" y="258.3" class="st4" width="10" height="16.2"/>
<rect x="120.8" y="245.8" class="st5" width="30" height="41.2"/>
<g transform="translate(0 9.115942028985572)">
	<text transform="matrix(1 0 0 1 73.7692 258.2527)" class="st6 st7 st8">F</text>
	<text transform="matrix(1 0 0 1 82.3209 258.2527)" class="st6 st7 st8">r</text>
	<text transform="matrix(1 0 0 1 86.983 258.2527)" class="st6 st7 st8">a</text>
	<text transform="matrix(1 0 0 1 94.7692 258.2527)" class="st6 st7 st8">m</text>
	<text transform="matrix(1 0 0 1 106.4313 258.2527)" class="st6 st7 st8">e</text>
	<text transform="matrix(1 0 0 1 114.2174 258.2527)" class="st6 st7 st8">s</text>
</g>
<rect x="130.8" y="164.6" class="st4" width="10" height="30.1"/>
<rect x="120.8" y="152.1" class="st5" width="30" height="55.1"/>
<g transform="translate(0 16.072463768115966)">
	<text transform="matrix(1 0 0 1 87.7487 164.5707)" class="st6 st7 st8">L</text>
	<text transform="matrix(1 0 0 1 95.5348 164.5707)" class="st6 st7 st8">o</text>
	<text transform="matrix(1 0 0 1 103.3209 164.5707)" class="st6 st7 st8">g</text>
	<text transform="matrix(1 0 0 1 111.1071 164.5707)" class="st6 st7 st8">i</text>
	<text transform="matrix(1 0 0 1 114.2174 164.5707)" class="st6 st7 st8">c</text>
</g>
<rect x="130.8" y="103.8" class="st4" width="10" height="39.4"/>
<rect x="120.8" y="91.3" class="st5" width="30" height="64.4"/>
<g transform="translate(0 20.710144927536284)">
	<text transform="matrix(1 0 0 1 85.4244 103.8177)" class="st6 st7 st8">R</text>
	<text transform="matrix(1 0 0 1 95.5348 103.8177)" class="st6 st7 st8">u</text>
	<text transform="matrix(1 0 0 1 103.3209 103.8177)" class="st6 st7 st8">l</text>
	<text transform="matrix(1 0 0 1 106.4313 103.8177)" class="st6 st7 st8">e</text>
	<text transform="matrix(1 0 0 1 114.2174 103.8177)" class="st6 st7 st8">s</text>
</g>
<rect x="130.8" y="216" class="st4" width="10" height="20.9"/>
<rect x="120.8" y="203.5" class="st5" width="30" height="45.9"/>
<g transform="translate(0 11.434782608695656)">
	<text transform="matrix(1 0 0 1 9.9488 216.0497)" class="st6 st7 st8">S</text>
	<text transform="matrix(1 0 0 1 19.2867 216.0497)" class="st6 st7 st8">e</text>
	<text transform="matrix(1 0 0 1 27.0729 216.0497)" class="st6 st7 st8">m</text>
	<text transform="matrix(1 0 0 1 38.735 216.0497)" class="st6 st7 st8">a</text>
	<text transform="matrix(1 0 0 1 46.5211 216.0497)" class="st6 st7 st8">n</text>
	<text transform="matrix(1 0 0 1 54.3072 216.0497)" class="st6 st7 st8">t</text>
	<text transform="matrix(1 0 0 1 58.1969 216.0497)" class="st6 st7 st8">i</text>
	<text transform="matrix(1 0 0 1 61.3072 216.0497)" class="st6 st7 st8">c</text>
	<text transform="matrix(1 0 0 1 68.3073 216.0497)" class="st6 st7 st8"> </text>
	<text transform="matrix(1 0 0 1 72.1969 216.0497)" class="st6 st7 st8">n</text>
	<text transform="matrix(1 0 0 1 79.983 216.0497)" class="st6 st7 st8">e</text>
	<text transform="matrix(1 0 0 1 87.7692 216.0497)" class="st6 st7 st8">t</text>
	<text transform="matrix(1 0 0 1 91.6588 216.0497)" class="st6 st7 st8">w</text>
	<text transform="matrix(1 0 0 1 101.7692 216.0497)" class="st6 st7 st8">o</text>
	<text transform="matrix(1 0 0 1 109.5553 216.0497)" class="st6 st7 st8">r</text>
	<text transform="matrix(1 0 0 1 114.2174 216.0497)" class="st6 st7 st8">k</text>
</g>
<rect x="600.8" y="39.7" class="st4" width="10" height="11.6"/>
<rect x="590.8" y="27.2" class="st5" width="30" height="36.6"/>
<g transform="translate(0 6.797101449275324)">
	<text transform="matrix(1 0 0 1 618.5481 41.865)" class="st6 st7 st8">S</text>
	<text transform="matrix(1 0 0 1 627.886 41.865)" class="st6 st7 st8">V</text>
	<text transform="matrix(1 0 0 1 637.2239 41.865)" class="st6 st7 st8">M</text>
</g>
<rect x="600.8" y="98.6" class="st4" width="10" height="13.9"/>
<rect x="590.8" y="86.1" class="st5" width="30" height="38.9"/>
<g transform="translate(0 7.9565217391304515)">
	<text transform="matrix(1 0 0 1 618.5481 100.764)" class="st6 st7 st8">M</text>
	<text transform="matrix(1 0 0 1 630.2102 100.764)" class="st6 st7 st8">L</text>
	<text transform="matrix(1 0 0 1 637.9963 100.764)" class="st6 st7 st8">P</text>
</g>
<rect x="600.8" y="220.6" class="st4" width="10" height="2.3"/>
<rect x="590.8" y="208.1" class="st5" width="30" height="27.3"/>
<g transform="translate(0 2.159420289855092)">
	<text transform="matrix(1 0 0 1 618.5481 222.735)" class="st6 st7 st8">D</text>
	<text transform="matrix(1 0 0 1 628.6584 222.735)" class="st6 st7 st8">B</text>
	<text transform="matrix(1 0 0 1 637.9963 222.735)" class="st6 st7 st8">N</text>
</g>
<rect x="600.8" y="267.9" class="st4" width="10" height="13.9"/>
<rect x="590.8" y="255.4" class="st5" width="30" height="38.9"/>
<g transform="translate(0 7.956521739130153)">
	<text transform="matrix(1 0 0 1 618.5481 270.039)" class="st6 st7 st8">C</text>
	<text transform="matrix(1 0 0 1 628.6584 270.039)" class="st6 st7 st8">N</text>
	<text transform="matrix(1 0 0 1 638.7688 270.039)" class="st6 st7 st8">N</text>
</g>
<rect x="600.8" y="303.2" class="st4" width="10" height="7"/>
<rect x="590.8" y="290.7" class="st5" width="30" height="32"/>
<g transform="translate(0 4.478260869565219)">
	<text transform="matrix(1 0 0 1 618.5481 305.285)" class="st6 st7 st8">G</text>
	<text transform="matrix(1 0 0 1 629.4377 305.285)" class="st6 st7 st8">N</text>
	<text transform="matrix(1 0 0 1 639.5481 305.285)" class="st6 st7 st8">N</text>
</g>
<rect x="600.8" y="133.9" class="st4" width="10" height="37.1"/>
<rect x="590.8" y="121.4" class="st5" width="30" height="62.1"/>
<g transform="translate(0 19.550724637681157)">
	<text transform="matrix(1 0 0 1 618.5481 136.01)" class="st6 st7 st8">R</text>
	<text transform="matrix(1 0 0 1 628.6584 136.01)" class="st6 st7 st8">N</text>
	<text transform="matrix(1 0 0 1 638.7688 136.01)" class="st6 st7 st8">N</text>
</g>
<rect x="600.8" y="72.7" class="st4" width="10" height="4.6"/>
<rect x="590.8" y="60.2" class="st5" width="30" height="29.6"/>
<g transform="translate(0 3.3188405797101908)">
	<text transform="matrix(1 0 0 1 618.5481 74.793)" class="st6 st7 st8">R</text>
	<text transform="matrix(1 0 0 1 628.6584 74.793)" class="st6 st7 st8">c</text>
	<text transform="matrix(1 0 0 1 635.6584 74.793)" class="st6 st7 st8">N</text>
	<text transform="matrix(1 0 0 1 645.7688 74.793)" class="st6 st7 st8">N</text>
</g>
<rect x="600.8" y="192.3" class="st4" width="10" height="7"/>
<rect x="590.8" y="179.8" class="st5" width="30" height="32"/>
<g transform="translate(0 4.4782608695652755)">
	<text transform="matrix(1 0 0 1 618.5481 194.445)" class="st6 st7 st8">T</text>
	<text transform="matrix(1 0 0 1 627.0999 194.445)" class="st6 st7 st8">r</text>
	<text transform="matrix(1 0 0 1 631.762 194.445)" class="st6 st7 st8">a</text>
	<text transform="matrix(1 0 0 1 639.5481 194.445)" class="st6 st7 st8">n</text>
	<text transform="matrix(1 0 0 1 647.3342 194.445)" class="st6 st7 st8">s</text>
	<text transform="matrix(1 0 0 1 654.3342 194.445)" class="st6 st7 st8">f</text>
	<text transform="matrix(1 0 0 1 658.2239 194.445)" class="st6 st7 st8">o</text>
	<text transform="matrix(1 0 0 1 666.01 194.445)" class="st6 st7 st8">r</text>
	<text transform="matrix(1 0 0 1 670.6721 194.445)" class="st6 st7 st8">m</text>
	<text transform="matrix(1 0 0 1 682.3342 194.445)" class="st6 st7 st8">e</text>
	<text transform="matrix(1 0 0 1 690.1204 194.445)" class="st6 st7 st8">r</text>
</g>
<rect x="600.8" y="331.4" class="st4" width="10" height="2.3"/>
<rect x="590.8" y="318.9" class="st5" width="30" height="27.3"/>
<g transform="translate(0 2.1594202898550634)">
	<path id="_x39_dba5c_x5F_0_x5F_node_x5F_48_00000088846845545798862430000000311358009657375382_" class="st6" d="M645,333.6"/>
	<text transform="matrix(1 0 0 1 618.5481 333.575)" class="st6 st7 st8">L</text>
	<text transform="matrix(1 0 0 1 626.3342 333.575)" class="st6 st7 st8">T</text>
	<text transform="matrix(1 0 0 1 634.886 333.575)" class="st6 st7 st8">N</text>
</g>
<rect x="600.8" y="244.3" class="st4" width="10" height="2.3"/>
<rect x="590.8" y="231.8" class="st5" width="30" height="27.3"/>
<g transform="translate(0 2.1594202898550634)">
	<text transform="matrix(1 0 0 1 618.5481 246.387)" class="st6 st7 st8">R</text>
	<text transform="matrix(1 0 0 1 628.6584 246.387)" class="st6 st7 st8">K</text>
	<text transform="matrix(1 0 0 1 637.9963 246.387)" class="st6 st7 st8">N</text>
	<text transform="matrix(1 0 0 1 648.1067 246.387)" class="st6 st7 st8">N</text>
</g>
<rect x="600.8" y="13.8" class="st4" width="10" height="4.6"/>
<rect x="590.8" y="1.3" class="st5" width="30" height="29.6"/>
<g transform="translate(0 3.3188405797101552)">
	<text transform="matrix(1 0 0 1 618.5481 15.894)" class="st6 st7 st8">R</text>
	<text transform="matrix(1 0 0 1 628.6584 15.894)" class="st6 st7 st8">L</text>
</g>
</svg>
