<?xml version="1.0" encoding="utf-8"?>
<!-- Generator: Adobe Illustrator 26.0.3, SVG Export Plug-In . SVG Version: 6.00 Build 0)  -->
<svg version="1.1" xmlns="http://www.w3.org/2000/svg" xmlns:xlink="http://www.w3.org/1999/xlink" x="0px" y="0px"
	 viewBox="0 0 721 500" style="enable-background:new 0 0 721 500;" xml:space="preserve">
<style type="text/css">
	.st0{fill:#89B79F;}
	.st1{opacity:0.5;fill:#89B79F;}
	.st2{fill:#57BCD6;}
	.st3{opacity:0.5;fill:#57BCD6;}
	.st4{fill:#9C4397;}
	.st5{fill:#450256;}
	.st6{fill:#FF2F6D;}
	.st7{fill:none;stroke:#333333;stroke-miterlimit:10;}
	.st8{enable-background:new    ;}
	.st9{fill:#333333;}
	.st10{fill:#333333;stroke:#444444;stroke-width:0.5;}
	.st11{opacity:0.25;fill:#333333;stroke:#444444;stroke-width:0.5;}
</style>
<g id="Layer_1">
	<path class="st0" d="M142,165.7c102.5,0,102.5,25,205,25v5.6c-102.5,0-102.5-25-205-25V165.7z"/>
	<path class="st1" d="M357,256.2c102.5,0,102.5-6.9,205-6.9v5.6c-102.5,0-102.5,6.9-205,6.9V256.2z"/>
	<path class="st0" d="M142,171.3c102.5,0,102.5,25,205,25v5.6c-102.5,0-102.5-25-205-25V171.3z"/>
	<path class="st1" d="M357,261.8c102.5,0,102.5-6.9,205-6.9v5.6c-102.5,0-102.5,6.9-205,6.9V261.8z"/>
	<path class="st2" d="M142,330c102.5,0,102.5-33.4,205-33.4v5.6c-102.5,0-102.5,33.4-205,33.4V330z"/>
	<path class="st3" d="M357,267.3c102.5,0,102.5-6.9,205-6.9v5.6c-102.5,0-102.5,6.9-205,6.9V267.3z"/>
	<path class="st0" d="M142,293.9c102.5,0,102.5,114,205,114v5.6c-102.5,0-102.5-114-205-114V293.9z"/>
	<path class="st0" d="M357,407.9c102.5,0,102.5-194.2,205-194.2v1.9c-102.5,0-102.5,194.2-205,194.2V407.9z"/>
	<path class="st0" d="M357,415.8c102.5,0,102.5-51,205-51v1.9c-102.5,0-102.5,51-205,51V415.8z"/>
	<path class="st0" d="M357,422.3c102.5,0,102.5,30.6,205,30.6v1.9c-102.5,0-102.5-30.6-205-30.6V422.3z"/>
	<path class="st0" d="M142,176.9c102.5,0,102.5,25,205,25v5.6c-102.5,0-102.5-25-205-25V176.9z"/>
	<path class="st0" d="M357,190.7c102.5,0,102.5-50,205-50v5.6c-102.5,0-102.5,50-205,50V190.7z"/>
	<path class="st0" d="M142,182.4c102.5,0,102.5,25,205,25v5.6c-102.5,0-102.5-25-205-25V182.4z"/>
	<path class="st1" d="M357,272.9c102.5,0,102.5-6.9,205-6.9v5.6c-102.5,0-102.5,6.9-205,6.9V272.9z"/>
	<path class="st0" d="M142,188c102.5,0,102.5,25,205,25v5.6c-102.5,0-102.5-25-205-25V188z"/>
	<path class="st1" d="M357,278.5c102.5,0,102.5-6.9,205-6.9v5.6c-102.5,0-102.5,6.9-205,6.9V278.5z"/>
	<path class="st0" d="M142,193.6c102.5,0,102.5,25,205,25v5.6c-102.5,0-102.5-25-205-25V193.6z"/>
	<path class="st0" d="M357,299.4c102.5,0,102.5,52.4,205,52.4v1.4c-102.5,0-102.5-52.4-205-52.4V299.4z"/>
	<path class="st0" d="M357,321.7c102.5,0,102.5,121,205,121v1.4c-102.5,0-102.5-121-205-121V321.7z"/>
	<path class="st0" d="M357,304.9c102.5,0,102.5,88.1,205,88.1v1.4c-102.5,0-102.5-88.1-205-88.1V304.9z"/>
	<path class="st0" d="M357,295.2c102.5,0,102.5,23.7,205,23.7v1.4c-102.5,0-102.5-23.7-205-23.7V295.2z"/>
	<path class="st0" d="M142,299.4c102.5,0,102.5,114,205,114v5.6c-102.5,0-102.5-114-205-114V299.4z"/>
	<path class="st0" d="M357,409.7c102.5,0,102.5-194.2,205-194.2v2.8c-102.5,0-102.5,194.2-205,194.2V409.7z"/>
	<path class="st0" d="M357,424.1c102.5,0,102.5,30.6,205,30.6v2.8c-102.5,0-102.5-30.6-205-30.6V424.1z"/>
	<path class="st2" d="M142,335.6c102.5,0,102.5-33.4,205-33.4v5.6c-102.5,0-102.5,33.4-205,33.4V335.6z"/>
	<path class="st2" d="M357,196.3c102.5,0,102.5-50,205-50v2.8c-102.5,0-102.5,50-205,50V196.3z"/>
	<path class="st2" d="M357,306.3c102.5,0,102.5,88.1,205,88.1v2.8c-102.5,0-102.5-88.1-205-88.1V306.3z"/>
	<path class="st0" d="M142,199.2c102.5,0,102.5,25,205,25v5.6c-102.5,0-102.5-25-205-25V199.2z"/>
	<path class="st0" d="M357,199.1c102.5,0,102.5-50,205-50v2.8c-102.5,0-102.5,50-205,50V199.1z"/>
	<path class="st0" d="M357,323c102.5,0,102.5,121,205,121v2.8c-102.5,0-102.5-121-205-121V323z"/>
	<path class="st0" d="M142,271.6c102.5,0,102.5,83.4,205,83.4v5.6c-102.5,0-102.5-83.4-205-83.4V271.6z"/>
	<path class="st0" d="M357,355c102.5,0,102.5-148.8,205-148.8v2.8c-102.5,0-102.5,148.8-205,148.8V355z"/>
	<path class="st0" d="M357,371.7c102.5,0,102.5-14.4,205-14.4v2.8c-102.5,0-102.5,14.4-205,14.4V371.7z"/>
	<path class="st2" d="M142,341.2c102.5,0,102.5-33.4,205-33.4v5.6c-102.5,0-102.5,33.4-205,33.4V341.2z"/>
	<path class="st2" d="M357,201.9c102.5,0,102.5-50,205-50v5.6c-102.5,0-102.5,50-205,50V201.9z"/>
	<path class="st0" d="M142,204.7c102.5,0,102.5,25,205,25v5.6c-102.5,0-102.5-25-205-25V204.7z"/>
	<path class="st0" d="M357,207.4c102.5,0,102.5-50,205-50v5.6c-102.5,0-102.5,50-205,50V207.4z"/>
	<path class="st0" d="M142,210.3c102.5,0,102.5,25,205,25v5.6c-102.5,0-102.5-25-205-25V210.3z"/>
	<path class="st0" d="M357,213c102.5,0,102.5-50,205-50v2.8c-102.5,0-102.5,50-205,50V213z"/>
	<path class="st0" d="M357,296.6c102.5,0,102.5,23.7,205,23.7v2.8c-102.5,0-102.5-23.7-205-23.7V296.6z"/>
	<path class="st0" d="M142,215.9c102.5,0,102.5,25,205,25v5.6c-102.5,0-102.5-25-205-25V215.9z"/>
	<path class="st0" d="M357,215.8c102.5,0,102.5-50,205-50v5.6c-102.5,0-102.5,50-205,50V215.8z"/>
	<path class="st0" d="M142,221.4c102.5,0,102.5,25,205,25v5.6c-102.5,0-102.5-25-205-25V221.4z"/>
	<path class="st0" d="M357,300.8c102.5,0,102.5,52.4,205,52.4v2.8c-102.5,0-102.5-52.4-205-52.4V300.8z"/>
	<path class="st0" d="M357,309.1c102.5,0,102.5,88.1,205,88.1v2.8c-102.5,0-102.5-88.1-205-88.1V309.1z"/>
	<path class="st0" d="M142,227c102.5,0,102.5,25,205,25v5.6c-102.5,0-102.5-25-205-25V227z"/>
	<path class="st1" d="M357,284c102.5,0,102.5-6.9,205-6.9v5.6c-102.5,0-102.5,6.9-205,6.9V284z"/>
	<path class="st0" d="M142,232.6c102.5,0,102.5,25,205,25v5.6c-102.5,0-102.5-25-205-25V232.6z"/>
	<path class="st0" d="M357,221.4c102.5,0,102.5-50,205-50v5.6c-102.5,0-102.5,50-205,50V221.4z"/>
	<path class="st0" d="M142,238.2c102.5,0,102.5,25,205,25v5.6c-102.5,0-102.5-25-205-25V238.2z"/>
	<path class="st0" d="M357,229.7c102.5,0,102.5-50,205-50v5.6c-102.5,0-102.5,50-205,50V229.7z"/>
	<path class="st0" d="M142,243.7c102.5,0,102.5,25,205,25v5.6c-102.5,0-102.5-25-205-25V243.7z"/>
	<path class="st0" d="M357,235.3c102.5,0,102.5-50,205-50v5.6c-102.5,0-102.5,50-205,50V235.3z"/>
	<path class="st0" d="M142,249.3c102.5,0,102.5,25,205,25v5.6c-102.5,0-102.5-25-205-25V249.3z"/>
	<path class="st0" d="M357,240.9c102.5,0,102.5-50,205-50v2.8c-102.5,0-102.5,50-205,50V240.9z"/>
	<path class="st0" d="M357,311.9c102.5,0,102.5,88.1,205,88.1v2.8c-102.5,0-102.5-88.1-205-88.1V311.9z"/>
	<path class="st2" d="M142,346.7c102.5,0,102.5-33.4,205-33.4v5.6c-102.5,0-102.5,33.4-205,33.4V346.7z"/>
	<path class="st2" d="M357,314.7c102.5,0,102.5,88.1,205,88.1v5.6c-102.5,0-102.5-88.1-205-88.1V314.7z"/>
	<path class="st0" d="M142,254.9c102.5,0,102.5,25,205,25v5.6c-102.5,0-102.5-25-205-25V254.9z"/>
	<path class="st0" d="M357,243.7c102.5,0,102.5-50,205-50v5.6c-102.5,0-102.5,50-205,50V243.7z"/>
	<path class="st4" d="M142,424.6c102.5,0,102.5-97.4,205-97.4v2.8c-102.5,0-102.5,97.4-205,97.4V424.6z"/>
	<path class="st4" d="M142,427.4c102.5,0,102.5-5.6,205-5.6v2.8c-102.5,0-102.5,5.6-205,5.6V427.4z"/>
	<path class="st0" d="M142,260.4c102.5,0,102.5,25,205,25v5.6c-102.5,0-102.5-25-205-25V260.4z"/>
	<path class="st0" d="M357,250.6c102.5,0,102.5-50,205-50v5.6c-102.5,0-102.5,50-205,50V250.6z"/>
	<path class="st0" d="M142,277.2c102.5,0,102.5,83.4,205,83.4v5.6c-102.5,0-102.5-83.4-205-83.4V277.2z"/>
	<path class="st1" d="M357,362.4c102.5,0,102.5-74.1,205-74.1v5.6c-102.5,0-102.5,74.1-205,74.1V362.4z"/>
	<path class="st0" d="M142,266c102.5,0,102.5,25,205,25v5.6c-102.5,0-102.5-25-205-25V266z"/>
	<path class="st1" d="M357,289.6c102.5,0,102.5-6.9,205-6.9v5.6c-102.5,0-102.5,6.9-205,6.9V289.6z"/>
	<path class="st0" d="M142,282.7c102.5,0,102.5,83.4,205,83.4v5.6c-102.5,0-102.5-83.4-205-83.4V282.7z"/>
	<path class="st0" d="M357,357.8c102.5,0,102.5-148.8,205-148.8v1.9c-102.5,0-102.5,148.8-205,148.8V357.8z"/>
	<path class="st0" d="M357,381c102.5,0,102.5,70,205,70v1.9c-102.5,0-102.5-70-205-70V381z"/>
	<path class="st0" d="M357,369.9c102.5,0,102.5-45,205-45v1.9c-102.5,0-102.5,45-205,45V369.9z"/>
	<path class="st0" d="M142,288.3c102.5,0,102.5,83.4,205,83.4v5.6c-102.5,0-102.5-83.4-205-83.4V288.3z"/>
	<path class="st0" d="M357,359.7c102.5,0,102.5-148.8,205-148.8v2.8c-102.5,0-102.5,148.8-205,148.8V359.7z"/>
	<path class="st0" d="M357,376.4c102.5,0,102.5-14.4,205-14.4v2.8c-102.5,0-102.5,14.4-205,14.4V376.4z"/>
	<path class="st5" d="M142,394c102.5,0,102.5,61.1,205,61.1v5.6c-102.5,0-102.5-61.1-205-61.1V394z"/>
	<path class="st5" d="M357,455.2c102.5,0,102.5-233.6,205-233.6v2.8c-102.5,0-102.5,233.6-205,233.6V455.2z"/>
	<path class="st5" d="M357,457.9c102.5,0,102.5-43.1,205-43.1v2.8c-102.5,0-102.5,43.1-205,43.1V457.9z"/>
	<path class="st5" d="M142,377.3c102.5,0,102.5-58.4,205-58.4v5.6c-102.5,0-102.5,58.4-205,58.4V377.3z"/>
	<path class="st5" d="M357,226.9c102.5,0,102.5-50,205-50v2.8c-102.5,0-102.5,50-205,50V226.9z"/>
	<path class="st5" d="M357,325.8c102.5,0,102.5,121,205,121v2.8c-102.5,0-102.5-121-205-121V325.8z"/>
	<path class="st5" d="M142,382.9c102.5,0,102.5-58.4,205-58.4v2.8c-102.5,0-102.5,58.4-205,58.4V382.9z"/>
	<path class="st5" d="M142,391.2c102.5,0,102.5,27.8,205,27.8v2.8c-102.5,0-102.5-27.8-205-27.8V391.2z"/>
	<path class="st5" d="M357,249.2c102.5,0,102.5-50,205-50v1.4c-102.5,0-102.5,50-205,50V249.2z"/>
	<path class="st5" d="M357,303.5c102.5,0,102.5,52.4,205,52.4v1.4c-102.5,0-102.5-52.4-205-52.4V303.5z"/>
	<path class="st5" d="M357,328.6c102.5,0,102.5,121,205,121v1.4c-102.5,0-102.5-121-205-121V328.6z"/>
	<path class="st5" d="M357,320.3c102.5,0,102.5,88.1,205,88.1v1.4c-102.5,0-102.5-88.1-205-88.1V320.3z"/>
	<path class="st5" d="M357,414.4c102.5,0,102.5-194.2,205-194.2v1.4c-102.5,0-102.5,194.2-205,194.2V414.4z"/>
	<path class="st5" d="M357,417.6c102.5,0,102.5-51,205-51v1.4c-102.5,0-102.5,51-205,51V417.6z"/>
	<path class="st5" d="M357,428.8c102.5,0,102.5,30.6,205,30.6v1.4c-102.5,0-102.5-30.6-205-30.6V428.8z"/>
	<path class="st5" d="M357,420.9c102.5,0,102.5-7.4,205-7.4v1.4c-102.5,0-102.5,7.4-205,7.4V420.9z"/>
	<path class="st5" d="M142,385.7c102.5,0,102.5-8.4,205-8.4v5.6c-102.5,0-102.5,8.4-205,8.4V385.7z"/>
	<path class="st5" d="M357,374.5c102.5,0,102.5-14.4,205-14.4v1.9c-102.5,0-102.5,14.4-205,14.4V374.5z"/>
	<path class="st5" d="M357,379.2c102.5,0,102.5,30.6,205,30.6v1.9c-102.5,0-102.5-30.6-205-30.6V379.2z"/>
	<path class="st5" d="M357,368c102.5,0,102.5-45,205-45v1.9c-102.5,0-102.5,45-205,45V368z"/>
</g>
<g id="Layer_4">
	<path class="st6" d="M142,455.2c102.5,0,102.5-30.6,205-30.6v5.6c-102.5,0-102.5,30.6-205,30.6V455.2z"/>
	<path class="st6" d="M357,412.5c102.5,0,102.5-194.2,205-194.2v1.9c-102.5,0-102.5,194.2-205,194.2V412.5z"/>
	<path class="st6" d="M357,426.9c102.5,0,102.5,30.6,205,30.6v1.9c-102.5,0-102.5-30.6-205-30.6V426.9z"/>
	<path class="st6" d="M357,419c102.5,0,102.5-7.4,205-7.4v1.9c-102.5,0-102.5,7.4-205,7.4V419z"/>
</g>
<g id="Layer_3">
	<line class="st7" x1="137" y1="152.3" x2="137" y2="107.6"/>
	<line class="st7" x1="352" y1="161.7" x2="352" y2="119.3"/>
	<line class="st7" x1="567.8" y1="131" x2="567.8" y2="107.6"/>
</g>
<g id="Layer_2">
	<g class="st8">
		<path class="st9" d="M586,187.1v-9.3h4.1c0.8,0,1.5,0.1,1.9,0.3s0.8,0.5,1,0.9c0.3,0.4,0.4,0.9,0.4,1.4c0,0.7-0.2,1.2-0.6,1.7
			c-0.4,0.5-1.1,0.7-2,0.9c0.3,0.2,0.6,0.3,0.7,0.5c0.4,0.3,0.7,0.7,1,1.2l1.6,2.5h-1.5l-1.2-1.9c-0.4-0.6-0.7-1-0.9-1.3
			c-0.2-0.3-0.4-0.5-0.6-0.6c-0.2-0.1-0.4-0.2-0.6-0.2c-0.1,0-0.4,0-0.7,0h-1.4v4.1H586z M587.2,181.9h2.6c0.6,0,1-0.1,1.3-0.2
			s0.6-0.3,0.7-0.6s0.2-0.5,0.2-0.8c0-0.4-0.2-0.8-0.5-1.1c-0.3-0.3-0.8-0.4-1.5-0.4h-2.9V181.9z"/>
		<path class="st9" d="M599.8,184.9l1.2,0.1c-0.2,0.7-0.5,1.2-1,1.6s-1.1,0.6-1.9,0.6c-1,0-1.8-0.3-2.3-0.9s-0.9-1.5-0.9-2.6
			c0-1.1,0.3-2,0.9-2.6s1.3-0.9,2.3-0.9c0.9,0,1.6,0.3,2.2,0.9c0.6,0.6,0.9,1.5,0.9,2.6c0,0.1,0,0.2,0,0.3h-5c0,0.7,0.3,1.3,0.6,1.7
			c0.4,0.4,0.8,0.6,1.4,0.6c0.4,0,0.8-0.1,1.1-0.3S599.7,185.4,599.8,184.9z M596.1,183h3.8c-0.1-0.6-0.2-1-0.4-1.3
			c-0.4-0.4-0.8-0.7-1.4-0.7c-0.5,0-1,0.2-1.3,0.5C596.3,182,596.1,182.5,596.1,183z"/>
		<path class="st9" d="M606.9,186.2c-0.4,0.4-0.8,0.6-1.2,0.8c-0.4,0.1-0.8,0.2-1.3,0.2c-0.7,0-1.3-0.2-1.7-0.5
			c-0.4-0.4-0.6-0.8-0.6-1.4c0-0.3,0.1-0.6,0.2-0.9c0.1-0.3,0.3-0.5,0.6-0.7s0.5-0.3,0.8-0.4c0.2-0.1,0.6-0.1,1-0.2
			c0.9-0.1,1.6-0.2,2-0.4c0-0.2,0-0.3,0-0.3c0-0.5-0.1-0.8-0.3-1c-0.3-0.3-0.7-0.4-1.3-0.4c-0.5,0-0.9,0.1-1.2,0.3
			c-0.3,0.2-0.4,0.5-0.6,1l-1.1-0.2c0.1-0.5,0.3-0.9,0.5-1.2s0.6-0.5,1-0.7c0.4-0.2,1-0.2,1.5-0.2c0.6,0,1,0.1,1.4,0.2
			c0.4,0.1,0.6,0.3,0.8,0.5s0.3,0.5,0.4,0.8c0,0.2,0.1,0.5,0.1,1.1v1.5c0,1.1,0,1.7,0.1,2c0,0.3,0.1,0.6,0.3,0.8h-1.2
			C607,186.8,606.9,186.5,606.9,186.2z M606.8,183.7c-0.4,0.2-1,0.3-1.9,0.4c-0.5,0.1-0.8,0.1-1,0.2c-0.2,0.1-0.3,0.2-0.5,0.4
			c-0.1,0.2-0.2,0.3-0.2,0.5c0,0.3,0.1,0.6,0.3,0.8s0.6,0.3,1,0.3c0.4,0,0.8-0.1,1.2-0.3c0.3-0.2,0.6-0.5,0.8-0.8
			c0.1-0.3,0.2-0.6,0.2-1.1V183.7z"/>
		<path class="st9" d="M609.2,185l1.1-0.2c0.1,0.5,0.2,0.8,0.5,1c0.3,0.2,0.7,0.4,1.2,0.4c0.5,0,0.9-0.1,1.2-0.3s0.4-0.5,0.4-0.8
			c0-0.3-0.1-0.5-0.3-0.6c-0.2-0.1-0.5-0.2-1.2-0.4c-0.8-0.2-1.4-0.4-1.7-0.5s-0.6-0.4-0.7-0.6c-0.2-0.3-0.3-0.6-0.3-0.9
			c0-0.3,0.1-0.6,0.2-0.8c0.1-0.3,0.3-0.5,0.6-0.6c0.2-0.1,0.4-0.2,0.7-0.3s0.6-0.1,1-0.1c0.5,0,1,0.1,1.4,0.2
			c0.4,0.2,0.7,0.4,0.9,0.6c0.2,0.3,0.3,0.6,0.4,1l-1.1,0.2c-0.1-0.3-0.2-0.6-0.4-0.8c-0.2-0.2-0.6-0.3-1-0.3
			c-0.5,0-0.9,0.1-1.1,0.3c-0.2,0.2-0.3,0.4-0.3,0.6c0,0.1,0,0.3,0.1,0.4c0.1,0.1,0.2,0.2,0.4,0.3c0.1,0,0.5,0.1,1,0.3
			c0.8,0.2,1.4,0.4,1.7,0.5c0.3,0.1,0.6,0.3,0.8,0.6c0.2,0.3,0.3,0.6,0.3,1c0,0.4-0.1,0.7-0.3,1.1c-0.2,0.3-0.5,0.6-1,0.8
			c-0.4,0.2-0.9,0.3-1.4,0.3c-0.9,0-1.5-0.2-2-0.5S609.4,185.8,609.2,185z"/>
		<path class="st9" d="M615.8,183.7c0-1.2,0.3-2.2,1-2.8c0.6-0.5,1.3-0.7,2.1-0.7c0.9,0,1.7,0.3,2.3,0.9c0.6,0.6,0.9,1.4,0.9,2.5
			c0,0.9-0.1,1.5-0.4,2s-0.6,0.9-1.1,1.2c-0.5,0.3-1,0.4-1.6,0.4c-0.9,0-1.7-0.3-2.3-0.9C616.1,185.7,615.8,184.8,615.8,183.7z
			 M616.9,183.7c0,0.9,0.2,1.5,0.6,1.9c0.4,0.4,0.8,0.6,1.4,0.6c0.6,0,1-0.2,1.4-0.6s0.6-1.1,0.6-2c0-0.8-0.2-1.5-0.6-1.9
			s-0.8-0.6-1.4-0.6c-0.6,0-1,0.2-1.4,0.6C617.1,182.2,616.9,182.8,616.9,183.7z"/>
		<path class="st9" d="M623.4,187.1v-6.7h1v1c0.5-0.7,1.2-1.1,2.1-1.1c0.4,0,0.8,0.1,1.1,0.2c0.3,0.1,0.6,0.3,0.8,0.6
			c0.2,0.2,0.3,0.5,0.4,0.8c0,0.2,0.1,0.6,0.1,1.1v4.1h-1.1V183c0-0.5,0-0.8-0.1-1c-0.1-0.2-0.2-0.4-0.5-0.6s-0.5-0.2-0.8-0.2
			c-0.5,0-0.9,0.2-1.3,0.5c-0.4,0.3-0.5,0.9-0.5,1.8v3.7H623.4z"/>
		<path class="st9" d="M630.7,179.1v-1.3h1.1v1.3H630.7z M630.7,187.1v-6.7h1.1v6.7H630.7z"/>
		<path class="st9" d="M633.5,187.1v-6.7h1v1c0.5-0.7,1.2-1.1,2.1-1.1c0.4,0,0.8,0.1,1.1,0.2c0.3,0.1,0.6,0.3,0.8,0.6
			c0.2,0.2,0.3,0.5,0.4,0.8c0,0.2,0.1,0.6,0.1,1.1v4.1h-1.1V183c0-0.5,0-0.8-0.1-1c-0.1-0.2-0.2-0.4-0.5-0.6
			c-0.2-0.1-0.5-0.2-0.8-0.2c-0.5,0-0.9,0.2-1.3,0.5c-0.4,0.3-0.5,0.9-0.5,1.8v3.7H633.5z"/>
		<path class="st9" d="M640.6,187.6l1.1,0.2c0,0.3,0.2,0.6,0.4,0.7c0.3,0.2,0.7,0.3,1.2,0.3c0.5,0,0.9-0.1,1.2-0.3
			c0.3-0.2,0.5-0.5,0.6-0.9c0.1-0.2,0.1-0.7,0.1-1.5c-0.5,0.6-1.1,0.9-1.9,0.9c-0.9,0-1.6-0.3-2.2-1s-0.8-1.5-0.8-2.4
			c0-0.6,0.1-1.2,0.3-1.8s0.6-1,1-1.3c0.4-0.3,1-0.4,1.6-0.4c0.8,0,1.5,0.3,2,1v-0.8h1.1v5.8c0,1-0.1,1.8-0.3,2.2
			c-0.2,0.4-0.6,0.8-1,1c-0.5,0.3-1,0.4-1.7,0.4c-0.8,0-1.5-0.2-1.9-0.5C640.8,188.9,640.5,188.3,640.6,187.6z M641.5,183.6
			c0,0.9,0.2,1.5,0.5,1.9c0.4,0.4,0.8,0.6,1.3,0.6c0.5,0,1-0.2,1.3-0.6s0.5-1,0.5-1.9c0-0.8-0.2-1.4-0.5-1.9
			c-0.4-0.4-0.8-0.6-1.3-0.6c-0.5,0-0.9,0.2-1.3,0.6C641.7,182.1,641.5,182.8,641.5,183.6z"/>
	</g>
	<g class="st8">
		<path class="st9" d="M585.6,359.9c0-1.5,0.4-2.8,1.2-3.6c0.8-0.9,1.9-1.3,3.2-1.3c0.9,0,1.6,0.2,2.3,0.6c0.7,0.4,1.2,1,1.6,1.7
			c0.4,0.7,0.5,1.6,0.5,2.5c0,0.9-0.2,1.8-0.6,2.5s-0.9,1.3-1.6,1.7s-1.5,0.6-2.3,0.6c-0.9,0-1.7-0.2-2.3-0.6
			c-0.7-0.4-1.2-1-1.6-1.7S585.6,360.7,585.6,359.9z M586.9,359.9c0,1.1,0.3,2,0.9,2.7c0.6,0.6,1.4,1,2.3,1c0.9,0,1.7-0.3,2.3-1
			c0.6-0.7,0.9-1.6,0.9-2.8c0-0.8-0.1-1.4-0.4-2c-0.3-0.6-0.6-1-1.1-1.3c-0.5-0.3-1-0.5-1.7-0.5c-0.9,0-1.6,0.3-2.2,0.9
			C587.2,357.5,586.9,358.5,586.9,359.9z"/>
		<path class="st9" d="M595.7,359.9c0-1.5,0.4-2.8,1.2-3.6s1.9-1.3,3.2-1.3c0.9,0,1.6,0.2,2.3,0.6c0.7,0.4,1.2,1,1.6,1.7
			c0.4,0.7,0.5,1.6,0.5,2.5c0,0.9-0.2,1.8-0.6,2.5s-0.9,1.3-1.6,1.7c-0.7,0.4-1.5,0.6-2.3,0.6c-0.9,0-1.7-0.2-2.3-0.6
			c-0.7-0.4-1.2-1-1.6-1.7S595.7,360.7,595.7,359.9z M597,359.9c0,1.1,0.3,2,0.9,2.7s1.4,1,2.3,1c0.9,0,1.7-0.3,2.3-1
			c0.6-0.7,0.9-1.6,0.9-2.8c0-0.8-0.1-1.4-0.4-2c-0.3-0.6-0.6-1-1.1-1.3c-0.5-0.3-1-0.5-1.7-0.5c-0.9,0-1.6,0.3-2.2,0.9
			C597.3,357.5,597,358.5,597,359.9z"/>
		<path class="st9" d="M606.2,364.4v-9.3h3.2c0.7,0,1.3,0,1.7,0.1c0.5,0.1,1,0.3,1.4,0.7c0.5,0.4,0.9,0.9,1.1,1.6
			c0.2,0.6,0.4,1.4,0.4,2.2c0,0.7-0.1,1.3-0.2,1.9c-0.2,0.5-0.4,1-0.6,1.4c-0.3,0.4-0.5,0.6-0.8,0.8c-0.3,0.2-0.7,0.4-1.1,0.5
			c-0.4,0.1-0.9,0.2-1.5,0.2H606.2z M607.4,363.3h2c0.6,0,1.1-0.1,1.4-0.2c0.3-0.1,0.6-0.3,0.8-0.5c0.3-0.3,0.5-0.7,0.7-1.2
			c0.2-0.5,0.2-1.1,0.2-1.8c0-1-0.2-1.7-0.5-2.2s-0.7-0.9-1.2-1.1c-0.3-0.1-0.9-0.2-1.6-0.2h-2V363.3z"/>
		<path class="st9" d="M623.6,360.8v-1.1l3.9,0v3.5c-0.6,0.5-1.2,0.8-1.9,1.1s-1.3,0.4-2,0.4c-0.9,0-1.7-0.2-2.5-0.6s-1.3-1-1.7-1.7
			c-0.4-0.7-0.6-1.6-0.6-2.5c0-0.9,0.2-1.8,0.6-2.5c0.4-0.8,0.9-1.4,1.6-1.7s1.5-0.6,2.5-0.6c0.7,0,1.3,0.1,1.8,0.3s1,0.5,1.3,0.9
			s0.5,0.9,0.7,1.5l-1.1,0.3c-0.1-0.5-0.3-0.8-0.5-1.1s-0.5-0.5-0.9-0.7s-0.8-0.2-1.3-0.2c-0.6,0-1,0.1-1.5,0.3
			c-0.4,0.2-0.7,0.4-1,0.7c-0.3,0.3-0.4,0.6-0.6,0.9c-0.2,0.6-0.4,1.2-0.4,1.9c0,0.8,0.1,1.5,0.4,2.1c0.3,0.6,0.7,1,1.2,1.2
			c0.5,0.3,1.1,0.4,1.7,0.4c0.5,0,1.1-0.1,1.6-0.3s0.9-0.4,1.2-0.7v-1.7H623.6z"/>
		<path class="st9" d="M633.8,362.3l1.2,0.1c-0.2,0.7-0.5,1.2-1,1.6s-1.1,0.6-1.9,0.6c-1,0-1.8-0.3-2.3-0.9s-0.9-1.5-0.9-2.6
			c0-1.1,0.3-2,0.9-2.6s1.3-0.9,2.3-0.9c0.9,0,1.6,0.3,2.2,0.9c0.6,0.6,0.9,1.5,0.9,2.6c0,0.1,0,0.2,0,0.3h-5c0,0.7,0.3,1.3,0.6,1.7
			c0.4,0.4,0.8,0.6,1.4,0.6c0.4,0,0.8-0.1,1.1-0.3S633.6,362.7,633.8,362.3z M630,360.4h3.8c-0.1-0.6-0.2-1-0.4-1.3
			c-0.4-0.4-0.8-0.7-1.4-0.7c-0.5,0-1,0.2-1.3,0.5C630.3,359.4,630.1,359.8,630,360.4z"/>
		<path class="st9" d="M636.4,364.4v-6.7h1v1c0.5-0.7,1.2-1.1,2.1-1.1c0.4,0,0.8,0.1,1.1,0.2c0.3,0.1,0.6,0.3,0.8,0.6
			c0.2,0.2,0.3,0.5,0.4,0.8c0,0.2,0.1,0.6,0.1,1.1v4.1h-1.1v-4.1c0-0.5,0-0.8-0.1-1c-0.1-0.2-0.2-0.4-0.5-0.6
			c-0.2-0.1-0.5-0.2-0.8-0.2c-0.5,0-0.9,0.2-1.3,0.5c-0.4,0.3-0.5,0.9-0.5,1.8v3.7H636.4z"/>
		<path class="st9" d="M648.3,362.3l1.2,0.1c-0.2,0.7-0.5,1.2-1,1.6s-1.1,0.6-1.9,0.6c-1,0-1.8-0.3-2.3-0.9
			c-0.6-0.6-0.9-1.5-0.9-2.6c0-1.1,0.3-2,0.9-2.6s1.3-0.9,2.3-0.9c0.9,0,1.6,0.3,2.2,0.9c0.6,0.6,0.9,1.5,0.9,2.6c0,0.1,0,0.2,0,0.3
			h-5c0,0.7,0.3,1.3,0.6,1.7c0.4,0.4,0.8,0.6,1.4,0.6c0.4,0,0.8-0.1,1.1-0.3S648.1,362.7,648.3,362.3z M644.5,360.4h3.8
			c-0.1-0.6-0.2-1-0.4-1.3c-0.4-0.4-0.8-0.7-1.4-0.7c-0.5,0-1,0.2-1.3,0.5C644.7,359.4,644.5,359.8,644.5,360.4z"/>
		<path class="st9" d="M650.9,364.4v-6.7h1v1c0.3-0.5,0.5-0.8,0.7-0.9c0.2-0.2,0.5-0.2,0.7-0.2c0.4,0,0.8,0.1,1.2,0.4l-0.4,1.1
			c-0.3-0.2-0.6-0.2-0.8-0.2c-0.2,0-0.5,0.1-0.7,0.2s-0.3,0.4-0.4,0.6c-0.1,0.4-0.2,0.9-0.2,1.3v3.5H650.9z"/>
		<path class="st9" d="M659.6,363.6c-0.4,0.4-0.8,0.6-1.2,0.8c-0.4,0.1-0.8,0.2-1.3,0.2c-0.7,0-1.3-0.2-1.7-0.5
			c-0.4-0.4-0.6-0.8-0.6-1.4c0-0.3,0.1-0.6,0.2-0.9c0.1-0.3,0.3-0.5,0.6-0.7s0.5-0.3,0.8-0.4c0.2-0.1,0.6-0.1,1-0.2
			c0.9-0.1,1.6-0.2,2-0.4c0-0.2,0-0.3,0-0.3c0-0.5-0.1-0.8-0.3-1c-0.3-0.3-0.7-0.4-1.3-0.4c-0.5,0-0.9,0.1-1.2,0.3
			c-0.3,0.2-0.4,0.5-0.6,1l-1.1-0.2c0.1-0.5,0.3-0.9,0.5-1.2s0.6-0.5,1-0.7c0.4-0.2,1-0.2,1.5-0.2c0.6,0,1,0.1,1.4,0.2
			c0.4,0.1,0.6,0.3,0.8,0.5s0.3,0.5,0.4,0.8c0,0.2,0.1,0.5,0.1,1.1v1.5c0,1.1,0,1.7,0.1,2c0,0.3,0.1,0.6,0.3,0.8h-1.2
			C659.7,364.2,659.6,363.9,659.6,363.6z M659.5,361.1c-0.4,0.2-1,0.3-1.9,0.4c-0.5,0.1-0.8,0.1-1,0.2c-0.2,0.1-0.3,0.2-0.5,0.4
			c-0.1,0.2-0.2,0.3-0.2,0.5c0,0.3,0.1,0.6,0.3,0.8s0.6,0.3,1,0.3c0.4,0,0.8-0.1,1.2-0.3c0.3-0.2,0.6-0.5,0.8-0.8
			c0.1-0.3,0.2-0.6,0.2-1.1V361.1z"/>
		<path class="st9" d="M662.4,364.4v-9.3h1.1v9.3H662.4z"/>
		<path class="st9" d="M665.3,356.4v-1.3h1.1v1.3H665.3z M665.3,364.4v-6.7h1.1v6.7H665.3z"/>
		<path class="st9" d="M667.6,364.4v-0.9l4.3-4.9c-0.5,0-0.9,0-1.3,0h-2.7v-0.9h5.5v0.8l-3.7,4.3l-0.7,0.8c0.5,0,1-0.1,1.4-0.1h3.1
			v1H667.6z"/>
		<path class="st9" d="M679.1,363.6c-0.4,0.4-0.8,0.6-1.2,0.8c-0.4,0.1-0.8,0.2-1.3,0.2c-0.7,0-1.3-0.2-1.7-0.5
			c-0.4-0.4-0.6-0.8-0.6-1.4c0-0.3,0.1-0.6,0.2-0.9c0.1-0.3,0.3-0.5,0.6-0.7c0.2-0.2,0.5-0.3,0.8-0.4c0.2-0.1,0.6-0.1,1-0.2
			c0.9-0.1,1.6-0.2,2-0.4c0-0.2,0-0.3,0-0.3c0-0.5-0.1-0.8-0.3-1c-0.3-0.3-0.7-0.4-1.3-0.4c-0.5,0-0.9,0.1-1.2,0.3s-0.4,0.5-0.6,1
			l-1.1-0.2c0.1-0.5,0.3-0.9,0.5-1.2c0.2-0.3,0.6-0.5,1-0.7c0.4-0.2,1-0.2,1.5-0.2c0.6,0,1,0.1,1.4,0.2s0.6,0.3,0.8,0.5
			c0.2,0.2,0.3,0.5,0.4,0.8c0,0.2,0.1,0.5,0.1,1.1v1.5c0,1.1,0,1.7,0.1,2s0.1,0.6,0.3,0.8h-1.2C679.2,364.2,679.1,363.9,679.1,363.6
			z M679,361.1c-0.4,0.2-1,0.3-1.9,0.4c-0.5,0.1-0.8,0.1-1,0.2c-0.2,0.1-0.3,0.2-0.5,0.4s-0.2,0.3-0.2,0.5c0,0.3,0.1,0.6,0.3,0.8
			c0.2,0.2,0.6,0.3,1,0.3c0.4,0,0.8-0.1,1.2-0.3s0.6-0.5,0.8-0.8c0.1-0.3,0.2-0.6,0.2-1.1V361.1z"/>
		<path class="st9" d="M684.4,363.4l0.2,1c-0.3,0.1-0.6,0.1-0.9,0.1c-0.4,0-0.7-0.1-1-0.2c-0.2-0.1-0.4-0.3-0.5-0.5
			s-0.1-0.7-0.1-1.3v-3.9h-0.8v-0.9h0.8V356l1.1-0.7v2.4h1.1v0.9h-1.1v3.9c0,0.3,0,0.5,0.1,0.6c0,0.1,0.1,0.2,0.2,0.2
			c0.1,0.1,0.2,0.1,0.4,0.1C684.1,363.5,684.2,363.4,684.4,363.4z"/>
		<path class="st9" d="M685.6,356.4v-1.3h1.1v1.3H685.6z M685.6,364.4v-6.7h1.1v6.7H685.6z"/>
		<path class="st9" d="M688,361.1c0-1.2,0.3-2.2,1-2.8c0.6-0.5,1.3-0.7,2.1-0.7c0.9,0,1.7,0.3,2.3,0.9s0.9,1.4,0.9,2.5
			c0,0.9-0.1,1.5-0.4,2c-0.3,0.5-0.6,0.9-1.1,1.2c-0.5,0.3-1,0.4-1.6,0.4c-0.9,0-1.7-0.3-2.3-0.9C688.3,363.1,688,362.2,688,361.1z
			 M689.2,361.1c0,0.9,0.2,1.5,0.6,1.9s0.9,0.6,1.4,0.6c0.6,0,1-0.2,1.4-0.6c0.4-0.4,0.6-1.1,0.6-2c0-0.8-0.2-1.5-0.6-1.9
			s-0.8-0.6-1.4-0.6c-0.6,0-1,0.2-1.4,0.6S689.2,360.2,689.2,361.1z"/>
		<path class="st9" d="M695.7,364.4v-6.7h1v1c0.5-0.7,1.2-1.1,2.1-1.1c0.4,0,0.8,0.1,1.1,0.2c0.3,0.1,0.6,0.3,0.8,0.6
			c0.2,0.2,0.3,0.5,0.4,0.8c0,0.2,0.1,0.6,0.1,1.1v4.1H700v-4.1c0-0.5,0-0.8-0.1-1s-0.2-0.4-0.5-0.6c-0.2-0.1-0.5-0.2-0.8-0.2
			c-0.5,0-0.9,0.2-1.3,0.5c-0.4,0.3-0.5,0.9-0.5,1.8v3.7H695.7z"/>
	</g>
	<g class="st8">
		<path class="st9" d="M586.2,456.2v-9.3h1.2v9.3H586.2z"/>
		<path class="st9" d="M589.5,456.2v-6.7h1v1c0.5-0.7,1.2-1.1,2.1-1.1c0.4,0,0.8,0.1,1.1,0.2c0.3,0.1,0.6,0.3,0.8,0.6
			c0.2,0.2,0.3,0.5,0.4,0.8c0,0.2,0.1,0.6,0.1,1.1v4.1h-1.1v-4.1c0-0.5,0-0.8-0.1-1c-0.1-0.2-0.2-0.4-0.5-0.6
			c-0.2-0.1-0.5-0.2-0.8-0.2c-0.5,0-0.9,0.2-1.3,0.5c-0.4,0.3-0.5,0.9-0.5,1.8v3.7H589.5z"/>
		<path class="st9" d="M599.2,455.2l0.2,1c-0.3,0.1-0.6,0.1-0.9,0.1c-0.4,0-0.7-0.1-1-0.2c-0.2-0.1-0.4-0.3-0.5-0.5
			c-0.1-0.2-0.1-0.7-0.1-1.3v-3.9h-0.8v-0.9h0.8v-1.7l1.1-0.7v2.4h1.1v0.9H598v3.9c0,0.3,0,0.5,0.1,0.6c0,0.1,0.1,0.2,0.2,0.2
			c0.1,0.1,0.2,0.1,0.4,0.1C598.8,455.2,599,455.2,599.2,455.2z"/>
		<path class="st9" d="M604.9,454l1.2,0.1c-0.2,0.7-0.5,1.2-1,1.6c-0.5,0.4-1.1,0.6-1.9,0.6c-1,0-1.8-0.3-2.3-0.9
			c-0.6-0.6-0.9-1.5-0.9-2.6c0-1.1,0.3-2,0.9-2.6s1.3-0.9,2.3-0.9c0.9,0,1.6,0.3,2.2,0.9c0.6,0.6,0.9,1.5,0.9,2.6c0,0.1,0,0.2,0,0.3
			h-5c0,0.7,0.3,1.3,0.6,1.7c0.4,0.4,0.8,0.6,1.4,0.6c0.4,0,0.8-0.1,1.1-0.3C604.5,454.9,604.7,454.5,604.9,454z M601.2,452.2h3.8
			c-0.1-0.6-0.2-1-0.4-1.3c-0.4-0.4-0.8-0.7-1.4-0.7c-0.5,0-1,0.2-1.3,0.5C601.4,451.1,601.2,451.6,601.2,452.2z"/>
		<path class="st9" d="M607.5,456.2v-6.7h1v1c0.3-0.5,0.5-0.8,0.7-0.9s0.5-0.2,0.7-0.2c0.4,0,0.8,0.1,1.2,0.4l-0.4,1.1
			c-0.3-0.2-0.6-0.2-0.8-0.2c-0.2,0-0.5,0.1-0.7,0.2c-0.2,0.2-0.3,0.4-0.4,0.6c-0.1,0.4-0.2,0.9-0.2,1.3v3.5H607.5z"/>
		<path class="st9" d="M611.9,458.8v-9.3h1v0.9c0.2-0.3,0.5-0.6,0.8-0.8c0.3-0.2,0.7-0.3,1.1-0.3c0.6,0,1.1,0.1,1.5,0.4
			s0.8,0.7,1,1.3c0.2,0.5,0.3,1.1,0.3,1.8c0,0.7-0.1,1.3-0.4,1.9c-0.2,0.6-0.6,1-1.1,1.3c-0.5,0.3-1,0.4-1.5,0.4
			c-0.4,0-0.7-0.1-1-0.2c-0.3-0.2-0.6-0.4-0.7-0.6v3.3H611.9z M612.9,452.9c0,0.9,0.2,1.5,0.5,1.9s0.8,0.6,1.3,0.6
			c0.5,0,0.9-0.2,1.3-0.6s0.5-1.1,0.5-2c0-0.9-0.2-1.5-0.5-1.9c-0.4-0.4-0.8-0.6-1.3-0.6c-0.5,0-0.9,0.2-1.3,0.7
			S612.9,452,612.9,452.9z"/>
		<path class="st9" d="M619.1,456.2v-6.7h1v1c0.3-0.5,0.5-0.8,0.7-0.9c0.2-0.2,0.5-0.2,0.7-0.2c0.4,0,0.8,0.1,1.2,0.4l-0.4,1.1
			c-0.3-0.2-0.6-0.2-0.8-0.2c-0.2,0-0.5,0.1-0.7,0.2s-0.3,0.4-0.4,0.6c-0.1,0.4-0.2,0.9-0.2,1.3v3.5H619.1z"/>
		<path class="st9" d="M628,454l1.2,0.1c-0.2,0.7-0.5,1.2-1,1.6c-0.5,0.4-1.1,0.6-1.9,0.6c-1,0-1.8-0.3-2.3-0.9
			c-0.6-0.6-0.9-1.5-0.9-2.6c0-1.1,0.3-2,0.9-2.6s1.3-0.9,2.3-0.9c0.9,0,1.6,0.3,2.2,0.9c0.6,0.6,0.9,1.5,0.9,2.6c0,0.1,0,0.2,0,0.3
			h-5c0,0.7,0.3,1.3,0.6,1.7c0.4,0.4,0.8,0.6,1.4,0.6c0.4,0,0.8-0.1,1.1-0.3C627.6,454.9,627.9,454.5,628,454z M624.3,452.2h3.8
			c-0.1-0.6-0.2-1-0.4-1.3c-0.4-0.4-0.8-0.7-1.4-0.7c-0.5,0-1,0.2-1.3,0.5C624.5,451.1,624.3,451.6,624.3,452.2z"/>
		<path class="st9" d="M633.1,455.2l0.2,1c-0.3,0.1-0.6,0.1-0.9,0.1c-0.4,0-0.7-0.1-1-0.2c-0.2-0.1-0.4-0.3-0.5-0.5
			c-0.1-0.2-0.1-0.7-0.1-1.3v-3.9H630v-0.9h0.8v-1.7l1.1-0.7v2.4h1.1v0.9H632v3.9c0,0.3,0,0.5,0.1,0.6c0,0.1,0.1,0.2,0.2,0.2
			c0.1,0.1,0.2,0.1,0.4,0.1C632.8,455.2,632.9,455.2,633.1,455.2z"/>
		<path class="st9" d="M638.7,455.4c-0.4,0.4-0.8,0.6-1.2,0.8c-0.4,0.1-0.8,0.2-1.3,0.2c-0.7,0-1.3-0.2-1.7-0.5
			c-0.4-0.4-0.6-0.8-0.6-1.4c0-0.3,0.1-0.6,0.2-0.9c0.2-0.3,0.3-0.5,0.6-0.7c0.2-0.2,0.5-0.3,0.8-0.4c0.2-0.1,0.6-0.1,1-0.2
			c0.9-0.1,1.6-0.2,2-0.4c0-0.2,0-0.3,0-0.3c0-0.5-0.1-0.8-0.3-1c-0.3-0.3-0.7-0.4-1.3-0.4c-0.5,0-0.9,0.1-1.2,0.3s-0.4,0.5-0.6,1
			l-1.1-0.2c0.1-0.5,0.3-0.9,0.5-1.2s0.6-0.5,1-0.7c0.4-0.2,0.9-0.2,1.5-0.2c0.6,0,1,0.1,1.4,0.2c0.4,0.1,0.6,0.3,0.8,0.5
			s0.3,0.5,0.4,0.8c0,0.2,0.1,0.5,0.1,1.1v1.5c0,1.1,0,1.7,0.1,2s0.1,0.6,0.3,0.8h-1.2C638.8,456,638.7,455.7,638.7,455.4z
			 M638.6,452.8c-0.4,0.2-1,0.3-1.9,0.4c-0.5,0.1-0.8,0.1-1,0.2c-0.2,0.1-0.3,0.2-0.5,0.4c-0.1,0.2-0.2,0.3-0.2,0.5
			c0,0.3,0.1,0.6,0.3,0.8c0.2,0.2,0.6,0.3,1,0.3c0.4,0,0.8-0.1,1.2-0.3c0.3-0.2,0.6-0.5,0.8-0.8c0.1-0.3,0.2-0.6,0.2-1.1V452.8z"/>
		<path class="st9" d="M642.5,456.2h-1.1v-9.3h1.1v3.3c0.5-0.6,1.1-0.9,1.8-0.9c0.4,0,0.8,0.1,1.2,0.3c0.4,0.2,0.7,0.4,0.9,0.7
			c0.2,0.3,0.4,0.7,0.6,1.1c0.1,0.4,0.2,0.9,0.2,1.4c0,1.2-0.3,2-0.9,2.7c-0.6,0.6-1.3,0.9-2.1,0.9c-0.8,0-1.4-0.3-1.9-1V456.2z
			 M642.5,452.8c0,0.8,0.1,1.4,0.3,1.8c0.4,0.6,0.8,0.9,1.5,0.9c0.5,0,0.9-0.2,1.3-0.7s0.5-1.1,0.5-1.9c0-0.9-0.2-1.5-0.5-1.9
			c-0.3-0.4-0.8-0.6-1.3-0.6c-0.5,0-0.9,0.2-1.3,0.7S642.5,452,642.5,452.8z"/>
		<path class="st9" d="M648.7,448.2v-1.3h1.1v1.3H648.7z M648.7,456.2v-6.7h1.1v6.7H648.7z"/>
		<path class="st9" d="M651.6,456.2v-9.3h1.1v9.3H651.6z"/>
		<path class="st9" d="M654.5,448.2v-1.3h1.1v1.3H654.5z M654.5,456.2v-6.7h1.1v6.7H654.5z"/>
		<path class="st9" d="M659.9,455.2l0.2,1c-0.3,0.1-0.6,0.1-0.9,0.1c-0.4,0-0.7-0.1-1-0.2c-0.2-0.1-0.4-0.3-0.5-0.5
			c-0.1-0.2-0.1-0.7-0.1-1.3v-3.9h-0.8v-0.9h0.8v-1.7l1.1-0.7v2.4h1.1v0.9h-1.1v3.9c0,0.3,0,0.5,0.1,0.6c0,0.1,0.1,0.2,0.2,0.2
			c0.1,0.1,0.2,0.1,0.4,0.1C659.5,455.2,659.7,455.2,659.9,455.2z"/>
		<path class="st9" d="M660.9,458.8l-0.1-1.1c0.2,0.1,0.5,0.1,0.7,0.1c0.3,0,0.5,0,0.6-0.1s0.3-0.2,0.4-0.4c0.1-0.1,0.2-0.4,0.3-0.9
			c0-0.1,0.1-0.2,0.1-0.3l-2.6-6.8h1.2l1.4,3.9c0.2,0.5,0.3,1,0.5,1.6c0.1-0.5,0.3-1,0.5-1.5l1.4-3.9h1.1l-2.6,6.9
			c-0.3,0.7-0.5,1.3-0.6,1.5c-0.2,0.4-0.4,0.7-0.7,0.8c-0.3,0.2-0.6,0.3-0.9,0.3C661.5,459,661.2,458.9,660.9,458.8z"/>
	</g>
	<g class="st8">
		<path class="st9" d="M586,409.9v-9.3h4.1c0.8,0,1.5,0.1,1.9,0.3s0.8,0.5,1,0.9c0.3,0.4,0.4,0.9,0.4,1.4c0,0.7-0.2,1.2-0.6,1.7
			c-0.4,0.5-1.1,0.7-2,0.9c0.3,0.2,0.6,0.3,0.7,0.5c0.4,0.3,0.7,0.7,1,1.2l1.6,2.5h-1.5l-1.2-1.9c-0.4-0.6-0.7-1-0.9-1.3
			c-0.2-0.3-0.4-0.5-0.6-0.6c-0.2-0.1-0.4-0.2-0.6-0.2c-0.1,0-0.4,0-0.7,0h-1.4v4.1H586z M587.2,404.7h2.6c0.6,0,1-0.1,1.3-0.2
			c0.3-0.1,0.6-0.3,0.7-0.6c0.2-0.3,0.2-0.5,0.2-0.8c0-0.4-0.2-0.8-0.5-1.1c-0.3-0.3-0.8-0.4-1.5-0.4h-2.9V404.7z"/>
		<path class="st9" d="M599.8,407.7l1.2,0.1c-0.2,0.7-0.5,1.2-1,1.6c-0.5,0.4-1.1,0.6-1.9,0.6c-1,0-1.8-0.3-2.3-0.9
			c-0.6-0.6-0.9-1.5-0.9-2.6c0-1.1,0.3-2,0.9-2.6s1.3-0.9,2.3-0.9c0.9,0,1.6,0.3,2.2,0.9c0.6,0.6,0.9,1.5,0.9,2.6c0,0.1,0,0.2,0,0.3
			h-5c0,0.7,0.3,1.3,0.6,1.7c0.4,0.4,0.8,0.6,1.4,0.6c0.4,0,0.8-0.1,1.1-0.3C599.4,408.5,599.7,408.2,599.8,407.7z M596.1,405.8h3.8
			c-0.1-0.6-0.2-1-0.4-1.3c-0.4-0.4-0.8-0.7-1.4-0.7c-0.5,0-1,0.2-1.3,0.5C596.3,404.8,596.1,405.3,596.1,405.8z"/>
		<path class="st9" d="M606.8,409.9V409c-0.4,0.7-1.1,1-1.9,1c-0.5,0-1-0.1-1.5-0.4s-0.8-0.7-1-1.2s-0.4-1.1-0.4-1.8
			c0-0.7,0.1-1.3,0.3-1.8s0.6-1,1-1.3c0.4-0.3,0.9-0.4,1.5-0.4c0.4,0,0.8,0.1,1.1,0.3c0.3,0.2,0.6,0.4,0.8,0.7v-3.3h1.1v9.3H606.8z
			 M603.2,406.5c0,0.9,0.2,1.5,0.5,1.9c0.4,0.4,0.8,0.6,1.3,0.6c0.5,0,0.9-0.2,1.3-0.6s0.5-1,0.5-1.9c0-0.9-0.2-1.6-0.5-2
			s-0.8-0.6-1.3-0.6c-0.5,0-0.9,0.2-1.3,0.6C603.4,405,603.2,405.6,603.2,406.5z"/>
		<path class="st9" d="M614.1,409.9v-1c-0.5,0.8-1.2,1.1-2.1,1.1c-0.4,0-0.8-0.1-1.1-0.2c-0.3-0.2-0.6-0.3-0.8-0.6
			c-0.2-0.2-0.3-0.5-0.4-0.8c0-0.2-0.1-0.6-0.1-1.1v-4.2h1.1v3.7c0,0.6,0,1,0.1,1.2c0.1,0.3,0.2,0.5,0.5,0.7
			c0.2,0.2,0.5,0.3,0.9,0.3s0.7-0.1,1-0.3s0.5-0.4,0.6-0.7s0.2-0.7,0.2-1.3v-3.6h1.1v6.7H614.1z"/>
		<path class="st9" d="M621.3,407.4l1.1,0.1c-0.1,0.8-0.4,1.4-0.9,1.8c-0.5,0.4-1.1,0.7-1.9,0.7c-0.9,0-1.7-0.3-2.2-0.9
			c-0.6-0.6-0.8-1.5-0.8-2.6c0-0.7,0.1-1.4,0.4-1.9s0.6-1,1.1-1.2c0.5-0.3,1-0.4,1.6-0.4c0.7,0,1.3,0.2,1.8,0.6s0.8,0.9,0.9,1.6
			l-1.1,0.2c-0.1-0.5-0.3-0.8-0.6-1c-0.3-0.2-0.6-0.3-1-0.3c-0.6,0-1,0.2-1.4,0.6c-0.4,0.4-0.5,1.1-0.5,2c0,0.9,0.2,1.6,0.5,2
			c0.3,0.4,0.8,0.6,1.4,0.6c0.4,0,0.8-0.1,1.1-0.4C621.1,408.4,621.2,408,621.3,407.4z"/>
		<path class="st9" d="M628,407.7l1.2,0.1c-0.2,0.7-0.5,1.2-1,1.6s-1.1,0.6-1.9,0.6c-1,0-1.8-0.3-2.3-0.9s-0.9-1.5-0.9-2.6
			c0-1.1,0.3-2,0.9-2.6s1.3-0.9,2.3-0.9c0.9,0,1.6,0.3,2.2,0.9c0.6,0.6,0.9,1.5,0.9,2.6c0,0.1,0,0.2,0,0.3h-5c0,0.7,0.3,1.3,0.6,1.7
			c0.4,0.4,0.8,0.6,1.4,0.6c0.4,0,0.8-0.1,1.1-0.3S627.9,408.2,628,407.7z M624.3,405.8h3.8c-0.1-0.6-0.2-1-0.4-1.3
			c-0.4-0.4-0.8-0.7-1.4-0.7c-0.5,0-1,0.2-1.3,0.5C624.5,404.8,624.3,405.3,624.3,405.8z"/>
		<path class="st9" d="M635,409.9V409c-0.4,0.7-1.1,1-1.9,1c-0.5,0-1-0.1-1.5-0.4c-0.5-0.3-0.8-0.7-1-1.2c-0.2-0.5-0.4-1.1-0.4-1.8
			c0-0.7,0.1-1.3,0.3-1.8c0.2-0.5,0.6-1,1-1.3c0.4-0.3,1-0.4,1.5-0.4c0.4,0,0.8,0.1,1.1,0.3c0.3,0.2,0.6,0.4,0.8,0.7v-3.3h1.1v9.3
			H635z M631.4,406.5c0,0.9,0.2,1.5,0.5,1.9c0.4,0.4,0.8,0.6,1.3,0.6c0.5,0,0.9-0.2,1.3-0.6c0.3-0.4,0.5-1,0.5-1.9
			c0-0.9-0.2-1.6-0.5-2s-0.8-0.6-1.3-0.6c-0.5,0-0.9,0.2-1.3,0.6C631.6,405,631.4,405.6,631.4,406.5z"/>
		<path class="st9" d="M641.6,409.9v-9.3h3.2c0.7,0,1.3,0,1.7,0.1c0.5,0.1,1,0.3,1.4,0.7c0.5,0.4,0.9,0.9,1.1,1.6
			c0.2,0.6,0.4,1.4,0.4,2.2c0,0.7-0.1,1.3-0.2,1.9c-0.2,0.5-0.4,1-0.6,1.4c-0.3,0.4-0.5,0.6-0.8,0.8c-0.3,0.2-0.7,0.4-1.1,0.5
			c-0.4,0.1-0.9,0.2-1.5,0.2H641.6z M642.9,408.8h2c0.6,0,1.1-0.1,1.4-0.2c0.3-0.1,0.6-0.3,0.8-0.5c0.3-0.3,0.5-0.7,0.7-1.2
			c0.2-0.5,0.2-1.1,0.2-1.8c0-1-0.2-1.7-0.5-2.2s-0.7-0.9-1.2-1.1c-0.3-0.1-0.9-0.2-1.6-0.2h-2V408.8z"/>
		<path class="st9" d="M655.3,409c-0.4,0.4-0.8,0.6-1.2,0.8c-0.4,0.1-0.8,0.2-1.3,0.2c-0.7,0-1.3-0.2-1.7-0.5
			c-0.4-0.4-0.6-0.8-0.6-1.4c0-0.3,0.1-0.6,0.2-0.9c0.2-0.3,0.3-0.5,0.6-0.7c0.2-0.2,0.5-0.3,0.8-0.4c0.2-0.1,0.6-0.1,1-0.2
			c0.9-0.1,1.6-0.2,2-0.4c0-0.2,0-0.3,0-0.3c0-0.5-0.1-0.8-0.3-1c-0.3-0.3-0.7-0.4-1.3-0.4c-0.5,0-0.9,0.1-1.2,0.3
			c-0.3,0.2-0.4,0.5-0.6,1l-1.1-0.2c0.1-0.5,0.3-0.9,0.5-1.2c0.2-0.3,0.6-0.5,1-0.7c0.4-0.2,1-0.2,1.5-0.2c0.6,0,1,0.1,1.4,0.2
			s0.6,0.3,0.8,0.5c0.2,0.2,0.3,0.5,0.4,0.8c0,0.2,0.1,0.5,0.1,1.1v1.5c0,1.1,0,1.7,0.1,2c0,0.3,0.1,0.6,0.3,0.8h-1.2
			C655.4,409.6,655.3,409.3,655.3,409z M655.2,406.5c-0.4,0.2-1,0.3-1.9,0.4c-0.5,0.1-0.8,0.1-1,0.2c-0.2,0.1-0.3,0.2-0.5,0.4
			s-0.2,0.3-0.2,0.5c0,0.3,0.1,0.6,0.3,0.8s0.6,0.3,1,0.3c0.4,0,0.8-0.1,1.2-0.3s0.6-0.5,0.8-0.8c0.1-0.3,0.2-0.6,0.2-1.1V406.5z"/>
		<path class="st9" d="M660.6,408.8l0.2,1c-0.3,0.1-0.6,0.1-0.9,0.1c-0.4,0-0.7-0.1-1-0.2c-0.2-0.1-0.4-0.3-0.5-0.5
			s-0.1-0.7-0.1-1.3V404h-0.8v-0.9h0.8v-1.7l1.1-0.7v2.4h1.1v0.9h-1.1v3.9c0,0.3,0,0.5,0.1,0.6s0.1,0.2,0.2,0.2
			c0.1,0.1,0.2,0.1,0.4,0.1C660.2,408.9,660.4,408.9,660.6,408.8z"/>
		<path class="st9" d="M666.1,409c-0.4,0.4-0.8,0.6-1.2,0.8c-0.4,0.1-0.8,0.2-1.3,0.2c-0.7,0-1.3-0.2-1.7-0.5
			c-0.4-0.4-0.6-0.8-0.6-1.4c0-0.3,0.1-0.6,0.2-0.9c0.2-0.3,0.3-0.5,0.6-0.7c0.2-0.2,0.5-0.3,0.8-0.4c0.2-0.1,0.6-0.1,1-0.2
			c0.9-0.1,1.6-0.2,2-0.4c0-0.2,0-0.3,0-0.3c0-0.5-0.1-0.8-0.3-1c-0.3-0.3-0.7-0.4-1.3-0.4c-0.5,0-0.9,0.1-1.2,0.3
			c-0.3,0.2-0.4,0.5-0.6,1l-1.1-0.2c0.1-0.5,0.3-0.9,0.5-1.2c0.2-0.3,0.6-0.5,1-0.7c0.4-0.2,1-0.2,1.5-0.2c0.6,0,1,0.1,1.4,0.2
			s0.6,0.3,0.8,0.5c0.2,0.2,0.3,0.5,0.4,0.8c0,0.2,0.1,0.5,0.1,1.1v1.5c0,1.1,0,1.7,0.1,2c0,0.3,0.1,0.6,0.3,0.8h-1.2
			C666.2,409.6,666.2,409.3,666.1,409z M666,406.5c-0.4,0.2-1,0.3-1.9,0.4c-0.5,0.1-0.8,0.1-1,0.2c-0.2,0.1-0.3,0.2-0.5,0.4
			s-0.2,0.3-0.2,0.5c0,0.3,0.1,0.6,0.3,0.8s0.6,0.3,1,0.3c0.4,0,0.8-0.1,1.2-0.3s0.6-0.5,0.8-0.8c0.1-0.3,0.2-0.6,0.2-1.1V406.5z"/>
	</g>
	<g class="st8">
		<path class="st9" d="M588.4,327.4v-8.2h-3.1v-1.1h7.4v1.1h-3.1v8.2H588.4z"/>
		<path class="st9" d="M593.3,327.4v-6.7h1v1c0.3-0.5,0.5-0.8,0.7-0.9c0.2-0.2,0.5-0.2,0.7-0.2c0.4,0,0.8,0.1,1.2,0.4l-0.4,1.1
			c-0.3-0.2-0.6-0.2-0.8-0.2c-0.2,0-0.5,0.1-0.7,0.2s-0.3,0.4-0.4,0.6c-0.1,0.4-0.2,0.9-0.2,1.3v3.5H593.3z"/>
		<path class="st9" d="M602,326.5c-0.4,0.4-0.8,0.6-1.2,0.8c-0.4,0.1-0.8,0.2-1.3,0.2c-0.7,0-1.3-0.2-1.7-0.5
			c-0.4-0.4-0.6-0.8-0.6-1.4c0-0.3,0.1-0.6,0.2-0.9c0.2-0.3,0.3-0.5,0.6-0.7c0.2-0.2,0.5-0.3,0.8-0.4c0.2-0.1,0.6-0.1,1-0.2
			c0.9-0.1,1.6-0.2,2-0.4c0-0.2,0-0.3,0-0.3c0-0.5-0.1-0.8-0.3-1c-0.3-0.3-0.7-0.4-1.3-0.4c-0.5,0-0.9,0.1-1.2,0.3s-0.4,0.5-0.6,1
			l-1.1-0.2c0.1-0.5,0.3-0.9,0.5-1.2s0.6-0.5,1-0.7c0.4-0.2,0.9-0.2,1.5-0.2c0.6,0,1,0.1,1.4,0.2c0.4,0.1,0.6,0.3,0.8,0.5
			s0.3,0.5,0.4,0.8c0,0.2,0.1,0.5,0.1,1.1v1.5c0,1.1,0,1.7,0.1,2s0.1,0.6,0.3,0.8h-1.2C602.1,327.1,602.1,326.8,602,326.5z
			 M601.9,324c-0.4,0.2-1,0.3-1.9,0.4c-0.5,0.1-0.8,0.1-1,0.2c-0.2,0.1-0.3,0.2-0.5,0.4c-0.1,0.2-0.2,0.3-0.2,0.5
			c0,0.3,0.1,0.6,0.3,0.8c0.2,0.2,0.6,0.3,1,0.3c0.4,0,0.8-0.1,1.2-0.3c0.3-0.2,0.6-0.5,0.8-0.8c0.1-0.3,0.2-0.6,0.2-1.1V324z"/>
		<path class="st9" d="M604.9,327.4v-6.7h1v1c0.5-0.7,1.2-1.1,2.1-1.1c0.4,0,0.8,0.1,1.1,0.2c0.3,0.1,0.6,0.3,0.8,0.6
			c0.2,0.2,0.3,0.5,0.4,0.8c0,0.2,0.1,0.6,0.1,1.1v4.1h-1.1v-4.1c0-0.5,0-0.8-0.1-1s-0.2-0.4-0.5-0.6s-0.5-0.2-0.8-0.2
			c-0.5,0-0.9,0.2-1.3,0.5c-0.4,0.3-0.5,0.9-0.5,1.8v3.7H604.9z"/>
		<path class="st9" d="M611.6,325.3l1.1-0.2c0.1,0.5,0.2,0.8,0.5,1c0.3,0.2,0.7,0.4,1.2,0.4c0.5,0,0.9-0.1,1.2-0.3s0.4-0.5,0.4-0.8
			c0-0.3-0.1-0.5-0.3-0.6c-0.2-0.1-0.5-0.2-1.2-0.4c-0.8-0.2-1.4-0.4-1.7-0.5c-0.3-0.2-0.6-0.4-0.7-0.6c-0.2-0.3-0.2-0.6-0.2-0.9
			c0-0.3,0.1-0.6,0.2-0.8s0.3-0.5,0.6-0.6c0.2-0.1,0.4-0.2,0.7-0.3s0.6-0.1,1-0.1c0.5,0,1,0.1,1.4,0.2c0.4,0.2,0.7,0.4,0.9,0.6
			c0.2,0.3,0.3,0.6,0.4,1l-1.1,0.2c-0.1-0.3-0.2-0.6-0.4-0.8c-0.2-0.2-0.6-0.3-1-0.3c-0.5,0-0.9,0.1-1.1,0.3
			c-0.2,0.2-0.3,0.4-0.3,0.6c0,0.1,0,0.3,0.1,0.4c0.1,0.1,0.2,0.2,0.4,0.3c0.1,0,0.5,0.1,1,0.3c0.8,0.2,1.4,0.4,1.7,0.5
			c0.3,0.1,0.6,0.3,0.8,0.6s0.3,0.6,0.3,1c0,0.4-0.1,0.7-0.3,1.1c-0.2,0.3-0.5,0.6-1,0.8c-0.4,0.2-0.9,0.3-1.4,0.3
			c-0.9,0-1.5-0.2-2-0.5C612.1,326.6,611.8,326.1,611.6,325.3z"/>
		<path class="st9" d="M618.9,327.4v-5.9h-1v-0.9h1v-0.7c0-0.5,0-0.8,0.1-1c0.1-0.3,0.3-0.5,0.6-0.7c0.3-0.2,0.7-0.3,1.2-0.3
			c0.3,0,0.7,0,1.1,0.1l-0.2,1c-0.2,0-0.5-0.1-0.7-0.1c-0.3,0-0.6,0.1-0.7,0.2c-0.1,0.1-0.2,0.4-0.2,0.8v0.6h1.3v0.9H620v5.9H618.9z
			"/>
		<path class="st9" d="M626.8,325.2l1.2,0.1c-0.2,0.7-0.5,1.2-1,1.6s-1.1,0.6-1.9,0.6c-1,0-1.8-0.3-2.3-0.9s-0.9-1.5-0.9-2.6
			c0-1.1,0.3-2,0.9-2.6s1.3-0.9,2.3-0.9c0.9,0,1.6,0.3,2.2,0.9c0.6,0.6,0.9,1.5,0.9,2.6c0,0.1,0,0.2,0,0.3h-5c0,0.7,0.3,1.3,0.6,1.7
			c0.4,0.4,0.8,0.6,1.4,0.6c0.4,0,0.8-0.1,1.1-0.3S626.6,325.7,626.8,325.2z M623.1,323.3h3.8c-0.1-0.6-0.2-1-0.4-1.3
			c-0.4-0.4-0.8-0.7-1.4-0.7c-0.5,0-1,0.2-1.3,0.5C623.3,322.3,623.1,322.8,623.1,323.3z"/>
		<path class="st9" d="M629.4,327.4v-6.7h1v1c0.3-0.5,0.5-0.8,0.7-0.9c0.2-0.2,0.5-0.2,0.7-0.2c0.4,0,0.8,0.1,1.2,0.4l-0.4,1.1
			c-0.3-0.2-0.6-0.2-0.8-0.2c-0.2,0-0.5,0.1-0.7,0.2s-0.3,0.4-0.4,0.6c-0.1,0.4-0.2,0.9-0.2,1.3v3.5H629.4z"/>
		<path class="st9" d="M638.2,326.5c-0.4,0.4-0.8,0.6-1.2,0.8c-0.4,0.1-0.8,0.2-1.3,0.2c-0.7,0-1.3-0.2-1.7-0.5
			c-0.4-0.4-0.6-0.8-0.6-1.4c0-0.3,0.1-0.6,0.2-0.9c0.2-0.3,0.3-0.5,0.6-0.7c0.2-0.2,0.5-0.3,0.8-0.4c0.2-0.1,0.6-0.1,1-0.2
			c0.9-0.1,1.6-0.2,2-0.4c0-0.2,0-0.3,0-0.3c0-0.5-0.1-0.8-0.3-1c-0.3-0.3-0.7-0.4-1.3-0.4c-0.5,0-0.9,0.1-1.2,0.3s-0.4,0.5-0.6,1
			l-1.1-0.2c0.1-0.5,0.3-0.9,0.5-1.2s0.6-0.5,1-0.7c0.4-0.2,0.9-0.2,1.5-0.2c0.6,0,1,0.1,1.4,0.2c0.4,0.1,0.6,0.3,0.8,0.5
			s0.3,0.5,0.4,0.8c0,0.2,0.1,0.5,0.1,1.1v1.5c0,1.1,0,1.7,0.1,2s0.1,0.6,0.3,0.8h-1.2C638.3,327.1,638.2,326.8,638.2,326.5z
			 M638.1,324c-0.4,0.2-1,0.3-1.9,0.4c-0.5,0.1-0.8,0.1-1,0.2c-0.2,0.1-0.3,0.2-0.5,0.4c-0.1,0.2-0.2,0.3-0.2,0.5
			c0,0.3,0.1,0.6,0.3,0.8c0.2,0.2,0.6,0.3,1,0.3c0.4,0,0.8-0.1,1.2-0.3c0.3-0.2,0.6-0.5,0.8-0.8c0.1-0.3,0.2-0.6,0.2-1.1V324z"/>
		<path class="st9" d="M642,327.4H641v-9.3h1.1v3.3c0.5-0.6,1.1-0.9,1.8-0.9c0.4,0,0.8,0.1,1.2,0.3c0.4,0.2,0.7,0.4,0.9,0.7
			c0.2,0.3,0.4,0.7,0.6,1.1c0.1,0.4,0.2,0.9,0.2,1.4c0,1.2-0.3,2-0.9,2.7c-0.6,0.6-1.3,0.9-2.1,0.9c-0.8,0-1.4-0.3-1.9-1V327.4z
			 M642,323.9c0,0.8,0.1,1.4,0.3,1.8c0.4,0.6,0.8,0.9,1.5,0.9c0.5,0,0.9-0.2,1.3-0.7s0.5-1.1,0.5-1.9c0-0.9-0.2-1.5-0.5-1.9
			c-0.3-0.4-0.8-0.6-1.3-0.6c-0.5,0-0.9,0.2-1.3,0.7S642,323.1,642,323.9z"/>
		<path class="st9" d="M648.2,319.4v-1.3h1.1v1.3H648.2z M648.2,327.4v-6.7h1.1v6.7H648.2z"/>
		<path class="st9" d="M651.1,327.4v-9.3h1.1v9.3H651.1z"/>
		<path class="st9" d="M654,319.4v-1.3h1.1v1.3H654z M654,327.4v-6.7h1.1v6.7H654z"/>
		<path class="st9" d="M659.4,326.3l0.2,1c-0.3,0.1-0.6,0.1-0.9,0.1c-0.4,0-0.7-0.1-1-0.2c-0.2-0.1-0.4-0.3-0.5-0.5
			c-0.1-0.2-0.1-0.7-0.1-1.3v-3.9h-0.8v-0.9h0.8V319l1.1-0.7v2.4h1.1v0.9h-1.1v3.9c0,0.3,0,0.5,0.1,0.6c0,0.1,0.1,0.2,0.2,0.2
			c0.1,0.1,0.2,0.1,0.4,0.1C659,326.4,659.2,326.4,659.4,326.3z"/>
		<path class="st9" d="M660.5,330l-0.1-1.1c0.2,0.1,0.5,0.1,0.7,0.1c0.3,0,0.5,0,0.6-0.1s0.3-0.2,0.4-0.4c0.1-0.1,0.2-0.4,0.3-0.9
			c0-0.1,0.1-0.2,0.1-0.3l-2.6-6.8h1.2l1.4,3.9c0.2,0.5,0.3,1,0.5,1.6c0.1-0.5,0.3-1,0.5-1.5l1.4-3.9h1.1l-2.6,6.9
			c-0.3,0.7-0.5,1.3-0.6,1.5c-0.2,0.4-0.4,0.7-0.7,0.8c-0.3,0.2-0.6,0.3-0.9,0.3C661,330.1,660.7,330.1,660.5,330z"/>
	</g>
	<g class="st8">
		<path class="st9" d="M586,276.1v-9.3h1.3l4.9,7.3v-7.3h1.2v9.3H592l-4.9-7.3v7.3H586z"/>
		<path class="st9" d="M594.8,272.8c0-1.2,0.3-2.2,1-2.8c0.6-0.5,1.3-0.7,2.1-0.7c0.9,0,1.7,0.3,2.3,0.9c0.6,0.6,0.9,1.4,0.9,2.5
			c0,0.9-0.1,1.5-0.4,2c-0.3,0.5-0.6,0.9-1.1,1.2c-0.5,0.3-1,0.4-1.6,0.4c-0.9,0-1.7-0.3-2.3-0.9
			C595.1,274.8,594.8,273.9,594.8,272.8z M596,272.8c0,0.9,0.2,1.5,0.6,1.9c0.4,0.4,0.9,0.6,1.4,0.6c0.6,0,1-0.2,1.4-0.6
			s0.6-1.1,0.6-2c0-0.8-0.2-1.5-0.6-1.9c-0.4-0.4-0.8-0.6-1.4-0.6c-0.6,0-1,0.2-1.4,0.6C596.2,271.2,596,271.9,596,272.8z"/>
		<path class="st9" d="M602.5,276.1v-6.7h1v1c0.5-0.7,1.2-1.1,2.1-1.1c0.4,0,0.8,0.1,1.1,0.2c0.3,0.1,0.6,0.3,0.8,0.6
			c0.2,0.2,0.3,0.5,0.4,0.8c0,0.2,0.1,0.6,0.1,1.1v4.1h-1.1V272c0-0.5,0-0.8-0.1-1c-0.1-0.2-0.2-0.4-0.5-0.6
			c-0.2-0.1-0.5-0.2-0.8-0.2c-0.5,0-0.9,0.2-1.3,0.5c-0.4,0.3-0.5,0.9-0.5,1.8v3.7H602.5z"/>
		<path class="st9" d="M614.3,274l1.2,0.1c-0.2,0.7-0.5,1.2-1,1.6s-1.1,0.6-1.9,0.6c-1,0-1.8-0.3-2.3-0.9c-0.6-0.6-0.9-1.5-0.9-2.6
			c0-1.1,0.3-2,0.9-2.6s1.3-0.9,2.3-0.9c0.9,0,1.6,0.3,2.2,0.9c0.6,0.6,0.9,1.5,0.9,2.6c0,0.1,0,0.2,0,0.3h-5c0,0.7,0.3,1.3,0.6,1.7
			c0.4,0.4,0.8,0.6,1.4,0.6c0.4,0,0.8-0.1,1.1-0.3S614.1,274.4,614.3,274z M610.6,272.1h3.8c-0.1-0.6-0.2-1-0.4-1.3
			c-0.4-0.4-0.8-0.7-1.4-0.7c-0.5,0-1,0.2-1.3,0.5C610.8,271.1,610.6,271.5,610.6,272.1z"/>
	</g>
	<g class="st8">
		<path class="st9" d="M325.7,447.6l1.2-0.1c0.1,0.5,0.2,0.8,0.4,1.1c0.2,0.3,0.5,0.5,0.9,0.7c0.4,0.2,0.9,0.3,1.4,0.3
			c0.5,0,0.9-0.1,1.2-0.2s0.6-0.3,0.8-0.6c0.2-0.2,0.3-0.5,0.3-0.8c0-0.3-0.1-0.5-0.3-0.8s-0.4-0.4-0.8-0.5
			c-0.2-0.1-0.8-0.2-1.7-0.5s-1.5-0.4-1.8-0.6c-0.4-0.2-0.8-0.5-1-0.9c-0.2-0.3-0.3-0.7-0.3-1.2c0-0.5,0.1-0.9,0.4-1.3
			s0.7-0.7,1.2-0.9c0.5-0.2,1.1-0.3,1.7-0.3c0.7,0,1.3,0.1,1.8,0.3c0.5,0.2,0.9,0.5,1.2,1s0.4,0.9,0.5,1.5l-1.2,0.1
			c-0.1-0.6-0.3-1-0.6-1.3c-0.4-0.3-0.9-0.5-1.6-0.5c-0.7,0-1.3,0.1-1.6,0.4c-0.3,0.3-0.5,0.6-0.5,1c0,0.3,0.1,0.6,0.4,0.8
			c0.2,0.2,0.9,0.4,1.9,0.7c1,0.2,1.7,0.4,2.1,0.6c0.5,0.2,0.9,0.6,1.2,0.9s0.4,0.8,0.4,1.3c0,0.5-0.1,1-0.4,1.4
			c-0.3,0.4-0.7,0.8-1.2,1c-0.5,0.2-1.1,0.4-1.8,0.4c-0.8,0-1.5-0.1-2.1-0.4c-0.6-0.2-1-0.6-1.3-1.1
			C325.9,448.7,325.7,448.2,325.7,447.6z"/>
		<path class="st9" d="M334.7,442.6v-1.3h1.1v1.3H334.7z M334.7,450.6v-6.7h1.1v6.7H334.7z"/>
		<path class="st9" d="M337.6,450.6v-6.7h1v0.9c0.2-0.3,0.5-0.6,0.8-0.8s0.8-0.3,1.2-0.3c0.5,0,0.9,0.1,1.2,0.3
			c0.3,0.2,0.5,0.5,0.7,0.9c0.5-0.8,1.2-1.2,2.1-1.2c0.7,0,1.2,0.2,1.5,0.6s0.5,0.9,0.5,1.7v4.6h-1.1v-4.2c0-0.5,0-0.8-0.1-1
			c-0.1-0.2-0.2-0.4-0.4-0.5c-0.2-0.1-0.4-0.2-0.7-0.2c-0.5,0-0.9,0.2-1.2,0.5s-0.5,0.8-0.5,1.5v3.9h-1.1v-4.4
			c0-0.5-0.1-0.9-0.3-1.1s-0.5-0.4-0.9-0.4c-0.3,0-0.6,0.1-0.9,0.3c-0.3,0.2-0.5,0.4-0.6,0.7c-0.1,0.3-0.2,0.8-0.2,1.4v3.5H337.6z"
			/>
		<path class="st9" d="M348.4,442.6v-1.3h1.1v1.3H348.4z M348.4,450.6v-6.7h1.1v6.7H348.4z"/>
		<path class="st9" d="M351.2,450.6v-9.3h1.1v9.3H351.2z"/>
		<path class="st9" d="M358.6,449.7c-0.4,0.4-0.8,0.6-1.2,0.8c-0.4,0.1-0.8,0.2-1.3,0.2c-0.7,0-1.3-0.2-1.7-0.5
			c-0.4-0.4-0.6-0.8-0.6-1.4c0-0.3,0.1-0.6,0.2-0.9c0.1-0.3,0.3-0.5,0.6-0.7s0.5-0.3,0.8-0.4c0.2-0.1,0.6-0.1,1-0.2
			c0.9-0.1,1.6-0.2,2-0.4c0-0.2,0-0.3,0-0.3c0-0.5-0.1-0.8-0.3-1c-0.3-0.3-0.7-0.4-1.3-0.4c-0.5,0-0.9,0.1-1.2,0.3s-0.4,0.5-0.6,1
			l-1.1-0.2c0.1-0.5,0.3-0.9,0.5-1.2c0.2-0.3,0.6-0.5,1-0.7c0.4-0.2,1-0.2,1.5-0.2c0.6,0,1,0.1,1.4,0.2c0.4,0.1,0.6,0.3,0.8,0.5
			c0.2,0.2,0.3,0.5,0.4,0.8c0,0.2,0.1,0.5,0.1,1.1v1.5c0,1.1,0,1.7,0.1,2s0.1,0.6,0.3,0.8h-1.2C358.7,450.3,358.6,450,358.6,449.7z
			 M358.5,447.2c-0.4,0.2-1,0.3-1.9,0.4c-0.5,0.1-0.8,0.1-1,0.2c-0.2,0.1-0.3,0.2-0.5,0.4c-0.1,0.2-0.2,0.3-0.2,0.5
			c0,0.3,0.1,0.6,0.3,0.8s0.6,0.3,1,0.3c0.4,0,0.8-0.1,1.2-0.3s0.6-0.5,0.8-0.8c0.1-0.3,0.2-0.6,0.2-1.1V447.2z"/>
		<path class="st9" d="M361.4,450.6v-6.7h1v1c0.3-0.5,0.5-0.8,0.7-0.9c0.2-0.2,0.5-0.2,0.7-0.2c0.4,0,0.8,0.1,1.2,0.4l-0.4,1.1
			c-0.3-0.2-0.6-0.2-0.8-0.2c-0.2,0-0.5,0.1-0.7,0.2c-0.2,0.2-0.3,0.4-0.4,0.6c-0.1,0.4-0.2,0.9-0.2,1.3v3.5H361.4z"/>
		<path class="st9" d="M365.7,442.6v-1.3h1.1v1.3H365.7z M365.7,450.6v-6.7h1.1v6.7H365.7z"/>
		<path class="st9" d="M371.1,449.5l0.2,1c-0.3,0.1-0.6,0.1-0.9,0.1c-0.4,0-0.7-0.1-1-0.2c-0.2-0.1-0.4-0.3-0.5-0.5
			c-0.1-0.2-0.1-0.7-0.1-1.3v-3.9H368v-0.9h0.8v-1.7l1.1-0.7v2.4h1.1v0.9H370v3.9c0,0.3,0,0.5,0.1,0.6s0.1,0.2,0.2,0.2
			c0.1,0.1,0.2,0.1,0.4,0.1C370.7,449.6,370.9,449.6,371.1,449.5z"/>
		<path class="st9" d="M372.2,453.1l-0.1-1.1c0.2,0.1,0.5,0.1,0.7,0.1c0.3,0,0.5,0,0.6-0.1s0.3-0.2,0.4-0.4c0.1-0.1,0.2-0.4,0.3-0.9
			c0-0.1,0.1-0.2,0.1-0.3l-2.6-6.8h1.2l1.4,3.9c0.2,0.5,0.3,1,0.5,1.6c0.1-0.5,0.3-1,0.5-1.5l1.4-3.9h1.1l-2.6,6.9
			c-0.3,0.7-0.5,1.3-0.6,1.5c-0.2,0.4-0.4,0.7-0.7,0.8c-0.3,0.2-0.6,0.3-0.9,0.3C372.7,453.3,372.4,453.2,372.2,453.1z"/>
	</g>
	<g class="st8">
		<path class="st9" d="M320.9,180.4l1.2,0.3c-0.3,1-0.7,1.8-1.4,2.3c-0.7,0.5-1.5,0.8-2.5,0.8c-1,0-1.8-0.2-2.4-0.6
			c-0.6-0.4-1.1-1-1.4-1.8c-0.3-0.8-0.5-1.6-0.5-2.5c0-1,0.2-1.8,0.6-2.5c0.4-0.7,0.9-1.3,1.6-1.6c0.7-0.4,1.4-0.6,2.3-0.6
			c0.9,0,1.7,0.2,2.3,0.7c0.6,0.5,1.1,1.1,1.3,2l-1.2,0.3c-0.2-0.7-0.5-1.2-0.9-1.5s-0.9-0.5-1.5-0.5c-0.7,0-1.3,0.2-1.8,0.5
			c-0.5,0.3-0.8,0.8-1,1.4c-0.2,0.6-0.3,1.2-0.3,1.8c0,0.8,0.1,1.5,0.3,2.1c0.2,0.6,0.6,1,1.1,1.3s1,0.4,1.6,0.4
			c0.7,0,1.3-0.2,1.8-0.6C320.4,181.8,320.7,181.2,320.9,180.4z"/>
		<path class="st9" d="M323.4,183.7v-9.3h1.1v9.3H323.4z"/>
		<path class="st9" d="M330.7,182.9c-0.4,0.4-0.8,0.6-1.2,0.8c-0.4,0.1-0.8,0.2-1.3,0.2c-0.7,0-1.3-0.2-1.7-0.5
			c-0.4-0.4-0.6-0.8-0.6-1.4c0-0.3,0.1-0.6,0.2-0.9c0.1-0.3,0.3-0.5,0.6-0.7c0.2-0.2,0.5-0.3,0.8-0.4c0.2-0.1,0.6-0.1,1-0.2
			c0.9-0.1,1.6-0.2,2-0.4c0-0.2,0-0.3,0-0.3c0-0.5-0.1-0.8-0.3-1c-0.3-0.3-0.7-0.4-1.3-0.4c-0.5,0-0.9,0.1-1.2,0.3
			c-0.3,0.2-0.4,0.5-0.6,1l-1.1-0.2c0.1-0.5,0.3-0.9,0.5-1.2s0.6-0.5,1-0.7c0.4-0.2,1-0.2,1.5-0.2c0.6,0,1,0.1,1.4,0.2
			s0.6,0.3,0.8,0.5s0.3,0.5,0.4,0.8c0,0.2,0.1,0.5,0.1,1.1v1.5c0,1.1,0,1.7,0.1,2c0,0.3,0.1,0.6,0.3,0.8H331
			C330.9,183.5,330.8,183.2,330.7,182.9z M330.6,180.3c-0.4,0.2-1,0.3-1.9,0.4c-0.5,0.1-0.8,0.1-1,0.2c-0.2,0.1-0.3,0.2-0.5,0.4
			s-0.2,0.3-0.2,0.5c0,0.3,0.1,0.6,0.3,0.8c0.2,0.2,0.6,0.3,1,0.3c0.4,0,0.8-0.1,1.2-0.3s0.6-0.5,0.8-0.8c0.1-0.3,0.2-0.6,0.2-1.1
			V180.3z"/>
		<path class="st9" d="M333.1,181.7l1.1-0.2c0.1,0.5,0.2,0.8,0.5,1c0.3,0.2,0.7,0.4,1.2,0.4c0.5,0,0.9-0.1,1.2-0.3s0.4-0.5,0.4-0.8
			c0-0.3-0.1-0.5-0.3-0.6c-0.2-0.1-0.5-0.2-1.2-0.4c-0.8-0.2-1.4-0.4-1.7-0.5c-0.3-0.2-0.6-0.4-0.7-0.6c-0.2-0.3-0.3-0.6-0.3-0.9
			c0-0.3,0.1-0.6,0.2-0.8c0.1-0.3,0.3-0.5,0.6-0.6c0.2-0.1,0.4-0.2,0.7-0.3c0.3-0.1,0.6-0.1,1-0.1c0.5,0,1,0.1,1.4,0.2
			c0.4,0.2,0.7,0.4,0.9,0.6c0.2,0.3,0.3,0.6,0.4,1l-1.1,0.2c-0.1-0.3-0.2-0.6-0.4-0.8c-0.2-0.2-0.6-0.3-1-0.3
			c-0.5,0-0.9,0.1-1.1,0.3c-0.2,0.2-0.3,0.4-0.3,0.6c0,0.1,0,0.3,0.1,0.4c0.1,0.1,0.2,0.2,0.4,0.3c0.1,0,0.5,0.1,1,0.3
			c0.8,0.2,1.4,0.4,1.7,0.5c0.3,0.1,0.6,0.3,0.8,0.6s0.3,0.6,0.3,1c0,0.4-0.1,0.7-0.3,1.1c-0.2,0.3-0.5,0.6-1,0.8
			c-0.4,0.2-0.9,0.3-1.4,0.3c-0.9,0-1.5-0.2-2-0.5C333.5,182.9,333.2,182.4,333.1,181.7z"/>
		<path class="st9" d="M339.6,181.7l1.1-0.2c0.1,0.5,0.2,0.8,0.5,1c0.3,0.2,0.7,0.4,1.2,0.4c0.5,0,0.9-0.1,1.2-0.3s0.4-0.5,0.4-0.8
			c0-0.3-0.1-0.5-0.3-0.6c-0.2-0.1-0.5-0.2-1.2-0.4c-0.8-0.2-1.4-0.4-1.7-0.5c-0.3-0.2-0.6-0.4-0.7-0.6c-0.2-0.3-0.3-0.6-0.3-0.9
			c0-0.3,0.1-0.6,0.2-0.8c0.1-0.3,0.3-0.5,0.6-0.6c0.2-0.1,0.4-0.2,0.7-0.3c0.3-0.1,0.6-0.1,1-0.1c0.5,0,1,0.1,1.4,0.2
			c0.4,0.2,0.7,0.4,0.9,0.6c0.2,0.3,0.3,0.6,0.4,1l-1.1,0.2c-0.1-0.3-0.2-0.6-0.4-0.8c-0.2-0.2-0.6-0.3-1-0.3
			c-0.5,0-0.9,0.1-1.1,0.3c-0.2,0.2-0.3,0.4-0.3,0.6c0,0.1,0,0.3,0.1,0.4c0.1,0.1,0.2,0.2,0.4,0.3c0.1,0,0.5,0.1,1,0.3
			c0.8,0.2,1.4,0.4,1.7,0.5c0.3,0.1,0.6,0.3,0.8,0.6s0.3,0.6,0.3,1c0,0.4-0.1,0.7-0.3,1.1c-0.2,0.3-0.5,0.6-1,0.8
			c-0.4,0.2-0.9,0.3-1.4,0.3c-0.9,0-1.5-0.2-2-0.5C340,182.9,339.7,182.4,339.6,181.7z"/>
		<path class="st9" d="M346.6,175.7v-1.3h1.1v1.3H346.6z M346.6,183.7V177h1.1v6.7H346.6z"/>
		<path class="st9" d="M349.7,183.7v-5.9h-1V177h1v-0.7c0-0.5,0-0.8,0.1-1c0.1-0.3,0.3-0.5,0.6-0.7c0.3-0.2,0.7-0.3,1.2-0.3
			c0.3,0,0.7,0,1.1,0.1l-0.2,1c-0.2,0-0.5-0.1-0.7-0.1c-0.3,0-0.6,0.1-0.7,0.2c-0.1,0.1-0.2,0.4-0.2,0.8v0.6h1.3v0.9h-1.3v5.9H349.7
			z"/>
		<path class="st9" d="M353.1,175.7v-1.3h1.1v1.3H353.1z M353.1,183.7V177h1.1v6.7H353.1z"/>
		<path class="st9" d="M360.4,181.2l1.1,0.1c-0.1,0.8-0.4,1.4-0.9,1.8c-0.5,0.4-1.1,0.7-1.9,0.7c-0.9,0-1.7-0.3-2.2-0.9
			c-0.6-0.6-0.8-1.5-0.8-2.6c0-0.7,0.1-1.4,0.4-1.9s0.6-1,1.1-1.2c0.5-0.3,1-0.4,1.6-0.4c0.7,0,1.3,0.2,1.8,0.6
			c0.5,0.4,0.8,0.9,0.9,1.6l-1.1,0.2c-0.1-0.5-0.3-0.8-0.6-1c-0.3-0.2-0.6-0.3-1-0.3c-0.6,0-1,0.2-1.4,0.6c-0.4,0.4-0.5,1.1-0.5,2
			c0,0.9,0.2,1.6,0.5,2c0.3,0.4,0.8,0.6,1.4,0.6c0.4,0,0.8-0.1,1.1-0.4C360.1,182.2,360.3,181.8,360.4,181.2z"/>
		<path class="st9" d="M366.9,182.9c-0.4,0.4-0.8,0.6-1.2,0.8c-0.4,0.1-0.8,0.2-1.3,0.2c-0.7,0-1.3-0.2-1.7-0.5
			c-0.4-0.4-0.6-0.8-0.6-1.4c0-0.3,0.1-0.6,0.2-0.9c0.2-0.3,0.3-0.5,0.6-0.7c0.2-0.2,0.5-0.3,0.8-0.4c0.2-0.1,0.6-0.1,1-0.2
			c0.9-0.1,1.6-0.2,2-0.4c0-0.2,0-0.3,0-0.3c0-0.5-0.1-0.8-0.3-1c-0.3-0.3-0.7-0.4-1.3-0.4c-0.5,0-0.9,0.1-1.2,0.3
			c-0.3,0.2-0.4,0.5-0.6,1l-1.1-0.2c0.1-0.5,0.3-0.9,0.5-1.2c0.2-0.3,0.6-0.5,1-0.7c0.4-0.2,1-0.2,1.5-0.2c0.6,0,1,0.1,1.4,0.2
			c0.4,0.1,0.6,0.3,0.8,0.5c0.2,0.2,0.3,0.5,0.4,0.8c0,0.2,0.1,0.5,0.1,1.1v1.5c0,1.1,0,1.7,0.1,2c0,0.3,0.1,0.6,0.3,0.8h-1.2
			C367,183.5,366.9,183.2,366.9,182.9z M366.8,180.3c-0.4,0.2-1,0.3-1.9,0.4c-0.5,0.1-0.8,0.1-1,0.2c-0.2,0.1-0.3,0.2-0.5,0.4
			c-0.1,0.2-0.2,0.3-0.2,0.5c0,0.3,0.1,0.6,0.3,0.8c0.2,0.2,0.6,0.3,1,0.3c0.4,0,0.8-0.1,1.2-0.3s0.6-0.5,0.8-0.8
			c0.1-0.3,0.2-0.6,0.2-1.1V180.3z"/>
		<path class="st9" d="M372.2,182.7l0.2,1c-0.3,0.1-0.6,0.1-0.9,0.1c-0.4,0-0.7-0.1-1-0.2c-0.2-0.1-0.4-0.3-0.5-0.5
			c-0.1-0.2-0.1-0.7-0.1-1.3v-3.9h-0.8V177h0.8v-1.7l1.1-0.7v2.4h1.1v0.9H371v3.9c0,0.3,0,0.5,0.1,0.6s0.1,0.2,0.2,0.2
			c0.1,0.1,0.2,0.1,0.4,0.1C371.8,182.7,372,182.7,372.2,182.7z"/>
		<path class="st9" d="M373.3,175.7v-1.3h1.1v1.3H373.3z M373.3,183.7V177h1.1v6.7H373.3z"/>
		<path class="st9" d="M375.8,180.3c0-1.2,0.3-2.2,1-2.8c0.6-0.5,1.3-0.7,2.1-0.7c0.9,0,1.7,0.3,2.3,0.9c0.6,0.6,0.9,1.4,0.9,2.5
			c0,0.9-0.1,1.5-0.4,2c-0.3,0.5-0.6,0.9-1.1,1.2c-0.5,0.3-1,0.4-1.6,0.4c-0.9,0-1.7-0.3-2.3-0.9
			C376.1,182.3,375.8,181.5,375.8,180.3z M376.9,180.3c0,0.9,0.2,1.5,0.6,1.9c0.4,0.4,0.9,0.6,1.4,0.6c0.6,0,1-0.2,1.4-0.6
			c0.4-0.4,0.6-1.1,0.6-2c0-0.8-0.2-1.5-0.6-1.9s-0.8-0.6-1.4-0.6c-0.6,0-1,0.2-1.4,0.6C377.1,178.8,376.9,179.5,376.9,180.3z"/>
		<path class="st9" d="M383.4,183.7V177h1v1c0.5-0.7,1.2-1.1,2.1-1.1c0.4,0,0.8,0.1,1.1,0.2c0.3,0.1,0.6,0.3,0.8,0.6
			c0.2,0.2,0.3,0.5,0.4,0.8c0,0.2,0.1,0.6,0.1,1.1v4.1h-1.1v-4.1c0-0.5,0-0.8-0.1-1s-0.2-0.4-0.5-0.6c-0.2-0.1-0.5-0.2-0.8-0.2
			c-0.5,0-0.9,0.2-1.3,0.5c-0.4,0.3-0.5,0.9-0.5,1.8v3.7H383.4z"/>
	</g>
	<g class="st8">
		<path class="st9" d="M325.1,345.8v-1.1l3.9,0v3.5c-0.6,0.5-1.2,0.8-1.9,1.1s-1.3,0.4-2,0.4c-0.9,0-1.7-0.2-2.5-0.6
			c-0.7-0.4-1.3-1-1.7-1.7c-0.4-0.7-0.6-1.6-0.6-2.5c0-0.9,0.2-1.8,0.6-2.5c0.4-0.8,0.9-1.4,1.6-1.7s1.5-0.6,2.5-0.6
			c0.7,0,1.3,0.1,1.8,0.3c0.5,0.2,1,0.5,1.3,0.9s0.5,0.9,0.7,1.5l-1.1,0.3c-0.1-0.5-0.3-0.8-0.5-1.1s-0.5-0.5-0.9-0.7
			s-0.8-0.2-1.3-0.2c-0.6,0-1,0.1-1.5,0.3c-0.4,0.2-0.7,0.4-1,0.7c-0.3,0.3-0.4,0.6-0.6,0.9c-0.2,0.6-0.4,1.2-0.4,1.9
			c0,0.8,0.1,1.5,0.4,2.1c0.3,0.6,0.7,1,1.2,1.2s1.1,0.4,1.7,0.4c0.5,0,1.1-0.1,1.6-0.3s0.9-0.4,1.2-0.7v-1.7H325.1z"/>
		<path class="st9" d="M335.3,347.3l1.2,0.1c-0.2,0.7-0.5,1.2-1,1.6s-1.1,0.6-1.9,0.6c-1,0-1.8-0.3-2.3-0.9
			c-0.6-0.6-0.9-1.5-0.9-2.6c0-1.1,0.3-2,0.9-2.6s1.3-0.9,2.3-0.9c0.9,0,1.6,0.3,2.2,0.9c0.6,0.6,0.9,1.5,0.9,2.6c0,0.1,0,0.2,0,0.3
			h-5c0,0.7,0.3,1.3,0.6,1.7c0.4,0.4,0.8,0.6,1.4,0.6c0.4,0,0.8-0.1,1.1-0.3S335.1,347.8,335.3,347.3z M331.5,345.5h3.8
			c-0.1-0.6-0.2-1-0.4-1.3c-0.4-0.4-0.8-0.7-1.4-0.7c-0.5,0-1,0.2-1.3,0.5C331.8,344.4,331.6,344.9,331.5,345.5z"/>
		<path class="st9" d="M337.9,349.5v-6.7h1v1c0.5-0.7,1.2-1.1,2.1-1.1c0.4,0,0.8,0.1,1.1,0.2c0.3,0.1,0.6,0.3,0.8,0.6
			c0.2,0.2,0.3,0.5,0.4,0.8c0,0.2,0.1,0.6,0.1,1.1v4.1h-1.1v-4.1c0-0.5,0-0.8-0.1-1s-0.2-0.4-0.5-0.6c-0.2-0.1-0.5-0.2-0.8-0.2
			c-0.5,0-0.9,0.2-1.3,0.5c-0.4,0.3-0.5,0.9-0.5,1.8v3.7H337.9z"/>
		<path class="st9" d="M349.8,347.3l1.2,0.1c-0.2,0.7-0.5,1.2-1,1.6s-1.1,0.6-1.9,0.6c-1,0-1.8-0.3-2.3-0.9
			c-0.6-0.6-0.9-1.5-0.9-2.6c0-1.1,0.3-2,0.9-2.6s1.3-0.9,2.3-0.9c0.9,0,1.6,0.3,2.2,0.9c0.6,0.6,0.9,1.5,0.9,2.6c0,0.1,0,0.2,0,0.3
			h-5c0,0.7,0.3,1.3,0.6,1.7c0.4,0.4,0.8,0.6,1.4,0.6c0.4,0,0.8-0.1,1.1-0.3S349.6,347.8,349.8,347.3z M346,345.5h3.8
			c-0.1-0.6-0.2-1-0.4-1.3c-0.4-0.4-0.8-0.7-1.4-0.7c-0.5,0-1,0.2-1.3,0.5C346.2,344.4,346,344.9,346,345.5z"/>
		<path class="st9" d="M352.4,349.5v-6.7h1v1c0.3-0.5,0.5-0.8,0.7-0.9c0.2-0.2,0.5-0.2,0.7-0.2c0.4,0,0.8,0.1,1.2,0.4l-0.4,1.1
			c-0.3-0.2-0.6-0.2-0.8-0.2c-0.2,0-0.5,0.1-0.7,0.2c-0.2,0.2-0.3,0.4-0.4,0.6c-0.1,0.4-0.2,0.9-0.2,1.3v3.5H352.4z"/>
		<path class="st9" d="M361.1,348.7c-0.4,0.4-0.8,0.6-1.2,0.8c-0.4,0.1-0.8,0.2-1.3,0.2c-0.7,0-1.3-0.2-1.7-0.5
			c-0.4-0.4-0.6-0.8-0.6-1.4c0-0.3,0.1-0.6,0.2-0.9c0.2-0.3,0.3-0.5,0.6-0.7c0.2-0.2,0.5-0.3,0.8-0.4c0.2-0.1,0.6-0.1,1-0.2
			c0.9-0.1,1.6-0.2,2-0.4c0-0.2,0-0.3,0-0.3c0-0.5-0.1-0.8-0.3-1c-0.3-0.3-0.7-0.4-1.3-0.4c-0.5,0-0.9,0.1-1.2,0.3
			c-0.3,0.2-0.4,0.5-0.6,1l-1.1-0.2c0.1-0.5,0.3-0.9,0.5-1.2c0.2-0.3,0.6-0.5,1-0.7c0.4-0.2,1-0.2,1.5-0.2c0.6,0,1,0.1,1.4,0.2
			c0.4,0.1,0.6,0.3,0.8,0.5c0.2,0.2,0.3,0.5,0.4,0.8c0,0.2,0.1,0.5,0.1,1.1v1.5c0,1.1,0,1.7,0.1,2c0,0.3,0.1,0.6,0.3,0.8h-1.2
			C361.2,349.2,361.1,349,361.1,348.7z M361,346.1c-0.4,0.2-1,0.3-1.9,0.4c-0.5,0.1-0.8,0.1-1,0.2c-0.2,0.1-0.3,0.2-0.5,0.4
			c-0.1,0.2-0.2,0.3-0.2,0.5c0,0.3,0.1,0.6,0.3,0.8c0.2,0.2,0.6,0.3,1,0.3c0.4,0,0.8-0.1,1.2-0.3s0.6-0.5,0.8-0.8
			c0.1-0.3,0.2-0.6,0.2-1.1V346.1z"/>
		<path class="st9" d="M366.4,348.5l0.2,1c-0.3,0.1-0.6,0.1-0.9,0.1c-0.4,0-0.7-0.1-1-0.2c-0.2-0.1-0.4-0.3-0.5-0.5
			c-0.1-0.2-0.1-0.7-0.1-1.3v-3.9h-0.8v-0.9h0.8v-1.7l1.1-0.7v2.4h1.1v0.9h-1.1v3.9c0,0.3,0,0.5,0.1,0.6s0.1,0.2,0.2,0.2
			c0.1,0.1,0.2,0.1,0.4,0.1C366,348.5,366.2,348.5,366.4,348.5z"/>
		<path class="st9" d="M367.5,341.5v-1.3h1.1v1.3H367.5z M367.5,349.5v-6.7h1.1v6.7H367.5z"/>
		<path class="st9" d="M372.3,349.5l-2.6-6.7h1.2l1.4,4c0.2,0.4,0.3,0.9,0.4,1.4c0.1-0.4,0.2-0.8,0.4-1.3l1.5-4.1h1.2l-2.6,6.7
			H372.3z"/>
		<path class="st9" d="M381.5,347.3l1.2,0.1c-0.2,0.7-0.5,1.2-1,1.6c-0.5,0.4-1.1,0.6-1.9,0.6c-1,0-1.8-0.3-2.3-0.9
			c-0.6-0.6-0.9-1.5-0.9-2.6c0-1.1,0.3-2,0.9-2.6s1.3-0.9,2.3-0.9c0.9,0,1.6,0.3,2.2,0.9c0.6,0.6,0.9,1.5,0.9,2.6c0,0.1,0,0.2,0,0.3
			h-5c0,0.7,0.3,1.3,0.6,1.7c0.4,0.4,0.8,0.6,1.4,0.6c0.4,0,0.8-0.1,1.1-0.3C381.1,348.1,381.4,347.8,381.5,347.3z M377.8,345.5h3.8
			c-0.1-0.6-0.2-1-0.4-1.3c-0.4-0.4-0.8-0.7-1.4-0.7c-0.5,0-1,0.2-1.3,0.5C378,344.4,377.8,344.9,377.8,345.5z"/>
	</g>
	<g class="st8">
		<path class="st9" d="M325.6,403.8v-9.3h1.2v9.3H325.6z"/>
		<path class="st9" d="M328.9,403.8V397h1v1c0.5-0.7,1.2-1.1,2.1-1.1c0.4,0,0.8,0.1,1.1,0.2c0.3,0.1,0.6,0.3,0.8,0.6
			c0.2,0.2,0.3,0.5,0.4,0.8c0,0.2,0.1,0.6,0.1,1.1v4.1h-1.1v-4.1c0-0.5,0-0.8-0.1-1s-0.2-0.4-0.5-0.6c-0.2-0.1-0.5-0.2-0.8-0.2
			c-0.5,0-0.9,0.2-1.3,0.5c-0.4,0.3-0.5,0.9-0.5,1.8v3.7H328.9z"/>
		<path class="st9" d="M336.4,403.8v-5.9h-1V397h1v-0.7c0-0.5,0-0.8,0.1-1c0.1-0.3,0.3-0.5,0.6-0.7c0.3-0.2,0.7-0.3,1.2-0.3
			c0.3,0,0.7,0,1.1,0.1l-0.2,1c-0.2,0-0.5-0.1-0.7-0.1c-0.3,0-0.6,0.1-0.7,0.2c-0.1,0.1-0.2,0.4-0.2,0.8v0.6h1.3v0.9h-1.3v5.9H336.4
			z"/>
		<path class="st9" d="M344.3,401.6l1.2,0.1c-0.2,0.7-0.5,1.2-1,1.6s-1.1,0.6-1.9,0.6c-1,0-1.8-0.3-2.3-0.9
			c-0.6-0.6-0.9-1.5-0.9-2.6c0-1.1,0.3-2,0.9-2.6s1.3-0.9,2.3-0.9c0.9,0,1.6,0.3,2.2,0.9c0.6,0.6,0.9,1.5,0.9,2.6c0,0.1,0,0.2,0,0.3
			h-5c0,0.7,0.3,1.3,0.6,1.7c0.4,0.4,0.8,0.6,1.4,0.6c0.4,0,0.8-0.1,1.1-0.3S344.2,402.1,344.3,401.6z M340.6,399.7h3.8
			c-0.1-0.6-0.2-1-0.4-1.3c-0.4-0.4-0.8-0.7-1.4-0.7c-0.5,0-1,0.2-1.3,0.5C340.8,398.7,340.6,399.1,340.6,399.7z"/>
		<path class="st9" d="M346.9,403.8V397h1v1c0.3-0.5,0.5-0.8,0.7-0.9c0.2-0.2,0.5-0.2,0.7-0.2c0.4,0,0.8,0.1,1.2,0.4l-0.4,1.1
			c-0.3-0.2-0.6-0.2-0.8-0.2c-0.2,0-0.5,0.1-0.7,0.2s-0.3,0.4-0.4,0.6c-0.1,0.4-0.2,0.9-0.2,1.3v3.5H346.9z"/>
		<path class="st9" d="M355.9,401.6l1.2,0.1c-0.2,0.7-0.5,1.2-1,1.6c-0.5,0.4-1.1,0.6-1.9,0.6c-1,0-1.8-0.3-2.3-0.9
			c-0.6-0.6-0.9-1.5-0.9-2.6c0-1.1,0.3-2,0.9-2.6s1.3-0.9,2.3-0.9c0.9,0,1.6,0.3,2.2,0.9c0.6,0.6,0.9,1.5,0.9,2.6c0,0.1,0,0.2,0,0.3
			h-5c0,0.7,0.3,1.3,0.6,1.7c0.4,0.4,0.8,0.6,1.4,0.6c0.4,0,0.8-0.1,1.1-0.3C355.5,402.4,355.7,402.1,355.9,401.6z M352.1,399.7h3.8
			c-0.1-0.6-0.2-1-0.4-1.3c-0.4-0.4-0.8-0.7-1.4-0.7c-0.5,0-1,0.2-1.3,0.5C352.4,398.7,352.2,399.1,352.1,399.7z"/>
		<path class="st9" d="M358.5,403.8V397h1v1c0.5-0.7,1.2-1.1,2.1-1.1c0.4,0,0.8,0.1,1.1,0.2c0.3,0.1,0.6,0.3,0.8,0.6
			c0.2,0.2,0.3,0.5,0.4,0.8c0,0.2,0.1,0.6,0.1,1.1v4.1h-1.1v-4.1c0-0.5,0-0.8-0.1-1s-0.2-0.4-0.5-0.6c-0.2-0.1-0.5-0.2-0.8-0.2
			c-0.5,0-0.9,0.2-1.3,0.5c-0.4,0.3-0.5,0.9-0.5,1.8v3.7H358.5z"/>
		<path class="st9" d="M370.1,401.3l1.1,0.1c-0.1,0.8-0.4,1.4-0.9,1.8c-0.5,0.4-1.1,0.7-1.9,0.7c-0.9,0-1.7-0.3-2.2-0.9
			c-0.6-0.6-0.8-1.5-0.8-2.6c0-0.7,0.1-1.4,0.4-1.9s0.6-1,1.1-1.2c0.5-0.3,1-0.4,1.6-0.4c0.7,0,1.3,0.2,1.8,0.6
			c0.5,0.4,0.8,0.9,0.9,1.6l-1.1,0.2c-0.1-0.5-0.3-0.8-0.6-1s-0.6-0.3-1-0.3c-0.6,0-1,0.2-1.4,0.6c-0.4,0.4-0.5,1.1-0.5,2
			c0,0.9,0.2,1.6,0.5,2c0.3,0.4,0.8,0.6,1.4,0.6c0.4,0,0.8-0.1,1.1-0.4C369.9,402.3,370,401.9,370.1,401.3z"/>
		<path class="st9" d="M376.8,401.6l1.2,0.1c-0.2,0.7-0.5,1.2-1,1.6c-0.5,0.4-1.1,0.6-1.9,0.6c-1,0-1.8-0.3-2.3-0.9
			c-0.6-0.6-0.9-1.5-0.9-2.6c0-1.1,0.3-2,0.9-2.6s1.3-0.9,2.3-0.9c0.9,0,1.6,0.3,2.2,0.9c0.6,0.6,0.9,1.5,0.9,2.6c0,0.1,0,0.2,0,0.3
			h-5c0,0.7,0.3,1.3,0.6,1.7c0.4,0.4,0.8,0.6,1.4,0.6c0.4,0,0.8-0.1,1.1-0.3C376.4,402.4,376.7,402.1,376.8,401.6z M373.1,399.7h3.8
			c-0.1-0.6-0.2-1-0.4-1.3c-0.4-0.4-0.8-0.7-1.4-0.7c-0.5,0-1,0.2-1.3,0.5C373.3,398.7,373.1,399.1,373.1,399.7z"/>
	</g>
	<g class="st8">
		<path class="st9" d="M55.8,234.9l1.2-0.1c0.1,0.5,0.2,0.8,0.4,1.1c0.2,0.3,0.5,0.5,0.9,0.7c0.4,0.2,0.9,0.3,1.4,0.3
			c0.5,0,0.9-0.1,1.2-0.2s0.6-0.3,0.8-0.6c0.2-0.2,0.3-0.5,0.3-0.8c0-0.3-0.1-0.5-0.3-0.8s-0.4-0.4-0.8-0.5
			c-0.2-0.1-0.8-0.2-1.7-0.5s-1.5-0.4-1.8-0.6c-0.4-0.2-0.8-0.5-1-0.9c-0.2-0.3-0.3-0.7-0.3-1.2c0-0.5,0.1-0.9,0.4-1.3
			s0.7-0.7,1.2-0.9c0.5-0.2,1.1-0.3,1.7-0.3c0.7,0,1.3,0.1,1.8,0.3c0.5,0.2,0.9,0.5,1.2,1s0.4,0.9,0.5,1.5l-1.2,0.1
			c-0.1-0.6-0.3-1-0.6-1.3c-0.4-0.3-0.9-0.5-1.6-0.5c-0.7,0-1.3,0.1-1.6,0.4c-0.3,0.3-0.5,0.6-0.5,1c0,0.3,0.1,0.6,0.4,0.8
			c0.2,0.2,0.9,0.4,1.9,0.7c1,0.2,1.7,0.4,2.1,0.6c0.5,0.2,0.9,0.6,1.2,0.9s0.4,0.8,0.4,1.3c0,0.5-0.1,1-0.4,1.4
			c-0.3,0.4-0.7,0.8-1.2,1c-0.5,0.2-1.1,0.4-1.8,0.4c-0.8,0-1.5-0.1-2.1-0.4c-0.6-0.2-1-0.6-1.3-1.1C56,236.1,55.8,235.5,55.8,234.9
			z"/>
		<path class="st9" d="M69.2,237.9v-1c-0.5,0.8-1.2,1.1-2.1,1.1c-0.4,0-0.8-0.1-1.1-0.2c-0.3-0.2-0.6-0.3-0.8-0.6
			c-0.2-0.2-0.3-0.5-0.4-0.8c0-0.2-0.1-0.6-0.1-1.1v-4.2h1.1v3.7c0,0.6,0,1,0.1,1.2c0.1,0.3,0.2,0.5,0.5,0.7
			c0.2,0.2,0.5,0.3,0.9,0.3s0.7-0.1,1-0.3s0.5-0.4,0.6-0.7c0.1-0.3,0.2-0.7,0.2-1.3v-3.6h1.1v6.7H69.2z"/>
		<path class="st9" d="M72,240.5v-9.3h1v0.9c0.2-0.3,0.5-0.6,0.8-0.8c0.3-0.2,0.7-0.3,1.1-0.3c0.6,0,1.1,0.1,1.5,0.4s0.8,0.7,1,1.3
			c0.2,0.5,0.3,1.1,0.3,1.8c0,0.7-0.1,1.3-0.4,1.9c-0.2,0.6-0.6,1-1.1,1.3c-0.5,0.3-1,0.4-1.5,0.4c-0.4,0-0.7-0.1-1-0.2
			c-0.3-0.2-0.6-0.4-0.7-0.6v3.3H72z M73,234.6c0,0.9,0.2,1.5,0.5,1.9s0.8,0.6,1.3,0.6c0.5,0,0.9-0.2,1.3-0.6c0.4-0.4,0.5-1.1,0.5-2
			c0-0.9-0.2-1.5-0.5-1.9c-0.4-0.4-0.8-0.6-1.3-0.6c-0.5,0-0.9,0.2-1.3,0.7C73.2,233.1,73,233.7,73,234.6z"/>
		<path class="st9" d="M83.8,235.7l1.2,0.1c-0.2,0.7-0.5,1.2-1,1.6s-1.1,0.6-1.9,0.6c-1,0-1.8-0.3-2.3-0.9c-0.6-0.6-0.9-1.5-0.9-2.6
			c0-1.1,0.3-2,0.9-2.6S81,231,82,231c0.9,0,1.6,0.3,2.2,0.9c0.6,0.6,0.9,1.5,0.9,2.6c0,0.1,0,0.2,0,0.3h-5c0,0.7,0.3,1.3,0.6,1.7
			c0.4,0.4,0.8,0.6,1.4,0.6c0.4,0,0.8-0.1,1.1-0.3S83.6,236.2,83.8,235.7z M80.1,233.9h3.8c-0.1-0.6-0.2-1-0.4-1.3
			c-0.4-0.4-0.8-0.7-1.4-0.7c-0.5,0-1,0.2-1.3,0.5C80.3,232.8,80.1,233.3,80.1,233.9z"/>
		<path class="st9" d="M86.4,237.9v-6.7h1v1c0.3-0.5,0.5-0.8,0.7-0.9c0.2-0.2,0.5-0.2,0.7-0.2c0.4,0,0.8,0.1,1.2,0.4l-0.4,1.1
			c-0.3-0.2-0.6-0.2-0.8-0.2c-0.2,0-0.5,0.1-0.7,0.2s-0.3,0.4-0.4,0.6c-0.1,0.4-0.2,0.9-0.2,1.3v3.5H86.4z"/>
		<path class="st9" d="M92.6,237.9l-2.6-6.7h1.2l1.4,4c0.2,0.4,0.3,0.9,0.4,1.4c0.1-0.4,0.2-0.8,0.4-1.3l1.5-4.1h1.2l-2.6,6.7H92.6z
			"/>
		<path class="st9" d="M97.3,229.9v-1.3h1.1v1.3H97.3z M97.3,237.9v-6.7h1.1v6.7H97.3z"/>
		<path class="st9" d="M99.7,235.9l1.1-0.2c0.1,0.5,0.2,0.8,0.5,1c0.3,0.2,0.7,0.4,1.2,0.4c0.5,0,0.9-0.1,1.2-0.3s0.4-0.5,0.4-0.8
			c0-0.3-0.1-0.5-0.3-0.6c-0.2-0.1-0.5-0.2-1.2-0.4c-0.8-0.2-1.4-0.4-1.7-0.5c-0.3-0.2-0.6-0.4-0.7-0.6c-0.2-0.3-0.3-0.6-0.3-0.9
			c0-0.3,0.1-0.6,0.2-0.8c0.1-0.3,0.3-0.5,0.6-0.6c0.2-0.1,0.4-0.2,0.7-0.3c0.3-0.1,0.6-0.1,1-0.1c0.5,0,1,0.1,1.4,0.2
			c0.4,0.2,0.7,0.4,0.9,0.6c0.2,0.3,0.3,0.6,0.4,1l-1.1,0.2c-0.1-0.3-0.2-0.6-0.4-0.8c-0.2-0.2-0.6-0.3-1-0.3
			c-0.5,0-0.9,0.1-1.1,0.3c-0.2,0.2-0.3,0.4-0.3,0.6c0,0.1,0,0.3,0.1,0.4c0.1,0.1,0.2,0.2,0.4,0.3c0.1,0,0.5,0.1,1,0.3
			c0.8,0.2,1.4,0.4,1.7,0.5c0.3,0.1,0.6,0.3,0.8,0.6s0.3,0.6,0.3,1c0,0.4-0.1,0.7-0.3,1.1c-0.2,0.3-0.5,0.6-1,0.8
			c-0.4,0.2-0.9,0.3-1.4,0.3c-0.9,0-1.5-0.2-2-0.5C100.1,237.2,99.8,236.6,99.7,235.9z"/>
		<path class="st9" d="M111.3,235.7l1.2,0.1c-0.2,0.7-0.5,1.2-1,1.6s-1.1,0.6-1.9,0.6c-1,0-1.8-0.3-2.3-0.9
			c-0.6-0.6-0.9-1.5-0.9-2.6c0-1.1,0.3-2,0.9-2.6s1.3-0.9,2.3-0.9c0.9,0,1.6,0.3,2.2,0.9c0.6,0.6,0.9,1.5,0.9,2.6c0,0.1,0,0.2,0,0.3
			h-5c0,0.7,0.3,1.3,0.6,1.7c0.4,0.4,0.8,0.6,1.4,0.6c0.4,0,0.8-0.1,1.1-0.3S111.1,236.2,111.3,235.7z M107.5,233.9h3.8
			c-0.1-0.6-0.2-1-0.4-1.3c-0.4-0.4-0.8-0.7-1.4-0.7c-0.5,0-1,0.2-1.3,0.5C107.7,232.8,107.5,233.3,107.5,233.9z"/>
		<path class="st9" d="M118.3,237.9v-0.9c-0.4,0.7-1.1,1-1.9,1c-0.5,0-1-0.1-1.5-0.4c-0.5-0.3-0.8-0.7-1-1.2
			c-0.2-0.5-0.4-1.1-0.4-1.8c0-0.7,0.1-1.3,0.3-1.8s0.6-1,1-1.3c0.4-0.3,1-0.4,1.5-0.4c0.4,0,0.8,0.1,1.1,0.3
			c0.3,0.2,0.6,0.4,0.8,0.7v-3.3h1.1v9.3H118.3z M114.6,234.6c0,0.9,0.2,1.5,0.5,1.9c0.4,0.4,0.8,0.6,1.3,0.6c0.5,0,0.9-0.2,1.3-0.6
			c0.3-0.4,0.5-1,0.5-1.9c0-0.9-0.2-1.6-0.5-2s-0.8-0.6-1.3-0.6c-0.5,0-0.9,0.2-1.3,0.6C114.8,233,114.6,233.7,114.6,234.6z"/>
	</g>
	<g class="st8">
		<path class="st9" d="M92.8,94.2V86h-3.1v-1.1h7.4V86H94v8.2H92.8z"/>
		<path class="st9" d="M97.4,96.8l-0.1-1.1c0.2,0.1,0.5,0.1,0.7,0.1c0.3,0,0.5,0,0.6-0.1s0.3-0.2,0.4-0.4c0.1-0.1,0.2-0.4,0.3-0.9
			c0-0.1,0.1-0.2,0.1-0.3l-2.6-6.8h1.2l1.4,3.9c0.2,0.5,0.3,1,0.5,1.6c0.1-0.5,0.3-1,0.5-1.5l1.4-3.9h1.1l-2.6,6.9
			c-0.3,0.7-0.5,1.3-0.6,1.5c-0.2,0.4-0.4,0.7-0.7,0.8s-0.6,0.3-0.9,0.3C97.9,96.9,97.7,96.9,97.4,96.8z"/>
		<path class="st9" d="M104,96.8v-9.3h1v0.9c0.2-0.3,0.5-0.6,0.8-0.8c0.3-0.2,0.7-0.3,1.1-0.3c0.6,0,1.1,0.1,1.5,0.4s0.8,0.7,1,1.3
			c0.2,0.5,0.3,1.1,0.3,1.8c0,0.7-0.1,1.3-0.4,1.9c-0.2,0.6-0.6,1-1.1,1.3c-0.5,0.3-1,0.4-1.5,0.4c-0.4,0-0.7-0.1-1-0.2
			c-0.3-0.2-0.6-0.4-0.7-0.6v3.3H104z M105,90.9c0,0.9,0.2,1.5,0.5,1.9s0.8,0.6,1.3,0.6c0.5,0,0.9-0.2,1.3-0.6
			c0.4-0.4,0.5-1.1,0.5-2c0-0.9-0.2-1.5-0.5-1.9c-0.4-0.4-0.8-0.6-1.3-0.6c-0.5,0-0.9,0.2-1.3,0.7C105.2,89.3,105,90,105,90.9z"/>
		<path class="st9" d="M115.8,92l1.2,0.1c-0.2,0.7-0.5,1.2-1,1.6s-1.1,0.6-1.9,0.6c-1,0-1.8-0.3-2.3-0.9c-0.6-0.6-0.9-1.5-0.9-2.6
			c0-1.1,0.3-2,0.9-2.6s1.3-0.9,2.3-0.9c0.9,0,1.6,0.3,2.2,0.9c0.6,0.6,0.9,1.5,0.9,2.6c0,0.1,0,0.2,0,0.3h-5c0,0.7,0.3,1.3,0.6,1.7
			c0.4,0.4,0.8,0.6,1.4,0.6c0.4,0,0.8-0.1,1.1-0.3S115.6,92.5,115.8,92z M112.1,90.2h3.8c-0.1-0.6-0.2-1-0.4-1.3
			c-0.4-0.4-0.8-0.7-1.4-0.7c-0.5,0-1,0.2-1.3,0.5C112.3,89.1,112.1,89.6,112.1,90.2z"/>
		<path class="st9" d="M121.6,90.8c0-1.2,0.3-2.2,1-2.8c0.6-0.5,1.3-0.7,2.1-0.7c0.9,0,1.7,0.3,2.3,0.9s0.9,1.4,0.9,2.5
			c0,0.9-0.1,1.5-0.4,2c-0.3,0.5-0.6,0.9-1.1,1.2c-0.5,0.3-1,0.4-1.6,0.4c-0.9,0-1.7-0.3-2.3-0.9C121.9,92.8,121.6,92,121.6,90.8z
			 M122.8,90.8c0,0.9,0.2,1.5,0.6,1.9s0.9,0.6,1.4,0.6c0.6,0,1-0.2,1.4-0.6s0.6-1.1,0.6-2c0-0.8-0.2-1.5-0.6-1.9
			c-0.4-0.4-0.8-0.6-1.4-0.6c-0.6,0-1,0.2-1.4,0.6S122.8,90,122.8,90.8z"/>
		<path class="st9" d="M129.5,94.2v-5.9h-1v-0.9h1v-0.7c0-0.5,0-0.8,0.1-1c0.1-0.3,0.3-0.5,0.6-0.7c0.3-0.2,0.7-0.3,1.2-0.3
			c0.3,0,0.7,0,1.1,0.1l-0.2,1c-0.2,0-0.5-0.1-0.7-0.1c-0.3,0-0.6,0.1-0.7,0.2c-0.1,0.1-0.2,0.4-0.2,0.8v0.6h1.3v0.9h-1.3v5.9H129.5
			z"/>
		<path class="st9" d="M136.6,94.2v-9.3h1.2v8.2h4.6v1.1H136.6z"/>
		<path class="st9" d="M148.3,92l1.2,0.1c-0.2,0.7-0.5,1.2-1,1.6s-1.1,0.6-1.9,0.6c-1,0-1.8-0.3-2.3-0.9c-0.6-0.6-0.9-1.5-0.9-2.6
			c0-1.1,0.3-2,0.9-2.6s1.3-0.9,2.3-0.9c0.9,0,1.6,0.3,2.2,0.9c0.6,0.6,0.9,1.5,0.9,2.6c0,0.1,0,0.2,0,0.3h-5c0,0.7,0.3,1.3,0.6,1.7
			c0.4,0.4,0.8,0.6,1.4,0.6c0.4,0,0.8-0.1,1.1-0.3S148.2,92.5,148.3,92z M144.6,90.2h3.8c-0.1-0.6-0.2-1-0.4-1.3
			c-0.4-0.4-0.8-0.7-1.4-0.7c-0.5,0-1,0.2-1.3,0.5C144.8,89.1,144.6,89.6,144.6,90.2z"/>
		<path class="st9" d="M155.4,93.4c-0.4,0.4-0.8,0.6-1.2,0.8c-0.4,0.1-0.8,0.2-1.3,0.2c-0.7,0-1.3-0.2-1.7-0.5
			c-0.4-0.4-0.6-0.8-0.6-1.4c0-0.3,0.1-0.6,0.2-0.9c0.1-0.3,0.3-0.5,0.6-0.7c0.2-0.2,0.5-0.3,0.8-0.4c0.2-0.1,0.6-0.1,1-0.2
			c0.9-0.1,1.6-0.2,2-0.4c0-0.2,0-0.3,0-0.3c0-0.5-0.1-0.8-0.3-1c-0.3-0.3-0.7-0.4-1.3-0.4c-0.5,0-0.9,0.1-1.2,0.3
			c-0.3,0.2-0.4,0.5-0.6,1l-1.1-0.2c0.1-0.5,0.3-0.9,0.5-1.2s0.6-0.5,1-0.7c0.4-0.2,1-0.2,1.5-0.2c0.6,0,1,0.1,1.4,0.2
			s0.6,0.3,0.8,0.5s0.3,0.5,0.4,0.8c0,0.2,0.1,0.5,0.1,1.1v1.5c0,1.1,0,1.7,0.1,2c0,0.3,0.1,0.6,0.3,0.8h-1.2
			C155.5,94,155.4,93.7,155.4,93.4z M155.3,90.8c-0.4,0.2-1,0.3-1.9,0.4c-0.5,0.1-0.8,0.1-1,0.2c-0.2,0.1-0.3,0.2-0.5,0.4
			s-0.2,0.3-0.2,0.5c0,0.3,0.1,0.6,0.3,0.8c0.2,0.2,0.6,0.3,1,0.3c0.4,0,0.8-0.1,1.2-0.3s0.6-0.5,0.8-0.8c0.1-0.3,0.2-0.6,0.2-1.1
			V90.8z"/>
		<path class="st9" d="M158.2,94.2v-6.7h1v1c0.3-0.5,0.5-0.8,0.7-0.9c0.2-0.2,0.5-0.2,0.7-0.2c0.4,0,0.8,0.1,1.2,0.4l-0.4,1.1
			c-0.3-0.2-0.6-0.2-0.8-0.2c-0.2,0-0.5,0.1-0.7,0.2s-0.3,0.4-0.4,0.6c-0.1,0.4-0.2,0.9-0.2,1.3v3.5H158.2z"/>
		<path class="st9" d="M162.5,94.2v-6.7h1v1c0.5-0.7,1.2-1.1,2.1-1.1c0.4,0,0.8,0.1,1.1,0.2c0.3,0.1,0.6,0.3,0.8,0.6
			c0.2,0.2,0.3,0.5,0.4,0.8c0,0.2,0.1,0.6,0.1,1.1v4.1h-1.1v-4.1c0-0.5,0-0.8-0.1-1s-0.2-0.4-0.5-0.6c-0.2-0.1-0.5-0.2-0.8-0.2
			c-0.5,0-0.9,0.2-1.3,0.5c-0.4,0.3-0.5,0.9-0.5,1.8v3.7H162.5z"/>
		<path class="st9" d="M169.8,86.2v-1.3h1.1v1.3H169.8z M169.8,94.2v-6.7h1.1v6.7H169.8z"/>
		<path class="st9" d="M172.6,94.2v-6.7h1v1c0.5-0.7,1.2-1.1,2.1-1.1c0.4,0,0.8,0.1,1.1,0.2c0.3,0.1,0.6,0.3,0.8,0.6
			c0.2,0.2,0.3,0.5,0.4,0.8c0,0.2,0.1,0.6,0.1,1.1v4.1H177v-4.1c0-0.5,0-0.8-0.1-1s-0.2-0.4-0.5-0.6c-0.2-0.1-0.5-0.2-0.8-0.2
			c-0.5,0-0.9,0.2-1.3,0.5c-0.4,0.3-0.5,0.9-0.5,1.8v3.7H172.6z"/>
		<path class="st9" d="M179.7,94.7l1.1,0.2c0,0.3,0.2,0.6,0.4,0.7c0.3,0.2,0.7,0.3,1.2,0.3c0.5,0,0.9-0.1,1.2-0.3s0.5-0.5,0.6-0.9
			c0.1-0.2,0.1-0.7,0.1-1.5c-0.5,0.6-1.1,0.9-1.9,0.9c-0.9,0-1.6-0.3-2.2-1s-0.8-1.5-0.8-2.4c0-0.6,0.1-1.2,0.3-1.8s0.6-1,1-1.3
			c0.4-0.3,1-0.4,1.6-0.4c0.8,0,1.5,0.3,2,1v-0.8h1.1v5.8c0,1-0.1,1.8-0.3,2.2c-0.2,0.4-0.6,0.8-1,1c-0.5,0.3-1,0.4-1.7,0.4
			c-0.8,0-1.5-0.2-1.9-0.5C179.9,96,179.6,95.5,179.7,94.7z M180.6,90.7c0,0.9,0.2,1.5,0.5,1.9s0.8,0.6,1.3,0.6c0.5,0,1-0.2,1.3-0.6
			s0.5-1,0.5-1.9c0-0.8-0.2-1.4-0.5-1.9c-0.4-0.4-0.8-0.6-1.3-0.6c-0.5,0-0.9,0.2-1.3,0.6C180.8,89.3,180.6,89.9,180.6,90.7z"/>
	</g>
	<g class="st8">
		<path class="st9" d="M296.4,94.2V86h-3.1v-1.1h7.4V86h-3.1v8.2H296.4z"/>
		<path class="st9" d="M305,92l1.2,0.1c-0.2,0.7-0.5,1.2-1,1.6s-1.1,0.6-1.9,0.6c-1,0-1.8-0.3-2.3-0.9c-0.6-0.6-0.9-1.5-0.9-2.6
			c0-1.1,0.3-2,0.9-2.6s1.3-0.9,2.3-0.9c0.9,0,1.6,0.3,2.2,0.9c0.6,0.6,0.9,1.5,0.9,2.6c0,0.1,0,0.2,0,0.3h-5c0,0.7,0.3,1.3,0.6,1.7
			c0.4,0.4,0.8,0.6,1.4,0.6c0.4,0,0.8-0.1,1.1-0.3S304.9,92.5,305,92z M301.3,90.2h3.8c-0.1-0.6-0.2-1-0.4-1.3
			c-0.4-0.4-0.8-0.7-1.4-0.7c-0.5,0-1,0.2-1.3,0.5C301.5,89.1,301.3,89.6,301.3,90.2z"/>
		<path class="st9" d="M312,91.7l1.1,0.1c-0.1,0.8-0.4,1.4-0.9,1.8c-0.5,0.4-1.1,0.7-1.9,0.7c-0.9,0-1.7-0.3-2.2-0.9
			c-0.6-0.6-0.8-1.5-0.8-2.6c0-0.7,0.1-1.4,0.4-1.9s0.6-1,1.1-1.2c0.5-0.3,1-0.4,1.6-0.4c0.7,0,1.3,0.2,1.8,0.6s0.8,0.9,0.9,1.6
			l-1.1,0.2c-0.1-0.5-0.3-0.8-0.6-1c-0.3-0.2-0.6-0.3-1-0.3c-0.6,0-1,0.2-1.4,0.6c-0.4,0.4-0.5,1.1-0.5,2c0,0.9,0.2,1.6,0.5,2
			c0.3,0.4,0.8,0.6,1.4,0.6c0.4,0,0.8-0.1,1.1-0.4C311.8,92.7,312,92.3,312,91.7z"/>
		<path class="st9" d="M314.1,94.2v-9.3h1.1v3.3c0.5-0.6,1.2-0.9,2-0.9c0.5,0,0.9,0.1,1.3,0.3c0.4,0.2,0.6,0.5,0.8,0.8
			c0.2,0.3,0.2,0.9,0.2,1.5v4.3h-1.1v-4.3c0-0.6-0.1-1-0.4-1.2c-0.2-0.3-0.6-0.4-1.1-0.4c-0.3,0-0.7,0.1-1,0.3
			c-0.3,0.2-0.5,0.4-0.6,0.7c-0.1,0.3-0.2,0.7-0.2,1.2v3.7H314.1z"/>
		<path class="st9" d="M321.4,94.2v-6.7h1v1c0.5-0.7,1.2-1.1,2.1-1.1c0.4,0,0.8,0.1,1.1,0.2c0.3,0.1,0.6,0.3,0.8,0.6
			c0.2,0.2,0.3,0.5,0.4,0.8c0,0.2,0.1,0.6,0.1,1.1v4.1h-1.1v-4.1c0-0.5,0-0.8-0.1-1s-0.2-0.4-0.5-0.6c-0.2-0.1-0.5-0.2-0.8-0.2
			c-0.5,0-0.9,0.2-1.3,0.5c-0.4,0.3-0.5,0.9-0.5,1.8v3.7H321.4z"/>
		<path class="st9" d="M328.6,86.2v-1.3h1.1v1.3H328.6z M328.6,94.2v-6.7h1.1v6.7H328.6z"/>
		<path class="st9" d="M335.9,91.7l1.1,0.1c-0.1,0.8-0.4,1.4-0.9,1.8c-0.5,0.4-1.1,0.7-1.9,0.7c-0.9,0-1.7-0.3-2.2-0.9
			c-0.6-0.6-0.8-1.5-0.8-2.6c0-0.7,0.1-1.4,0.4-1.9s0.6-1,1.1-1.2c0.5-0.3,1-0.4,1.6-0.4c0.7,0,1.3,0.2,1.8,0.6s0.8,0.9,0.9,1.6
			l-1.1,0.2c-0.1-0.5-0.3-0.8-0.6-1c-0.3-0.2-0.6-0.3-1-0.3c-0.6,0-1,0.2-1.4,0.6c-0.4,0.4-0.5,1.1-0.5,2c0,0.9,0.2,1.6,0.5,2
			c0.3,0.4,0.8,0.6,1.4,0.6c0.4,0,0.8-0.1,1.1-0.4C335.6,92.7,335.8,92.3,335.9,91.7z"/>
		<path class="st9" d="M342.4,93.4c-0.4,0.4-0.8,0.6-1.2,0.8c-0.4,0.1-0.8,0.2-1.3,0.2c-0.7,0-1.3-0.2-1.7-0.5
			c-0.4-0.4-0.6-0.8-0.6-1.4c0-0.3,0.1-0.6,0.2-0.9c0.1-0.3,0.3-0.5,0.6-0.7c0.2-0.2,0.5-0.3,0.8-0.4c0.2-0.1,0.6-0.1,1-0.2
			c0.9-0.1,1.6-0.2,2-0.4c0-0.2,0-0.3,0-0.3c0-0.5-0.1-0.8-0.3-1c-0.3-0.3-0.7-0.4-1.3-0.4c-0.5,0-0.9,0.1-1.2,0.3
			c-0.3,0.2-0.4,0.5-0.6,1l-1.1-0.2c0.1-0.5,0.3-0.9,0.5-1.2s0.6-0.5,1-0.7c0.4-0.2,1-0.2,1.5-0.2c0.6,0,1,0.1,1.4,0.2
			s0.6,0.3,0.8,0.5s0.3,0.5,0.4,0.8c0,0.2,0.1,0.5,0.1,1.1v1.5c0,1.1,0,1.7,0.1,2c0,0.3,0.1,0.6,0.3,0.8h-1.2
			C342.5,94,342.4,93.7,342.4,93.4z M342.3,90.8c-0.4,0.2-1,0.3-1.9,0.4c-0.5,0.1-0.8,0.1-1,0.2c-0.2,0.1-0.3,0.2-0.5,0.4
			s-0.2,0.3-0.2,0.5c0,0.3,0.1,0.6,0.3,0.8c0.2,0.2,0.6,0.3,1,0.3c0.4,0,0.8-0.1,1.2-0.3s0.6-0.5,0.8-0.8c0.1-0.3,0.2-0.6,0.2-1.1
			V90.8z"/>
		<path class="st9" d="M345.2,94.2v-9.3h1.1v9.3H345.2z"/>
		<path class="st9" d="M350.1,94.2l3.6-9.3h1.3l3.8,9.3h-1.4l-1.1-2.8h-3.9l-1,2.8H350.1z M352.8,90.4h3.2l-1-2.6
			c-0.3-0.8-0.5-1.4-0.7-1.9c-0.1,0.6-0.3,1.2-0.5,1.8L352.8,90.4z"/>
		<path class="st9" d="M359.7,96.8v-9.3h1v0.9c0.2-0.3,0.5-0.6,0.8-0.8c0.3-0.2,0.7-0.3,1.1-0.3c0.6,0,1.1,0.1,1.5,0.4
			c0.4,0.3,0.8,0.7,1,1.3c0.2,0.5,0.3,1.1,0.3,1.8c0,0.7-0.1,1.3-0.4,1.9c-0.2,0.6-0.6,1-1.1,1.3c-0.5,0.3-1,0.4-1.5,0.4
			c-0.4,0-0.7-0.1-1-0.2c-0.3-0.2-0.6-0.4-0.7-0.6v3.3H359.7z M360.7,90.9c0,0.9,0.2,1.5,0.5,1.9c0.4,0.4,0.8,0.6,1.3,0.6
			c0.5,0,0.9-0.2,1.3-0.6c0.4-0.4,0.5-1.1,0.5-2c0-0.9-0.2-1.5-0.5-1.9s-0.8-0.6-1.3-0.6c-0.5,0-0.9,0.2-1.3,0.7
			C360.9,89.3,360.7,90,360.7,90.9z"/>
		<path class="st9" d="M366.9,96.8v-9.3h1v0.9c0.2-0.3,0.5-0.6,0.8-0.8c0.3-0.2,0.7-0.3,1.1-0.3c0.6,0,1.1,0.1,1.5,0.4
			c0.4,0.3,0.8,0.7,1,1.3c0.2,0.5,0.3,1.1,0.3,1.8c0,0.7-0.1,1.3-0.4,1.9c-0.2,0.6-0.6,1-1.1,1.3s-1,0.4-1.5,0.4
			c-0.4,0-0.7-0.1-1-0.2s-0.6-0.4-0.7-0.6v3.3H366.9z M367.9,90.9c0,0.9,0.2,1.5,0.5,1.9c0.4,0.4,0.8,0.6,1.3,0.6
			c0.5,0,0.9-0.2,1.3-0.6c0.4-0.4,0.5-1.1,0.5-2c0-0.9-0.2-1.5-0.5-1.9c-0.4-0.4-0.8-0.6-1.3-0.6c-0.5,0-0.9,0.2-1.3,0.7
			C368.1,89.3,367.9,90,367.9,90.9z"/>
		<path class="st9" d="M374.1,94.2v-9.3h1.1v9.3H374.1z"/>
		<path class="st9" d="M377,86.2v-1.3h1.1v1.3H377z M377,94.2v-6.7h1.1v6.7H377z"/>
		<path class="st9" d="M384.3,91.7l1.1,0.1c-0.1,0.8-0.4,1.4-0.9,1.8c-0.5,0.4-1.1,0.7-1.9,0.7c-0.9,0-1.7-0.3-2.2-0.9
			c-0.6-0.6-0.8-1.5-0.8-2.6c0-0.7,0.1-1.4,0.4-1.9s0.6-1,1.1-1.2c0.5-0.3,1-0.4,1.6-0.4c0.7,0,1.3,0.2,1.8,0.6
			c0.5,0.4,0.8,0.9,0.9,1.6l-1.1,0.2c-0.1-0.5-0.3-0.8-0.6-1c-0.3-0.2-0.6-0.3-1-0.3c-0.6,0-1,0.2-1.4,0.6c-0.4,0.4-0.5,1.1-0.5,2
			c0,0.9,0.2,1.6,0.5,2c0.3,0.4,0.8,0.6,1.4,0.6c0.4,0,0.8-0.1,1.1-0.4C384,92.7,384.2,92.3,384.3,91.7z"/>
		<path class="st9" d="M390.8,93.4c-0.4,0.4-0.8,0.6-1.2,0.8c-0.4,0.1-0.8,0.2-1.3,0.2c-0.7,0-1.3-0.2-1.7-0.5
			c-0.4-0.4-0.6-0.8-0.6-1.4c0-0.3,0.1-0.6,0.2-0.9c0.2-0.3,0.3-0.5,0.6-0.7c0.2-0.2,0.5-0.3,0.8-0.4c0.2-0.1,0.6-0.1,1-0.2
			c0.9-0.1,1.6-0.2,2-0.4c0-0.2,0-0.3,0-0.3c0-0.5-0.1-0.8-0.3-1c-0.3-0.3-0.7-0.4-1.3-0.4c-0.5,0-0.9,0.1-1.2,0.3
			c-0.3,0.2-0.4,0.5-0.6,1l-1.1-0.2c0.1-0.5,0.3-0.9,0.5-1.2c0.2-0.3,0.6-0.5,1-0.7c0.4-0.2,1-0.2,1.5-0.2c0.6,0,1,0.1,1.4,0.2
			c0.4,0.1,0.6,0.3,0.8,0.5c0.2,0.2,0.3,0.5,0.4,0.8c0,0.2,0.1,0.5,0.1,1.1v1.5c0,1.1,0,1.7,0.1,2c0,0.3,0.1,0.6,0.3,0.8H391
			C390.9,94,390.8,93.7,390.8,93.4z M390.7,90.8c-0.4,0.2-1,0.3-1.9,0.4c-0.5,0.1-0.8,0.1-1,0.2c-0.2,0.1-0.3,0.2-0.5,0.4
			c-0.1,0.2-0.2,0.3-0.2,0.5c0,0.3,0.1,0.6,0.3,0.8c0.2,0.2,0.6,0.3,1,0.3c0.4,0,0.8-0.1,1.2-0.3s0.6-0.5,0.8-0.8
			c0.1-0.3,0.2-0.6,0.2-1.1V90.8z"/>
		<path class="st9" d="M396.1,93.2l0.2,1c-0.3,0.1-0.6,0.1-0.9,0.1c-0.4,0-0.7-0.1-1-0.2c-0.2-0.1-0.4-0.3-0.5-0.5
			c-0.1-0.2-0.1-0.7-0.1-1.3v-3.9H393v-0.9h0.8v-1.7l1.1-0.7v2.4h1.1v0.9H395v3.9c0,0.3,0,0.5,0.1,0.6s0.1,0.2,0.2,0.2
			c0.1,0.1,0.2,0.1,0.4,0.1C395.8,93.2,395.9,93.2,396.1,93.2z"/>
		<path class="st9" d="M397.3,86.2v-1.3h1.1v1.3H397.3z M397.3,94.2v-6.7h1.1v6.7H397.3z"/>
		<path class="st9" d="M399.7,90.8c0-1.2,0.3-2.2,1-2.8c0.6-0.5,1.3-0.7,2.1-0.7c0.9,0,1.7,0.3,2.3,0.9c0.6,0.6,0.9,1.4,0.9,2.5
			c0,0.9-0.1,1.5-0.4,2c-0.3,0.5-0.6,0.9-1.1,1.2c-0.5,0.3-1,0.4-1.6,0.4c-0.9,0-1.7-0.3-2.3-0.9C400,92.8,399.7,92,399.7,90.8z
			 M400.9,90.8c0,0.9,0.2,1.5,0.6,1.9c0.4,0.4,0.9,0.6,1.4,0.6c0.6,0,1-0.2,1.4-0.6c0.4-0.4,0.6-1.1,0.6-2c0-0.8-0.2-1.5-0.6-1.9
			s-0.8-0.6-1.4-0.6c-0.6,0-1,0.2-1.4,0.6C401.1,89.3,400.9,90,400.9,90.8z"/>
		<path class="st9" d="M407.4,94.2v-6.7h1v1c0.5-0.7,1.2-1.1,2.1-1.1c0.4,0,0.8,0.1,1.1,0.2c0.3,0.1,0.6,0.3,0.8,0.6
			c0.2,0.2,0.3,0.5,0.4,0.8c0,0.2,0.1,0.6,0.1,1.1v4.1h-1.1v-4.1c0-0.5,0-0.8-0.1-1s-0.2-0.4-0.5-0.6c-0.2-0.1-0.5-0.2-0.8-0.2
			c-0.5,0-0.9,0.2-1.3,0.5c-0.4,0.3-0.5,0.9-0.5,1.8v3.7H407.4z"/>
		<path class="st9" d="M314.5,112.5c-0.6-0.8-1.2-1.7-1.6-2.8s-0.7-2.2-0.7-3.3c0-1,0.2-2,0.5-2.9c0.4-1.1,1-2.1,1.8-3.2h0.8
			c-0.5,0.9-0.9,1.5-1,1.9c-0.3,0.6-0.5,1.2-0.6,1.8c-0.2,0.8-0.3,1.6-0.3,2.4c0,2,0.6,4.1,1.9,6.1H314.5z"/>
		<path class="st9" d="M316.7,109.8V103h1v0.9c0.2-0.3,0.5-0.6,0.8-0.8s0.8-0.3,1.2-0.3c0.5,0,0.9,0.1,1.2,0.3
			c0.3,0.2,0.5,0.5,0.7,0.9c0.5-0.8,1.2-1.2,2.1-1.2c0.7,0,1.2,0.2,1.5,0.6s0.5,0.9,0.5,1.7v4.6h-1.1v-4.2c0-0.5,0-0.8-0.1-1
			c-0.1-0.2-0.2-0.4-0.4-0.5c-0.2-0.1-0.4-0.2-0.7-0.2c-0.5,0-0.9,0.2-1.2,0.5s-0.5,0.8-0.5,1.5v3.9h-1.1v-4.4
			c0-0.5-0.1-0.9-0.3-1.1s-0.5-0.4-0.9-0.4c-0.3,0-0.6,0.1-0.9,0.3c-0.3,0.2-0.5,0.4-0.6,0.7c-0.1,0.3-0.2,0.8-0.2,1.4v3.5H316.7z"
			/>
		<path class="st9" d="M327.1,106.4c0-1.2,0.3-2.2,1-2.8c0.6-0.5,1.3-0.7,2.1-0.7c0.9,0,1.7,0.3,2.3,0.9s0.9,1.4,0.9,2.5
			c0,0.9-0.1,1.5-0.4,2c-0.3,0.5-0.6,0.9-1.1,1.2c-0.5,0.3-1,0.4-1.6,0.4c-0.9,0-1.7-0.3-2.3-0.9
			C327.4,108.4,327.1,107.6,327.1,106.4z M328.3,106.4c0,0.9,0.2,1.5,0.6,1.9s0.9,0.6,1.4,0.6c0.6,0,1-0.2,1.4-0.6s0.6-1.1,0.6-2
			c0-0.8-0.2-1.5-0.6-1.9c-0.4-0.4-0.8-0.6-1.4-0.6c-0.6,0-1,0.2-1.4,0.6S328.3,105.6,328.3,106.4z"/>
		<path class="st9" d="M339.1,109.8v-0.9c-0.4,0.7-1.1,1-1.9,1c-0.5,0-1-0.1-1.5-0.4c-0.5-0.3-0.8-0.7-1-1.2
			c-0.2-0.5-0.4-1.1-0.4-1.8c0-0.7,0.1-1.3,0.3-1.8s0.6-1,1-1.3c0.4-0.3,1-0.4,1.5-0.4c0.4,0,0.8,0.1,1.1,0.3
			c0.3,0.2,0.6,0.4,0.8,0.7v-3.3h1.1v9.3H339.1z M335.5,106.4c0,0.9,0.2,1.5,0.5,1.9c0.4,0.4,0.8,0.6,1.3,0.6c0.5,0,0.9-0.2,1.3-0.6
			c0.3-0.4,0.5-1,0.5-1.9c0-0.9-0.2-1.6-0.5-2s-0.8-0.6-1.3-0.6c-0.5,0-0.9,0.2-1.3,0.6C335.7,104.9,335.5,105.5,335.5,106.4z"/>
		<path class="st9" d="M346.6,107.6l1.2,0.1c-0.2,0.7-0.5,1.2-1,1.6s-1.1,0.6-1.9,0.6c-1,0-1.8-0.3-2.3-0.9
			c-0.6-0.6-0.9-1.5-0.9-2.6c0-1.1,0.3-2,0.9-2.6s1.3-0.9,2.3-0.9c0.9,0,1.6,0.3,2.2,0.9c0.6,0.6,0.9,1.5,0.9,2.6c0,0.1,0,0.2,0,0.3
			h-5c0,0.7,0.3,1.3,0.6,1.7c0.4,0.4,0.8,0.6,1.4,0.6c0.4,0,0.8-0.1,1.1-0.3S346.4,108.1,346.6,107.6z M342.8,105.8h3.8
			c-0.1-0.6-0.2-1-0.4-1.3c-0.4-0.4-0.8-0.7-1.4-0.7c-0.5,0-1,0.2-1.3,0.5C343.1,104.7,342.9,105.2,342.8,105.8z"/>
		<path class="st9" d="M349.2,109.8v-9.3h1.1v9.3H349.2z"/>
		<path class="st9" d="M355.3,106.4c0-1.2,0.3-2.2,1-2.8c0.6-0.5,1.3-0.7,2.1-0.7c0.9,0,1.7,0.3,2.3,0.9c0.6,0.6,0.9,1.4,0.9,2.5
			c0,0.9-0.1,1.5-0.4,2c-0.3,0.5-0.6,0.9-1.1,1.2c-0.5,0.3-1,0.4-1.6,0.4c-0.9,0-1.7-0.3-2.3-0.9
			C355.6,108.4,355.3,107.6,355.3,106.4z M356.4,106.4c0,0.9,0.2,1.5,0.6,1.9c0.4,0.4,0.9,0.6,1.4,0.6c0.6,0,1-0.2,1.4-0.6
			c0.4-0.4,0.6-1.1,0.6-2c0-0.8-0.2-1.5-0.6-1.9s-0.8-0.6-1.4-0.6c-0.6,0-1,0.2-1.4,0.6C356.6,104.9,356.4,105.6,356.4,106.4z"/>
		<path class="st9" d="M367.3,109.8v-1c-0.5,0.8-1.2,1.1-2.1,1.1c-0.4,0-0.8-0.1-1.1-0.2c-0.3-0.2-0.6-0.3-0.8-0.6s-0.3-0.5-0.4-0.8
			c0-0.2-0.1-0.6-0.1-1.1V103h1.1v3.7c0,0.6,0,1,0.1,1.2c0.1,0.3,0.2,0.5,0.5,0.7c0.2,0.2,0.5,0.3,0.9,0.3s0.7-0.1,1-0.3
			c0.3-0.2,0.5-0.4,0.6-0.7c0.1-0.3,0.2-0.7,0.2-1.3V103h1.1v6.7H367.3z"/>
		<path class="st9" d="M372.7,108.8l0.2,1c-0.3,0.1-0.6,0.1-0.9,0.1c-0.4,0-0.7-0.1-1-0.2c-0.2-0.1-0.4-0.3-0.5-0.5
			c-0.1-0.2-0.1-0.7-0.1-1.3v-3.9h-0.8V103h0.8v-1.7l1.1-0.7v2.4h1.1v0.9h-1.1v3.9c0,0.3,0,0.5,0.1,0.6s0.1,0.2,0.2,0.2
			c0.1,0.1,0.2,0.1,0.4,0.1C372.3,108.8,372.4,108.8,372.7,108.8z"/>
		<path class="st9" d="M373.8,112.4V103h1v0.9c0.2-0.3,0.5-0.6,0.8-0.8c0.3-0.2,0.7-0.3,1.1-0.3c0.6,0,1.1,0.1,1.5,0.4
			c0.4,0.3,0.8,0.7,1,1.3c0.2,0.5,0.3,1.1,0.3,1.8c0,0.7-0.1,1.3-0.4,1.9c-0.2,0.6-0.6,1-1.1,1.3c-0.5,0.3-1,0.4-1.5,0.4
			c-0.4,0-0.7-0.1-1-0.2c-0.3-0.2-0.6-0.4-0.7-0.6v3.3H373.8z M374.8,106.5c0,0.9,0.2,1.5,0.5,1.9c0.4,0.4,0.8,0.6,1.3,0.6
			c0.5,0,0.9-0.2,1.3-0.6c0.4-0.4,0.5-1.1,0.5-2c0-0.9-0.2-1.5-0.5-1.9s-0.8-0.6-1.3-0.6c-0.5,0-0.9,0.2-1.3,0.7
			C375,104.9,374.8,105.6,374.8,106.5z"/>
		<path class="st9" d="M385.4,109.8v-1c-0.5,0.8-1.2,1.1-2.1,1.1c-0.4,0-0.8-0.1-1.1-0.2s-0.6-0.3-0.8-0.6c-0.2-0.2-0.3-0.5-0.4-0.8
			c0-0.2-0.1-0.6-0.1-1.1V103h1.1v3.7c0,0.6,0,1,0.1,1.2c0.1,0.3,0.2,0.5,0.5,0.7c0.2,0.2,0.5,0.3,0.9,0.3s0.7-0.1,1-0.3
			c0.3-0.2,0.5-0.4,0.6-0.7s0.2-0.7,0.2-1.3V103h1.1v6.7H385.4z"/>
		<path class="st9" d="M390.7,108.8l0.2,1c-0.3,0.1-0.6,0.1-0.9,0.1c-0.4,0-0.7-0.1-1-0.2c-0.2-0.1-0.4-0.3-0.5-0.5
			c-0.1-0.2-0.1-0.7-0.1-1.3v-3.9h-0.8V103h0.8v-1.7l1.1-0.7v2.4h1.1v0.9h-1.1v3.9c0,0.3,0,0.5,0.1,0.6c0,0.1,0.1,0.2,0.2,0.2
			c0.1,0.1,0.2,0.1,0.4,0.1C390.4,108.8,390.5,108.8,390.7,108.8z"/>
		<path class="st9" d="M392.6,112.5h-0.8c1.3-2,1.9-4.1,1.9-6.1c0-0.8-0.1-1.6-0.3-2.4c-0.1-0.6-0.3-1.2-0.6-1.8
			c-0.2-0.4-0.5-1-1-1.9h0.8c0.8,1.1,1.4,2.1,1.8,3.2c0.3,0.9,0.5,1.9,0.5,2.9c0,1.1-0.2,2.2-0.7,3.3
			C393.8,110.8,393.2,111.7,392.6,112.5z"/>
	</g>
	<g class="st8">
		<path class="st9" d="M529,94.2v-9.3h1.3l4.9,7.3v-7.3h1.2v9.3H535l-4.9-7.3v7.3H529z"/>
		<path class="st9" d="M542.8,92l1.2,0.1c-0.2,0.7-0.5,1.2-1,1.6s-1.1,0.6-1.9,0.6c-1,0-1.8-0.3-2.3-0.9s-0.9-1.5-0.9-2.6
			c0-1.1,0.3-2,0.9-2.6s1.3-0.9,2.3-0.9c0.9,0,1.6,0.3,2.2,0.9c0.6,0.6,0.9,1.5,0.9,2.6c0,0.1,0,0.2,0,0.3h-5c0,0.7,0.3,1.3,0.6,1.7
			c0.4,0.4,0.8,0.6,1.4,0.6c0.4,0,0.8-0.1,1.1-0.3S542.7,92.5,542.8,92z M539.1,90.2h3.8c-0.1-0.6-0.2-1-0.4-1.3
			c-0.4-0.4-0.8-0.7-1.4-0.7c-0.5,0-1,0.2-1.3,0.5C539.3,89.1,539.1,89.6,539.1,90.2z"/>
		<path class="st9" d="M545.2,91.2l1.2-0.1c0.1,0.5,0.2,0.8,0.4,1.1c0.2,0.3,0.5,0.5,0.9,0.7c0.4,0.2,0.9,0.3,1.4,0.3
			c0.5,0,0.9-0.1,1.2-0.2s0.6-0.3,0.8-0.6c0.2-0.2,0.3-0.5,0.3-0.8c0-0.3-0.1-0.5-0.3-0.8s-0.4-0.4-0.8-0.5
			c-0.2-0.1-0.8-0.2-1.7-0.5c-0.9-0.2-1.5-0.4-1.8-0.6c-0.4-0.2-0.8-0.5-1-0.9c-0.2-0.3-0.3-0.7-0.3-1.2c0-0.5,0.1-0.9,0.4-1.3
			c0.3-0.4,0.7-0.7,1.2-0.9c0.5-0.2,1.1-0.3,1.7-0.3c0.7,0,1.3,0.1,1.8,0.3c0.5,0.2,0.9,0.5,1.2,1c0.3,0.4,0.4,0.9,0.5,1.5l-1.2,0.1
			c-0.1-0.6-0.3-1-0.6-1.3c-0.4-0.3-0.9-0.5-1.6-0.5c-0.7,0-1.3,0.1-1.6,0.4c-0.3,0.3-0.5,0.6-0.5,1c0,0.3,0.1,0.6,0.4,0.8
			c0.2,0.2,0.9,0.4,1.9,0.7c1,0.2,1.7,0.4,2.1,0.6c0.5,0.2,0.9,0.6,1.2,0.9s0.4,0.8,0.4,1.3c0,0.5-0.1,1-0.4,1.4
			c-0.3,0.4-0.7,0.8-1.2,1s-1.1,0.4-1.8,0.4c-0.8,0-1.5-0.1-2.1-0.4c-0.6-0.2-1-0.6-1.3-1.1C545.4,92.4,545.2,91.8,545.2,91.2z"/>
		<path class="st9" d="M554.1,96.8l-0.1-1.1c0.2,0.1,0.5,0.1,0.7,0.1c0.3,0,0.5,0,0.6-0.1s0.3-0.2,0.4-0.4c0.1-0.1,0.2-0.4,0.3-0.9
			c0-0.1,0.1-0.2,0.1-0.3l-2.6-6.8h1.2l1.4,3.9c0.2,0.5,0.3,1,0.5,1.6c0.1-0.5,0.3-1,0.5-1.5l1.4-3.9h1.1l-2.6,6.9
			c-0.3,0.7-0.5,1.3-0.6,1.5c-0.2,0.4-0.4,0.7-0.7,0.8c-0.3,0.2-0.6,0.3-0.9,0.3C554.6,96.9,554.3,96.9,554.1,96.8z"/>
		<path class="st9" d="M568.7,90.5v-1.1l3.9,0v3.5c-0.6,0.5-1.2,0.8-1.9,1.1c-0.6,0.2-1.3,0.4-2,0.4c-0.9,0-1.7-0.2-2.5-0.6
			c-0.7-0.4-1.3-1-1.7-1.7c-0.4-0.7-0.6-1.6-0.6-2.5c0-0.9,0.2-1.8,0.6-2.5c0.4-0.8,0.9-1.4,1.6-1.7s1.5-0.6,2.5-0.6
			c0.7,0,1.3,0.1,1.8,0.3c0.5,0.2,1,0.5,1.3,0.9c0.3,0.4,0.5,0.9,0.7,1.5l-1.1,0.3c-0.1-0.5-0.3-0.8-0.5-1.1
			c-0.2-0.3-0.5-0.5-0.9-0.7c-0.4-0.2-0.8-0.2-1.3-0.2c-0.6,0-1,0.1-1.5,0.3c-0.4,0.2-0.7,0.4-1,0.7s-0.4,0.6-0.6,0.9
			c-0.2,0.6-0.4,1.2-0.4,1.9c0,0.8,0.1,1.5,0.4,2.1s0.7,1,1.2,1.2s1.1,0.4,1.7,0.4c0.5,0,1.1-0.1,1.6-0.3s0.9-0.4,1.2-0.7v-1.7
			H568.7z"/>
		<path class="st9" d="M573.9,90.8c0-1.2,0.3-2.2,1-2.8c0.6-0.5,1.3-0.7,2.1-0.7c0.9,0,1.7,0.3,2.3,0.9s0.9,1.4,0.9,2.5
			c0,0.9-0.1,1.5-0.4,2c-0.3,0.5-0.6,0.9-1.1,1.2c-0.5,0.3-1,0.4-1.6,0.4c-0.9,0-1.7-0.3-2.3-0.9C574.2,92.8,573.9,92,573.9,90.8z
			 M575.1,90.8c0,0.9,0.2,1.5,0.6,1.9s0.9,0.6,1.4,0.6c0.6,0,1-0.2,1.4-0.6c0.4-0.4,0.6-1.1,0.6-2c0-0.8-0.2-1.5-0.6-1.9
			s-0.8-0.6-1.4-0.6c-0.6,0-1,0.2-1.4,0.6S575.1,90,575.1,90.8z"/>
		<path class="st9" d="M586,93.4c-0.4,0.4-0.8,0.6-1.2,0.8c-0.4,0.1-0.8,0.2-1.3,0.2c-0.7,0-1.3-0.2-1.7-0.5
			c-0.4-0.4-0.6-0.8-0.6-1.4c0-0.3,0.1-0.6,0.2-0.9c0.2-0.3,0.3-0.5,0.6-0.7c0.2-0.2,0.5-0.3,0.8-0.4c0.2-0.1,0.6-0.1,1-0.2
			c0.9-0.1,1.6-0.2,2-0.4c0-0.2,0-0.3,0-0.3c0-0.5-0.1-0.8-0.3-1c-0.3-0.3-0.7-0.4-1.3-0.4c-0.5,0-0.9,0.1-1.2,0.3
			c-0.3,0.2-0.4,0.5-0.6,1l-1.1-0.2c0.1-0.5,0.3-0.9,0.5-1.2c0.2-0.3,0.6-0.5,1-0.7c0.4-0.2,1-0.2,1.5-0.2c0.6,0,1,0.1,1.4,0.2
			s0.6,0.3,0.8,0.5c0.2,0.2,0.3,0.5,0.4,0.8c0,0.2,0.1,0.5,0.1,1.1v1.5c0,1.1,0,1.7,0.1,2c0,0.3,0.1,0.6,0.3,0.8h-1.2
			C586.1,94,586,93.7,586,93.4z M585.9,90.8c-0.4,0.2-1,0.3-1.9,0.4c-0.5,0.1-0.8,0.1-1,0.2c-0.2,0.1-0.3,0.2-0.5,0.4
			s-0.2,0.3-0.2,0.5c0,0.3,0.1,0.6,0.3,0.8s0.6,0.3,1,0.3c0.4,0,0.8-0.1,1.2-0.3s0.6-0.5,0.8-0.8c0.1-0.3,0.2-0.6,0.2-1.1V90.8z"/>
		<path class="st9" d="M588.8,94.2v-9.3h1.1v9.3H588.8z"/>
	</g>
	<g class="st8">
		<path class="st9" d="M24,340.7l1.2-0.1c0.1,0.5,0.2,0.8,0.4,1.1c0.2,0.3,0.5,0.5,0.9,0.7c0.4,0.2,0.9,0.3,1.4,0.3
			c0.5,0,0.9-0.1,1.2-0.2s0.6-0.3,0.8-0.6c0.2-0.2,0.3-0.5,0.3-0.8c0-0.3-0.1-0.5-0.3-0.8s-0.4-0.4-0.8-0.5
			c-0.2-0.1-0.8-0.2-1.7-0.5s-1.5-0.4-1.8-0.6c-0.4-0.2-0.8-0.5-1-0.9c-0.2-0.3-0.3-0.7-0.3-1.2c0-0.5,0.1-0.9,0.4-1.3
			s0.7-0.7,1.2-0.9c0.5-0.2,1.1-0.3,1.7-0.3c0.7,0,1.3,0.1,1.8,0.3c0.5,0.2,0.9,0.5,1.2,1s0.4,0.9,0.5,1.5l-1.2,0.1
			c-0.1-0.6-0.3-1-0.6-1.3c-0.4-0.3-0.9-0.5-1.6-0.5c-0.7,0-1.3,0.1-1.6,0.4c-0.3,0.3-0.5,0.6-0.5,1c0,0.3,0.1,0.6,0.4,0.8
			c0.2,0.2,0.9,0.4,1.9,0.7c1,0.2,1.7,0.4,2.1,0.6c0.5,0.2,0.9,0.6,1.2,0.9s0.4,0.8,0.4,1.3c0,0.5-0.1,1-0.4,1.4
			c-0.3,0.4-0.7,0.8-1.2,1c-0.5,0.2-1.1,0.4-1.8,0.4c-0.8,0-1.5-0.1-2.1-0.4c-0.6-0.2-1-0.6-1.3-1.1C24.2,341.9,24,341.3,24,340.7z"
			/>
		<path class="st9" d="M37.6,341.5l1.2,0.1c-0.2,0.7-0.5,1.2-1,1.6s-1.1,0.6-1.9,0.6c-1,0-1.8-0.3-2.3-0.9c-0.6-0.6-0.9-1.5-0.9-2.6
			c0-1.1,0.3-2,0.9-2.6s1.3-0.9,2.3-0.9c0.9,0,1.6,0.3,2.2,0.9c0.6,0.6,0.9,1.5,0.9,2.6c0,0.1,0,0.2,0,0.3h-5c0,0.7,0.3,1.3,0.6,1.7
			c0.4,0.4,0.8,0.6,1.4,0.6c0.4,0,0.8-0.1,1.1-0.3S37.4,342,37.6,341.5z M33.8,339.7h3.8c-0.1-0.6-0.2-1-0.4-1.3
			c-0.4-0.4-0.8-0.7-1.4-0.7c-0.5,0-1,0.2-1.3,0.5C34.1,338.6,33.9,339.1,33.8,339.7z"/>
		<path class="st9" d="M40.2,343.7V337h1v0.9c0.2-0.3,0.5-0.6,0.8-0.8s0.8-0.3,1.2-0.3c0.5,0,0.9,0.1,1.2,0.3
			c0.3,0.2,0.5,0.5,0.7,0.9c0.5-0.8,1.2-1.2,2.1-1.2c0.7,0,1.2,0.2,1.5,0.6s0.5,0.9,0.5,1.7v4.6h-1.1v-4.2c0-0.5,0-0.8-0.1-1
			c-0.1-0.2-0.2-0.4-0.4-0.5c-0.2-0.1-0.4-0.2-0.7-0.2c-0.5,0-0.9,0.2-1.2,0.5s-0.5,0.8-0.5,1.5v3.9h-1.1v-4.4
			c0-0.5-0.1-0.9-0.3-1.1s-0.5-0.4-0.9-0.4c-0.3,0-0.6,0.1-0.9,0.3c-0.3,0.2-0.5,0.4-0.6,0.7c-0.1,0.3-0.2,0.8-0.2,1.4v3.5H40.2z"/>
		<path class="st9" d="M51,335.7v-1.3h1.1v1.3H51z M51,343.7V337h1.1v6.7H51z"/>
		<path class="st9" d="M53.5,340.9v-1.1H57v1.1H53.5z"/>
		<path class="st9" d="M57.8,341.7l1.1-0.2c0.1,0.5,0.2,0.8,0.5,1c0.3,0.2,0.7,0.4,1.2,0.4c0.5,0,0.9-0.1,1.2-0.3s0.4-0.5,0.4-0.8
			c0-0.3-0.1-0.5-0.3-0.6c-0.2-0.1-0.5-0.2-1.2-0.4c-0.8-0.2-1.4-0.4-1.7-0.5c-0.3-0.2-0.6-0.4-0.7-0.6c-0.2-0.3-0.3-0.6-0.3-0.9
			c0-0.3,0.1-0.6,0.2-0.8c0.1-0.3,0.3-0.5,0.6-0.6c0.2-0.1,0.4-0.2,0.7-0.3c0.3-0.1,0.6-0.1,1-0.1c0.5,0,1,0.1,1.4,0.2
			c0.4,0.2,0.7,0.4,0.9,0.6c0.2,0.3,0.3,0.6,0.4,1l-1.1,0.2c-0.1-0.3-0.2-0.6-0.4-0.8c-0.2-0.2-0.6-0.3-1-0.3
			c-0.5,0-0.9,0.1-1.1,0.3c-0.2,0.2-0.3,0.4-0.3,0.6c0,0.1,0,0.3,0.1,0.4c0.1,0.1,0.2,0.2,0.4,0.3c0.1,0,0.5,0.1,1,0.3
			c0.8,0.2,1.4,0.4,1.7,0.5c0.3,0.1,0.6,0.3,0.8,0.6s0.3,0.6,0.3,1c0,0.4-0.1,0.7-0.3,1.1c-0.2,0.3-0.5,0.6-1,0.8
			c-0.4,0.2-0.9,0.3-1.4,0.3c-0.9,0-1.5-0.2-2-0.5C58.2,342.9,57.9,342.4,57.8,341.7z"/>
		<path class="st9" d="M69.2,343.7v-1c-0.5,0.8-1.2,1.1-2.1,1.1c-0.4,0-0.8-0.1-1.1-0.2c-0.3-0.2-0.6-0.3-0.8-0.6
			c-0.2-0.2-0.3-0.5-0.4-0.8c0-0.2-0.1-0.6-0.1-1.1V337h1.1v3.7c0,0.6,0,1,0.1,1.2c0.1,0.3,0.2,0.5,0.5,0.7c0.2,0.2,0.5,0.3,0.9,0.3
			s0.7-0.1,1-0.3s0.5-0.4,0.6-0.7c0.1-0.3,0.2-0.7,0.2-1.3V337h1.1v6.7H69.2z"/>
		<path class="st9" d="M72,346.3V337h1v0.9c0.2-0.3,0.5-0.6,0.8-0.8c0.3-0.2,0.7-0.3,1.1-0.3c0.6,0,1.1,0.1,1.5,0.4s0.8,0.7,1,1.3
			c0.2,0.5,0.3,1.1,0.3,1.8c0,0.7-0.1,1.3-0.4,1.9c-0.2,0.6-0.6,1-1.1,1.3c-0.5,0.3-1,0.4-1.5,0.4c-0.4,0-0.7-0.1-1-0.2
			c-0.3-0.2-0.6-0.4-0.7-0.6v3.3H72z M73,340.4c0,0.9,0.2,1.5,0.5,1.9s0.8,0.6,1.3,0.6c0.5,0,0.9-0.2,1.3-0.6c0.4-0.4,0.5-1.1,0.5-2
			c0-0.9-0.2-1.5-0.5-1.9c-0.4-0.4-0.8-0.6-1.3-0.6c-0.5,0-0.9,0.2-1.3,0.7C73.2,338.8,73,339.5,73,340.4z"/>
		<path class="st9" d="M83.8,341.5l1.2,0.1c-0.2,0.7-0.5,1.2-1,1.6s-1.1,0.6-1.9,0.6c-1,0-1.8-0.3-2.3-0.9c-0.6-0.6-0.9-1.5-0.9-2.6
			c0-1.1,0.3-2,0.9-2.6s1.3-0.9,2.3-0.9c0.9,0,1.6,0.3,2.2,0.9c0.6,0.6,0.9,1.5,0.9,2.6c0,0.1,0,0.2,0,0.3h-5c0,0.7,0.3,1.3,0.6,1.7
			c0.4,0.4,0.8,0.6,1.4,0.6c0.4,0,0.8-0.1,1.1-0.3S83.6,342,83.8,341.5z M80.1,339.7h3.8c-0.1-0.6-0.2-1-0.4-1.3
			c-0.4-0.4-0.8-0.7-1.4-0.7c-0.5,0-1,0.2-1.3,0.5C80.3,338.6,80.1,339.1,80.1,339.7z"/>
		<path class="st9" d="M86.4,343.7V337h1v1c0.3-0.5,0.5-0.8,0.7-0.9c0.2-0.2,0.5-0.2,0.7-0.2c0.4,0,0.8,0.1,1.2,0.4l-0.4,1.1
			c-0.3-0.2-0.6-0.2-0.8-0.2c-0.2,0-0.5,0.1-0.7,0.2s-0.3,0.4-0.4,0.6c-0.1,0.4-0.2,0.9-0.2,1.3v3.5H86.4z"/>
		<path class="st9" d="M92.6,343.7l-2.6-6.7h1.2l1.4,4c0.2,0.4,0.3,0.9,0.4,1.4c0.1-0.4,0.2-0.8,0.4-1.3l1.5-4.1h1.2l-2.6,6.7H92.6z
			"/>
		<path class="st9" d="M97.3,335.7v-1.3h1.1v1.3H97.3z M97.3,343.7V337h1.1v6.7H97.3z"/>
		<path class="st9" d="M99.7,341.7l1.1-0.2c0.1,0.5,0.2,0.8,0.5,1c0.3,0.2,0.7,0.4,1.2,0.4c0.5,0,0.9-0.1,1.2-0.3s0.4-0.5,0.4-0.8
			c0-0.3-0.1-0.5-0.3-0.6c-0.2-0.1-0.5-0.2-1.2-0.4c-0.8-0.2-1.4-0.4-1.7-0.5c-0.3-0.2-0.6-0.4-0.7-0.6c-0.2-0.3-0.3-0.6-0.3-0.9
			c0-0.3,0.1-0.6,0.2-0.8c0.1-0.3,0.3-0.5,0.6-0.6c0.2-0.1,0.4-0.2,0.7-0.3c0.3-0.1,0.6-0.1,1-0.1c0.5,0,1,0.1,1.4,0.2
			c0.4,0.2,0.7,0.4,0.9,0.6c0.2,0.3,0.3,0.6,0.4,1l-1.1,0.2c-0.1-0.3-0.2-0.6-0.4-0.8c-0.2-0.2-0.6-0.3-1-0.3
			c-0.5,0-0.9,0.1-1.1,0.3c-0.2,0.2-0.3,0.4-0.3,0.6c0,0.1,0,0.3,0.1,0.4c0.1,0.1,0.2,0.2,0.4,0.3c0.1,0,0.5,0.1,1,0.3
			c0.8,0.2,1.4,0.4,1.7,0.5c0.3,0.1,0.6,0.3,0.8,0.6s0.3,0.6,0.3,1c0,0.4-0.1,0.7-0.3,1.1c-0.2,0.3-0.5,0.6-1,0.8
			c-0.4,0.2-0.9,0.3-1.4,0.3c-0.9,0-1.5-0.2-2-0.5C100.1,342.9,99.8,342.4,99.7,341.7z"/>
		<path class="st9" d="M111.3,341.5l1.2,0.1c-0.2,0.7-0.5,1.2-1,1.6s-1.1,0.6-1.9,0.6c-1,0-1.8-0.3-2.3-0.9
			c-0.6-0.6-0.9-1.5-0.9-2.6c0-1.1,0.3-2,0.9-2.6s1.3-0.9,2.3-0.9c0.9,0,1.6,0.3,2.2,0.9c0.6,0.6,0.9,1.5,0.9,2.6c0,0.1,0,0.2,0,0.3
			h-5c0,0.7,0.3,1.3,0.6,1.7c0.4,0.4,0.8,0.6,1.4,0.6c0.4,0,0.8-0.1,1.1-0.3S111.1,342,111.3,341.5z M107.5,339.7h3.8
			c-0.1-0.6-0.2-1-0.4-1.3c-0.4-0.4-0.8-0.7-1.4-0.7c-0.5,0-1,0.2-1.3,0.5C107.7,338.6,107.5,339.1,107.5,339.7z"/>
		<path class="st9" d="M118.3,343.7v-0.9c-0.4,0.7-1.1,1-1.9,1c-0.5,0-1-0.1-1.5-0.4c-0.5-0.3-0.8-0.7-1-1.2
			c-0.2-0.5-0.4-1.1-0.4-1.8c0-0.7,0.1-1.3,0.3-1.8s0.6-1,1-1.3c0.4-0.3,1-0.4,1.5-0.4c0.4,0,0.8,0.1,1.1,0.3
			c0.3,0.2,0.6,0.4,0.8,0.7v-3.3h1.1v9.3H118.3z M114.6,340.3c0,0.9,0.2,1.5,0.5,1.9c0.4,0.4,0.8,0.6,1.3,0.6c0.5,0,0.9-0.2,1.3-0.6
			c0.3-0.4,0.5-1,0.5-1.9c0-0.9-0.2-1.6-0.5-2s-0.8-0.6-1.3-0.6c-0.5,0-0.9,0.2-1.3,0.6C114.8,338.8,114.6,339.4,114.6,340.3z"/>
	</g>
	<g class="st8">
		<path class="st9" d="M36.7,460.5v-9.3h4.1c0.8,0,1.5,0.1,1.9,0.3s0.8,0.5,1,0.9c0.3,0.4,0.4,0.9,0.4,1.4c0,0.7-0.2,1.2-0.6,1.7
			c-0.4,0.5-1.1,0.7-2,0.9c0.3,0.2,0.6,0.3,0.7,0.5c0.4,0.3,0.7,0.7,1,1.2l1.6,2.5h-1.5l-1.2-1.9c-0.4-0.6-0.7-1-0.9-1.3
			c-0.2-0.3-0.4-0.5-0.6-0.6c-0.2-0.1-0.4-0.2-0.6-0.2c-0.1,0-0.4,0-0.7,0H38v4.1H36.7z M38,455.3h2.6c0.6,0,1-0.1,1.3-0.2
			s0.6-0.3,0.7-0.6s0.2-0.5,0.2-0.8c0-0.4-0.2-0.8-0.5-1.1c-0.3-0.3-0.8-0.4-1.5-0.4H38V455.3z"/>
		<path class="st9" d="M50.6,458.3l1.2,0.1c-0.2,0.7-0.5,1.2-1,1.6s-1.1,0.6-1.9,0.6c-1,0-1.8-0.3-2.3-0.9c-0.6-0.6-0.9-1.5-0.9-2.6
			c0-1.1,0.3-2,0.9-2.6s1.3-0.9,2.3-0.9c0.9,0,1.6,0.3,2.2,0.9c0.6,0.6,0.9,1.5,0.9,2.6c0,0.1,0,0.2,0,0.3h-5c0,0.7,0.3,1.3,0.6,1.7
			c0.4,0.4,0.8,0.6,1.4,0.6c0.4,0,0.8-0.1,1.1-0.3S50.4,458.8,50.6,458.3z M46.8,456.5h3.8c-0.1-0.6-0.2-1-0.4-1.3
			c-0.4-0.4-0.8-0.7-1.4-0.7c-0.5,0-1,0.2-1.3,0.5C47.1,455.4,46.9,455.9,46.8,456.5z"/>
		<path class="st9" d="M53.2,452.5v-1.3h1.1v1.3H53.2z M53.2,460.5v-6.7h1.1v6.7H53.2z"/>
		<path class="st9" d="M56.1,460.5v-6.7h1v1c0.5-0.7,1.2-1.1,2.1-1.1c0.4,0,0.8,0.1,1.1,0.2c0.3,0.1,0.6,0.3,0.8,0.6
			c0.2,0.2,0.3,0.5,0.4,0.8c0,0.2,0.1,0.6,0.1,1.1v4.1h-1.1v-4.1c0-0.5,0-0.8-0.1-1s-0.2-0.4-0.5-0.6c-0.2-0.1-0.5-0.2-0.8-0.2
			c-0.5,0-0.9,0.2-1.3,0.5c-0.4,0.3-0.5,0.9-0.5,1.8v3.7H56.1z"/>
		<path class="st9" d="M63.6,460.5v-5.9h-1v-0.9h1V453c0-0.5,0-0.8,0.1-1c0.1-0.3,0.3-0.5,0.6-0.7c0.3-0.2,0.7-0.3,1.2-0.3
			c0.3,0,0.7,0,1.1,0.1l-0.2,1c-0.2,0-0.5-0.1-0.7-0.1c-0.3,0-0.6,0.1-0.7,0.2c-0.1,0.1-0.2,0.4-0.2,0.8v0.6H66v0.9h-1.3v5.9H63.6z"
			/>
		<path class="st9" d="M66.5,457.1c0-1.2,0.3-2.2,1-2.8c0.6-0.5,1.3-0.7,2.1-0.7c0.9,0,1.7,0.3,2.3,0.9s0.9,1.4,0.9,2.5
			c0,0.9-0.1,1.5-0.4,2c-0.3,0.5-0.6,0.9-1.1,1.2c-0.5,0.3-1,0.4-1.6,0.4c-0.9,0-1.7-0.3-2.3-0.9C66.8,459.1,66.5,458.3,66.5,457.1z
			 M67.7,457.1c0,0.9,0.2,1.5,0.6,1.9s0.9,0.6,1.4,0.6c0.6,0,1-0.2,1.4-0.6s0.6-1.1,0.6-2c0-0.8-0.2-1.5-0.6-1.9
			c-0.4-0.4-0.8-0.6-1.4-0.6c-0.6,0-1,0.2-1.4,0.6S67.7,456.3,67.7,457.1z"/>
		<path class="st9" d="M74.1,460.5v-6.7h1v1c0.3-0.5,0.5-0.8,0.7-0.9c0.2-0.2,0.5-0.2,0.7-0.2c0.4,0,0.8,0.1,1.2,0.4l-0.4,1.1
			c-0.3-0.2-0.6-0.2-0.8-0.2c-0.2,0-0.5,0.1-0.7,0.2s-0.3,0.4-0.4,0.6c-0.1,0.4-0.2,0.9-0.2,1.3v3.5H74.1z"/>
		<path class="st9" d="M82.9,458l1.1,0.1c-0.1,0.8-0.4,1.4-0.9,1.8c-0.5,0.4-1.1,0.7-1.9,0.7c-0.9,0-1.7-0.3-2.2-0.9
			c-0.6-0.6-0.8-1.5-0.8-2.6c0-0.7,0.1-1.4,0.4-1.9s0.6-1,1.1-1.2c0.5-0.3,1-0.4,1.6-0.4c0.7,0,1.3,0.2,1.8,0.6s0.8,0.9,0.9,1.6
			l-1.1,0.2c-0.1-0.5-0.3-0.8-0.6-1c-0.3-0.2-0.6-0.3-1-0.3c-0.6,0-1,0.2-1.4,0.6c-0.4,0.4-0.5,1.1-0.5,2c0,0.9,0.2,1.6,0.5,2
			c0.3,0.4,0.8,0.6,1.4,0.6c0.4,0,0.8-0.1,1.1-0.4C82.6,459,82.8,458.6,82.9,458z"/>
		<path class="st9" d="M89.6,458.3l1.2,0.1c-0.2,0.7-0.5,1.2-1,1.6s-1.1,0.6-1.9,0.6c-1,0-1.8-0.3-2.3-0.9c-0.6-0.6-0.9-1.5-0.9-2.6
			c0-1.1,0.3-2,0.9-2.6s1.3-0.9,2.3-0.9c0.9,0,1.6,0.3,2.2,0.9c0.6,0.6,0.9,1.5,0.9,2.6c0,0.1,0,0.2,0,0.3h-5c0,0.7,0.3,1.3,0.6,1.7
			c0.4,0.4,0.8,0.6,1.4,0.6c0.4,0,0.8-0.1,1.1-0.3S89.4,458.8,89.6,458.3z M85.8,456.5h3.8c-0.1-0.6-0.2-1-0.4-1.3
			c-0.4-0.4-0.8-0.7-1.4-0.7c-0.5,0-1,0.2-1.3,0.5C86.1,455.4,85.9,455.9,85.8,456.5z"/>
		<path class="st9" d="M92.2,460.5v-6.7h1v0.9c0.2-0.3,0.5-0.6,0.8-0.8s0.8-0.3,1.2-0.3c0.5,0,0.9,0.1,1.2,0.3
			c0.3,0.2,0.5,0.5,0.7,0.9c0.5-0.8,1.2-1.2,2.1-1.2c0.7,0,1.2,0.2,1.5,0.6s0.5,0.9,0.5,1.7v4.6h-1.1v-4.2c0-0.5,0-0.8-0.1-1
			c-0.1-0.2-0.2-0.4-0.4-0.5c-0.2-0.1-0.4-0.2-0.7-0.2c-0.5,0-0.9,0.2-1.2,0.5s-0.5,0.8-0.5,1.5v3.9h-1.1v-4.4
			c0-0.5-0.1-0.9-0.3-1.1s-0.5-0.4-0.9-0.4c-0.3,0-0.6,0.1-0.9,0.3c-0.3,0.2-0.5,0.4-0.6,0.7c-0.1,0.3-0.2,0.8-0.2,1.4v3.5H92.2z"/>
		<path class="st9" d="M107.6,458.3l1.2,0.1c-0.2,0.7-0.5,1.2-1,1.6s-1.1,0.6-1.9,0.6c-1,0-1.8-0.3-2.3-0.9
			c-0.6-0.6-0.9-1.5-0.9-2.6c0-1.1,0.3-2,0.9-2.6s1.3-0.9,2.3-0.9c0.9,0,1.6,0.3,2.2,0.9c0.6,0.6,0.9,1.5,0.9,2.6c0,0.1,0,0.2,0,0.3
			h-5c0,0.7,0.3,1.3,0.6,1.7c0.4,0.4,0.8,0.6,1.4,0.6c0.4,0,0.8-0.1,1.1-0.3S107.5,458.8,107.6,458.3z M103.9,456.5h3.8
			c-0.1-0.6-0.2-1-0.4-1.3c-0.4-0.4-0.8-0.7-1.4-0.7c-0.5,0-1,0.2-1.3,0.5C104.1,455.4,103.9,455.9,103.9,456.5z"/>
		<path class="st9" d="M110.3,460.5v-6.7h1v1c0.5-0.7,1.2-1.1,2.1-1.1c0.4,0,0.8,0.1,1.1,0.2c0.3,0.1,0.6,0.3,0.8,0.6
			c0.2,0.2,0.3,0.5,0.4,0.8c0,0.2,0.1,0.6,0.1,1.1v4.1h-1.1v-4.1c0-0.5,0-0.8-0.1-1s-0.2-0.4-0.5-0.6c-0.2-0.1-0.5-0.2-0.8-0.2
			c-0.5,0-0.9,0.2-1.3,0.5c-0.4,0.3-0.5,0.9-0.5,1.8v3.7H110.3z"/>
		<path class="st9" d="M120,459.5l0.2,1c-0.3,0.1-0.6,0.1-0.9,0.1c-0.4,0-0.7-0.1-1-0.2c-0.2-0.1-0.4-0.3-0.5-0.5s-0.1-0.7-0.1-1.3
			v-3.9h-0.8v-0.9h0.8v-1.7l1.1-0.7v2.4h1.1v0.9h-1.1v3.9c0,0.3,0,0.5,0.1,0.6c0,0.1,0.1,0.2,0.2,0.2c0.1,0.1,0.2,0.1,0.4,0.1
			C119.6,459.5,119.8,459.5,120,459.5z"/>
	</g>
	<g class="st8">
		<path class="st9" d="M65.1,426.7l1.2,0.3c-0.3,1-0.7,1.8-1.4,2.3c-0.7,0.5-1.5,0.8-2.5,0.8c-1,0-1.8-0.2-2.4-0.6
			c-0.6-0.4-1.1-1-1.4-1.8c-0.3-0.8-0.5-1.6-0.5-2.5c0-1,0.2-1.8,0.6-2.5c0.4-0.7,0.9-1.3,1.6-1.6c0.7-0.4,1.4-0.6,2.3-0.6
			c0.9,0,1.7,0.2,2.3,0.7c0.6,0.5,1.1,1.1,1.3,2l-1.2,0.3c-0.2-0.7-0.5-1.2-0.9-1.5s-0.9-0.5-1.5-0.5c-0.7,0-1.3,0.2-1.8,0.5
			c-0.5,0.3-0.8,0.8-1,1.4c-0.2,0.6-0.3,1.2-0.3,1.8c0,0.8,0.1,1.5,0.3,2.1c0.2,0.6,0.6,1,1.1,1.3s1,0.4,1.6,0.4
			c0.7,0,1.3-0.2,1.8-0.6C64.6,428,64.9,427.4,65.1,426.7z"/>
		<path class="st9" d="M72.1,429.9v-1c-0.5,0.8-1.2,1.1-2.1,1.1c-0.4,0-0.8-0.1-1.1-0.2c-0.3-0.2-0.6-0.3-0.8-0.6
			c-0.2-0.2-0.3-0.5-0.4-0.8c0-0.2-0.1-0.6-0.1-1.1v-4.2h1.1v3.7c0,0.6,0,1,0.1,1.2c0.1,0.3,0.2,0.5,0.5,0.7
			c0.2,0.2,0.5,0.3,0.9,0.3s0.7-0.1,1-0.3s0.5-0.4,0.6-0.7c0.1-0.3,0.2-0.7,0.2-1.3v-3.6h1.1v6.7H72.1z"/>
		<path class="st9" d="M74.9,429.9v-6.7h1v1c0.3-0.5,0.5-0.8,0.7-0.9c0.2-0.2,0.5-0.2,0.7-0.2c0.4,0,0.8,0.1,1.2,0.4l-0.4,1.1
			c-0.3-0.2-0.6-0.2-0.8-0.2c-0.2,0-0.5,0.1-0.7,0.2s-0.3,0.4-0.4,0.6c-0.1,0.4-0.2,0.9-0.2,1.3v3.5H74.9z"/>
		<path class="st9" d="M79.2,429.9v-6.7h1v1c0.3-0.5,0.5-0.8,0.7-0.9c0.2-0.2,0.5-0.2,0.7-0.2c0.4,0,0.8,0.1,1.2,0.4l-0.4,1.1
			c-0.3-0.2-0.6-0.2-0.8-0.2c-0.2,0-0.5,0.1-0.7,0.2s-0.3,0.4-0.4,0.6c-0.1,0.4-0.2,0.9-0.2,1.3v3.5H79.2z"/>
		<path class="st9" d="M83.5,421.9v-1.3h1.1v1.3H83.5z M83.5,429.9v-6.7h1.1v6.7H83.5z"/>
		<path class="st9" d="M90.8,427.4l1.1,0.1c-0.1,0.8-0.4,1.4-0.9,1.8c-0.5,0.4-1.1,0.7-1.9,0.7c-0.9,0-1.7-0.3-2.2-0.9
			c-0.6-0.6-0.8-1.5-0.8-2.6c0-0.7,0.1-1.4,0.4-1.9s0.6-1,1.1-1.2c0.5-0.3,1-0.4,1.6-0.4c0.7,0,1.3,0.2,1.8,0.6s0.8,0.9,0.9,1.6
			l-1.1,0.2c-0.1-0.5-0.3-0.8-0.6-1c-0.3-0.2-0.6-0.3-1-0.3c-0.6,0-1,0.2-1.4,0.6c-0.4,0.4-0.5,1.1-0.5,2c0,0.9,0.2,1.6,0.5,2
			c0.3,0.4,0.8,0.6,1.4,0.6c0.4,0,0.8-0.1,1.1-0.4C90.6,428.4,90.7,428,90.8,427.4z"/>
		<path class="st9" d="M97.3,429.9v-1c-0.5,0.8-1.2,1.1-2.1,1.1c-0.4,0-0.8-0.1-1.1-0.2c-0.3-0.2-0.6-0.3-0.8-0.6
			c-0.2-0.2-0.3-0.5-0.4-0.8c0-0.2-0.1-0.6-0.1-1.1v-4.2H94v3.7c0,0.6,0,1,0.1,1.2c0.1,0.3,0.2,0.5,0.5,0.7c0.2,0.2,0.5,0.3,0.9,0.3
			s0.7-0.1,1-0.3s0.5-0.4,0.6-0.7c0.1-0.3,0.2-0.7,0.2-1.3v-3.6h1.1v6.7H97.3z"/>
		<path class="st9" d="M100.1,429.9v-9.3h1.1v9.3H100.1z"/>
		<path class="st9" d="M107.5,429.9v-1c-0.5,0.8-1.2,1.1-2.1,1.1c-0.4,0-0.8-0.1-1.1-0.2c-0.3-0.2-0.6-0.3-0.8-0.6
			c-0.2-0.2-0.3-0.5-0.4-0.8c0-0.2-0.1-0.6-0.1-1.1v-4.2h1.1v3.7c0,0.6,0,1,0.1,1.2c0.1,0.3,0.2,0.5,0.5,0.7
			c0.2,0.2,0.5,0.3,0.9,0.3s0.7-0.1,1-0.3s0.5-0.4,0.6-0.7c0.1-0.3,0.2-0.7,0.2-1.3v-3.6h1.1v6.7H107.5z"/>
		<path class="st9" d="M110.3,429.9v-6.7h1v0.9c0.2-0.3,0.5-0.6,0.8-0.8s0.8-0.3,1.2-0.3c0.5,0,0.9,0.1,1.2,0.3
			c0.3,0.2,0.5,0.5,0.7,0.9c0.5-0.8,1.2-1.2,2.1-1.2c0.7,0,1.2,0.2,1.5,0.6s0.5,0.9,0.5,1.7v4.6h-1.1v-4.2c0-0.5,0-0.8-0.1-1
			c-0.1-0.2-0.2-0.4-0.4-0.5c-0.2-0.1-0.4-0.2-0.7-0.2c-0.5,0-0.9,0.2-1.2,0.5s-0.5,0.8-0.5,1.5v3.9h-1.1v-4.4
			c0-0.5-0.1-0.9-0.3-1.1s-0.5-0.4-0.9-0.4c-0.3,0-0.6,0.1-0.9,0.3c-0.3,0.2-0.5,0.4-0.6,0.7c-0.1,0.3-0.2,0.8-0.2,1.4v3.5H110.3z"
			/>
	</g>
	<g class="st8">
		<path class="st9" d="M47.9,381.7h1.2v5.4c0,0.9-0.1,1.7-0.3,2.2s-0.6,1-1.1,1.3c-0.6,0.3-1.3,0.5-2.2,0.5c-0.9,0-1.6-0.1-2.1-0.5
			s-1-0.7-1.2-1.3s-0.4-1.3-0.4-2.3v-5.4H43v5.4c0,0.8,0.1,1.4,0.2,1.8c0.2,0.4,0.4,0.7,0.8,0.9c0.4,0.2,0.8,0.3,1.3,0.3
			c0.9,0,1.6-0.2,1.9-0.6c0.4-0.4,0.6-1.2,0.6-2.4V381.7z"/>
		<path class="st9" d="M51,391v-6.7h1v1c0.5-0.7,1.2-1.1,2.1-1.1c0.4,0,0.8,0.1,1.1,0.2c0.3,0.1,0.6,0.3,0.8,0.6
			c0.2,0.2,0.3,0.5,0.4,0.8c0,0.2,0.1,0.6,0.1,1.1v4.1h-1.1v-4.1c0-0.5,0-0.8-0.1-1s-0.2-0.4-0.5-0.6c-0.2-0.1-0.5-0.2-0.8-0.2
			c-0.5,0-0.9,0.2-1.3,0.5c-0.4,0.3-0.5,0.9-0.5,1.8v3.7H51z"/>
		<path class="st9" d="M57.8,389l1.1-0.2c0.1,0.5,0.2,0.8,0.5,1c0.3,0.2,0.7,0.4,1.2,0.4c0.5,0,0.9-0.1,1.2-0.3s0.4-0.5,0.4-0.8
			c0-0.3-0.1-0.5-0.3-0.6c-0.2-0.1-0.5-0.2-1.2-0.4c-0.8-0.2-1.4-0.4-1.7-0.5c-0.3-0.2-0.6-0.4-0.7-0.6c-0.2-0.3-0.3-0.6-0.3-0.9
			c0-0.3,0.1-0.6,0.2-0.8c0.1-0.3,0.3-0.5,0.6-0.6c0.2-0.1,0.4-0.2,0.7-0.3c0.3-0.1,0.6-0.1,1-0.1c0.5,0,1,0.1,1.4,0.2
			c0.4,0.2,0.7,0.4,0.9,0.6c0.2,0.3,0.3,0.6,0.4,1l-1.1,0.2c-0.1-0.3-0.2-0.6-0.4-0.8c-0.2-0.2-0.6-0.3-1-0.3
			c-0.5,0-0.9,0.1-1.1,0.3c-0.2,0.2-0.3,0.4-0.3,0.6c0,0.1,0,0.3,0.1,0.4c0.1,0.1,0.2,0.2,0.4,0.3c0.1,0,0.5,0.1,1,0.3
			c0.8,0.2,1.4,0.4,1.7,0.5c0.3,0.1,0.6,0.3,0.8,0.6s0.3,0.6,0.3,1c0,0.4-0.1,0.7-0.3,1.1c-0.2,0.3-0.5,0.6-1,0.8
			c-0.4,0.2-0.9,0.3-1.4,0.3c-0.9,0-1.5-0.2-2-0.5C58.2,390.2,57.9,389.7,57.8,389z"/>
		<path class="st9" d="M69.2,391v-1c-0.5,0.8-1.2,1.1-2.1,1.1c-0.4,0-0.8-0.1-1.1-0.2c-0.3-0.2-0.6-0.3-0.8-0.6
			c-0.2-0.2-0.3-0.5-0.4-0.8c0-0.2-0.1-0.6-0.1-1.1v-4.2h1.1v3.7c0,0.6,0,1,0.1,1.2c0.1,0.3,0.2,0.5,0.5,0.7
			c0.2,0.2,0.5,0.3,0.9,0.3s0.7-0.1,1-0.3s0.5-0.4,0.6-0.7c0.1-0.3,0.2-0.7,0.2-1.3v-3.6h1.1v6.7H69.2z"/>
		<path class="st9" d="M72,393.6v-9.3h1v0.9c0.2-0.3,0.5-0.6,0.8-0.8c0.3-0.2,0.7-0.3,1.1-0.3c0.6,0,1.1,0.1,1.5,0.4s0.8,0.7,1,1.3
			c0.2,0.5,0.3,1.1,0.3,1.8c0,0.7-0.1,1.3-0.4,1.9c-0.2,0.6-0.6,1-1.1,1.3c-0.5,0.3-1,0.4-1.5,0.4c-0.4,0-0.7-0.1-1-0.2
			c-0.3-0.2-0.6-0.4-0.7-0.6v3.3H72z M73,387.7c0,0.9,0.2,1.5,0.5,1.9s0.8,0.6,1.3,0.6c0.5,0,0.9-0.2,1.3-0.6c0.4-0.4,0.5-1.1,0.5-2
			c0-0.9-0.2-1.5-0.5-1.9c-0.4-0.4-0.8-0.6-1.3-0.6c-0.5,0-0.9,0.2-1.3,0.7C73.2,386.1,73,386.8,73,387.7z"/>
		<path class="st9" d="M83.8,388.8L85,389c-0.2,0.7-0.5,1.2-1,1.6s-1.1,0.6-1.9,0.6c-1,0-1.8-0.3-2.3-0.9c-0.6-0.6-0.9-1.5-0.9-2.6
			c0-1.1,0.3-2,0.9-2.6s1.3-0.9,2.3-0.9c0.9,0,1.6,0.3,2.2,0.9c0.6,0.6,0.9,1.5,0.9,2.6c0,0.1,0,0.2,0,0.3h-5c0,0.7,0.3,1.3,0.6,1.7
			c0.4,0.4,0.8,0.6,1.4,0.6c0.4,0,0.8-0.1,1.1-0.3S83.6,389.3,83.8,388.8z M80.1,387h3.8c-0.1-0.6-0.2-1-0.4-1.3
			c-0.4-0.4-0.8-0.7-1.4-0.7c-0.5,0-1,0.2-1.3,0.5C80.3,385.9,80.1,386.4,80.1,387z"/>
		<path class="st9" d="M86.4,391v-6.7h1v1c0.3-0.5,0.5-0.8,0.7-0.9c0.2-0.2,0.5-0.2,0.7-0.2c0.4,0,0.8,0.1,1.2,0.4l-0.4,1.1
			c-0.3-0.2-0.6-0.2-0.8-0.2c-0.2,0-0.5,0.1-0.7,0.2s-0.3,0.4-0.4,0.6c-0.1,0.4-0.2,0.9-0.2,1.3v3.5H86.4z"/>
		<path class="st9" d="M92.6,391l-2.6-6.7h1.2l1.4,4c0.2,0.4,0.3,0.9,0.4,1.4c0.1-0.4,0.2-0.8,0.4-1.3l1.5-4.1h1.2l-2.6,6.7H92.6z"
			/>
		<path class="st9" d="M97.3,383v-1.3h1.1v1.3H97.3z M97.3,391v-6.7h1.1v6.7H97.3z"/>
		<path class="st9" d="M99.7,389l1.1-0.2c0.1,0.5,0.2,0.8,0.5,1c0.3,0.2,0.7,0.4,1.2,0.4c0.5,0,0.9-0.1,1.2-0.3s0.4-0.5,0.4-0.8
			c0-0.3-0.1-0.5-0.3-0.6c-0.2-0.1-0.5-0.2-1.2-0.4c-0.8-0.2-1.4-0.4-1.7-0.5c-0.3-0.2-0.6-0.4-0.7-0.6c-0.2-0.3-0.3-0.6-0.3-0.9
			c0-0.3,0.1-0.6,0.2-0.8c0.1-0.3,0.3-0.5,0.6-0.6c0.2-0.1,0.4-0.2,0.7-0.3c0.3-0.1,0.6-0.1,1-0.1c0.5,0,1,0.1,1.4,0.2
			c0.4,0.2,0.7,0.4,0.9,0.6c0.2,0.3,0.3,0.6,0.4,1l-1.1,0.2c-0.1-0.3-0.2-0.6-0.4-0.8c-0.2-0.2-0.6-0.3-1-0.3
			c-0.5,0-0.9,0.1-1.1,0.3c-0.2,0.2-0.3,0.4-0.3,0.6c0,0.1,0,0.3,0.1,0.4c0.1,0.1,0.2,0.2,0.4,0.3c0.1,0,0.5,0.1,1,0.3
			c0.8,0.2,1.4,0.4,1.7,0.5c0.3,0.1,0.6,0.3,0.8,0.6s0.3,0.6,0.3,1c0,0.4-0.1,0.7-0.3,1.1c-0.2,0.3-0.5,0.6-1,0.8
			c-0.4,0.2-0.9,0.3-1.4,0.3c-0.9,0-1.5-0.2-2-0.5C100.1,390.2,99.8,389.7,99.7,389z"/>
		<path class="st9" d="M111.3,388.8l1.2,0.1c-0.2,0.7-0.5,1.2-1,1.6s-1.1,0.6-1.9,0.6c-1,0-1.8-0.3-2.3-0.9
			c-0.6-0.6-0.9-1.5-0.9-2.6c0-1.1,0.3-2,0.9-2.6s1.3-0.9,2.3-0.9c0.9,0,1.6,0.3,2.2,0.9c0.6,0.6,0.9,1.5,0.9,2.6c0,0.1,0,0.2,0,0.3
			h-5c0,0.7,0.3,1.3,0.6,1.7c0.4,0.4,0.8,0.6,1.4,0.6c0.4,0,0.8-0.1,1.1-0.3S111.1,389.3,111.3,388.8z M107.5,387h3.8
			c-0.1-0.6-0.2-1-0.4-1.3c-0.4-0.4-0.8-0.7-1.4-0.7c-0.5,0-1,0.2-1.3,0.5C107.7,385.9,107.5,386.4,107.5,387z"/>
		<path class="st9" d="M118.3,391v-0.9c-0.4,0.7-1.1,1-1.9,1c-0.5,0-1-0.1-1.5-0.4c-0.5-0.3-0.8-0.7-1-1.2c-0.2-0.5-0.4-1.1-0.4-1.8
			c0-0.7,0.1-1.3,0.3-1.8s0.6-1,1-1.3c0.4-0.3,1-0.4,1.5-0.4c0.4,0,0.8,0.1,1.1,0.3c0.3,0.2,0.6,0.4,0.8,0.7v-3.3h1.1v9.3H118.3z
			 M114.6,387.6c0,0.9,0.2,1.5,0.5,1.9c0.4,0.4,0.8,0.6,1.3,0.6c0.5,0,0.9-0.2,1.3-0.6c0.3-0.4,0.5-1,0.5-1.9c0-0.9-0.2-1.6-0.5-2
			s-0.8-0.6-1.3-0.6c-0.5,0-0.9,0.2-1.3,0.6C114.8,386.1,114.6,386.7,114.6,387.6z"/>
	</g>
</g>
<g id="Layer_5">
	<rect x="562" y="140.7" class="st10" width="10" height="83.6"/>
	<rect x="562" y="351.8" class="st10" width="10" height="16.2"/>
	<rect x="562" y="442.6" class="st10" width="10" height="18.1"/>
	<rect x="562" y="393" class="st10" width="10" height="24.6"/>
	<rect x="562" y="318.9" class="st10" width="10" height="7.9"/>
	<rect x="562" y="249.3" class="st11" width="10" height="44.6"/>
	<rect x="347" y="455.2" class="st10" width="10" height="5.6"/>
	<rect x="347" y="190.7" class="st10" width="10" height="139.3"/>
	<rect x="347" y="355" class="st10" width="10" height="27.9"/>
	<rect x="347" y="407.9" class="st10" width="10" height="22.3"/>
	<rect x="132" y="165.7" class="st10" width="10" height="139.3"/>
	<rect x="132" y="330" class="st10" width="10" height="22.3"/>
	<rect x="132" y="455.2" class="st10" width="10" height="5.6"/>
	<rect x="132" y="424.6" class="st10" width="10" height="5.6"/>
	<rect x="132" y="377.3" class="st10" width="10" height="22.3"/>
</g>
</svg>
