<svg class="main-svg" xmlns="http://www.w3.org/2000/svg" xmlns:xlink="http://www.w3.org/1999/xlink" width="600" height="500" style="" viewBox="0 0 600 500"><rect x="0" y="0" width="600" height="500" style="fill: rgb(255, 255, 255); fill-opacity: 1;"/><defs id="defs-4cce54"><g class="clips"/><g class="gradients"/><g class="patterns"/></defs><g class="bglayer"/><g class="layer-below"><g class="imagelayer"/><g class="shapelayer"/></g><g class="cartesianlayer"/><g class="polarlayer"/><g class="smithlayer"/><g class="ternarylayer"/><g class="geolayer"/><g class="funnelarealayer"/><g class="pielayer"/><g class="iciclelayer"/><g class="treemaplayer"/><g class="sunburstlayer"/><g class="glimages"/><g class="sankey" transform="translate(80,100)matrix(1 0 0 1 0 0)" style="box-sizing: content-box; position: absolute; left: 0px; shape-rendering: geometricprecision; pointer-events: auto;"><g class="sankey-links" style="fill: none;"><path class="sankey-link" d="M10,216.409948723209C112.5,216.409948723209 112.5,147.27272727272378 215,147.27272727272378L215,150.22727272732448C112.5,150.22727272732448 112.5,219.3644941778097 10,219.3644941778097Z" style="stroke: rgb(68, 68, 68); stroke-opacity: 1; fill: rgb(69, 2, 86); fill-opacity: 1; stroke-width: 0; opacity: 1;"/><path class="sankey-link" d="M10,123.45540326887127C112.5,123.45540326887127 112.5,99.9999999999995 215,99.9999999999995L215,102.95454545460017C112.5,102.95454545460017 112.5,126.40994872347193 10,126.40994872347193Z" style="stroke: rgb(68, 68, 68); stroke-opacity: 1; fill: rgb(87, 188, 214); fill-opacity: 1; stroke-width: 0; opacity: 1;"/><path class="sankey-link" d="M225,159.5833333328828C327.5,159.5833333328828 327.5,161.78030303018835 430,161.78030303018835L430,167.6893939390942C327.5,167.6893939390942 327.5,165.49242424178865 225,165.49242424178865Z" style="stroke: rgb(68, 68, 68); stroke-opacity: 1; fill: rgb(87, 188, 214); fill-opacity: 1; stroke-width: 0; opacity: 1;"/><path class="sankey-link" d="M10,219.36449417780966C112.5,219.36449417780966 112.5,150.22727272732445 215,150.22727272732445L215,156.1363636362303C112.5,156.1363636362303 112.5,225.2735850867155 10,225.2735850867155Z" style="stroke: rgb(68, 68, 68); stroke-opacity: 1; fill: rgb(69, 2, 86); fill-opacity: 1; stroke-width: 0; opacity: 1;"/><path class="sankey-link" d="M225,165.49242424178868C327.5,165.49242424178868 327.5,167.68939393909423 430,167.68939393909423L430,173.59848484800008C327.5,173.59848484800008 327.5,171.40151515069454 225,171.40151515069454Z" style="stroke: rgb(68, 68, 68); stroke-opacity: 1; fill: rgb(69, 2, 86); fill-opacity: 1; stroke-width: 0; opacity: 1;"/><path class="sankey-link" d="M225,295.3787878783768C327.5,295.3787878783768 327.5,197.23484848362364 430,197.23484848362364L430,203.1439393925295C327.5,203.1439393925295 327.5,301.2878787872827 225,301.2878787872827Z" style="stroke: rgb(68, 68, 68); stroke-opacity: 1; fill: rgb(69, 2, 86); fill-opacity: 1; stroke-width: 0; opacity: 1;"/><path class="sankey-link" d="M10,126.40994872347193C112.5,126.40994872347193 112.5,102.95454545460017 215,102.95454545460017L215,105.90909090920083C112.5,105.90909090920083 112.5,129.3644941780726 10,129.3644941780726Z" style="stroke: rgb(68, 68, 68); stroke-opacity: 1; fill: rgb(87, 188, 214); fill-opacity: 1; stroke-width: 0; opacity: 1;"/><path class="sankey-link" d="M10,170.72813054159553C112.5,170.72813054159553 112.5,243.18181818107178 215,243.18181818107178L215,246.13636363567247C112.5,246.13636363567247 112.5,173.68267599619622 10,173.68267599619622Z" style="stroke: rgb(68, 68, 68); stroke-opacity: 1; fill: rgb(87, 188, 214); fill-opacity: 1; stroke-width: 0; opacity: 1;"/><path class="sankey-link" d="M225,99.9999999999995C327.5,99.9999999999995 327.5,9.947598300641403e-14 430,9.947598300641403e-14L430,0.9848484848998164C327.5,0.9848484848998164 327.5,100.98484848489922 225,100.98484848489922Z" style="stroke: rgb(87, 188, 214); stroke-opacity: 1; fill: rgb(87, 188, 214); fill-opacity: 1; stroke-width: 1; opacity: 1;"/><path class="sankey-link" d="M225,195.0378787863181C327.5,195.0378787863181 327.5,228.14393939252943 430,228.14393939252943L430,229.12878787742915C327.5,229.12878787742915 327.5,196.0227272712178 225,196.0227272712178Z" style="stroke: rgb(87, 188, 214); stroke-opacity: 1; fill: rgb(87, 188, 214); fill-opacity: 1; stroke-width: 1; opacity: 1;"/><path class="sankey-link" d="M225,202.42424242292233C327.5,202.42424242292233 327.5,268.901515150572 430,268.901515150572L430,269.88636363547175C327.5,269.88636363547175 327.5,203.40909090782205 225,203.40909090782205Z" style="stroke: rgb(87, 188, 214); stroke-opacity: 1; fill: rgb(87, 188, 214); fill-opacity: 1; stroke-width: 1; opacity: 1;"/><path class="sankey-link" d="M225,243.18181818107178C327.5,243.18181818107178 327.5,53.18181818117887 430,53.18181818117887L430,54.166666666078584C327.5,54.166666666078584 327.5,244.1666666659715 225,244.1666666659715Z" style="stroke: rgb(87, 188, 214); stroke-opacity: 1; fill: rgb(87, 188, 214); fill-opacity: 1; stroke-width: 1; opacity: 1;"/><path class="sankey-link" d="M225,301.28787878728264C327.5,301.28787878728264 327.5,235.53030302913368 430,235.53030302913368L430,236.5151515140334C327.5,236.5151515140334 327.5,302.2727272721824 225,302.2727272721824Z" style="stroke: rgb(87, 188, 214); stroke-opacity: 1; fill: rgb(87, 188, 214); fill-opacity: 1; stroke-width: 1; opacity: 1;"/><path class="sankey-link" d="M225,309.659090908721C327.5,309.659090908721 327.5,279.2424242418508 430,279.2424242418508L430,280.2272727267506C327.5,280.2272727267506 327.5,310.64393939362077 225,310.64393939362077Z" style="stroke: rgb(87, 188, 214); stroke-opacity: 1; fill: rgb(87, 188, 214); fill-opacity: 1; stroke-width: 1; opacity: 1;"/><path class="sankey-link" d="M10,129.3644941780726C112.5,129.3644941780726 112.5,105.90909090920083 215,105.90909090920083L215,111.81818181810671C112.5,111.81818181810671 112.5,135.27358508697844 10,135.27358508697844Z" style="stroke: rgb(68, 68, 68); stroke-opacity: 1; fill: rgb(87, 188, 214); fill-opacity: 1; stroke-width: 0; opacity: 1;"/><path class="sankey-link" d="M225,100.98484848489922C327.5,100.98484848489922 327.5,0.9848484848998162 430,0.9848484848998162L430,6.893939393805693C327.5,6.893939393805693 327.5,106.8939393938051 225,106.8939393938051Z" style="stroke: rgb(68, 68, 68); stroke-opacity: 1; fill: rgb(87, 188, 214); fill-opacity: 1; stroke-width: 0; opacity: 1;"/><path class="sankey-link" d="M10,225.27358508671554C112.5,225.27358508671554 112.5,156.13636363623033 215,156.13636363623033L215,159.09090909083102C112.5,159.09090909083102 112.5,228.22813054131623 10,228.22813054131623Z" style="stroke: rgb(68, 68, 68); stroke-opacity: 1; fill: rgb(69, 2, 86); fill-opacity: 1; stroke-width: 0; opacity: 1;"/><path class="sankey-link" d="M10,135.27358508697847C112.5,135.27358508697847 112.5,111.81818181810671 215,111.81818181810671L215,114.77272727270737C112.5,114.77272727270737 112.5,138.22813054157916 10,138.22813054157916Z" style="stroke: rgb(68, 68, 68); stroke-opacity: 1; fill: rgb(87, 188, 214); fill-opacity: 1; stroke-width: 0; opacity: 1;"/><path class="sankey-link" d="M225,171.40151515069456C327.5,171.40151515069456 327.5,173.5984848480001 430,173.5984848480001L430,179.50757575690596C327.5,179.50757575690596 327.5,177.31060605960042 225,177.31060605960042Z" style="stroke: rgb(68, 68, 68); stroke-opacity: 1; fill: rgb(87, 188, 214); fill-opacity: 1; stroke-width: 0; opacity: 1;"/><path class="sankey-link" d="M10,228.2281305413162C112.5,228.2281305413162 112.5,159.090909090831 215,159.090909090831L215,162.04545454543168C112.5,162.04545454543168 112.5,231.1826759959169 10,231.1826759959169Z" style="stroke: rgb(68, 68, 68); stroke-opacity: 1; fill: rgb(69, 2, 86); fill-opacity: 1; stroke-width: 0; opacity: 1;"/><path class="sankey-link" d="M10,138.22813054157913C112.5,138.22813054157913 112.5,114.77272727270737 215,114.77272727270737L215,117.72727272730803C112.5,117.72727272730803 112.5,141.18267599617982 10,141.18267599617982Z" style="stroke: rgb(68, 68, 68); stroke-opacity: 1; fill: rgb(87, 188, 214); fill-opacity: 1; stroke-width: 0; opacity: 1;"/><path class="sankey-link" d="M225,196.0227272712178C327.5,196.0227272712178 327.5,229.12878787742915 430,229.12878787742915L430,230.6060606047664C327.5,230.6060606047664 327.5,197.49999999855507 225,197.49999999855507Z" style="stroke: rgb(68, 68, 68); stroke-opacity: 1; fill: rgb(87, 188, 214); fill-opacity: 1; stroke-width: 0; opacity: 1;"/><path class="sankey-link" d="M225,203.40909090782205C327.5,203.40909090782205 327.5,269.8863636354717 430,269.8863636354717L430,271.3636363628089C327.5,271.3636363628089 327.5,204.8863636351593 225,204.8863636351593Z" style="stroke: rgb(68, 68, 68); stroke-opacity: 1; fill: rgb(87, 188, 214); fill-opacity: 1; stroke-width: 0; opacity: 1;"/><path class="sankey-link" d="M225,153.18181818117827C327.5,153.18181818117827 327.5,112.15909090867211 430,112.15909090867211L430,113.63636363600938C327.5,113.63636363600938 327.5,154.65909090851554 225,154.65909090851554Z" style="stroke: rgb(68, 68, 68); stroke-opacity: 1; fill: rgb(87, 188, 214); fill-opacity: 1; stroke-width: 0; opacity: 1;"/><path class="sankey-link" d="M225,212.7651515142011C327.5,212.7651515142011 327.5,311.6287878785289 430,311.6287878785289L430,313.1060606058661C327.5,313.1060606058661 327.5,214.24242424153837 225,214.24242424153837Z" style="stroke: rgb(68, 68, 68); stroke-opacity: 1; fill: rgb(87, 188, 214); fill-opacity: 1; stroke-width: 0; opacity: 1;"/><path class="sankey-link" d="M10,141.1826759961798C112.5,141.1826759961798 112.5,117.72727272730803 215,117.72727272730803L215,120.6818181819087C112.5,120.6818181819087 112.5,144.1372214507805 10,144.1372214507805Z" style="stroke: rgb(68, 68, 68); stroke-opacity: 1; fill: rgb(87, 188, 214); fill-opacity: 1; stroke-width: 0; opacity: 1;"/><path class="sankey-link" d="M10,173.6826759961962C112.5,173.6826759961962 112.5,246.13636363567244 215,246.13636363567244L215,249.09090909027313C112.5,249.09090909027313 112.5,176.6372214507969 10,176.6372214507969Z" style="stroke: rgb(68, 68, 68); stroke-opacity: 1; fill: rgb(87, 188, 214); fill-opacity: 1; stroke-width: 0; opacity: 1;"/><path class="sankey-link" d="M225,106.8939393938051C327.5,106.8939393938051 327.5,6.893939393805693 430,6.893939393805693L430,8.371212121142959C327.5,8.371212121142959 327.5,108.37121212114236 225,108.37121212114236Z" style="stroke: rgb(68, 68, 68); stroke-opacity: 1; fill: rgb(87, 188, 214); fill-opacity: 1; stroke-width: 0; opacity: 1;"/><path class="sankey-link" d="M225,204.8863636351593C327.5,204.8863636351593 327.5,271.36363636280896 430,271.36363636280896L430,272.84090909014617C327.5,272.84090909014617 327.5,206.36363636249658 225,206.36363636249658Z" style="stroke: rgb(68, 68, 68); stroke-opacity: 1; fill: rgb(87, 188, 214); fill-opacity: 1; stroke-width: 0; opacity: 1;"/><path class="sankey-link" d="M225,244.1666666659715C327.5,244.1666666659715 327.5,54.166666666078584 430,54.166666666078584L430,55.64393939341585C327.5,55.64393939341585 327.5,245.64393939330876 225,245.64393939330876Z" style="stroke: rgb(68, 68, 68); stroke-opacity: 1; fill: rgb(87, 188, 214); fill-opacity: 1; stroke-width: 0; opacity: 1;"/><path class="sankey-link" d="M225,310.6439393936207C327.5,310.6439393936207 327.5,280.2272727267505 430,280.2272727267505L430,281.70454545408774C327.5,281.70454545408774 327.5,312.1212121209579 225,312.1212121209579Z" style="stroke: rgb(68, 68, 68); stroke-opacity: 1; fill: rgb(87, 188, 214); fill-opacity: 1; stroke-width: 0; opacity: 1;"/><path class="sankey-link" d="M225,245.64393939330876C327.5,245.64393939330876 327.5,55.64393939341585 430,55.64393939341585L430,58.59848484801651C327.5,58.59848484801651 327.5,248.59848484790945 225,248.59848484790945Z" style="stroke: rgb(68, 68, 68); stroke-opacity: 1; fill: rgb(87, 188, 214); fill-opacity: 1; stroke-width: 0; opacity: 1;"/><path class="sankey-link" d="M225,277.15909090856496C327.5,277.15909090856496 327.5,118.56060606037664 430,118.56060606037664L430,121.5151515149773C327.5,121.5151515149773 327.5,280.1136363631656 225,280.1136363631656Z" style="stroke: rgb(68, 68, 68); stroke-opacity: 1; fill: rgb(87, 188, 214); fill-opacity: 1; stroke-width: 0; opacity: 1;"/><path class="sankey-link" d="M10,144.13722145078046C112.5,144.13722145078046 112.5,120.6818181819087 215,120.6818181819087L215,123.63636363650936C112.5,123.63636363650936 112.5,147.09176690538115 10,147.09176690538115Z" style="stroke: rgb(68, 68, 68); stroke-opacity: 1; fill: rgb(87, 188, 214); fill-opacity: 1; stroke-width: 0; opacity: 1;"/><path class="sankey-link" d="M10,176.63722145079686C112.5,176.63722145079686 112.5,249.0909090902731 215,249.0909090902731L215,252.0454545448738C112.5,252.0454545448738 112.5,179.59176690539755 10,179.59176690539755Z" style="stroke: rgb(68, 68, 68); stroke-opacity: 1; fill: rgb(87, 188, 214); fill-opacity: 1; stroke-width: 0; opacity: 1;"/><path class="sankey-link" d="M225,108.37121212114236C327.5,108.37121212114236 327.5,8.371212121142959 430,8.371212121142959L430,9.848484848480224C327.5,9.848484848480224 327.5,109.84848484847963 225,109.84848484847963Z" style="stroke: rgb(68, 68, 68); stroke-opacity: 1; fill: rgb(87, 188, 214); fill-opacity: 1; stroke-width: 0; opacity: 1;"/><path class="sankey-link" d="M225,206.36363636249658C327.5,206.36363636249658 327.5,272.8409090901462 430,272.8409090901462L430,274.31818181748343C327.5,274.31818181748343 327.5,207.84090908983384 225,207.84090908983384Z" style="stroke: rgb(68, 68, 68); stroke-opacity: 1; fill: rgb(87, 188, 214); fill-opacity: 1; stroke-width: 0; opacity: 1;"/><path class="sankey-link" d="M225,248.59848484790942C327.5,248.59848484790942 327.5,58.59848484801651 430,58.59848484801651L430,60.07575757535378C327.5,60.07575757535378 327.5,250.07575757524668 225,250.07575757524668Z" style="stroke: rgb(68, 68, 68); stroke-opacity: 1; fill: rgb(87, 188, 214); fill-opacity: 1; stroke-width: 0; opacity: 1;"/><path class="sankey-link" d="M225,312.121212120958C327.5,312.121212120958 327.5,281.7045454540878 430,281.7045454540878L430,283.181818181425C327.5,283.181818181425 327.5,313.5984848482952 225,313.5984848482952Z" style="stroke: rgb(68, 68, 68); stroke-opacity: 1; fill: rgb(87, 188, 214); fill-opacity: 1; stroke-width: 0; opacity: 1;"/><path class="sankey-link" d="M10,231.18267599591687C112.5,231.18267599591687 112.5,162.04545454543165 215,162.04545454543165L215,165.00000000003234C112.5,165.00000000003234 112.5,234.13722145051756 10,234.13722145051756Z" style="stroke: rgb(68, 68, 68); stroke-opacity: 1; fill: rgb(69, 2, 86); fill-opacity: 1; stroke-width: 0; opacity: 1;"/><path class="sankey-link" d="M10,147.09176690538112C112.5,147.09176690538112 112.5,123.63636363650936 215,123.63636363650936L215,126.59090909111002C112.5,126.59090909111002 112.5,150.0463123599818 10,150.0463123599818Z" style="stroke: rgb(68, 68, 68); stroke-opacity: 1; fill: rgb(87, 188, 214); fill-opacity: 1; stroke-width: 0; opacity: 1;"/><path class="sankey-link" d="M225,109.84848484847963C327.5,109.84848484847963 327.5,9.848484848480224 430,9.848484848480224L430,12.80303030308089C327.5,12.80303030308089 327.5,112.80303030308029 225,112.80303030308029Z" style="stroke: rgb(68, 68, 68); stroke-opacity: 1; fill: rgb(87, 188, 214); fill-opacity: 1; stroke-width: 0; opacity: 1;"/><path class="sankey-link" d="M225,197.49999999855507C327.5,197.49999999855507 327.5,230.6060606047664 430,230.6060606047664L430,233.5606060593671C327.5,233.5606060593671 327.5,200.45454545315576 225,200.45454545315576Z" style="stroke: rgb(68, 68, 68); stroke-opacity: 1; fill: rgb(87, 188, 214); fill-opacity: 1; stroke-width: 0; opacity: 1;"/><path class="sankey-link" d="M10,234.13722145051753C112.5,234.13722145051753 112.5,165.00000000003232 215,165.00000000003232L215,167.954545454633C112.5,167.954545454633 112.5,237.09176690511822 10,237.09176690511822Z" style="stroke: rgb(68, 68, 68); stroke-opacity: 1; fill: rgb(69, 2, 86); fill-opacity: 1; stroke-width: 0; opacity: 1;"/><path class="sankey-link" d="M10,150.04631235998178C112.5,150.04631235998178 112.5,126.59090909111002 215,126.59090909111002L215,129.5454545457107C112.5,129.5454545457107 112.5,153.00085781458247 10,153.00085781458247Z" style="stroke: rgb(68, 68, 68); stroke-opacity: 1; fill: rgb(87, 188, 214); fill-opacity: 1; stroke-width: 0; opacity: 1;"/><path class="sankey-link" d="M225,112.80303030308029C327.5,112.80303030308029 327.5,12.80303030308089 430,12.80303030308089L430,18.712121211986766C327.5,18.712121211986766 327.5,118.71212121198617 225,118.71212121198617Z" style="stroke: rgb(68, 68, 68); stroke-opacity: 1; fill: rgb(87, 188, 214); fill-opacity: 1; stroke-width: 0; opacity: 1;"/><path class="sankey-link" d="M10,153.00085781458245C112.5,153.00085781458245 112.5,129.5454545457107 215,129.5454545457107L215,135.45454545461655C112.5,135.45454545461655 112.5,158.9099487234883 10,158.9099487234883Z" style="stroke: rgb(68, 68, 68); stroke-opacity: 1; fill: rgb(87, 188, 214); fill-opacity: 1; stroke-width: 0; opacity: 1;"/><path class="sankey-link" d="M225,118.71212121198617C327.5,118.71212121198617 327.5,18.712121211986766 430,18.712121211986766L430,24.62121212089264C327.5,24.62121212089264 327.5,124.62121212089205 225,124.62121212089205Z" style="stroke: rgb(68, 68, 68); stroke-opacity: 1; fill: rgb(87, 188, 214); fill-opacity: 1; stroke-width: 0; opacity: 1;"/><path class="sankey-link" d="M10,179.59176690539752C112.5,179.59176690539752 112.5,252.04545454487376 215,252.04545454487376L215,257.95454545377964C112.5,257.95454545377964 112.5,185.50085781430337 10,185.50085781430337Z" style="stroke: rgb(68, 68, 68); stroke-opacity: 1; fill: rgb(87, 188, 214); fill-opacity: 1; stroke-width: 0; opacity: 1;"/><path class="sankey-link" d="M225,250.07575757524668C327.5,250.07575757524668 327.5,60.07575757535378 430,60.07575757535378L430,62.04545454512038C327.5,62.04545454512038 327.5,252.0454545450133 225,252.0454545450133Z" style="stroke: rgb(68, 68, 68); stroke-opacity: 1; fill: rgb(87, 188, 214); fill-opacity: 1; stroke-width: 0; opacity: 1;"/><path class="sankey-link" d="M225,313.59848484829524C327.5,313.59848484829524 327.5,283.18181818142506 430,283.18181818142506L430,285.15151515119163C327.5,285.15151515119163 327.5,315.5681818180618 225,315.5681818180618Z" style="stroke: rgb(68, 68, 68); stroke-opacity: 1; fill: rgb(87, 188, 214); fill-opacity: 1; stroke-width: 0; opacity: 1;"/><path class="sankey-link" d="M225,280.11363636316565C327.5,280.11363636316565 327.5,121.5151515149773 430,121.5151515149773L430,123.4848484847439C327.5,123.4848484847439 327.5,282.0833333329322 225,282.0833333329322Z" style="stroke: rgb(68, 68, 68); stroke-opacity: 1; fill: rgb(87, 188, 214); fill-opacity: 1; stroke-width: 0; opacity: 1;"/><path class="sankey-link" d="M225,252.04545454501329C327.5,252.04545454501329 327.5,62.04545454512038 430,62.04545454512038L430,64.99999999972104C327.5,64.99999999972104 327.5,254.99999999961398 225,254.99999999961398Z" style="stroke: rgb(68, 68, 68); stroke-opacity: 1; fill: rgb(87, 188, 214); fill-opacity: 1; stroke-width: 0; opacity: 1;"/><path class="sankey-link" d="M225,317.04545454539914C327.5,317.04545454539914 327.5,317.0454545453994 430,317.0454545453994L430,320.00000000000006C327.5,320.00000000000006 327.5,319.9999999999998 225,319.9999999999998Z" style="stroke: rgb(68, 68, 68); stroke-opacity: 1; fill: rgb(87, 188, 214); fill-opacity: 1; stroke-width: 0; opacity: 1;"/><path class="sankey-link" d="M225,124.62121212089205C327.5,124.62121212089205 327.5,24.621212120892643 430,24.621212120892643L430,27.575757575493306C327.5,27.575757575493306 327.5,127.57575757549272 225,127.57575757549272Z" style="stroke: rgb(68, 68, 68); stroke-opacity: 1; fill: rgb(87, 188, 214); fill-opacity: 1; stroke-width: 0; opacity: 1;"/><path class="sankey-link" d="M225,254.99999999961395C327.5,254.99999999961395 327.5,64.99999999972104 430,64.99999999972104L430,67.9545454543217C327.5,67.9545454543217 327.5,257.9545454542146 225,257.9545454542146Z" style="stroke: rgb(68, 68, 68); stroke-opacity: 1; fill: rgb(87, 188, 214); fill-opacity: 1; stroke-width: 0; opacity: 1;"/><path class="sankey-link" d="M10,185.5008578143034C112.5,185.5008578143034 112.5,257.95454545377964 215,257.95454545377964L215,263.86363636268555C112.5,263.86363636268555 112.5,191.40994872320925 10,191.40994872320925Z" style="stroke: rgb(68, 68, 68); stroke-opacity: 1; fill: rgb(87, 188, 214); fill-opacity: 1; stroke-width: 0; opacity: 1;"/><path class="sankey-link" d="M225,302.27272727218235C327.5,302.27272727218235 327.5,236.5151515140334 430,236.5151515140334L430,239.46969696863408C327.5,239.46969696863408 327.5,305.227272726783 225,305.227272726783Z" style="stroke: rgb(68, 68, 68); stroke-opacity: 1; fill: rgb(87, 188, 214); fill-opacity: 1; stroke-width: 0; opacity: 1;"/><path class="sankey-link" d="M225,282.0833333329323C327.5,282.0833333329323 327.5,123.4848484847439 430,123.4848484847439L430,126.43939393934457C327.5,126.43939393934457 327.5,285.0378787875329 225,285.0378787875329Z" style="stroke: rgb(68, 68, 68); stroke-opacity: 1; fill: rgb(87, 188, 214); fill-opacity: 1; stroke-width: 0; opacity: 1;"/><path class="sankey-link" d="M10,237.0917669051182C112.5,237.0917669051182 112.5,167.95454545463298 215,167.95454545463298L215,170.90909090923367C112.5,170.90909090923367 112.5,240.04631235971888 10,240.04631235971888Z" style="stroke: rgb(68, 68, 68); stroke-opacity: 1; fill: rgb(69, 2, 86); fill-opacity: 1; stroke-width: 0; opacity: 1;"/><path class="sankey-link" d="M10,158.90994872348833C112.5,158.90994872348833 112.5,135.45454545461658 215,135.45454545461658L215,138.40909090921727C112.5,138.40909090921727 112.5,161.86449417808902 10,161.86449417808902Z" style="stroke: rgb(68, 68, 68); stroke-opacity: 1; fill: rgb(87, 188, 214); fill-opacity: 1; stroke-width: 0; opacity: 1;"/><path class="sankey-link" d="M225,177.31060605960045C327.5,177.31060605960045 327.5,179.507575756906 430,179.507575756906L430,185.41666666581185C327.5,185.41666666581185 327.5,183.2196969685063 225,183.2196969685063Z" style="stroke: rgb(68, 68, 68); stroke-opacity: 1; fill: rgb(87, 188, 214); fill-opacity: 1; stroke-width: 0; opacity: 1;"/><path class="sankey-link" d="M10,240.04631235971885C112.5,240.04631235971885 112.5,170.90909090923364 215,170.90909090923364L215,176.8181818181395C112.5,176.8181818181395 112.5,245.9554032686247 10,245.9554032686247Z" style="stroke: rgb(68, 68, 68); stroke-opacity: 1; fill: rgb(69, 2, 86); fill-opacity: 1; stroke-width: 0; opacity: 1;"/><path class="sankey-link" d="M225,127.57575757549272C327.5,127.57575757549272 327.5,27.57575757549331 430,27.57575757549331L430,33.48484848439919C327.5,33.48484848439919 327.5,133.48484848439858 225,133.48484848439858Z" style="stroke: rgb(68, 68, 68); stroke-opacity: 1; fill: rgb(69, 2, 86); fill-opacity: 1; stroke-width: 0; opacity: 1;"/><path class="sankey-link" d="M225,257.9545454542146C327.5,257.9545454542146 327.5,67.9545454543217 430,67.9545454543217L430,70.90909090892237C327.5,70.90909090892237 327.5,260.90909090881524 225,260.90909090881524Z" style="stroke: rgb(68, 68, 68); stroke-opacity: 1; fill: rgb(69, 2, 86); fill-opacity: 1; stroke-width: 0; opacity: 1;"/><path class="sankey-link" d="M225,285.037878787533C327.5,285.037878787533 327.5,126.43939393934457 430,126.43939393934457L430,129.39393939394523C327.5,129.39393939394523 327.5,287.9924242421336 225,287.9924242421336Z" style="stroke: rgb(68, 68, 68); stroke-opacity: 1; fill: rgb(69, 2, 86); fill-opacity: 1; stroke-width: 0; opacity: 1;"/><path class="sankey-link" d="M10,245.95540326862474C112.5,245.95540326862474 112.5,176.81818181813952 215,176.81818181813952L215,182.72727272704537C112.5,182.72727272704537 112.5,251.8644941775306 10,251.8644941775306Z" style="stroke: rgb(68, 68, 68); stroke-opacity: 1; fill: rgb(69, 2, 86); fill-opacity: 1; stroke-width: 0; opacity: 1;"/><path class="sankey-link" d="M225,133.48484848439858C327.5,133.48484848439858 327.5,33.48484848439919 430,33.48484848439919L430,36.43939393899985C327.5,36.43939393899985 327.5,136.43939393899927 225,136.43939393899927Z" style="stroke: rgb(68, 68, 68); stroke-opacity: 1; fill: rgb(69, 2, 86); fill-opacity: 1; stroke-width: 0; opacity: 1;"/><path class="sankey-link" d="M225,207.84090908983384C327.5,207.84090908983384 327.5,274.3181818174835 430,274.3181818174835L430,277.2727272720841C327.5,277.2727272720841 327.5,210.79545454443453 225,210.79545454443453Z" style="stroke: rgb(68, 68, 68); stroke-opacity: 1; fill: rgb(69, 2, 86); fill-opacity: 1; stroke-width: 0; opacity: 1;"/><path class="sankey-link" d="M10,251.86449417753062C112.5,251.86449417753062 112.5,182.7272727270454 215,182.7272727270454L215,188.63636363595126C112.5,188.63636363595126 112.5,257.77358508643647 10,257.77358508643647Z" style="stroke: rgb(68, 68, 68); stroke-opacity: 1; fill: rgb(69, 2, 86); fill-opacity: 1; stroke-width: 0; opacity: 1;"/><path class="sankey-link" d="M225,136.43939393899925C327.5,136.43939393899925 327.5,36.43939393899986 430,36.43939393899986L430,42.34848484790574C327.5,42.34848484790574 327.5,142.3484848479051 225,142.3484848479051Z" style="stroke: rgb(68, 68, 68); stroke-opacity: 1; fill: rgb(69, 2, 86); fill-opacity: 1; stroke-width: 0; opacity: 1;"/><path class="sankey-link" d="M10,161.864494178089C112.5,161.864494178089 112.5,138.40909090921724 215,138.40909090921724L215,144.3181818181231C112.5,144.3181818181231 112.5,167.77358508699484 10,167.77358508699484Z" style="stroke: rgb(68, 68, 68); stroke-opacity: 1; fill: rgb(87, 188, 214); fill-opacity: 1; stroke-width: 0; opacity: 1;"/><path class="sankey-link" d="M225,142.34848484790513C327.5,142.34848484790513 327.5,42.34848484790573 430,42.34848484790573L430,48.25757575681161C327.5,48.25757575681161 327.5,148.25757575681098 225,148.25757575681098Z" style="stroke: rgb(68, 68, 68); stroke-opacity: 1; fill: rgb(87, 188, 214); fill-opacity: 1; stroke-width: 0; opacity: 1;"/><path class="sankey-link" d="M10,257.77358508643647C112.5,257.77358508643647 112.5,188.63636363595128 215,188.63636363595128L215,194.54545454485714C112.5,194.54545454485714 112.5,263.6826759953424 10,263.6826759953424Z" style="stroke: rgb(68, 68, 68); stroke-opacity: 1; fill: rgb(69, 2, 86); fill-opacity: 1; stroke-width: 0; opacity: 1;"/><path class="sankey-link" d="M225,148.257575756811C327.5,148.257575756811 327.5,48.257575756811605 430,48.257575756811605L430,51.21212121141227C327.5,51.21212121141227 327.5,151.2121212114117 225,151.2121212114117Z" style="stroke: rgb(68, 68, 68); stroke-opacity: 1; fill: rgb(69, 2, 86); fill-opacity: 1; stroke-width: 0; opacity: 1;"/><path class="sankey-link" d="M225,154.65909090851554C327.5,154.65909090851554 327.5,113.63636363600938 430,113.63636363600938L430,116.59090909061004C327.5,116.59090909061004 327.5,157.61363636311623 225,157.61363636311623Z" style="stroke: rgb(68, 68, 68); stroke-opacity: 1; fill: rgb(69, 2, 86); fill-opacity: 1; stroke-width: 0; opacity: 1;"/><path class="sankey-link" d="M225,287.99242424213367C327.5,287.99242424213367 327.5,129.39393939394523 430,129.39393939394523L430,135.30303030285108C327.5,135.30303030285108 327.5,293.9015151510396 225,293.9015151510396Z" style="stroke: rgb(68, 68, 68); stroke-opacity: 1; fill: rgb(69, 2, 86); fill-opacity: 1; stroke-width: 0; opacity: 1;"/><path class="sankey-link" d="M225,260.9090909088153C327.5,260.9090909088153 327.5,70.90909090892237 430,70.90909090892237L430,76.81818181782825C327.5,76.81818181782825 327.5,266.8181818177212 225,266.8181818177212Z" style="stroke: rgb(68, 68, 68); stroke-opacity: 1; fill: rgb(69, 2, 86); fill-opacity: 1; stroke-width: 0; opacity: 1;"/><path class="sankey-link" d="M10,272.54631235884887C112.5,272.54631235884887 112.5,263.8636363626855 215,263.8636363626855L215,269.7727272715914C112.5,269.7727272715914 112.5,278.4554032677548 10,278.4554032677548Z" style="stroke: rgb(68, 68, 68); stroke-opacity: 1; fill: rgb(69, 2, 86); fill-opacity: 1; stroke-width: 0; opacity: 1;"/><path class="sankey-link" d="M225,266.81818181772115C327.5,266.81818181772115 327.5,76.81818181782825 430,76.81818181782825L430,78.29545454516551C327.5,78.29545454516551 327.5,268.29545454505836 225,268.29545454505836Z" style="stroke: rgb(68, 68, 68); stroke-opacity: 1; fill: rgb(69, 2, 86); fill-opacity: 1; stroke-width: 0; opacity: 1;"/><path class="sankey-link" d="M225,305.22727272678304C327.5,305.22727272678304 327.5,239.46969696863405 430,239.46969696863405L430,240.94696969597132C327.5,240.94696969597132 327.5,306.70454545412025 225,306.70454545412025Z" style="stroke: rgb(68, 68, 68); stroke-opacity: 1; fill: rgb(69, 2, 86); fill-opacity: 1; stroke-width: 0; opacity: 1;"/><path class="sankey-link" d="M225,315.5681818180619C327.5,315.5681818180619 327.5,285.1515151511917 430,285.1515151511917L430,286.6287878785289C327.5,286.6287878785289 327.5,317.0454545453991 225,317.0454545453991Z" style="stroke: rgb(68, 68, 68); stroke-opacity: 1; fill: rgb(69, 2, 86); fill-opacity: 1; stroke-width: 0; opacity: 1;"/><path class="sankey-link" d="M225,293.9015151510395C327.5,293.9015151510395 327.5,135.3030303028511 430,135.3030303028511L430,136.78030303018838C327.5,136.78030303018838 327.5,295.3787878783767 225,295.3787878783767Z" style="stroke: rgb(68, 68, 68); stroke-opacity: 1; fill: rgb(69, 2, 86); fill-opacity: 1; stroke-width: 0; opacity: 1;"/><path class="sankey-link" d="M225,268.2954545450584C327.5,268.2954545450584 327.5,78.29545454516551 430,78.29545454516551L430,84.2045454540714C327.5,84.2045454540714 327.5,274.20454545396433 225,274.20454545396433Z" style="stroke: rgb(68, 68, 68); stroke-opacity: 1; fill: rgb(69, 2, 86); fill-opacity: 1; stroke-width: 0; opacity: 1;"/><path class="sankey-link" d="M10,263.6826759953423C112.5,263.6826759953423 112.5,194.54545454485717 215,194.54545454485717L215,200.45454545376302C112.5,200.45454545376302 112.5,269.59176690424823 10,269.59176690424823Z" style="stroke: rgb(68, 68, 68); stroke-opacity: 1; fill: rgb(69, 2, 86); fill-opacity: 1; stroke-width: 0; opacity: 1;"/><path class="sankey-link" d="M225,183.21969696850633C327.5,183.21969696850633 327.5,185.41666666581187 430,185.41666666581187L430,191.32575757471773C327.5,191.32575757471773 327.5,189.12878787741218 225,189.12878787741218Z" style="stroke: rgb(68, 68, 68); stroke-opacity: 1; fill: rgb(69, 2, 86); fill-opacity: 1; stroke-width: 0; opacity: 1;"/><path class="sankey-link" d="M225,189.1287878774122C327.5,189.1287878774122 327.5,191.32575757471776 430,191.32575757471776L430,197.2348484836236C327.5,197.2348484836236 327.5,195.03787878631806 225,195.03787878631806Z" style="stroke: rgb(68, 68, 68); stroke-opacity: 1; fill: rgb(69, 2, 86); fill-opacity: 1; stroke-width: 0; opacity: 1;"/><path class="sankey-link" d="M10,269.5917669042482C112.5,269.5917669042482 112.5,200.45454545376305 215,200.45454545376305L215,203.40909090836374C112.5,203.40909090836374 112.5,272.5463123588488 10,272.5463123588488Z" style="stroke: rgb(68, 68, 68); stroke-opacity: 1; fill: rgb(69, 2, 86); fill-opacity: 1; stroke-width: 0; opacity: 1;"/><path class="sankey-link" d="M10,167.77358508699487C112.5,167.77358508699487 112.5,144.31818181812312 215,144.31818181812312L215,147.2727272727238C112.5,147.2727272727238 112.5,170.72813054159556 10,170.72813054159556Z" style="stroke: rgb(68, 68, 68); stroke-opacity: 1; fill: rgb(87, 188, 214); fill-opacity: 1; stroke-width: 0; opacity: 1;"/><path class="sankey-link" d="M225,200.45454545315573C327.5,200.45454545315573 327.5,233.56060605936707 430,233.56060605936707L430,235.5303030291337C327.5,235.5303030291337 327.5,202.42424242292236 225,202.42424242292236Z" style="stroke: rgb(68, 68, 68); stroke-opacity: 1; fill: rgb(87, 188, 214); fill-opacity: 1; stroke-width: 0; opacity: 1;"/><path class="sankey-link" d="M225,157.6136363631162C327.5,157.6136363631162 327.5,116.59090909061004 430,116.59090909061004L430,118.56060606037664C327.5,118.56060606037664 327.5,159.58333333288283 225,159.58333333288283Z" style="stroke: rgb(68, 68, 68); stroke-opacity: 1; fill: rgb(87, 188, 214); fill-opacity: 1; stroke-width: 0; opacity: 1;"/><path class="sankey-link" d="M225,214.24242424153837C327.5,214.24242424153837 327.5,313.10606060586616 430,313.10606060586616L430,315.07575757563274C327.5,315.07575757563274 327.5,216.212121211305 225,216.212121211305Z" style="stroke: rgb(68, 68, 68); stroke-opacity: 1; fill: rgb(87, 188, 214); fill-opacity: 1; stroke-width: 0; opacity: 1;"/><path class="sankey-link" d="M225,151.21212121141167C327.5,151.21212121141167 327.5,51.21212121141227 430,51.21212121141227L430,53.18181818117887C327.5,53.18181818117887 327.5,153.1818181811783 225,153.1818181811783Z" style="stroke: rgb(68, 68, 68); stroke-opacity: 1; fill: rgb(87, 188, 214); fill-opacity: 1; stroke-width: 0; opacity: 1;"/><path class="sankey-link" d="M225,210.7954545444345C327.5,210.7954545444345 327.5,277.2727272720842 430,277.2727272720842L430,279.24242424185076C327.5,279.24242424185076 327.5,212.76515151420114 225,212.76515151420114Z" style="stroke: rgb(68, 68, 68); stroke-opacity: 1; fill: rgb(87, 188, 214); fill-opacity: 1; stroke-width: 0; opacity: 1;"/><path class="sankey-link" d="M225,216.21212121130498C327.5,216.21212121130498 327.5,315.0757575756328 430,315.0757575756328L430,317.04545454539937C327.5,317.04545454539937 327.5,218.1818181810716 225,218.1818181810716Z" style="stroke: rgb(68, 68, 68); stroke-opacity: 1; fill: rgb(87, 188, 214); fill-opacity: 1; stroke-width: 0; opacity: 1;"/><path class="sankey-link" d="M225,274.2045454539643C327.5,274.2045454539643 327.5,84.2045454540714 430,84.2045454540714L430,87.15909090867206C327.5,87.15909090867206 327.5,277.1590909085649 225,277.1590909085649Z" style="stroke: rgb(68, 68, 68); stroke-opacity: 1; fill: rgb(87, 188, 214); fill-opacity: 1; stroke-width: 0; opacity: 1;"/><path class="sankey-link" d="M225,306.7045454541203C327.5,306.7045454541203 327.5,240.94696969597132 430,240.94696969597132L430,243.901515150572C327.5,243.901515150572 327.5,309.65909090872094 225,309.65909090872094Z" style="stroke: rgb(68, 68, 68); stroke-opacity: 1; fill: rgb(87, 188, 214); fill-opacity: 1; stroke-width: 0; opacity: 1;"/></g><g class="sankey-node-set" style="cursor: move;"><g class="sankey-node" transform="translate(0.000,216.410)" style="opacity: 1;"><rect class="node-rect" width="10" height="62.045454544545834" style="stroke-width: 0.5; stroke: rgb(68, 68, 68); stroke-opacity: 1; fill: rgb(51, 51, 51); fill-opacity: 1;"/><text class="node-label" data-notex="1" x="0" y="0" text-anchor="start" transform="translate(13.25,35.572727272272914)" style="cursor: default; font-family: Arial; font-size: 13px; fill: rgb(51, 51, 51); fill-opacity: 1; white-space: pre; text-shadow: white 1px 1px 1px, white -1px -1px 1px, white 1px -1px 1px, white -1px 1px 1px;">Linguistic Structure</text></g><g class="sankey-node" transform="translate(0.000,123.455)" style="opacity: 1;"><rect class="node-rect" width="10" height="67.95454545433773" style="stroke-width: 0.5; stroke: rgb(68, 68, 68); stroke-opacity: 1; fill: rgb(51, 51, 51); fill-opacity: 1;"/><text class="node-label" data-notex="1" x="0" y="0" text-anchor="start" transform="translate(13.25,38.527272727168864)" style="cursor: default; font-family: Arial; font-size: 13px; fill: rgb(51, 51, 51); fill-opacity: 1; white-space: pre; text-shadow: white 1px 1px 1px, white -1px -1px 1px, white 1px -1px 1px, white -1px 1px 1px;">Relational Structure</text></g><g class="sankey-node" transform="translate(215.000,100.000)" style="opacity: 1;"><rect class="node-rect" width="10" height="118.1818181810723" style="stroke-width: 0.5; stroke: rgb(68, 68, 68); stroke-opacity: 1; fill: rgb(51, 51, 51); fill-opacity: 1;"/><text class="node-label" data-notex="1" x="0" y="0" text-anchor="start" transform="translate(13.25,63.64090909053615)" style="cursor: default; font-family: Arial; font-size: 13px; fill: rgb(51, 51, 51); fill-opacity: 1; white-space: pre; text-shadow: white 1px 1px 1px, white -1px -1px 1px, white 1px -1px 1px, white -1px 1px 1px;">Implicit</text></g><g class="sankey-node" transform="translate(215.000,243.182)" style="opacity: 1;"><rect class="node-rect" width="10" height="76.81818181892822" style="stroke-width: 0.5; stroke: rgb(68, 68, 68); stroke-opacity: 1; fill: rgb(51, 51, 51); fill-opacity: 1;"/><text class="node-label" data-notex="1" x="0" y="0" text-anchor="start" transform="translate(13.25,42.95909090946411)" style="cursor: default; font-family: Arial; font-size: 13px; fill: rgb(51, 51, 51); fill-opacity: 1; white-space: pre; text-shadow: white 1px 1px 1px, white -1px -1px 1px, white 1px -1px 1px, white -1px 1px 1px;">Explicit</text></g><g class="sankey-node" transform="translate(430.000,0.000)" style="opacity: 1;"><rect class="node-rect" width="10" height="87.15909090867201" style="stroke-width: 0.5; stroke: rgb(68, 68, 68); stroke-opacity: 1; fill: rgb(51, 51, 51); fill-opacity: 1;"/><text class="node-label" data-notex="1" x="0" y="0" text-anchor="end" transform="translate(-3.25,48.129545454336004)" style="cursor: default; font-family: Arial; font-size: 13px; fill: rgb(51, 51, 51); fill-opacity: 1; white-space: pre; text-shadow: white 1px 1px 1px, white -1px -1px 1px, white 1px -1px 1px, white -1px 1px 1px;">Reasoning</text></g><g class="sankey-node" transform="translate(430.000,228.144)" style="opacity: 1;"><rect class="node-rect" width="10" height="15.757575758042549" style="stroke-width: 0.5; stroke: rgb(68, 68, 68); stroke-opacity: 1; fill: rgb(51, 51, 51); fill-opacity: 1;"/><text class="node-label" data-notex="1" x="0" y="0" text-anchor="end" transform="translate(-3.25,12.428787879021275)" style="cursor: default; font-family: Arial; font-size: 13px; fill: rgb(51, 51, 51); fill-opacity: 1; white-space: pre; text-shadow: white 1px 1px 1px, white -1px -1px 1px, white 1px -1px 1px, white -1px 1px 1px;">OOD Generalization</text></g><g class="sankey-node" transform="translate(430.000,268.902)" style="opacity: 1;"><rect class="node-rect" width="10" height="17.727272727956915" style="stroke-width: 0.5; stroke: rgb(68, 68, 68); stroke-opacity: 1; fill: rgb(51, 51, 51); fill-opacity: 1;"/><text class="node-label" data-notex="1" x="0" y="0" text-anchor="end" transform="translate(-3.25,13.413636363978458)" style="cursor: default; font-family: Arial; font-size: 13px; fill: rgb(51, 51, 51); fill-opacity: 1; white-space: pre; text-shadow: white 1px 1px 1px, white -1px -1px 1px, white 1px -1px 1px, white -1px 1px 1px;">Interpretability</text></g><g class="sankey-node" transform="translate(430.000,112.159)" style="opacity: 1;"><rect class="node-rect" width="10" height="24.621212121516237" style="stroke-width: 0.5; stroke: rgb(68, 68, 68); stroke-opacity: 1; fill: rgb(51, 51, 51); fill-opacity: 1;"/><text class="node-label" data-notex="1" x="0" y="0" text-anchor="end" transform="translate(-3.25,16.86060606075812)" style="cursor: default; font-family: Arial; font-size: 13px; fill: rgb(51, 51, 51); fill-opacity: 1; white-space: pre; text-shadow: white 1px 1px 1px, white -1px -1px 1px, white 1px -1px 1px, white -1px 1px 1px;">Reduced Data</text></g><g class="sankey-node" transform="translate(430.000,311.629)" style="opacity: 1;"><rect class="node-rect" width="10" height="8.371212121471103" style="stroke-width: 0.5; stroke: rgb(68, 68, 68); stroke-opacity: 1; fill: rgb(51, 51, 51); fill-opacity: 1;"/><text class="node-label" data-notex="1" x="0" y="0" text-anchor="end" transform="translate(-3.25,8.735606060735552)" style="cursor: default; font-family: Arial; font-size: 13px; fill: rgb(51, 51, 51); fill-opacity: 1; white-space: pre; text-shadow: white 1px 1px 1px, white -1px -1px 1px, white 1px -1px 1px, white -1px 1px 1px;">Transferability</text></g><g class="sankey-node" transform="translate(430.000,161.780)" style="opacity: 1;"><rect class="node-rect" width="10" height="41.36363636234108" style="stroke-width: 0.5; stroke: rgb(68, 68, 68); stroke-opacity: 1; fill: rgb(51, 51, 51); fill-opacity: 1;"/><text class="node-label" data-notex="1" x="0" y="0" text-anchor="end" transform="translate(-3.25,25.231818181170542)" style="cursor: default; font-family: Arial; font-size: 13px; fill: rgb(51, 51, 51); fill-opacity: 1; white-space: pre; text-shadow: white 1px 1px 1px, white -1px -1px 1px, white 1px -1px 1px, white -1px 1px 1px;">NONE</text></g></g></g><defs id="topdefs-4cce54"><g class="clips"/></defs><g class="layer-above"><g class="imagelayer"/><g class="shapelayer"/></g><g class="infolayer"><g class="g-gtitle"/><g class="first-render"/></g></svg>