<svg class="main-svg" xmlns="http://www.w3.org/2000/svg" xmlns:xlink="http://www.w3.org/1999/xlink" width="600" height="500" style="" viewBox="0 0 600 500"><rect x="0" y="0" width="600" height="500" style="fill: rgb(255, 255, 255); fill-opacity: 1;"/><defs id="defs-96b29a"><g class="clips"/><g class="gradients"/><g class="patterns"/></defs><g class="bglayer"/><g class="layer-below"><g class="imagelayer"/><g class="shapelayer"/></g><g class="cartesianlayer"/><g class="polarlayer"/><g class="smithlayer"/><g class="ternarylayer"/><g class="geolayer"/><g class="funnelarealayer"/><g class="pielayer"/><g class="iciclelayer"/><g class="treemaplayer"/><g class="sunburstlayer"/><g class="glimages"/><g class="sankey" transform="translate(80,100)matrix(1 0 0 1 0 0)" style="box-sizing: content-box; position: absolute; left: 0px; shape-rendering: geometricprecision; pointer-events: auto;"><g class="sankey-links" style="fill: none;"><path class="sankey-link" d="M10,239.06711173631655C112.5,239.06711173631655 112.5,73.77777777796581 215,73.77777777796581L215,75.5555555558199C112.5,75.5555555558199 112.5,240.8448895141706 10,240.8448895141706Z" style="stroke: rgb(68, 68, 68); stroke-opacity: 1; fill: rgb(69, 2, 86); fill-opacity: 1; stroke-width: 0; opacity: 1;"/><path class="sankey-link" d="M10,148.4004450692477C112.5,148.4004450692477 112.5,63.99999999992398 215,63.99999999992398L215,65.77777777777806C112.5,65.77777777777806 112.5,150.17822284710175 10,150.17822284710175Z" style="stroke: rgb(68, 68, 68); stroke-opacity: 1; fill: rgb(87, 188, 214); fill-opacity: 1; stroke-width: 0; opacity: 1;"/><path class="sankey-link" d="M225,63.999999999923965C327.5,63.999999999923965 327.5,138.66666666709165 430,138.66666666709165L430,142.222222222622C327.5,142.222222222622 327.5,67.55555555545433 225,67.55555555545433Z" style="stroke: rgb(68, 68, 68); stroke-opacity: 1; fill: rgb(87, 188, 214); fill-opacity: 1; stroke-width: 0; opacity: 1;"/><path class="sankey-link" d="M10,272.8448895145217C112.5,272.8448895145217 112.5,295.1111111111614 215,295.1111111111614L215,298.6666666666918C112.5,298.6666666666918 112.5,276.4004450700521 10,276.4004450700521Z" style="stroke: rgb(68, 68, 68); stroke-opacity: 1; fill: rgb(69, 2, 86); fill-opacity: 1; stroke-width: 0; opacity: 1;"/><path class="sankey-link" d="M225,295.1111111111614C327.5,295.1111111111614 327.5,208.0000000002004 430,208.0000000002004L430,211.55555555573076C327.5,211.55555555573076 327.5,298.6666666666918 225,298.6666666666918Z" style="stroke: rgb(68, 68, 68); stroke-opacity: 1; fill: rgb(69, 2, 86); fill-opacity: 1; stroke-width: 0; opacity: 1;"/><path class="sankey-link" d="M225,174.2222222221435C327.5,174.2222222221435 327.5,176.00000000042715 430,176.00000000042715L430,179.5555555559575C327.5,179.5555555559575 327.5,177.77777777767386 225,177.77777777767386Z" style="stroke: rgb(68, 68, 68); stroke-opacity: 1; fill: rgb(69, 2, 86); fill-opacity: 1; stroke-width: 0; opacity: 1;"/><path class="sankey-link" d="M10,158.17822284728956C112.5,158.17822284728956 112.5,104.88888888873808 215,104.88888888873808L215,108.44444444426844C112.5,108.44444444426844 112.5,161.73377840281992 10,161.73377840281992Z" style="stroke: rgb(68, 68, 68); stroke-opacity: 1; fill: rgb(87, 188, 214); fill-opacity: 1; stroke-width: 0; opacity: 1;"/><path class="sankey-link" d="M225,110.22222222212253C327.5,110.22222222212253 327.5,229.3333333335088 430,229.3333333335088L430,232.88888888903915C327.5,232.88888888903915 327.5,113.77777777765289 225,113.77777777765289Z" style="stroke: rgb(68, 68, 68); stroke-opacity: 1; fill: rgb(87, 188, 214); fill-opacity: 1; stroke-width: 0; opacity: 1;"/><path class="sankey-link" d="M10,161.73377840281992C112.5,161.73377840281992 112.5,108.44444444426846 215,108.44444444426846L215,111.99999999979882C112.5,111.99999999979882 112.5,165.28933395835028 10,165.28933395835028Z" style="stroke: rgb(68, 68, 68); stroke-opacity: 1; fill: rgb(87, 188, 214); fill-opacity: 1; stroke-width: 0; opacity: 1;"/><path class="sankey-link" d="M225,104.88888888873808C327.5,104.88888888873808 327.5,161.7777777781279 430,161.7777777781279L430,165.33333333365826C327.5,165.33333333365826 327.5,108.44444444426844 225,108.44444444426844Z" style="stroke: rgb(68, 68, 68); stroke-opacity: 1; fill: rgb(87, 188, 214); fill-opacity: 1; stroke-width: 0; opacity: 1;"/><path class="sankey-link" d="M10,240.84488951417063C112.5,240.84488951417063 112.5,75.55555555581988 215,75.55555555581988L215,76.44444444476913C112.5,76.44444444476913 112.5,241.7337784031199 10,241.7337784031199Z" style="stroke: rgb(69, 2, 86); stroke-opacity: 1; fill: rgb(69, 2, 86); fill-opacity: 1; stroke-width: 1; opacity: 1;"/><path class="sankey-link" d="M10,245.28933395882805C112.5,245.28933395882805 112.5,112.88888888874808 215,112.88888888874808L215,113.77777777769734C112.5,113.77777777769734 112.5,246.17822284777733 10,246.17822284777733Z" style="stroke: rgb(69, 2, 86); stroke-opacity: 1; fill: rgb(69, 2, 86); fill-opacity: 1; stroke-width: 1; opacity: 1;"/><path class="sankey-link" d="M10,150.17822284710178C112.5,150.17822284710178 112.5,65.77777777777804 215,65.77777777777804L215,66.6666666667273C112.5,66.6666666667273 112.5,151.06711173605106 10,151.06711173605106Z" style="stroke: rgb(87, 188, 214); stroke-opacity: 1; fill: rgb(87, 188, 214); fill-opacity: 1; stroke-width: 1; opacity: 1;"/><path class="sankey-link" d="M10,165.28933395835028C112.5,165.28933395835028 112.5,111.99999999979883 215,111.99999999979883L215,112.88888888874808C112.5,112.88888888874808 112.5,166.17822284729957 10,166.17822284729957Z" style="stroke: rgb(87, 188, 214); stroke-opacity: 1; fill: rgb(87, 188, 214); fill-opacity: 1; stroke-width: 1; opacity: 1;"/><path class="sankey-link" d="M225,67.55555555545435C327.5,67.55555555545435 327.5,142.222222222622 430,142.222222222622L430,144.00000000047606C327.5,144.00000000047606 327.5,69.33333333330843 225,69.33333333330843Z" style="stroke: rgb(68, 68, 68); stroke-opacity: 1; fill: rgb(87, 188, 214); fill-opacity: 1; stroke-width: 0; opacity: 1;"/><path class="sankey-link" d="M225,108.44444444426846C327.5,108.44444444426846 327.5,165.33333333365826 430,165.33333333365826L430,167.11111111151232C327.5,167.11111111151232 327.5,110.22222222212254 225,110.22222222212254Z" style="stroke: rgb(68, 68, 68); stroke-opacity: 1; fill: rgb(87, 188, 214); fill-opacity: 1; stroke-width: 0; opacity: 1;"/><path class="sankey-link" d="M10,246.1782228477773C112.5,246.1782228477773 112.5,138.66666666653586 215,138.66666666653586L215,142.22222222206622C112.5,142.22222222206622 112.5,249.73377840330767 10,249.73377840330767Z" style="stroke: rgb(68, 68, 68); stroke-opacity: 1; fill: rgb(69, 2, 86); fill-opacity: 1; stroke-width: 0; opacity: 1;"/><path class="sankey-link" d="M225,131.55555555547514C327.5,131.55555555547514 327.5,167.11111111151234 430,167.11111111151234L430,170.6666666670427C327.5,170.6666666670427 327.5,135.1111111110055 225,135.1111111110055Z" style="stroke: rgb(68, 68, 68); stroke-opacity: 1; fill: rgb(69, 2, 86); fill-opacity: 1; stroke-width: 0; opacity: 1;"/><path class="sankey-link" d="M10,241.73377840311989C112.5,241.73377840311989 112.5,76.44444444476913 215,76.44444444476913L215,78.22222222262322C112.5,78.22222222262322 112.5,243.51155618097394 10,243.51155618097394Z" style="stroke: rgb(68, 68, 68); stroke-opacity: 1; fill: rgb(69, 2, 86); fill-opacity: 1; stroke-width: 0; opacity: 1;"/><path class="sankey-link" d="M10,151.06711173605103C112.5,151.06711173605103 112.5,66.6666666667273 215,66.6666666667273L215,68.44444444458138C112.5,68.44444444458138 112.5,152.8448895139051 10,152.8448895139051Z" style="stroke: rgb(68, 68, 68); stroke-opacity: 1; fill: rgb(87, 188, 214); fill-opacity: 1; stroke-width: 0; opacity: 1;"/><path class="sankey-link" d="M225,69.33333333330842C327.5,69.33333333330842 327.5,144.0000000004761 430,144.0000000004761L430,147.55555555600645C327.5,147.55555555600645 327.5,72.88888888883878 225,72.88888888883878Z" style="stroke: rgb(68, 68, 68); stroke-opacity: 1; fill: rgb(87, 188, 214); fill-opacity: 1; stroke-width: 0; opacity: 1;"/><path class="sankey-link" d="M10,166.17822284729954C112.5,166.17822284729954 112.5,131.55555555547514 215,131.55555555547514L215,135.1111111110055C112.5,135.1111111110055 112.5,169.7337784028299 10,169.7337784028299Z" style="stroke: rgb(68, 68, 68); stroke-opacity: 1; fill: rgb(87, 188, 214); fill-opacity: 1; stroke-width: 0; opacity: 1;"/><path class="sankey-link" d="M225,140.44444444438994C327.5,140.44444444438994 327.5,232.88888888903915 430,232.88888888903915L430,236.4444444445695C327.5,236.4444444445695 327.5,143.9999999999203 225,143.9999999999203Z" style="stroke: rgb(68, 68, 68); stroke-opacity: 1; fill: rgb(87, 188, 214); fill-opacity: 1; stroke-width: 0; opacity: 1;"/><path class="sankey-link" d="M10,196.40044506970028C220,196.40044506970028 220,193.77777777807896 430,193.77777777807896L430,197.33333333360932C220,197.33333333360932 220,199.95600062523064 10,199.95600062523064Z" style="stroke: rgb(68, 68, 68); stroke-opacity: 1; fill: rgb(87, 188, 214); fill-opacity: 1; stroke-width: 0; opacity: 1;"/><path class="sankey-link" d="M10,144.84488951371733C112.5,144.84488951371733 112.5,42.66666666661581 215,42.66666666661581L215,46.222222222146186C112.5,46.222222222146186 112.5,148.4004450692477 10,148.4004450692477Z" style="stroke: rgb(68, 68, 68); stroke-opacity: 1; fill: rgb(87, 188, 214); fill-opacity: 1; stroke-width: 0; opacity: 1;"/><path class="sankey-link" d="M225,42.66666666661581C327.5,42.66666666661581 327.5,135.11111111156129 430,135.11111111156129L430,138.66666666709165C327.5,138.66666666709165 327.5,46.222222222146186 225,46.222222222146186Z" style="stroke: rgb(68, 68, 68); stroke-opacity: 1; fill: rgb(87, 188, 214); fill-opacity: 1; stroke-width: 0; opacity: 1;"/><path class="sankey-link" d="M10,267.5115561811373C112.5,267.5115561811373 112.5,254.22222222222123 215,254.22222222222123L215,256.0000000000753C112.5,256.0000000000753 112.5,269.2893339589914 10,269.2893339589914Z" style="stroke: rgb(68, 68, 68); stroke-opacity: 1; fill: rgb(69, 2, 86); fill-opacity: 1; stroke-width: 0; opacity: 1;"/><path class="sankey-link" d="M10,176.84488951406843C112.5,176.84488951406843 112.5,252.44444444436715 215,252.44444444436715L215,254.2222222222212C112.5,254.2222222222212 112.5,178.62266729192248 10,178.62266729192248Z" style="stroke: rgb(68, 68, 68); stroke-opacity: 1; fill: rgb(87, 188, 214); fill-opacity: 1; stroke-width: 0; opacity: 1;"/><path class="sankey-link" d="M225,252.44444444436715C327.5,252.44444444436715 327.5,305.7777777778785 430,305.7777777778785L430,309.3333333334089C327.5,309.3333333334089 327.5,255.9999999998975 225,255.9999999998975Z" style="stroke: rgb(68, 68, 68); stroke-opacity: 1; fill: rgb(87, 188, 214); fill-opacity: 1; stroke-width: 0; opacity: 1;"/><path class="sankey-link" d="M10,253.28933395883803C112.5,253.28933395883803 112.5,175.99999999999758 215,175.99999999999758L215,177.77777777785164C112.5,177.77777777785164 112.5,255.06711173669208 10,255.06711173669208Z" style="stroke: rgb(68, 68, 68); stroke-opacity: 1; fill: rgb(69, 2, 86); fill-opacity: 1; stroke-width: 0; opacity: 1;"/><path class="sankey-link" d="M10,173.28933395836026C112.5,173.28933395836026 112.5,174.2222222221435 215,174.2222222221435L215,175.99999999999756C112.5,175.99999999999756 112.5,175.06711173621431 10,175.06711173621431Z" style="stroke: rgb(68, 68, 68); stroke-opacity: 1; fill: rgb(87, 188, 214); fill-opacity: 1; stroke-width: 0; opacity: 1;"/><path class="sankey-link" d="M225,177.77777777767386C327.5,177.77777777767386 327.5,179.5555555559575 430,179.5555555559575L430,183.11111111148787C327.5,183.11111111148787 327.5,181.33333333320422 225,181.33333333320422Z" style="stroke: rgb(68, 68, 68); stroke-opacity: 1; fill: rgb(87, 188, 214); fill-opacity: 1; stroke-width: 0; opacity: 1;"/><path class="sankey-link" d="M10,137.7337784026566C112.5,137.7337784026566 112.5,-4.263256414560601e-13 215,-4.263256414560601e-13L215,3.5555555555299456C112.5,3.5555555555299456 112.5,141.28933395818697 10,141.28933395818697Z" style="stroke: rgb(68, 68, 68); stroke-opacity: 1; fill: rgb(87, 188, 214); fill-opacity: 1; stroke-width: 0; opacity: 1;"/><path class="sankey-link" d="M225,-4.263256414560601e-13C327.5,-4.263256414560601e-13 327.5,128.00000000050056 430,128.00000000050056L430,131.55555555603092C327.5,131.55555555603092 327.5,3.5555555555299456 225,3.5555555555299456Z" style="stroke: rgb(68, 68, 68); stroke-opacity: 1; fill: rgb(87, 188, 214); fill-opacity: 1; stroke-width: 0; opacity: 1;"/><path class="sankey-link" d="M10,169.7337784028299C112.5,169.7337784028299 112.5,135.1111111110055 215,135.1111111110055L215,138.66666666653586C112.5,138.66666666653586 112.5,173.28933395836026 10,173.28933395836026Z" style="stroke: rgb(68, 68, 68); stroke-opacity: 1; fill: rgb(87, 188, 214); fill-opacity: 1; stroke-width: 0; opacity: 1;"/><path class="sankey-link" d="M225,143.9999999999203C327.5,143.9999999999203 327.5,236.4444444445695 430,236.4444444445695L430,240.00000000009987C327.5,240.00000000009987 327.5,147.55555555545067 225,147.55555555545067Z" style="stroke: rgb(68, 68, 68); stroke-opacity: 1; fill: rgb(87, 188, 214); fill-opacity: 1; stroke-width: 0; opacity: 1;"/><path class="sankey-link" d="M225,181.33333333320422C327.5,181.33333333320422 327.5,183.11111111148787 430,183.11111111148787L430,186.66666666701823C327.5,186.66666666701823 327.5,184.88888888873458 225,184.88888888873458Z" style="stroke: rgb(68, 68, 68); stroke-opacity: 1; fill: rgb(87, 188, 214); fill-opacity: 1; stroke-width: 0; opacity: 1;"/><path class="sankey-link" d="M225,72.88888888883879C327.5,72.88888888883879 327.5,147.55555555600645 430,147.55555555600645L430,151.11111111153681C327.5,151.11111111153681 327.5,76.44444444436915 225,76.44444444436915Z" style="stroke: rgb(68, 68, 68); stroke-opacity: 1; fill: rgb(87, 188, 214); fill-opacity: 1; stroke-width: 0; opacity: 1;"/><path class="sankey-link" d="M10,152.84488951390512C112.5,152.84488951390512 112.5,68.44444444458136 215,68.44444444458136L215,72.00000000011173C112.5,72.00000000011173 112.5,156.40044506943548 10,156.40044506943548Z" style="stroke: rgb(68, 68, 68); stroke-opacity: 1; fill: rgb(87, 188, 214); fill-opacity: 1; stroke-width: 0; opacity: 1;"/><path class="sankey-link" d="M225,76.44444444436917C327.5,76.44444444436917 327.5,151.11111111153681 430,151.11111111153681L430,154.66666666706718C327.5,154.66666666706718 327.5,79.99999999989953 225,79.99999999989953Z" style="stroke: rgb(68, 68, 68); stroke-opacity: 1; fill: rgb(87, 188, 214); fill-opacity: 1; stroke-width: 0; opacity: 1;"/><path class="sankey-link" d="M10,243.51155618097397C112.5,243.51155618097397 112.5,78.2222222226232 215,78.2222222226232L215,80.00000000047729C112.5,80.00000000047729 112.5,245.28933395882802 10,245.28933395882802Z" style="stroke: rgb(68, 68, 68); stroke-opacity: 1; fill: rgb(69, 2, 86); fill-opacity: 1; stroke-width: 0; opacity: 1;"/><path class="sankey-link" d="M10,156.40044506943548C112.5,156.40044506943548 112.5,72.00000000011174 215,72.00000000011174L215,73.77777777796582C112.5,73.77777777796582 112.5,158.17822284728953 10,158.17822284728953Z" style="stroke: rgb(68, 68, 68); stroke-opacity: 1; fill: rgb(87, 188, 214); fill-opacity: 1; stroke-width: 0; opacity: 1;"/><path class="sankey-link" d="M225,79.99999999989954C327.5,79.99999999989954 327.5,154.66666666706718 430,154.66666666706718L430,158.22222222259754C327.5,158.22222222259754 327.5,83.5555555554299 225,83.5555555554299Z" style="stroke: rgb(68, 68, 68); stroke-opacity: 1; fill: rgb(87, 188, 214); fill-opacity: 1; stroke-width: 0; opacity: 1;"/><path class="sankey-link" d="M10,255.0671117366921C112.5,255.0671117366921 112.5,177.77777777785167 215,177.77777777785167L215,181.33333333338203C112.5,181.33333333338203 112.5,258.6226672922225 10,258.6226672922225Z" style="stroke: rgb(68, 68, 68); stroke-opacity: 1; fill: rgb(69, 2, 86); fill-opacity: 1; stroke-width: 0; opacity: 1;"/><path class="sankey-link" d="M225,184.88888888873458C327.5,184.88888888873458 327.5,186.66666666701823 430,186.66666666701823L430,190.2222222225486C327.5,190.2222222225486 327.5,188.44444444426495 225,188.44444444426495Z" style="stroke: rgb(68, 68, 68); stroke-opacity: 1; fill: rgb(69, 2, 86); fill-opacity: 1; stroke-width: 0; opacity: 1;"/><path class="sankey-link" d="M225,152.8888888888351C327.5,152.8888888888351 327.5,280.88888888904 430,280.88888888904L430,284.4444444445704C327.5,284.4444444445704 327.5,156.44444444436547 225,156.44444444436547Z" style="stroke: rgb(68, 68, 68); stroke-opacity: 1; fill: rgb(69, 2, 86); fill-opacity: 1; stroke-width: 0; opacity: 1;"/><path class="sankey-link" d="M10,258.6226672922225C112.5,258.6226672922225 112.5,181.33333333338203 215,181.33333333338203L215,184.8888888889124C112.5,184.8888888889124 112.5,262.1782228477529 10,262.1782228477529Z" style="stroke: rgb(68, 68, 68); stroke-opacity: 1; fill: rgb(69, 2, 86); fill-opacity: 1; stroke-width: 0; opacity: 1;"/><path class="sankey-link" d="M225,188.44444444426495C327.5,188.44444444426495 327.5,190.2222222225486 430,190.2222222225486L430,193.77777777807896C327.5,193.77777777807896 327.5,191.9999999997953 225,191.9999999997953Z" style="stroke: rgb(68, 68, 68); stroke-opacity: 1; fill: rgb(69, 2, 86); fill-opacity: 1; stroke-width: 0; opacity: 1;"/><path class="sankey-link" d="M10,269.28933395899134C112.5,269.28933395899134 112.5,273.77777777785303 215,273.77777777785303L215,277.33333333338345C112.5,277.33333333338345 112.5,272.84488951452175 10,272.84488951452175Z" style="stroke: rgb(68, 68, 68); stroke-opacity: 1; fill: rgb(69, 2, 86); fill-opacity: 1; stroke-width: 0; opacity: 1;"/><path class="sankey-link" d="M225,273.77777777785303C327.5,273.77777777785303 327.5,204.44444444467004 430,204.44444444467004L430,208.0000000002004C327.5,208.0000000002004 327.5,277.33333333338345 225,277.33333333338345Z" style="stroke: rgb(68, 68, 68); stroke-opacity: 1; fill: rgb(69, 2, 86); fill-opacity: 1; stroke-width: 0; opacity: 1;"/><path class="sankey-link" d="M10,141.28933395818697C112.5,141.28933395818697 112.5,21.33333333330772 215,21.33333333330772L215,24.888888888838096C112.5,24.888888888838096 112.5,144.84488951371733 10,144.84488951371733Z" style="stroke: rgb(68, 68, 68); stroke-opacity: 1; fill: rgb(87, 188, 214); fill-opacity: 1; stroke-width: 0; opacity: 1;"/><path class="sankey-link" d="M225,21.33333333330772C327.5,21.33333333330772 327.5,131.55555555603092 430,131.55555555603092L430,135.11111111156129C327.5,135.11111111156129 327.5,24.888888888838096 225,24.888888888838096Z" style="stroke: rgb(68, 68, 68); stroke-opacity: 1; fill: rgb(87, 188, 214); fill-opacity: 1; stroke-width: 0; opacity: 1;"/><path class="sankey-link" d="M10,263.9560006256069C112.5,263.9560006256069 112.5,231.11111111105902 215,231.11111111105902L215,234.66666666658938C112.5,234.66666666658938 112.5,267.51155618113734 10,267.51155618113734Z" style="stroke: rgb(68, 68, 68); stroke-opacity: 1; fill: rgb(69, 2, 86); fill-opacity: 1; stroke-width: 0; opacity: 1;"/><path class="sankey-link" d="M225,231.11111111105902C327.5,231.11111111105902 327.5,200.88888888913968 430,200.88888888913968L430,204.44444444467004C327.5,204.44444444467004 327.5,234.66666666658938 225,234.66666666658938Z" style="stroke: rgb(68, 68, 68); stroke-opacity: 1; fill: rgb(69, 2, 86); fill-opacity: 1; stroke-width: 0; opacity: 1;"/><path class="sankey-link" d="M225,149.33333333330475C327.5,149.33333333330475 327.5,259.55555555573187 430,259.55555555573187L430,263.1111111112623C327.5,263.1111111112623 327.5,152.8888888888351 225,152.8888888888351Z" style="stroke: rgb(68, 68, 68); stroke-opacity: 1; fill: rgb(69, 2, 86); fill-opacity: 1; stroke-width: 0; opacity: 1;"/><path class="sankey-link" d="M10,217.73377840300842C220,217.73377840300842 220,197.33333333360932 430,197.33333333360932L430,200.88888888913968C220,200.88888888913968 220,221.28933395853878 10,221.28933395853878Z" style="stroke: rgb(68, 68, 68); stroke-opacity: 1; fill: rgb(69, 2, 86); fill-opacity: 1; stroke-width: 0; opacity: 1;"/><path class="sankey-link" d="M10,249.73377840330767C112.5,249.73377840330767 112.5,142.22222222206622 215,142.22222222206622L215,145.77777777759658C112.5,145.77777777759658 112.5,253.28933395883803 10,253.28933395883803Z" style="stroke: rgb(68, 68, 68); stroke-opacity: 1; fill: rgb(69, 2, 86); fill-opacity: 1; stroke-width: 0; opacity: 1;"/><path class="sankey-link" d="M225,135.1111111110055C327.5,135.1111111110055 327.5,170.6666666670427 430,170.6666666670427L430,172.44444444489676C327.5,172.44444444489676 327.5,136.88888888885955 225,136.88888888885955Z" style="stroke: rgb(68, 68, 68); stroke-opacity: 1; fill: rgb(69, 2, 86); fill-opacity: 1; stroke-width: 0; opacity: 1;"/><path class="sankey-link" d="M225,147.55555555545067C327.5,147.55555555545067 327.5,240.00000000009987 430,240.00000000009987L430,241.77777777795393C327.5,241.77777777795393 327.5,149.33333333330472 225,149.33333333330472Z" style="stroke: rgb(68, 68, 68); stroke-opacity: 1; fill: rgb(69, 2, 86); fill-opacity: 1; stroke-width: 0; opacity: 1;"/><path class="sankey-link" d="M225,136.88888888885958C327.5,136.88888888885958 327.5,172.4444444448968 430,172.4444444448968L430,176.00000000042715C327.5,176.00000000042715 327.5,140.44444444438994 225,140.44444444438994Z" style="stroke: rgb(68, 68, 68); stroke-opacity: 1; fill: rgb(69, 2, 86); fill-opacity: 1; stroke-width: 0; opacity: 1;"/><path class="sankey-link" d="M10,276.40044507005206C112.5,276.40044507005206 112.5,316.44444444446947 215,316.44444444446947L215,319.9999999999999C112.5,319.9999999999999 112.5,279.9560006255825 10,279.9560006255825Z" style="stroke: rgb(68, 68, 68); stroke-opacity: 1; fill: rgb(69, 2, 86); fill-opacity: 1; stroke-width: 0; opacity: 1;"/><path class="sankey-link" d="M225,316.44444444446947C327.5,316.44444444446947 327.5,316.4444444444696 430,316.4444444444696L430,320C327.5,320 327.5,319.9999999999999 225,319.9999999999999Z" style="stroke: rgb(68, 68, 68); stroke-opacity: 1; fill: rgb(69, 2, 86); fill-opacity: 1; stroke-width: 0; opacity: 1;"/><path class="sankey-link" d="M225,83.55555555542992C327.5,83.55555555542992 327.5,158.22222222259754 430,158.22222222259754L430,161.7777777781279C327.5,161.7777777781279 327.5,87.11111111096028 225,87.11111111096028Z" style="stroke: rgb(68, 68, 68); stroke-opacity: 1; fill: rgb(69, 2, 86); fill-opacity: 1; stroke-width: 0; opacity: 1;"/><path class="sankey-link" d="M10,262.17822284775286C112.5,262.17822284775286 112.5,211.5555555554271 215,211.5555555554271L215,213.33333333328116C112.5,213.33333333328116 112.5,263.956000625607 10,263.956000625607Z" style="stroke: rgb(68, 68, 68); stroke-opacity: 1; fill: rgb(69, 2, 86); fill-opacity: 1; stroke-width: 0; opacity: 1;"/><path class="sankey-link" d="M10,175.06711173621434C112.5,175.06711173621434 112.5,209.77777777757302 215,209.77777777757302L215,211.55555555542708C112.5,211.55555555542708 112.5,176.8448895140684 10,176.8448895140684Z" style="stroke: rgb(68, 68, 68); stroke-opacity: 1; fill: rgb(87, 188, 214); fill-opacity: 1; stroke-width: 0; opacity: 1;"/><path class="sankey-link" d="M225,209.77777777757302C327.5,209.77777777757302 327.5,302.22222222234814 430,302.22222222234814L430,305.77777777787855C327.5,305.77777777787855 327.5,213.33333333310338 225,213.33333333310338Z" style="stroke: rgb(68, 68, 68); stroke-opacity: 1; fill: rgb(87, 188, 214); fill-opacity: 1; stroke-width: 0; opacity: 1;"/><path class="sankey-link" d="M10,307.5555555602394C220,307.5555555602394 220,309.33333333340886 430,309.33333333340886L430,312.8888888889393C220,312.8888888889393 220,311.1111111157698 10,311.1111111157698Z" style="stroke: rgb(68, 68, 68); stroke-opacity: 1; fill: rgb(87, 188, 214); fill-opacity: 1; stroke-width: 0; opacity: 1;"/><path class="sankey-link" d="M10,311.11111111576975C220,311.11111111576975 220,312.8888888889392 430,312.8888888889392L430,316.44444444446964C220,316.44444444446964 220,314.66666667130016 10,314.66666667130016Z" style="stroke: rgb(68, 68, 68); stroke-opacity: 1; fill: rgb(87, 188, 214); fill-opacity: 1; stroke-width: 0; opacity: 1;"/></g><g class="sankey-node-set" style="cursor: move;"><g class="sankey-node" transform="translate(0.000,239.067)" style="opacity: 1;"><rect class="node-rect" width="10" height="40.888888889265985" style="stroke-width: 0.5; stroke: rgb(68, 68, 68); stroke-opacity: 1; fill: rgb(51, 51, 51); fill-opacity: 1;"/><text class="node-label" data-notex="1" x="0" y="0" text-anchor="start" transform="translate(13.25,24.994444444632993)" style="cursor: default; font-family: Arial; font-size: 13px; fill: rgb(51, 51, 51); fill-opacity: 1; white-space: pre; text-shadow: white 1px 1px 1px, white -1px -1px 1px, white 1px -1px 1px, white -1px 1px 1px;">Linguistic Structure</text></g><g class="sankey-node" transform="translate(0.000,137.734)" style="opacity: 1;"><rect class="node-rect" width="10" height="40.8888888892659" style="stroke-width: 0.5; stroke: rgb(68, 68, 68); stroke-opacity: 1; fill: rgb(51, 51, 51); fill-opacity: 1;"/><text class="node-label" data-notex="1" x="0" y="0" text-anchor="start" transform="translate(13.25,24.99444444463295)" style="cursor: default; font-family: Arial; font-size: 13px; fill: rgb(51, 51, 51); fill-opacity: 1; white-space: pre; text-shadow: white 1px 1px 1px, white -1px -1px 1px, white 1px -1px 1px, white -1px 1px 1px;">Relational Structure</text></g><g class="sankey-node" transform="translate(430.000,259.556)" style="opacity: 1;"><rect class="node-rect" width="10" height="3.5555555555303613" style="stroke-width: 0.5; stroke: rgb(68, 68, 68); stroke-opacity: 1; fill: rgb(51, 51, 51); fill-opacity: 1;"/><text class="node-label" data-notex="1" x="0" y="0" text-anchor="end" transform="translate(-3.25,6.3277777777651805)" style="cursor: default; font-family: Arial; font-size: 13px; fill: rgb(51, 51, 51); fill-opacity: 1; white-space: pre; text-shadow: white 1px 1px 1px, white -1px -1px 1px, white 1px -1px 1px, white -1px 1px 1px;">Information Extraction</text></g><g class="sankey-node" transform="translate(430.000,280.889)" style="opacity: 1;"><rect class="node-rect" width="10" height="3.5555555555303613" style="stroke-width: 0.5; stroke: rgb(68, 68, 68); stroke-opacity: 1; fill: rgb(51, 51, 51); fill-opacity: 1;"/><text class="node-label" data-notex="1" x="0" y="0" text-anchor="end" transform="translate(-3.25,6.3277777777651805)" style="cursor: default; font-family: Arial; font-size: 13px; fill: rgb(51, 51, 51); fill-opacity: 1; white-space: pre; text-shadow: white 1px 1px 1px, white -1px -1px 1px, white 1px -1px 1px, white -1px 1px 1px;">Recommendation</text></g><g class="sankey-node" transform="translate(430.000,128.000)" style="opacity: 1;"><rect class="node-rect" width="10" height="83.55555555523046" style="stroke-width: 0.5; stroke: rgb(68, 68, 68); stroke-opacity: 1; fill: rgb(51, 51, 51); fill-opacity: 1;"/><text class="node-label" data-notex="1" x="0" y="0" text-anchor="end" transform="translate(-3.25,46.327777777615225)" style="cursor: default; font-family: Arial; font-size: 13px; fill: rgb(51, 51, 51); fill-opacity: 1; white-space: pre; text-shadow: white 1px 1px 1px, white -1px -1px 1px, white 1px -1px 1px, white -1px 1px 1px;">Classification</text></g><g class="sankey-node" transform="translate(430.000,229.333)" style="opacity: 1;"><rect class="node-rect" width="10" height="12.44444444444531" style="stroke-width: 0.5; stroke: rgb(68, 68, 68); stroke-opacity: 1; fill: rgb(51, 51, 51); fill-opacity: 1;"/><text class="node-label" data-notex="1" x="0" y="0" text-anchor="end" transform="translate(-3.25,10.772222222222656)" style="cursor: default; font-family: Arial; font-size: 13px; fill: rgb(51, 51, 51); fill-opacity: 1; white-space: pre; text-shadow: white 1px 1px 1px, white -1px -1px 1px, white 1px -1px 1px, white -1px 1px 1px;">Inference</text></g><g class="sankey-node" transform="translate(430.000,302.222)" style="opacity: 1;"><rect class="node-rect" width="10" height="17.777777777651863" style="stroke-width: 0.5; stroke: rgb(68, 68, 68); stroke-opacity: 1; fill: rgb(51, 51, 51); fill-opacity: 1;"/><text class="node-label" data-notex="1" x="0" y="0" text-anchor="end" transform="translate(-3.25,13.438888888825932)" style="cursor: default; font-family: Arial; font-size: 13px; fill: rgb(51, 51, 51); fill-opacity: 1; white-space: pre; text-shadow: white 1px 1px 1px, white -1px -1px 1px, white 1px -1px 1px, white -1px 1px 1px;">Generative</text></g><g class="sankey-node" transform="translate(215.000,174.222)" style="opacity: 1;"><rect class="node-rect" width="10" height="17.77777777765175" style="stroke-width: 0.5; stroke: rgb(68, 68, 68); stroke-opacity: 1; fill: rgb(51, 51, 51); fill-opacity: 1;"/><text class="node-label" data-notex="1" x="0" y="0" text-anchor="start" transform="translate(13.25,13.438888888825876)" style="cursor: default; font-family: Arial; font-size: 13px; fill: rgb(51, 51, 51); fill-opacity: 1; white-space: pre; text-shadow: white 1px 1px 1px, white -1px -1px 1px, white 1px -1px 1px, white -1px 1px 1px;">Sentiment Analysis</text></g><g class="sankey-node" transform="translate(215.000,209.778)" style="opacity: 1;"><rect class="node-rect" width="10" height="3.5555555557082243" style="stroke-width: 0.5; stroke: rgb(68, 68, 68); stroke-opacity: 1; fill: rgb(51, 51, 51); fill-opacity: 1;"/><text class="node-label" data-notex="1" x="0" y="0" text-anchor="start" transform="translate(13.25,6.327777777854112)" style="cursor: default; font-family: Arial; font-size: 13px; fill: rgb(51, 51, 51); fill-opacity: 1; white-space: pre; text-shadow: white 1px 1px 1px, white -1px -1px 1px, white 1px -1px 1px, white -1px 1px 1px;">Translation</text></g><g class="sankey-node" transform="translate(0.000,196.400)" style="opacity: 1;"><rect class="node-rect" width="10" height="3.5555555555303613" style="stroke-width: 0.5; stroke: rgb(68, 68, 68); stroke-opacity: 1; fill: rgb(51, 51, 51); fill-opacity: 1;"/><text class="node-label" data-notex="1" x="0" y="0" text-anchor="start" transform="translate(13.25,6.3277777777651805)" style="cursor: default; font-family: Arial; font-size: 13px; fill: rgb(51, 51, 51); fill-opacity: 1; white-space: pre; text-shadow: white 1px 1px 1px, white -1px -1px 1px, white 1px -1px 1px, white -1px 1px 1px;">Topic Modeling / Categorization</text></g><g class="sankey-node" transform="translate(215.000,-0.000)" style="opacity: 1;"><rect class="node-rect" width="10" height="3.5555555555303755" style="stroke-width: 0.5; stroke: rgb(68, 68, 68); stroke-opacity: 1; fill: rgb(51, 51, 51); fill-opacity: 1;"/><text class="node-label" data-notex="1" x="0" y="0" text-anchor="start" transform="translate(13.25,6.327777777765188)" style="cursor: default; font-family: Arial; font-size: 13px; fill: rgb(51, 51, 51); fill-opacity: 1; white-space: pre; text-shadow: white 1px 1px 1px, white -1px -1px 1px, white 1px -1px 1px, white -1px 1px 1px;">Dialog System</text></g><g class="sankey-node" transform="translate(215.000,231.111)" style="opacity: 1;"><rect class="node-rect" width="10" height="3.5555555555303613" style="stroke-width: 0.5; stroke: rgb(68, 68, 68); stroke-opacity: 1; fill: rgb(51, 51, 51); fill-opacity: 1;"/><text class="node-label" data-notex="1" x="0" y="0" text-anchor="start" transform="translate(13.25,6.3277777777651805)" style="cursor: default; font-family: Arial; font-size: 13px; fill: rgb(51, 51, 51); fill-opacity: 1; white-space: pre; text-shadow: white 1px 1px 1px, white -1px -1px 1px, white 1px -1px 1px, white -1px 1px 1px;">Annotation</text></g><g class="sankey-node" transform="translate(215.000,273.778)" style="opacity: 1;"><rect class="node-rect" width="10" height="3.5555555555305887" style="stroke-width: 0.5; stroke: rgb(68, 68, 68); stroke-opacity: 1; fill: rgb(51, 51, 51); fill-opacity: 1;"/><text class="node-label" data-notex="1" x="0" y="0" text-anchor="start" transform="translate(13.25,6.327777777765294)" style="cursor: default; font-family: Arial; font-size: 13px; fill: rgb(51, 51, 51); fill-opacity: 1; white-space: pre; text-shadow: white 1px 1px 1px, white -1px -1px 1px, white 1px -1px 1px, white -1px 1px 1px;">Cause-Effect Identification</text></g><g class="sankey-node" transform="translate(215.000,64.000)" style="opacity: 1;"><rect class="node-rect" width="10" height="23.111111111036337" style="stroke-width: 0.5; stroke: rgb(68, 68, 68); stroke-opacity: 1; fill: rgb(51, 51, 51); fill-opacity: 1;"/><text class="node-label" data-notex="1" x="0" y="0" text-anchor="start" transform="translate(13.25,16.10555555551817)" style="cursor: default; font-family: Arial; font-size: 13px; fill: rgb(51, 51, 51); fill-opacity: 1; white-space: pre; text-shadow: white 1px 1px 1px, white -1px -1px 1px, white 1px -1px 1px, white -1px 1px 1px;">Text Classification</text></g><g class="sankey-node" transform="translate(215.000,104.889)" style="opacity: 1;"><rect class="node-rect" width="10" height="8.888888888959286" style="stroke-width: 0.5; stroke: rgb(68, 68, 68); stroke-opacity: 1; fill: rgb(51, 51, 51); fill-opacity: 1;"/><text class="node-label" data-notex="1" x="0" y="0" text-anchor="start" transform="translate(13.25,8.994444444479644)" style="cursor: default; font-family: Arial; font-size: 13px; fill: rgb(51, 51, 51); fill-opacity: 1; white-space: pre; text-shadow: white 1px 1px 1px, white -1px -1px 1px, white 1px -1px 1px, white -1px 1px 1px;">KG Completion / Link Prediction</text></g><g class="sankey-node" transform="translate(215.000,252.444)" style="opacity: 1;"><rect class="node-rect" width="10" height="3.5555555557081107" style="stroke-width: 0.5; stroke: rgb(68, 68, 68); stroke-opacity: 1; fill: rgb(51, 51, 51); fill-opacity: 1;"/><text class="node-label" data-notex="1" x="0" y="0" text-anchor="start" transform="translate(13.25,6.327777777854055)" style="cursor: default; font-family: Arial; font-size: 13px; fill: rgb(51, 51, 51); fill-opacity: 1; white-space: pre; text-shadow: white 1px 1px 1px, white -1px -1px 1px, white 1px -1px 1px, white -1px 1px 1px;">Text Summarization</text></g><g class="sankey-node" transform="translate(215.000,21.333)" style="opacity: 1;"><rect class="node-rect" width="10" height="3.5555555555303187" style="stroke-width: 0.5; stroke: rgb(68, 68, 68); stroke-opacity: 1; fill: rgb(51, 51, 51); fill-opacity: 1;"/><text class="node-label" data-notex="1" x="0" y="0" text-anchor="start" transform="translate(13.25,6.327777777765159)" style="cursor: default; font-family: Arial; font-size: 13px; fill: rgb(51, 51, 51); fill-opacity: 1; white-space: pre; text-shadow: white 1px 1px 1px, white -1px -1px 1px, white 1px -1px 1px, white -1px 1px 1px;">Relation Extraction</text></g><g class="sankey-node" transform="translate(215.000,316.444)" style="opacity: 1;"><rect class="node-rect" width="10" height="3.555555555530532" style="stroke-width: 0.5; stroke: rgb(68, 68, 68); stroke-opacity: 1; fill: rgb(51, 51, 51); fill-opacity: 1;"/><text class="node-label" data-notex="1" x="0" y="0" text-anchor="start" transform="translate(13.25,6.327777777765266)" style="cursor: default; font-family: Arial; font-size: 13px; fill: rgb(51, 51, 51); fill-opacity: 1; white-space: pre; text-shadow: white 1px 1px 1px, white -1px -1px 1px, white 1px -1px 1px, white -1px 1px 1px;">Image Captioning</text></g><g class="sankey-node" transform="translate(0.000,217.734)" style="opacity: 1;"><rect class="node-rect" width="10" height="3.5555555555303613" style="stroke-width: 0.5; stroke: rgb(68, 68, 68); stroke-opacity: 1; fill: rgb(51, 51, 51); fill-opacity: 1;"/><text class="node-label" data-notex="1" x="0" y="0" text-anchor="start" transform="translate(13.25,6.3277777777651805)" style="cursor: default; font-family: Arial; font-size: 13px; fill: rgb(51, 51, 51); fill-opacity: 1; white-space: pre; text-shadow: white 1px 1px 1px, white -1px -1px 1px, white 1px -1px 1px, white -1px 1px 1px;">Information Extraction</text></g><g class="sankey-node" transform="translate(215.000,42.667)" style="opacity: 1;"><rect class="node-rect" width="10" height="3.5555555555303897" style="stroke-width: 0.5; stroke: rgb(68, 68, 68); stroke-opacity: 1; fill: rgb(51, 51, 51); fill-opacity: 1;"/><text class="node-label" data-notex="1" x="0" y="0" text-anchor="start" transform="translate(13.25,6.327777777765195)" style="cursor: default; font-family: Arial; font-size: 13px; fill: rgb(51, 51, 51); fill-opacity: 1; white-space: pre; text-shadow: white 1px 1px 1px, white -1px -1px 1px, white 1px -1px 1px, white -1px 1px 1px;">Decision Making</text></g><g class="sankey-node" transform="translate(215.000,131.556)" style="opacity: 1;"><rect class="node-rect" width="10" height="24.888888888890563" style="stroke-width: 0.5; stroke: rgb(68, 68, 68); stroke-opacity: 1; fill: rgb(51, 51, 51); fill-opacity: 1;"/><text class="node-label" data-notex="1" x="0" y="0" text-anchor="start" transform="translate(13.25,16.994444444445282)" style="cursor: default; font-family: Arial; font-size: 13px; fill: rgb(51, 51, 51); fill-opacity: 1; white-space: pre; text-shadow: white 1px 1px 1px, white -1px -1px 1px, white 1px -1px 1px, white -1px 1px 1px;">Question Answering</text></g><g class="sankey-node" transform="translate(215.000,295.111)" style="opacity: 1;"><rect class="node-rect" width="10" height="3.5555555555303044" style="stroke-width: 0.5; stroke: rgb(68, 68, 68); stroke-opacity: 1; fill: rgb(51, 51, 51); fill-opacity: 1;"/><text class="node-label" data-notex="1" x="0" y="0" text-anchor="start" transform="translate(13.25,6.327777777765152)" style="cursor: default; font-family: Arial; font-size: 13px; fill: rgb(51, 51, 51); fill-opacity: 1; white-space: pre; text-shadow: white 1px 1px 1px, white -1px -1px 1px, white 1px -1px 1px, white -1px 1px 1px;">Fact Verification</text></g><g class="sankey-node" transform="translate(0.000,307.556)" style="opacity: 1;"><rect class="node-rect" width="10" height="7.111111111060723" style="stroke-width: 0.5; stroke: rgb(68, 68, 68); stroke-opacity: 1; fill: rgb(51, 51, 51); fill-opacity: 1;"/><text class="node-label" data-notex="1" x="0" y="0" text-anchor="start" transform="translate(13.25,8.105555555530362)" style="cursor: default; font-family: Arial; font-size: 13px; fill: rgb(51, 51, 51); fill-opacity: 1; white-space: pre; text-shadow: white 1px 1px 1px, white -1px -1px 1px, white 1px -1px 1px, white -1px 1px 1px;">Textual Reasoning</text></g></g></g><defs id="topdefs-96b29a"><g class="clips"/></defs><g class="layer-above"><g class="imagelayer"/><g class="shapelayer"/></g><g class="infolayer"><g class="g-gtitle"/><g class="first-render"/></g></svg>