<?xml version="1.0" encoding="utf-8"?>
<!-- Generator: Adobe Illustrator 26.0.3, SVG Export Plug-In . SVG Version: 6.00 Build 0)  -->
<svg version="1.1" id="Layer_1" xmlns="http://www.w3.org/2000/svg" xmlns:xlink="http://www.w3.org/1999/xlink" x="0px" y="0px"
	 viewBox="0 0 493.7 298.5" style="enable-background:new 0 0 493.7 298.5;" xml:space="preserve">
<style type="text/css">
	.st0{fill:#9C4397;}
	.st1{fill:#450256;}
	.st2{fill:none;stroke:#450256;stroke-miterlimit:10;}
	.st3{fill:#FFFFFF;}
	.st4{fill:none;stroke:#231F20;stroke-miterlimit:10;}
	.st5{fill:#231F20;}
	.st6{fill:none;stroke:#000000;stroke-width:0.5;stroke-miterlimit:10;}
	.st7{fill:none;stroke:#000000;stroke-miterlimit:10;}
	.st8{fill:#333333;}
</style>
<path class="st0" d="M278,100.1h41c1.7,0,3,1.3,3,3v12.8c0,1.7-1.3,3-3,3h-41c-1.7,0-3-1.3-3-3v-12.8
	C275,101.4,276.4,100.1,278,100.1z"/>
<path class="st1" d="M278,100.1h41c1.7,0,3,1.3,3,3v12.8c0,1.7-1.3,3-3,3h-41c-1.7,0-3-1.3-3-3v-12.8
	C275,101.4,276.4,100.1,278,100.1z"/>
<path class="st2" d="M272.3,92.2h52.5c1.7,0,3,1.3,3,3v28.6c0,1.7-1.3,3-3,3h-52.5c-1.7,0-3-1.3-3-3V95.2
	C269.3,93.5,270.6,92.2,272.3,92.2z"/>
<path class="st1" d="M278.7,162.2h41c1.7,0,3,1.3,3,3V178c0,1.7-1.3,3-3,3h-41c-1.7,0-3-1.3-3-3v-12.8
	C275.7,163.6,277.1,162.2,278.7,162.2z"/>
<path class="st1" d="M278.7,188.8h41c1.7,0,3,1.3,3,3v12.8c0,1.7-1.3,3-3,3h-41c-1.7,0-3-1.3-3-3v-12.8
	C275.7,190.2,277.1,188.8,278.7,188.8z"/>
<path class="st2" d="M270.9,198.7c-7.6,0-13.9-6.2-13.9-13.8c0-7.3,5.6-13.3,12.8-13.8"/>
<polygon class="st1" points="267,175.6 266.3,175 269.4,171.2 265.4,168.3 265.9,167.5 270.8,171 "/>
<path class="st2" d="M326.2,171c7.6,0,13.9,6.2,13.9,13.8c0,7.2-5.6,13.3-12.8,13.8"/>
<polygon class="st1" points="330,194 330.8,194.6 327.7,198.5 331.7,201.3 331.1,202.1 326.2,198.7 "/>
<path class="st1" d="M278,237.6h41c1.7,0,3,1.3,3,3v12.8c0,1.7-1.3,3-3,3h-41c-1.7,0-3-1.3-3-3v-12.8
	C275,238.9,276.4,237.6,278,237.6z"/>
<circle class="st3" cx="282.6" cy="247" r="2.5"/>
<circle class="st3" cx="293.1" cy="247" r="2.5"/>
<circle class="st3" cx="303.6" cy="247" r="2.5"/>
<circle class="st3" cx="314.2" cy="247" r="2.5"/>
<path class="st1" d="M115.7,102.2h41c1.7,0,3,1.3,3,3V118c0,1.7-1.3,3-3,3h-41c-1.7,0-3-1.3-3-3v-12.8
	C112.7,103.6,114,102.2,115.7,102.2z"/>
<path class="st1" d="M181.8,102.2h41c1.7,0,3,1.3,3,3V118c0,1.7-1.3,3-3,3h-41c-1.7,0-3-1.3-3-3v-12.8
	C178.8,103.6,180.1,102.2,181.8,102.2z"/>
<line class="st4" x1="164" y1="111.8" x2="173.6" y2="111.8"/>
<polygon class="st5" points="170.2,115.9 169.6,115.2 173.2,111.8 169.6,108.5 170.2,107.8 174.6,111.8 "/>
<path class="st1" d="M3.5,90.5h41c1.7,0,3,1.3,3,3v12.8c0,1.7-1.3,3-3,3h-41c-1.7,0-3-1.3-3-3V93.5C0.5,91.8,1.9,90.5,3.5,90.5z"/>
<line class="st2" x1="51.2" y1="100.1" x2="66.2" y2="109.2"/>
<polygon class="st1" points="61.3,111 61,110 65.9,109 64.5,104.3 65.5,104 67.1,109.8 "/>
<path class="st1" d="M3.5,114h41c1.7,0,3,1.3,3,3v12.8c0,1.7-1.3,3-3,3h-41c-1.7,0-3-1.3-3-3V117C0.5,115.3,1.9,114,3.5,114z"/>
<line class="st2" x1="51.2" y1="123.6" x2="66.7" y2="115.8"/>
<polygon class="st1" points="65.6,121 64.6,120.6 66.4,116 61.6,114.6 61.9,113.7 67.7,115.4 "/>
<circle class="st2" cx="78.3" cy="111.7" r="8.5"/>
<line class="st2" x1="73.1" y1="106.4" x2="83.6" y2="116.9"/>
<line class="st2" x1="83.6" y1="106.4" x2="73.1" y2="116.9"/>
<polyline class="st6" points="352.1,104.8 352.1,129.3 360.1,129.3 "/>
<line class="st6" x1="352.1" y1="129.3" x2="360.1" y2="129.3"/>
<line class="st6" x1="352.1" y1="118.6" x2="360.1" y2="118.6"/>
<polyline class="st6" points="352.1,248.5 352.1,273 360.1,273 "/>
<line class="st6" x1="352.1" y1="273" x2="360.1" y2="273"/>
<line class="st6" x1="352.1" y1="262.4" x2="360.1" y2="262.4"/>
<line class="st6" x1="352.1" y1="177.2" x2="352.1" y2="191"/>
<line class="st6" x1="352.1" y1="191" x2="360.1" y2="191"/>
<line class="st6" x1="0" y1="68.1" x2="493.7" y2="68.1"/>
<line class="st7" x1="0" y1="35.1" x2="493.7" y2="35.1"/>
<line class="st7" x1="0" y1="298" x2="493.7" y2="298"/>
<path class="st8" d="M188.5,7.3V0.1h1l3.8,5.6V0.1h0.9v7.2h-1l-3.8-5.6v5.6L188.5,7.3z"/>
<path class="st8" d="M199.2,5.6l0.9,0.1c-0.1,0.5-0.4,0.9-0.8,1.2c-1,0.7-2.4,0.6-3.3-0.3c-0.5-0.6-0.7-1.3-0.7-2s0.2-1.4,0.7-2
	c0.5-0.5,1.1-0.7,1.8-0.7c0.6,0,1.3,0.2,1.7,0.7c0.5,0.6,0.7,1.3,0.7,2c0,0.1,0,0.1,0,0.2h-3.9c0,0.5,0.2,0.9,0.5,1.3
	c0.3,0.3,0.7,0.5,1.1,0.5c0.3,0,0.6-0.1,0.8-0.3C198.9,6.2,199.1,5.9,199.2,5.6z M196.3,4.2h2.9c0-0.4-0.1-0.7-0.3-1
	c-0.3-0.3-0.7-0.5-1.1-0.5c-0.4,0-0.7,0.1-1,0.4C196.5,3.4,196.3,3.8,196.3,4.2z"/>
<path class="st8" d="M204.6,7.3V6.5c-0.4,0.6-1,0.9-1.6,0.9c-0.3,0-0.6-0.1-0.9-0.2c-0.2-0.1-0.4-0.2-0.6-0.4
	c-0.1-0.2-0.2-0.4-0.3-0.6c0-0.3-0.1-0.5,0-0.8V2.1h0.9V5c0,0.3,0,0.6,0,0.9c0,0.2,0.2,0.4,0.4,0.5s0.4,0.2,0.7,0.2s0.5-0.1,0.7-0.2
	s0.4-0.3,0.5-0.6c0.1-0.3,0.2-0.7,0.1-1V2.1h0.9v5.2L204.6,7.3z"/>
<path class="st8" d="M206.8,7.3V2.1h0.8v0.8c0.1-0.3,0.3-0.6,0.6-0.8c0.2-0.1,0.4-0.2,0.6-0.2c0.3,0,0.6,0.1,0.9,0.3L209.4,3
	c-0.2-0.1-0.4-0.2-0.6-0.2c-0.2,0-0.4,0.1-0.5,0.2c-0.2,0.1-0.3,0.3-0.3,0.5c-0.1,0.3-0.2,0.7-0.1,1v2.7L206.8,7.3z"/>
<path class="st8" d="M209.8,4.7c-0.1-0.8,0.2-1.6,0.8-2.1c0.5-0.4,1-0.6,1.6-0.6c0.7,0,1.3,0.2,1.7,0.7c0.5,0.5,0.7,1.2,0.7,1.9
	c0,0.5-0.1,1.1-0.3,1.6c-0.2,0.4-0.5,0.7-0.9,0.9c-0.4,0.2-0.8,0.3-1.2,0.3c-0.7,0-1.3-0.2-1.8-0.7C210,6.1,209.7,5.4,209.8,4.7z
	 M210.7,4.7c0,0.5,0.1,1,0.5,1.4c0.3,0.3,0.7,0.5,1.1,0.5c0.4,0,0.8-0.2,1.1-0.5c0.3-0.4,0.5-1,0.4-1.5c0-0.5-0.1-1-0.4-1.5
	c-0.3-0.3-0.7-0.5-1.1-0.5c-0.4,0-0.8,0.2-1.1,0.5C210.8,3.6,210.6,4.1,210.7,4.7z"/>
<path class="st8" d="M215.3,5.1V4.3h2.7v0.9h-2.7V5.1z"/>
<path class="st8" d="M218.8,5l0.9-0.1c0,0.3,0.1,0.6,0.3,0.9s0.4,0.4,0.7,0.6c0.3,0.1,0.7,0.2,1.1,0.2c0.3,0,0.7,0,1-0.2
	c0.2-0.1,0.5-0.2,0.6-0.4c0.1-0.2,0.2-0.4,0.2-0.6s-0.1-0.4-0.2-0.6c-0.2-0.2-0.4-0.3-0.6-0.4c-0.4-0.1-0.8-0.3-1.3-0.4
	s-0.9-0.3-1.4-0.4c-0.3-0.1-0.6-0.4-0.8-0.7S219,2.3,219.1,2c0-0.4,0.1-0.7,0.3-1s0.5-0.6,0.9-0.7c0.4-0.2,0.9-0.2,1.3-0.2
	c0.5,0,1,0.1,1.4,0.3c0.4,0.1,0.7,0.4,0.9,0.8c0.2,0.3,0.3,0.7,0.4,1.1l-0.9,0.1c0-0.4-0.2-0.7-0.5-1c-0.4-0.3-0.8-0.4-1.2-0.3
	c-0.4,0-0.9,0.1-1.2,0.3c-0.2,0.2-0.4,0.5-0.4,0.8c0,0.2,0.1,0.5,0.3,0.6c0.4,0.3,0.9,0.4,1.4,0.5s1.1,0.3,1.6,0.5
	c0.4,0.2,0.7,0.4,0.9,0.7c0.2,0.3,0.3,0.6,0.3,1s-0.1,0.8-0.3,1.1c-0.2,0.3-0.6,0.6-0.9,0.8c-0.4,0.2-0.9,0.3-1.4,0.3
	c-0.6,0-1.1-0.1-1.6-0.3c-0.4-0.2-0.8-0.5-1-0.9C219,5.9,218.8,5.5,218.8,5z"/>
<path class="st8" d="M225.6,9.3l-0.1-0.8c0.2,0,0.3,0.1,0.5,0.1s0.3,0,0.5-0.1c0.1-0.1,0.2-0.2,0.3-0.3c0.1-0.2,0.2-0.4,0.3-0.6
	l0.1-0.2l-2-5.1h1l1.1,3c0.1,0.4,0.3,0.8,0.4,1.2c0.1-0.4,0.2-0.8,0.4-1.2l1.1-3h0.9l-2,5.3c-0.1,0.4-0.3,0.8-0.5,1.2
	c-0.1,0.2-0.3,0.5-0.5,0.6s-0.5,0.2-0.7,0.2C226,9.4,225.8,9.4,225.6,9.3z"/>
<path class="st8" d="M230.7,7.3V2.1h0.8v0.7c0.2-0.3,0.4-0.5,0.6-0.6C232.4,2,232.7,2,233,2c0.3,0,0.7,0.1,1,0.2
	c0.2,0.2,0.4,0.4,0.5,0.7c0.3-0.6,0.9-0.9,1.6-0.9c0.4,0,0.9,0.1,1.2,0.4c0.3,0.4,0.5,0.8,0.4,1.3v3.6h-0.9V4c0-0.3,0-0.5-0.1-0.8
	c-0.1-0.2-0.2-0.3-0.3-0.4c-0.2-0.1-0.3-0.1-0.5-0.1c-0.3,0-0.7,0.1-0.9,0.4c-0.3,0.3-0.4,0.7-0.4,1.2v3h-0.9V3.9
	c0-0.3-0.1-0.6-0.2-0.9c-0.2-0.2-0.4-0.3-0.7-0.3c-0.2,0-0.5,0.1-0.7,0.2c-0.2,0.1-0.4,0.3-0.5,0.6s-0.2,0.7-0.1,1.1v2.7H230.7z"/>
<path class="st8" d="M239.8,7.3H239V0.1h0.9v2.6c0.3-0.5,0.9-0.7,1.4-0.7c0.3,0,0.6,0.1,0.9,0.2c0.3,0.1,0.5,0.3,0.7,0.5
	c0.2,0.3,0.3,0.5,0.4,0.9c0.1,0.3,0.2,0.7,0.1,1.1c0,0.7-0.2,1.5-0.6,2.1c-0.4,0.5-1,0.7-1.6,0.7s-1.1-0.3-1.4-0.8L239.8,7.3
	L239.8,7.3z M239.8,4.6c0,0.5,0.1,0.9,0.3,1.4c0.3,0.6,1.1,0.8,1.7,0.5c0.1-0.1,0.3-0.2,0.4-0.3c0.3-0.4,0.5-1,0.4-1.5
	c0-0.5-0.1-1.1-0.4-1.5c-0.2-0.3-0.6-0.5-1-0.5s-0.8,0.2-1,0.5C239.9,3.6,239.7,4.1,239.8,4.6L239.8,4.6z"/>
<path class="st8" d="M244.2,4.7c-0.1-0.8,0.2-1.6,0.8-2.1c0.5-0.4,1-0.6,1.6-0.6c0.7,0,1.3,0.2,1.8,0.7s0.7,1.2,0.7,1.9
	c0,0.5-0.1,1.1-0.3,1.6c-0.2,0.4-0.5,0.7-0.9,0.9c-0.4,0.2-0.8,0.3-1.2,0.3c-0.7,0-1.3-0.2-1.8-0.7C244.4,6.1,244.2,5.4,244.2,4.7z
	 M245.1,4.7c0,0.5,0.1,1.1,0.4,1.5c0.3,0.3,0.7,0.5,1.1,0.5c0.4,0,0.8-0.2,1.1-0.5c0.3-0.4,0.5-1,0.4-1.5c0-0.5-0.1-1-0.4-1.5
	c-0.5-0.6-1.5-0.7-2.1-0.1l-0.1,0.1C245.3,3.6,245.1,4.2,245.1,4.7L245.1,4.7z"/>
<path class="st8" d="M250.1,7.3V0.1h0.9v7.2L250.1,7.3z"/>
<path class="st8" d="M252.4,1.1v-1h0.9v1H252.4z M252.4,7.3V2.1h0.9v5.2L252.4,7.3z"/>
<path class="st8" d="M257.9,5.4l0.9,0.1c-0.1,0.5-0.3,1-0.7,1.4c-0.4,0.3-0.9,0.5-1.4,0.5c-0.6,0-1.3-0.2-1.7-0.7
	c-0.5-0.6-0.7-1.3-0.6-2c0-0.5,0.1-1,0.3-1.5c0.2-0.4,0.5-0.7,0.9-0.9s0.8-0.3,1.2-0.3c0.5,0,1,0.1,1.4,0.4s0.6,0.7,0.7,1.2L258,3.7
	c-0.1-0.3-0.2-0.6-0.4-0.8c-0.2-0.2-0.5-0.3-0.8-0.3c-0.4,0-0.8,0.2-1.1,0.5c-0.3,0.4-0.5,1-0.4,1.5c0,0.5,0.1,1.1,0.4,1.5
	c0.3,0.3,0.6,0.5,1,0.5c0.3,0,0.6-0.1,0.9-0.3C257.8,6.1,257.9,5.7,257.9,5.4z"/>
<path class="st8" d="M267.6,4.8l1,0.2c-0.2,0.7-0.5,1.3-1.1,1.8c-0.5,0.4-1.2,0.6-1.9,0.6c-0.7,0-1.3-0.1-1.9-0.5
	c-0.5-0.3-0.9-0.8-1.1-1.4c-0.3-0.6-0.4-1.3-0.4-1.9c0-0.7,0.1-1.3,0.4-1.9c0.3-0.5,0.7-1,1.2-1.3s1.1-0.4,1.7-0.4s1.3,0.2,1.8,0.6
	s0.9,0.9,1,1.5l-0.9,0.2c-0.1-0.4-0.4-0.8-0.7-1.1c-0.3-0.2-0.8-0.4-1.2-0.4c-0.5,0-1,0.1-1.4,0.4s-0.6,0.6-0.8,1.1
	c-0.2,0.4-0.2,0.9-0.2,1.4s0.1,1.1,0.3,1.6c0.2,0.4,0.4,0.8,0.8,1s0.8,0.3,1.2,0.3c0.5,0,1-0.1,1.4-0.5
	C267.2,5.8,267.5,5.3,267.6,4.8z"/>
<path class="st8" d="M272.9,6.6c-0.3,0.2-0.6,0.4-0.9,0.6c-0.3,0.1-0.7,0.2-1,0.2c-0.5,0-0.9-0.1-1.3-0.4c-0.3-0.3-0.5-0.7-0.5-1.1
	c0-0.2,0.1-0.5,0.2-0.7s0.3-0.4,0.5-0.5s0.4-0.2,0.6-0.3c0.3-0.1,0.5-0.1,0.8-0.1c0.5,0,1.1-0.1,1.6-0.3V3.8c0-0.3-0.1-0.6-0.2-0.8
	c-0.3-0.2-0.6-0.3-1-0.3c-0.3,0-0.6,0.1-0.9,0.2c-0.2,0.2-0.4,0.5-0.4,0.8l-0.9-0.1c0.1-0.3,0.2-0.6,0.4-0.9
	c0.2-0.2,0.5-0.4,0.8-0.5c0.4-0.1,0.8-0.2,1.2-0.2c0.4,0,0.7,0,1.1,0.1c0.2,0.1,0.4,0.2,0.6,0.4c0.1,0.2,0.2,0.4,0.3,0.6
	c0,0.3,0.1,0.5,0,0.8v1.2c0,0.5,0,1,0,1.6c0,0.2,0.1,0.4,0.2,0.6h-0.9C273,7.1,273,6.9,272.9,6.6z M272.9,4.6
	c-0.5,0.2-0.9,0.3-1.4,0.3c-0.3,0-0.5,0.1-0.8,0.2c-0.1,0.1-0.3,0.2-0.4,0.3c-0.1,0.1-0.1,0.3-0.1,0.4c0,0.2,0.1,0.4,0.3,0.6
	c0.2,0.2,0.5,0.3,0.8,0.2c0.3,0,0.6-0.1,0.9-0.2s0.5-0.4,0.6-0.6c0.1-0.3,0.2-0.6,0.1-0.9V4.6z"/>
<path class="st8" d="M277,6.5l0.1,0.8c-0.2,0-0.4,0.1-0.7,0.1c-0.3,0-0.5,0-0.7-0.1s-0.3-0.2-0.4-0.4c-0.1-0.3-0.1-0.7-0.1-1v-3
	h-0.6V2.1h0.6V0.9l0.9-0.5v1.8h0.9v0.7h-0.9v3c0,0.2,0,0.3,0,0.5c0,0.1,0.1,0.1,0.1,0.2c0.1,0,0.2,0.1,0.3,0.1
	C276.8,6.5,276.9,6.5,277,6.5z"/>
<path class="st8" d="M281.5,5.6l0.9,0.1c-0.1,0.5-0.4,0.9-0.8,1.2c-1,0.7-2.4,0.6-3.3-0.3c-0.5-0.6-0.7-1.3-0.7-2s0.2-1.4,0.7-2
	c0.5-0.5,1.1-0.7,1.8-0.7c0.6,0,1.3,0.2,1.7,0.7c0.5,0.6,0.7,1.3,0.7,2c0,0.1,0,0.1,0,0.2h-3.9c0,0.5,0.2,0.9,0.5,1.3
	c0.3,0.3,0.7,0.5,1.1,0.5c0.3,0,0.6-0.1,0.8-0.3C281.2,6.2,281.4,5.9,281.5,5.6z M278.6,4.2h2.9c0-0.4-0.1-0.7-0.3-1
	c-0.3-0.3-0.7-0.5-1.1-0.5s-0.7,0.1-1,0.4C278.8,3.4,278.6,3.8,278.6,4.2L278.6,4.2z"/>
<path class="st8" d="M283.3,7.7l0.9,0.1c0,0.2,0.1,0.4,0.3,0.6c0.3,0.2,0.6,0.3,0.9,0.2c0.3,0,0.7-0.1,0.9-0.2
	c0.2-0.2,0.4-0.4,0.5-0.7c0.1-0.4,0.1-0.8,0.1-1.1c-0.3,0.4-0.9,0.7-1.4,0.7c-0.6,0-1.3-0.3-1.7-0.8c-0.4-0.5-0.6-1.2-0.6-1.9
	c0-0.5,0.1-0.9,0.3-1.4c0.2-0.4,0.4-0.8,0.8-1s0.8-0.4,1.2-0.3c0.6,0,1.2,0.3,1.5,0.7V2.1h0.8v4.5c0,0.6,0,1.2-0.2,1.7
	c-0.2,0.3-0.4,0.6-0.8,0.8s-0.9,0.3-1.3,0.3c-0.5,0-1.1-0.1-1.5-0.4C283.5,8.7,283.3,8.2,283.3,7.7z M284,4.6c0,0.5,0.1,1,0.4,1.5
	c0.2,0.3,0.6,0.5,1,0.5s0.8-0.2,1-0.5c0.3-0.4,0.5-0.9,0.4-1.5c0-0.5-0.1-1-0.4-1.4c-0.2-0.3-0.6-0.5-1-0.5s-0.8,0.2-1,0.5
	C284.1,3.6,284,4.1,284,4.6z"/>
<path class="st8" d="M288.7,4.7c-0.1-0.8,0.2-1.6,0.8-2.1c0.5-0.4,1-0.6,1.6-0.6c0.7,0,1.3,0.2,1.7,0.7c0.5,0.5,0.7,1.2,0.7,1.9
	c0,0.5-0.1,1.1-0.3,1.6c-0.2,0.4-0.5,0.7-0.9,0.9c-0.4,0.2-0.8,0.3-1.2,0.3c-0.7,0-1.3-0.2-1.8-0.7C288.9,6.1,288.7,5.4,288.7,4.7z
	 M289.6,4.7c0,0.5,0.1,1.1,0.4,1.5c0.5,0.6,1.4,0.7,2,0.1c0.1,0,0.1-0.1,0.1-0.1c0.3-0.4,0.5-1,0.4-1.5c0-0.5-0.1-1-0.4-1.5
	c-0.3-0.3-0.7-0.5-1.1-0.5s-0.8,0.2-1.1,0.5C289.7,3.6,289.6,4.2,289.6,4.7z"/>
<path class="st8" d="M294.6,7.3V2.1h0.8v0.8c0.1-0.3,0.3-0.5,0.6-0.7c0.2-0.1,0.4-0.2,0.6-0.2c0.3,0,0.6,0.1,0.9,0.3l-0.3,0.8
	c-0.2-0.1-0.4-0.2-0.6-0.2s-0.4,0.1-0.5,0.2c-0.2,0.1-0.3,0.3-0.3,0.5c-0.1,0.3-0.2,0.7-0.1,1v2.7L294.6,7.3z"/>
<path class="st8" d="M297.9,1.1v-1h0.9v1H297.9z M297.9,7.3V2.1h0.9v5.2L297.9,7.3z"/>
<path class="st8" d="M303.7,5.6l0.9,0.1c-0.1,0.5-0.4,0.9-0.8,1.2c-0.4,0.3-1,0.5-1.5,0.4c-0.7,0-1.3-0.2-1.8-0.7s-0.7-1.3-0.7-2
	s0.2-1.4,0.7-2c0.4-0.5,1.1-0.7,1.7-0.7s1.3,0.2,1.7,0.7c0.5,0.6,0.7,1.3,0.7,2v0.2h-3.9c0,0.5,0.2,0.9,0.5,1.3
	c0.3,0.3,0.7,0.5,1.1,0.5c0.3,0,0.6-0.1,0.8-0.3C303.4,6.2,303.6,5.9,303.7,5.6z M300.8,4.2h2.9c0-0.4-0.1-0.7-0.3-1
	c-0.3-0.3-0.7-0.5-1.1-0.5s-0.7,0.1-1,0.4S300.8,3.8,300.8,4.2z"/>
<path class="st8" d="M305.4,5.7l0.9-0.1c0,0.3,0.2,0.6,0.4,0.8c0.3,0.2,0.6,0.3,0.9,0.3s0.6-0.1,0.9-0.2c0.2-0.1,0.3-0.4,0.3-0.6
	s-0.1-0.4-0.3-0.5c-0.3-0.1-0.6-0.2-0.9-0.3c-0.5-0.1-0.9-0.2-1.3-0.4c-0.2-0.1-0.4-0.3-0.6-0.5c-0.1-0.2-0.2-0.5-0.2-0.7
	s0.1-0.4,0.2-0.6s0.3-0.4,0.4-0.5c0.2-0.1,0.4-0.2,0.6-0.3s0.5-0.1,0.8-0.1c0.4,0,0.7,0.1,1.1,0.2c0.3,0.1,0.5,0.3,0.7,0.5
	s0.3,0.5,0.3,0.8l-0.9,0.1c0-0.2-0.1-0.5-0.3-0.6c-0.2-0.2-0.5-0.2-0.8-0.2s-0.6,0-0.9,0.2c-0.2,0.1-0.3,0.3-0.3,0.5
	c0,0.1,0,0.2,0.1,0.3s0.2,0.2,0.3,0.2l0.8,0.2c0.4,0.1,0.9,0.2,1.3,0.4c0.2,0.1,0.4,0.3,0.6,0.5c0.1,0.2,0.2,0.5,0.2,0.8
	s-0.1,0.6-0.2,0.8c-0.2,0.3-0.4,0.5-0.7,0.6c-0.3,0.1-0.7,0.2-1.1,0.2c-0.5,0-1.1-0.1-1.5-0.4C305.7,6.7,305.4,6.2,305.4,5.7z"/>
<path class="st8" d="M146,54.9l0.9-0.1c0,0.3,0.1,0.6,0.3,0.9c0.2,0.3,0.4,0.4,0.7,0.6c0.3,0.1,0.7,0.2,1.1,0.2c0.3,0,0.7,0,1-0.2
	c0.2-0.1,0.5-0.2,0.6-0.4s0.2-0.4,0.2-0.6c0-0.2-0.1-0.4-0.2-0.6c-0.2-0.2-0.4-0.3-0.6-0.4c-0.4-0.1-0.8-0.2-1.3-0.3
	s-0.9-0.3-1.4-0.4c-0.3-0.2-0.6-0.4-0.8-0.7s-0.3-0.6-0.2-0.9c0-0.4,0.1-0.7,0.3-1s0.5-0.6,0.9-0.7c0.4-0.2,0.9-0.2,1.3-0.2
	c0.5,0,1,0.1,1.4,0.2c0.4,0.2,0.7,0.4,0.9,0.8c0.2,0.3,0.3,0.7,0.4,1.1l-0.9,0.1c0-0.4-0.2-0.7-0.5-1c-0.4-0.3-0.8-0.4-1.2-0.4
	s-0.9,0.1-1.3,0.3c-0.2,0.2-0.4,0.5-0.4,0.8c0,0.2,0.1,0.5,0.3,0.6c0.4,0.3,0.9,0.4,1.4,0.5s1.1,0.3,1.6,0.5
	c0.4,0.2,0.7,0.4,0.9,0.7s0.3,0.6,0.3,1s-0.1,0.8-0.3,1.1c-0.2,0.4-0.6,0.6-0.9,0.8c-0.4,0.2-0.9,0.3-1.4,0.3
	c-0.6,0-1.1-0.1-1.6-0.3c-0.4-0.2-0.8-0.5-1-0.9C146.2,55.9,146,55.4,146,54.9z"/>
<path class="st8" d="M156.5,55.6l0.9,0.1c-0.1,0.5-0.4,0.9-0.8,1.2c-0.4,0.3-1,0.5-1.5,0.4c-0.7,0-1.3-0.2-1.8-0.7
	c-0.5-0.6-0.7-1.3-0.7-2s0.2-1.4,0.7-2c0.5-0.5,1.1-0.7,1.8-0.7c0.6,0,1.3,0.2,1.7,0.7c0.5,0.6,0.7,1.3,0.7,2v0.2h-3.9
	c0,0.5,0.2,0.9,0.5,1.3c0.3,0.3,0.7,0.5,1.1,0.4c0.3,0,0.6-0.1,0.8-0.2C156.2,56.2,156.4,55.9,156.5,55.6z M153.6,54.1h2.9
	c0-0.4-0.1-0.7-0.3-1c-0.3-0.3-0.7-0.5-1.1-0.5c-0.4,0-0.7,0.1-1,0.4C153.7,53.3,153.6,53.7,153.6,54.1z"/>
<path class="st8" d="M161.8,59.2v-2.5c-0.2,0.2-0.3,0.4-0.6,0.5c-0.2,0.1-0.5,0.2-0.8,0.2c-0.6,0-1.2-0.3-1.6-0.7
	c-0.5-0.6-0.7-1.3-0.7-2c0-0.5,0.1-1,0.3-1.4s0.4-0.7,0.8-0.9c0.3-0.2,0.7-0.3,1.1-0.3c0.6,0,1.2,0.3,1.5,0.8v-0.7h0.8v7.2
	L161.8,59.2z M159.1,54.6c0,0.5,0.1,1.1,0.4,1.5c0.2,0.3,0.6,0.5,1,0.5s0.8-0.2,1-0.5c0.3-0.4,0.4-0.9,0.4-1.4
	c0-0.6-0.1-1.1-0.4-1.6c-0.2-0.3-0.6-0.5-1-0.5s-0.8,0.2-1,0.5C159.2,53.6,159,54.1,159.1,54.6L159.1,54.6z"/>
<path class="st8" d="M167.4,57.2v-0.8c-0.4,0.6-1,0.9-1.6,0.9c-0.3,0-0.6-0.1-0.9-0.2c-0.2-0.1-0.4-0.2-0.6-0.4
	c-0.1-0.2-0.2-0.4-0.3-0.6c0-0.3,0-0.5,0-0.8v-3.2h0.9V55c0,0.3,0,0.6,0,0.9c0,0.2,0.2,0.4,0.4,0.5s0.4,0.2,0.7,0.2s0.5-0.1,0.8-0.2
	c0.2-0.1,0.4-0.3,0.5-0.6s0.2-0.7,0.1-1V52h0.9v5.2L167.4,57.2z"/>
<path class="st8" d="M173.1,55.6l0.9,0.1c-0.1,0.5-0.4,0.9-0.8,1.2c-1,0.7-2.4,0.6-3.3-0.3c-0.5-0.6-0.7-1.3-0.7-2s0.2-1.4,0.7-2
	c0.5-0.5,1.1-0.7,1.8-0.7c0.6,0,1.3,0.2,1.7,0.7c0.5,0.6,0.7,1.3,0.6,2v0.2h-3.9c0,0.5,0.2,0.9,0.5,1.3c0.3,0.3,0.7,0.5,1.1,0.4
	c0.3,0,0.6-0.1,0.8-0.2C172.9,56.2,173,55.9,173.1,55.6z M170.2,54.1h2.9c0-0.4-0.1-0.7-0.3-1c-0.3-0.3-0.7-0.5-1.1-0.5
	c-0.4,0-0.7,0.1-1,0.4C170.4,53.3,170.3,53.7,170.2,54.1z"/>
<path class="st8" d="M175.1,57.2V52h0.8v0.7c0.4-0.6,1-0.9,1.6-0.9c0.3,0,0.6,0,0.9,0.2c0.2,0.1,0.4,0.2,0.6,0.4
	c0.1,0.2,0.2,0.4,0.3,0.6c0,0.3,0.1,0.6,0,0.9v3.2h-0.9v-3.2c0-0.3,0-0.5-0.1-0.8c-0.1-0.2-0.2-0.3-0.4-0.4
	c-0.2-0.1-0.4-0.2-0.6-0.2c-0.4,0-0.7,0.1-1,0.4c-0.3,0.4-0.5,0.9-0.4,1.4v2.8L175.1,57.2L175.1,57.2z"/>
<path class="st8" d="M182.6,56.4l0.1,0.8c-0.2,0-0.4,0.1-0.7,0.1s-0.5,0-0.7-0.1s-0.3-0.2-0.4-0.4c-0.1-0.3-0.1-0.7-0.1-1v-3h-0.6
	v-0.7h0.6v-1.3l0.9-0.5v1.8h0.9v0.7h-0.9v3c0,0.2,0,0.3,0,0.5c0,0.1,0.1,0.1,0.1,0.2c0.1,0.1,0.2,0.1,0.3,0.1
	C182.3,56.5,182.5,56.5,182.6,56.4z"/>
<path class="st8" d="M183.5,51.1v-1h0.9v1H183.5z M183.5,57.3v-5.2h0.9v5.2H183.5z"/>
<path class="st8" d="M189.1,56.6c-0.3,0.3-0.6,0.4-0.9,0.6c-0.3,0.1-0.7,0.2-1,0.2c-0.5,0-0.9-0.1-1.3-0.4c-0.3-0.3-0.5-0.7-0.5-1.1
	c0-0.2,0.1-0.5,0.2-0.7c0.1-0.2,0.3-0.4,0.4-0.5c0.2-0.1,0.4-0.2,0.6-0.3c0.3-0.1,0.5-0.1,0.8-0.1c0.5,0,1.1-0.1,1.6-0.3
	c0-0.1,0-0.2,0-0.2c0-0.3-0.1-0.6-0.2-0.8c-0.3-0.2-0.6-0.3-1-0.3c-0.3,0-0.6,0.1-0.9,0.2c-0.2,0.2-0.4,0.5-0.4,0.8l-0.9-0.1
	c0.1-0.3,0.2-0.6,0.4-0.9c0.2-0.2,0.5-0.4,0.8-0.5c0.4-0.1,0.8-0.2,1.2-0.2s0.7,0,1.1,0.1c0.2,0.1,0.4,0.2,0.6,0.4
	c0.1,0.2,0.2,0.4,0.3,0.6c0,0.3,0,0.5,0,0.8v1.2c0,0.5,0,1,0.1,1.6c0,0.2,0.1,0.4,0.2,0.6h-0.9C189.1,57,189.1,56.8,189.1,56.6z
	 M189,54.6c-0.5,0.2-0.9,0.3-1.4,0.3c-0.3,0-0.5,0.1-0.8,0.2c-0.1,0.1-0.3,0.2-0.4,0.3c-0.1,0.1-0.1,0.3-0.1,0.4
	c0,0.2,0.1,0.4,0.3,0.6c0.2,0.2,0.5,0.3,0.8,0.2c0.3,0,0.6-0.1,0.9-0.2c0.3-0.1,0.5-0.4,0.6-0.6c0.1-0.3,0.2-0.6,0.1-0.9L189,54.6
	L189,54.6z"/>
<path class="st8" d="M191.2,57.2V50h0.9v7.2H191.2z"/>
<path class="st8" d="M1.3,57.2V50h5.2v0.9H2.3v2.2h4V54h-4v2.4h4.4v0.9L1.3,57.2z"/>
<path class="st8" d="M7.9,57.2V52h0.8v0.7c0.4-0.6,1-0.9,1.7-0.9c0.3,0,0.6,0.1,0.8,0.2c0.2,0.1,0.4,0.2,0.6,0.4
	c0.1,0.2,0.2,0.4,0.3,0.6c0,0.3,0.1,0.6,0.1,0.9v3.2h-0.9v-3.2c0-0.3,0-0.5-0.1-0.8c-0.1-0.2-0.2-0.3-0.4-0.4
	c-0.2-0.1-0.4-0.2-0.6-0.2c-0.4,0-0.7,0.1-1,0.4c-0.3,0.4-0.5,0.9-0.4,1.4v2.8L7.9,57.2z"/>
<path class="st8" d="M13.1,55.7l0.9-0.1c0,0.3,0.2,0.6,0.4,0.8c0.3,0.2,0.6,0.3,0.9,0.3c0.3,0,0.6-0.1,0.9-0.2
	c0.2-0.1,0.3-0.4,0.3-0.6c0-0.2-0.1-0.4-0.3-0.5c-0.3-0.1-0.6-0.2-0.9-0.3c-0.5-0.1-0.9-0.2-1.3-0.4c-0.5-0.2-0.8-0.7-0.8-1.2
	c0-0.2,0.1-0.4,0.2-0.6c0.1-0.2,0.2-0.4,0.4-0.5s0.4-0.2,0.6-0.3c0.2-0.1,0.5-0.1,0.8-0.1c0.4,0,0.7,0,1.1,0.2
	c0.3,0.1,0.5,0.3,0.7,0.5s0.3,0.5,0.3,0.8l-0.9,0.1c0-0.2-0.2-0.5-0.3-0.6c-0.2-0.2-0.5-0.2-0.8-0.2s-0.6,0-0.9,0.2
	c-0.2,0.1-0.3,0.3-0.3,0.5c0,0.1,0,0.2,0.1,0.3s0.2,0.2,0.3,0.2s0.3,0.1,0.8,0.2c0.4,0.1,0.9,0.2,1.3,0.4c0.2,0.1,0.4,0.3,0.6,0.5
	c0.1,0.2,0.2,0.5,0.2,0.8s-0.1,0.6-0.3,0.8c-0.2,0.3-0.4,0.5-0.7,0.6c-0.3,0.2-0.7,0.2-1.1,0.2c-0.5,0-1.1-0.1-1.5-0.4
	C13.4,56.6,13.1,56.2,13.1,55.7z"/>
<path class="st8" d="M22,55.6l0.9,0.1c-0.1,0.5-0.4,0.9-0.8,1.2s-1,0.5-1.5,0.4c-0.7,0-1.3-0.2-1.8-0.7c-0.5-0.6-0.7-1.3-0.7-2
	s0.2-1.4,0.7-2c0.4-0.5,1.1-0.7,1.7-0.7s1.3,0.2,1.7,0.7c0.5,0.6,0.7,1.3,0.7,2v0.2H19c0,0.5,0.2,0.9,0.5,1.3
	c0.3,0.3,0.7,0.5,1.1,0.4c0.3,0,0.6-0.1,0.8-0.2C21.7,56.2,21.9,55.9,22,55.6z M19.1,54.1H22c0-0.4-0.1-0.7-0.3-1
	c-0.3-0.3-0.7-0.5-1.1-0.5s-0.7,0.1-1,0.4C19.3,53.3,19.1,53.7,19.1,54.1z"/>
<path class="st8" d="M24,57.2V52h0.8v0.7c0.2-0.3,0.4-0.5,0.7-0.6c0.3-0.2,0.6-0.2,0.9-0.2s0.7,0.1,0.9,0.2c0.2,0.2,0.4,0.4,0.5,0.7
	c0.3-0.6,0.9-0.9,1.6-0.9c0.4,0,0.9,0.1,1.2,0.4c0.3,0.4,0.5,0.8,0.4,1.3v3.6h-0.9V54c0-0.3,0-0.5-0.1-0.8c-0.1-0.2-0.2-0.3-0.3-0.4
	c-0.2-0.1-0.3-0.1-0.5-0.1c-0.3,0-0.7,0.1-0.9,0.4c-0.3,0.3-0.4,0.7-0.4,1.2v3H27v-3.4c0-0.3-0.1-0.6-0.2-0.9
	c-0.2-0.2-0.4-0.3-0.7-0.3c-0.2,0-0.5,0.1-0.7,0.2C25.2,53,25,53.2,25,53.5c-0.1,0.4-0.2,0.7-0.1,1.1v2.7L24,57.2z"/>
<path class="st8" d="M33.2,57.2h-0.8V50h0.8v2.6c0.3-0.4,0.9-0.7,1.4-0.7c0.3,0,0.6,0.1,0.9,0.2c0.3,0.1,0.5,0.3,0.7,0.5
	c0.2,0.3,0.3,0.5,0.4,0.8c0.1,0.3,0.2,0.7,0.2,1.1c0,0.7-0.2,1.5-0.7,2.1c-0.4,0.5-1,0.7-1.6,0.7s-1.1-0.3-1.4-0.8L33.2,57.2z
	 M33.2,54.6c0,0.5,0.1,0.9,0.2,1.3c0.3,0.6,1.1,0.9,1.7,0.5c0.2-0.1,0.3-0.2,0.4-0.4c0.3-0.4,0.5-1,0.4-1.5c0-0.5-0.1-1.1-0.4-1.5
	c-0.2-0.3-0.6-0.5-1-0.5s-0.8,0.2-1,0.5C33.2,53.6,33.1,54.1,33.2,54.6z"/>
<path class="st8" d="M37.9,57.2V50h0.9v7.2H37.9z"/>
<path class="st8" d="M43.7,55.6l0.9,0.1c-0.1,0.5-0.4,0.9-0.8,1.2c-0.4,0.3-1,0.5-1.5,0.4c-0.7,0-1.3-0.2-1.8-0.7
	c-0.5-0.6-0.7-1.3-0.7-2s0.2-1.4,0.7-2c0.5-0.5,1.1-0.7,1.8-0.7c0.6,0,1.3,0.2,1.7,0.7c0.5,0.6,0.7,1.3,0.7,2c0,0.1,0,0.2,0,0.2
	h-3.9c0,0.5,0.2,0.9,0.5,1.3c0.3,0.3,0.7,0.5,1.1,0.4c0.3,0,0.6-0.1,0.8-0.2C43.4,56.2,43.6,55.9,43.7,55.6z M40.8,54.1h2.9
	c0-0.4-0.1-0.7-0.3-1c-0.3-0.3-0.7-0.5-1.1-0.5c-0.4,0-0.7,0.1-1,0.4C40.9,53.3,40.8,53.7,40.8,54.1z"/>
<path class="st8" d="M1.4,158.6v-7.2h4.8v0.9H2.3v2.2h3.4v0.9H2.3v3.2L1.4,158.6L1.4,158.6z"/>
<path class="st8" d="M7.3,152.4v-1h0.8v1H7.3z M7.3,158.6v-5.2h0.8v5.2H7.3z"/>
<path class="st8" d="M10.3,158.6H9.5v-7.2h0.9v2.5c0.3-0.4,0.9-0.7,1.4-0.7c0.3,0,0.6,0.1,0.9,0.2c0.3,0.1,0.5,0.3,0.7,0.5
	c0.2,0.3,0.3,0.5,0.4,0.8c0.1,0.3,0.2,0.7,0.2,1.1c0,0.7-0.2,1.5-0.7,2.1c-0.4,0.5-1,0.7-1.6,0.7s-1.1-0.3-1.4-0.8L10.3,158.6z
	 M10.3,155.9c0,0.5,0.1,0.9,0.2,1.4c0.2,0.4,0.7,0.7,1.1,0.7c0.4,0,0.8-0.2,1-0.5c0.3-0.4,0.5-1,0.4-1.5c0-0.5-0.1-1.1-0.4-1.5
	c-0.2-0.3-0.6-0.5-1-0.5s-0.8,0.2-1,0.5C10.4,154.9,10.3,155.4,10.3,155.9L10.3,155.9z"/>
<path class="st8" d="M15.1,158.6v-5.2h0.8v0.8c0.1-0.3,0.3-0.5,0.6-0.7c0.2-0.1,0.4-0.2,0.6-0.2c0.3,0,0.6,0.1,0.9,0.3l-0.3,0.8
	c-0.2-0.1-0.4-0.2-0.6-0.2s-0.4,0.1-0.5,0.2c-0.2,0.1-0.3,0.3-0.3,0.5c-0.1,0.3-0.1,0.7-0.1,1v2.7L15.1,158.6z"/>
<path class="st8" d="M18.4,152.4v-1h0.9v1H18.4z M18.4,158.6v-5.2h0.9v5.2H18.4z"/>
<path class="st8" d="M20.6,158.6v-5.2h0.8v0.8c0.4-0.6,1-0.9,1.7-0.9c0.3,0,0.6,0.1,0.9,0.2c0.2,0.1,0.4,0.2,0.6,0.4
	c0.1,0.2,0.2,0.4,0.3,0.6c0,0.3,0,0.6,0,0.9v3.2H24v-3.1c0-0.3,0-0.5-0.1-0.8c-0.1-0.2-0.2-0.3-0.4-0.4c-0.2-0.1-0.4-0.2-0.6-0.2
	c-0.4,0-0.7,0.1-1,0.4c-0.3,0.4-0.5,0.9-0.4,1.4v2.8L20.6,158.6z"/>
<path class="st8" d="M26,159l0.8,0.1c0,0.2,0.1,0.4,0.3,0.6c0.3,0.2,0.6,0.3,0.9,0.2c0.3,0,0.7-0.1,0.9-0.2c0.2-0.2,0.4-0.4,0.4-0.7
	c0.1-0.4,0.1-0.8,0.1-1.1c-0.4,0.4-0.9,0.7-1.4,0.7c-0.6,0-1.3-0.3-1.7-0.8c-0.4-0.5-0.6-1.2-0.6-1.9c0-0.5,0.1-0.9,0.3-1.4
	c0.2-0.4,0.4-0.8,0.8-1s0.8-0.4,1.2-0.3c0.6,0,1.2,0.3,1.5,0.7v-0.6h0.8v4.5c0,0.6,0,1.2-0.2,1.7c-0.2,0.3-0.4,0.6-0.8,0.8
	s-0.9,0.3-1.3,0.3c-0.5,0-1.1-0.1-1.5-0.4C26.2,159.9,26,159.5,26,159z M26.8,155.9c0,0.5,0.1,1.1,0.4,1.5c0.2,0.3,0.6,0.5,1,0.5
	s0.8-0.2,1-0.5c0.3-0.4,0.5-0.9,0.4-1.5c0-0.5-0.1-1-0.4-1.4c-0.2-0.3-0.6-0.5-1-0.5s-0.8,0.2-1,0.5
	C26.9,154.9,26.7,155.4,26.8,155.9z"/>
<path class="st8" d="M276.9,57.2V50h1v7.2H276.9z"/>
<path class="st8" d="M279.4,57.2V52h0.8v0.7c0.4-0.6,1-0.9,1.6-0.9c0.3,0,0.6,0,0.9,0.2c0.2,0.1,0.4,0.2,0.6,0.4
	c0.1,0.2,0.2,0.4,0.3,0.6c0,0.3,0.1,0.6,0,0.9v3.2h-0.9v-3.2c0-0.3,0-0.5-0.1-0.8c-0.1-0.2-0.2-0.3-0.4-0.4
	c-0.2-0.1-0.4-0.2-0.6-0.2c-0.4,0-0.7,0.1-1,0.4c-0.3,0.4-0.5,0.9-0.4,1.4v2.8L279.4,57.2L279.4,57.2z"/>
<path class="st8" d="M286.9,56.4l0.1,0.8c-0.2,0-0.4,0.1-0.7,0.1c-0.3,0-0.5,0-0.7-0.1s-0.3-0.2-0.4-0.4c-0.1-0.3-0.1-0.7-0.1-1v-3
	h-0.6v-0.7h0.6v-1.3l0.9-0.5v1.8h0.9v0.7H286v3c0,0.2,0,0.3,0,0.5c0,0.1,0.1,0.1,0.1,0.2c0.1,0.1,0.2,0.1,0.3,0.1
	C286.7,56.5,286.8,56.5,286.9,56.4z"/>
<path class="st8" d="M291.3,55.6l0.9,0.1c-0.1,0.5-0.4,0.9-0.8,1.2c-1,0.7-2.4,0.6-3.3-0.3c-0.5-0.6-0.7-1.3-0.7-2s0.2-1.4,0.7-2
	c0.5-0.5,1.1-0.7,1.8-0.7c0.6,0,1.3,0.2,1.7,0.7c0.5,0.6,0.7,1.3,0.7,2v0.2h-3.9c0,0.5,0.2,0.9,0.5,1.3c0.3,0.3,0.7,0.5,1.1,0.4
	c0.3,0,0.6-0.1,0.8-0.2C291,56.2,291.2,55.9,291.3,55.6z M288.4,54.1h2.9c0-0.4-0.1-0.7-0.3-1c-0.3-0.3-0.7-0.5-1.1-0.5
	s-0.7,0.1-1,0.4C288.6,53.3,288.5,53.7,288.4,54.1z"/>
<path class="st8" d="M293.1,57.7l0.9,0.1c0,0.2,0.1,0.4,0.3,0.6c0.3,0.2,0.6,0.3,0.9,0.2c0.3,0,0.7-0.1,1-0.2
	c0.2-0.2,0.4-0.4,0.4-0.7c0.1-0.4,0.1-0.8,0.1-1.1c-0.4,0.4-0.9,0.7-1.4,0.7c-0.6,0-1.3-0.3-1.6-0.8c-0.4-0.5-0.6-1.2-0.6-1.9
	c0-0.5,0.1-0.9,0.3-1.4c0.2-0.4,0.4-0.8,0.8-1s0.8-0.4,1.2-0.3c0.6,0,1.2,0.3,1.5,0.7V52h0.8v4.5c0,0.6,0,1.2-0.2,1.7
	c-0.2,0.3-0.5,0.6-0.8,0.8c-0.4,0.2-0.9,0.3-1.3,0.3c-0.5,0-1.1-0.1-1.5-0.4C293.3,58.6,293.1,58.1,293.1,57.7z M293.9,54.6
	c0,0.5,0.1,1.1,0.4,1.5c0.2,0.3,0.6,0.5,1,0.5s0.8-0.2,1-0.5c0.3-0.4,0.5-0.9,0.4-1.5c0-0.5-0.1-1-0.4-1.4c-0.5-0.6-1.3-0.6-1.8-0.2
	c-0.1,0.1-0.1,0.1-0.2,0.2C294,53.6,293.9,54.1,293.9,54.6L293.9,54.6z"/>
<path class="st8" d="M298.9,57.2V52h0.8v0.8c0.1-0.3,0.3-0.5,0.6-0.7c0.2-0.1,0.4-0.2,0.6-0.2c0.3,0,0.6,0.1,0.9,0.3l-0.3,0.8
	c-0.2-0.1-0.4-0.2-0.6-0.2s-0.4,0.1-0.5,0.2c-0.2,0.1-0.3,0.3-0.3,0.5c-0.1,0.3-0.2,0.7-0.1,1v2.7L298.9,57.2z"/>
<path class="st8" d="M305.6,56.6c-0.3,0.2-0.6,0.4-0.9,0.6c-0.3,0.1-0.7,0.2-1,0.2c-0.5,0-0.9-0.1-1.3-0.4c-0.3-0.3-0.5-0.7-0.5-1.1
	c0-0.3,0.1-0.5,0.2-0.7s0.3-0.4,0.5-0.5s0.4-0.2,0.6-0.3c0.3-0.1,0.5-0.1,0.8-0.1c0.5,0,1.1-0.1,1.6-0.3c0-0.1,0-0.2,0-0.2
	c0-0.3-0.1-0.6-0.2-0.8c-0.3-0.2-0.6-0.3-1-0.3c-0.3,0-0.6,0.1-0.9,0.2c-0.2,0.2-0.4,0.5-0.4,0.8l-0.9-0.1c0.1-0.3,0.2-0.6,0.4-0.9
	c0.2-0.2,0.5-0.4,0.8-0.5c0.4-0.1,0.8-0.2,1.2-0.2c0.4,0,0.7,0,1.1,0.1c0.2,0.1,0.4,0.2,0.6,0.4c0.1,0.2,0.2,0.4,0.3,0.6
	c0,0.3,0,0.5,0,0.8V55c0,0.5,0,1,0.1,1.6c0,0.2,0.1,0.4,0.2,0.6H306C305.7,57,305.6,56.8,305.6,56.6z M305.5,54.6
	c-0.5,0.2-0.9,0.3-1.4,0.3c-0.3,0-0.5,0.1-0.8,0.2c-0.1,0.1-0.3,0.2-0.4,0.3s-0.1,0.3-0.1,0.4c0,0.2,0.1,0.4,0.3,0.6
	c0.2,0.2,0.5,0.3,0.8,0.2c0.3,0,0.6-0.1,0.9-0.2c0.3-0.1,0.5-0.4,0.6-0.6c0.1-0.3,0.2-0.6,0.1-0.9V54.6z"/>
<path class="st8" d="M309.7,56.4l0.1,0.8c-0.2,0-0.4,0.1-0.7,0.1c-0.3,0-0.5,0-0.7-0.1s-0.3-0.2-0.4-0.4c-0.1-0.3-0.1-0.7-0.1-1v-3
	h-0.6v-0.7h0.6v-1.3l0.9-0.5v1.8h0.9v0.7h-0.9v3c0,0.2,0,0.3,0,0.5c0,0.1,0.1,0.1,0.1,0.2c0.1,0.1,0.2,0.1,0.3,0.1
	C309.4,56.5,309.6,56.5,309.7,56.4z"/>
<path class="st8" d="M314.1,55.6l0.9,0.1c-0.1,0.5-0.4,0.9-0.8,1.2s-1,0.5-1.5,0.4c-0.7,0-1.3-0.2-1.8-0.7c-0.5-0.6-0.7-1.3-0.7-2
	s0.2-1.4,0.7-2c0.5-0.5,1.1-0.7,1.8-0.7c0.6,0,1.3,0.2,1.7,0.7c0.5,0.6,0.7,1.3,0.7,2c0,0.1,0,0.2,0,0.2h-3.9c0,0.5,0.2,0.9,0.5,1.3
	c0.3,0.3,0.7,0.5,1.1,0.4c0.3,0,0.6-0.1,0.8-0.2C313.8,56.2,314,55.9,314.1,55.6z M311.2,54.1h2.9c0-0.4-0.1-0.7-0.3-1
	c-0.3-0.3-0.7-0.5-1.1-0.5s-0.7,0.1-1,0.4C311.4,53.3,311.3,53.7,311.2,54.1z"/>
<path class="st8" d="M319.5,57.2v-0.7c-0.3,0.5-0.9,0.8-1.5,0.8c-0.4,0-0.8-0.1-1.1-0.4c-0.4-0.2-0.6-0.6-0.8-1
	c-0.2-0.4-0.3-0.9-0.3-1.4s0.1-1,0.3-1.4c0.3-0.8,1.1-1.3,1.9-1.3c0.3,0,0.6,0.1,0.8,0.2c0.2,0.1,0.4,0.3,0.6,0.5V50h0.9v7.2H319.5z
	 M316.7,54.7c0,0.5,0.1,1.1,0.4,1.5c0.2,0.3,0.6,0.5,1,0.5s0.8-0.2,1-0.5c0.3-0.4,0.4-0.9,0.4-1.4c0.1-0.6-0.1-1.1-0.4-1.6
	c-0.2-0.3-0.6-0.5-1-0.5s-0.8,0.2-1,0.5C316.8,53.6,316.7,54.1,316.7,54.7L316.7,54.7z"/>
<path class="st8" d="M341.4,100.8v-7.2h1l3.7,5.6v-5.6h0.9v7.2h-1l-3.7-5.6v5.6H341.4z"/>
<path class="st8" d="M352.1,99.1l0.9,0.1c-0.1,0.5-0.4,0.9-0.8,1.2c-1,0.7-2.4,0.6-3.3-0.3c-0.5-0.6-0.7-1.3-0.7-2s0.2-1.4,0.7-2
	c0.5-0.5,1.1-0.8,1.8-0.7c0.6,0,1.3,0.2,1.7,0.7c0.5,0.6,0.7,1.3,0.6,2v0.2h-3.9c0,0.5,0.2,0.9,0.5,1.3c0.3,0.3,0.7,0.5,1.1,0.5
	c0.3,0,0.6-0.1,0.8-0.2C351.8,99.7,352,99.5,352.1,99.1z M349.3,97.7h2.9c0-0.4-0.1-0.7-0.3-1c-0.3-0.3-0.7-0.5-1.1-0.5
	s-0.7,0.1-1,0.4C349.4,96.9,349.2,97.3,349.3,97.7L349.3,97.7z"/>
<path class="st8" d="M353.8,99.2l0.9-0.1c0,0.3,0.2,0.6,0.4,0.8c0.6,0.3,1.3,0.3,1.8,0c0.2-0.1,0.3-0.4,0.3-0.6s-0.1-0.4-0.3-0.5
	c-0.3-0.1-0.6-0.2-0.9-0.3c-0.5-0.1-0.9-0.2-1.3-0.4c-0.2-0.1-0.4-0.3-0.6-0.5c-0.1-0.2-0.2-0.4-0.2-0.7c0-0.2,0.1-0.4,0.2-0.6
	s0.3-0.4,0.4-0.5c0.2-0.1,0.4-0.2,0.6-0.3c0.2-0.1,0.5-0.1,0.8-0.1c0.4,0,0.7,0.1,1.1,0.2c0.3,0.1,0.5,0.3,0.7,0.5s0.3,0.5,0.3,0.8
	l-1,0.1c0-0.2-0.1-0.5-0.3-0.6c-0.2-0.2-0.5-0.2-0.8-0.2s-0.6,0-0.9,0.2c-0.2,0.1-0.3,0.3-0.3,0.5c0,0.1,0,0.2,0.1,0.3
	c0.1,0.1,0.2,0.2,0.3,0.2c0.1,0,0.3,0.1,0.8,0.2c0.4,0.1,0.9,0.2,1.3,0.4c0.2,0.1,0.4,0.3,0.6,0.5c0.1,0.2,0.2,0.5,0.2,0.8
	s-0.1,0.6-0.2,0.8c-0.2,0.3-0.4,0.5-0.7,0.6c-0.3,0.1-0.7,0.2-1.1,0.2c-0.5,0-1.1-0.1-1.5-0.4C354.1,100.1,353.8,99.7,353.8,99.2z"
	/>
<path class="st8" d="M361,100l0.1,0.8c-0.2,0-0.4,0.1-0.7,0.1c-0.3,0-0.5,0-0.7-0.2c-0.2-0.1-0.3-0.2-0.4-0.4
	c-0.1-0.3-0.1-0.7-0.1-1v-3h-0.6v-0.7h0.6v-1.3l0.9-0.5v1.8h0.9v0.7h-0.9v3c0,0.2,0,0.3,0,0.5c0,0.1,0.1,0.1,0.1,0.2
	c0.1,0,0.2,0.1,0.3,0.1C360.8,100,360.9,100,361,100z"/>
<path class="st8" d="M365.4,99.1l0.9,0.1c-0.1,0.5-0.4,0.9-0.8,1.2c-1,0.7-2.4,0.6-3.3-0.3c-0.5-0.6-0.7-1.3-0.7-2s0.2-1.4,0.7-2
	c0.5-0.5,1.1-0.8,1.8-0.7c0.6,0,1.3,0.2,1.7,0.7c0.5,0.6,0.7,1.3,0.6,2v0.2h-3.9c0,0.5,0.2,0.9,0.5,1.3c0.3,0.3,0.7,0.5,1.1,0.5
	c0.3,0,0.6-0.1,0.8-0.2C365.2,99.7,365.3,99.5,365.4,99.1z M362.6,97.7h2.9c0-0.4-0.1-0.7-0.3-1c-0.3-0.3-0.7-0.5-1.1-0.5
	s-0.7,0.1-1,0.4C362.7,96.9,362.6,97.3,362.6,97.7L362.6,97.7z"/>
<path class="st8" d="M370.8,100.8v-0.6c-0.3,0.5-0.9,0.8-1.5,0.8c-0.4,0-0.8-0.1-1.1-0.3c-0.4-0.2-0.6-0.6-0.8-1
	c-0.2-0.4-0.3-0.9-0.3-1.4s0.1-1,0.3-1.4c0.1-0.4,0.4-0.8,0.8-1c0.3-0.2,0.7-0.3,1.1-0.3c0.3,0,0.6,0.1,0.8,0.2
	c0.2,0.1,0.4,0.3,0.6,0.5v-2.6h0.9v7.2L370.8,100.8z M368,98.2c0,0.5,0.1,1.1,0.4,1.5c0.4,0.6,1.2,0.7,1.8,0.2
	c0.1-0.1,0.2-0.1,0.2-0.2c0.3-0.4,0.4-0.9,0.4-1.4c0-0.6-0.1-1.1-0.4-1.6c-0.2-0.3-0.6-0.5-1-0.5s-0.8,0.2-1,0.5
	C368.1,97.1,368,97.6,368,98.2L368,98.2z"/>
<path class="st8" d="M112.1,158.6h-0.9V153c-0.3,0.2-0.5,0.4-0.8,0.6c-0.3,0.2-0.6,0.3-0.9,0.5v-0.9c0.5-0.2,0.9-0.5,1.3-0.8
	c0.3-0.3,0.6-0.6,0.8-1h0.6L112.1,158.6L112.1,158.6z"/>
<path class="st8" d="M114.8,158.6v-1h1v1H114.8z"/>
<path class="st8" d="M119.8,157l0.9-0.1c0,0.3,0.2,0.6,0.4,0.8c0.3,0.2,0.6,0.3,0.9,0.3s0.6-0.1,0.9-0.2c0.2-0.1,0.3-0.4,0.3-0.6
	c0-0.2-0.1-0.4-0.3-0.5c-0.3-0.1-0.6-0.2-0.9-0.3c-0.5-0.1-0.9-0.2-1.3-0.4c-0.2-0.1-0.4-0.3-0.6-0.5c-0.1-0.2-0.2-0.5-0.2-0.7
	s0.1-0.4,0.2-0.6c0.1-0.2,0.3-0.4,0.4-0.5c0.2-0.1,0.4-0.2,0.6-0.3s0.5-0.1,0.8-0.1c0.4,0,0.7,0.1,1.1,0.2c0.3,0.1,0.5,0.3,0.7,0.5
	s0.3,0.5,0.3,0.8l-0.9,0.1c0-0.2-0.1-0.5-0.3-0.6c-0.2-0.2-0.5-0.2-0.8-0.2s-0.6,0-0.9,0.2c-0.2,0.1-0.3,0.3-0.3,0.5
	c0,0.1,0,0.2,0.1,0.3s0.2,0.2,0.3,0.2c0.1,0,0.4,0.1,0.8,0.2c0.4,0.1,0.9,0.3,1.3,0.4c0.2,0.1,0.4,0.3,0.6,0.5
	c0.1,0.2,0.2,0.5,0.2,0.8s-0.1,0.6-0.2,0.8c-0.2,0.3-0.4,0.5-0.7,0.6c-0.3,0.2-0.7,0.2-1.1,0.2c-0.5,0-1.1-0.1-1.5-0.4
	C120.1,157.9,119.8,157.5,119.8,157z"/>
<path class="st8" d="M125.1,160.6l-0.1-0.8c0.2,0,0.3,0.1,0.5,0.1s0.3,0,0.5-0.1c0.1-0.1,0.2-0.2,0.3-0.3c0.1-0.2,0.2-0.4,0.3-0.7
	c0,0,0-0.1,0.1-0.2l-2-5.2h1l1.1,3c0.1,0.4,0.3,0.8,0.4,1.2c0.1-0.4,0.2-0.8,0.4-1.2l1.1-3h0.9l-2,5.3c-0.1,0.4-0.3,0.8-0.5,1.2
	c-0.1,0.3-0.3,0.5-0.5,0.6s-0.5,0.2-0.7,0.2C125.5,160.7,125.3,160.6,125.1,160.6z"/>
<path class="st8" d="M130.1,158.6v-5.2h0.8v0.8c0.2-0.3,0.4-0.5,0.6-0.6c0.3-0.2,0.6-0.2,0.9-0.2c0.3,0,0.7,0.1,0.9,0.2
	c0.2,0.2,0.4,0.4,0.5,0.7c0.3-0.6,0.9-0.9,1.6-0.9c0.4,0,0.9,0.1,1.2,0.4c0.3,0.4,0.5,0.8,0.4,1.3v3.6h-0.9v-3.3
	c0-0.3,0-0.5-0.1-0.8c-0.1-0.2-0.2-0.3-0.3-0.4c-0.2-0.1-0.3-0.1-0.5-0.1c-0.3,0-0.7,0.1-0.9,0.4c-0.3,0.3-0.4,0.7-0.4,1.2v3H133
	v-3.4c0-0.3-0.1-0.6-0.2-0.9c-0.2-0.2-0.4-0.3-0.7-0.3c-0.2,0-0.5,0.1-0.7,0.2c-0.2,0.1-0.4,0.3-0.5,0.6s-0.2,0.7-0.1,1.1v2.7
	L130.1,158.6z"/>
<path class="st8" d="M139.3,158.6h-0.8v-7.2h0.9v2.5c0.3-0.4,0.9-0.7,1.4-0.7c0.3,0,0.6,0.1,0.9,0.2c0.3,0.1,0.5,0.3,0.7,0.5
	c0.2,0.3,0.3,0.5,0.4,0.8c0.1,0.3,0.2,0.7,0.1,1.1c0,0.7-0.2,1.5-0.7,2.1c-0.4,0.5-1,0.7-1.6,0.7s-1.1-0.3-1.4-0.8v0.8H139.3z
	 M139.3,155.9c0,0.5,0.1,0.9,0.2,1.4c0.2,0.4,0.7,0.7,1.1,0.7c0.4,0,0.8-0.2,1-0.5c0.3-0.4,0.5-1,0.4-1.5c0-0.5-0.1-1.1-0.4-1.5
	c-0.2-0.3-0.6-0.5-1-0.5s-0.8,0.2-1,0.5C139.4,154.9,139.2,155.4,139.3,155.9L139.3,155.9z"/>
<path class="st8" d="M143.7,156c-0.1-0.8,0.2-1.6,0.8-2.1c0.5-0.4,1-0.6,1.6-0.6c0.7,0,1.3,0.2,1.7,0.7c0.5,0.5,0.7,1.2,0.7,1.9
	c0,0.5-0.1,1.1-0.3,1.6c-0.2,0.4-0.5,0.7-0.9,0.9s-0.8,0.3-1.2,0.3c-0.7,0-1.3-0.2-1.8-0.7C143.9,157.4,143.6,156.7,143.7,156z
	 M144.6,156c0,0.5,0.1,1.1,0.4,1.5c0.3,0.3,0.7,0.5,1.1,0.5c0.4,0,0.8-0.2,1.1-0.5c0.3-0.4,0.5-1,0.4-1.5c0-0.5-0.1-1-0.4-1.5
	c-0.3-0.3-0.7-0.5-1.1-0.5c-0.4,0-0.8,0.2-1.1,0.5C144.7,154.9,144.6,155.4,144.6,156z"/>
<path class="st8" d="M149.6,158.6v-7.2h0.9v7.2H149.6z"/>
<path class="st8" d="M151.8,152.4v-1h0.9v1H151.8z M151.8,158.6v-5.2h0.9v5.2H151.8z"/>
<path class="st8" d="M157.4,156.7l0.9,0.1c-0.1,0.5-0.3,1-0.7,1.4c-0.4,0.3-0.9,0.5-1.4,0.5c-0.6,0-1.3-0.2-1.7-0.7
	c-0.5-0.6-0.7-1.3-0.6-2c0-0.5,0.1-1,0.3-1.5c0.2-0.4,0.5-0.7,0.8-1c0.4-0.2,0.8-0.3,1.2-0.3c0.5,0,1,0.1,1.4,0.4
	c0.4,0.3,0.6,0.7,0.7,1.2l-0.9,0.1c-0.1-0.3-0.2-0.6-0.4-0.8s-0.5-0.3-0.8-0.3c-0.4,0-0.8,0.2-1.1,0.5c-0.3,0.4-0.5,1-0.4,1.5
	c0,0.5,0.1,1.1,0.4,1.5c0.3,0.3,0.6,0.5,1,0.5c0.3,0,0.6-0.1,0.9-0.3C157.2,157.4,157.4,157,157.4,156.7z"/>
<path class="st8" d="M161.9,158.6v-7.2h1l3.8,5.6v-5.6h0.9v7.2h-1l-3.8-5.6v5.6H161.9z"/>
<path class="st8" d="M172.6,156.9l0.9,0.1c-0.1,0.5-0.4,0.9-0.8,1.2c-1,0.7-2.4,0.6-3.3-0.3c-0.5-0.6-0.7-1.3-0.7-2s0.2-1.4,0.7-2
	c0.4-0.5,1.1-0.7,1.7-0.7c0.6,0,1.3,0.2,1.7,0.7c0.5,0.6,0.7,1.3,0.7,2v0.2h-3.9c0,0.5,0.2,0.9,0.5,1.3c0.3,0.3,0.7,0.5,1.1,0.5
	c0.3,0,0.6-0.1,0.8-0.2C172.3,157.5,172.5,157.2,172.6,156.9z M169.7,155.5h2.9c0-0.4-0.1-0.7-0.3-1c-0.3-0.3-0.7-0.5-1.1-0.5
	c-0.4,0-0.7,0.1-1,0.4C169.9,154.7,169.7,155.1,169.7,155.5z"/>
<path class="st8" d="M178,158.6v-0.8c-0.4,0.6-1,0.9-1.6,0.9c-0.3,0-0.6-0.1-0.9-0.2c-0.2-0.1-0.4-0.2-0.6-0.4
	c-0.1-0.2-0.2-0.4-0.3-0.6c0-0.3-0.1-0.5,0-0.8v-3.2h0.9v2.9c0,0.3,0,0.6,0,0.9c0,0.2,0.2,0.4,0.4,0.5s0.4,0.2,0.7,0.2
	s0.5-0.1,0.7-0.2c0.2-0.1,0.4-0.3,0.5-0.5c0.1-0.3,0.2-0.7,0.1-1v-2.8h0.9v5.2L178,158.6z"/>
<path class="st8" d="M180.1,158.6v-5.2h0.8v0.8c0.1-0.3,0.3-0.5,0.6-0.7c0.2-0.1,0.4-0.2,0.6-0.2c0.3,0,0.6,0.1,0.9,0.3l-0.3,0.8
	c-0.2-0.1-0.4-0.2-0.6-0.2c-0.2,0-0.4,0.1-0.5,0.2c-0.2,0.1-0.3,0.3-0.3,0.5c-0.1,0.3-0.1,0.7-0.1,1v2.7L180.1,158.6z"/>
<path class="st8" d="M183.1,156c-0.1-0.8,0.2-1.6,0.8-2.1c0.5-0.4,1-0.6,1.6-0.6c0.7,0,1.3,0.2,1.8,0.7s0.7,1.2,0.7,1.9
	c0,0.5-0.1,1.1-0.3,1.6c-0.2,0.4-0.5,0.7-0.9,0.9s-0.8,0.3-1.3,0.3c-0.7,0-1.3-0.2-1.8-0.7C183.3,157.4,183.1,156.7,183.1,156z
	 M184.1,156c0,0.5,0.1,1.1,0.4,1.5c0.5,0.6,1.5,0.7,2.1,0.1l0.1-0.1c0.3-0.4,0.5-1,0.4-1.5c0-0.5-0.1-1-0.4-1.5
	c-0.5-0.6-1.4-0.7-2-0.1c-0.1,0-0.1,0.1-0.1,0.1C184.2,154.9,184,155.4,184.1,156z"/>
<path class="st8" d="M191.5,157l0.9-0.1c0,0.3,0.2,0.6,0.4,0.8c0.3,0.2,0.6,0.3,0.9,0.3c0.3,0,0.6-0.1,0.9-0.2
	c0.2-0.1,0.3-0.4,0.3-0.6c0-0.2-0.1-0.4-0.3-0.5c-0.3-0.1-0.6-0.2-0.9-0.3c-0.5-0.1-0.9-0.2-1.3-0.4c-0.2-0.1-0.4-0.3-0.6-0.5
	c-0.1-0.2-0.2-0.5-0.2-0.7s0.1-0.4,0.2-0.6c0.1-0.2,0.3-0.4,0.4-0.5c0.2-0.1,0.4-0.2,0.6-0.3c0.2-0.1,0.5-0.1,0.8-0.1
	c0.4,0,0.7,0.1,1.1,0.2c0.3,0.1,0.5,0.3,0.7,0.5s0.3,0.5,0.3,0.8l-0.9,0.1c0-0.2-0.1-0.5-0.3-0.6c-0.2-0.2-0.5-0.2-0.8-0.2
	s-0.6,0-0.9,0.2c-0.2,0.1-0.3,0.3-0.3,0.5c0,0.1,0,0.2,0.1,0.3s0.2,0.2,0.3,0.2s0.3,0.1,0.8,0.2c0.4,0.1,0.9,0.3,1.3,0.4
	c0.2,0.1,0.4,0.3,0.6,0.5c0.1,0.2,0.2,0.5,0.2,0.8s-0.1,0.6-0.2,0.8c-0.2,0.3-0.4,0.5-0.7,0.6c-0.3,0.2-0.7,0.2-1.1,0.2
	c-0.5,0-1.1-0.1-1.5-0.4C191.8,157.9,191.5,157.5,191.5,157z"/>
<path class="st8" d="M196.8,160.6l-0.1-0.8c0.2,0,0.3,0.1,0.5,0.1s0.3,0,0.5-0.1c0.1-0.1,0.2-0.2,0.3-0.3c0.1-0.2,0.2-0.4,0.3-0.7
	c0,0,0-0.1,0.1-0.2l-2-5.2h1l1.1,3c0.1,0.4,0.3,0.8,0.4,1.2c0.1-0.4,0.2-0.8,0.4-1.2l1.1-3h0.9l-2,5.3c-0.1,0.4-0.3,0.8-0.5,1.2
	c-0.1,0.3-0.3,0.5-0.5,0.6s-0.5,0.2-0.7,0.2C197.1,160.7,197,160.6,196.8,160.6z"/>
<path class="st8" d="M201.8,158.6v-5.2h0.8v0.8c0.3-0.5,0.9-0.9,1.6-0.8c0.3,0,0.7,0.1,0.9,0.2c0.2,0.2,0.4,0.4,0.5,0.7
	c0.3-0.6,0.9-0.9,1.6-0.9c0.4,0,0.9,0.1,1.2,0.4c0.3,0.4,0.5,0.8,0.4,1.3v3.6H208v-3.3c0-0.3,0-0.5-0.1-0.8
	c-0.1-0.2-0.2-0.3-0.3-0.4c-0.2-0.1-0.3-0.1-0.5-0.1c-0.3,0-0.7,0.1-0.9,0.4c-0.3,0.3-0.4,0.7-0.4,1.2v3h-0.9v-3.4
	c0-0.3-0.1-0.6-0.2-0.9c-0.2-0.2-0.4-0.3-0.7-0.3c-0.2,0-0.5,0.1-0.7,0.2c-0.2,0.1-0.4,0.3-0.5,0.6s-0.2,0.7-0.1,1.1v2.7
	L201.8,158.6z"/>
<path class="st8" d="M211,158.6h-0.8v-7.2h0.9v2.5c0.3-0.4,0.9-0.7,1.4-0.7c0.3,0,0.6,0.1,0.9,0.2c0.3,0.1,0.5,0.3,0.7,0.5
	s0.3,0.5,0.4,0.8c0.1,0.3,0.2,0.7,0.2,1.1c0,0.7-0.2,1.5-0.7,2.1c-0.4,0.5-1,0.7-1.6,0.7s-1.1-0.3-1.4-0.8L211,158.6z M211,155.9
	c0,0.5,0.1,0.9,0.2,1.4c0.2,0.4,0.7,0.7,1.1,0.7c0.4,0,0.8-0.2,1-0.5c0.3-0.4,0.5-1,0.4-1.5c0-0.5-0.1-1.1-0.4-1.5
	c-0.2-0.3-0.6-0.5-1-0.5s-0.8,0.2-1,0.5C211.1,154.9,210.9,155.4,211,155.9L211,155.9z"/>
<path class="st8" d="M215.4,156c-0.1-0.8,0.2-1.6,0.8-2.1c0.5-0.4,1-0.6,1.6-0.6c0.7,0,1.3,0.2,1.7,0.7c0.5,0.5,0.7,1.2,0.7,1.9
	c0,0.5-0.1,1.1-0.3,1.6c-0.2,0.4-0.5,0.7-0.9,0.9s-0.8,0.3-1.2,0.3c-0.7,0-1.3-0.2-1.8-0.7C215.6,157.4,215.3,156.7,215.4,156z
	 M216.3,156c0,0.5,0.1,1.1,0.4,1.5c0.3,0.3,0.7,0.5,1.1,0.5c0.4,0,0.8-0.2,1.1-0.5c0.3-0.4,0.5-1,0.4-1.5c0-0.5-0.1-1-0.4-1.5
	c-0.3-0.3-0.7-0.5-1.1-0.5c-0.4,0-0.8,0.2-1.1,0.5C216.4,154.9,216.2,155.4,216.3,156z"/>
<path class="st8" d="M221.2,158.6v-7.2h0.9v7.2H221.2z"/>
<path class="st8" d="M223.5,152.4v-1h0.9v1H223.5z M223.5,158.6v-5.2h0.9v5.2H223.5z"/>
<path class="st8" d="M229.1,156.7l0.9,0.1c-0.1,0.5-0.3,1-0.7,1.4c-0.4,0.3-0.9,0.5-1.4,0.5c-0.6,0-1.3-0.2-1.7-0.7
	c-0.5-0.6-0.7-1.3-0.6-2c0-0.5,0.1-1,0.3-1.5c0.2-0.4,0.5-0.7,0.8-1c0.4-0.2,0.8-0.3,1.2-0.3c0.5,0,1,0.1,1.4,0.4
	c0.4,0.3,0.6,0.7,0.7,1.2l-0.9,0.1c-0.1-0.3-0.2-0.6-0.4-0.8s-0.5-0.3-0.8-0.3c-0.4,0-0.8,0.2-1.1,0.5c-0.3,0.4-0.5,1-0.4,1.5
	c0,0.5,0.1,1.1,0.4,1.5c0.2,0.3,0.6,0.5,1,0.5c0.3,0,0.6-0.1,0.9-0.3C228.9,157.4,229.1,157,229.1,156.7z"/>
<path class="st8" d="M371.3,119v0.8h-4.7c0-0.2,0-0.4,0.1-0.6c0.1-0.3,0.3-0.7,0.6-1c0.4-0.4,0.7-0.8,1.1-1.1c0.6-0.4,1.1-1,1.6-1.5
	c0.2-0.3,0.4-0.7,0.4-1.1c0-0.3-0.1-0.7-0.4-0.9c-0.6-0.5-1.4-0.5-2,0c-0.3,0.3-0.4,0.7-0.4,1.1l-0.9-0.1c0-0.6,0.3-1.1,0.7-1.5
	c0.5-0.4,1-0.6,1.6-0.5c0.6,0,1.2,0.2,1.6,0.6s0.6,0.9,0.6,1.4c0,0.3-0.1,0.6-0.2,0.9s-0.3,0.6-0.6,0.9c-0.4,0.5-0.9,0.9-1.4,1.3
	s-0.9,0.7-1,0.9c-0.1,0.1-0.3,0.3-0.4,0.5L371.3,119z"/>
<path class="st8" d="M372.7,119.8v-1h1v1H372.7z"/>
<path class="st8" d="M377.8,117.5l0.9-0.1c0,0.3,0.1,0.6,0.3,0.9c0.2,0.2,0.4,0.4,0.7,0.5c0.3,0.1,0.7,0.2,1.1,0.2
	c0.3,0,0.7,0,1-0.2c0.2-0.1,0.5-0.2,0.6-0.4c0.1-0.2,0.2-0.4,0.2-0.6s-0.1-0.4-0.2-0.6c-0.2-0.2-0.4-0.3-0.6-0.4
	c-0.4-0.1-0.8-0.3-1.3-0.4s-0.9-0.2-1.4-0.5c-0.3-0.2-0.6-0.4-0.8-0.7c-0.2-0.3-0.3-0.6-0.2-0.9c0-0.4,0.1-0.7,0.3-1
	c0.2-0.3,0.5-0.6,0.9-0.7c0.4-0.2,0.9-0.3,1.3-0.2c0.5,0,1,0.1,1.4,0.3c0.4,0.1,0.7,0.4,0.9,0.8c0.2,0.3,0.3,0.7,0.4,1.1l-0.9,0.1
	c0-0.4-0.2-0.7-0.5-1c-0.4-0.2-0.8-0.4-1.2-0.3c-0.4,0-0.9,0.1-1.2,0.3c-0.2,0.2-0.4,0.5-0.4,0.8c0,0.2,0.1,0.5,0.3,0.6
	c0.4,0.3,0.9,0.4,1.4,0.5s1.1,0.3,1.6,0.5c0.4,0.2,0.7,0.4,0.9,0.7c0.2,0.3,0.3,0.6,0.3,1s-0.1,0.8-0.3,1.1
	c-0.2,0.3-0.6,0.6-0.9,0.8c-0.4,0.2-0.9,0.3-1.4,0.3c-0.6,0-1.1-0.1-1.6-0.3c-0.4-0.2-0.8-0.5-1-0.9
	C378,118.5,377.8,118,377.8,117.5z"/>
<path class="st8" d="M384.6,121.8l-0.1-0.8c0.2,0,0.3,0.1,0.5,0.1s0.3,0,0.5-0.1c0.1-0.1,0.2-0.2,0.3-0.3c0.1-0.2,0.2-0.4,0.3-0.6
	c0-0.1,0-0.1,0.1-0.2l-2-5.2h1l1.1,3c0.1,0.4,0.3,0.8,0.4,1.2c0.1-0.4,0.2-0.8,0.4-1.2l1.1-3h0.9l-2,5.3c-0.1,0.4-0.3,0.8-0.5,1.2
	c-0.1,0.3-0.3,0.5-0.5,0.6s-0.5,0.2-0.7,0.2C385,122,384.8,121.9,384.6,121.8z"/>
<path class="st8" d="M389.7,119.8v-5.2h0.8v0.7c0.2-0.3,0.4-0.5,0.6-0.6c0.3-0.2,0.6-0.2,0.9-0.2s0.7,0.1,1,0.2
	c0.2,0.2,0.4,0.4,0.5,0.7c0.3-0.6,0.9-0.9,1.6-0.9c0.4,0,0.9,0.1,1.2,0.4c0.3,0.4,0.4,0.8,0.4,1.3v3.6h-0.9v-3.3
	c0-0.3,0-0.5-0.1-0.8c-0.1-0.2-0.2-0.3-0.3-0.4c-0.2-0.1-0.3-0.1-0.5-0.1c-0.3,0-0.7,0.1-0.9,0.4c-0.3,0.3-0.4,0.7-0.4,1.2v3h-0.9
	v-3.4c0-0.3-0.1-0.6-0.2-0.9c-0.2-0.2-0.4-0.3-0.7-0.3c-0.2,0-0.5,0.1-0.7,0.2s-0.4,0.3-0.5,0.6c-0.1,0.3-0.2,0.7-0.1,1.1v2.7
	L389.7,119.8z"/>
<path class="st8" d="M398.8,119.8H398v-7.2h0.9v2.6c0.3-0.4,0.9-0.7,1.4-0.7c0.3,0,0.6,0.1,0.9,0.2s0.5,0.3,0.7,0.5
	c0.2,0.3,0.3,0.5,0.4,0.8s0.2,0.7,0.2,1c0,0.7-0.2,1.5-0.7,2.1c-0.4,0.5-1,0.7-1.6,0.7s-1.1-0.3-1.4-0.8V119.8z M398.8,117.2
	c0,0.5,0.1,0.9,0.2,1.4c0.3,0.6,1.1,0.9,1.7,0.5c0.2-0.1,0.3-0.2,0.4-0.4c0.6-0.9,0.6-2.1,0-3c-0.2-0.3-0.6-0.5-1-0.5
	s-0.8,0.2-1,0.5C398.9,116.2,398.8,116.7,398.8,117.2L398.8,117.2z"/>
<path class="st8" d="M403.2,117.2c-0.1-0.8,0.2-1.6,0.8-2.1c0.5-0.4,1-0.6,1.6-0.6c0.7,0,1.3,0.2,1.8,0.7s0.7,1.2,0.7,1.9
	c0,0.5-0.1,1.1-0.3,1.6c-0.2,0.4-0.5,0.7-0.9,0.9c-0.4,0.2-0.8,0.3-1.2,0.3c-0.7,0-1.3-0.2-1.8-0.7
	C403.5,118.7,403.2,118,403.2,117.2z M404.1,117.2c0,0.5,0.1,1.1,0.4,1.5c0.5,0.6,1.4,0.7,2,0.1c0.1,0,0.1-0.1,0.1-0.1
	c0.3-0.4,0.5-1,0.4-1.5c0-0.5-0.1-1-0.4-1.5c-0.5-0.6-1.5-0.7-2.1-0.1l-0.1,0.1C404.3,116.2,404.1,116.7,404.1,117.2L404.1,117.2z"
	/>
<path class="st8" d="M409.1,119.8v-7.2h0.9v7.2H409.1z"/>
<path class="st8" d="M411.4,113.7v-1h0.9v1H411.4z M411.4,119.8v-5.2h0.9v5.2H411.4z"/>
<path class="st8" d="M417,117.9l0.9,0.1c-0.1,0.5-0.3,1-0.7,1.4c-0.4,0.3-0.9,0.5-1.4,0.5c-0.6,0-1.3-0.2-1.7-0.7
	c-0.5-0.6-0.7-1.3-0.6-2c0-0.5,0.1-1,0.3-1.5c0.2-0.4,0.5-0.7,0.9-0.9c0.4-0.2,0.8-0.3,1.2-0.3c0.5,0,1,0.1,1.4,0.4s0.6,0.7,0.7,1.2
	l-0.9,0.1c-0.1-0.3-0.2-0.6-0.4-0.8c-0.2-0.2-0.5-0.3-0.8-0.3c-0.4,0-0.8,0.2-1.1,0.5c-0.5,0.9-0.5,2.1,0,3c0.2,0.3,0.6,0.5,1,0.5
	c0.3,0,0.6-0.1,0.9-0.3C416.7,118.6,416.9,118.3,417,117.9z"/>
<path class="st8" d="M418.6,121.8v-9.1h1.9v0.7h-1.1v7.7h1.1v0.7L418.6,121.8z"/>
<path class="st8" d="M421.4,119.8v-7.2h1l3.8,5.6v-5.6h0.9v7.2h-1l-3.8-5.6v5.6H421.4z"/>
<path class="st8" d="M432.1,118.1l0.9,0.1c-0.1,0.5-0.4,0.9-0.8,1.2c-0.4,0.3-1,0.5-1.5,0.4c-0.7,0-1.3-0.2-1.8-0.7s-0.7-1.3-0.7-2
	s0.2-1.4,0.7-2c0.5-0.5,1.1-0.7,1.8-0.7c0.6,0,1.3,0.2,1.7,0.7c0.5,0.6,0.7,1.3,0.7,2v0.2h-3.9c0,0.5,0.2,0.9,0.5,1.3
	c0.3,0.3,0.7,0.5,1.1,0.5c0.3,0,0.6-0.1,0.8-0.3C431.8,118.8,432,118.5,432.1,118.1z M429.3,116.7h2.9c0-0.4-0.1-0.7-0.3-1
	c-0.3-0.3-0.7-0.5-1.1-0.5s-0.7,0.1-1,0.4C429.4,115.9,429.2,116.3,429.3,116.7L429.3,116.7z"/>
<path class="st8" d="M437.5,119.8V119c-0.4,0.6-1,0.9-1.6,0.9c-0.3,0-0.6-0.1-0.9-0.2c-0.2-0.1-0.4-0.2-0.6-0.4
	c-0.1-0.2-0.2-0.4-0.3-0.6c0-0.3-0.1-0.5-0.1-0.8v-3.2h0.9v2.9c0,0.3,0,0.6,0.1,0.9c0,0.2,0.2,0.4,0.4,0.5c0.2,0.1,0.4,0.2,0.7,0.2
	c0.3,0,0.5-0.1,0.8-0.2c0.2-0.1,0.4-0.3,0.5-0.5c0.1-0.3,0.2-0.7,0.1-1v-2.8h0.9v5.2L437.5,119.8z"/>
<path class="st8" d="M439.7,119.8v-5.2h0.8v0.8c0.1-0.3,0.3-0.5,0.6-0.7c0.2-0.1,0.4-0.2,0.6-0.2c0.3,0,0.6,0.1,0.9,0.3l-0.3,0.8
	c-0.2-0.1-0.4-0.2-0.6-0.2s-0.4,0.1-0.5,0.2c-0.2,0.1-0.3,0.3-0.3,0.5c-0.1,0.3-0.1,0.7-0.1,1v2.7L439.7,119.8z"/>
<path class="st8" d="M442.7,117.2c-0.1-0.8,0.2-1.6,0.8-2.1c0.5-0.4,1-0.6,1.6-0.6c0.7,0,1.3,0.2,1.8,0.7s0.7,1.2,0.7,1.9
	c0,0.5-0.1,1.1-0.3,1.6c-0.2,0.4-0.5,0.7-0.9,0.9c-0.4,0.2-0.8,0.3-1.2,0.3c-0.7,0-1.3-0.2-1.8-0.7
	C442.9,118.7,442.6,118,442.7,117.2z M443.6,117.2c0,0.5,0.1,1.1,0.4,1.5c0.5,0.6,1.4,0.7,2,0.1c0.1,0,0.1-0.1,0.1-0.1
	c0.3-0.4,0.5-1,0.4-1.5c0-0.5-0.1-1-0.4-1.5c-0.3-0.3-0.7-0.5-1.1-0.5s-0.8,0.2-1.1,0.5C443.7,116.2,443.6,116.7,443.6,117.2
	L443.6,117.2z"/>
<path class="st8" d="M450.1,121.8h-1.9v-0.7h1v-7.7h-1v-0.7h1.9V121.8z"/>
<path class="st8" d="M371.2,126.4l-0.9,0.1c0-0.3-0.2-0.5-0.3-0.8c-0.2-0.2-0.5-0.4-0.9-0.4c-0.3,0-0.5,0.1-0.7,0.2
	c-0.3,0.2-0.5,0.5-0.6,0.9c-0.2,0.5-0.3,1.1-0.2,1.6c0.2-0.3,0.5-0.6,0.8-0.7c0.3-0.2,0.7-0.2,1-0.2c0.6,0,1.1,0.2,1.5,0.6
	c0.4,0.5,0.6,1.1,0.6,1.7c0,0.4-0.1,0.9-0.3,1.2c-0.2,0.4-0.5,0.7-0.8,0.9s-0.7,0.3-1.1,0.3c-0.7,0-1.3-0.3-1.8-0.8
	c-0.5-0.8-0.8-1.7-0.7-2.7c-0.1-1.1,0.2-2.1,0.8-3c0.4-0.5,1.1-0.8,1.8-0.8C370.3,124.6,371.1,125.4,371.2,126.4L371.2,126.4z
	 M367.6,129.5c0,0.3,0.1,0.6,0.2,0.9c0.1,0.3,0.3,0.5,0.5,0.6s0.5,0.2,0.7,0.2c0.4,0,0.7-0.2,1-0.5s0.4-0.8,0.4-1.2
	s-0.1-0.8-0.4-1.2c-0.3-0.3-0.6-0.4-1-0.4s-0.7,0.1-1,0.4C367.8,128.7,367.6,129.1,367.6,129.5L367.6,129.5z"/>
<path class="st8" d="M372.7,131.8v-1h1v1H372.7z"/>
<path class="st8" d="M378.1,131.8v-7.2h1l3.8,5.6v-5.6h0.9v7.2h-1l-3.8-5.6v5.6L378.1,131.8L378.1,131.8z"/>
<path class="st8" d="M388.8,130.1l0.9,0.1c-0.1,0.5-0.4,0.9-0.8,1.2s-1,0.5-1.5,0.4c-0.7,0-1.3-0.2-1.8-0.7c-0.5-0.6-0.7-1.3-0.7-2
	s0.2-1.4,0.7-2c0.5-0.5,1.1-0.7,1.8-0.7c0.6,0,1.3,0.2,1.7,0.7c0.5,0.6,0.7,1.3,0.7,2c0,0,0,0.1,0,0.2h-3.9c0,0.5,0.2,0.9,0.5,1.3
	c0.3,0.3,0.7,0.5,1.1,0.5c0.3,0,0.6-0.1,0.8-0.3C388.5,130.7,388.7,130.5,388.8,130.1z M385.9,128.7h2.9c0-0.4-0.1-0.7-0.3-1
	c-0.3-0.3-0.7-0.5-1.1-0.5s-0.7,0.1-1,0.4S385.9,128.3,385.9,128.7L385.9,128.7z"/>
<path class="st8" d="M394.1,131.8V131c-0.4,0.6-1,0.9-1.6,0.9c-0.3,0-0.6-0.1-0.9-0.2c-0.2-0.1-0.4-0.2-0.6-0.4
	c-0.1-0.2-0.2-0.4-0.3-0.6c0-0.3-0.1-0.5,0-0.8v-3.2h0.9v2.9c0,0.3,0,0.6,0,0.9c0.1,0.2,0.2,0.4,0.4,0.5c0.2,0.1,0.4,0.2,0.7,0.2
	c0.3,0,0.5-0.1,0.7-0.2c0.2-0.1,0.4-0.3,0.5-0.5c0.1-0.3,0.2-0.7,0.1-1v-2.8h0.9v5.2L394.1,131.8z"/>
<path class="st8" d="M396.3,131.8v-5.2h0.8v0.8c0.1-0.3,0.3-0.5,0.6-0.7c0.2-0.1,0.4-0.2,0.6-0.2c0.3,0,0.6,0.1,0.9,0.3l-0.3,0.8
	c-0.2-0.1-0.4-0.2-0.6-0.2s-0.4,0.1-0.5,0.2c-0.2,0.1-0.3,0.3-0.3,0.5c-0.1,0.3-0.1,0.7-0.1,1v2.7L396.3,131.8z"/>
<path class="st8" d="M399.4,129.2c-0.1-0.8,0.2-1.6,0.8-2.1c0.5-0.4,1-0.6,1.6-0.6c0.7,0,1.3,0.2,1.7,0.7c0.5,0.5,0.7,1.2,0.7,1.9
	c0,0.5-0.1,1.1-0.3,1.6c-0.2,0.4-0.5,0.7-0.9,0.9s-0.8,0.3-1.2,0.3c-0.7,0-1.3-0.2-1.8-0.7C399.5,130.7,399.3,130,399.4,129.2z
	 M400.3,129.2c0,0.5,0.1,1.1,0.4,1.5c0.3,0.3,0.7,0.5,1.1,0.5s0.8-0.2,1.1-0.5c0.3-0.4,0.5-1,0.4-1.5c0-0.5-0.1-1-0.4-1.5
	c-0.3-0.3-0.7-0.5-1.1-0.5s-0.8,0.2-1.1,0.5C400.4,128.2,400.2,128.7,400.3,129.2L400.3,129.2z"/>
<path class="st8" d="M405.3,133.8v-9.1h1.9v0.7h-1v7.7h1.1v0.7H405.3z"/>
<path class="st8" d="M407.8,129.5l0.9-0.1c0,0.3,0.1,0.6,0.3,0.9c0.2,0.3,0.4,0.4,0.7,0.5c0.3,0.1,0.7,0.2,1.1,0.2
	c0.3,0,0.7,0,1-0.2c0.2-0.1,0.5-0.2,0.6-0.4s0.2-0.4,0.2-0.6c0-0.2-0.1-0.4-0.2-0.6c-0.2-0.2-0.4-0.3-0.6-0.4
	c-0.4-0.1-0.8-0.3-1.3-0.4c-0.5-0.1-0.9-0.2-1.4-0.4c-0.3-0.1-0.6-0.4-0.8-0.7c-0.2-0.3-0.3-0.6-0.3-0.9c0-0.4,0.1-0.7,0.3-1
	c0.2-0.3,0.5-0.6,0.9-0.7c0.4-0.2,0.9-0.3,1.3-0.2c0.5,0,1,0.1,1.4,0.3c0.4,0.1,0.7,0.4,0.9,0.8c0.2,0.3,0.3,0.7,0.4,1.1l-0.9,0.1
	c0-0.4-0.2-0.7-0.5-1c-0.4-0.3-0.8-0.4-1.2-0.3c-0.4,0-0.9,0.1-1.2,0.3c-0.2,0.2-0.4,0.5-0.4,0.8c0,0.2,0.1,0.5,0.3,0.6
	c0.4,0.3,0.9,0.4,1.4,0.5s1.1,0.3,1.6,0.5c0.4,0.2,0.7,0.4,0.9,0.7c0.2,0.3,0.3,0.6,0.3,1s-0.1,0.8-0.3,1.1
	c-0.2,0.3-0.6,0.6-0.9,0.8c-0.4,0.2-0.9,0.3-1.4,0.3c-0.6,0-1.1-0.1-1.6-0.3c-0.4-0.2-0.8-0.5-1-0.9
	C408,130.5,407.8,130,407.8,129.5z"/>
<path class="st8" d="M414.6,133.8l-0.1-0.8c0.2,0,0.3,0.1,0.5,0.1s0.3,0,0.5-0.1c0.1-0.1,0.2-0.2,0.3-0.3c0.1-0.2,0.2-0.4,0.3-0.6
	l0.1-0.2l-2-5.2h1l1.1,3c0.1,0.4,0.3,0.8,0.4,1.2c0.1-0.4,0.2-0.8,0.4-1.2l1.1-3h0.9l-2,5.3c-0.1,0.4-0.3,0.8-0.5,1.2
	c-0.1,0.3-0.3,0.5-0.5,0.6s-0.5,0.2-0.7,0.2C415,134,414.8,133.9,414.6,133.8z"/>
<path class="st8" d="M419.7,131.8v-5.2h0.8v0.7c0.3-0.5,0.9-0.9,1.6-0.9c0.3,0,0.7,0.1,0.9,0.2c0.2,0.2,0.4,0.4,0.5,0.7
	c0.3-0.6,0.9-0.9,1.6-0.9c0.4,0,0.9,0.1,1.2,0.4c0.3,0.4,0.5,0.8,0.4,1.3v3.6h-0.9v-3.3c0-0.3,0-0.5-0.1-0.8
	c-0.1-0.2-0.2-0.3-0.3-0.4c-0.2-0.1-0.3-0.1-0.5-0.1c-0.3,0-0.7,0.1-0.9,0.4c-0.3,0.3-0.4,0.7-0.4,1.2v3h-0.9v-3.4
	c0-0.3-0.1-0.6-0.2-0.9c-0.2-0.2-0.4-0.3-0.7-0.3c-0.2,0-0.5,0.1-0.7,0.2s-0.4,0.3-0.5,0.6c-0.1,0.3-0.2,0.7-0.1,1.1v2.7
	L419.7,131.8z"/>
<path class="st8" d="M428.8,131.8H428v-7.2h0.9v2.6c0.3-0.5,0.9-0.7,1.4-0.7c0.3,0,0.6,0.1,0.9,0.2s0.5,0.3,0.7,0.5
	c0.2,0.3,0.3,0.5,0.4,0.8c0.1,0.3,0.1,0.7,0.1,1c0,0.7-0.2,1.5-0.7,2.1c-0.4,0.5-1,0.7-1.6,0.7s-1.1-0.3-1.4-0.8L428.8,131.8z
	 M428.8,129.2c0,0.5,0.1,0.9,0.3,1.4c0.3,0.6,1.1,0.9,1.7,0.5c0.2-0.1,0.3-0.2,0.4-0.4c0.6-0.9,0.6-2.1,0-3c-0.2-0.3-0.6-0.5-1-0.5
	s-0.8,0.2-1,0.5C428.9,128.2,428.8,128.7,428.8,129.2L428.8,129.2z"/>
<path class="st8" d="M433.3,129.2c-0.1-0.8,0.2-1.6,0.8-2.1c0.5-0.4,1-0.6,1.6-0.6c0.7,0,1.3,0.2,1.8,0.7s0.7,1.2,0.7,1.9
	c0,0.5-0.1,1.1-0.3,1.6c-0.2,0.4-0.5,0.7-0.9,0.9s-0.8,0.3-1.2,0.3c-0.7,0-1.3-0.2-1.8-0.7S433.2,130,433.3,129.2z M434.2,129.2
	c0,0.5,0.1,1.1,0.4,1.5c0.5,0.6,1.4,0.7,2,0.1c0.1,0,0.1-0.1,0.1-0.1c0.3-0.4,0.5-1,0.4-1.5c0-0.5-0.1-1-0.4-1.5
	c-0.3-0.3-0.7-0.5-1.1-0.5s-0.8,0.2-1.1,0.5C434.3,128.2,434.1,128.7,434.2,129.2L434.2,129.2z"/>
<path class="st8" d="M439.1,131.8v-7.2h0.9v7.2H439.1z"/>
<path class="st8" d="M441.4,125.7v-1h0.9v1H441.4z M441.4,131.8v-5.2h0.9v5.2H441.4z"/>
<path class="st8" d="M447,129.9l0.9,0.1c-0.1,0.5-0.3,1-0.7,1.4c-0.4,0.3-0.9,0.5-1.4,0.5c-0.6,0-1.3-0.2-1.7-0.7
	c-0.5-0.6-0.7-1.3-0.6-2c0-0.5,0.1-1,0.3-1.5c0.2-0.4,0.5-0.7,0.8-0.9c0.4-0.2,0.8-0.3,1.2-0.3c0.5,0,1,0.1,1.4,0.4s0.6,0.7,0.7,1.2
	l-0.9,0.1c-0.1-0.3-0.2-0.6-0.4-0.8c-0.2-0.2-0.5-0.3-0.7-0.3c-0.4,0-0.8,0.2-1.1,0.5c-0.3,0.4-0.5,1-0.4,1.5c0,0.5,0.1,1.1,0.4,1.5
	c0.2,0.3,0.6,0.5,1,0.5c0.3,0,0.6-0.1,0.9-0.3C446.8,130.7,446.9,130.3,447,129.9z"/>
<path class="st8" d="M450.1,133.8h-1.9v-0.7h1v-7.7h-1v-0.7h1.9V133.8z"/>
<path class="st8" d="M366.6,192.3l0.9-0.1c0.1,0.4,0.2,0.8,0.5,1.1c0.2,0.2,0.6,0.3,0.9,0.3c0.8,0,1.5-0.6,1.5-1.4c0,0,0,0,0-0.1
	c0-0.7-0.5-1.4-1.3-1.4H369c-0.2,0-0.4,0-0.6,0.1l0.1-0.8h0.1c0.4,0,0.7-0.1,1-0.3s0.5-0.5,0.5-0.9c0-0.3-0.1-0.6-0.3-0.8
	c-0.5-0.4-1.2-0.4-1.7,0c-0.3,0.3-0.4,0.6-0.4,1l-0.9-0.1c0.1-0.5,0.3-1,0.7-1.4c0.4-0.3,0.9-0.5,1.4-0.5c0.4,0,0.7,0.1,1.1,0.2
	c0.3,0.2,0.6,0.4,0.8,0.7c0.2,0.3,0.3,0.6,0.3,0.9c0,0.3-0.1,0.6-0.2,0.9c-0.2,0.3-0.4,0.5-0.7,0.6c0.4,0.1,0.8,0.3,1,0.6
	s0.4,0.7,0.4,1.1c0,0.6-0.2,1.2-0.7,1.6c-0.5,0.4-1.1,0.7-1.7,0.7s-1.1-0.2-1.6-0.6C366.9,193.4,366.7,192.9,366.6,192.3z"/>
<path class="st8" d="M372.7,194.2v-1h1v1H372.7z"/>
<path class="st8" d="M378.1,194.2V187h1l3.8,5.6V187h0.9v7.2h-1l-3.8-5.6v5.6H378.1z"/>
<path class="st8" d="M388.8,192.6l0.9,0.1c-0.1,0.5-0.4,0.9-0.8,1.2c-1,0.7-2.4,0.6-3.3-0.3c-0.5-0.6-0.7-1.3-0.7-2s0.2-1.4,0.7-2
	c0.5-0.5,1.1-0.7,1.8-0.7c0.6,0,1.3,0.2,1.7,0.7c0.5,0.6,0.7,1.3,0.7,2c0,0,0,0.1,0,0.2h-3.9c0,0.5,0.2,0.9,0.5,1.3
	c0.3,0.3,0.7,0.5,1.1,0.5c0.3,0,0.6-0.1,0.8-0.2C388.5,193.1,388.7,192.9,388.8,192.6z M385.9,191.1h2.9c0-0.4-0.1-0.7-0.3-1
	c-0.3-0.3-0.7-0.5-1.1-0.5s-0.7,0.1-1,0.4C386.1,190.3,385.9,190.7,385.9,191.1z"/>
<path class="st8" d="M394.1,194.2v-0.8c-0.4,0.6-1,0.9-1.6,0.9c-0.3,0-0.6-0.1-0.9-0.2c-0.2-0.1-0.4-0.2-0.6-0.4
	c-0.1-0.2-0.2-0.4-0.3-0.6c0-0.3-0.1-0.5,0-0.8V189h0.9v2.9c0,0.3,0,0.6,0,0.9c0,0.2,0.2,0.4,0.4,0.5c0.2,0.1,0.4,0.2,0.7,0.2
	c0.3,0,0.5-0.1,0.7-0.2c0.2-0.1,0.4-0.3,0.5-0.6s0.2-0.7,0.1-1V189h0.9v5.2H394.1z"/>
<path class="st8" d="M396.3,194.2V189h0.8v0.8c0.1-0.3,0.3-0.5,0.6-0.7c0.2-0.1,0.4-0.2,0.6-0.2c0.3,0,0.6,0.1,0.9,0.3l-0.3,0.8
	c-0.2-0.1-0.4-0.2-0.6-0.2s-0.4,0.1-0.5,0.2c-0.2,0.1-0.3,0.3-0.3,0.5c-0.1,0.3-0.2,0.7-0.1,1v2.7L396.3,194.2z"/>
<path class="st8" d="M399.4,191.6c-0.1-0.8,0.2-1.6,0.8-2.1c0.5-0.4,1-0.6,1.6-0.6c0.7,0,1.3,0.2,1.7,0.7c0.5,0.5,0.7,1.2,0.7,1.9
	c0,0.5-0.1,1.1-0.3,1.6c-0.2,0.4-0.5,0.7-0.9,0.9s-0.8,0.3-1.2,0.3c-0.7,0-1.3-0.2-1.8-0.7C399.5,193.1,399.3,192.4,399.4,191.6z
	 M400.3,191.6c0,0.5,0.1,1.1,0.4,1.5c0.3,0.3,0.7,0.5,1.1,0.5s0.8-0.2,1.1-0.5c0.3-0.4,0.5-1,0.4-1.5c0-0.5-0.1-1-0.4-1.5
	c-0.3-0.3-0.7-0.5-1.1-0.5s-0.8,0.2-1.1,0.5C400.4,190.6,400.2,191.1,400.3,191.6L400.3,191.6z"/>
<path class="st8" d="M405.5,194.2v-1h1v1c0,0.3-0.1,0.6-0.2,0.9c-0.1,0.2-0.4,0.4-0.6,0.5l-0.2-0.4c0.2-0.1,0.3-0.2,0.4-0.4
	s0.2-0.4,0.1-0.7L405.5,194.2z M405.5,190v-1h1v1H405.5z"/>
<path class="st8" d="M410.6,191.9l0.9-0.1c0,0.3,0.1,0.6,0.3,0.9c0.2,0.3,0.4,0.4,0.7,0.6c0.3,0.1,0.7,0.2,1.1,0.2
	c0.3,0,0.6,0,1-0.2c0.2-0.1,0.5-0.2,0.6-0.4s0.2-0.4,0.2-0.6c0-0.2-0.1-0.4-0.2-0.6c-0.2-0.2-0.4-0.3-0.6-0.4
	c-0.2-0.1-0.6-0.2-1.3-0.4c-0.5-0.1-0.9-0.2-1.4-0.4c-0.3-0.2-0.6-0.4-0.8-0.7c-0.2-0.3-0.3-0.6-0.2-0.9c0-0.8,0.5-1.5,1.2-1.7
	c0.4-0.2,0.9-0.2,1.3-0.2c0.5,0,1,0.1,1.4,0.2c0.4,0.2,0.7,0.4,0.9,0.8c0.2,0.3,0.3,0.7,0.4,1.1l-0.9,0.1c0-0.4-0.2-0.7-0.5-1
	c-0.4-0.3-0.8-0.4-1.2-0.4c-0.4,0-0.9,0.1-1.3,0.4c-0.2,0.2-0.4,0.5-0.4,0.8c0,0.2,0.1,0.5,0.3,0.6c0.4,0.3,0.9,0.4,1.4,0.5
	s1.1,0.3,1.6,0.5c0.4,0.2,0.7,0.4,0.9,0.7c0.2,0.3,0.3,0.6,0.3,1s-0.1,0.8-0.3,1.1c-0.2,0.3-0.6,0.6-0.9,0.8
	c-0.4,0.2-0.9,0.3-1.4,0.3c-0.6,0-1.1-0.1-1.6-0.3c-0.4-0.2-0.8-0.5-1-0.9C410.7,192.8,410.6,192.4,410.6,191.9z"/>
<path class="st8" d="M417.4,196.2l-0.1-0.8c0.2,0,0.3,0.1,0.5,0.1s0.3,0,0.5-0.1c0.1-0.1,0.2-0.2,0.3-0.3c0.1-0.2,0.2-0.4,0.3-0.7
	c0,0,0-0.1,0.1-0.2l-2-5.2h1l1.1,3c0.1,0.4,0.3,0.8,0.4,1.2c0.1-0.4,0.2-0.8,0.4-1.2l1.1-3h0.9l-2,5.3c-0.1,0.4-0.3,0.8-0.5,1.2
	c-0.1,0.3-0.3,0.5-0.5,0.6s-0.5,0.2-0.7,0.2C417.8,196.3,417.6,196.3,417.4,196.2z"/>
<path class="st8" d="M422.5,194.2V189h0.8v0.7c0.3-0.5,0.9-0.9,1.6-0.8c0.3,0,0.7,0.1,0.9,0.2c0.2,0.2,0.4,0.4,0.5,0.7
	c0.3-0.6,0.9-0.9,1.6-0.9c0.4,0,0.9,0.1,1.2,0.4c0.3,0.4,0.5,0.8,0.4,1.3v3.6h-0.9V191c0-0.3,0-0.5-0.1-0.8
	c-0.1-0.2-0.2-0.3-0.3-0.4c-0.2-0.1-0.3-0.1-0.5-0.1c-0.3,0-0.7,0.1-0.9,0.4c-0.3,0.3-0.4,0.7-0.4,1.2v3h-0.9v-3.4
	c0-0.3-0.1-0.6-0.2-0.9c-0.2-0.2-0.4-0.3-0.7-0.3c-0.2,0-0.5,0.1-0.7,0.2c-0.2,0.1-0.4,0.3-0.5,0.6c-0.1,0.4-0.2,0.7-0.1,1.1v2.7
	L422.5,194.2z"/>
<path class="st8" d="M431.6,194.2h-0.8V187h0.9v2.5c0.3-0.4,0.9-0.7,1.4-0.7c0.3,0,0.6,0.1,0.9,0.2c0.3,0.1,0.5,0.3,0.7,0.5
	c0.2,0.3,0.3,0.5,0.4,0.8s0.2,0.7,0.1,1.1c0,0.7-0.2,1.5-0.7,2.1c-0.4,0.5-1,0.7-1.6,0.7s-1.1-0.3-1.4-0.8L431.6,194.2z
	 M431.6,191.6c0,0.5,0.1,0.9,0.2,1.3c0.2,0.4,0.7,0.7,1.1,0.7s0.8-0.2,1-0.5c0.3-0.4,0.5-1,0.4-1.5c0-0.5-0.1-1.1-0.4-1.5
	c-0.2-0.3-0.6-0.5-1-0.5s-0.8,0.2-1,0.5C431.7,190.6,431.6,191.1,431.6,191.6L431.6,191.6z"/>
<path class="st8" d="M436,191.6c-0.1-0.8,0.2-1.6,0.8-2.1c0.5-0.4,1-0.6,1.6-0.6c0.7,0,1.3,0.2,1.8,0.7s0.7,1.2,0.7,1.9
	c0,0.5-0.1,1.1-0.3,1.6c-0.2,0.4-0.5,0.7-0.9,0.9s-0.8,0.3-1.3,0.3c-0.7,0-1.3-0.2-1.8-0.7C436.2,193.1,436,192.4,436,191.6z
	 M436.9,191.6c0,0.5,0.1,1.1,0.4,1.5c0.3,0.3,0.7,0.5,1.1,0.5s0.8-0.2,1.1-0.5c0.3-0.4,0.5-1,0.4-1.5c0-0.5-0.1-1-0.4-1.5
	c-0.3-0.3-0.7-0.5-1.1-0.5s-0.8,0.2-1.1,0.5C437,190.6,436.9,191.1,436.9,191.6z"/>
<path class="st8" d="M441.9,194.2V187h0.9v7.2H441.9z"/>
<path class="st8" d="M444.1,188.1v-1h0.9v1H444.1z M444.1,194.2V189h0.9v5.2H444.1z"/>
<path class="st8" d="M449.8,192.3l0.9,0.1c-0.1,0.5-0.3,1-0.7,1.4c-0.4,0.3-0.9,0.5-1.4,0.5c-0.6,0-1.3-0.2-1.7-0.7
	c-0.5-0.6-0.7-1.3-0.6-2c0-0.5,0.1-1,0.3-1.5c0.2-0.4,0.5-0.8,0.8-1c0.4-0.2,0.8-0.3,1.2-0.3c0.5,0,1,0.1,1.4,0.4
	c0.4,0.3,0.6,0.7,0.7,1.2l-0.9,0.1c-0.1-0.3-0.2-0.6-0.4-0.8c-0.2-0.2-0.5-0.3-0.8-0.3c-0.4,0-0.8,0.2-1.1,0.5
	c-0.3,0.4-0.5,1-0.4,1.5c0,0.5,0.1,1.1,0.4,1.5c0.3,0.3,0.6,0.5,1,0.5c0.3,0,0.6-0.1,0.9-0.3C449.6,193,449.7,192.7,449.8,192.3z"/>
<path class="st8" d="M369.5,264.9v-1.7h-3.1v-0.8l3.3-4.6h0.7v4.6h1v0.8h-1v1.7H369.5z M369.5,262.4v-3.3l-2.2,3.2L369.5,262.4z"/>
<path class="st8" d="M372.7,264.9v-1h1v1H372.7z"/>
<path class="st8" d="M378.1,264.9v-7.2h1l3.8,5.6v-5.6h0.9v7.2h-1l-3.8-5.6v5.6H378.1z"/>
<path class="st8" d="M388.8,263.2l0.9,0.1c-0.1,0.5-0.4,0.9-0.8,1.2c-0.4,0.3-1,0.5-1.5,0.4c-0.7,0-1.3-0.2-1.8-0.7
	c-0.5-0.6-0.7-1.3-0.7-2s0.2-1.4,0.7-2c0.4-0.5,1.1-0.8,1.8-0.7c0.6,0,1.3,0.2,1.7,0.7c0.5,0.6,0.7,1.3,0.7,2c0,0.1,0,0.1,0,0.2
	h-3.9c0,0.5,0.2,0.9,0.5,1.3c0.3,0.3,0.7,0.5,1.1,0.5c0.3,0,0.6-0.1,0.8-0.2C388.5,263.8,388.7,263.6,388.8,263.2z M385.9,261.8h2.9
	c0-0.4-0.1-0.7-0.3-1c-0.5-0.6-1.5-0.7-2.1-0.1l0,0C386.1,261,385.9,261.4,385.9,261.8L385.9,261.8z"/>
<path class="st8" d="M394.1,264.9v-0.8c-0.4,0.6-1,0.9-1.6,0.9c-0.3,0-0.6-0.1-0.9-0.2c-0.2-0.1-0.4-0.2-0.6-0.4
	c-0.1-0.2-0.2-0.4-0.3-0.7c0-0.3-0.1-0.5,0-0.8v-3.2h0.9v2.9c0,0.3,0,0.6,0,0.9c0.1,0.2,0.2,0.4,0.4,0.5c0.2,0.1,0.4,0.2,0.7,0.2
	c0.3,0,0.5-0.1,0.7-0.2s0.4-0.3,0.5-0.5c0.1-0.3,0.2-0.7,0.1-1v-2.8h0.9v5.2H394.1z"/>
<path class="st8" d="M396.3,264.9v-5.2h0.8v0.8c0.1-0.3,0.3-0.5,0.6-0.7c0.2-0.1,0.4-0.2,0.6-0.2c0.3,0,0.6,0.1,0.9,0.3l-0.3,0.8
	c-0.2-0.1-0.4-0.2-0.6-0.2s-0.4,0.1-0.5,0.2c-0.2,0.1-0.3,0.3-0.3,0.5c-0.1,0.3-0.2,0.7-0.1,1v2.7L396.3,264.9z"/>
<path class="st8" d="M399.4,262.3c-0.1-0.8,0.2-1.6,0.8-2.1c0.5-0.4,1-0.6,1.6-0.6c0.7,0,1.3,0.2,1.7,0.7c0.5,0.5,0.7,1.2,0.7,1.9
	c0,0.5-0.1,1.1-0.3,1.6c-0.2,0.4-0.5,0.7-0.9,0.9c-0.4,0.2-0.8,0.3-1.2,0.3c-0.7,0-1.3-0.2-1.8-0.7
	C399.5,263.8,399.3,263.1,399.4,262.3z M400.3,262.3c0,0.5,0.1,1.1,0.4,1.5c0.3,0.3,0.7,0.5,1.1,0.5s0.8-0.2,1.1-0.5
	c0.3-0.4,0.5-1,0.4-1.5c0-0.5-0.1-1-0.4-1.5c-0.3-0.3-0.7-0.5-1.1-0.5s-0.8,0.2-1.1,0.5C400.4,261.3,400.2,261.8,400.3,262.3
	L400.3,262.3z"/>
<path class="st8" d="M405.5,260.7v-1h1v1H405.5z M405.5,264.9v-1h1v1H405.5z"/>
<path class="st8" d="M410.6,262.6l0.9-0.1c0,0.3,0.1,0.6,0.3,0.9c0.2,0.3,0.4,0.4,0.7,0.6c0.3,0.1,0.7,0.2,1.1,0.2
	c0.3,0,0.6,0,1-0.2c0.2-0.1,0.5-0.2,0.6-0.4c0.1-0.2,0.2-0.4,0.2-0.6s-0.1-0.4-0.2-0.6c-0.2-0.2-0.4-0.3-0.6-0.4s-0.6-0.2-1.3-0.3
	c-0.5-0.1-0.9-0.2-1.4-0.4c-0.3-0.2-0.6-0.4-0.8-0.7c-0.2-0.3-0.3-0.6-0.2-0.9c0-0.4,0.1-0.7,0.3-1c0.2-0.3,0.5-0.6,0.9-0.7
	c0.4-0.2,0.9-0.2,1.3-0.2c0.5,0,1,0.1,1.4,0.2c0.4,0.2,0.7,0.4,0.9,0.8c0.2,0.3,0.3,0.7,0.4,1.1l-0.9,0.1c0-0.4-0.2-0.7-0.5-1
	c-0.4-0.3-0.8-0.4-1.2-0.4c-0.4,0-0.9,0.1-1.2,0.3c-0.2,0.2-0.4,0.5-0.4,0.8c0,0.2,0.1,0.5,0.3,0.6c0.4,0.3,0.9,0.4,1.4,0.5
	s1.1,0.3,1.6,0.5c0.4,0.2,0.7,0.4,0.9,0.7c0.2,0.3,0.3,0.6,0.3,1s-0.1,0.8-0.3,1.1c-0.2,0.3-0.6,0.6-0.9,0.8
	c-0.4,0.2-0.9,0.3-1.4,0.3c-0.6,0-1.1-0.1-1.6-0.3c-0.4-0.2-0.8-0.5-1-0.9C410.7,263.5,410.6,263.1,410.6,262.6z"/>
<path class="st8" d="M417.4,266.9l-0.1-0.8c0.2,0,0.3,0.1,0.5,0.1s0.3,0,0.5-0.1c0.1-0.1,0.2-0.2,0.3-0.3c0.1-0.2,0.2-0.4,0.3-0.7
	c0,0,0-0.1,0.1-0.2l-2-5.2h1l1.1,3c0.1,0.4,0.3,0.8,0.4,1.2c0.1-0.4,0.2-0.8,0.4-1.2l1.1-3h0.9l-2,5.3c-0.1,0.4-0.3,0.8-0.5,1.2
	c-0.1,0.3-0.3,0.5-0.5,0.6s-0.5,0.2-0.7,0.2C417.8,267,417.6,267,417.4,266.9z"/>
<path class="st8" d="M422.5,264.9v-5.2h0.8v0.7c0.2-0.3,0.4-0.5,0.6-0.6c0.3-0.2,0.6-0.2,0.9-0.2s0.7,0.1,0.9,0.2
	c0.2,0.2,0.4,0.4,0.5,0.7c0.3-0.6,0.9-0.9,1.6-0.9c0.4,0,0.9,0.1,1.2,0.4c0.3,0.4,0.5,0.8,0.4,1.3v3.6h-0.9v-3.3
	c0-0.3,0-0.5-0.1-0.8c-0.1-0.2-0.2-0.3-0.3-0.4c-0.2-0.1-0.3-0.1-0.5-0.1c-0.3,0-0.7,0.1-0.9,0.4c-0.3,0.3-0.4,0.7-0.4,1.2v3h-0.9
	v-3.4c0-0.3-0.1-0.6-0.2-0.9c-0.2-0.2-0.4-0.3-0.7-0.3c-0.2,0-0.5,0.1-0.7,0.2s-0.4,0.3-0.5,0.6c-0.1,0.4-0.2,0.7-0.1,1.1v2.7
	L422.5,264.9z"/>
<path class="st8" d="M431.6,264.9h-0.8v-7.2h0.9v2.5c0.3-0.4,0.9-0.7,1.4-0.7c0.3,0,0.6,0.1,0.9,0.2s0.5,0.3,0.7,0.5
	c0.2,0.3,0.3,0.5,0.4,0.8s0.2,0.7,0.1,1.1c0,0.7-0.2,1.5-0.7,2.1c-0.4,0.5-1,0.7-1.6,0.7s-1.1-0.3-1.4-0.8L431.6,264.9z
	 M431.6,262.3c0,0.5,0.1,0.9,0.2,1.3c0.3,0.6,1.1,0.9,1.7,0.5c0.2-0.1,0.3-0.2,0.4-0.4c0.3-0.4,0.5-1,0.4-1.5c0-0.5-0.1-1.1-0.4-1.5
	c-0.2-0.3-0.6-0.5-1-0.5s-0.8,0.2-1,0.5C431.7,261.3,431.6,261.8,431.6,262.3L431.6,262.3z"/>
<path class="st8" d="M436,262.3c-0.1-0.8,0.2-1.6,0.8-2.1c0.5-0.4,1-0.6,1.6-0.6c0.7,0,1.3,0.2,1.7,0.7c0.5,0.5,0.7,1.2,0.7,1.9
	c0,0.5-0.1,1.1-0.3,1.6c-0.2,0.4-0.5,0.7-0.9,0.9c-0.4,0.2-0.8,0.3-1.2,0.3c-0.7,0-1.3-0.2-1.8-0.7C436.2,263.8,436,263.1,436,262.3
	z M436.9,262.3c0,0.5,0.1,1.1,0.4,1.5c0.3,0.3,0.7,0.5,1.1,0.5s0.8-0.2,1.1-0.5c0.3-0.4,0.5-1,0.4-1.5c0-0.5-0.1-1-0.4-1.5
	c-0.3-0.3-0.7-0.5-1.1-0.5s-0.8,0.2-1.1,0.5C437.1,261.3,436.9,261.8,436.9,262.3z"/>
<path class="st8" d="M441.9,264.9v-7.2h0.9v7.2H441.9z"/>
<path class="st8" d="M444.1,258.8v-1h0.9v1H444.1z M444.1,264.9v-5.2h0.9v5.2H444.1z"/>
<path class="st8" d="M449.8,263l0.9,0.1c-0.1,0.5-0.3,1-0.7,1.4c-0.4,0.3-0.9,0.5-1.4,0.5c-0.6,0-1.3-0.2-1.7-0.7
	c-0.5-0.6-0.7-1.3-0.6-2c0-0.5,0.1-1,0.3-1.5c0.2-0.4,0.5-0.7,0.8-0.9c0.4-0.2,0.8-0.3,1.2-0.3c0.5,0,1,0.1,1.4,0.4s0.6,0.7,0.7,1.2
	l-0.9,0.1c-0.1-0.3-0.2-0.6-0.4-0.8c-0.2-0.2-0.5-0.3-0.7-0.3c-0.4,0-0.8,0.2-1.1,0.5c-0.3,0.4-0.5,1-0.4,1.5c0,0.5,0.1,1.1,0.4,1.5
	c0.3,0.3,0.6,0.5,1,0.5c0.3,0,0.6-0.1,0.9-0.3C449.6,263.7,449.7,263.4,449.8,263z"/>
<path class="st8" d="M461.1,260.6c0.3,0.4,0.7,0.7,1.1,1.1c0.3,0.2,0.6,0.4,0.9,0.5v0.2c-0.3,0.2-0.6,0.4-0.9,0.6
	c-0.4,0.3-0.8,0.7-1.1,1.1h-0.4c0.2-0.6,0.6-1.1,1-1.5h-7.8v-0.5h7.8c-0.2-0.3-0.4-0.5-0.5-0.7s-0.2-0.4-0.4-0.8L461.1,260.6z"/>
<path class="st8" d="M467,264.9v-7.2h1l3.8,5.6v-5.6h0.9v7.2h-1l-3.8-5.6v5.6H467z"/>
<path class="st8" d="M477.7,263.2l0.9,0.1c-0.1,0.5-0.4,0.9-0.8,1.2c-0.4,0.3-1,0.5-1.5,0.4c-0.7,0-1.3-0.2-1.8-0.7s-0.7-1.3-0.7-2
	s0.2-1.4,0.7-2c0.9-0.9,2.5-1,3.4,0l0,0c0.5,0.6,0.7,1.3,0.7,2v0.2h-3.9c0,0.5,0.2,0.9,0.5,1.3c0.3,0.3,0.7,0.5,1.1,0.5
	c0.3,0,0.6-0.1,0.8-0.2C477.4,263.9,477.6,263.6,477.7,263.2z M474.8,261.8h2.9c0-0.4-0.1-0.7-0.3-1c-0.3-0.3-0.7-0.5-1.1-0.5
	s-0.7,0.1-1,0.4C475,261,474.8,261.4,474.8,261.8L474.8,261.8z"/>
<path class="st8" d="M483.1,264.9v-0.8c-0.4,0.6-1,0.9-1.7,0.9c-0.3,0-0.6-0.1-0.9-0.2c-0.2-0.1-0.4-0.2-0.6-0.4
	c-0.1-0.2-0.2-0.4-0.3-0.7c0-0.3-0.1-0.5,0-0.8v-3.2h0.9v2.9c0,0.3,0,0.6,0,0.9c0,0.2,0.2,0.4,0.3,0.5c0.2,0.1,0.4,0.2,0.7,0.2
	c0.3,0,0.5-0.1,0.7-0.2s0.4-0.3,0.5-0.5c0.1-0.3,0.2-0.7,0.1-1v-2.8h0.9v5.2H483.1z"/>
<path class="st8" d="M485.3,264.9v-5.2h0.8v0.8c0.1-0.3,0.3-0.5,0.6-0.7c0.2-0.1,0.4-0.2,0.6-0.2c0.3,0,0.6,0.1,0.9,0.3l-0.3,0.8
	c-0.2-0.1-0.4-0.2-0.6-0.2s-0.4,0.1-0.5,0.2c-0.2,0.1-0.3,0.3-0.3,0.5c-0.1,0.3-0.1,0.7-0.1,1v2.7L485.3,264.9z"/>
<path class="st8" d="M488.3,262.3c-0.1-0.8,0.2-1.6,0.8-2.1c0.5-0.4,1-0.6,1.6-0.6c0.7,0,1.3,0.2,1.8,0.7s0.7,1.2,0.7,1.9
	c0,0.5-0.1,1.1-0.3,1.6c-0.2,0.4-0.5,0.7-0.9,0.9c-0.4,0.2-0.8,0.3-1.2,0.3c-0.7,0-1.3-0.2-1.8-0.7
	C488.5,263.8,488.2,263.1,488.3,262.3z M489.2,262.3c0,0.5,0.1,1.1,0.4,1.5c0.5,0.6,1.4,0.7,2,0.1l0.1-0.1c0.3-0.4,0.5-1,0.4-1.5
	c0-0.5-0.1-1-0.4-1.5c-0.5-0.6-1.4-0.7-2-0.1l-0.1,0.1C489.3,261.3,489.1,261.8,489.2,262.3L489.2,262.3z"/>
<path class="st8" d="M366.6,275l0.9-0.1c0,0.4,0.2,0.7,0.5,1c0.2,0.2,0.6,0.3,0.9,0.3c0.4,0,0.8-0.2,1.1-0.5
	c0.3-0.4,0.5-0.8,0.4-1.3c0-0.4-0.1-0.9-0.4-1.2c-0.3-0.3-0.7-0.4-1.1-0.4c-0.3,0-0.5,0.1-0.8,0.2c-0.2,0.1-0.4,0.3-0.5,0.5
	l-0.8-0.1l0.7-3.7h3.6v0.8h-2.9l-0.4,1.9c0.4-0.3,0.9-0.5,1.3-0.5c0.6,0,1.2,0.2,1.6,0.6s0.7,1,0.6,1.7c0,0.6-0.2,1.2-0.6,1.7
	c-0.9,1-2.4,1.2-3.5,0.3C366.9,276.1,366.7,275.6,366.6,275z"/>
<path class="st8" d="M372.7,276.9v-1h1v1H372.7z"/>
<path class="st8" d="M378.1,276.9v-7.2h1l3.8,5.6v-5.6h0.9v7.2h-1l-3.8-5.6v5.6H378.1z"/>
<path class="st8" d="M388.8,275.2l0.9,0.1c-0.1,0.5-0.4,0.9-0.8,1.2c-0.4,0.3-1,0.5-1.5,0.4c-0.7,0-1.3-0.2-1.8-0.7
	c-0.5-0.6-0.7-1.3-0.7-2s0.2-1.4,0.7-2c0.4-0.5,1.1-0.8,1.8-0.7c0.6,0,1.3,0.2,1.7,0.7c0.5,0.6,0.7,1.3,0.7,2c0,0.1,0,0.1,0,0.2
	h-3.9c0,0.5,0.2,0.9,0.5,1.3c0.3,0.3,0.7,0.5,1.1,0.5c0.3,0,0.6-0.1,0.8-0.2C388.5,275.8,388.7,275.6,388.8,275.2z M385.9,273.8h2.9
	c0-0.4-0.1-0.7-0.3-1c-0.5-0.6-1.5-0.7-2.1-0.1l0,0C386.1,273,385.9,273.4,385.9,273.8L385.9,273.8z"/>
<path class="st8" d="M394.1,276.9v-0.8c-0.4,0.6-1,0.9-1.6,0.9c-0.3,0-0.6-0.1-0.9-0.2c-0.2-0.1-0.4-0.2-0.6-0.4
	c-0.1-0.2-0.2-0.4-0.3-0.7c0-0.3-0.1-0.5,0-0.8v-3.2h0.9v2.9c0,0.3,0,0.6,0,0.9c0.1,0.2,0.2,0.4,0.4,0.5c0.2,0.1,0.4,0.2,0.7,0.2
	c0.3,0,0.5-0.1,0.7-0.2s0.4-0.3,0.5-0.5c0.1-0.3,0.2-0.7,0.1-1v-2.8h0.9v5.2H394.1z"/>
<path class="st8" d="M396.3,276.9v-5.2h0.8v0.8c0.1-0.3,0.3-0.5,0.6-0.7c0.2-0.1,0.4-0.2,0.6-0.2c0.3,0,0.6,0.1,0.9,0.3l-0.3,0.8
	c-0.2-0.1-0.4-0.2-0.6-0.2s-0.4,0.1-0.5,0.2c-0.2,0.1-0.3,0.3-0.3,0.5c-0.1,0.3-0.2,0.7-0.1,1v2.7L396.3,276.9z"/>
<path class="st8" d="M399.4,274.3c-0.1-0.8,0.2-1.6,0.8-2.1c0.5-0.4,1-0.6,1.6-0.6c0.7,0,1.3,0.2,1.7,0.7c0.5,0.5,0.7,1.2,0.7,1.9
	c0,0.5-0.1,1.1-0.3,1.6c-0.2,0.4-0.5,0.7-0.9,0.9c-0.4,0.2-0.8,0.3-1.2,0.3c-0.7,0-1.3-0.2-1.8-0.7
	C399.5,275.8,399.3,275.1,399.4,274.3z M400.3,274.3c0,0.5,0.1,1.1,0.4,1.5c0.3,0.3,0.7,0.5,1.1,0.5s0.8-0.2,1.1-0.5
	c0.3-0.4,0.5-1,0.4-1.5c0-0.5-0.1-1-0.4-1.5c-0.3-0.3-0.7-0.5-1.1-0.5s-0.8,0.2-1.1,0.5C400.4,273.3,400.2,273.8,400.3,274.3
	L400.3,274.3z"/>
<path class="st8" d="M404.4,278.9v-0.6h5.8v0.6H404.4z"/>
<path class="st8" d="M410.6,274.6l0.9-0.1c0,0.3,0.1,0.6,0.3,0.9c0.2,0.3,0.4,0.4,0.7,0.6c0.3,0.1,0.7,0.2,1.1,0.2
	c0.3,0,0.7,0,1-0.2c0.2-0.1,0.5-0.2,0.6-0.4c0.1-0.2,0.2-0.4,0.2-0.6s-0.1-0.4-0.2-0.6c-0.2-0.2-0.4-0.3-0.6-0.4s-0.6-0.2-1.3-0.3
	c-0.5-0.1-0.9-0.2-1.4-0.4c-0.3-0.2-0.6-0.4-0.8-0.7c-0.2-0.3-0.3-0.6-0.2-0.9c0-0.4,0.1-0.7,0.3-1c0.2-0.3,0.5-0.6,0.9-0.7
	c0.4-0.2,0.9-0.2,1.3-0.2c0.5,0,1,0.1,1.4,0.2c0.4,0.2,0.7,0.4,0.9,0.8c0.2,0.3,0.3,0.7,0.4,1.1l-0.9,0.1c0-0.4-0.2-0.7-0.5-1
	c-0.4-0.3-0.8-0.4-1.2-0.4c-0.4,0-0.9,0.1-1.3,0.3c-0.2,0.2-0.4,0.5-0.4,0.8c0,0.2,0.1,0.5,0.3,0.6c0.4,0.3,0.9,0.4,1.4,0.5
	s1.1,0.3,1.6,0.5c0.4,0.1,0.7,0.4,0.9,0.7c0.2,0.3,0.3,0.6,0.3,1s-0.1,0.8-0.3,1.1c-0.2,0.3-0.6,0.6-0.9,0.8
	c-0.4,0.2-0.9,0.3-1.4,0.3c-0.6,0-1.1-0.1-1.6-0.3c-0.4-0.2-0.8-0.5-1-0.9C410.8,275.5,410.6,275.1,410.6,274.6z"/>
<path class="st8" d="M417.4,278.9l-0.1-0.8c0.2,0,0.3,0.1,0.5,0.1s0.3,0,0.5-0.1c0.1-0.1,0.2-0.2,0.3-0.3c0.1-0.2,0.2-0.4,0.3-0.7
	c0,0,0-0.1,0.1-0.2l-2-5.2h0.9l1.1,3c0.1,0.4,0.3,0.8,0.4,1.2c0.1-0.4,0.2-0.8,0.4-1.2l1.1-3h0.9l-2,5.3c-0.1,0.4-0.3,0.8-0.5,1.2
	c-0.1,0.3-0.3,0.5-0.5,0.6s-0.5,0.2-0.7,0.2C417.8,279,417.6,279,417.4,278.9z"/>
<path class="st8" d="M422.5,276.9v-5.2h0.8v0.7c0.2-0.3,0.4-0.5,0.6-0.6c0.3-0.2,0.6-0.2,0.9-0.2s0.7,0.1,1,0.2
	c0.2,0.2,0.4,0.4,0.5,0.7c0.3-0.6,0.9-0.9,1.6-0.9c0.4,0,0.9,0.1,1.2,0.4c0.3,0.4,0.4,0.8,0.4,1.3v3.6h-0.9v-3.3
	c0-0.3,0-0.5-0.1-0.8c-0.1-0.2-0.2-0.3-0.3-0.4c-0.2-0.1-0.3-0.1-0.5-0.1c-0.3,0-0.7,0.1-0.9,0.4c-0.3,0.3-0.4,0.7-0.4,1.2v3h-0.9
	v-3.4c0-0.3-0.1-0.6-0.2-0.9c-0.2-0.2-0.4-0.3-0.7-0.3c-0.2,0-0.5,0.1-0.7,0.2s-0.4,0.3-0.5,0.6c-0.1,0.4-0.2,0.7-0.1,1.1v2.7
	L422.5,276.9z"/>
<path class="st8" d="M431.6,276.9h-0.8v-7.2h0.9v2.5c0.3-0.4,0.9-0.7,1.4-0.7c0.3,0,0.6,0.1,0.9,0.2s0.5,0.3,0.7,0.5
	c0.2,0.3,0.3,0.5,0.4,0.8s0.2,0.7,0.2,1.1c0,0.7-0.2,1.5-0.7,2.1c-0.4,0.5-1,0.7-1.6,0.7s-1.1-0.3-1.5-0.8L431.6,276.9z
	 M431.6,274.3c0,0.5,0,0.9,0.2,1.4c0.2,0.4,0.6,0.7,1.1,0.7c0.4,0,0.8-0.2,1-0.5c0.3-0.4,0.5-1,0.4-1.5c0-0.5-0.1-1.1-0.4-1.5
	c-0.4-0.6-1.2-0.7-1.7-0.3c-0.1,0.1-0.2,0.2-0.3,0.3C431.7,273.2,431.6,273.8,431.6,274.3L431.6,274.3z"/>
<path class="st8" d="M436,274.3c-0.1-0.8,0.2-1.6,0.8-2.1c0.5-0.4,1-0.6,1.6-0.6c0.7,0,1.3,0.2,1.8,0.7s0.7,1.2,0.7,1.9
	c0,0.5-0.1,1.1-0.3,1.6c-0.2,0.4-0.5,0.7-0.9,0.9c-0.4,0.2-0.8,0.3-1.2,0.3c-0.7,0-1.3-0.2-1.8-0.7C436.2,275.8,436,275.1,436,274.3
	z M436.9,274.3c0,0.5,0.1,1.1,0.4,1.5c0.5,0.6,1.4,0.7,2,0.1l0.1-0.1c0.3-0.4,0.5-1,0.4-1.5c0-0.5-0.1-1-0.4-1.5
	c-0.5-0.6-1.4-0.7-2-0.1l-0.1,0.1C437.1,273.3,436.9,273.8,436.9,274.3z"/>
<path class="st8" d="M441.9,276.9v-7.2h0.9v7.2H441.9z"/>
<path class="st8" d="M444.1,270.8v-1h0.9v1H444.1z M444.1,276.9v-5.2h0.9v5.2H444.1z"/>
<path class="st8" d="M449.8,275l0.9,0.1c-0.1,0.5-0.3,1-0.7,1.4c-0.4,0.3-0.9,0.5-1.4,0.5c-0.6,0-1.3-0.2-1.7-0.7
	c-0.5-0.6-0.7-1.3-0.6-2c0-0.5,0.1-1,0.3-1.5c0.2-0.4,0.5-0.7,0.9-0.9c0.4-0.2,0.8-0.3,1.2-0.3c0.5,0,1,0.1,1.4,0.4s0.6,0.7,0.7,1.2
	l-0.9,0.1c-0.1-0.3-0.2-0.6-0.4-0.8c-0.2-0.2-0.5-0.3-0.8-0.3c-0.4,0-0.8,0.2-1.1,0.5c-0.3,0.4-0.5,1-0.4,1.5c0,0.5,0.1,1.1,0.4,1.5
	c0.2,0.3,0.6,0.5,1,0.5c0.3,0,0.6-0.1,0.9-0.3C449.5,275.7,449.7,275.4,449.8,275z"/>
<path class="st8" d="M346.6,168.3l0.9,0.2c-0.1,0.7-0.5,1.3-1.1,1.8c-0.5,0.4-1.2,0.6-1.9,0.6c-0.7,0-1.3-0.1-1.9-0.5
	c-0.5-0.3-0.9-0.8-1.1-1.3c-0.3-0.6-0.4-1.3-0.4-1.9c0-0.7,0.1-1.3,0.4-2c0.3-0.5,0.7-1,1.2-1.3s1.1-0.4,1.7-0.4s1.3,0.2,1.8,0.5
	c0.5,0.4,0.8,0.9,1,1.5l-0.9,0.2c-0.1-0.4-0.4-0.8-0.7-1.1c-0.3-0.2-0.8-0.4-1.2-0.4c-0.5,0-1,0.1-1.4,0.4c-0.4,0.3-0.6,0.6-0.8,1.1
	c-0.1,0.4-0.2,0.9-0.2,1.3c0,0.5,0.1,1.1,0.3,1.6c0.2,0.4,0.4,0.8,0.8,1s0.8,0.3,1.2,0.3c0.5,0,1-0.1,1.4-0.5
	C346.2,169.3,346.5,168.8,346.6,168.3z"/>
<path class="st8" d="M348.2,168.2c-0.1-0.8,0.2-1.6,0.8-2.1c0.5-0.4,1-0.6,1.6-0.6c0.7,0,1.3,0.2,1.8,0.7s0.7,1.2,0.7,1.9
	c0,0.5-0.1,1.1-0.3,1.6c-0.2,0.4-0.5,0.7-0.9,0.9s-0.8,0.3-1.2,0.3c-0.7,0-1.3-0.2-1.8-0.7C348.4,169.7,348.2,169,348.2,168.2z
	 M349.1,168.2c0,0.5,0.1,1.1,0.4,1.5c0.5,0.6,1.4,0.7,2,0.1c0.1,0,0.1-0.1,0.1-0.1c0.3-0.4,0.5-1,0.4-1.5c0-0.5-0.1-1-0.4-1.5
	c-0.5-0.6-1.5-0.7-2.1-0.1l-0.1,0.1C349.3,167.2,349.1,167.7,349.1,168.2L349.1,168.2z"/>
<path class="st8" d="M353.8,168.2c-0.1-0.8,0.2-1.6,0.8-2.1c0.5-0.4,1-0.6,1.6-0.6c0.7,0,1.3,0.2,1.8,0.7s0.7,1.2,0.7,1.9
	c0,0.5-0.1,1.1-0.3,1.6c-0.2,0.4-0.5,0.7-0.9,0.9s-0.8,0.3-1.3,0.3c-0.7,0-1.3-0.2-1.8-0.7C354,169.7,353.7,169,353.8,168.2z
	 M354.7,168.2c0,0.5,0.1,1.1,0.4,1.5c0.5,0.6,1.4,0.7,2,0.1c0.1,0,0.1-0.1,0.1-0.1c0.3-0.4,0.5-1,0.4-1.5c0-0.5-0.1-1-0.4-1.5
	c-0.5-0.6-1.5-0.7-2.1-0.1l-0.1,0.1C354.8,167.2,354.6,167.7,354.7,168.2z"/>
<path class="st8" d="M359.7,172.8v-7.2h0.8v0.7c0.2-0.2,0.4-0.4,0.6-0.6c0.3-0.1,0.6-0.2,0.9-0.2c0.4,0,0.8,0.1,1.2,0.3
	c0.4,0.2,0.6,0.6,0.8,1c0.4,0.9,0.4,1.9,0,2.8c-0.2,0.4-0.5,0.8-0.8,1s-0.7,0.3-1.1,0.3c-0.3,0-0.5-0.1-0.8-0.2
	c-0.2-0.1-0.4-0.3-0.6-0.5v2.5L359.7,172.8z M360.5,168.3c0,0.5,0.1,1,0.4,1.5c0.2,0.3,0.6,0.5,1,0.5s0.8-0.2,1-0.5
	c0.3-0.4,0.5-1,0.4-1.5c0-0.5-0.1-1-0.4-1.5c-0.2-0.3-0.6-0.5-1-0.5s-0.8,0.2-1,0.5C360.6,167.2,360.4,167.7,360.5,168.3
	L360.5,168.3z"/>
<path class="st8" d="M368.8,169.1l0.9,0.1c-0.1,0.5-0.4,0.9-0.8,1.2c-1,0.7-2.4,0.6-3.3-0.3c-0.5-0.5-0.7-1.3-0.7-2s0.2-1.4,0.7-2
	c0.5-0.5,1.1-0.7,1.8-0.7c0.6,0,1.3,0.2,1.7,0.7c0.5,0.6,0.7,1.3,0.7,2c0,0.1,0,0.2,0,0.2h-3.9c0,0.5,0.2,0.9,0.5,1.3
	c0.3,0.3,0.7,0.5,1.1,0.5c0.3,0,0.6-0.1,0.8-0.3C368.5,169.7,368.7,169.5,368.8,169.1z M365.9,167.7h2.9c0-0.4-0.1-0.7-0.3-1
	c-0.3-0.3-0.7-0.5-1.1-0.5s-0.7,0.1-1,0.4C366.1,166.9,365.9,167.3,365.9,167.7L365.9,167.7z"/>
<path class="st8" d="M370.8,170.8v-5.2h0.8v0.8c0.1-0.3,0.3-0.5,0.6-0.7c0.2-0.1,0.4-0.2,0.6-0.2c0.3,0,0.6,0.1,0.9,0.3l-0.3,0.8
	c-0.2-0.1-0.4-0.2-0.6-0.2s-0.4,0.1-0.5,0.2c-0.2,0.1-0.3,0.3-0.3,0.5c-0.1,0.3-0.2,0.7-0.1,1v2.7L370.8,170.8z"/>
<path class="st8" d="M376,170l0.1,0.8c-0.2,0-0.4,0.1-0.7,0.1c-0.3,0-0.5,0-0.8-0.1c-0.2-0.1-0.3-0.2-0.4-0.4
	c-0.1-0.3-0.1-0.7-0.1-1v-3h-0.6v-0.7h0.6v-1.3l0.9-0.5v1.8h0.9v0.7H375v3c0,0.2,0,0.3,0,0.5c0,0.1,0.1,0.1,0.1,0.2
	c0.1,0,0.2,0.1,0.3,0.1L376,170z"/>
<path class="st8" d="M380.3,170.1c-0.3,0.2-0.6,0.4-0.9,0.6c-0.3,0.1-0.7,0.2-1,0.2c-0.5,0-0.9-0.1-1.3-0.4
	c-0.3-0.3-0.5-0.7-0.5-1.1c0-0.2,0.1-0.5,0.2-0.7s0.3-0.4,0.5-0.5s0.4-0.2,0.6-0.3c0.2,0,0.4-0.1,0.8-0.1c0.5,0,1.1-0.1,1.6-0.3
	c0-0.1,0-0.2,0-0.2c0-0.3-0.1-0.6-0.2-0.8c-0.3-0.2-0.6-0.3-1-0.3c-0.3,0-0.6,0-0.9,0.2c-0.2,0.2-0.4,0.5-0.4,0.8l-0.9-0.1
	c0.1-0.3,0.2-0.6,0.4-0.9c0.2-0.2,0.5-0.4,0.8-0.5c0.4-0.1,0.8-0.2,1.2-0.2c0.4,0,0.7,0,1.1,0.1c0.2,0.1,0.4,0.2,0.6,0.4
	c0.1,0.2,0.2,0.4,0.3,0.6c0,0.3,0,0.5,0,0.8v1.2c0,0.5,0,1,0.1,1.5c0,0.2,0.1,0.4,0.2,0.6h-0.9C380.3,170.6,380.3,170.4,380.3,170.1
	z M380.2,168.1c-0.5,0.2-0.9,0.3-1.4,0.3c-0.3,0-0.5,0.1-0.8,0.2c-0.1,0.1-0.3,0.2-0.4,0.3s-0.1,0.3-0.1,0.4c0,0.2,0.1,0.4,0.3,0.6
	c0.2,0.2,0.5,0.3,0.8,0.2c0.3,0,0.6-0.1,0.9-0.2c0.3-0.1,0.5-0.4,0.6-0.6c0.1-0.3,0.2-0.6,0.1-0.9V168.1z"/>
<path class="st8" d="M382.5,164.7v-1h0.9v1H382.5z M382.5,170.8v-5.2h0.9v5.2H382.5z"/>
<path class="st8" d="M386.6,170l0.1,0.8c-0.2,0-0.4,0.1-0.7,0.1c-0.3,0-0.5,0-0.8-0.1c-0.2-0.1-0.3-0.2-0.4-0.4
	c-0.1-0.3-0.1-0.7-0.1-1v-3h-0.6v-0.7h0.6v-1.3l0.9-0.5v1.8h0.9v0.7h-0.9v3c0,0.2,0,0.3,0,0.5c0,0.1,0.1,0.1,0.1,0.2
	c0.1,0,0.2,0.1,0.3,0.1L386.6,170z"/>
<path class="st8" d="M388.9,170.8l-2-5.2h0.9l1.1,3.1c0.1,0.3,0.2,0.7,0.3,1c0.1-0.3,0.2-0.6,0.3-1l1.1-3.2h0.9l-2,5.2L388.9,170.8z
	"/>
<path class="st8" d="M396,169.1l0.9,0.1c-0.1,0.5-0.4,0.9-0.8,1.2s-1,0.5-1.5,0.4c-0.7,0-1.3-0.2-1.8-0.7s-0.7-1.3-0.7-2
	s0.2-1.4,0.7-2c0.5-0.5,1.1-0.7,1.8-0.7c0.6,0,1.3,0.2,1.7,0.7c0.5,0.6,0.7,1.3,0.7,2v0.2h-3.9c0,0.5,0.2,0.9,0.5,1.3
	c0.3,0.3,0.7,0.5,1.1,0.5c0.3,0,0.6-0.1,0.8-0.3C395.7,169.7,395.9,169.5,396,169.1z M393.1,167.7h2.9c0-0.4-0.1-0.7-0.3-1
	c-0.3-0.3-0.7-0.5-1.1-0.5s-0.7,0.1-1,0.4C393.3,166.9,393.2,167.3,393.1,167.7z"/>
<path class="st8" d="M346.6,243.7l0.9,0.2c-0.1,0.7-0.5,1.3-1.1,1.8c-0.5,0.4-1.2,0.6-1.9,0.6c-0.7,0-1.3-0.1-1.9-0.5
	c-0.5-0.3-0.9-0.8-1.1-1.4c-0.3-0.6-0.4-1.3-0.4-1.9c0-0.7,0.1-1.3,0.4-2c0.3-0.5,0.7-1,1.2-1.3s1.1-0.4,1.7-0.4s1.3,0.2,1.8,0.5
	c0.5,0.4,0.8,0.9,1,1.5l-0.9,0.2c-0.1-0.4-0.4-0.8-0.7-1.1c-0.4-0.2-0.8-0.4-1.2-0.4c-0.5,0-1,0.1-1.4,0.4c-0.4,0.3-0.6,0.6-0.8,1.1
	c-0.2,0.4-0.2,0.9-0.2,1.4s0.1,1.1,0.3,1.6c0.2,0.4,0.4,0.8,0.8,1s0.8,0.3,1.2,0.3c0.5,0,1-0.1,1.4-0.5
	C346.2,244.6,346.5,244.2,346.6,243.7z"/>
<path class="st8" d="M348.2,243.6c-0.1-0.8,0.2-1.6,0.8-2.1c0.5-0.4,1-0.6,1.6-0.6c0.7,0,1.3,0.2,1.8,0.7s0.7,1.2,0.7,1.9
	c0,0.5-0.1,1.1-0.3,1.6c-0.2,0.4-0.5,0.7-0.9,0.9s-0.8,0.3-1.3,0.3c-0.7,0-1.3-0.2-1.8-0.7C348.4,245,348.2,244.3,348.2,243.6z
	 M349.1,243.6c0,0.5,0.1,1.1,0.4,1.5c0.3,0.3,0.7,0.5,1.1,0.5s0.8-0.2,1.1-0.5c0.3-0.4,0.5-1,0.4-1.5c0-0.5-0.1-1-0.4-1.5
	c-0.5-0.6-1.4-0.7-2-0.1c-0.1,0-0.1,0.1-0.1,0.1C349.3,242.5,349.1,243,349.1,243.6L349.1,243.6z"/>
<path class="st8" d="M354.1,246.1v-5.2h0.8v0.7c0.2-0.3,0.4-0.5,0.6-0.6c0.3-0.2,0.6-0.2,0.9-0.2s0.7,0.1,0.9,0.2
	c0.2,0.2,0.4,0.4,0.5,0.7c0.3-0.6,0.9-0.9,1.6-0.9c0.4,0,0.9,0.1,1.2,0.4c0.3,0.4,0.5,0.8,0.4,1.3v3.6h-0.9v-3.3
	c0-0.2-0.1-0.5-0.2-0.7s-0.2-0.3-0.3-0.4c-0.2-0.1-0.3-0.1-0.5-0.1c-0.3,0-0.7,0.1-0.9,0.4c-0.3,0.3-0.4,0.7-0.4,1.2v3h-0.9v-3.4
	c0-0.3-0.1-0.6-0.2-0.9c-0.2-0.2-0.4-0.3-0.7-0.3c-0.2,0-0.5,0.1-0.7,0.2c-0.2,0.1-0.4,0.3-0.5,0.6c-0.1,0.4-0.2,0.7-0.1,1.1v2.7
	h-0.6V246.1z"/>
<path class="st8" d="M362.4,248.1V241h0.8v0.7c0.2-0.2,0.4-0.5,0.6-0.6c0.3-0.1,0.6-0.2,0.9-0.2c0.9,0,1.6,0.5,1.9,1.3
	c0.2,0.4,0.3,0.9,0.3,1.4s-0.1,1-0.3,1.4c-0.3,0.8-1.1,1.3-2,1.3c-0.3,0-0.5-0.1-0.8-0.2c-0.2-0.1-0.4-0.3-0.6-0.5v2.5L362.4,248.1
	L362.4,248.1z M363.2,243.6c0,0.5,0.1,1,0.4,1.5c0.2,0.3,0.6,0.5,1,0.5s0.8-0.2,1-0.5c0.3-0.5,0.5-1,0.4-1.5c0-0.5-0.1-1-0.4-1.5
	c-0.2-0.3-0.6-0.5-1-0.5s-0.8,0.2-1,0.5C363.4,242.5,363.2,243.1,363.2,243.6L363.2,243.6z"/>
<path class="st8" d="M368,240v-1h0.9v1H368z M368,246.2V241h0.9v5.2H368z"/>
<path class="st8" d="M370.2,246.1V239h0.9v7.2L370.2,246.1L370.2,246.1z"/>
<path class="st8" d="M376,244.5l0.9,0.1c-0.1,0.5-0.4,0.9-0.8,1.2s-1,0.5-1.5,0.4c-0.7,0-1.3-0.2-1.8-0.7s-0.7-1.3-0.7-2
	s0.2-1.4,0.7-2c0.4-0.5,1.1-0.8,1.7-0.7c0.6,0,1.3,0.2,1.7,0.7c0.5,0.6,0.7,1.3,0.7,2v0.2H373c0,0.5,0.2,0.9,0.5,1.3
	c0.3,0.3,0.7,0.5,1.1,0.5c0.3,0,0.6-0.1,0.8-0.2C375.7,245.1,375.9,244.8,376,244.5z M373.1,243.1h2.9c0-0.4-0.1-0.7-0.3-1
	c-0.5-0.6-1.5-0.7-2.1-0.1l0,0C373.3,242.3,373.2,242.7,373.1,243.1z"/>
<path class="st8" d="M381.4,246.1v-0.7c-0.3,0.5-0.9,0.8-1.5,0.8c-0.4,0-0.8-0.1-1.1-0.3c-0.4-0.2-0.6-0.6-0.8-1
	c-0.2-0.4-0.3-0.9-0.3-1.4s0.1-1,0.3-1.4c0.1-0.4,0.4-0.8,0.8-1c0.3-0.2,0.7-0.3,1.2-0.3c0.3,0,0.6,0.1,0.8,0.2
	c0.2,0.1,0.4,0.3,0.6,0.5v-2.6h0.9v7.2H381.4z M378.6,243.6c0,0.5,0.1,1.1,0.4,1.5c0.4,0.6,1.2,0.7,1.8,0.2c0.1-0.1,0.2-0.2,0.2-0.2
	c0.3-0.4,0.5-0.9,0.4-1.4c0-0.6-0.1-1.1-0.4-1.6c-0.2-0.3-0.6-0.5-1-0.5s-0.8,0.2-1,0.5C378.7,242.5,378.5,243,378.6,243.6
	L378.6,243.6z"/>
</svg>
