<?xml version="1.0" encoding="utf-8"?>
<!-- Generator: Adobe Illustrator 26.0.2, SVG Export Plug-In . SVG Version: 6.00 Build 0)  -->
<svg version="1.1" xmlns="http://www.w3.org/2000/svg" xmlns:xlink="http://www.w3.org/1999/xlink" x="0px" y="0px"
	 viewBox="0 0 833.6 377" style="enable-background:new 0 0 833.6 377;" xml:space="preserve">
<style type="text/css">
	.st0{display:none;}
	.st1{display:inline;fill:#89B79F;}
	.st2{display:inline;fill:#57BCD6;}
	.st3{display:inline;fill:#2070B4;}
	.st4{display:inline;fill:#450256;}
	.st5{display:inline;fill:#A687A9;}
	.st6{display:inline;fill:#D8CED4;}
	.st7{display:inline;fill:#333333;stroke:#444444;stroke-width:0.5;}
	.st8{display:inline;fill:#333333;}
	.st9{font-family:'ArialMT';}
	.st10{font-size:14px;}
	.st11{fill-opacity:0.2;}
	.st12{fill:#00485C;}
	.st13{fill:#89B79F;}
	.st14{fill:#57BCD6;}
	.st15{fill:#2070B4;}
	.st16{fill:#450256;}
	.st17{fill:#333333;}
	.st18{display:inline;}
	.st19{display:inline;stroke:#444444;stroke-width:0.5;}
	.st20{display:inline;fill-opacity:0;}
</style>
<g id="Layer_1">
	<g id="Layer_1_00000174574774202727935700000011371151107176093829_" class="st0">
		<path class="st1" d="M527,122.4c66.7,0,76.7-56,143.3-56v10.7c-66.7,0-76.7,56-143.3,56V122.4z"/>
		<path class="st1" d="M527,133.1c66.7,0,76.7-38.3,143.3-38.3v10.7c-66.7,0-76.7,38.3-143.3,38.3V133.1z"/>
		<path class="st2" d="M527,172.8c66.7,0,76.7-33.9,143.3-33.9v10.7c-66.7,0-76.7,33.9-143.3,33.9V172.8z"/>
		<path class="st2" d="M527,183.4c66.7,0,76.7-10.2,143.3-10.2v10.7c-66.7,0-76.7,10.2-143.3,10.2V183.4z"/>
		<path class="st3" d="M527,227.3c66.7,0,76.7,12.9,143.3,12.9v10.7c-66.7,0-76.7-12.9-143.3-12.9V227.3z"/>
		<path class="st3" d="M527,238c66.7,0,76.7,36.7,143.3,36.7v10.7c-66.7,0-76.7-36.7-143.3-36.7V238z"/>
		<path class="st4" d="M527,287.1c66.7,0,76.7,31.9,143.3,31.9v10.7c-66.7,0-76.7-31.9-143.3-31.9V287.1z"/>
		<path class="st4" d="M527,297.8c66.7,0,76.7,55.6,143.3,55.6V364c-66.7,0-76.7-55.6-143.3-55.6V297.8z"/>
		<path class="st5" d="M340.4,147.3c66.7,0,109.9-24.8,176.6-24.8v10.7c-66.7,0-109.9,24.8-176.6,24.8V147.3z"/>
		<path class="st5" d="M340.4,157.9c66.7,0,109.9,14.7,176.6,14.7v10.7c-66.7,0-109.9-14.7-176.6-14.7V157.9z"/>
		<path class="st5" d="M340.4,168.6c66.7,0,109.9,58.7,176.6,58.7V238c-66.7,0-109.9-58.7-176.6-58.7V168.6z"/>
		<path class="st5" d="M340.4,179.3c66.7,0,109.9,107.9,176.6,107.9v10.7c-66.7,0-109.9-107.9-176.6-107.9V179.3z"/>
		<path class="st6" d="M210.1,126c210,0,250.3-115.1,460.3-115.1v10.7c-210,0-250.3,115.1-460.3,115.1L210.1,126L210.1,126z"/>
		<path class="st6" d="M210.3,136.8c210,0,250.3-106.7,460.3-106.7v10.7c-210,0-250.3,106.7-460.3,106.7L210.3,136.8L210.3,136.8z"
			/>
		<path class="st6" d="M210.1,147.3c66.7,0,53.7-0.1,120.3-0.1v10.7c-66.7,0-53.7,0.1-120.3,0.1L210.1,147.3L210.1,147.3z"/>
		<rect x="670.3" y="10.9" class="st7" width="10" height="10.7"/>
		<rect x="670.3" y="66.4" class="st7" width="10" height="10.7"/>
		<rect x="670.3" y="94.8" class="st7" width="10" height="10.7"/>
		<rect x="670.3" y="138.9" class="st7" width="10" height="10.7"/>
		<rect x="670.3" y="173.2" class="st7" width="10" height="10.7"/>
		<rect x="670.3" y="240.3" class="st7" width="10" height="10.7"/>
		<rect x="670.3" y="274.6" class="st7" width="10" height="10.7"/>
		<rect x="670.3" y="319" class="st7" width="10" height="10.7"/>
		<rect x="670.3" y="353.4" class="st7" width="10" height="10.7"/>
		<rect x="517.2" y="122.4" class="st7" width="10" height="21.3"/>
		<rect x="517" y="172.8" class="st7" width="10" height="21.3"/>
		<rect x="517" y="227.3" class="st7" width="10" height="21.3"/>
		<rect x="517" y="287.1" class="st7" width="10" height="21.3"/>
		<rect x="330.4" y="147.3" class="st7" width="10" height="42.7"/>
		<rect x="670.6" y="30.1" class="st7" width="10" height="10.7"/>
		<rect x="200.1" y="126" class="st7" width="10" height="32"/>
		<text transform="matrix(1 0 0 1 78.68 147.0286)" class="st8 st9 st10">Machine Learning</text>
		<text transform="matrix(1 0 0 1 230.9643 180.9752)" class="st8 st9 st10">Deep Learning</text>
		<text transform="matrix(1 0 0 1 462.6733 98.2)" class="st8 st9 st10">Stacked </text>
		<text transform="matrix(1 0 0 1 462.6733 115)" class="st8 st9 st10">Hidden Layers</text>
		<text transform="matrix(1 0 0 1 462.6738 165.0057)" class="st8 st9 st10">Euclidean Space</text>
		<text transform="matrix(1 0 0 1 495.6774 218.2373)" class="st8 st9 st10">Sequence-to-Sequence</text>
		<text transform="matrix(1 0 0 1 495.678 278.8075)" class="st8 st9 st10">Neuro-Symbolic</text>
		<text transform="matrix(1 0 0 1 689.06 76.7857)" class="st8 st9 st10">MLP</text>
		<text transform="matrix(1 0 0 1 689.06 21.2803)" class="st8 st9 st10">SVM</text>
		<text transform="matrix(1 0 0 1 689.06 40.4437)" class="st8 st9 st10">RL</text>
		<text transform="matrix(1 0 0 1 689.06 105.1201)" class="st8 st9 st10">DBN</text>
		<text transform="matrix(1 0 0 1 689.0604 183.1045)" class="st8 st9 st10">GNN</text>
		<text transform="matrix(1 0 0 1 689.0604 251.5072)" class="st8 st9 st10">RNN</text>
		<text transform="matrix(1 0 0 1 689.0604 283.4462)" class="st8 st9 st10">Transformer</text>
		<text transform="matrix(1 0 0 1 689.0604 329.3775)" class="st8 st9 st10">LTN</text>
		<text transform="matrix(1 0 0 1 689.0604 363.7119)" class="st8 st9 st10">RKNN</text>
		<text transform="matrix(1 0 0 1 689.0604 149.5685)" class="st8 st9 st10">CNN</text>
	</g>
	<g id="Layer_4">
		<path class="st11" d="M210.3,214.5c160,0,300-107.1,460-107.1v2.1c-160,0-300,107.1-460,107.1L210.3,214.5L210.3,214.5z"/>
		<path class="st11" d="M210.3,216.6c160,0,300-19.5,460-19.5v2.1c-160,0-300,19.5-460,19.5L210.3,216.6L210.3,216.6z"/>
		<path class="st11" d="M210.3,218.7c160,0,300,24.7,460,24.7v2.1c-160,0-300-24.7-460-24.7L210.3,218.7L210.3,218.7z"/>
		<path class="st11" d="M210.3,220.9c160,0,300,24.7,460,24.7v2.1c-160,0-300-24.7-460-24.7L210.3,220.9L210.3,220.9z"/>
		<path class="st11" d="M210.3,49.9c160,0,300,46.8,460,46.8v2.1c-160,0-300-46.8-460-46.8L210.3,49.9L210.3,49.9z"/>
		<path class="st11" d="M210.3,60.5c160,0,300,125.9,460,125.9v2.1c-160,0-300-125.9-460-125.9L210.3,60.5L210.3,60.5z"/>
		<path class="st11" d="M210.3,54.1c160,0,300,73.9,460,73.9v2.1c-160,0-300-73.9-460-73.9L210.3,54.1L210.3,54.1z"/>
		<path class="st11" d="M210.3,58.4c160,0,300,105.2,460,105.2v2.1c-160,0-300-105.2-460-105.2L210.3,58.4L210.3,58.4z"/>
		<path class="st11" d="M210.3,112.6c160,0,300,76,460,76v2.1c-160,0-300-76-460-76L210.3,112.6L210.3,112.6z"/>
		<path class="st11" d="M210.3,119c160,0,300,105.2,460,105.2v2.1c-160,0-300-105.2-460-105.2L210.3,119L210.3,119z"/>
		<path class="st11" d="M210.3,193.8c160,0,300-50.8,460-50.8v2.1c-160,0-300,50.8-460,50.8L210.3,193.8L210.3,193.8z"/>
		<path class="st11" d="M210.3,195.9c160,0,300,45.3,460,45.3v2.1c-160,0-300-45.3-460-45.3L210.3,195.9L210.3,195.9z"/>
		<path class="st11" d="M210.3,268.6c160,0,300-67.2,460-67.2v2.1c-160,0-300,67.2-460,67.2L210.3,268.6L210.3,268.6z"/>
		<path class="st11" d="M210.3,270.7c160,0,300-14.6,460-14.6v2.1c-160,0-300,14.6-460,14.6L210.3,270.7L210.3,270.7z"/>
		<path class="st11" d="M210.3,81.2c160,0,300,19.7,460,19.7v2.1c-160,0-300-19.7-460-19.7L210.3,81.2L210.3,81.2z"/>
		<path class="st11" d="M210.3,83.3c160,0,300,138.7,460,138.7v2.1c-160,0-300-138.7-460-138.7L210.3,83.3L210.3,83.3z"/>
		<path class="st11" d="M210.3,243.7c160,0,300,4,460,4v2.1c-160,0-300-4-460-4L210.3,243.7L210.3,243.7z"/>
		<path class="st11" d="M210.3,307.8c160,0,300-47.4,460-47.4v2.1c-160,0-300,47.4-460,47.4L210.3,307.8L210.3,307.8z"/>
		<path class="st11" d="M210.3,114.7c160,0,300,76,460,76v2.1c-160,0-300-76-460-76L210.3,114.7L210.3,114.7z"/>
		<path class="st11" d="M210.3,104c160,0,300,28.3,460,28.3v2.1c-160,0-300-28.3-460-28.3L210.3,104L210.3,104z"/>
		<path class="st11" d="M210.3,121.1c160,0,300,105.2,460,105.2v2.1c-160,0-300-105.2-460-105.2L210.3,121.1L210.3,121.1z"/>
		<path class="st11" d="M210.3,239.4c160,0,300-71.5,460-71.5v2.1c-160,0-300,71.5-460,71.5L210.3,239.4L210.3,239.4z"/>
		<path class="st11" d="M210.3,245.8c160,0,300,4,460,4v2.1c-160,0-300-4-460-4L210.3,245.8L210.3,245.8z"/>
		<path class="st11" d="M210.3,62.7c160,0,300,157.3,460,157.3v2.1c-160,0-300-157.3-460-157.3L210.3,62.7L210.3,62.7z"/>
		<path class="st11" d="M210.3,52c160,0,300,46.8,460,46.8v2.1c-160,0-300-46.8-460-46.8L210.3,52L210.3,52z"/>
		<path class="st11" d="M210.3,56.3c160,0,300,73.9,460,73.9v2.1c-160,0-300-73.9-460-73.9L210.3,56.3L210.3,56.3z"/>
		<path class="st11" d="M210.3,247.9c160,0,300,4,460,4v2.1c-160,0-300-4-460-4L210.3,247.9L210.3,247.9z"/>
		<path class="st11" d="M210.3,106.2c160,0,300,28.3,460,28.3v2.1c-160,0-300-28.3-460-28.3L210.3,106.2L210.3,106.2z"/>
		<path class="st11" d="M210.3,123.2c160,0,300,105.2,460,105.2v2.1c-160,0-300-105.2-460-105.2L210.3,123.2L210.3,123.2z"/>
		<path class="st11" d="M210.3,241.5c160,0,300-42.3,460-42.3v2.1c-160,0-300,42.3-460,42.3L210.3,241.5L210.3,241.5z"/>
		<path class="st11" d="M210.3,250.1c160,0,300,4,460,4v2.1c-160,0-300-4-460-4L210.3,250.1L210.3,250.1z"/>
		<path class="st11" d="M210.3,289.3c160,0,300-31,460-31v2.1c-160,0-300,31-460,31L210.3,289.3L210.3,289.3z"/>
		<path class="st11" d="M210.3,344.9c160,0,300-80.2,460-80.2v2.1c-160,0-300,80.2-460,80.2L210.3,344.9L210.3,344.9z"/>
		<path class="st11" d="M210.3,173.1c160,0,300-32.3,460-32.3v2.1c-160,0-300,32.3-460,32.3L210.3,173.1L210.3,173.1z"/>
		<path class="st11" d="M210.3,175.2c160,0,300,63.9,460,63.9v2.1c-160,0-300-63.9-460-63.9L210.3,175.2L210.3,175.2z"/>
		<path class="st11" d="M210.3,108.3c160,0,300,28.3,460,28.3v2.1c-160,0-300-28.3-460-28.3L210.3,108.3L210.3,108.3z"/>
		<path class="st11" d="M210.3,326.4c160,0,300-63.8,460-63.8v2.1c-160,0-300,63.8-460,63.8L210.3,326.4L210.3,326.4z"/>
		<path class="st11" d="M210.3,101.9c160,0,300,1.2,460,1.2v2.1c-160,0-300-1.2-460-1.2L210.3,101.9L210.3,101.9z"/>
		<path class="st11" d="M210.3,116.8c160,0,300,76,460,76v2.1c-160,0-300-76-460-76L210.3,116.8L210.3,116.8z"/>
		<path class="st11" d="M210.3,110.4c160,0,300,28.3,460,28.3v2.1c-160,0-300-28.3-460-28.3L210.3,110.4L210.3,110.4z"/>
		<path class="st11" d="M210.3,125.4c160,0,300,105.2,460,105.2v2.1c-160,0-300-105.2-460-105.2L210.3,125.4L210.3,125.4z"/>
		<path class="st11" d="M210.3,127.5c160,0,300,105.2,460,105.2v2.1c-160,0-300-105.2-460-105.2L210.3,127.5L210.3,127.5z"/>
		<path class="st11" d="M210.3,27.1c160,0,300,67.5,460,67.5v2.1c-160,0-300-67.5-460-67.5L210.3,27.1L210.3,27.1z"/>
		<path class="st11" d="M210.3,29.2c160,0,300,96.7,460,96.7v2.1c-160,0-300-96.7-460-96.7L210.3,29.2L210.3,29.2z"/>
		<path class="st11" d="M210.3,31.3c160,0,300,130.2,460,130.2v2.1c-160,0-300-130.2-460-130.2L210.3,31.3L210.3,31.3z"/>
		<path class="st11" d="M210.3,150.3c160,0,300,44.7,460,44.7v2.1c-160,0-300-44.7-460-44.7L210.3,150.3L210.3,150.3z"/>
		<path class="st11" d="M210.3,148.2c160,0,300,17.6,460,17.6v2.1c-160,0-300-17.6-460-17.6L210.3,148.2L210.3,148.2z"/>
		<path class="st11" d="M210.3,152.4c160,0,300,82.4,460,82.4v2.1c-160,0-300-82.4-460-82.4L210.3,152.4L210.3,152.4z"/>
		<path class="st11" d="M210.3,146c160,0,300-40.8,460-40.8v2.1c-160,0-300,40.8-460,40.8L210.3,146L210.3,146z"/>
		<path class="st11" d="M210.3,154.6c160,0,300,82.4,460,82.4v2.1c-160,0-300-82.4-460-82.4L210.3,154.6L210.3,154.6z"/>
		<rect x="670.3" y="94.5" class="st12" width="10" height="14.9"/>
		<rect x="670.3" y="186.4" class="st13" width="10" height="17.1"/>
		<rect x="670.3" y="125.9" class="st14" width="10" height="19.2"/>
		<rect x="670.3" y="161.5" class="st15" width="10" height="8.5"/>
		<rect x="670.3" y="219.9" class="st16" width="10" height="46.9"/>
		<rect x="200.3" y="173.1" class="st17" width="10" height="4.3"/>
		<rect x="200.3" y="289.3" class="st17" width="10" height="2.1"/>
		<rect x="200.3" y="268.6" class="st17" width="10" height="4.3"/>
		<rect x="200.3" y="307.8" class="st17" width="10" height="2.1"/>
		<rect x="200.3" y="326.4" class="st17" width="10" height="2.1"/>
		<rect x="200.3" y="214.5" class="st17" width="10" height="8.5"/>
		<rect x="200.3" y="101.9" class="st17" width="10" height="27.7"/>
		<rect x="200.3" y="344.9" class="st17" width="10" height="2.1"/>
		<rect x="200.3" y="239.4" class="st17" width="10" height="12.8"/>
		<rect x="200.3" y="49.9" class="st17" width="10" height="14.9"/>
		<rect x="200.3" y="81.2" class="st17" width="10" height="4.3"/>
		<rect x="200.3" y="146" class="st17" width="10" height="10.7"/>
		<rect x="200.3" y="193.8" class="st17" width="10" height="4.3"/>
		<rect x="200.3" y="27.1" class="st17" width="10" height="6.4"/>
		<text transform="matrix(1 0 0 1 69.6131 35.1238)" class="st17 st9 st10">Text Summarization</text>
		<text transform="matrix(1 0 0 1 94.5098 87.8898)" class="st17 st9 st10">Fact verification</text>
		<text transform="matrix(1 0 0 1 102.2891 122.8898)" class="st17 st9 st10">Dialog System</text>
		<text transform="matrix(1 0 0 1 56.3721 156.8898)" class="st17 st9 st10">Information Extraction</text>
		<text transform="matrix(1 0 0 1 68.0273 180.8898)" class="st17 st9 st10">Question Answering</text>
		<text transform="matrix(1 0 0 1 80.5029 200.8898)" class="st17 st9 st10">Text Classification</text>
		<text transform="matrix(1 0 0 1 99.1582 223.8898)" class="st17 st9 st10">Topic Modeling</text>
		<text transform="matrix(1 0 0 1 125.5996 250.8898)" class="st17 st9 st10">Annotation</text>
		<text transform="matrix(1 0 0 1 74.2617 274.8898)" class="st17 st9 st10">Sentiment Analysis</text>
		<text transform="matrix(1 0 0 1 80.5029 294.8898)" class="st17 st9 st10">Text Classification</text>
		<text transform="matrix(1 0 0 1 97.6133 311.8898)" class="st17 st9 st10">KG Completion</text>
		<text transform="matrix(1 0 0 1 26 330.8898)" class="st17 st9 st10">Cause Efeect Identification</text>
		<text transform="matrix(1 0 0 1 77.3584 351.8898)" class="st17 st9 st10">Textual Reasoning</text>
		<text transform="matrix(1 0 0 1 123.8086 61.8898)" class="st17 st9 st10">Translation</text>
		<text transform="matrix(1 0 0 1 690 106.8898)" class="st9 st10">OOD Generalization</text>
		<text transform="matrix(1 0 0 1 690 142.8898)" class="st9 st10">Reduced Data</text>
		<text transform="matrix(1 0 0 1 690 169.8898)" class="st9 st10">Transferability</text>
		<text transform="matrix(1 0 0 1 690 200.8898)" class="st9 st10">Interpretability</text>
		<text transform="matrix(1 0 0 1 690 247.8898)" class="st9 st10">Reasoning</text>
	</g>
	<g id="Layer_2_00000176039781101556032310000002074667303129835417_" class="st0">
		<g class="st18">
			<path class="st14" d="M209.7,140.3c160,0,300,9.2,460,9.2v2.3c-160,0-300-9.2-460-9.2L209.7,140.3L209.7,140.3z"/>
			<path class="st16" d="M209.7,276.2c160,0,300-96.5,460-96.5v2.3c-160,0-300,96.5-460,96.5L209.7,276.2L209.7,276.2z"/>
			<path class="st15" d="M209.7,189.5c160,0,300-28.4,460-28.4v2.3c-160,0-300,28.4-460,28.4L209.7,189.5L209.7,189.5z"/>
			<path class="st16" d="M209.7,287.8c160,0,300,59.3,460,59.3v2.3c-160,0-300-59.3-460-59.3L209.7,287.8L209.7,287.8z"/>
			<path class="st13" d="M209.7,234c160,0,300-63.6,460-63.6v2.3c-160,0-300,63.6-460,63.6L209.7,234L209.7,234z"/>
			<path class="st16" d="M209.7,285.5c160,0,300,37.9,460,37.9v2.3c-160,0-300-37.9-460-37.9L209.7,285.5L209.7,285.5z"/>
			<path class="st16" d="M209.7,273.9c160,0,300-148,460-148v2.3c-160,0-300,148-460,148L209.7,273.9L209.7,273.9z"/>
			<path class="st14" d="M209.7,124.1c160,0,300-68.7,460-68.7v2.3c-160,0-300,68.7-460,68.7L209.7,124.1L209.7,124.1z"/>
			<path class="st13" d="M209.7,243.3c160,0,300-30.7,460-30.7v2.3c-160,0-300,30.7-460,30.7L209.7,243.3L209.7,243.3z"/>
			<path class="st15" d="M209.7,191.8c160,0,300-28.4,460-28.4v2.3c-160,0-300,28.4-460,28.4L209.7,191.8L209.7,191.8z"/>
			<path class="st15" d="M209.7,180.2c160,0,300-117.9,460-117.9v2.3c-160,0-300,117.9-460,117.9L209.7,180.2L209.7,180.2z"/>
			<path class="st15" d="M209.7,203.4c160,0,300,56.5,460,56.5v2.3c-160,0-300-56.5-460-56.5L209.7,203.4L209.7,203.4z"/>
			<path class="st14" d="M209.7,126.4c160,0,300-68.7,460-68.7V60c-160,0-300,68.7-460,68.7L209.7,126.4L209.7,126.4z"/>
			<path class="st13" d="M209.7,231.7c160,0,300-167,460-167V67c-160,0-300,167-460,167L209.7,231.7L209.7,231.7z"/>
			<path class="st13" d="M209.7,236.3c160,0,300-63.6,460-63.6v2.3c-160,0-300,63.6-460,63.6L209.7,236.3L209.7,236.3z"/>
			<path class="st14" d="M209.7,133.4c160,0,300-19.1,460-19.1v2.3c-160,0-300,19.1-460,19.1L209.7,133.4L209.7,133.4z"/>
			<path class="st14" d="M209.7,119.4c160,0,300-90.1,460-90.1v2.3c-160,0-300,90.1-460,90.1L209.7,119.4L209.7,119.4z"/>
			<path class="st15" d="M209.7,205.7c160,0,300,80.2,460,80.2v2.3c-160,0-300-80.2-460-80.2L209.7,205.7L209.7,205.7z"/>
			<path class="st15" d="M209.7,184.8c160,0,300-63.6,460-63.6v2.3c-160,0-300,63.6-460,63.6L209.7,184.8L209.7,184.8z"/>
			<path class="st15" d="M209.7,198.7c160,0,300,11.5,460,11.5v2.3c-160,0-300-11.5-460-11.5L209.7,198.7L209.7,198.7z"/>
			<path class="st13" d="M209.7,245.6c160,0,300,44.9,460,44.9v2.3c-160,0-300-44.9-460-44.9L209.7,245.6L209.7,245.6z"/>
			<path class="st15" d="M209.7,208c160,0,300,80.2,460,80.2v2.3c-160,0-300-80.2-460-80.2L209.7,208L209.7,208z"/>
			<path class="st14" d="M209.7,142.6c160,0,300,9.2,460,9.2v2.3c-160,0-300-9.2-460-9.2L209.7,142.6L209.7,142.6z"/>
			<path class="st14" d="M209.7,145c160,0,300,9.2,460,9.2v2.3c-160,0-300-9.2-460-9.2L209.7,145L209.7,145z"/>
			<path class="st14" d="M209.7,154.2c160,0,300,129.3,460,129.3v2.3c-160,0-300-129.3-460-129.3L209.7,154.2L209.7,154.2z"/>
			<path class="st13" d="M209.7,250.2c160,0,300,70.9,460,70.9v2.3c-160,0-300-70.9-460-70.9L209.7,250.2L209.7,250.2z"/>
			<path class="st13" d="M209.7,238.6c160,0,300-63.6,460-63.6v2.3c-160,0-300,63.6-460,63.6L209.7,238.6L209.7,238.6z"/>
			<path class="st14" d="M209.7,135.7c160,0,300-19.1,460-19.1v2.3c-160,0-300,19.1-460,19.1L209.7,135.7L209.7,135.7z"/>
			<path class="st15" d="M209.7,194.1c160,0,300-28.4,460-28.4v2.3c-160,0-300,28.4-460,28.4L209.7,194.1L209.7,194.1z"/>
			<path class="st14" d="M209.7,147.3c160,0,300,9.2,460,9.2v2.3c-160,0-300-9.2-460-9.2L209.7,147.3L209.7,147.3z"/>
			<path class="st14" d="M209.7,128.7c160,0,300-68.7,460-68.7v2.3c-160,0-300,68.7-460,68.7L209.7,128.7L209.7,128.7z"/>
			<path class="st14" d="M209.7,131c160,0,300-42.7,460-42.7v2.3c-160,0-300,42.7-460,42.7L209.7,131L209.7,131z"/>
			<path class="st16" d="M209.7,278.5c160,0,300-96.5,460-96.5v2.3c-160,0-300,96.5-460,96.5L209.7,278.5L209.7,278.5z"/>
			<path class="st14" d="M209.7,156.5c160,0,300,162.2,460,162.2v2.3c-160,0-300-162.2-460-162.2L209.7,156.5L209.7,156.5z"/>
			<path class="st16" d="M209.7,280.8c160,0,300-96.5,460-96.5v2.3c-160,0-300,96.5-460,96.5L209.7,280.8L209.7,280.8z"/>
			<path class="st14" d="M209.7,149.6c160,0,300,9.2,460,9.2v2.3c-160,0-300-9.2-460-9.2L209.7,149.6L209.7,149.6z"/>
			<path class="st13" d="M209.7,247.9c160,0,300,44.9,460,44.9v2.3c-160,0-300-44.9-460-44.9L209.7,247.9L209.7,247.9z"/>
			<path class="st15" d="M209.7,182.5c160,0,300-91.9,460-91.9v2.3c-160,0-300,91.9-460,91.9L209.7,182.5L209.7,182.5z"/>
			<path class="st14" d="M209.7,151.9c160,0,300,56,460,56v2.3c-160,0-300-56-460-56L209.7,151.9L209.7,151.9z"/>
			<path class="st14" d="M209.7,138c160,0,300-19.1,460-19.1v2.3c-160,0-300,19.1-460,19.1L209.7,138L209.7,138z"/>
			<path class="st15" d="M209.7,196.4c160,0,300-28.4,460-28.4v2.3c-160,0-300,28.4-460,28.4L209.7,196.4L209.7,196.4z"/>
			<path class="st15" d="M209.7,201.1c160,0,300,35.2,460,35.2v2.3c-160,0-300-35.2-460-35.2L209.7,201.1L209.7,201.1z"/>
			<path class="st13" d="M209.7,241c160,0,300-63.6,460-63.6v2.3c-160,0-300,63.6-460,63.6L209.7,241L209.7,241z"/>
			<path class="st15" d="M209.7,187.2c160,0,300-63.6,460-63.6v2.3c-160,0-300,63.6-460,63.6L209.7,187.2L209.7,187.2z"/>
			<path class="st14" d="M209.7,121.8c160,0,300-90.1,460-90.1V34c-160,0-300,90.1-460,90.1L209.7,121.8L209.7,121.8z"/>
			<path class="st16" d="M209.7,283.2c160,0,300,12,460,12v2.3c-160,0-300-12-460-12L209.7,283.2L209.7,283.2z"/>
		</g>
		<rect x="199.7" y="273.9" class="st19" width="10" height="16.2"/>
		<rect x="189.7" y="261.4" class="st20" width="30" height="41.2"/>
		<g transform="translate(0 9.115942028985572)" class="st18">
			<text transform="matrix(1 0 0 1 142.6763 273.8779)" class="st17 st9 st10">F</text>
			<text transform="matrix(1 0 0 1 151.2281 273.8779)" class="st17 st9 st10">r</text>
			<text transform="matrix(1 0 0 1 155.8902 273.8779)" class="st17 st9 st10">a</text>
			<text transform="matrix(1 0 0 1 163.6763 273.8779)" class="st17 st9 st10">m</text>
			<text transform="matrix(1 0 0 1 175.3385 273.8779)" class="st17 st9 st10">e</text>
			<text transform="matrix(1 0 0 1 183.1246 273.8779)" class="st17 st9 st10">s</text>
		</g>
		<rect x="199.7" y="180.2" class="st19" width="10" height="30.1"/>
		<rect x="189.7" y="167.7" class="st20" width="30" height="55.1"/>
		<g transform="translate(0 16.072463768115966)" class="st18">
			<text transform="matrix(1 0 0 1 156.6558 180.1959)" class="st17 st9 st10">L</text>
			<text transform="matrix(1 0 0 1 164.442 180.1959)" class="st17 st9 st10">o</text>
			<text transform="matrix(1 0 0 1 172.2281 180.1959)" class="st17 st9 st10">g</text>
			<text transform="matrix(1 0 0 1 180.0142 180.1959)" class="st17 st9 st10">i</text>
			<text transform="matrix(1 0 0 1 183.1246 180.1959)" class="st17 st9 st10">c</text>
		</g>
		<rect x="199.7" y="119.4" class="st19" width="10" height="39.4"/>
		<rect x="189.7" y="106.9" class="st20" width="30" height="64.4"/>
		<g transform="translate(0 20.710144927536284)" class="st18">
			<text transform="matrix(1 0 0 1 154.3316 119.4429)" class="st17 st9 st10">R</text>
			<text transform="matrix(1 0 0 1 164.442 119.4429)" class="st17 st9 st10">u</text>
			<text transform="matrix(1 0 0 1 172.2281 119.4429)" class="st17 st9 st10">l</text>
			<text transform="matrix(1 0 0 1 175.3385 119.4429)" class="st17 st9 st10">e</text>
			<text transform="matrix(1 0 0 1 183.1246 119.4429)" class="st17 st9 st10">s</text>
		</g>
		<rect x="199.7" y="231.7" class="st19" width="10" height="20.9"/>
		<rect x="189.7" y="219.2" class="st20" width="30" height="45.9"/>
		<g transform="translate(0 11.434782608695656)" class="st18">
			<text transform="matrix(1 0 0 1 78.856 231.6749)" class="st17 st9 st10">S</text>
			<text transform="matrix(1 0 0 1 88.1939 231.6749)" class="st17 st9 st10">e</text>
			<text transform="matrix(1 0 0 1 95.9801 231.6749)" class="st17 st9 st10">m</text>
			<text transform="matrix(1 0 0 1 107.6422 231.6749)" class="st17 st9 st10">a</text>
			<text transform="matrix(1 0 0 1 115.4283 231.6749)" class="st17 st9 st10">n</text>
			<text transform="matrix(1 0 0 1 123.2144 231.6749)" class="st17 st9 st10">t</text>
			<text transform="matrix(1 0 0 1 127.1041 231.6749)" class="st17 st9 st10">i</text>
			<text transform="matrix(1 0 0 1 130.2144 231.6749)" class="st17 st9 st10">c</text>
			<text transform="matrix(1 0 0 1 137.2144 231.6749)" class="st17 st9 st10"> </text>
			<text transform="matrix(1 0 0 1 141.1041 231.6749)" class="st17 st9 st10">n</text>
			<text transform="matrix(1 0 0 1 148.8902 231.6749)" class="st17 st9 st10">e</text>
			<text transform="matrix(1 0 0 1 156.6763 231.6749)" class="st17 st9 st10">t</text>
			<text transform="matrix(1 0 0 1 160.566 231.6749)" class="st17 st9 st10">w</text>
			<text transform="matrix(1 0 0 1 170.6763 231.6749)" class="st17 st9 st10">o</text>
			<text transform="matrix(1 0 0 1 178.4625 231.6749)" class="st17 st9 st10">r</text>
			<text transform="matrix(1 0 0 1 183.1246 231.6749)" class="st17 st9 st10">k</text>
		</g>
		<rect x="669.7" y="55.4" class="st19" width="10" height="11.6"/>
		<rect x="659.7" y="42.9" class="st20" width="30" height="36.6"/>
		<g transform="translate(0 6.797101449275324)" class="st18">
			<text transform="matrix(1 0 0 1 687.4553 57.4902)" class="st17 st9 st10">S</text>
			<text transform="matrix(1 0 0 1 696.7932 57.4902)" class="st17 st9 st10">V</text>
			<text transform="matrix(1 0 0 1 706.131 57.4902)" class="st17 st9 st10">M</text>
		</g>
		<rect x="669.7" y="114.3" class="st19" width="10" height="13.9"/>
		<rect x="659.7" y="101.8" class="st20" width="30" height="38.9"/>
		<g transform="translate(0 7.9565217391304515)" class="st18">
			<text transform="matrix(1 0 0 1 687.4553 116.3892)" class="st17 st9 st10">M</text>
			<text transform="matrix(1 0 0 1 699.1174 116.3892)" class="st17 st9 st10">L</text>
			<text transform="matrix(1 0 0 1 706.9035 116.3892)" class="st17 st9 st10">P</text>
		</g>
		<rect x="669.7" y="236.2" class="st19" width="10" height="2.3"/>
		<rect x="659.7" y="223.7" class="st20" width="30" height="27.3"/>
		<g transform="translate(0 2.159420289855092)" class="st18">
			<text transform="matrix(1 0 0 1 687.4553 238.3602)" class="st17 st9 st10">D</text>
			<text transform="matrix(1 0 0 1 697.5656 238.3602)" class="st17 st9 st10">B</text>
			<text transform="matrix(1 0 0 1 706.9035 238.3602)" class="st17 st9 st10">N</text>
		</g>
		<rect x="669.7" y="283.5" class="st19" width="10" height="13.9"/>
		<rect x="659.7" y="271" class="st20" width="30" height="38.9"/>
		<g transform="translate(0 7.956521739130153)" class="st18">
			<text transform="matrix(1 0 0 1 687.4553 285.6642)" class="st17 st9 st10">C</text>
			<text transform="matrix(1 0 0 1 697.5656 285.6642)" class="st17 st9 st10">N</text>
			<text transform="matrix(1 0 0 1 707.676 285.6642)" class="st17 st9 st10">N</text>
		</g>
		<rect x="669.7" y="318.8" class="st19" width="10" height="7"/>
		<rect x="659.7" y="306.3" class="st20" width="30" height="32"/>
		<g transform="translate(0 4.478260869565219)" class="st18">
			<text transform="matrix(1 0 0 1 687.4553 320.9102)" class="st17 st9 st10">G</text>
			<text transform="matrix(1 0 0 1 698.3449 320.9102)" class="st17 st9 st10">N</text>
			<text transform="matrix(1 0 0 1 708.4553 320.9102)" class="st17 st9 st10">N</text>
		</g>
		<rect x="669.7" y="149.5" class="st19" width="10" height="37.1"/>
		<rect x="659.7" y="137" class="st20" width="30" height="62.1"/>
		<g transform="translate(0 19.550724637681157)" class="st18">
			<text transform="matrix(1 0 0 1 687.4553 151.6352)" class="st17 st9 st10">R</text>
			<text transform="matrix(1 0 0 1 697.5656 151.6352)" class="st17 st9 st10">N</text>
			<text transform="matrix(1 0 0 1 707.676 151.6352)" class="st17 st9 st10">N</text>
		</g>
		<rect x="669.7" y="88.3" class="st19" width="10" height="4.6"/>
		<rect x="659.7" y="75.8" class="st20" width="30" height="29.6"/>
		<g transform="translate(0 3.3188405797101908)" class="st18">
			<text transform="matrix(1 0 0 1 687.4553 90.4182)" class="st17 st9 st10">R</text>
			<text transform="matrix(1 0 0 1 697.5656 90.4182)" class="st17 st9 st10">c</text>
			<text transform="matrix(1 0 0 1 704.5656 90.4182)" class="st17 st9 st10">N</text>
			<text transform="matrix(1 0 0 1 714.676 90.4182)" class="st17 st9 st10">N</text>
		</g>
		<rect x="669.7" y="207.9" class="st19" width="10" height="7"/>
		<rect x="659.7" y="195.4" class="st20" width="30" height="32"/>
		<g transform="translate(0 4.4782608695652755)" class="st18">
			<text transform="matrix(1 0 0 1 687.4553 210.0702)" class="st17 st9 st10">T</text>
			<text transform="matrix(1 0 0 1 696.007 210.0702)" class="st17 st9 st10">r</text>
			<text transform="matrix(1 0 0 1 700.6691 210.0702)" class="st17 st9 st10">a</text>
			<text transform="matrix(1 0 0 1 708.4553 210.0702)" class="st17 st9 st10">n</text>
			<text transform="matrix(1 0 0 1 716.2414 210.0702)" class="st17 st9 st10">s</text>
			<text transform="matrix(1 0 0 1 723.2414 210.0702)" class="st17 st9 st10">f</text>
			<text transform="matrix(1 0 0 1 727.131 210.0702)" class="st17 st9 st10">o</text>
			<text transform="matrix(1 0 0 1 734.9172 210.0702)" class="st17 st9 st10">r</text>
			<text transform="matrix(1 0 0 1 739.5793 210.0702)" class="st17 st9 st10">m</text>
			<text transform="matrix(1 0 0 1 751.2414 210.0702)" class="st17 st9 st10">e</text>
			<text transform="matrix(1 0 0 1 759.0275 210.0702)" class="st17 st9 st10">r</text>
		</g>
		<rect x="669.7" y="347.1" class="st19" width="10" height="2.3"/>
		<rect x="659.7" y="334.6" class="st20" width="30" height="27.3"/>
		<g transform="translate(0 2.1594202898550634)" class="st18">
			<path id="_x39_dba5c_x5F_0_x5F_node_x5F_48_00000088846845545798862430000000311358009657375382_" class="st17" d="M713.9,349.2"
				/>
			<text transform="matrix(1 0 0 1 687.4553 349.2002)" class="st17 st9 st10">L</text>
			<text transform="matrix(1 0 0 1 695.2414 349.2002)" class="st17 st9 st10">T</text>
			<text transform="matrix(1 0 0 1 703.7932 349.2002)" class="st17 st9 st10">N</text>
		</g>
		<rect x="669.7" y="259.9" class="st19" width="10" height="2.3"/>
		<rect x="659.7" y="247.4" class="st20" width="30" height="27.3"/>
		<g transform="translate(0 2.1594202898550634)" class="st18">
			<text transform="matrix(1 0 0 1 687.4553 262.0122)" class="st17 st9 st10">R</text>
			<text transform="matrix(1 0 0 1 697.5656 262.0122)" class="st17 st9 st10">K</text>
			<text transform="matrix(1 0 0 1 706.9035 262.0122)" class="st17 st9 st10">N</text>
			<text transform="matrix(1 0 0 1 717.0139 262.0122)" class="st17 st9 st10">N</text>
		</g>
		<rect x="669.7" y="29.4" class="st19" width="10" height="4.6"/>
		<rect x="659.7" y="16.9" class="st20" width="30" height="29.6"/>
		<g transform="translate(0 3.3188405797101552)" class="st18">
			<text transform="matrix(1 0 0 1 687.4553 31.5192)" class="st17 st9 st10">R</text>
			<text transform="matrix(1 0 0 1 697.5656 31.5192)" class="st17 st9 st10">L</text>
		</g>
	</g>
	<g id="guides" class="st0">
	</g>
</g>
<g id="Layer_2">
</g>
</svg>
