<?xml version="1.0" encoding="utf-8" standalone="no"?>
<!DOCTYPE svg PUBLIC "-//W3C//DTD SVG 1.1//EN"
  "http://www.w3.org/Graphics/SVG/1.1/DTD/svg11.dtd">
<!-- Created with matplotlib (https://matplotlib.org/) -->
<svg height="139.515773pt" version="1.1" viewBox="0 0 233.496975 139.515773" width="233.496975pt" xmlns="http://www.w3.org/2000/svg" xmlns:xlink="http://www.w3.org/1999/xlink">
 <metadata>
  <rdf:RDF xmlns:cc="http://creativecommons.org/ns#" xmlns:dc="http://purl.org/dc/elements/1.1/" xmlns:rdf="http://www.w3.org/1999/02/22-rdf-syntax-ns#">
   <cc:Work>
    <dc:type rdf:resource="http://purl.org/dc/dcmitype/StillImage"/>
    <dc:date>2022-06-01T06:47:42.129275</dc:date>
    <dc:format>image/svg+xml</dc:format>
    <dc:creator>
     <cc:Agent>
      <dc:title>Matplotlib v3.3.2, https://matplotlib.org/</dc:title>
     </cc:Agent>
    </dc:creator>
   </cc:Work>
  </rdf:RDF>
 </metadata>
 <defs>
  <style type="text/css">*{stroke-linecap:butt;stroke-linejoin:round;}</style>
 </defs>
 <g id="figure_1">
  <g id="patch_1">
   <path d="M 0 139.515773 
L 233.496975 139.515773 
L 233.496975 0 
L 0 0 
z
" style="fill:none;"/>
  </g>
  <g id="axes_1">
   <g id="patch_2">
    <path d="M 77.036339 113.359523 
L 84.895101 113.359523 
L 95.639897 102.334416 
" style="fill:none;stroke:#000000;stroke-linecap:round;"/>
   </g>
   <g id="text_1">
    <g id="patch_3">
     <path d="M 1.2 138.315773 
L 74.679375 138.315773 
L 74.679375 88.403273 
L 1.2 88.403273 
z
" style="fill:#ffffff;stroke:#ffffff;stroke-linejoin:miter;stroke-width:0.72;"/>
    </g>
    <!-- 46 -->
    <g transform="translate(55.201875 103.403273)scale(0.12 -0.12)">
     <defs>
      <path d="M 44.046875 23.875 
L 53.90625 23.875 
L 53.90625 16.5 
L 44.046875 16.5 
L 44.046875 0 
L 34.96875 0 
L 34.96875 16.5 
L 2.59375 16.5 
L 2.59375 21.828125 
L 34.421875 71.09375 
L 44.046875 71.09375 
z
M 12.84375 23.875 
L 34.96875 23.875 
L 34.96875 58.734375 
L 33.890625 56.78125 
z
" id="Roboto-Regular-52"/>
      <path d="M 41.359375 71.140625 
L 41.359375 63.484375 
L 39.703125 63.484375 
Q 29.15625 63.28125 22.90625 57.21875 
Q 16.65625 51.171875 15.671875 40.1875 
Q 21.296875 46.625 31 46.625 
Q 40.28125 46.625 45.828125 40.078125 
Q 51.375 33.546875 51.375 23.1875 
Q 51.375 12.203125 45.390625 5.609375 
Q 39.40625 -0.984375 29.34375 -0.984375 
Q 19.140625 -0.984375 12.796875 6.859375 
Q 6.453125 14.703125 6.453125 27.046875 
L 6.453125 30.515625 
Q 6.453125 50.140625 14.8125 60.515625 
Q 23.1875 70.90625 39.75 71.140625 
z
M 29.5 39.109375 
Q 24.859375 39.109375 20.953125 36.328125 
Q 17.046875 33.546875 15.53125 29.34375 
L 15.53125 26.03125 
Q 15.53125 17.234375 19.484375 11.859375 
Q 23.4375 6.5 29.34375 6.5 
Q 35.453125 6.5 38.9375 10.984375 
Q 42.4375 15.484375 42.4375 22.75 
Q 42.4375 30.078125 38.890625 34.59375 
Q 35.359375 39.109375 29.5 39.109375 
z
" id="Roboto-Regular-54"/>
     </defs>
     <use xlink:href="#Roboto-Regular-52"/>
     <use x="56.152344" xlink:href="#Roboto-Regular-54"/>
    </g>
    <!-- Conference -->
    <g transform="translate(7.2 116.640773)scale(0.12 -0.12)">
     <defs>
      <path d="M 60.546875 22.5625 
Q 59.234375 11.28125 52.21875 5.140625 
Q 45.21875 -0.984375 33.59375 -0.984375 
Q 21 -0.984375 13.40625 8.046875 
Q 5.8125 17.09375 5.8125 32.234375 
L 5.8125 39.0625 
Q 5.8125 48.96875 9.34375 56.484375 
Q 12.890625 64.015625 19.375 68.046875 
Q 25.875 72.078125 34.421875 72.078125 
Q 45.75 72.078125 52.578125 65.75 
Q 59.421875 59.421875 60.546875 48.25 
L 51.125 48.25 
Q 49.90625 56.734375 45.828125 60.546875 
Q 41.75 64.359375 34.421875 64.359375 
Q 25.4375 64.359375 20.328125 57.71875 
Q 15.234375 51.078125 15.234375 38.8125 
L 15.234375 31.9375 
Q 15.234375 20.359375 20.0625 13.515625 
Q 24.90625 6.6875 33.59375 6.6875 
Q 41.40625 6.6875 45.578125 10.21875 
Q 49.75 13.765625 51.125 22.5625 
z
" id="Roboto-Regular-67"/>
      <path d="M 4.4375 26.90625 
Q 4.4375 34.671875 7.484375 40.875 
Q 10.546875 47.078125 15.984375 50.4375 
Q 21.4375 53.8125 28.421875 53.8125 
Q 39.203125 53.8125 45.875 46.34375 
Q 52.546875 38.875 52.546875 26.46875 
L 52.546875 25.828125 
Q 52.546875 18.109375 49.578125 11.984375 
Q 46.625 5.859375 41.125 2.4375 
Q 35.640625 -0.984375 28.515625 -0.984375 
Q 17.78125 -0.984375 11.109375 6.484375 
Q 4.4375 13.96875 4.4375 26.265625 
z
M 13.53125 25.828125 
Q 13.53125 17.046875 17.609375 11.71875 
Q 21.6875 6.390625 28.515625 6.390625 
Q 35.40625 6.390625 39.453125 11.78125 
Q 43.5 17.1875 43.5 26.90625 
Q 43.5 35.59375 39.375 40.984375 
Q 35.25 46.390625 28.421875 46.390625 
Q 21.734375 46.390625 17.625 41.0625 
Q 13.53125 35.75 13.53125 25.828125 
z
" id="Roboto-Regular-111"/>
      <path d="M 15.375 52.828125 
L 15.671875 46.1875 
Q 21.734375 53.8125 31.5 53.8125 
Q 48.25 53.8125 48.390625 34.90625 
L 48.390625 0 
L 39.359375 0 
L 39.359375 34.96875 
Q 39.3125 40.671875 36.75 43.40625 
Q 34.1875 46.140625 28.765625 46.140625 
Q 24.359375 46.140625 21.03125 43.796875 
Q 17.71875 41.453125 15.875 37.640625 
L 15.875 0 
L 6.84375 0 
L 6.84375 52.828125 
z
" id="Roboto-Regular-110"/>
      <path d="M 11.28125 0 
L 11.28125 45.84375 
L 2.9375 45.84375 
L 2.9375 52.828125 
L 11.28125 52.828125 
L 11.28125 58.25 
Q 11.28125 66.75 15.8125 71.390625 
Q 20.359375 76.03125 28.65625 76.03125 
Q 31.78125 76.03125 34.859375 75.203125 
L 34.375 67.875 
Q 32.078125 68.3125 29.5 68.3125 
Q 25.09375 68.3125 22.703125 65.75 
Q 20.3125 63.1875 20.3125 58.40625 
L 20.3125 52.828125 
L 31.59375 52.828125 
L 31.59375 45.84375 
L 20.3125 45.84375 
L 20.3125 0 
z
" id="Roboto-Regular-102"/>
      <path d="M 28.765625 -0.984375 
Q 18.015625 -0.984375 11.28125 6.078125 
Q 4.546875 13.140625 4.546875 24.953125 
L 4.546875 26.609375 
Q 4.546875 34.46875 7.546875 40.640625 
Q 10.546875 46.828125 15.9375 50.3125 
Q 21.34375 53.8125 27.640625 53.8125 
Q 37.9375 53.8125 43.640625 47.015625 
Q 49.359375 40.234375 49.359375 27.59375 
L 49.359375 23.828125 
L 13.578125 23.828125 
Q 13.765625 16.015625 18.140625 11.203125 
Q 22.515625 6.390625 29.25 6.390625 
Q 34.03125 6.390625 37.34375 8.34375 
Q 40.671875 10.296875 43.171875 13.53125 
L 48.6875 9.234375 
Q 42.046875 -0.984375 28.765625 -0.984375 
z
M 27.640625 46.390625 
Q 22.171875 46.390625 18.453125 42.40625 
Q 14.75 38.421875 13.875 31.25 
L 40.328125 31.25 
L 40.328125 31.9375 
Q 39.9375 38.8125 36.609375 42.59375 
Q 33.296875 46.390625 27.640625 46.390625 
z
" id="Roboto-Regular-101"/>
      <path d="M 32.375 44.734375 
Q 30.328125 45.0625 27.9375 45.0625 
Q 19.046875 45.0625 15.875 37.5 
L 15.875 0 
L 6.84375 0 
L 6.84375 52.828125 
L 15.625 52.828125 
L 15.765625 46.734375 
Q 20.21875 53.8125 28.375 53.8125 
Q 31 53.8125 32.375 53.125 
z
" id="Roboto-Regular-114"/>
      <path d="M 28.03125 6.390625 
Q 32.859375 6.390625 36.46875 9.3125 
Q 40.09375 12.25 40.484375 16.65625 
L 49.03125 16.65625 
Q 48.78125 12.109375 45.890625 8 
Q 43.015625 3.90625 38.203125 1.453125 
Q 33.40625 -0.984375 28.03125 -0.984375 
Q 17.234375 -0.984375 10.859375 6.21875 
Q 4.5 13.421875 4.5 25.921875 
L 4.5 27.4375 
Q 4.5 35.15625 7.328125 41.15625 
Q 10.15625 47.171875 15.453125 50.484375 
Q 20.75 53.8125 27.984375 53.8125 
Q 36.859375 53.8125 42.75 48.484375 
Q 48.640625 43.171875 49.03125 34.671875 
L 40.484375 34.671875 
Q 40.09375 39.796875 36.59375 43.09375 
Q 33.109375 46.390625 27.984375 46.390625 
Q 21.09375 46.390625 17.3125 41.421875 
Q 13.53125 36.46875 13.53125 27.09375 
L 13.53125 25.390625 
Q 13.53125 16.265625 17.28125 11.328125 
Q 21.046875 6.390625 28.03125 6.390625 
z
" id="Roboto-Regular-99"/>
     </defs>
     <use xlink:href="#Roboto-Regular-67"/>
     <use x="65.087891" xlink:href="#Roboto-Regular-111"/>
     <use x="122.119141" xlink:href="#Roboto-Regular-110"/>
     <use x="177.294922" xlink:href="#Roboto-Regular-102"/>
     <use x="212.011719" xlink:href="#Roboto-Regular-101"/>
     <use x="264.990234" xlink:href="#Roboto-Regular-114"/>
     <use x="298.828125" xlink:href="#Roboto-Regular-101"/>
     <use x="351.806641" xlink:href="#Roboto-Regular-110"/>
     <use x="406.982422" xlink:href="#Roboto-Regular-99"/>
     <use x="459.326172" xlink:href="#Roboto-Regular-101"/>
    </g>
    <!-- Papers -->
    <g transform="translate(31.24125 129.878273)scale(0.12 -0.12)">
     <defs>
      <path d="M 17.625 27.828125 
L 17.625 0 
L 8.25 0 
L 8.25 71.09375 
L 34.46875 71.09375 
Q 46.140625 71.09375 52.75 65.140625 
Q 59.375 59.1875 59.375 49.359375 
Q 59.375 39.015625 52.90625 33.421875 
Q 46.4375 27.828125 34.375 27.828125 
z
M 17.625 35.5 
L 34.46875 35.5 
Q 42 35.5 46 39.03125 
Q 50 42.578125 50 49.265625 
Q 50 55.609375 46 59.421875 
Q 42 63.234375 35.015625 63.375 
L 17.625 63.375 
z
" id="Roboto-Regular-80"/>
      <path d="M 39.453125 0 
Q 38.671875 1.5625 38.1875 5.5625 
Q 31.890625 -0.984375 23.140625 -0.984375 
Q 15.328125 -0.984375 10.328125 3.4375 
Q 5.328125 7.859375 5.328125 14.65625 
Q 5.328125 22.90625 11.59375 27.46875 
Q 17.875 32.03125 29.25 32.03125 
L 38.03125 32.03125 
L 38.03125 36.1875 
Q 38.03125 40.921875 35.203125 43.71875 
Q 32.375 46.53125 26.859375 46.53125 
Q 22.015625 46.53125 18.75 44.09375 
Q 15.484375 41.65625 15.484375 38.1875 
L 6.390625 38.1875 
Q 6.390625 42.140625 9.203125 45.828125 
Q 12.015625 49.515625 16.8125 51.65625 
Q 21.625 53.8125 27.390625 53.8125 
Q 36.53125 53.8125 41.703125 49.234375 
Q 46.875 44.671875 47.078125 36.671875 
L 47.078125 12.359375 
Q 47.078125 5.078125 48.921875 0.78125 
L 48.921875 0 
z
M 24.46875 6.890625 
Q 28.71875 6.890625 32.515625 9.078125 
Q 36.328125 11.28125 38.03125 14.796875 
L 38.03125 25.640625 
L 30.953125 25.640625 
Q 14.359375 25.640625 14.359375 15.921875 
Q 14.359375 11.671875 17.1875 9.28125 
Q 20.015625 6.890625 24.46875 6.890625 
z
" id="Roboto-Regular-97"/>
      <path d="M 51.46875 25.828125 
Q 51.46875 13.765625 45.953125 6.390625 
Q 40.4375 -0.984375 31 -0.984375 
Q 21.390625 -0.984375 15.875 5.125 
L 15.875 -20.3125 
L 6.84375 -20.3125 
L 6.84375 52.828125 
L 15.09375 52.828125 
L 15.53125 46.96875 
Q 21.046875 53.8125 30.859375 53.8125 
Q 40.375 53.8125 45.921875 46.625 
Q 51.46875 39.453125 51.46875 26.65625 
z
M 42.4375 26.859375 
Q 42.4375 35.796875 38.625 40.96875 
Q 34.8125 46.140625 28.171875 46.140625 
Q 19.96875 46.140625 15.875 38.875 
L 15.875 13.625 
Q 19.921875 6.390625 28.265625 6.390625 
Q 34.765625 6.390625 38.59375 11.546875 
Q 42.4375 16.703125 42.4375 26.859375 
z
" id="Roboto-Regular-112"/>
      <path d="M 37.59375 14.015625 
Q 37.59375 17.671875 34.828125 19.703125 
Q 32.078125 21.734375 25.21875 23.1875 
Q 18.359375 24.65625 14.328125 26.703125 
Q 10.296875 28.765625 8.375 31.59375 
Q 6.453125 34.421875 6.453125 38.328125 
Q 6.453125 44.828125 11.9375 49.3125 
Q 17.4375 53.8125 25.984375 53.8125 
Q 34.96875 53.8125 40.546875 49.171875 
Q 46.140625 44.53125 46.140625 37.3125 
L 37.0625 37.3125 
Q 37.0625 41.015625 33.90625 43.703125 
Q 30.765625 46.390625 25.984375 46.390625 
Q 21.046875 46.390625 18.265625 44.234375 
Q 15.484375 42.09375 15.484375 38.625 
Q 15.484375 35.359375 18.0625 33.6875 
Q 20.65625 32.03125 27.421875 30.515625 
Q 34.1875 29 38.375 26.90625 
Q 42.578125 24.8125 44.59375 21.84375 
Q 46.625 18.890625 46.625 14.65625 
Q 46.625 7.5625 40.953125 3.28125 
Q 35.296875 -0.984375 26.265625 -0.984375 
Q 19.921875 -0.984375 15.03125 1.265625 
Q 10.15625 3.515625 7.390625 7.546875 
Q 4.640625 11.578125 4.640625 16.265625 
L 13.671875 16.265625 
Q 13.921875 11.71875 17.3125 9.046875 
Q 20.703125 6.390625 26.265625 6.390625 
Q 31.390625 6.390625 34.484375 8.46875 
Q 37.59375 10.546875 37.59375 14.015625 
z
" id="Roboto-Regular-115"/>
     </defs>
     <use xlink:href="#Roboto-Regular-80"/>
     <use x="63.085938" xlink:href="#Roboto-Regular-97"/>
     <use x="117.480469" xlink:href="#Roboto-Regular-112"/>
     <use x="173.583984" xlink:href="#Roboto-Regular-101"/>
     <use x="226.5625" xlink:href="#Roboto-Regular-114"/>
     <use x="260.400391" xlink:href="#Roboto-Regular-115"/>
    </g>
   </g>
   <g id="patch_4">
    <path d="M 177.73904 26.15625 
L 169.881249 26.15625 
L 159.136453 37.181357 
" style="fill:none;stroke:#000000;stroke-linecap:round;"/>
   </g>
   <g id="text_2">
    <g id="patch_5">
     <path d="M 180.096975 51.1125 
L 232.296975 51.1125 
L 232.296975 1.2 
L 180.096975 1.2 
z
" style="fill:#ffffff;stroke:#ffffff;stroke-linejoin:miter;stroke-width:0.72;"/>
    </g>
    <!-- 15 -->
    <g transform="translate(186.096975 16.2)scale(0.12 -0.12)">
     <defs>
      <path d="M 35.59375 0 
L 26.515625 0 
L 26.515625 60.203125 
L 8.296875 53.515625 
L 8.296875 61.71875 
L 34.1875 71.4375 
L 35.59375 71.4375 
z
" id="Roboto-Regular-49"/>
      <path d="M 10.0625 35.640625 
L 13.671875 71.09375 
L 50.09375 71.09375 
L 50.09375 62.75 
L 21.34375 62.75 
L 19.1875 43.359375 
Q 24.421875 46.4375 31.0625 46.4375 
Q 40.765625 46.4375 46.484375 40.015625 
Q 52.203125 33.59375 52.203125 22.65625 
Q 52.203125 11.671875 46.265625 5.34375 
Q 40.328125 -0.984375 29.6875 -0.984375 
Q 20.265625 -0.984375 14.296875 4.234375 
Q 8.34375 9.46875 7.515625 18.703125 
L 16.0625 18.703125 
Q 16.890625 12.59375 20.40625 9.484375 
Q 23.921875 6.390625 29.6875 6.390625 
Q 35.984375 6.390625 39.578125 10.6875 
Q 43.171875 14.984375 43.171875 22.5625 
Q 43.171875 29.6875 39.28125 34 
Q 35.40625 38.328125 28.953125 38.328125 
Q 23.046875 38.328125 19.671875 35.75 
L 17.28125 33.796875 
z
" id="Roboto-Regular-53"/>
     </defs>
     <use xlink:href="#Roboto-Regular-49"/>
     <use x="56.152344" xlink:href="#Roboto-Regular-53"/>
    </g>
    <!-- Journal -->
    <g transform="translate(186.096975 29.4375)scale(0.12 -0.12)">
     <defs>
      <path d="M 38.03125 71.09375 
L 47.46875 71.09375 
L 47.46875 20.75 
Q 47.46875 10.546875 41.328125 4.78125 
Q 35.203125 -0.984375 25 -0.984375 
Q 14.40625 -0.984375 8.5 4.4375 
Q 2.59375 9.859375 2.59375 19.625 
L 11.96875 19.625 
Q 11.96875 13.53125 15.3125 10.109375 
Q 18.65625 6.6875 25 6.6875 
Q 30.8125 6.6875 34.390625 10.34375 
Q 37.984375 14.015625 38.03125 20.609375 
z
" id="Roboto-Regular-74"/>
      <path d="M 39.453125 5.21875 
Q 34.1875 -0.984375 23.96875 -0.984375 
Q 15.53125 -0.984375 11.109375 3.921875 
Q 6.6875 8.84375 6.640625 18.453125 
L 6.640625 52.828125 
L 15.671875 52.828125 
L 15.671875 18.703125 
Q 15.671875 6.6875 25.4375 6.6875 
Q 35.796875 6.6875 39.203125 14.40625 
L 39.203125 52.828125 
L 48.25 52.828125 
L 48.25 0 
L 39.65625 0 
z
" id="Roboto-Regular-117"/>
      <path d="M 16.65625 0 
L 7.625 0 
L 7.625 75 
L 16.65625 75 
z
" id="Roboto-Regular-108"/>
     </defs>
     <use xlink:href="#Roboto-Regular-74"/>
     <use x="55.175781" xlink:href="#Roboto-Regular-111"/>
     <use x="112.207031" xlink:href="#Roboto-Regular-117"/>
     <use x="167.333984" xlink:href="#Roboto-Regular-114"/>
     <use x="201.171875" xlink:href="#Roboto-Regular-110"/>
     <use x="256.347656" xlink:href="#Roboto-Regular-97"/>
     <use x="310.742188" xlink:href="#Roboto-Regular-108"/>
    </g>
    <!-- Papers -->
    <g transform="translate(186.096975 42.675)scale(0.12 -0.12)">
     <use xlink:href="#Roboto-Regular-80"/>
     <use x="63.085938" xlink:href="#Roboto-Regular-97"/>
     <use x="117.480469" xlink:href="#Roboto-Regular-112"/>
     <use x="173.583984" xlink:href="#Roboto-Regular-101"/>
     <use x="226.5625" xlink:href="#Roboto-Regular-114"/>
     <use x="260.400391" xlink:href="#Roboto-Regular-115"/>
    </g>
   </g>
   <g id="patch_6">
    <path d="M 127.388175 26.269886 
C 123.087593 26.269886 118.810701 26.907821 114.697315 28.162836 
C 110.583929 29.417851 106.679366 31.276119 103.111272 33.676892 
C 99.543178 36.077665 96.350862 38.994493 93.638684 42.332022 
C 90.926507 45.669551 88.724348 49.391011 87.104198 53.374743 
C 85.484049 57.358476 84.463759 61.560591 84.076682 65.843718 
C 83.689605 70.126846 83.940006 74.443797 84.819699 78.653446 
C 85.699392 82.863095 87.198685 86.919065 89.268565 90.68876 
C 91.338445 94.458456 93.956108 97.900346 97.035979 100.901912 
C 100.11585 103.903478 103.623999 106.431652 107.44574 108.403784 
C 111.26748 110.375916 115.360709 111.77028 119.591613 112.541291 
C 123.822516 113.312303 128.144484 113.451469 132.416224 112.954239 
C 136.687965 112.457009 140.862417 111.328861 144.803114 109.606676 
C 148.74381 107.884491 152.407335 105.587243 155.673924 102.79003 
C 158.940514 99.992817 161.77418 96.726457 164.082286 93.097731 
C 166.390392 89.469005 168.14751 85.517891 169.296198 81.373555 
C 170.444886 77.229218 170.972488 72.937319 170.861757 68.638162 
L 157.819683 68.97408 
C 157.897194 71.983489 157.527873 74.987819 156.723791 77.888854 
C 155.91971 80.78989 154.689727 83.55567 153.074053 86.095778 
C 151.458378 88.635886 149.474812 90.922338 147.1882 92.880387 
C 144.901587 94.838436 142.337119 96.44651 139.578632 97.652039 
C 136.820145 98.857569 133.898028 99.647272 130.90781 99.995333 
C 127.917591 100.343394 124.892214 100.245978 121.930581 99.70627 
C 118.968949 99.166562 116.103689 98.190507 113.42847 96.810015 
C 110.753252 95.429522 108.297548 93.659801 106.141638 91.558704 
C 103.985728 89.457608 102.153364 87.048285 100.704448 84.409498 
C 99.255532 81.770711 98.206027 78.931533 97.590242 75.984778 
C 96.974457 73.038024 96.799176 70.016158 97.07013 67.017969 
C 97.341084 64.01978 98.055287 61.078299 99.189391 58.289686 
C 100.323496 55.501074 101.865007 52.896052 103.763532 50.559781 
C 105.662056 48.223511 107.896677 46.181732 110.394343 44.50119 
C 112.892009 42.820649 115.625203 41.519861 118.504573 40.641351 
C 121.383943 39.762841 124.377767 39.316286 127.388175 39.316286 
L 127.388175 26.269886 
z
" style="fill:#450256;"/>
   </g>
   <g id="patch_7">
    <path d="M 170.861757 68.638162 
C 170.569885 57.306155 165.858504 46.525592 157.740371 38.61386 
C 149.622238 30.702129 138.723941 26.269886 127.388175 26.269886 
L 127.388175 39.316286 
C 135.323211 39.316286 142.952019 42.418856 148.634712 47.957068 
C 154.317405 53.49528 157.615372 61.041674 157.819683 68.97408 
L 170.861757 68.638162 
z
" style="fill:#2070b4;"/>
   </g>
   <g id="matplotlib.axis_1"/>
   <g id="matplotlib.axis_2"/>
  </g>
 </g>
</svg>
