<?xml version="1.0" encoding="utf-8"?>
<!-- Generator: Adobe Illustrator 26.0.2, SVG Export Plug-In . SVG Version: 6.00 Build 0)  -->
<svg version="1.1" id="Layer_1" xmlns="http://www.w3.org/2000/svg" xmlns:xlink="http://www.w3.org/1999/xlink" x="0px" y="0px"
	 viewBox="0 0 495.6 232.9" style="enable-background:new 0 0 495.6 232.9;" xml:space="preserve">
<style type="text/css">
	.st0{fill:#2A91A7;}
	.st1{fill:#296AFB;}
	.st2{fill:#33CBCC;}
	.st3{fill:#FFFFFF;}
	.st4{fill:#FFFF77;}
	.st5{fill:#AFE979;}
	.st6{fill:#33A9BC;}
	.st7{fill:#8C44CF;}
	.st8{fill:#6D1F9D;}
	.st9{fill:#D0D7E0;}
	.st10{fill:#E8E8E8;}
</style>
<g id="patch_2">
	<g>
		<path class="st0" d="M255.4,191.4c-14.8-6.3-27.5-16.8-36.4-30.2s-13.6-29.2-13.6-45.3s4.7-31.9,13.6-45.3s21.6-23.9,36.4-30.2
			c-13.5-8.7-29.2-13.5-45.2-14.1s-32,3.2-46.1,11C150,45,138.2,56.4,130,70.2s-12.5,29.6-12.5,45.7s4.3,31.9,12.5,45.7
			c8.2,13.8,20,25.2,34.1,32.9c14.1,7.7,30,11.5,46.1,11C226.2,204.9,241.8,200.1,255.4,191.4"/>
	</g>
</g>
<g>
	<path class="st1" d="M255.4,40.4c12.7,8.1,23.1,19.3,30.3,32.5c7.2,13.2,11,28,11,43s-3.8,29.8-11,43
		c-7.2,13.2-17.7,24.4-30.3,32.5c12.5,5.3,26,7.4,39.5,6.1c13.5-1.2,26.4-5.8,37.7-13.3c11.3-7.5,20.5-17.6,26.9-29.6
		c6.4-11.9,9.8-25.3,9.8-38.8s-3.4-26.9-9.8-38.8s-15.7-22.1-26.9-29.6c-11.3-7.5-24.2-12-37.7-13.3C281.4,33,267.9,35.1,255.4,40.4
		"/>
</g>
<g id="patch_4">
	<g>
		<path class="st2" d="M255.4,191.4c12.7-8.1,23.1-19.3,30.3-32.5c7.2-13.2,11-28,11-43s-3.8-29.8-11-43
			c-7.2-13.2-17.7-24.4-30.3-32.5c-14.8,6.3-27.5,16.8-36.4,30.2s-13.6,29.2-13.6,45.3s4.7,31.9,13.6,45.3S240.6,185.1,255.4,191.4"
			/>
	</g>
</g>
<g>
	<path class="st3" d="M153.5,118.1h-1.1v-6.7c-0.3,0.2-0.6,0.5-1,0.7s-0.8,0.4-1.1,0.5v-1c0.6-0.3,1.1-0.6,1.5-1s0.8-0.8,0.9-1.1
		h0.7V118.1z"/>
	<path class="st3" d="M159.5,118.1v-2.1h-3.7v-1l3.9-5.6h0.9v5.6h1.2v1h-1.2v2.1H159.5z M159.5,115.1v-3.9l-2.7,3.9H159.5z"/>
	<path class="st3" d="M168.4,117.1v1h-5.7c0-0.3,0-0.5,0.1-0.7c0.1-0.4,0.4-0.8,0.7-1.1s0.8-0.8,1.4-1.3c0.9-0.8,1.6-1.4,1.9-1.8
		s0.5-0.9,0.5-1.3c0-0.4-0.1-0.8-0.4-1.1s-0.7-0.4-1.2-0.4c-0.5,0-0.9,0.2-1.2,0.5s-0.5,0.7-0.5,1.3l-1.1-0.1
		c0.1-0.8,0.4-1.4,0.8-1.8s1.1-0.6,2-0.6c0.8,0,1.5,0.2,2,0.7s0.7,1,0.7,1.7c0,0.3-0.1,0.7-0.2,1s-0.4,0.7-0.7,1s-0.9,0.9-1.6,1.5
		c-0.6,0.5-1,0.9-1.2,1.1s-0.3,0.4-0.4,0.6H168.4z"/>
</g>
<g>
	<path d="M242.2,116.2l1-0.1c0.1,0.5,0.2,0.8,0.5,1s0.6,0.3,0.9,0.3c0.3,0,0.6-0.1,0.9-0.2s0.4-0.3,0.6-0.6s0.3-0.6,0.4-1
		s0.2-0.9,0.2-1.3c0,0,0-0.1,0-0.2c-0.2,0.3-0.5,0.6-0.9,0.8s-0.8,0.3-1.2,0.3c-0.7,0-1.3-0.3-1.8-0.8s-0.7-1.2-0.7-2
		c0-0.9,0.3-1.6,0.8-2.1s1.2-0.8,1.9-0.8c0.6,0,1.1,0.2,1.5,0.5s0.8,0.7,1.1,1.3s0.4,1.4,0.4,2.4c0,1.1-0.1,2-0.4,2.6
		s-0.6,1.1-1.1,1.5s-1,0.5-1.7,0.5c-0.7,0-1.2-0.2-1.6-0.6S242.3,116.8,242.2,116.2z M246.6,112.4c0-0.6-0.2-1.1-0.5-1.4
		s-0.7-0.5-1.2-0.5c-0.5,0-0.9,0.2-1.2,0.6s-0.5,0.9-0.5,1.5c0,0.5,0.2,1,0.5,1.3s0.7,0.5,1.2,0.5c0.5,0,0.9-0.2,1.2-0.5
		S246.6,113,246.6,112.4z"/>
	<path d="M252.7,118.1h-1.1v-6.7c-0.3,0.2-0.6,0.5-1,0.7s-0.8,0.4-1.1,0.5v-1c0.6-0.3,1.1-0.6,1.5-1s0.8-0.8,0.9-1.1h0.7V118.1z"/>
</g>
<g>
	<path d="M325.9,118.1h-1.1v-6.7c-0.3,0.2-0.6,0.5-1,0.7s-0.8,0.4-1.1,0.5v-1c0.6-0.3,1.1-0.6,1.5-1s0.8-0.8,0.9-1.1h0.7V118.1z"/>
	<path d="M328.6,113.9c0-1,0.1-1.8,0.3-2.5s0.5-1.1,0.9-1.4s0.9-0.5,1.6-0.5c0.5,0,0.9,0.1,1.2,0.3s0.6,0.5,0.9,0.8s0.4,0.8,0.5,1.3
		s0.2,1.2,0.2,2c0,1-0.1,1.8-0.3,2.4s-0.5,1.1-0.9,1.4s-0.9,0.5-1.6,0.5c-0.8,0-1.5-0.3-2-0.9C328.9,116.7,328.6,115.5,328.6,113.9z
		 M329.7,113.9c0,1.4,0.2,2.3,0.5,2.8s0.7,0.7,1.2,0.7s0.9-0.2,1.2-0.7s0.5-1.4,0.5-2.8c0-1.4-0.2-2.4-0.5-2.8s-0.7-0.7-1.2-0.7
		c-0.5,0-0.9,0.2-1.2,0.6C329.9,111.5,329.7,112.5,329.7,113.9z"/>
	<path d="M338.6,118.1v-2.1h-3.7v-1l3.9-5.6h0.9v5.6h1.2v1h-1.2v2.1H338.6z M338.6,115.1v-3.9l-2.7,3.9H338.6z"/>
</g>
<g>
	<path d="M62,184.7v-8.6h3.8c0.8,0,1.3,0.1,1.7,0.2s0.7,0.4,1,0.8s0.4,0.8,0.4,1.3c0,0.6-0.2,1.1-0.6,1.5s-1,0.7-1.8,0.8
		c0.3,0.1,0.5,0.3,0.7,0.4c0.3,0.3,0.6,0.7,0.9,1.1l1.5,2.3h-1.4l-1.1-1.8c-0.3-0.5-0.6-0.9-0.8-1.2s-0.4-0.5-0.6-0.6
		s-0.3-0.2-0.5-0.2c-0.1,0-0.3,0-0.6,0h-1.3v3.8H62z M63.2,179.9h2.4c0.5,0,0.9-0.1,1.2-0.2s0.5-0.3,0.7-0.5s0.2-0.5,0.2-0.8
		c0-0.4-0.1-0.7-0.4-1s-0.8-0.4-1.4-0.4h-2.7V179.9z"/>
	<path d="M74.8,182.7l1.1,0.1c-0.2,0.6-0.5,1.1-1,1.5s-1.1,0.5-1.8,0.5c-0.9,0-1.6-0.3-2.2-0.8s-0.8-1.3-0.8-2.4
		c0-1,0.3-1.9,0.8-2.4s1.2-0.9,2.1-0.9c0.8,0,1.5,0.3,2,0.8s0.8,1.4,0.8,2.4c0,0.1,0,0.2,0,0.3h-4.6c0,0.7,0.2,1.2,0.6,1.6
		s0.8,0.5,1.3,0.5c0.4,0,0.7-0.1,1-0.3S74.7,183.2,74.8,182.7z M71.3,181h3.5c0-0.5-0.2-0.9-0.4-1.2c-0.3-0.4-0.8-0.6-1.3-0.6
		c-0.5,0-0.9,0.2-1.2,0.5S71.4,180.5,71.3,181z"/>
	<path d="M76.8,182.9l1-0.2c0.1,0.4,0.2,0.7,0.5,1s0.6,0.3,1.1,0.3c0.5,0,0.8-0.1,1.1-0.3s0.4-0.4,0.4-0.7c0-0.2-0.1-0.4-0.3-0.6
		c-0.1-0.1-0.5-0.2-1.1-0.4c-0.8-0.2-1.3-0.4-1.6-0.5s-0.5-0.3-0.7-0.6s-0.2-0.5-0.2-0.8c0-0.3,0.1-0.5,0.2-0.8s0.3-0.4,0.5-0.6
		c0.2-0.1,0.4-0.2,0.7-0.3s0.6-0.1,0.9-0.1c0.5,0,0.9,0.1,1.3,0.2s0.6,0.3,0.8,0.6s0.3,0.6,0.4,1l-1,0.1c0-0.3-0.2-0.6-0.4-0.8
		s-0.5-0.3-1-0.3c-0.5,0-0.8,0.1-1,0.2S78,179.8,78,180c0,0.1,0,0.3,0.1,0.4c0.1,0.1,0.2,0.2,0.4,0.3c0.1,0,0.4,0.1,0.9,0.3
		c0.7,0.2,1.3,0.4,1.6,0.5s0.5,0.3,0.7,0.6s0.3,0.5,0.3,0.9c0,0.4-0.1,0.7-0.3,1s-0.5,0.6-0.9,0.7s-0.8,0.3-1.3,0.3
		c-0.8,0-1.4-0.2-1.8-0.5S76.9,183.5,76.8,182.9z"/>
	<path d="M87.5,182.7l1.1,0.1c-0.2,0.6-0.5,1.1-1,1.5s-1.1,0.5-1.8,0.5c-0.9,0-1.6-0.3-2.2-0.8s-0.8-1.3-0.8-2.4
		c0-1,0.3-1.9,0.8-2.4s1.2-0.9,2.1-0.9c0.8,0,1.5,0.3,2,0.8s0.8,1.4,0.8,2.4c0,0.1,0,0.2,0,0.3H84c0,0.7,0.2,1.2,0.6,1.6
		s0.8,0.5,1.3,0.5c0.4,0,0.7-0.1,1-0.3S87.3,183.2,87.5,182.7z M84,181h3.5c0-0.5-0.2-0.9-0.4-1.2c-0.3-0.4-0.8-0.6-1.3-0.6
		c-0.5,0-0.9,0.2-1.2,0.5S84.1,180.5,84,181z"/>
	<path d="M94,184c-0.4,0.3-0.8,0.6-1.1,0.7s-0.7,0.2-1.2,0.2c-0.7,0-1.2-0.2-1.6-0.5s-0.6-0.8-0.6-1.3c0-0.3,0.1-0.6,0.2-0.8
		s0.3-0.5,0.5-0.6s0.5-0.3,0.8-0.3c0.2-0.1,0.5-0.1,0.9-0.2c0.9-0.1,1.5-0.2,1.9-0.4c0-0.1,0-0.2,0-0.3c0-0.4-0.1-0.7-0.3-0.9
		c-0.3-0.2-0.7-0.4-1.2-0.4c-0.5,0-0.9,0.1-1.1,0.3s-0.4,0.5-0.5,0.9l-1-0.1c0.1-0.4,0.2-0.8,0.5-1.1s0.5-0.5,0.9-0.6
		s0.9-0.2,1.4-0.2c0.5,0,1,0.1,1.3,0.2s0.6,0.3,0.7,0.5s0.3,0.4,0.3,0.7c0,0.2,0.1,0.5,0.1,1v1.4c0,1,0,1.6,0.1,1.9s0.1,0.5,0.3,0.7
		h-1.1C94.1,184.5,94,184.3,94,184z M93.9,181.6c-0.4,0.2-1,0.3-1.7,0.4c-0.4,0.1-0.7,0.1-0.9,0.2s-0.3,0.2-0.4,0.3
		s-0.1,0.3-0.1,0.5c0,0.3,0.1,0.5,0.3,0.7s0.5,0.3,0.9,0.3c0.4,0,0.8-0.1,1.1-0.3s0.5-0.4,0.7-0.7c0.1-0.2,0.2-0.6,0.2-1.1V181.6z"
		/>
	<path d="M96.6,184.7v-6.2h0.9v0.9c0.2-0.4,0.5-0.7,0.7-0.9s0.4-0.2,0.7-0.2c0.4,0,0.7,0.1,1.1,0.3l-0.4,1c-0.3-0.2-0.5-0.2-0.8-0.2
		c-0.2,0-0.4,0.1-0.6,0.2s-0.3,0.3-0.4,0.6c-0.1,0.4-0.2,0.8-0.2,1.2v3.3H96.6z"/>
	<path d="M104.6,182.4l1,0.1c-0.1,0.7-0.4,1.3-0.9,1.7s-1,0.6-1.7,0.6c-0.9,0-1.5-0.3-2.1-0.8s-0.8-1.4-0.8-2.4
		c0-0.7,0.1-1.3,0.3-1.8s0.6-0.9,1-1.1s1-0.4,1.5-0.4c0.7,0,1.2,0.2,1.7,0.5s0.7,0.8,0.8,1.5l-1,0.2c-0.1-0.4-0.3-0.7-0.5-0.9
		s-0.5-0.3-0.9-0.3c-0.5,0-1,0.2-1.3,0.6s-0.5,1-0.5,1.8c0,0.8,0.2,1.4,0.5,1.8s0.7,0.6,1.3,0.6c0.4,0,0.8-0.1,1-0.4
		S104.6,183,104.6,182.4z"/>
	<path d="M106.6,184.7v-8.6h1.1v3.1c0.5-0.6,1.1-0.9,1.9-0.9c0.5,0,0.9,0.1,1.2,0.3s0.6,0.4,0.7,0.8s0.2,0.8,0.2,1.4v3.9h-1.1v-3.9
		c0-0.5-0.1-0.9-0.3-1.2s-0.6-0.4-1-0.4c-0.3,0-0.6,0.1-0.9,0.2s-0.5,0.4-0.6,0.7s-0.2,0.7-0.2,1.1v3.4H106.6z"/>
	<path d="M117.5,182.7l1.1,0.1c-0.2,0.6-0.5,1.1-1,1.5s-1.1,0.5-1.8,0.5c-0.9,0-1.6-0.3-2.2-0.8s-0.8-1.3-0.8-2.4
		c0-1,0.3-1.9,0.8-2.4s1.2-0.9,2.1-0.9c0.8,0,1.5,0.3,2,0.8s0.8,1.4,0.8,2.4c0,0.1,0,0.2,0,0.3H114c0,0.7,0.2,1.2,0.6,1.6
		s0.8,0.5,1.3,0.5c0.4,0,0.7-0.1,1-0.3S117.3,183.2,117.5,182.7z M114,181h3.5c0-0.5-0.2-0.9-0.4-1.2c-0.3-0.4-0.8-0.6-1.3-0.6
		c-0.5,0-0.9,0.2-1.2,0.5S114.1,180.5,114,181z"/>
	<path d="M119.9,184.7v-6.2h0.9v0.9c0.2-0.4,0.5-0.7,0.7-0.9s0.4-0.2,0.7-0.2c0.4,0,0.7,0.1,1.1,0.3l-0.4,1
		c-0.3-0.2-0.5-0.2-0.8-0.2c-0.2,0-0.4,0.1-0.6,0.2s-0.3,0.3-0.4,0.6c-0.1,0.4-0.2,0.8-0.2,1.2v3.3H119.9z"/>
	<path d="M130.9,184.7h-1.1V178c-0.3,0.2-0.6,0.5-1,0.7s-0.8,0.4-1.1,0.5v-1c0.6-0.3,1.1-0.6,1.5-1s0.8-0.8,0.9-1.1h0.7V184.7z"/>
</g>
<g>
	<path d="M357.5,184.7v-8.6h3.8c0.8,0,1.3,0.1,1.7,0.2s0.7,0.4,1,0.8s0.4,0.8,0.4,1.3c0,0.6-0.2,1.1-0.6,1.5s-1,0.7-1.8,0.8
		c0.3,0.1,0.5,0.3,0.7,0.4c0.3,0.3,0.6,0.7,0.9,1.1l1.5,2.3h-1.4l-1.1-1.8c-0.3-0.5-0.6-0.9-0.8-1.2s-0.4-0.5-0.6-0.6
		s-0.3-0.2-0.5-0.2c-0.1,0-0.3,0-0.6,0h-1.3v3.8H357.5z M358.7,179.9h2.4c0.5,0,0.9-0.1,1.2-0.2s0.5-0.3,0.7-0.5s0.2-0.5,0.2-0.8
		c0-0.4-0.1-0.7-0.4-1s-0.8-0.4-1.4-0.4h-2.7V179.9z"/>
	<path d="M370.3,182.7l1.1,0.1c-0.2,0.6-0.5,1.1-1,1.5s-1.1,0.5-1.8,0.5c-0.9,0-1.6-0.3-2.2-0.8s-0.8-1.3-0.8-2.4
		c0-1,0.3-1.9,0.8-2.4s1.2-0.9,2.1-0.9c0.8,0,1.5,0.3,2,0.8s0.8,1.4,0.8,2.4c0,0.1,0,0.2,0,0.3h-4.6c0,0.7,0.2,1.2,0.6,1.6
		s0.8,0.5,1.3,0.5c0.4,0,0.7-0.1,1-0.3S370.1,183.2,370.3,182.7z M366.8,181h3.5c0-0.5-0.2-0.9-0.4-1.2c-0.3-0.4-0.8-0.6-1.3-0.6
		c-0.5,0-0.9,0.2-1.2,0.5S366.9,180.5,366.8,181z"/>
	<path d="M372.3,182.9l1-0.2c0.1,0.4,0.2,0.7,0.5,1s0.6,0.3,1.1,0.3c0.5,0,0.8-0.1,1.1-0.3s0.4-0.4,0.4-0.7c0-0.2-0.1-0.4-0.3-0.6
		c-0.1-0.1-0.5-0.2-1.1-0.4c-0.8-0.2-1.3-0.4-1.6-0.5s-0.5-0.3-0.7-0.6s-0.2-0.5-0.2-0.8c0-0.3,0.1-0.5,0.2-0.8s0.3-0.4,0.5-0.6
		c0.2-0.1,0.4-0.2,0.7-0.3s0.6-0.1,0.9-0.1c0.5,0,0.9,0.1,1.3,0.2s0.6,0.3,0.8,0.6s0.3,0.6,0.4,1l-1,0.1c0-0.3-0.2-0.6-0.4-0.8
		s-0.5-0.3-1-0.3c-0.5,0-0.8,0.1-1,0.2s-0.3,0.3-0.3,0.6c0,0.1,0,0.3,0.1,0.4c0.1,0.1,0.2,0.2,0.4,0.3c0.1,0,0.4,0.1,0.9,0.3
		c0.7,0.2,1.3,0.4,1.6,0.5s0.5,0.3,0.7,0.6s0.3,0.5,0.3,0.9c0,0.4-0.1,0.7-0.3,1s-0.5,0.6-0.9,0.7s-0.8,0.3-1.3,0.3
		c-0.8,0-1.4-0.2-1.8-0.5S372.4,183.5,372.3,182.9z"/>
	<path d="M383,182.7l1.1,0.1c-0.2,0.6-0.5,1.1-1,1.5s-1.1,0.5-1.8,0.5c-0.9,0-1.6-0.3-2.2-0.8s-0.8-1.3-0.8-2.4c0-1,0.3-1.9,0.8-2.4
		s1.2-0.9,2.1-0.9c0.8,0,1.5,0.3,2,0.8s0.8,1.4,0.8,2.4c0,0.1,0,0.2,0,0.3h-4.6c0,0.7,0.2,1.2,0.6,1.6s0.8,0.5,1.3,0.5
		c0.4,0,0.7-0.1,1-0.3S382.8,183.2,383,182.7z M379.5,181h3.5c0-0.5-0.2-0.9-0.4-1.2c-0.3-0.4-0.8-0.6-1.3-0.6
		c-0.5,0-0.9,0.2-1.2,0.5S379.5,180.5,379.5,181z"/>
	<path d="M389.4,184c-0.4,0.3-0.8,0.6-1.1,0.7s-0.7,0.2-1.2,0.2c-0.7,0-1.2-0.2-1.6-0.5s-0.6-0.8-0.6-1.3c0-0.3,0.1-0.6,0.2-0.8
		s0.3-0.5,0.5-0.6s0.5-0.3,0.8-0.3c0.2-0.1,0.5-0.1,0.9-0.2c0.9-0.1,1.5-0.2,1.9-0.4c0-0.1,0-0.2,0-0.3c0-0.4-0.1-0.7-0.3-0.9
		c-0.3-0.2-0.7-0.4-1.2-0.4c-0.5,0-0.9,0.1-1.1,0.3s-0.4,0.5-0.5,0.9l-1-0.1c0.1-0.4,0.2-0.8,0.5-1.1s0.5-0.5,0.9-0.6
		s0.9-0.2,1.4-0.2c0.5,0,1,0.1,1.3,0.2s0.6,0.3,0.7,0.5s0.3,0.4,0.3,0.7c0,0.2,0.1,0.5,0.1,1v1.4c0,1,0,1.6,0.1,1.9s0.1,0.5,0.3,0.7
		h-1.1C389.6,184.5,389.5,184.3,389.4,184z M389.4,181.6c-0.4,0.2-1,0.3-1.7,0.4c-0.4,0.1-0.7,0.1-0.9,0.2s-0.3,0.2-0.4,0.3
		s-0.1,0.3-0.1,0.5c0,0.3,0.1,0.5,0.3,0.7s0.5,0.3,0.9,0.3c0.4,0,0.8-0.1,1.1-0.3s0.5-0.4,0.7-0.7c0.1-0.2,0.2-0.6,0.2-1.1V181.6z"
		/>
	<path d="M392.1,184.7v-6.2h0.9v0.9c0.2-0.4,0.5-0.7,0.7-0.9s0.4-0.2,0.7-0.2c0.4,0,0.7,0.1,1.1,0.3l-0.4,1
		c-0.3-0.2-0.5-0.2-0.8-0.2c-0.2,0-0.4,0.1-0.6,0.2s-0.3,0.3-0.4,0.6c-0.1,0.4-0.2,0.8-0.2,1.2v3.3H392.1z"/>
	<path d="M400.1,182.4l1,0.1c-0.1,0.7-0.4,1.3-0.9,1.7s-1,0.6-1.7,0.6c-0.9,0-1.5-0.3-2.1-0.8s-0.8-1.4-0.8-2.4
		c0-0.7,0.1-1.3,0.3-1.8s0.6-0.9,1-1.1s1-0.4,1.5-0.4c0.7,0,1.2,0.2,1.7,0.5s0.7,0.8,0.8,1.5l-1,0.2c-0.1-0.4-0.3-0.7-0.5-0.9
		s-0.5-0.3-0.9-0.3c-0.5,0-1,0.2-1.3,0.6s-0.5,1-0.5,1.8c0,0.8,0.2,1.4,0.5,1.8s0.7,0.6,1.3,0.6c0.4,0,0.8-0.1,1-0.4
		S400,183,400.1,182.4z"/>
	<path d="M402.1,184.7v-8.6h1.1v3.1c0.5-0.6,1.1-0.9,1.9-0.9c0.5,0,0.9,0.1,1.2,0.3s0.6,0.4,0.7,0.8s0.2,0.8,0.2,1.4v3.9h-1.1v-3.9
		c0-0.5-0.1-0.9-0.3-1.2s-0.6-0.4-1-0.4c-0.3,0-0.6,0.1-0.9,0.2s-0.5,0.4-0.6,0.7s-0.2,0.7-0.2,1.1v3.4H402.1z"/>
	<path d="M413,182.7l1.1,0.1c-0.2,0.6-0.5,1.1-1,1.5s-1.1,0.5-1.8,0.5c-0.9,0-1.6-0.3-2.2-0.8s-0.8-1.3-0.8-2.4c0-1,0.3-1.9,0.8-2.4
		s1.2-0.9,2.1-0.9c0.8,0,1.5,0.3,2,0.8s0.8,1.4,0.8,2.4c0,0.1,0,0.2,0,0.3h-4.6c0,0.7,0.2,1.2,0.6,1.6s0.8,0.5,1.3,0.5
		c0.4,0,0.7-0.1,1-0.3S412.8,183.2,413,182.7z M409.5,181h3.5c0-0.5-0.2-0.9-0.4-1.2c-0.3-0.4-0.8-0.6-1.3-0.6
		c-0.5,0-0.9,0.2-1.2,0.5S409.6,180.5,409.5,181z"/>
	<path d="M415.4,184.7v-6.2h0.9v0.9c0.2-0.4,0.5-0.7,0.7-0.9s0.4-0.2,0.7-0.2c0.4,0,0.7,0.1,1.1,0.3l-0.4,1
		c-0.3-0.2-0.5-0.2-0.8-0.2c-0.2,0-0.4,0.1-0.6,0.2s-0.3,0.3-0.4,0.6c-0.1,0.4-0.2,0.8-0.2,1.2v3.3H415.4z"/>
	<path d="M428,183.7v1h-5.7c0-0.3,0-0.5,0.1-0.7c0.1-0.4,0.4-0.8,0.7-1.1s0.8-0.8,1.4-1.3c0.9-0.8,1.6-1.4,1.9-1.8s0.5-0.9,0.5-1.3
		c0-0.4-0.1-0.8-0.4-1.1s-0.7-0.4-1.2-0.4c-0.5,0-0.9,0.2-1.2,0.5s-0.5,0.7-0.5,1.3l-1.1-0.1c0.1-0.8,0.4-1.4,0.8-1.8s1.1-0.6,2-0.6
		c0.8,0,1.5,0.2,2,0.7s0.7,1,0.7,1.7c0,0.3-0.1,0.7-0.2,1s-0.4,0.7-0.7,1s-0.9,0.9-1.6,1.5c-0.6,0.5-1,0.9-1.2,1.1s-0.3,0.4-0.4,0.6
		H428z"/>
</g>
<g>
	
		<image style="overflow:visible;opacity:0.75;" width="82" height="129" xlink:href="CA0678F727BBFD3E.png"  transform="matrix(1 0 0 1 -165.8159 243.9308)">
	</image>
	<g>
		<rect x="-159" y="250.5" class="st3" width="68.6" height="116"/>
	</g>
</g>
<rect x="-163.2" y="254.7" transform="matrix(6.123234e-17 -1 1 6.123234e-17 -413.7373 164.2601)" class="st4" width="77" height="68.6"/>
<text transform="matrix(1 0 0 1 -146.645 353.4988)" style="fill:#041356; font-family:'Roboto-Regular'; font-size:14px;">#ffff77</text>
<g>
	
		<image style="overflow:visible;opacity:0.75;" width="82" height="129" xlink:href="CA0678F727BBFD42.png"  transform="matrix(1 0 0 1 -80.8159 243.9308)">
	</image>
	<g>
		<rect x="-74.4" y="250.5" class="st3" width="68.6" height="116"/>
	</g>
</g>
<rect x="-78.6" y="254.7" transform="matrix(6.123234e-17 -1 1 6.123234e-17 -329.0973 248.9001)" class="st5" width="77" height="68.6"/>
<text transform="matrix(1 0 0 1 -66.1611 353.4988)" style="fill:#041356; font-family:'Roboto-Regular'; font-size:14px;">#afe979</text>
<g>
	
		<image style="overflow:visible;opacity:0.75;" width="81" height="129" xlink:href="CA0678F727BBFD45.png"  transform="matrix(1 0 0 1 4.1841 243.9308)">
	</image>
	<g>
		<rect x="10.3" y="250.5" class="st3" width="68.6" height="116"/>
	</g>
</g>
<rect x="6" y="254.7" transform="matrix(6.123234e-17 -1 1 6.123234e-17 -244.4573 333.5401)" class="st2" width="77" height="68.6"/>
<text transform="matrix(1 0 0 1 17.4363 353.4988)" style="fill:#041356; font-family:'Roboto-Regular'; font-size:14px;">#33cbcc</text>
<g>
	
		<image style="overflow:visible;opacity:0.75;" width="82" height="129" xlink:href="CA0678F727BBFD46.png"  transform="matrix(1 0 0 1 88.1841 243.9308)">
	</image>
	<g>
		<rect x="94.9" y="250.5" class="st3" width="68.6" height="116"/>
	</g>
</g>
<rect x="90.7" y="254.7" transform="matrix(6.123234e-17 -1 1 6.123234e-17 -159.8172 418.1802)" class="st6" width="77" height="68.6"/>
<text transform="matrix(1 0 0 1 101.6662 353.4988)" style="fill:#041356; font-family:'Roboto-Regular'; font-size:14px;">#33a9bc</text>
<g>
	
		<image style="overflow:visible;opacity:0.75;" width="81" height="129" xlink:href="CA0678F727BBFD44.png"  transform="matrix(1 0 0 1 173.1841 243.9308)">
	</image>
	<g>
		<rect x="179.5" y="250.5" class="st3" width="68.6" height="116"/>
	</g>
</g>
<rect x="175.3" y="254.7" transform="matrix(6.123234e-17 -1 1 6.123234e-17 -75.1772 502.8202)" class="st0" width="77" height="68.6"/>
<text transform="matrix(1 0 0 1 186.1593 353.4988)" style="fill:#041356; font-family:'Roboto-Regular'; font-size:14px;">#2a91a7</text>
<g>
	
		<image style="overflow:visible;opacity:0.75;" width="82" height="129" xlink:href="CA0678F727BBFD43.png"  transform="matrix(1 0 0 1 257.1841 243.9308)">
	</image>
	<g>
		<rect x="264.2" y="250.5" class="st3" width="68.6" height="116"/>
	</g>
</g>
<rect x="260" y="254.7" transform="matrix(6.123234e-17 -1 1 6.123234e-17 9.4629 587.4603)" class="st1" width="77" height="68.6"/>
<text transform="matrix(1 0 0 1 272.1802 353.4988)" style="fill:#041356; font-family:'Roboto-Regular'; font-size:14px;">#296afb</text>
<g>
	
		<image style="overflow:visible;opacity:0.75;" width="82" height="129" xlink:href="CA0678F727BBFD4D.png"  transform="matrix(1 0 0 1 342.1841 243.9308)">
	</image>
	<g>
		<rect x="348.8" y="250.5" class="st3" width="68.6" height="116"/>
	</g>
</g>
<rect x="344.6" y="254.7" transform="matrix(6.123234e-17 -1 1 6.123234e-17 94.1029 672.1003)" class="st7" width="77" height="68.6"/>
<text transform="matrix(1 0 0 1 357.227 353.4988)" style="fill:#041356; font-family:'Roboto-Regular'; font-size:14px;">#8c44cf</text>
<g>
	
		<image style="overflow:visible;opacity:0.75;" width="81" height="129" xlink:href="CA0678F727BBFD4E.png"  transform="matrix(1 0 0 1 427.1841 243.9308)">
	</image>
	<g>
		<rect x="433.5" y="250.5" class="st3" width="68.6" height="116"/>
	</g>
</g>
<rect x="429.2" y="254.7" transform="matrix(6.123234e-17 -1 1 6.123234e-17 178.7429 756.7403)" class="st8" width="77" height="68.6"/>
<text transform="matrix(1 0 0 1 441.2997 353.4988)" style="fill:#041356; font-family:'Roboto-Regular'; font-size:14px;">#6d1f9d</text>
<g>
	
		<image style="overflow:visible;opacity:0.75;" width="82" height="129" xlink:href="CA0678F727BBFD4C.png"  transform="matrix(1 0 0 1 513.1841 243.9308)">
	</image>
	<g>
		<rect x="519.7" y="250.5" class="st3" width="68.6" height="116"/>
	</g>
</g>
<rect x="515.5" y="254.7" transform="matrix(6.123234e-17 -1 1 6.123234e-17 265.028 843.0253)" class="st9" width="77" height="68.6"/>
<text transform="matrix(1 0 0 1 526.3063 353.4988)" style="fill:#041356; font-family:'Roboto-Regular'; font-size:14px;">#d0d7e0</text>
<g>
	
		<image style="overflow:visible;opacity:0.75;" width="81" height="129" xlink:href="32EF7BB8BE2B9A41.png"  transform="matrix(1 0 0 1 598.1841 243.9308)">
	</image>
	<g>
		<rect x="604.4" y="250.5" class="st3" width="68.6" height="116"/>
	</g>
</g>
<rect x="600.2" y="254.7" transform="matrix(6.123234e-17 -1 1 6.123234e-17 349.668 927.6654)" class="st10" width="77" height="68.6"/>
<text transform="matrix(1 0 0 1 611.4249 353.4988)" style="fill:#041356; font-family:'Roboto-Regular'; font-size:14px;">#e8e8e8</text>
</svg>
