<?xml version="1.0" encoding="utf-8" standalone="no"?>
<!DOCTYPE svg PUBLIC "-//W3C//DTD SVG 1.1//EN"
  "http://www.w3.org/Graphics/SVG/1.1/DTD/svg11.dtd">
<!-- Created with matplotlib (https://matplotlib.org/) -->
<svg height="288pt" version="1.1" viewBox="0 0 432 288" width="432pt" xmlns="http://www.w3.org/2000/svg" xmlns:xlink="http://www.w3.org/1999/xlink">
 <metadata>
  <rdf:RDF xmlns:cc="http://creativecommons.org/ns#" xmlns:dc="http://purl.org/dc/elements/1.1/" xmlns:rdf="http://www.w3.org/1999/02/22-rdf-syntax-ns#">
   <cc:Work>
    <dc:type rdf:resource="http://purl.org/dc/dcmitype/StillImage"/>
    <dc:date>2022-05-31T20:12:03.953544</dc:date>
    <dc:format>image/svg+xml</dc:format>
    <dc:creator>
     <cc:Agent>
      <dc:title>Matplotlib v3.3.2, https://matplotlib.org/</dc:title>
     </cc:Agent>
    </dc:creator>
   </cc:Work>
  </rdf:RDF>
 </metadata>
 <defs>
  <style type="text/css">*{stroke-linecap:butt;stroke-linejoin:round;}</style>
 </defs>
 <g id="figure_1">
  <g id="patch_1">
   <path d="M 0 288 
L 432 288 
L 432 0 
L 0 0 
z
" style="fill:none;"/>
  </g>
  <g id="axes_1">
   <g id="patch_2">
    <path d="M 54 252 
L 388.8 252 
L 388.8 34.56 
L 54 34.56 
z
" style="fill:#ffffff;"/>
   </g>
   <g id="patch_3">
    <path clip-path="url(#p66ffb49224)" d="M 54 242.94 
L 372.857143 242.94 
L 372.857143 224.82 
L 54 224.82 
z
" style="fill:#450256;"/>
   </g>
   <g id="patch_4">
    <path clip-path="url(#p66ffb49224)" d="M 54 206.7 
L 93.857143 206.7 
L 93.857143 188.58 
L 54 188.58 
z
" style="fill:#450256;"/>
   </g>
   <g id="patch_5">
    <path clip-path="url(#p66ffb49224)" d="M 54 170.46 
L 93.857143 170.46 
L 93.857143 152.34 
L 54 152.34 
z
" style="fill:#450256;"/>
   </g>
   <g id="patch_6">
    <path clip-path="url(#p66ffb49224)" d="M 54 134.22 
L 73.928571 134.22 
L 73.928571 116.1 
L 54 116.1 
z
" style="fill:#450256;"/>
   </g>
   <g id="patch_7">
    <path clip-path="url(#p66ffb49224)" d="M 54 97.98 
L 73.928571 97.98 
L 73.928571 79.86 
L 54 79.86 
z
" style="fill:#450256;"/>
   </g>
   <g id="patch_8">
    <path clip-path="url(#p66ffb49224)" d="M 54 61.74 
L 73.928571 61.74 
L 73.928571 43.62 
L 54 43.62 
z
" style="fill:#450256;"/>
   </g>
   <g id="matplotlib.axis_1">
    <g id="xtick_1">
     <g id="line2d_1">
      <defs>
       <path d="M 0 0 
L 0 3.5 
" id="m49dc26f6f0" style="stroke:#000000;stroke-width:0.8;"/>
      </defs>
      <g>
       <use style="stroke:#000000;stroke-width:0.8;" x="54" xlink:href="#m49dc26f6f0" y="252"/>
      </g>
     </g>
     <g id="text_1">
      <!-- 0 -->
      <g transform="translate(50.630625 268)scale(0.12 -0.12)">
       <defs>
        <path d="M 50.484375 30.328125 
Q 50.484375 14.453125 45.0625 6.734375 
Q 39.65625 -0.984375 28.125 -0.984375 
Q 16.75 -0.984375 11.28125 6.5625 
Q 5.8125 14.109375 5.609375 29.109375 
L 5.609375 41.15625 
Q 5.609375 56.84375 11.03125 64.453125 
Q 16.453125 72.078125 28.03125 72.078125 
Q 39.5 72.078125 44.921875 64.71875 
Q 50.34375 57.375 50.484375 42.046875 
z
M 41.453125 42.671875 
Q 41.453125 54.15625 38.234375 59.40625 
Q 35.015625 64.65625 28.03125 64.65625 
Q 21.09375 64.65625 17.921875 59.421875 
Q 14.75 54.203125 14.65625 43.359375 
L 14.65625 28.90625 
Q 14.65625 17.390625 18 11.890625 
Q 21.34375 6.390625 28.125 6.390625 
Q 34.8125 6.390625 38.0625 11.5625 
Q 41.3125 16.75 41.453125 27.875 
z
" id="Roboto-Regular-48"/>
       </defs>
       <use xlink:href="#Roboto-Regular-48"/>
      </g>
     </g>
    </g>
    <g id="xtick_2">
     <g id="line2d_2">
      <g>
       <use style="stroke:#000000;stroke-width:0.8;" x="93.857143" xlink:href="#m49dc26f6f0" y="252"/>
      </g>
     </g>
     <g id="text_2">
      <!-- 2 -->
      <g transform="translate(90.487768 268)scale(0.12 -0.12)">
       <defs>
        <path d="M 52.484375 0 
L 5.90625 0 
L 5.90625 6.5 
L 30.515625 33.84375 
Q 35.984375 40.046875 38.0625 43.921875 
Q 40.140625 47.796875 40.140625 51.953125 
Q 40.140625 57.515625 36.765625 61.078125 
Q 33.40625 64.65625 27.78125 64.65625 
Q 21.046875 64.65625 17.3125 60.8125 
Q 13.578125 56.984375 13.578125 50.140625 
L 4.546875 50.140625 
Q 4.546875 59.96875 10.859375 66.015625 
Q 17.1875 72.078125 27.78125 72.078125 
Q 37.703125 72.078125 43.453125 66.875 
Q 49.21875 61.671875 49.21875 53.03125 
Q 49.21875 42.53125 35.84375 28.03125 
L 16.796875 7.375 
L 52.484375 7.375 
z
" id="Roboto-Regular-50"/>
       </defs>
       <use xlink:href="#Roboto-Regular-50"/>
      </g>
     </g>
    </g>
    <g id="xtick_3">
     <g id="line2d_3">
      <g>
       <use style="stroke:#000000;stroke-width:0.8;" x="133.714286" xlink:href="#m49dc26f6f0" y="252"/>
      </g>
     </g>
     <g id="text_3">
      <!-- 4 -->
      <g transform="translate(130.344911 268)scale(0.12 -0.12)">
       <defs>
        <path d="M 44.046875 23.875 
L 53.90625 23.875 
L 53.90625 16.5 
L 44.046875 16.5 
L 44.046875 0 
L 34.96875 0 
L 34.96875 16.5 
L 2.59375 16.5 
L 2.59375 21.828125 
L 34.421875 71.09375 
L 44.046875 71.09375 
z
M 12.84375 23.875 
L 34.96875 23.875 
L 34.96875 58.734375 
L 33.890625 56.78125 
z
" id="Roboto-Regular-52"/>
       </defs>
       <use xlink:href="#Roboto-Regular-52"/>
      </g>
     </g>
    </g>
    <g id="xtick_4">
     <g id="line2d_4">
      <g>
       <use style="stroke:#000000;stroke-width:0.8;" x="173.571429" xlink:href="#m49dc26f6f0" y="252"/>
      </g>
     </g>
     <g id="text_4">
      <!-- 6 -->
      <g transform="translate(170.202054 268)scale(0.12 -0.12)">
       <defs>
        <path d="M 41.359375 71.140625 
L 41.359375 63.484375 
L 39.703125 63.484375 
Q 29.15625 63.28125 22.90625 57.21875 
Q 16.65625 51.171875 15.671875 40.1875 
Q 21.296875 46.625 31 46.625 
Q 40.28125 46.625 45.828125 40.078125 
Q 51.375 33.546875 51.375 23.1875 
Q 51.375 12.203125 45.390625 5.609375 
Q 39.40625 -0.984375 29.34375 -0.984375 
Q 19.140625 -0.984375 12.796875 6.859375 
Q 6.453125 14.703125 6.453125 27.046875 
L 6.453125 30.515625 
Q 6.453125 50.140625 14.8125 60.515625 
Q 23.1875 70.90625 39.75 71.140625 
z
M 29.5 39.109375 
Q 24.859375 39.109375 20.953125 36.328125 
Q 17.046875 33.546875 15.53125 29.34375 
L 15.53125 26.03125 
Q 15.53125 17.234375 19.484375 11.859375 
Q 23.4375 6.5 29.34375 6.5 
Q 35.453125 6.5 38.9375 10.984375 
Q 42.4375 15.484375 42.4375 22.75 
Q 42.4375 30.078125 38.890625 34.59375 
Q 35.359375 39.109375 29.5 39.109375 
z
" id="Roboto-Regular-54"/>
       </defs>
       <use xlink:href="#Roboto-Regular-54"/>
      </g>
     </g>
    </g>
    <g id="xtick_5">
     <g id="line2d_5">
      <g>
       <use style="stroke:#000000;stroke-width:0.8;" x="213.428571" xlink:href="#m49dc26f6f0" y="252"/>
      </g>
     </g>
     <g id="text_5">
      <!-- 8 -->
      <g transform="translate(210.059196 268)scale(0.12 -0.12)">
       <defs>
        <path d="M 49.03125 52.546875 
Q 49.03125 47.21875 46.21875 43.0625 
Q 43.40625 38.921875 38.625 36.578125 
Q 44.1875 34.1875 47.4375 29.59375 
Q 50.6875 25 50.6875 19.1875 
Q 50.6875 9.96875 44.453125 4.484375 
Q 38.234375 -0.984375 28.078125 -0.984375 
Q 17.828125 -0.984375 11.640625 4.515625 
Q 5.46875 10.015625 5.46875 19.1875 
Q 5.46875 24.953125 8.609375 29.59375 
Q 11.765625 34.234375 17.328125 36.625 
Q 12.59375 38.96875 9.859375 43.109375 
Q 7.125 47.265625 7.125 52.546875 
Q 7.125 61.53125 12.890625 66.796875 
Q 18.65625 72.078125 28.078125 72.078125 
Q 37.453125 72.078125 43.234375 66.796875 
Q 49.03125 61.53125 49.03125 52.546875 
z
M 41.65625 19.390625 
Q 41.65625 25.34375 37.859375 29.09375 
Q 34.078125 32.859375 27.96875 32.859375 
Q 21.875 32.859375 18.1875 29.140625 
Q 14.5 25.4375 14.5 19.375 
Q 14.5 13.328125 18.09375 9.859375 
Q 21.6875 6.390625 28.078125 6.390625 
Q 34.421875 6.390625 38.03125 9.875 
Q 41.65625 13.375 41.65625 19.390625 
z
M 28.078125 64.65625 
Q 22.75 64.65625 19.453125 61.359375 
Q 16.15625 58.0625 16.15625 52.390625 
Q 16.15625 46.96875 19.40625 43.625 
Q 22.65625 40.28125 28.078125 40.28125 
Q 33.5 40.28125 36.734375 43.625 
Q 39.984375 46.96875 39.984375 52.390625 
Q 39.984375 57.8125 36.609375 61.234375 
Q 33.25 64.65625 28.078125 64.65625 
z
" id="Roboto-Regular-56"/>
       </defs>
       <use xlink:href="#Roboto-Regular-56"/>
      </g>
     </g>
    </g>
    <g id="xtick_6">
     <g id="line2d_6">
      <g>
       <use style="stroke:#000000;stroke-width:0.8;" x="253.285714" xlink:href="#m49dc26f6f0" y="252"/>
      </g>
     </g>
     <g id="text_6">
      <!-- 10 -->
      <g transform="translate(246.546964 268)scale(0.12 -0.12)">
       <defs>
        <path d="M 35.59375 0 
L 26.515625 0 
L 26.515625 60.203125 
L 8.296875 53.515625 
L 8.296875 61.71875 
L 34.1875 71.4375 
L 35.59375 71.4375 
z
" id="Roboto-Regular-49"/>
       </defs>
       <use xlink:href="#Roboto-Regular-49"/>
       <use x="56.152344" xlink:href="#Roboto-Regular-48"/>
      </g>
     </g>
    </g>
    <g id="xtick_7">
     <g id="line2d_7">
      <g>
       <use style="stroke:#000000;stroke-width:0.8;" x="293.142857" xlink:href="#m49dc26f6f0" y="252"/>
      </g>
     </g>
     <g id="text_7">
      <!-- 12 -->
      <g transform="translate(286.404107 268)scale(0.12 -0.12)">
       <use xlink:href="#Roboto-Regular-49"/>
       <use x="56.152344" xlink:href="#Roboto-Regular-50"/>
      </g>
     </g>
    </g>
    <g id="xtick_8">
     <g id="line2d_8">
      <g>
       <use style="stroke:#000000;stroke-width:0.8;" x="333" xlink:href="#m49dc26f6f0" y="252"/>
      </g>
     </g>
     <g id="text_8">
      <!-- 14 -->
      <g transform="translate(326.26125 268)scale(0.12 -0.12)">
       <use xlink:href="#Roboto-Regular-49"/>
       <use x="56.152344" xlink:href="#Roboto-Regular-52"/>
      </g>
     </g>
    </g>
    <g id="xtick_9">
     <g id="line2d_9">
      <g>
       <use style="stroke:#000000;stroke-width:0.8;" x="372.857143" xlink:href="#m49dc26f6f0" y="252"/>
      </g>
     </g>
     <g id="text_9">
      <!-- 16 -->
      <g transform="translate(366.118393 268)scale(0.12 -0.12)">
       <use xlink:href="#Roboto-Regular-49"/>
       <use x="56.152344" xlink:href="#Roboto-Regular-54"/>
      </g>
     </g>
    </g>
   </g>
   <g id="matplotlib.axis_2">
    <g id="ytick_1">
     <g id="line2d_10">
      <defs>
       <path d="M 0 0 
L -3.5 0 
" id="me5c0e38036" style="stroke:#000000;stroke-width:0.8;"/>
      </defs>
      <g>
       <use style="stroke:#000000;stroke-width:0.8;" x="54" xlink:href="#me5c0e38036" y="233.88"/>
      </g>
     </g>
     <g id="text_10">
      <!-- classification -->
      <g transform="translate(-24.19 238.38)scale(0.12 -0.12)">
       <defs>
        <path d="M 28.03125 6.390625 
Q 32.859375 6.390625 36.46875 9.3125 
Q 40.09375 12.25 40.484375 16.65625 
L 49.03125 16.65625 
Q 48.78125 12.109375 45.890625 8 
Q 43.015625 3.90625 38.203125 1.453125 
Q 33.40625 -0.984375 28.03125 -0.984375 
Q 17.234375 -0.984375 10.859375 6.21875 
Q 4.5 13.421875 4.5 25.921875 
L 4.5 27.4375 
Q 4.5 35.15625 7.328125 41.15625 
Q 10.15625 47.171875 15.453125 50.484375 
Q 20.75 53.8125 27.984375 53.8125 
Q 36.859375 53.8125 42.75 48.484375 
Q 48.640625 43.171875 49.03125 34.671875 
L 40.484375 34.671875 
Q 40.09375 39.796875 36.59375 43.09375 
Q 33.109375 46.390625 27.984375 46.390625 
Q 21.09375 46.390625 17.3125 41.421875 
Q 13.53125 36.46875 13.53125 27.09375 
L 13.53125 25.390625 
Q 13.53125 16.265625 17.28125 11.328125 
Q 21.046875 6.390625 28.03125 6.390625 
z
" id="Roboto-Regular-99"/>
        <path d="M 16.65625 0 
L 7.625 0 
L 7.625 75 
L 16.65625 75 
z
" id="Roboto-Regular-108"/>
        <path d="M 39.453125 0 
Q 38.671875 1.5625 38.1875 5.5625 
Q 31.890625 -0.984375 23.140625 -0.984375 
Q 15.328125 -0.984375 10.328125 3.4375 
Q 5.328125 7.859375 5.328125 14.65625 
Q 5.328125 22.90625 11.59375 27.46875 
Q 17.875 32.03125 29.25 32.03125 
L 38.03125 32.03125 
L 38.03125 36.1875 
Q 38.03125 40.921875 35.203125 43.71875 
Q 32.375 46.53125 26.859375 46.53125 
Q 22.015625 46.53125 18.75 44.09375 
Q 15.484375 41.65625 15.484375 38.1875 
L 6.390625 38.1875 
Q 6.390625 42.140625 9.203125 45.828125 
Q 12.015625 49.515625 16.8125 51.65625 
Q 21.625 53.8125 27.390625 53.8125 
Q 36.53125 53.8125 41.703125 49.234375 
Q 46.875 44.671875 47.078125 36.671875 
L 47.078125 12.359375 
Q 47.078125 5.078125 48.921875 0.78125 
L 48.921875 0 
z
M 24.46875 6.890625 
Q 28.71875 6.890625 32.515625 9.078125 
Q 36.328125 11.28125 38.03125 14.796875 
L 38.03125 25.640625 
L 30.953125 25.640625 
Q 14.359375 25.640625 14.359375 15.921875 
Q 14.359375 11.671875 17.1875 9.28125 
Q 20.015625 6.890625 24.46875 6.890625 
z
" id="Roboto-Regular-97"/>
        <path d="M 37.59375 14.015625 
Q 37.59375 17.671875 34.828125 19.703125 
Q 32.078125 21.734375 25.21875 23.1875 
Q 18.359375 24.65625 14.328125 26.703125 
Q 10.296875 28.765625 8.375 31.59375 
Q 6.453125 34.421875 6.453125 38.328125 
Q 6.453125 44.828125 11.9375 49.3125 
Q 17.4375 53.8125 25.984375 53.8125 
Q 34.96875 53.8125 40.546875 49.171875 
Q 46.140625 44.53125 46.140625 37.3125 
L 37.0625 37.3125 
Q 37.0625 41.015625 33.90625 43.703125 
Q 30.765625 46.390625 25.984375 46.390625 
Q 21.046875 46.390625 18.265625 44.234375 
Q 15.484375 42.09375 15.484375 38.625 
Q 15.484375 35.359375 18.0625 33.6875 
Q 20.65625 32.03125 27.421875 30.515625 
Q 34.1875 29 38.375 26.90625 
Q 42.578125 24.8125 44.59375 21.84375 
Q 46.625 18.890625 46.625 14.65625 
Q 46.625 7.5625 40.953125 3.28125 
Q 35.296875 -0.984375 26.265625 -0.984375 
Q 19.921875 -0.984375 15.03125 1.265625 
Q 10.15625 3.515625 7.390625 7.546875 
Q 4.640625 11.578125 4.640625 16.265625 
L 13.671875 16.265625 
Q 13.921875 11.71875 17.3125 9.046875 
Q 20.703125 6.390625 26.265625 6.390625 
Q 31.390625 6.390625 34.484375 8.46875 
Q 37.59375 10.546875 37.59375 14.015625 
z
" id="Roboto-Regular-115"/>
        <path d="M 16.65625 0 
L 7.625 0 
L 7.625 52.828125 
L 16.65625 52.828125 
z
M 6.890625 66.84375 
Q 6.890625 69.046875 8.234375 70.5625 
Q 9.578125 72.078125 12.203125 72.078125 
Q 14.84375 72.078125 16.203125 70.5625 
Q 17.578125 69.046875 17.578125 66.84375 
Q 17.578125 64.65625 16.203125 63.1875 
Q 14.84375 61.71875 12.203125 61.71875 
Q 9.578125 61.71875 8.234375 63.1875 
Q 6.890625 64.65625 6.890625 66.84375 
z
" id="Roboto-Regular-105"/>
        <path d="M 11.28125 0 
L 11.28125 45.84375 
L 2.9375 45.84375 
L 2.9375 52.828125 
L 11.28125 52.828125 
L 11.28125 58.25 
Q 11.28125 66.75 15.8125 71.390625 
Q 20.359375 76.03125 28.65625 76.03125 
Q 31.78125 76.03125 34.859375 75.203125 
L 34.375 67.875 
Q 32.078125 68.3125 29.5 68.3125 
Q 25.09375 68.3125 22.703125 65.75 
Q 20.3125 63.1875 20.3125 58.40625 
L 20.3125 52.828125 
L 31.59375 52.828125 
L 31.59375 45.84375 
L 20.3125 45.84375 
L 20.3125 0 
z
" id="Roboto-Regular-102"/>
        <path d="M 19.09375 65.625 
L 19.09375 52.828125 
L 28.953125 52.828125 
L 28.953125 45.84375 
L 19.09375 45.84375 
L 19.09375 13.09375 
Q 19.09375 9.90625 20.40625 8.3125 
Q 21.734375 6.734375 24.90625 6.734375 
Q 26.46875 6.734375 29.203125 7.328125 
L 29.203125 0 
Q 25.640625 -0.984375 22.265625 -0.984375 
Q 16.21875 -0.984375 13.140625 2.671875 
Q 10.0625 6.34375 10.0625 13.09375 
L 10.0625 45.84375 
L 0.4375 45.84375 
L 0.4375 52.828125 
L 10.0625 52.828125 
L 10.0625 65.625 
z
" id="Roboto-Regular-116"/>
        <path d="M 4.4375 26.90625 
Q 4.4375 34.671875 7.484375 40.875 
Q 10.546875 47.078125 15.984375 50.4375 
Q 21.4375 53.8125 28.421875 53.8125 
Q 39.203125 53.8125 45.875 46.34375 
Q 52.546875 38.875 52.546875 26.46875 
L 52.546875 25.828125 
Q 52.546875 18.109375 49.578125 11.984375 
Q 46.625 5.859375 41.125 2.4375 
Q 35.640625 -0.984375 28.515625 -0.984375 
Q 17.78125 -0.984375 11.109375 6.484375 
Q 4.4375 13.96875 4.4375 26.265625 
z
M 13.53125 25.828125 
Q 13.53125 17.046875 17.609375 11.71875 
Q 21.6875 6.390625 28.515625 6.390625 
Q 35.40625 6.390625 39.453125 11.78125 
Q 43.5 17.1875 43.5 26.90625 
Q 43.5 35.59375 39.375 40.984375 
Q 35.25 46.390625 28.421875 46.390625 
Q 21.734375 46.390625 17.625 41.0625 
Q 13.53125 35.75 13.53125 25.828125 
z
" id="Roboto-Regular-111"/>
        <path d="M 15.375 52.828125 
L 15.671875 46.1875 
Q 21.734375 53.8125 31.5 53.8125 
Q 48.25 53.8125 48.390625 34.90625 
L 48.390625 0 
L 39.359375 0 
L 39.359375 34.96875 
Q 39.3125 40.671875 36.75 43.40625 
Q 34.1875 46.140625 28.765625 46.140625 
Q 24.359375 46.140625 21.03125 43.796875 
Q 17.71875 41.453125 15.875 37.640625 
L 15.875 0 
L 6.84375 0 
L 6.84375 52.828125 
z
" id="Roboto-Regular-110"/>
       </defs>
       <use xlink:href="#Roboto-Regular-99"/>
       <use x="52.34375" xlink:href="#Roboto-Regular-108"/>
       <use x="76.611328" xlink:href="#Roboto-Regular-97"/>
       <use x="131.005859" xlink:href="#Roboto-Regular-115"/>
       <use x="182.568359" xlink:href="#Roboto-Regular-115"/>
       <use x="234.130859" xlink:href="#Roboto-Regular-105"/>
       <use x="258.398438" xlink:href="#Roboto-Regular-102"/>
       <use x="293.115234" xlink:href="#Roboto-Regular-105"/>
       <use x="317.382812" xlink:href="#Roboto-Regular-99"/>
       <use x="369.726562" xlink:href="#Roboto-Regular-97"/>
       <use x="424.121094" xlink:href="#Roboto-Regular-116"/>
       <use x="456.787109" xlink:href="#Roboto-Regular-105"/>
       <use x="481.054688" xlink:href="#Roboto-Regular-111"/>
       <use x="538.085938" xlink:href="#Roboto-Regular-110"/>
      </g>
     </g>
    </g>
    <g id="ytick_2">
     <g id="line2d_11">
      <g>
       <use style="stroke:#000000;stroke-width:0.8;" x="54" xlink:href="#me5c0e38036" y="197.64"/>
      </g>
     </g>
     <g id="text_11">
      <!-- reasoning -->
      <g transform="translate(-5.86375 202.110938)scale(0.12 -0.12)">
       <defs>
        <path d="M 32.375 44.734375 
Q 30.328125 45.0625 27.9375 45.0625 
Q 19.046875 45.0625 15.875 37.5 
L 15.875 0 
L 6.84375 0 
L 6.84375 52.828125 
L 15.625 52.828125 
L 15.765625 46.734375 
Q 20.21875 53.8125 28.375 53.8125 
Q 31 53.8125 32.375 53.125 
z
" id="Roboto-Regular-114"/>
        <path d="M 28.765625 -0.984375 
Q 18.015625 -0.984375 11.28125 6.078125 
Q 4.546875 13.140625 4.546875 24.953125 
L 4.546875 26.609375 
Q 4.546875 34.46875 7.546875 40.640625 
Q 10.546875 46.828125 15.9375 50.3125 
Q 21.34375 53.8125 27.640625 53.8125 
Q 37.9375 53.8125 43.640625 47.015625 
Q 49.359375 40.234375 49.359375 27.59375 
L 49.359375 23.828125 
L 13.578125 23.828125 
Q 13.765625 16.015625 18.140625 11.203125 
Q 22.515625 6.390625 29.25 6.390625 
Q 34.03125 6.390625 37.34375 8.34375 
Q 40.671875 10.296875 43.171875 13.53125 
L 48.6875 9.234375 
Q 42.046875 -0.984375 28.765625 -0.984375 
z
M 27.640625 46.390625 
Q 22.171875 46.390625 18.453125 42.40625 
Q 14.75 38.421875 13.875 31.25 
L 40.328125 31.25 
L 40.328125 31.9375 
Q 39.9375 38.8125 36.609375 42.59375 
Q 33.296875 46.390625 27.640625 46.390625 
z
" id="Roboto-Regular-101"/>
        <path d="M 4.6875 26.859375 
Q 4.6875 39.203125 10.390625 46.5 
Q 16.109375 53.8125 25.53125 53.8125 
Q 35.203125 53.8125 40.625 46.96875 
L 41.0625 52.828125 
L 49.3125 52.828125 
L 49.3125 1.265625 
Q 49.3125 -8.984375 43.234375 -14.890625 
Q 37.15625 -20.796875 26.90625 -20.796875 
Q 21.1875 -20.796875 15.71875 -18.359375 
Q 10.25 -15.921875 7.375 -11.671875 
L 12.0625 -6.25 
Q 17.875 -13.421875 26.265625 -13.421875 
Q 32.859375 -13.421875 36.546875 -9.703125 
Q 40.234375 -6 40.234375 0.734375 
L 40.234375 5.28125 
Q 34.8125 -0.984375 25.4375 -0.984375 
Q 16.15625 -0.984375 10.421875 6.484375 
Q 4.6875 13.96875 4.6875 26.859375 
z
M 13.765625 25.828125 
Q 13.765625 16.890625 17.421875 11.78125 
Q 21.09375 6.6875 27.6875 6.6875 
Q 36.234375 6.6875 40.234375 14.453125 
L 40.234375 38.578125 
Q 36.078125 46.140625 27.78125 46.140625 
Q 21.1875 46.140625 17.46875 41.015625 
Q 13.765625 35.890625 13.765625 25.828125 
z
" id="Roboto-Regular-103"/>
       </defs>
       <use xlink:href="#Roboto-Regular-114"/>
       <use x="33.837891" xlink:href="#Roboto-Regular-101"/>
       <use x="86.816406" xlink:href="#Roboto-Regular-97"/>
       <use x="141.210938" xlink:href="#Roboto-Regular-115"/>
       <use x="192.773438" xlink:href="#Roboto-Regular-111"/>
       <use x="249.804688" xlink:href="#Roboto-Regular-110"/>
       <use x="304.980469" xlink:href="#Roboto-Regular-105"/>
       <use x="329.248047" xlink:href="#Roboto-Regular-110"/>
       <use x="384.423828" xlink:href="#Roboto-Regular-103"/>
      </g>
     </g>
    </g>
    <g id="ytick_3">
     <g id="line2d_12">
      <g>
       <use style="stroke:#000000;stroke-width:0.8;" x="54" xlink:href="#me5c0e38036" y="161.4"/>
      </g>
     </g>
     <g id="text_12">
      <!-- information extraction -->
      <g transform="translate(-71.306875 165.9)scale(0.12 -0.12)">
       <defs>
        <path d="M 15.328125 52.828125 
L 15.578125 46.96875 
Q 21.390625 53.8125 31.25 53.8125 
Q 42.328125 53.8125 46.34375 45.3125 
Q 48.96875 49.125 53.1875 51.46875 
Q 57.421875 53.8125 63.1875 53.8125 
Q 80.5625 53.8125 80.859375 35.40625 
L 80.859375 0 
L 71.828125 0 
L 71.828125 34.859375 
Q 71.828125 40.53125 69.234375 43.328125 
Q 66.65625 46.140625 60.546875 46.140625 
Q 55.515625 46.140625 52.1875 43.140625 
Q 48.875 40.140625 48.34375 35.0625 
L 48.34375 0 
L 39.265625 0 
L 39.265625 34.625 
Q 39.265625 46.140625 27.984375 46.140625 
Q 19.09375 46.140625 15.828125 38.578125 
L 15.828125 0 
L 6.78125 0 
L 6.78125 52.828125 
z
" id="Roboto-Regular-109"/>
        <path id="Roboto-Regular-32"/>
        <path d="M 24.5625 33.546875 
L 36.28125 52.828125 
L 46.828125 52.828125 
L 29.546875 26.703125 
L 47.359375 0 
L 36.921875 0 
L 24.703125 19.78125 
L 12.5 0 
L 2 0 
L 19.828125 26.703125 
L 2.546875 52.828125 
L 12.984375 52.828125 
z
" id="Roboto-Regular-120"/>
       </defs>
       <use xlink:href="#Roboto-Regular-105"/>
       <use x="24.267578" xlink:href="#Roboto-Regular-110"/>
       <use x="79.443359" xlink:href="#Roboto-Regular-102"/>
       <use x="114.160156" xlink:href="#Roboto-Regular-111"/>
       <use x="171.191406" xlink:href="#Roboto-Regular-114"/>
       <use x="205.029297" xlink:href="#Roboto-Regular-109"/>
       <use x="292.675781" xlink:href="#Roboto-Regular-97"/>
       <use x="347.070312" xlink:href="#Roboto-Regular-116"/>
       <use x="379.736328" xlink:href="#Roboto-Regular-105"/>
       <use x="404.003906" xlink:href="#Roboto-Regular-111"/>
       <use x="461.035156" xlink:href="#Roboto-Regular-110"/>
       <use x="516.210938" xlink:href="#Roboto-Regular-32"/>
       <use x="540.966797" xlink:href="#Roboto-Regular-101"/>
       <use x="593.945312" xlink:href="#Roboto-Regular-120"/>
       <use x="643.505859" xlink:href="#Roboto-Regular-116"/>
       <use x="676.171875" xlink:href="#Roboto-Regular-114"/>
       <use x="710.009766" xlink:href="#Roboto-Regular-97"/>
       <use x="764.404297" xlink:href="#Roboto-Regular-99"/>
       <use x="816.748047" xlink:href="#Roboto-Regular-116"/>
       <use x="849.414062" xlink:href="#Roboto-Regular-105"/>
       <use x="873.681641" xlink:href="#Roboto-Regular-111"/>
       <use x="930.712891" xlink:href="#Roboto-Regular-110"/>
      </g>
     </g>
    </g>
    <g id="ytick_4">
     <g id="line2d_13">
      <g>
       <use style="stroke:#000000;stroke-width:0.8;" x="54" xlink:href="#me5c0e38036" y="125.16"/>
      </g>
     </g>
     <g id="text_13">
      <!-- similarity -->
      <g transform="translate(-1.538125 129.66)scale(0.12 -0.12)">
       <defs>
        <path d="M 24.125 13.234375 
L 36.421875 52.828125 
L 46.09375 52.828125 
L 24.859375 -8.15625 
Q 19.921875 -21.34375 9.1875 -21.34375 
L 7.46875 -21.1875 
L 4.109375 -20.5625 
L 4.109375 -13.234375 
L 6.546875 -13.421875 
Q 11.140625 -13.421875 13.703125 -11.5625 
Q 16.265625 -9.71875 17.921875 -4.78125 
L 19.921875 0.59375 
L 1.078125 52.828125 
L 10.9375 52.828125 
z
" id="Roboto-Regular-121"/>
       </defs>
       <use xlink:href="#Roboto-Regular-115"/>
       <use x="51.5625" xlink:href="#Roboto-Regular-105"/>
       <use x="75.830078" xlink:href="#Roboto-Regular-109"/>
       <use x="163.476562" xlink:href="#Roboto-Regular-105"/>
       <use x="187.744141" xlink:href="#Roboto-Regular-108"/>
       <use x="212.011719" xlink:href="#Roboto-Regular-97"/>
       <use x="266.40625" xlink:href="#Roboto-Regular-114"/>
       <use x="300.244141" xlink:href="#Roboto-Regular-105"/>
       <use x="324.511719" xlink:href="#Roboto-Regular-116"/>
       <use x="357.177734" xlink:href="#Roboto-Regular-121"/>
      </g>
     </g>
    </g>
    <g id="ytick_5">
     <g id="line2d_14">
      <g>
       <use style="stroke:#000000;stroke-width:0.8;" x="54" xlink:href="#me5c0e38036" y="88.92"/>
      </g>
     </g>
     <g id="text_14">
      <!-- generative -->
      <g transform="translate(-8.66125 93.390938)scale(0.12 -0.12)">
       <defs>
        <path d="M 24.265625 12.25 
L 37.359375 52.828125 
L 46.578125 52.828125 
L 27.640625 0 
L 20.75 0 
L 1.609375 52.828125 
L 10.84375 52.828125 
z
" id="Roboto-Regular-118"/>
       </defs>
       <use xlink:href="#Roboto-Regular-103"/>
       <use x="56.103516" xlink:href="#Roboto-Regular-101"/>
       <use x="109.082031" xlink:href="#Roboto-Regular-110"/>
       <use x="164.257812" xlink:href="#Roboto-Regular-101"/>
       <use x="217.236328" xlink:href="#Roboto-Regular-114"/>
       <use x="251.074219" xlink:href="#Roboto-Regular-97"/>
       <use x="305.46875" xlink:href="#Roboto-Regular-116"/>
       <use x="338.134766" xlink:href="#Roboto-Regular-105"/>
       <use x="362.402344" xlink:href="#Roboto-Regular-118"/>
       <use x="410.839844" xlink:href="#Roboto-Regular-101"/>
      </g>
     </g>
    </g>
    <g id="ytick_6">
     <g id="line2d_15">
      <g>
       <use style="stroke:#000000;stroke-width:0.8;" x="54" xlink:href="#me5c0e38036" y="52.68"/>
      </g>
     </g>
     <g id="text_15">
      <!-- inference -->
      <g transform="translate(-2.73625 57.18)scale(0.12 -0.12)">
       <use xlink:href="#Roboto-Regular-105"/>
       <use x="24.267578" xlink:href="#Roboto-Regular-110"/>
       <use x="79.443359" xlink:href="#Roboto-Regular-102"/>
       <use x="114.160156" xlink:href="#Roboto-Regular-101"/>
       <use x="167.138672" xlink:href="#Roboto-Regular-114"/>
       <use x="200.976562" xlink:href="#Roboto-Regular-101"/>
       <use x="253.955078" xlink:href="#Roboto-Regular-110"/>
       <use x="309.130859" xlink:href="#Roboto-Regular-99"/>
       <use x="361.474609" xlink:href="#Roboto-Regular-101"/>
      </g>
     </g>
    </g>
   </g>
   <g id="patch_9">
    <path d="M 54 252 
L 54 34.56 
" style="fill:none;stroke:#cccccc;stroke-linecap:square;stroke-linejoin:miter;stroke-width:0.6;"/>
   </g>
   <g id="patch_10">
    <path d="M 388.8 252 
L 388.8 34.56 
" style="fill:none;stroke:#cccccc;stroke-linecap:square;stroke-linejoin:miter;stroke-width:0.6;"/>
   </g>
   <g id="patch_11">
    <path d="M 54 252 
L 388.8 252 
" style="fill:none;stroke:#cccccc;stroke-linecap:square;stroke-linejoin:miter;stroke-width:0.6;"/>
   </g>
   <g id="patch_12">
    <path d="M 54 34.56 
L 388.8 34.56 
" style="fill:none;stroke:#cccccc;stroke-linecap:square;stroke-linejoin:miter;stroke-width:0.6;"/>
   </g>
   <g id="text_16">
    <!-- Number of articles per application -->
    <g transform="translate(115.837812 13.11625)scale(0.14 -0.14)">
     <defs>
      <path d="M 62.890625 0 
L 53.46875 0 
L 17.671875 54.78125 
L 17.671875 0 
L 8.25 0 
L 8.25 71.09375 
L 17.671875 71.09375 
L 53.5625 16.0625 
L 53.5625 71.09375 
L 62.890625 71.09375 
z
" id="Roboto-Regular-78"/>
      <path d="M 39.453125 5.21875 
Q 34.1875 -0.984375 23.96875 -0.984375 
Q 15.53125 -0.984375 11.109375 3.921875 
Q 6.6875 8.84375 6.640625 18.453125 
L 6.640625 52.828125 
L 15.671875 52.828125 
L 15.671875 18.703125 
Q 15.671875 6.6875 25.4375 6.6875 
Q 35.796875 6.6875 39.203125 14.40625 
L 39.203125 52.828125 
L 48.25 52.828125 
L 48.25 0 
L 39.65625 0 
z
" id="Roboto-Regular-117"/>
      <path d="M 51.5625 25.828125 
Q 51.5625 13.71875 46 6.359375 
Q 40.4375 -0.984375 31.0625 -0.984375 
Q 21.046875 -0.984375 15.578125 6.109375 
L 15.140625 0 
L 6.84375 0 
L 6.84375 75 
L 15.875 75 
L 15.875 47.015625 
Q 21.34375 53.8125 30.953125 53.8125 
Q 40.578125 53.8125 46.0625 46.53125 
Q 51.5625 39.265625 51.5625 26.609375 
z
M 42.53125 26.859375 
Q 42.53125 36.078125 38.96875 41.109375 
Q 35.40625 46.140625 28.71875 46.140625 
Q 19.78125 46.140625 15.875 37.84375 
L 15.875 14.984375 
Q 20.015625 6.6875 28.8125 6.6875 
Q 35.296875 6.6875 38.90625 11.71875 
Q 42.53125 16.75 42.53125 26.859375 
z
" id="Roboto-Regular-98"/>
      <path d="M 51.46875 25.828125 
Q 51.46875 13.765625 45.953125 6.390625 
Q 40.4375 -0.984375 31 -0.984375 
Q 21.390625 -0.984375 15.875 5.125 
L 15.875 -20.3125 
L 6.84375 -20.3125 
L 6.84375 52.828125 
L 15.09375 52.828125 
L 15.53125 46.96875 
Q 21.046875 53.8125 30.859375 53.8125 
Q 40.375 53.8125 45.921875 46.625 
Q 51.46875 39.453125 51.46875 26.65625 
z
M 42.4375 26.859375 
Q 42.4375 35.796875 38.625 40.96875 
Q 34.8125 46.140625 28.171875 46.140625 
Q 19.96875 46.140625 15.875 38.875 
L 15.875 13.625 
Q 19.921875 6.390625 28.265625 6.390625 
Q 34.765625 6.390625 38.59375 11.546875 
Q 42.4375 16.703125 42.4375 26.859375 
z
" id="Roboto-Regular-112"/>
     </defs>
     <use xlink:href="#Roboto-Regular-78"/>
     <use x="71.289062" xlink:href="#Roboto-Regular-117"/>
     <use x="126.416016" xlink:href="#Roboto-Regular-109"/>
     <use x="214.0625" xlink:href="#Roboto-Regular-98"/>
     <use x="270.166016" xlink:href="#Roboto-Regular-101"/>
     <use x="323.144531" xlink:href="#Roboto-Regular-114"/>
     <use x="356.982422" xlink:href="#Roboto-Regular-32"/>
     <use x="381.738281" xlink:href="#Roboto-Regular-111"/>
     <use x="438.769531" xlink:href="#Roboto-Regular-102"/>
     <use x="473.486328" xlink:href="#Roboto-Regular-32"/>
     <use x="498.242188" xlink:href="#Roboto-Regular-97"/>
     <use x="552.636719" xlink:href="#Roboto-Regular-114"/>
     <use x="586.474609" xlink:href="#Roboto-Regular-116"/>
     <use x="619.140625" xlink:href="#Roboto-Regular-105"/>
     <use x="643.408203" xlink:href="#Roboto-Regular-99"/>
     <use x="695.751953" xlink:href="#Roboto-Regular-108"/>
     <use x="720.019531" xlink:href="#Roboto-Regular-101"/>
     <use x="772.998047" xlink:href="#Roboto-Regular-115"/>
     <use x="824.560547" xlink:href="#Roboto-Regular-32"/>
     <use x="849.316406" xlink:href="#Roboto-Regular-112"/>
     <use x="905.419922" xlink:href="#Roboto-Regular-101"/>
     <use x="958.398438" xlink:href="#Roboto-Regular-114"/>
     <use x="992.236328" xlink:href="#Roboto-Regular-32"/>
     <use x="1016.992188" xlink:href="#Roboto-Regular-97"/>
     <use x="1071.386719" xlink:href="#Roboto-Regular-112"/>
     <use x="1127.490234" xlink:href="#Roboto-Regular-112"/>
     <use x="1183.59375" xlink:href="#Roboto-Regular-108"/>
     <use x="1207.861328" xlink:href="#Roboto-Regular-105"/>
     <use x="1232.128906" xlink:href="#Roboto-Regular-99"/>
     <use x="1284.472656" xlink:href="#Roboto-Regular-97"/>
     <use x="1338.867188" xlink:href="#Roboto-Regular-116"/>
     <use x="1371.533203" xlink:href="#Roboto-Regular-105"/>
     <use x="1395.800781" xlink:href="#Roboto-Regular-111"/>
     <use x="1452.832031" xlink:href="#Roboto-Regular-110"/>
    </g>
    <!-- in the Sequential category -->
    <g transform="translate(140.960156 28.56)scale(0.14 -0.14)">
     <defs>
      <path d="M 15.875 46.4375 
Q 21.875 53.8125 31.5 53.8125 
Q 48.25 53.8125 48.390625 34.90625 
L 48.390625 0 
L 39.359375 0 
L 39.359375 34.96875 
Q 39.3125 40.671875 36.75 43.40625 
Q 34.1875 46.140625 28.765625 46.140625 
Q 24.359375 46.140625 21.03125 43.796875 
Q 17.71875 41.453125 15.875 37.640625 
L 15.875 0 
L 6.84375 0 
L 6.84375 75 
L 15.875 75 
z
" id="Roboto-Regular-104"/>
      <path d="M 29.203125 31.6875 
Q 17.140625 35.15625 11.640625 40.203125 
Q 6.15625 45.265625 6.15625 52.6875 
Q 6.15625 61.078125 12.859375 66.578125 
Q 19.578125 72.078125 30.328125 72.078125 
Q 37.640625 72.078125 43.375 69.234375 
Q 49.125 66.40625 52.265625 61.421875 
Q 55.421875 56.453125 55.421875 50.53125 
L 46 50.53125 
Q 46 56.984375 41.890625 60.671875 
Q 37.796875 64.359375 30.328125 64.359375 
Q 23.390625 64.359375 19.5 61.296875 
Q 15.625 58.25 15.625 52.828125 
Q 15.625 48.484375 19.3125 45.484375 
Q 23 42.484375 31.859375 39.984375 
Q 40.71875 37.5 45.71875 34.5 
Q 50.734375 31.5 53.140625 27.484375 
Q 55.5625 23.484375 55.5625 18.0625 
Q 55.5625 9.421875 48.828125 4.21875 
Q 42.09375 -0.984375 30.8125 -0.984375 
Q 23.484375 -0.984375 17.140625 1.828125 
Q 10.796875 4.640625 7.34375 9.515625 
Q 3.90625 14.40625 3.90625 20.609375 
L 13.328125 20.609375 
Q 13.328125 14.15625 18.09375 10.421875 
Q 22.859375 6.6875 30.8125 6.6875 
Q 38.234375 6.6875 42.1875 9.71875 
Q 46.140625 12.75 46.140625 17.96875 
Q 46.140625 23.1875 42.46875 26.046875 
Q 38.8125 28.90625 29.203125 31.6875 
z
" id="Roboto-Regular-83"/>
      <path d="M 4.640625 26.859375 
Q 4.640625 39.3125 10.34375 46.5625 
Q 16.0625 53.8125 25.6875 53.8125 
Q 35.0625 53.8125 40.484375 47.515625 
L 40.875 52.828125 
L 49.171875 52.828125 
L 49.171875 -20.3125 
L 40.140625 -20.3125 
L 40.140625 4.890625 
Q 34.671875 -0.984375 25.59375 -0.984375 
Q 16.015625 -0.984375 10.328125 6.46875 
Q 4.640625 13.921875 4.640625 26.21875 
z
M 13.671875 25.828125 
Q 13.671875 16.75 17.5 11.5625 
Q 21.34375 6.390625 27.828125 6.390625 
Q 35.890625 6.390625 40.140625 13.53125 
L 40.140625 39.40625 
Q 35.84375 46.390625 27.9375 46.390625 
Q 21.390625 46.390625 17.53125 41.1875 
Q 13.671875 35.984375 13.671875 25.828125 
z
" id="Roboto-Regular-113"/>
     </defs>
     <use xlink:href="#Roboto-Regular-105"/>
     <use x="24.267578" xlink:href="#Roboto-Regular-110"/>
     <use x="79.443359" xlink:href="#Roboto-Regular-32"/>
     <use x="104.199219" xlink:href="#Roboto-Regular-116"/>
     <use x="136.865234" xlink:href="#Roboto-Regular-104"/>
     <use x="191.943359" xlink:href="#Roboto-Regular-101"/>
     <use x="244.921875" xlink:href="#Roboto-Regular-32"/>
     <use x="269.677734" xlink:href="#Roboto-Regular-83"/>
     <use x="329.003906" xlink:href="#Roboto-Regular-101"/>
     <use x="381.982422" xlink:href="#Roboto-Regular-113"/>
     <use x="438.818359" xlink:href="#Roboto-Regular-117"/>
     <use x="493.945312" xlink:href="#Roboto-Regular-101"/>
     <use x="546.923828" xlink:href="#Roboto-Regular-110"/>
     <use x="602.099609" xlink:href="#Roboto-Regular-116"/>
     <use x="634.765625" xlink:href="#Roboto-Regular-105"/>
     <use x="659.033203" xlink:href="#Roboto-Regular-97"/>
     <use x="713.427734" xlink:href="#Roboto-Regular-108"/>
     <use x="737.695312" xlink:href="#Roboto-Regular-32"/>
     <use x="762.451172" xlink:href="#Roboto-Regular-99"/>
     <use x="814.794922" xlink:href="#Roboto-Regular-97"/>
     <use x="869.189453" xlink:href="#Roboto-Regular-116"/>
     <use x="901.855469" xlink:href="#Roboto-Regular-101"/>
     <use x="954.833984" xlink:href="#Roboto-Regular-103"/>
     <use x="1010.9375" xlink:href="#Roboto-Regular-111"/>
     <use x="1067.96875" xlink:href="#Roboto-Regular-114"/>
     <use x="1101.806641" xlink:href="#Roboto-Regular-121"/>
    </g>
   </g>
  </g>
 </g>
 <defs>
  <clipPath id="p66ffb49224">
   <rect height="217.44" width="334.8" x="54" y="34.56"/>
  </clipPath>
 </defs>
</svg>
