<svg class="main-svg" xmlns="http://www.w3.org/2000/svg" xmlns:xlink="http://www.w3.org/1999/xlink" width="700" height="500" style="" viewBox="0 0 700 500"><rect x="0" y="0" width="700" height="500" style="fill: rgb(255, 255, 255); fill-opacity: 1;"/><defs id="defs-69eb5b"><g class="clips"/><g class="gradients"/><g class="patterns"/></defs><g class="bglayer"/><g class="layer-below"><g class="imagelayer"/><g class="shapelayer"/></g><g class="cartesianlayer"/><g class="polarlayer"/><g class="smithlayer"/><g class="ternarylayer"/><g class="geolayer"/><g class="funnelarealayer"/><g class="pielayer"/><g class="iciclelayer"/><g class="treemaplayer"/><g class="sunburstlayer"/><g class="glimages"/><g class="sankey" transform="translate(80,100)matrix(1 0 0 1 0 0)" style="box-sizing: content-box; position: absolute; left: 0px; shape-rendering: geometricprecision; pointer-events: auto;"><g class="sankey-links" style="fill: none;"><path class="sankey-link" d="M10,111.23581688609711C137.5,111.23581688609711 137.5,136.3888976350926 265,136.3888976350926L265,139.52615253699648C137.5,139.52615253699648 137.5,114.37307178800098 10,114.37307178800098Z" style="stroke: rgb(68, 68, 68); stroke-opacity: 1; fill: rgb(156, 67, 151); fill-opacity: 1; stroke-width: 0; opacity: 1;"/><path class="sankey-link" d="M275,136.3888976350926C402.5,136.3888976350926 402.5,33.46405228729721 530,33.46405228729721L530,36.601307189201094C402.5,36.601307189201094 402.5,139.52615253699648 275,139.52615253699648Z" style="stroke: rgb(68, 68, 68); stroke-opacity: 1; fill: rgb(156, 67, 151); fill-opacity: 1; stroke-width: 0; opacity: 1;"/><path class="sankey-link" d="M10,243.0005227680734C137.5,243.0005227680734 137.5,173.51308064126016 265,173.51308064126016L265,176.65033554316403C137.5,176.65033554316403 137.5,246.13777766997728 10,246.13777766997728Z" style="stroke: rgb(68, 68, 68); stroke-opacity: 1; fill: rgb(69, 2, 86); fill-opacity: 1; stroke-width: 0; opacity: 1;"/><path class="sankey-link" d="M275,139.52615253699648C402.5,139.52615253699648 402.5,36.601307189201094 530,36.601307189201094L530,39.73856209110498C402.5,39.73856209110498 402.5,142.66340743890035 275,142.66340743890035Z" style="stroke: rgb(68, 68, 68); stroke-opacity: 1; fill: rgb(69, 2, 86); fill-opacity: 1; stroke-width: 0; opacity: 1;"/><path class="sankey-link" d="M10,163.52339858518368C137.5,163.52339858518368 137.5,153.64379959564235 265,153.64379959564235L265,156.78105449754622C137.5,156.78105449754622 137.5,166.66065348708756 10,166.66065348708756Z" style="stroke: rgb(68, 68, 68); stroke-opacity: 1; fill: rgb(137, 183, 159); fill-opacity: 1; stroke-width: 0; opacity: 1;"/><path class="sankey-link" d="M275,142.66340743890035C402.5,142.66340743890035 402.5,39.73856209110498 530,39.73856209110498L530,42.87581699300887C402.5,42.87581699300887 402.5,145.80066234080422 275,145.80066234080422Z" style="stroke: rgb(68, 68, 68); stroke-opacity: 1; fill: rgb(137, 183, 159); fill-opacity: 1; stroke-width: 0; opacity: 1;"/><path class="sankey-link" d="M10,258.686797277802C137.5,258.686797277802 137.5,313.1209237791857 265,313.1209237791857L265,316.25817868108965C137.5,316.25817868108965 137.5,261.8240521797059 10,261.8240521797059Z" style="stroke: rgb(68, 68, 68); stroke-opacity: 1; fill: rgb(69, 2, 86); fill-opacity: 1; stroke-width: 0; opacity: 1;"/><path class="sankey-link" d="M275,313.12092377922494C402.5,313.12092377922494 402.5,316.86274509809607 530,316.86274509809607L530,320C402.5,320 402.5,316.25817868112887 275,316.25817868112887Z" style="stroke: rgb(68, 68, 68); stroke-opacity: 1; fill: rgb(69, 2, 86); fill-opacity: 1; stroke-width: 0; opacity: 1;"/><path class="sankey-link" d="M10,254.5037907418604C137.5,254.5037907418604 137.5,262.92484534763435 265,262.92484534763435L265,266.0621002495383C137.5,266.0621002495383 137.5,257.6410456437643 10,257.6410456437643Z" style="stroke: rgb(68, 68, 68); stroke-opacity: 1; fill: rgb(69, 2, 86); fill-opacity: 1; stroke-width: 0; opacity: 1;"/><path class="sankey-link" d="M275,258.2189629947233C402.5,258.2189629947233 402.5,227.45098039209972 530,227.45098039209972L530,230.5882352940036C402.5,230.5882352940036 402.5,261.35621789662724 275,261.35621789662724Z" style="stroke: rgb(68, 68, 68); stroke-opacity: 1; fill: rgb(69, 2, 86); fill-opacity: 1; stroke-width: 0; opacity: 1;"/><path class="sankey-link" d="M10,250.32078420591884C137.5,250.32078420591884 137.5,235.21242704667728 265,235.21242704667728L265,238.34968194858115C137.5,238.34968194858115 137.5,253.4580391078227 10,253.4580391078227Z" style="stroke: rgb(68, 68, 68); stroke-opacity: 1; fill: rgb(69, 2, 86); fill-opacity: 1; stroke-width: 0; opacity: 1;"/><path class="sankey-link" d="M275,221.181925957572C402.5,221.181925957572 402.5,130.54466230904598 530,130.54466230904598L530,133.68191721094985C402.5,133.68191721094985 402.5,224.31918085947586 275,224.31918085947586Z" style="stroke: rgb(68, 68, 68); stroke-opacity: 1; fill: rgb(69, 2, 86); fill-opacity: 1; stroke-width: 0; opacity: 1;"/><path class="sankey-link" d="M10,101.82405218038545C137.5,101.82405218038545 137.5,102.92484534779537 265,102.92484534779537L265,106.06210024969924C137.5,106.06210024969924 137.5,104.96130708228932 10,104.96130708228932Z" style="stroke: rgb(68, 68, 68); stroke-opacity: 1; fill: rgb(156, 67, 151); fill-opacity: 1; stroke-width: 0; opacity: 1;"/><path class="sankey-link" d="M275,102.92484534779537C402.5,102.92484534779537 402.5,1.4210854715202004e-14 530,1.4210854715202004e-14L530,3.137254901903898C402.5,3.137254901903898 402.5,106.06210024969924 275,106.06210024969924Z" style="stroke: rgb(68, 68, 68); stroke-opacity: 1; fill: rgb(156, 67, 151); fill-opacity: 1; stroke-width: 0; opacity: 1;"/><path class="sankey-link" d="M10,220.51686263736133C137.5,220.51686263736133 137.5,288.0228845633201 265,288.0228845633201L265,291.160139465224C137.5,291.160139465224 137.5,223.6541175392652 10,223.6541175392652Z" style="stroke: rgb(68, 68, 68); stroke-opacity: 1; fill: rgb(87, 188, 214); fill-opacity: 1; stroke-width: 0; opacity: 1;"/><path class="sankey-link" d="M275,287.50000874656985C402.5,287.50000874656985 402.5,292.81045751651055 530,292.81045751651055L530,295.9477124184145C402.5,295.9477124184145 402.5,290.6372636484738 275,290.6372636484738Z" style="stroke: rgb(68, 68, 68); stroke-opacity: 1; fill: rgb(87, 188, 214); fill-opacity: 1; stroke-width: 0; opacity: 1;"/><path class="sankey-link" d="M10,166.66065348708756C137.5,166.66065348708756 137.5,156.78105449754622 265,156.78105449754622L265,159.9183093994501C137.5,159.9183093994501 137.5,169.79790838899143 10,169.79790838899143Z" style="stroke: rgb(68, 68, 68); stroke-opacity: 1; fill: rgb(137, 183, 159); fill-opacity: 1; stroke-width: 0; opacity: 1;"/><path class="sankey-link" d="M275,145.80066234080422C402.5,145.80066234080422 402.5,42.87581699300887 530,42.87581699300887L530,46.013071894912756C402.5,46.013071894912756 402.5,148.9379172427081 275,148.9379172427081Z" style="stroke: rgb(68, 68, 68); stroke-opacity: 1; fill: rgb(137, 183, 159); fill-opacity: 1; stroke-width: 0; opacity: 1;"/><path class="sankey-link" d="M10,160.3861436832798C137.5,160.3861436832798 137.5,112.33661005350703 265,112.33661005350703L265,115.4738649554109C137.5,115.4738649554109 137.5,163.52339858518368 10,163.52339858518368Z" style="stroke: rgb(68, 68, 68); stroke-opacity: 1; fill: rgb(137, 183, 159); fill-opacity: 1; stroke-width: 0; opacity: 1;"/><path class="sankey-link" d="M275,106.06210024969926C402.5,106.06210024969926 402.5,3.1372549019038987 530,3.1372549019038987L530,6.274509803807782C402.5,6.274509803807782 402.5,109.19935515160313 275,109.19935515160313Z" style="stroke: rgb(68, 68, 68); stroke-opacity: 1; fill: rgb(137, 183, 159); fill-opacity: 1; stroke-width: 0; opacity: 1;"/><path class="sankey-link" d="M10,169.79790838899143C137.5,169.79790838899143 137.5,159.9183093994501 265,159.9183093994501L265,161.48693685048045C137.5,161.48693685048045 137.5,171.36653584002178 10,171.36653584002178Z" style="stroke: rgb(68, 68, 68); stroke-opacity: 1; fill: rgb(137, 183, 159); fill-opacity: 1; stroke-width: 0; opacity: 1;"/><path class="sankey-link" d="M10,187.05281034975036C137.5,187.05281034975036 137.5,311.55229632815536 265,311.55229632815536L265,313.1209237791857C137.5,313.1209237791857 137.5,188.6214378007807 10,188.6214378007807Z" style="stroke: rgb(68, 68, 68); stroke-opacity: 1; fill: rgb(137, 183, 159); fill-opacity: 1; stroke-width: 0; opacity: 1;"/><path class="sankey-link" d="M275,180.04902835373477C402.5,180.04902835373477 402.5,273.46405228766315 530,273.46405228766315L530,274.248366013198C402.5,274.248366013198 402.5,180.83334207926956 275,180.83334207926956Z" style="stroke: rgb(137, 183, 159); stroke-opacity: 1; fill: rgb(137, 183, 159); fill-opacity: 1; stroke-width: 1; opacity: 1;"/><path class="sankey-link" d="M275,175.43029197025552C402.5,175.43029197025552 402.5,186.1437908495098 530,186.1437908495098L530,186.92810457504459C402.5,186.92810457504459 402.5,176.2146056957903 275,176.2146056957903Z" style="stroke: rgb(137, 183, 159); stroke-opacity: 1; fill: rgb(137, 183, 159); fill-opacity: 1; stroke-width: 1; opacity: 1;"/><path class="sankey-link" d="M275,312.33661005369015C402.5,312.33661005369015 402.5,274.24836601319794 530,274.24836601319794L530,275.0326797387328C402.5,275.0326797387328 402.5,313.120923779225 275,313.120923779225Z" style="stroke: rgb(137, 183, 159); stroke-opacity: 1; fill: rgb(137, 183, 159); fill-opacity: 1; stroke-width: 1; opacity: 1;"/><path class="sankey-link" d="M275,311.55229632815536C402.5,311.55229632815536 402.5,190.06535947694846 530,190.06535947694846L530,190.84967320248325C402.5,190.84967320248325 402.5,312.3366100536902 275,312.3366100536902Z" style="stroke: rgb(137, 183, 159); stroke-opacity: 1; fill: rgb(137, 183, 159); fill-opacity: 1; stroke-width: 1; opacity: 1;"/><path class="sankey-link" d="M10,104.96130708228934C137.5,104.96130708228934 137.5,106.06210024969926 265,106.06210024969926L265,109.19935515160313C137.5,109.19935515160313 137.5,108.09856198419321 10,108.09856198419321Z" style="stroke: rgb(68, 68, 68); stroke-opacity: 1; fill: rgb(156, 67, 151); fill-opacity: 1; stroke-width: 0; opacity: 1;"/><path class="sankey-link" d="M275,109.19935515160314C402.5,109.19935515160314 402.5,6.274509803807782 530,6.274509803807782L530,9.411764705711667C402.5,9.411764705711667 402.5,112.33661005350702 275,112.33661005350702Z" style="stroke: rgb(68, 68, 68); stroke-opacity: 1; fill: rgb(156, 67, 151); fill-opacity: 1; stroke-width: 0; opacity: 1;"/><path class="sankey-link" d="M10,206.39921557855857C137.5,206.39921557855857 137.5,115.47386495541092 265,115.47386495541092L265,118.61111985731479C137.5,118.61111985731479 137.5,209.53647048046244 10,209.53647048046244Z" style="stroke: rgb(68, 68, 68); stroke-opacity: 1; fill: rgb(87, 188, 214); fill-opacity: 1; stroke-width: 0; opacity: 1;"/><path class="sankey-link" d="M275,112.33661005350703C402.5,112.33661005350703 402.5,9.411764705711667 530,9.411764705711667L530,12.54901960761555C402.5,12.54901960761555 402.5,115.4738649554109 275,115.4738649554109Z" style="stroke: rgb(68, 68, 68); stroke-opacity: 1; fill: rgb(87, 188, 214); fill-opacity: 1; stroke-width: 0; opacity: 1;"/><path class="sankey-link" d="M10,209.53647048046244C137.5,209.53647048046244 137.5,165.66994338642203 265,165.66994338642203L265,168.8071982883259C137.5,168.8071982883259 137.5,212.6737253823663 10,212.6737253823663Z" style="stroke: rgb(68, 68, 68); stroke-opacity: 1; fill: rgb(87, 188, 214); fill-opacity: 1; stroke-width: 0; opacity: 1;"/><path class="sankey-link" d="M275,148.9379172427081C402.5,148.9379172427081 402.5,46.013071894912756 530,46.013071894912756L530,49.15032679681664C402.5,49.15032679681664 402.5,152.07517214461197 275,152.07517214461197Z" style="stroke: rgb(68, 68, 68); stroke-opacity: 1; fill: rgb(87, 188, 214); fill-opacity: 1; stroke-width: 0; opacity: 1;"/><path class="sankey-link" d="M10,128.49071884664693C137.5,128.49071884664693 137.5,198.6111198570477 265,198.6111198570477L265,199.65687149108538C137.5,199.65687149108538 137.5,129.5364704806846 10,129.5364704806846Z" style="stroke: rgb(68, 68, 68); stroke-opacity: 1; fill: rgb(156, 67, 151); fill-opacity: 1; stroke-width: 0; opacity: 1;"/><path class="sankey-link" d="M10,141.5626142714643C137.5,141.5626142714643 137.5,283.8398780273785 265,283.8398780273785L265,284.88562966141615C137.5,284.88562966141615 137.5,142.60836590550198 10,142.60836590550198Z" style="stroke: rgb(68, 68, 68); stroke-opacity: 1; fill: rgb(156, 67, 151); fill-opacity: 1; stroke-width: 0; opacity: 1;"/><path class="sankey-link" d="M10,131.105097931715C137.5,131.105097931715 137.5,219.00327671995603 265,219.00327671995603L265,220.04902835399372C137.5,220.04902835399372 137.5,132.15084956575268 10,132.15084956575268Z" style="stroke: rgb(68, 68, 68); stroke-opacity: 1; fill: rgb(156, 67, 151); fill-opacity: 1; stroke-width: 0; opacity: 1;"/><path class="sankey-link" d="M275,199.39543358258248C402.5,199.39543358258248 402.5,91.7647058818135 530,91.7647058818135L530,92.11328975983379C402.5,92.11328975983379 402.5,199.74401746060278 275,199.74401746060278Z" style="stroke: rgb(156, 67, 151); stroke-opacity: 1; fill: rgb(156, 67, 151); fill-opacity: 1; stroke-width: 1; opacity: 1;"/><path class="sankey-link" d="M275,200.52833118613756C402.5,200.52833118613756 402.5,111.37254901918698 530,111.37254901918698L530,111.72113289720727C402.5,111.72113289720727 402.5,200.87691506415786 275,200.87691506415786Z" style="stroke: rgb(156, 67, 151); stroke-opacity: 1; fill: rgb(156, 67, 151); fill-opacity: 1; stroke-width: 1; opacity: 1;"/><path class="sankey-link" d="M275,200.87691506415786C402.5,200.87691506415786 402.5,130.19607843102568 530,130.19607843102568L530,130.54466230904598C402.5,130.54466230904598 402.5,201.22549894217815 275,201.22549894217815Z" style="stroke: rgb(156, 67, 151); stroke-opacity: 1; fill: rgb(156, 67, 151); fill-opacity: 1; stroke-width: 1; opacity: 1;"/><path class="sankey-link" d="M275,284.1884619053988C402.5,284.1884619053988 402.5,93.24618736338891 530,93.24618736338891L530,93.5947712414092C402.5,93.5947712414092 402.5,284.53704578341916 275,284.53704578341916Z" style="stroke: rgb(156, 67, 151); stroke-opacity: 1; fill: rgb(156, 67, 151); fill-opacity: 1; stroke-width: 1; opacity: 1;"/><path class="sankey-link" d="M275,284.5370457834191C402.5,284.5370457834191 402.5,112.06971677522759 530,112.06971677522759L530,112.41830065324788C402.5,112.41830065324788 402.5,284.88562966143945 275,284.88562966143945Z" style="stroke: rgb(156, 67, 151); stroke-opacity: 1; fill: rgb(156, 67, 151); fill-opacity: 1; stroke-width: 1; opacity: 1;"/><path class="sankey-link" d="M275,284.8856296614394C402.5,284.8856296614394 402.5,141.87363834380827 530,141.87363834380827L530,142.22222222182856C402.5,142.22222222182856 402.5,285.23421353945974 275,285.23421353945974Z" style="stroke: rgb(156, 67, 151); stroke-opacity: 1; fill: rgb(156, 67, 151); fill-opacity: 1; stroke-width: 1; opacity: 1;"/><path class="sankey-link" d="M275,220.4847582015314C402.5,220.4847582015314 402.5,92.8976034853686 530,92.8976034853686L530,93.2461873633889C402.5,93.2461873633889 402.5,220.8333420795517 275,220.8333420795517Z" style="stroke: rgb(156, 67, 151); stroke-opacity: 1; fill: rgb(156, 67, 151); fill-opacity: 1; stroke-width: 1; opacity: 1;"/><path class="sankey-link" d="M275,220.8333420795517C402.5,220.8333420795517 402.5,111.72113289720728 530,111.72113289720728L530,112.06971677522758C402.5,112.06971677522758 402.5,221.181925957572 275,221.181925957572Z" style="stroke: rgb(156, 67, 151); stroke-opacity: 1; fill: rgb(156, 67, 151); fill-opacity: 1; stroke-width: 1; opacity: 1;"/><path class="sankey-link" d="M275,224.31918085947586C402.5,224.31918085947586 402.5,133.68191721094985 530,133.68191721094985L530,134.03050108897014C402.5,134.03050108897014 402.5,224.66776473749616 275,224.66776473749616Z" style="stroke: rgb(156, 67, 151); stroke-opacity: 1; fill: rgb(156, 67, 151); fill-opacity: 1; stroke-width: 1; opacity: 1;"/><path class="sankey-link" d="M10,175.54954237596337C137.5,175.54954237596337 137.5,226.32353815780147 265,226.32353815780147L265,227.36928979183915C137.5,227.36928979183915 137.5,176.59529401000106 10,176.59529401000106Z" style="stroke: rgb(68, 68, 68); stroke-opacity: 1; fill: rgb(137, 183, 159); fill-opacity: 1; stroke-width: 0; opacity: 1;"/><path class="sankey-link" d="M10,171.3665358400218C137.5,171.3665358400218 137.5,161.48693685048048 265,161.48693685048048L265,162.53268848451816C137.5,162.53268848451816 137.5,172.4122874740595 10,172.4122874740595Z" style="stroke: rgb(68, 68, 68); stroke-opacity: 1; fill: rgb(137, 183, 159); fill-opacity: 1; stroke-width: 0; opacity: 1;"/><path class="sankey-link" d="M10,182.8698038138088C137.5,182.8698038138088 137.5,260.3104662625663 265,260.3104662625663L265,261.35621789660394C137.5,261.35621789660394 137.5,183.9155554478465 10,183.9155554478465Z" style="stroke: rgb(68, 68, 68); stroke-opacity: 1; fill: rgb(137, 183, 159); fill-opacity: 1; stroke-width: 0; opacity: 1;"/><path class="sankey-link" d="M275,232.51090199233428C402.5,232.51090199233428 402.5,161.48148148118173 530,161.48148148118173L530,161.83006535920202C402.5,161.83006535920202 402.5,232.85948587035458 275,232.85948587035458Z" style="stroke: rgb(137, 183, 159); stroke-opacity: 1; fill: rgb(137, 183, 159); fill-opacity: 1; stroke-width: 1; opacity: 1;"/><path class="sankey-link" d="M275,219.00327671995603C402.5,219.00327671995603 402.5,71.02396514088497 530,71.02396514088497L530,71.37254901890526C402.5,71.37254901890526 402.5,219.35186059797633 275,219.35186059797633Z" style="stroke: rgb(137, 183, 159); stroke-opacity: 1; fill: rgb(137, 183, 159); fill-opacity: 1; stroke-width: 1; opacity: 1;"/><path class="sankey-link" d="M275,238.6982658268439C402.5,238.6982658268439 402.5,208.9760348582813 530,208.9760348582813L530,209.3246187363016C402.5,209.3246187363016 402.5,239.0468497048642 275,239.0468497048642Z" style="stroke: rgb(137, 183, 159); stroke-opacity: 1; fill: rgb(137, 183, 159); fill-opacity: 1; stroke-width: 1; opacity: 1;"/><path class="sankey-link" d="M275,173.94881048868015C402.5,173.94881048868015 402.5,159.99999999960636 530,159.99999999960636L530,160.34858387762665C402.5,160.34858387762665 402.5,174.29739436670044 275,174.29739436670044Z" style="stroke: rgb(137, 183, 159); stroke-opacity: 1; fill: rgb(137, 183, 159); fill-opacity: 1; stroke-width: 1; opacity: 1;"/><path class="sankey-link" d="M275,152.07517214461197C402.5,152.07517214461197 402.5,49.15032679681664 530,49.15032679681664L530,49.49891067483695C402.5,49.49891067483695 402.5,152.42375602263226 275,152.42375602263226Z" style="stroke: rgb(137, 183, 159); stroke-opacity: 1; fill: rgb(137, 183, 159); fill-opacity: 1; stroke-width: 1; opacity: 1;"/><path class="sankey-link" d="M275,179.35186059769418C402.5,179.35186059769418 402.5,208.62745098026102 530,208.62745098026102L530,208.9760348582813C402.5,208.9760348582813 402.5,179.70044447571448 275,179.70044447571448Z" style="stroke: rgb(137, 183, 159); stroke-opacity: 1; fill: rgb(137, 183, 159); fill-opacity: 1; stroke-width: 1; opacity: 1;"/><path class="sankey-link" d="M275,257.5217952386827C402.5,257.5217952386827 402.5,167.66884531569136 530,167.66884531569136L530,168.01742919371165C402.5,168.01742919371165 402.5,257.8703791167031 275,257.8703791167031Z" style="stroke: rgb(137, 183, 159); stroke-opacity: 1; fill: rgb(137, 183, 159); fill-opacity: 1; stroke-width: 1; opacity: 1;"/><path class="sankey-link" d="M275,257.17321136066244C402.5,257.17321136066244 402.5,72.50544662246038 530,72.50544662246038L530,72.85403050048068C402.5,72.85403050048068 402.5,257.5217952386828 275,257.5217952386828Z" style="stroke: rgb(137, 183, 159); stroke-opacity: 1; fill: rgb(137, 183, 159); fill-opacity: 1; stroke-width: 1; opacity: 1;"/><path class="sankey-link" d="M275,257.870379116703C402.5,257.870379116703 402.5,209.3246187363016 530,209.3246187363016L530,209.6732026143219C402.5,209.6732026143219 402.5,258.21896299472337 275,258.21896299472337Z" style="stroke: rgb(137, 183, 159); stroke-opacity: 1; fill: rgb(137, 183, 159); fill-opacity: 1; stroke-width: 1; opacity: 1;"/><path class="sankey-link" d="M10,176.59529401000106C137.5,176.59529401000106 137.5,227.36928979183915 265,227.36928979183915L265,230.50654469374302C137.5,230.50654469374302 137.5,179.73254891190493 10,179.73254891190493Z" style="stroke: rgb(68, 68, 68); stroke-opacity: 1; fill: rgb(137, 183, 159); fill-opacity: 1; stroke-width: 0; opacity: 1;"/><path class="sankey-link" d="M275,224.66776473749616C402.5,224.66776473749616 402.5,134.03050108897014 530,134.03050108897014L530,137.167755990874C402.5,137.167755990874 402.5,227.80501963940003 275,227.80501963940003Z" style="stroke: rgb(68, 68, 68); stroke-opacity: 1; fill: rgb(137, 183, 159); fill-opacity: 1; stroke-width: 0; opacity: 1;"/><path class="sankey-link" d="M10,183.9155554478465C137.5,183.9155554478465 137.5,284.8856296614162 265,284.8856296614162L265,288.02288456332013C137.5,288.02288456332013 137.5,187.05281034975036 10,187.05281034975036Z" style="stroke: rgb(68, 68, 68); stroke-opacity: 1; fill: rgb(137, 183, 159); fill-opacity: 1; stroke-width: 0; opacity: 1;"/><path class="sankey-link" d="M275,290.6372636484737C402.5,290.6372636484737 402.5,295.9477124184144 530,295.9477124184144L530,299.08496732031836C402.5,299.08496732031836 402.5,293.77451855037765 275,293.77451855037765Z" style="stroke: rgb(68, 68, 68); stroke-opacity: 1; fill: rgb(137, 183, 159); fill-opacity: 1; stroke-width: 0; opacity: 1;"/><path class="sankey-link" d="M10,217.37960773530057C137.5,217.37960773530057 137.5,233.6437995956469 265,233.6437995956469L265,235.21242704667725C137.5,235.21242704667725 137.5,218.94823518633092 10,218.94823518633092Z" style="stroke: rgb(68, 68, 68); stroke-opacity: 1; fill: rgb(87, 188, 214); fill-opacity: 1; stroke-width: 0; opacity: 1;"/><path class="sankey-link" d="M10,212.6737253823663C137.5,212.6737253823663 137.5,168.8071982883259 265,168.8071982883259L265,170.37582573935626C137.5,170.37582573935626 137.5,214.24235283339667 10,214.24235283339667Z" style="stroke: rgb(68, 68, 68); stroke-opacity: 1; fill: rgb(87, 188, 214); fill-opacity: 1; stroke-width: 0; opacity: 1;"/><path class="sankey-link" d="M275,232.85948587035458C402.5,232.85948587035458 402.5,161.83006535920202 530,161.83006535920202L530,162.6143790847368C402.5,162.6143790847368 402.5,233.64379959588936 275,233.64379959588936Z" style="stroke: rgb(87, 188, 214); stroke-opacity: 1; fill: rgb(87, 188, 214); fill-opacity: 1; stroke-width: 1; opacity: 1;"/><path class="sankey-link" d="M275,219.35186059797633C402.5,219.35186059797633 402.5,71.37254901890527 530,71.37254901890527L530,72.15686274444006C402.5,72.15686274444006 402.5,220.1361743235111 275,220.1361743235111Z" style="stroke: rgb(87, 188, 214); stroke-opacity: 1; fill: rgb(87, 188, 214); fill-opacity: 1; stroke-width: 1; opacity: 1;"/><path class="sankey-link" d="M275,174.29739436670044C402.5,174.29739436670044 402.5,160.34858387762665 530,160.34858387762665L530,161.13289760316144C402.5,161.13289760316144 402.5,175.08170809223523 275,175.08170809223523Z" style="stroke: rgb(87, 188, 214); stroke-opacity: 1; fill: rgb(87, 188, 214); fill-opacity: 1; stroke-width: 1; opacity: 1;"/><path class="sankey-link" d="M275,152.42375602263226C402.5,152.42375602263226 402.5,49.49891067483695 530,49.49891067483695L530,50.28322440037175C402.5,50.28322440037175 402.5,153.20806974816705 275,153.20806974816705Z" style="stroke: rgb(87, 188, 214); stroke-opacity: 1; fill: rgb(87, 188, 214); fill-opacity: 1; stroke-width: 1; opacity: 1;"/><path class="sankey-link" d="M10,179.73254891190493C137.5,179.73254891190493 137.5,230.50654469374302 265,230.50654469374302L265,233.6437995956469C137.5,233.6437995956469 137.5,182.8698038138088 10,182.8698038138088Z" style="stroke: rgb(68, 68, 68); stroke-opacity: 1; fill: rgb(137, 183, 159); fill-opacity: 1; stroke-width: 0; opacity: 1;"/><path class="sankey-link" d="M275,233.64379959588936C402.5,233.64379959588936 402.5,162.6143790847368 530,162.6143790847368L530,164.18300653576716C402.5,164.18300653576716 402.5,235.21242704691971 275,235.21242704691971Z" style="stroke: rgb(68, 68, 68); stroke-opacity: 1; fill: rgb(137, 183, 159); fill-opacity: 1; stroke-width: 0; opacity: 1;"/><path class="sankey-link" d="M275,227.80501963940003C402.5,227.80501963940003 402.5,137.167755990874 530,137.167755990874L530,138.73638344190437C402.5,138.73638344190437 402.5,229.37364709043038 275,229.37364709043038Z" style="stroke: rgb(68, 68, 68); stroke-opacity: 1; fill: rgb(137, 183, 159); fill-opacity: 1; stroke-width: 0; opacity: 1;"/><path class="sankey-link" d="M10,114.373071788001C137.5,114.373071788001 137.5,139.52615253699648 265,139.52615253699648L265,142.66340743890035C137.5,142.66340743890035 137.5,117.51032668990487 10,117.51032668990487Z" style="stroke: rgb(68, 68, 68); stroke-opacity: 1; fill: rgb(156, 67, 151); fill-opacity: 1; stroke-width: 0; opacity: 1;"/><path class="sankey-link" d="M275,153.20806974816705C402.5,153.20806974816705 402.5,50.28322440037174 530,50.28322440037174L530,53.42047930227563C402.5,53.42047930227563 402.5,156.34532465007092 275,156.34532465007092Z" style="stroke: rgb(68, 68, 68); stroke-opacity: 1; fill: rgb(156, 67, 151); fill-opacity: 1; stroke-width: 0; opacity: 1;"/><path class="sankey-link" d="M10,117.51032668990489C137.5,117.51032668990489 137.5,142.66340743890035 265,142.66340743890035L265,145.80066234080422C137.5,145.80066234080422 137.5,120.64758159180876 10,120.64758159180876Z" style="stroke: rgb(68, 68, 68); stroke-opacity: 1; fill: rgb(156, 67, 151); fill-opacity: 1; stroke-width: 0; opacity: 1;"/><path class="sankey-link" d="M275,156.34532465007092C402.5,156.34532465007092 402.5,53.42047930227563 530,53.42047930227563L530,56.55773420417952C402.5,56.55773420417952 402.5,159.4825795519748 275,159.4825795519748Z" style="stroke: rgb(68, 68, 68); stroke-opacity: 1; fill: rgb(156, 67, 151); fill-opacity: 1; stroke-width: 0; opacity: 1;"/><path class="sankey-link" d="M10,132.15084956575268C137.5,132.15084956575268 137.5,220.04902835399372 265,220.04902835399372L265,223.1862832558976C137.5,223.1862832558976 137.5,135.28810446765655 10,135.28810446765655Z" style="stroke: rgb(68, 68, 68); stroke-opacity: 1; fill: rgb(156, 67, 151); fill-opacity: 1; stroke-width: 0; opacity: 1;"/><path class="sankey-link" d="M275,235.21242704691974C402.5,235.21242704691974 402.5,164.1830065357672 530,164.1830065357672L530,167.32026143767106C402.5,167.32026143767106 402.5,238.34968194882362 275,238.34968194882362Z" style="stroke: rgb(68, 68, 68); stroke-opacity: 1; fill: rgb(156, 67, 151); fill-opacity: 1; stroke-width: 0; opacity: 1;"/><path class="sankey-link" d="M10,223.6541175392652C137.5,223.6541175392652 137.5,291.16013946522395 265,291.16013946522395L265,292.7287669162543C137.5,292.7287669162543 137.5,225.22274499029555 10,225.22274499029555Z" style="stroke: rgb(68, 68, 68); stroke-opacity: 1; fill: rgb(87, 188, 214); fill-opacity: 1; stroke-width: 0; opacity: 1;"/><path class="sankey-link" d="M10,218.94823518633095C137.5,218.94823518633095 137.5,261.356217896604 265,261.356217896604L265,262.92484534763435C137.5,262.92484534763435 137.5,220.5168626373613 10,220.5168626373613Z" style="stroke: rgb(68, 68, 68); stroke-opacity: 1; fill: rgb(87, 188, 214); fill-opacity: 1; stroke-width: 0; opacity: 1;"/><path class="sankey-link" d="M275,286.36711114301477C402.5,286.36711114301477 402.5,254.55337690633024 530,254.55337690633024L530,255.33769063186503C402.5,255.33769063186503 402.5,287.1514248685496 275,287.1514248685496Z" style="stroke: rgb(87, 188, 214); stroke-opacity: 1; fill: rgb(87, 188, 214); fill-opacity: 1; stroke-width: 1; opacity: 1;"/><path class="sankey-link" d="M275,285.58279741748C402.5,285.58279741748 402.5,234.50980392144226 530,234.50980392144226L530,235.29411764697704C402.5,235.29411764697704 402.5,286.3671111430148 275,286.3671111430148Z" style="stroke: rgb(87, 188, 214); stroke-opacity: 1; fill: rgb(87, 188, 214); fill-opacity: 1; stroke-width: 1; opacity: 1;"/><path class="sankey-link" d="M275,265.27778652406585C402.5,265.27778652406585 402.5,253.76906318079546 530,253.76906318079546L530,254.55337690633024C402.5,254.55337690633024 402.5,266.0621002496007 275,266.0621002496007Z" style="stroke: rgb(87, 188, 214); stroke-opacity: 1; fill: rgb(87, 188, 214); fill-opacity: 1; stroke-width: 1; opacity: 1;"/><path class="sankey-link" d="M275,261.3562178966272C402.5,261.3562178966272 402.5,230.5882352940036 530,230.5882352940036L530,231.37254901953838C402.5,231.37254901953838 402.5,262.14053162216203 275,262.14053162216203Z" style="stroke: rgb(87, 188, 214); stroke-opacity: 1; fill: rgb(87, 188, 214); fill-opacity: 1; stroke-width: 1; opacity: 1;"/><path class="sankey-link" d="M10,214.2423528333967C137.5,214.2423528333967 137.5,170.3758257393563 265,170.3758257393563L265,173.51308064126016C137.5,173.51308064126016 137.5,217.37960773530057 10,217.37960773530057Z" style="stroke: rgb(68, 68, 68); stroke-opacity: 1; fill: rgb(87, 188, 214); fill-opacity: 1; stroke-width: 0; opacity: 1;"/><path class="sankey-link" d="M275,159.4825795519748C402.5,159.4825795519748 402.5,56.55773420417952 530,56.55773420417952L530,59.694989106083405C402.5,59.694989106083405 402.5,162.61983445387867 275,162.61983445387867Z" style="stroke: rgb(68, 68, 68); stroke-opacity: 1; fill: rgb(87, 188, 214); fill-opacity: 1; stroke-width: 0; opacity: 1;"/><path class="sankey-link" d="M10,135.28810446765655C137.5,135.28810446765655 137.5,223.1862832558976 265,223.1862832558976L265,226.32353815780147C137.5,226.32353815780147 137.5,138.42535936956043 10,138.42535936956043Z" style="stroke: rgb(68, 68, 68); stroke-opacity: 1; fill: rgb(156, 67, 151); fill-opacity: 1; stroke-width: 0; opacity: 1;"/><path class="sankey-link" d="M275,229.3736470904304C402.5,229.3736470904304 402.5,138.7363834419044 530,138.7363834419044L530,141.87363834380827C402.5,141.87363834380827 402.5,232.51090199233428 275,232.51090199233428Z" style="stroke: rgb(68, 68, 68); stroke-opacity: 1; fill: rgb(156, 67, 151); fill-opacity: 1; stroke-width: 0; opacity: 1;"/><path class="sankey-link" d="M10,172.4122874740595C137.5,172.4122874740595 137.5,162.53268848451816 265,162.53268848451816L265,165.66994338642203C137.5,165.66994338642203 137.5,175.54954237596337 10,175.54954237596337Z" style="stroke: rgb(68, 68, 68); stroke-opacity: 1; fill: rgb(137, 183, 159); fill-opacity: 1; stroke-width: 0; opacity: 1;"/><path class="sankey-link" d="M275,162.61983445387867C402.5,162.61983445387867 402.5,59.694989106083405 530,59.694989106083405L530,62.83224400798729C402.5,62.83224400798729 402.5,165.75708935578254 275,165.75708935578254Z" style="stroke: rgb(68, 68, 68); stroke-opacity: 1; fill: rgb(137, 183, 159); fill-opacity: 1; stroke-width: 0; opacity: 1;"/><path class="sankey-link" d="M10,120.64758159180877C137.5,120.64758159180877 137.5,145.80066234080422 265,145.80066234080422L265,147.36928979183457C137.5,147.36928979183457 137.5,122.21620904283915 10,122.21620904283915Z" style="stroke: rgb(68, 68, 68); stroke-opacity: 1; fill: rgb(156, 67, 151); fill-opacity: 1; stroke-width: 0; opacity: 1;"/><path class="sankey-link" d="M10,129.5364704806846C137.5,129.5364704806846 137.5,199.65687149108538 265,199.65687149108538L265,201.22549894211573C137.5,201.22549894211573 137.5,131.10509793171497 10,131.10509793171497Z" style="stroke: rgb(68, 68, 68); stroke-opacity: 1; fill: rgb(156, 67, 151); fill-opacity: 1; stroke-width: 0; opacity: 1;"/><path class="sankey-link" d="M275,165.75708935578254C402.5,165.75708935578254 402.5,62.83224400798729 530,62.83224400798729L530,63.61655773352209C402.5,63.61655773352209 402.5,166.54140308131733 275,166.54140308131733Z" style="stroke: rgb(156, 67, 151); stroke-opacity: 1; fill: rgb(156, 67, 151); fill-opacity: 1; stroke-width: 1; opacity: 1;"/><path class="sankey-link" d="M275,173.16449676314537C402.5,173.16449676314537 402.5,90.9803921562787 530,90.9803921562787L530,91.76470588181348C402.5,91.76470588181348 402.5,173.94881048868015 275,173.94881048868015Z" style="stroke: rgb(156, 67, 151); stroke-opacity: 1; fill: rgb(156, 67, 151); fill-opacity: 1; stroke-width: 1; opacity: 1;"/><path class="sankey-link" d="M275,198.6111198570477C402.5,198.6111198570477 402.5,70.23965141535017 530,70.23965141535017L530,71.02396514088495C402.5,71.02396514088495 402.5,199.39543358258248 275,199.39543358258248Z" style="stroke: rgb(156, 67, 151); stroke-opacity: 1; fill: rgb(156, 67, 151); fill-opacity: 1; stroke-width: 1; opacity: 1;"/><path class="sankey-link" d="M275,199.74401746060278C402.5,199.74401746060278 402.5,92.1132897598338 530,92.1132897598338L530,92.89760348536859C402.5,92.89760348536859 402.5,200.52833118613756 275,200.52833118613756Z" style="stroke: rgb(156, 67, 151); stroke-opacity: 1; fill: rgb(156, 67, 151); fill-opacity: 1; stroke-width: 1; opacity: 1;"/><path class="sankey-link" d="M10,108.09856198419322C137.5,108.09856198419322 137.5,109.19935515160314 265,109.19935515160314L265,112.33661005350702C137.5,112.33661005350702 137.5,111.2358168860971 10,111.2358168860971Z" style="stroke: rgb(68, 68, 68); stroke-opacity: 1; fill: rgb(156, 67, 151); fill-opacity: 1; stroke-width: 0; opacity: 1;"/><path class="sankey-link" d="M275,115.47386495541092C402.5,115.47386495541092 402.5,12.54901960761555 530,12.54901960761555L530,15.686274509519434C402.5,15.686274509519434 402.5,118.61111985731479 275,118.61111985731479Z" style="stroke: rgb(68, 68, 68); stroke-opacity: 1; fill: rgb(156, 67, 151); fill-opacity: 1; stroke-width: 0; opacity: 1;"/><path class="sankey-link" d="M10,122.21620904283915C137.5,122.21620904283915 137.5,147.3692897918346 265,147.3692897918346L265,150.50654469373848C137.5,150.50654469373848 137.5,125.35346394474303 10,125.35346394474303Z" style="stroke: rgb(68, 68, 68); stroke-opacity: 1; fill: rgb(156, 67, 151); fill-opacity: 1; stroke-width: 0; opacity: 1;"/><path class="sankey-link" d="M275,176.2146056957903C402.5,176.2146056957903 402.5,186.92810457504459 530,186.92810457504459L530,190.06535947694846C402.5,190.06535947694846 402.5,179.35186059769418 275,179.35186059769418Z" style="stroke: rgb(68, 68, 68); stroke-opacity: 1; fill: rgb(156, 67, 151); fill-opacity: 1; stroke-width: 0; opacity: 1;"/><path class="sankey-link" d="M10,246.13777766997728C137.5,246.13777766997728 137.5,176.65033554316403 265,176.65033554316403L265,177.69608717720172C137.5,177.69608717720172 137.5,247.18352930401497 10,247.18352930401497Z" style="stroke: rgb(68, 68, 68); stroke-opacity: 1; fill: rgb(69, 2, 86); fill-opacity: 1; stroke-width: 0; opacity: 1;"/><path class="sankey-link" d="M10,253.4580391078227C137.5,253.4580391078227 137.5,238.34968194858115 265,238.34968194858115L265,239.39543358261884C137.5,239.39543358261884 137.5,254.5037907418604 10,254.5037907418604Z" style="stroke: rgb(68, 68, 68); stroke-opacity: 1; fill: rgb(69, 2, 86); fill-opacity: 1; stroke-width: 0; opacity: 1;"/><path class="sankey-link" d="M10,257.6410456437643C137.5,257.6410456437643 137.5,292.7287669162543 265,292.7287669162543L265,293.77451855029193C137.5,293.77451855029193 137.5,258.68679727780193 10,258.68679727780193Z" style="stroke: rgb(68, 68, 68); stroke-opacity: 1; fill: rgb(69, 2, 86); fill-opacity: 1; stroke-width: 0; opacity: 1;"/><path class="sankey-link" d="M275,166.54140308131733C402.5,166.54140308131733 402.5,63.616557733522086 530,63.616557733522086L530,63.96514161154239C402.5,63.96514161154239 402.5,166.88998695933762 275,166.88998695933762Z" style="stroke: rgb(69, 2, 86); stroke-opacity: 1; fill: rgb(69, 2, 86); fill-opacity: 1; stroke-width: 1; opacity: 1;"/><path class="sankey-link" d="M275,175.08170809223523C402.5,175.08170809223523 402.5,161.13289760316144 530,161.13289760316144L530,161.48148148118173C402.5,161.48148148118173 402.5,175.43029197025552 275,175.43029197025552Z" style="stroke: rgb(69, 2, 86); stroke-opacity: 1; fill: rgb(69, 2, 86); fill-opacity: 1; stroke-width: 1; opacity: 1;"/><path class="sankey-link" d="M275,179.70044447571448C402.5,179.70044447571448 402.5,253.07189542475487 530,253.07189542475487L530,253.42047930277516C402.5,253.42047930277516 402.5,180.04902835373477 275,180.04902835373477Z" style="stroke: rgb(69, 2, 86); stroke-opacity: 1; fill: rgb(69, 2, 86); fill-opacity: 1; stroke-width: 1; opacity: 1;"/><path class="sankey-link" d="M275,220.1361743235111C402.5,220.1361743235111 402.5,72.15686274444008 530,72.15686274444008L530,72.50544662246037C402.5,72.50544662246037 402.5,220.4847582015314 275,220.4847582015314Z" style="stroke: rgb(69, 2, 86); stroke-opacity: 1; fill: rgb(69, 2, 86); fill-opacity: 1; stroke-width: 1; opacity: 1;"/><path class="sankey-link" d="M275,238.34968194882362C402.5,238.34968194882362 402.5,167.32026143767106 530,167.32026143767106L530,167.66884531569136C402.5,167.66884531569136 402.5,238.6982658268439 275,238.6982658268439Z" style="stroke: rgb(69, 2, 86); stroke-opacity: 1; fill: rgb(69, 2, 86); fill-opacity: 1; stroke-width: 1; opacity: 1;"/><path class="sankey-link" d="M275,239.0468497048642C402.5,239.0468497048642 402.5,253.42047930277516 530,253.42047930277516L530,253.76906318079546C402.5,253.76906318079546 402.5,239.3954335828845 275,239.3954335828845Z" style="stroke: rgb(69, 2, 86); stroke-opacity: 1; fill: rgb(69, 2, 86); fill-opacity: 1; stroke-width: 1; opacity: 1;"/><path class="sankey-link" d="M275,283.8398780273785C402.5,283.8398780273785 402.5,72.85403050048069 530,72.85403050048069L530,73.20261437850098C402.5,73.20261437850098 402.5,284.18846190539887 275,284.18846190539887Z" style="stroke: rgb(69, 2, 86); stroke-opacity: 1; fill: rgb(69, 2, 86); fill-opacity: 1; stroke-width: 1; opacity: 1;"/><path class="sankey-link" d="M275,285.2342135394597C402.5,285.2342135394597 402.5,168.01742919371165 530,168.01742919371165L530,168.36601307173194C402.5,168.36601307173194 402.5,285.58279741748004 275,285.58279741748004Z" style="stroke: rgb(69, 2, 86); stroke-opacity: 1; fill: rgb(69, 2, 86); fill-opacity: 1; stroke-width: 1; opacity: 1;"/><path class="sankey-link" d="M275,287.15142486854955C402.5,287.15142486854955 402.5,255.33769063186503 530,255.33769063186503L530,255.68627450988532C402.5,255.68627450988532 402.5,287.5000087465699 275,287.5000087465699Z" style="stroke: rgb(69, 2, 86); stroke-opacity: 1; fill: rgb(69, 2, 86); fill-opacity: 1; stroke-width: 1; opacity: 1;"/><path class="sankey-link" d="M10,138.42535936956043C137.5,138.42535936956043 137.5,257.17321136066244 265,257.17321136066244L265,260.31046626256637C137.5,260.31046626256637 137.5,141.5626142714643 10,141.5626142714643Z" style="stroke: rgb(68, 68, 68); stroke-opacity: 1; fill: rgb(156, 67, 151); fill-opacity: 1; stroke-width: 0; opacity: 1;"/><path class="sankey-link" d="M275,262.140531622162C402.5,262.140531622162 402.5,231.37254901953838 530,231.37254901953838L530,234.50980392144226C402.5,234.50980392144226 402.5,265.2777865240659 275,265.2777865240659Z" style="stroke: rgb(68, 68, 68); stroke-opacity: 1; fill: rgb(156, 67, 151); fill-opacity: 1; stroke-width: 0; opacity: 1;"/><path class="sankey-link" d="M10,247.18352930401497C137.5,247.18352930401497 137.5,177.69608717720172 265,177.69608717720172L265,180.8333420791056C137.5,180.8333420791056 137.5,250.32078420591884 10,250.32078420591884Z" style="stroke: rgb(68, 68, 68); stroke-opacity: 1; fill: rgb(69, 2, 86); fill-opacity: 1; stroke-width: 0; opacity: 1;"/><path class="sankey-link" d="M275,166.88998695933762C402.5,166.88998695933762 402.5,63.965141611542386 530,63.965141611542386L530,67.10239651344627C402.5,67.10239651344627 402.5,170.0272418612415 275,170.0272418612415Z" style="stroke: rgb(68, 68, 68); stroke-opacity: 1; fill: rgb(69, 2, 86); fill-opacity: 1; stroke-width: 0; opacity: 1;"/><path class="sankey-link" d="M10,125.35346394474304C137.5,125.35346394474304 137.5,150.50654469373848 265,150.50654469373848L265,153.64379959564235C137.5,153.64379959564235 137.5,128.49071884664693 10,128.49071884664693Z" style="stroke: rgb(68, 68, 68); stroke-opacity: 1; fill: rgb(156, 67, 151); fill-opacity: 1; stroke-width: 0; opacity: 1;"/><path class="sankey-link" d="M275,170.0272418612415C402.5,170.0272418612415 402.5,67.10239651344628 530,67.10239651344628L530,70.23965141535015C402.5,70.23965141535015 402.5,173.16449676314537 275,173.16449676314537Z" style="stroke: rgb(68, 68, 68); stroke-opacity: 1; fill: rgb(156, 67, 151); fill-opacity: 1; stroke-width: 0; opacity: 1;"/></g><g class="sankey-node-set" style="cursor: move;"><g class="sankey-node" transform="translate(0.000,101.824)" style="opacity: 1;"><rect class="node-rect" width="10" height="40.78431372511659" style="stroke-width: 0.5; stroke: rgb(68, 68, 68); stroke-opacity: 1; fill: rgb(51, 51, 51); fill-opacity: 1;"/><text class="node-label" data-notex="1" x="0" y="0" text-anchor="start" transform="translate(13.25,24.942156862558296)" style="cursor: default; font-family: Arial; font-size: 13px; fill: rgb(51, 51, 51); fill-opacity: 1; white-space: pre; text-shadow: white 1px 1px 1px, white -1px -1px 1px, white 1px -1px 1px, white -1px 1px 1px;">Rules</text></g><g class="sankey-node" transform="translate(0.000,243.001)" style="opacity: 1;"><rect class="node-rect" width="10" height="18.823529411632563" style="stroke-width: 0.5; stroke: rgb(68, 68, 68); stroke-opacity: 1; fill: rgb(51, 51, 51); fill-opacity: 1;"/><text class="node-label" data-notex="1" x="0" y="0" text-anchor="start" transform="translate(13.25,13.961764705816282)" style="cursor: default; font-family: Arial; font-size: 13px; fill: rgb(51, 51, 51); fill-opacity: 1; white-space: pre; text-shadow: white 1px 1px 1px, white -1px -1px 1px, white 1px -1px 1px, white -1px 1px 1px;">Frames</text></g><g class="sankey-node" transform="translate(0.000,206.399)" style="opacity: 1;"><rect class="node-rect" width="10" height="18.82352941173707" style="stroke-width: 0.5; stroke: rgb(68, 68, 68); stroke-opacity: 1; fill: rgb(51, 51, 51); fill-opacity: 1;"/><text class="node-label" data-notex="1" x="0" y="0" text-anchor="start" transform="translate(13.25,13.961764705868536)" style="cursor: default; font-family: Arial; font-size: 13px; fill: rgb(51, 51, 51); fill-opacity: 1; white-space: pre; text-shadow: white 1px 1px 1px, white -1px -1px 1px, white 1px -1px 1px, white -1px 1px 1px;">Semantic Network</text></g><g class="sankey-node" transform="translate(530.000,208.627)" style="opacity: 1;"><rect class="node-rect" width="10" height="1.0457516340609345" style="stroke-width: 0.5; stroke: rgb(68, 68, 68); stroke-opacity: 1; fill: rgb(51, 51, 51); fill-opacity: 1;"/><text class="node-label" data-notex="1" x="0" y="0" text-anchor="end" transform="translate(-3.25,5.072875817030467)" style="cursor: default; font-family: Arial; font-size: 13px; fill: rgb(51, 51, 51); fill-opacity: 1; white-space: pre; text-shadow: white 1px 1px 1px, white -1px -1px 1px, white 1px -1px 1px, white -1px 1px 1px;">Deep Belief Network (Dbn)</text></g><g class="sankey-node" transform="translate(530.000,130.196)" style="opacity: 1;"><rect class="node-rect" width="10" height="12.026143790802905" style="stroke-width: 0.5; stroke: rgb(68, 68, 68); stroke-opacity: 1; fill: rgb(51, 51, 51); fill-opacity: 1;"/><text class="node-label" data-notex="1" x="0" y="0" text-anchor="end" transform="translate(-3.25,10.563071895401453)" style="cursor: default; font-family: Arial; font-size: 13px; fill: rgb(51, 51, 51); fill-opacity: 1; white-space: pre; text-shadow: white 1px 1px 1px, white -1px -1px 1px, white 1px -1px 1px, white -1px 1px 1px;">Neural Network (Nn)</text></g><g class="sankey-node" transform="translate(530.000,33.464)" style="opacity: 1;"><rect class="node-rect" width="10" height="39.73856209120372" style="stroke-width: 0.5; stroke: rgb(68, 68, 68); stroke-opacity: 1; fill: rgb(51, 51, 51); fill-opacity: 1;"/><text class="node-label" data-notex="1" x="0" y="0" text-anchor="end" transform="translate(-3.25,24.41928104560186)" style="cursor: default; font-family: Arial; font-size: 13px; fill: rgb(51, 51, 51); fill-opacity: 1; white-space: pre; text-shadow: white 1px 1px 1px, white -1px -1px 1px, white 1px -1px 1px, white -1px 1px 1px;">Recurrent Neural Network (Rnn)</text></g><g class="sankey-node" transform="translate(530.000,316.863)" style="opacity: 1;"><rect class="node-rect" width="10" height="3.1372549019039297" style="stroke-width: 0.5; stroke: rgb(68, 68, 68); stroke-opacity: 1; fill: rgb(51, 51, 51); fill-opacity: 1;"/><text class="node-label" data-notex="1" x="0" y="0" text-anchor="end" transform="translate(-3.25,6.118627450951965)" style="cursor: default; font-family: Arial; font-size: 13px; fill: rgb(51, 51, 51); fill-opacity: 1; white-space: pre; text-shadow: white 1px 1px 1px, white -1px -1px 1px, white 1px -1px 1px, white -1px 1px 1px;">Logic Tensor Network (Ltn)</text></g><g class="sankey-node" transform="translate(530.000,160.000)" style="opacity: 1;"><rect class="node-rect" width="10" height="8.366013072125668" style="stroke-width: 0.5; stroke: rgb(68, 68, 68); stroke-opacity: 1; fill: rgb(51, 51, 51); fill-opacity: 1;"/><text class="node-label" data-notex="1" x="0" y="0" text-anchor="end" transform="translate(-3.25,8.733006536062835)" style="cursor: default; font-family: Arial; font-size: 13px; fill: rgb(51, 51, 51); fill-opacity: 1; white-space: pre; text-shadow: white 1px 1px 1px, white -1px -1px 1px, white 1px -1px 1px, white -1px 1px 1px;">Convolutional Neural Network (Cnn)</text></g><g class="sankey-node" transform="translate(530.000,0.000)" style="opacity: 1;"><rect class="node-rect" width="10" height="15.686274509519421" style="stroke-width: 0.5; stroke: rgb(68, 68, 68); stroke-opacity: 1; fill: rgb(51, 51, 51); fill-opacity: 1;"/><text class="node-label" data-notex="1" x="0" y="0" text-anchor="end" transform="translate(-3.25,12.393137254759711)" style="cursor: default; font-family: Arial; font-size: 13px; fill: rgb(51, 51, 51); fill-opacity: 1; white-space: pre; text-shadow: white 1px 1px 1px, white -1px -1px 1px, white 1px -1px 1px, white -1px 1px 1px;">Svm</text></g><g class="sankey-node" transform="translate(530.000,227.451)" style="opacity: 1;"><rect class="node-rect" width="10" height="7.843137254877377" style="stroke-width: 0.5; stroke: rgb(68, 68, 68); stroke-opacity: 1; fill: rgb(51, 51, 51); fill-opacity: 1;"/><text class="node-label" data-notex="1" x="0" y="0" text-anchor="end" transform="translate(-3.25,8.471568627438689)" style="cursor: default; font-family: Arial; font-size: 13px; fill: rgb(51, 51, 51); fill-opacity: 1; white-space: pre; text-shadow: white 1px 1px 1px, white -1px -1px 1px, white 1px -1px 1px, white -1px 1px 1px;">Graph Neural Network (Gnn)</text></g><g class="sankey-node" transform="translate(530.000,273.464)" style="opacity: 1;"><rect class="node-rect" width="10" height="1.5686274510696308" style="stroke-width: 0.5; stroke: rgb(68, 68, 68); stroke-opacity: 1; fill: rgb(51, 51, 51); fill-opacity: 1;"/><text class="node-label" data-notex="1" x="0" y="0" text-anchor="end" transform="translate(-3.25,5.334313725534815)" style="cursor: default; font-family: Arial; font-size: 13px; fill: rgb(51, 51, 51); fill-opacity: 1; white-space: pre; text-shadow: white 1px 1px 1px, white -1px -1px 1px, white 1px -1px 1px, white -1px 1px 1px;">Recursive Neural Knowledge Network (Rnkn)</text></g><g class="sankey-node" transform="translate(530.000,253.072)" style="opacity: 1;"><rect class="node-rect" width="10" height="2.6143790851305084" style="stroke-width: 0.5; stroke: rgb(68, 68, 68); stroke-opacity: 1; fill: rgb(51, 51, 51); fill-opacity: 1;"/><text class="node-label" data-notex="1" x="0" y="0" text-anchor="end" transform="translate(-3.25,5.857189542565254)" style="cursor: default; font-family: Arial; font-size: 13px; fill: rgb(51, 51, 51); fill-opacity: 1; white-space: pre; text-shadow: white 1px 1px 1px, white -1px -1px 1px, white 1px -1px 1px, white -1px 1px 1px;">Attention Network</text></g><g class="sankey-node" transform="translate(530.000,186.144)" style="opacity: 1;"><rect class="node-rect" width="10" height="4.705882352973418" style="stroke-width: 0.5; stroke: rgb(68, 68, 68); stroke-opacity: 1; fill: rgb(51, 51, 51); fill-opacity: 1;"/><text class="node-label" data-notex="1" x="0" y="0" text-anchor="end" transform="translate(-3.25,6.902941176486709)" style="cursor: default; font-family: Arial; font-size: 13px; fill: rgb(51, 51, 51); fill-opacity: 1; white-space: pre; text-shadow: white 1px 1px 1px, white -1px -1px 1px, white 1px -1px 1px, white -1px 1px 1px;">Recursive Neural Network (Rnn)</text></g><g class="sankey-node" transform="translate(530.000,111.373)" style="opacity: 1;"><rect class="node-rect" width="10" height="1.0457516340609345" style="stroke-width: 0.5; stroke: rgb(68, 68, 68); stroke-opacity: 1; fill: rgb(51, 51, 51); fill-opacity: 1;"/><text class="node-label" data-notex="1" x="0" y="0" text-anchor="end" transform="translate(-3.25,5.072875817030467)" style="cursor: default; font-family: Arial; font-size: 13px; fill: rgb(51, 51, 51); fill-opacity: 1; white-space: pre; text-shadow: white 1px 1px 1px, white -1px -1px 1px, white 1px -1px 1px, white -1px 1px 1px;">Memory Network</text></g><g class="sankey-node" transform="translate(530.000,90.980)" style="opacity: 1;"><rect class="node-rect" width="10" height="2.6143790851305084" style="stroke-width: 0.5; stroke: rgb(68, 68, 68); stroke-opacity: 1; fill: rgb(51, 51, 51); fill-opacity: 1;"/><text class="node-label" data-notex="1" x="0" y="0" text-anchor="end" transform="translate(-3.25,5.857189542565254)" style="cursor: default; font-family: Arial; font-size: 13px; fill: rgb(51, 51, 51); fill-opacity: 1; white-space: pre; text-shadow: white 1px 1px 1px, white -1px -1px 1px, white 1px -1px 1px, white -1px 1px 1px;">Reinforcement Learning (Rl)</text></g><g class="sankey-node" transform="translate(530.000,292.810)" style="opacity: 1;"><rect class="node-rect" width="10" height="6.274509803807746" style="stroke-width: 0.5; stroke: rgb(68, 68, 68); stroke-opacity: 1; fill: rgb(51, 51, 51); fill-opacity: 1;"/><text class="node-label" data-notex="1" x="0" y="0" text-anchor="end" transform="translate(-3.25,7.687254901903873)" style="cursor: default; font-family: Arial; font-size: 13px; fill: rgb(51, 51, 51); fill-opacity: 1; white-space: pre; text-shadow: white 1px 1px 1px, white -1px -1px 1px, white 1px -1px 1px, white -1px 1px 1px;">Transformer</text></g><g class="sankey-node" transform="translate(0.000,160.386)" style="opacity: 1;"><rect class="node-rect" width="10" height="28.235294117500985" style="stroke-width: 0.5; stroke: rgb(68, 68, 68); stroke-opacity: 1; fill: rgb(51, 51, 51); fill-opacity: 1;"/><text class="node-label" data-notex="1" x="0" y="0" text-anchor="start" transform="translate(13.25,18.667647058750493)" style="cursor: default; font-family: Arial; font-size: 13px; fill: rgb(51, 51, 51); fill-opacity: 1; white-space: pre; text-shadow: white 1px 1px 1px, white -1px -1px 1px, white 1px -1px 1px, white -1px 1px 1px;">Logic</text></g><g class="sankey-node" transform="translate(265.000,219.003)" style="opacity: 1;"><rect class="node-rect" width="10" height="20.39215686292863" style="stroke-width: 0.5; stroke: rgb(68, 68, 68); stroke-opacity: 1; fill: rgb(51, 51, 51); fill-opacity: 1;"/><text class="node-label" data-notex="1" x="0" y="0" text-anchor="start" transform="translate(13.25,14.746078431464316)" style="cursor: default; font-family: Arial; font-size: 13px; fill: rgb(51, 51, 51); fill-opacity: 1; white-space: pre; text-shadow: white 1px 1px 1px, white -1px -1px 1px, white 1px -1px 1px, white -1px 1px 1px;">Early Generations</text></g><g class="sankey-node" transform="translate(265.000,136.389)" style="opacity: 1;"><rect class="node-rect" width="10" height="44.44444444417732" style="stroke-width: 0.5; stroke: rgb(68, 68, 68); stroke-opacity: 1; fill: rgb(51, 51, 51); fill-opacity: 1;"/><text class="node-label" data-notex="1" x="0" y="0" text-anchor="start" transform="translate(13.25,26.77222222208866)" style="cursor: default; font-family: Arial; font-size: 13px; fill: rgb(51, 51, 51); fill-opacity: 1; white-space: pre; text-shadow: white 1px 1px 1px, white -1px -1px 1px, white 1px -1px 1px, white -1px 1px 1px;">Sequence-To-Sequence</text></g><g class="sankey-node" transform="translate(265.000,257.173)" style="opacity: 1;"><rect class="node-rect" width="10" height="8.888888888938311" style="stroke-width: 0.5; stroke: rgb(68, 68, 68); stroke-opacity: 1; fill: rgb(51, 51, 51); fill-opacity: 1;"/><text class="node-label" data-notex="1" x="0" y="0" text-anchor="start" transform="translate(13.25,8.994444444469156)" style="cursor: default; font-family: Arial; font-size: 13px; fill: rgb(51, 51, 51); fill-opacity: 1; white-space: pre; text-shadow: white 1px 1px 1px, white -1px -1px 1px, white 1px -1px 1px, white -1px 1px 1px;">Graphical Models</text></g><g class="sankey-node" transform="translate(265.000,283.840)" style="opacity: 1;"><rect class="node-rect" width="10" height="9.934640522999075" style="stroke-width: 0.5; stroke: rgb(68, 68, 68); stroke-opacity: 1; fill: rgb(51, 51, 51); fill-opacity: 1;"/><text class="node-label" data-notex="1" x="0" y="0" text-anchor="start" transform="translate(13.25,9.517320261499538)" style="cursor: default; font-family: Arial; font-size: 13px; fill: rgb(51, 51, 51); fill-opacity: 1; white-space: pre; text-shadow: white 1px 1px 1px, white -1px -1px 1px, white 1px -1px 1px, white -1px 1px 1px;">Memory/Attention</text></g><g class="sankey-node" transform="translate(265.000,311.552)" style="opacity: 1;"><rect class="node-rect" width="10" height="4.705882352973504" style="stroke-width: 0.5; stroke: rgb(68, 68, 68); stroke-opacity: 1; fill: rgb(51, 51, 51); fill-opacity: 1;"/><text class="node-label" data-notex="1" x="0" y="0" text-anchor="start" transform="translate(13.25,6.902941176486752)" style="cursor: default; font-family: Arial; font-size: 13px; fill: rgb(51, 51, 51); fill-opacity: 1; white-space: pre; text-shadow: white 1px 1px 1px, white -1px -1px 1px, white 1px -1px 1px, white -1px 1px 1px;">Nesy</text></g><g class="sankey-node" transform="translate(265.000,102.925)" style="opacity: 1;"><rect class="node-rect" width="10" height="15.68627450951945" style="stroke-width: 0.5; stroke: rgb(68, 68, 68); stroke-opacity: 1; fill: rgb(51, 51, 51); fill-opacity: 1;"/><text class="node-label" data-notex="1" x="0" y="0" text-anchor="start" transform="translate(13.25,12.393137254759726)" style="cursor: default; font-family: Arial; font-size: 13px; fill: rgb(51, 51, 51); fill-opacity: 1; white-space: pre; text-shadow: white 1px 1px 1px, white -1px -1px 1px, white 1px -1px 1px, white -1px 1px 1px;">Linear Models</text></g><g class="sankey-node" transform="translate(265.000,198.611)" style="opacity: 1;"><rect class="node-rect" width="10" height="2.6143790851305653" style="stroke-width: 0.5; stroke: rgb(68, 68, 68); stroke-opacity: 1; fill: rgb(51, 51, 51); fill-opacity: 1;"/><text class="node-label" data-notex="1" x="0" y="0" text-anchor="start" transform="translate(13.25,5.8571895425652825)" style="cursor: default; font-family: Arial; font-size: 13px; fill: rgb(51, 51, 51); fill-opacity: 1; white-space: pre; text-shadow: white 1px 1px 1px, white -1px -1px 1px, white 1px -1px 1px, white -1px 1px 1px;">Rl</text></g></g></g><defs id="topdefs-69eb5b"><g class="clips"/></defs><g class="layer-above"><g class="imagelayer"/><g class="shapelayer"/></g><g class="infolayer"><g class="g-gtitle"><text class="gtitle" x="35" y="50" text-anchor="start" dy="0em" style="font-family: Arial; font-size: 18px; fill: rgb(51, 51, 51); opacity: 1; font-weight: normal; white-space: pre;">Symbolic to Neural</text></g><g class="first-render"/></g></svg>