<?xml version="1.0" encoding="utf-8" standalone="no"?>
<!DOCTYPE svg PUBLIC "-//W3C//DTD SVG 1.1//EN"
  "http://www.w3.org/Graphics/SVG/1.1/DTD/svg11.dtd">
<!-- Created with matplotlib (https://matplotlib.org/) -->
<svg height="177.48pt" version="1.1" viewBox="0 0 586.459375 177.48" width="586.459375pt" xmlns="http://www.w3.org/2000/svg" xmlns:xlink="http://www.w3.org/1999/xlink">
 <metadata>
  <rdf:RDF xmlns:cc="http://creativecommons.org/ns#" xmlns:dc="http://purl.org/dc/elements/1.1/" xmlns:rdf="http://www.w3.org/1999/02/22-rdf-syntax-ns#">
   <cc:Work>
    <dc:type rdf:resource="http://purl.org/dc/dcmitype/StillImage"/>
    <dc:date>2022-06-01T06:48:11.189467</dc:date>
    <dc:format>image/svg+xml</dc:format>
    <dc:creator>
     <cc:Agent>
      <dc:title>Matplotlib v3.3.2, https://matplotlib.org/</dc:title>
     </cc:Agent>
    </dc:creator>
   </cc:Work>
  </rdf:RDF>
 </metadata>
 <defs>
  <style type="text/css">*{stroke-linecap:butt;stroke-linejoin:round;}</style>
 </defs>
 <g id="figure_1">
  <g id="patch_1">
   <path d="M 0 177.48 
L 586.459375 177.48 
L 586.459375 0 
L 0 0 
z
" style="fill:none;"/>
  </g>
  <g id="axes_1">
   <g id="patch_2">
    <path clip-path="url(#pb717707736)" d="M 132.859375 162.363495 
L 558.002232 162.363495 
L 558.002232 141.780583 
L 132.859375 141.780583 
z
" style="fill:#450256;"/>
   </g>
   <g id="patch_3">
    <path clip-path="url(#pb717707736)" d="M 132.859375 130.697476 
L 262.764137 130.697476 
L 262.764137 110.114563 
L 132.859375 110.114563 
z
" style="fill:#450256;"/>
   </g>
   <g id="patch_4">
    <path clip-path="url(#pb717707736)" d="M 132.859375 99.031456 
L 215.526042 99.031456 
L 215.526042 78.448544 
L 132.859375 78.448544 
z
" style="fill:#450256;"/>
   </g>
   <g id="patch_5">
    <path clip-path="url(#pb717707736)" d="M 132.859375 67.365437 
L 215.526042 67.365437 
L 215.526042 46.782524 
L 132.859375 46.782524 
z
" style="fill:#450256;"/>
   </g>
   <g id="patch_6">
    <path clip-path="url(#pb717707736)" d="M 132.859375 35.699417 
L 144.668899 35.699417 
L 144.668899 15.116505 
L 132.859375 15.116505 
z
" style="fill:#450256;"/>
   </g>
   <g id="matplotlib.axis_1"/>
   <g id="matplotlib.axis_2">
    <g id="ytick_1">
     <g id="line2d_1">
      <defs>
       <path d="M 0 0 
L -3.5 0 
" id="m0b656e9d90" style="stroke:#000000;stroke-width:0.8;"/>
      </defs>
      <g>
       <use style="stroke:#000000;stroke-width:0.8;" x="132.859375" xlink:href="#m0b656e9d90" y="152.072039"/>
      </g>
     </g>
     <g id="text_1">
      <!-- Classification -->
      <g transform="translate(53.139375 156.572039)scale(0.12 -0.12)">
       <defs>
        <path d="M 60.546875 22.5625 
Q 59.234375 11.28125 52.21875 5.140625 
Q 45.21875 -0.984375 33.59375 -0.984375 
Q 21 -0.984375 13.40625 8.046875 
Q 5.8125 17.09375 5.8125 32.234375 
L 5.8125 39.0625 
Q 5.8125 48.96875 9.34375 56.484375 
Q 12.890625 64.015625 19.375 68.046875 
Q 25.875 72.078125 34.421875 72.078125 
Q 45.75 72.078125 52.578125 65.75 
Q 59.421875 59.421875 60.546875 48.25 
L 51.125 48.25 
Q 49.90625 56.734375 45.828125 60.546875 
Q 41.75 64.359375 34.421875 64.359375 
Q 25.4375 64.359375 20.328125 57.71875 
Q 15.234375 51.078125 15.234375 38.8125 
L 15.234375 31.9375 
Q 15.234375 20.359375 20.0625 13.515625 
Q 24.90625 6.6875 33.59375 6.6875 
Q 41.40625 6.6875 45.578125 10.21875 
Q 49.75 13.765625 51.125 22.5625 
z
" id="Roboto-Regular-67"/>
        <path d="M 16.65625 0 
L 7.625 0 
L 7.625 75 
L 16.65625 75 
z
" id="Roboto-Regular-108"/>
        <path d="M 39.453125 0 
Q 38.671875 1.5625 38.1875 5.5625 
Q 31.890625 -0.984375 23.140625 -0.984375 
Q 15.328125 -0.984375 10.328125 3.4375 
Q 5.328125 7.859375 5.328125 14.65625 
Q 5.328125 22.90625 11.59375 27.46875 
Q 17.875 32.03125 29.25 32.03125 
L 38.03125 32.03125 
L 38.03125 36.1875 
Q 38.03125 40.921875 35.203125 43.71875 
Q 32.375 46.53125 26.859375 46.53125 
Q 22.015625 46.53125 18.75 44.09375 
Q 15.484375 41.65625 15.484375 38.1875 
L 6.390625 38.1875 
Q 6.390625 42.140625 9.203125 45.828125 
Q 12.015625 49.515625 16.8125 51.65625 
Q 21.625 53.8125 27.390625 53.8125 
Q 36.53125 53.8125 41.703125 49.234375 
Q 46.875 44.671875 47.078125 36.671875 
L 47.078125 12.359375 
Q 47.078125 5.078125 48.921875 0.78125 
L 48.921875 0 
z
M 24.46875 6.890625 
Q 28.71875 6.890625 32.515625 9.078125 
Q 36.328125 11.28125 38.03125 14.796875 
L 38.03125 25.640625 
L 30.953125 25.640625 
Q 14.359375 25.640625 14.359375 15.921875 
Q 14.359375 11.671875 17.1875 9.28125 
Q 20.015625 6.890625 24.46875 6.890625 
z
" id="Roboto-Regular-97"/>
        <path d="M 37.59375 14.015625 
Q 37.59375 17.671875 34.828125 19.703125 
Q 32.078125 21.734375 25.21875 23.1875 
Q 18.359375 24.65625 14.328125 26.703125 
Q 10.296875 28.765625 8.375 31.59375 
Q 6.453125 34.421875 6.453125 38.328125 
Q 6.453125 44.828125 11.9375 49.3125 
Q 17.4375 53.8125 25.984375 53.8125 
Q 34.96875 53.8125 40.546875 49.171875 
Q 46.140625 44.53125 46.140625 37.3125 
L 37.0625 37.3125 
Q 37.0625 41.015625 33.90625 43.703125 
Q 30.765625 46.390625 25.984375 46.390625 
Q 21.046875 46.390625 18.265625 44.234375 
Q 15.484375 42.09375 15.484375 38.625 
Q 15.484375 35.359375 18.0625 33.6875 
Q 20.65625 32.03125 27.421875 30.515625 
Q 34.1875 29 38.375 26.90625 
Q 42.578125 24.8125 44.59375 21.84375 
Q 46.625 18.890625 46.625 14.65625 
Q 46.625 7.5625 40.953125 3.28125 
Q 35.296875 -0.984375 26.265625 -0.984375 
Q 19.921875 -0.984375 15.03125 1.265625 
Q 10.15625 3.515625 7.390625 7.546875 
Q 4.640625 11.578125 4.640625 16.265625 
L 13.671875 16.265625 
Q 13.921875 11.71875 17.3125 9.046875 
Q 20.703125 6.390625 26.265625 6.390625 
Q 31.390625 6.390625 34.484375 8.46875 
Q 37.59375 10.546875 37.59375 14.015625 
z
" id="Roboto-Regular-115"/>
        <path d="M 16.65625 0 
L 7.625 0 
L 7.625 52.828125 
L 16.65625 52.828125 
z
M 6.890625 66.84375 
Q 6.890625 69.046875 8.234375 70.5625 
Q 9.578125 72.078125 12.203125 72.078125 
Q 14.84375 72.078125 16.203125 70.5625 
Q 17.578125 69.046875 17.578125 66.84375 
Q 17.578125 64.65625 16.203125 63.1875 
Q 14.84375 61.71875 12.203125 61.71875 
Q 9.578125 61.71875 8.234375 63.1875 
Q 6.890625 64.65625 6.890625 66.84375 
z
" id="Roboto-Regular-105"/>
        <path d="M 11.28125 0 
L 11.28125 45.84375 
L 2.9375 45.84375 
L 2.9375 52.828125 
L 11.28125 52.828125 
L 11.28125 58.25 
Q 11.28125 66.75 15.8125 71.390625 
Q 20.359375 76.03125 28.65625 76.03125 
Q 31.78125 76.03125 34.859375 75.203125 
L 34.375 67.875 
Q 32.078125 68.3125 29.5 68.3125 
Q 25.09375 68.3125 22.703125 65.75 
Q 20.3125 63.1875 20.3125 58.40625 
L 20.3125 52.828125 
L 31.59375 52.828125 
L 31.59375 45.84375 
L 20.3125 45.84375 
L 20.3125 0 
z
" id="Roboto-Regular-102"/>
        <path d="M 28.03125 6.390625 
Q 32.859375 6.390625 36.46875 9.3125 
Q 40.09375 12.25 40.484375 16.65625 
L 49.03125 16.65625 
Q 48.78125 12.109375 45.890625 8 
Q 43.015625 3.90625 38.203125 1.453125 
Q 33.40625 -0.984375 28.03125 -0.984375 
Q 17.234375 -0.984375 10.859375 6.21875 
Q 4.5 13.421875 4.5 25.921875 
L 4.5 27.4375 
Q 4.5 35.15625 7.328125 41.15625 
Q 10.15625 47.171875 15.453125 50.484375 
Q 20.75 53.8125 27.984375 53.8125 
Q 36.859375 53.8125 42.75 48.484375 
Q 48.640625 43.171875 49.03125 34.671875 
L 40.484375 34.671875 
Q 40.09375 39.796875 36.59375 43.09375 
Q 33.109375 46.390625 27.984375 46.390625 
Q 21.09375 46.390625 17.3125 41.421875 
Q 13.53125 36.46875 13.53125 27.09375 
L 13.53125 25.390625 
Q 13.53125 16.265625 17.28125 11.328125 
Q 21.046875 6.390625 28.03125 6.390625 
z
" id="Roboto-Regular-99"/>
        <path d="M 19.09375 65.625 
L 19.09375 52.828125 
L 28.953125 52.828125 
L 28.953125 45.84375 
L 19.09375 45.84375 
L 19.09375 13.09375 
Q 19.09375 9.90625 20.40625 8.3125 
Q 21.734375 6.734375 24.90625 6.734375 
Q 26.46875 6.734375 29.203125 7.328125 
L 29.203125 0 
Q 25.640625 -0.984375 22.265625 -0.984375 
Q 16.21875 -0.984375 13.140625 2.671875 
Q 10.0625 6.34375 10.0625 13.09375 
L 10.0625 45.84375 
L 0.4375 45.84375 
L 0.4375 52.828125 
L 10.0625 52.828125 
L 10.0625 65.625 
z
" id="Roboto-Regular-116"/>
        <path d="M 4.4375 26.90625 
Q 4.4375 34.671875 7.484375 40.875 
Q 10.546875 47.078125 15.984375 50.4375 
Q 21.4375 53.8125 28.421875 53.8125 
Q 39.203125 53.8125 45.875 46.34375 
Q 52.546875 38.875 52.546875 26.46875 
L 52.546875 25.828125 
Q 52.546875 18.109375 49.578125 11.984375 
Q 46.625 5.859375 41.125 2.4375 
Q 35.640625 -0.984375 28.515625 -0.984375 
Q 17.78125 -0.984375 11.109375 6.484375 
Q 4.4375 13.96875 4.4375 26.265625 
z
M 13.53125 25.828125 
Q 13.53125 17.046875 17.609375 11.71875 
Q 21.6875 6.390625 28.515625 6.390625 
Q 35.40625 6.390625 39.453125 11.78125 
Q 43.5 17.1875 43.5 26.90625 
Q 43.5 35.59375 39.375 40.984375 
Q 35.25 46.390625 28.421875 46.390625 
Q 21.734375 46.390625 17.625 41.0625 
Q 13.53125 35.75 13.53125 25.828125 
z
" id="Roboto-Regular-111"/>
        <path d="M 15.375 52.828125 
L 15.671875 46.1875 
Q 21.734375 53.8125 31.5 53.8125 
Q 48.25 53.8125 48.390625 34.90625 
L 48.390625 0 
L 39.359375 0 
L 39.359375 34.96875 
Q 39.3125 40.671875 36.75 43.40625 
Q 34.1875 46.140625 28.765625 46.140625 
Q 24.359375 46.140625 21.03125 43.796875 
Q 17.71875 41.453125 15.875 37.640625 
L 15.875 0 
L 6.84375 0 
L 6.84375 52.828125 
z
" id="Roboto-Regular-110"/>
       </defs>
       <use xlink:href="#Roboto-Regular-67"/>
       <use x="65.087891" xlink:href="#Roboto-Regular-108"/>
       <use x="89.355469" xlink:href="#Roboto-Regular-97"/>
       <use x="143.75" xlink:href="#Roboto-Regular-115"/>
       <use x="195.3125" xlink:href="#Roboto-Regular-115"/>
       <use x="246.875" xlink:href="#Roboto-Regular-105"/>
       <use x="271.142578" xlink:href="#Roboto-Regular-102"/>
       <use x="305.859375" xlink:href="#Roboto-Regular-105"/>
       <use x="330.126953" xlink:href="#Roboto-Regular-99"/>
       <use x="382.470703" xlink:href="#Roboto-Regular-97"/>
       <use x="436.865234" xlink:href="#Roboto-Regular-116"/>
       <use x="469.53125" xlink:href="#Roboto-Regular-105"/>
       <use x="493.798828" xlink:href="#Roboto-Regular-111"/>
       <use x="550.830078" xlink:href="#Roboto-Regular-110"/>
      </g>
     </g>
    </g>
    <g id="ytick_2">
     <g id="line2d_2">
      <g>
       <use style="stroke:#000000;stroke-width:0.8;" x="132.859375" xlink:href="#m0b656e9d90" y="120.406019"/>
      </g>
     </g>
     <g id="text_2">
      <!-- Reasoning -->
      <g transform="translate(69.6675 124.876957)scale(0.12 -0.12)">
       <defs>
        <path d="M 34.328125 28.765625 
L 17.625 28.765625 
L 17.625 0 
L 8.203125 0 
L 8.203125 71.09375 
L 31.734375 71.09375 
Q 43.75 71.09375 50.21875 65.625 
Q 56.6875 60.15625 56.6875 49.703125 
Q 56.6875 43.0625 53.09375 38.125 
Q 49.515625 33.203125 43.109375 30.765625 
L 59.8125 0.59375 
L 59.8125 0 
L 49.75 0 
z
M 17.625 36.421875 
L 32.03125 36.421875 
Q 39.015625 36.421875 43.140625 40.03125 
Q 47.265625 43.65625 47.265625 49.703125 
Q 47.265625 56.296875 43.328125 59.8125 
Q 39.40625 63.328125 31.984375 63.375 
L 17.625 63.375 
z
" id="Roboto-Regular-82"/>
        <path d="M 28.765625 -0.984375 
Q 18.015625 -0.984375 11.28125 6.078125 
Q 4.546875 13.140625 4.546875 24.953125 
L 4.546875 26.609375 
Q 4.546875 34.46875 7.546875 40.640625 
Q 10.546875 46.828125 15.9375 50.3125 
Q 21.34375 53.8125 27.640625 53.8125 
Q 37.9375 53.8125 43.640625 47.015625 
Q 49.359375 40.234375 49.359375 27.59375 
L 49.359375 23.828125 
L 13.578125 23.828125 
Q 13.765625 16.015625 18.140625 11.203125 
Q 22.515625 6.390625 29.25 6.390625 
Q 34.03125 6.390625 37.34375 8.34375 
Q 40.671875 10.296875 43.171875 13.53125 
L 48.6875 9.234375 
Q 42.046875 -0.984375 28.765625 -0.984375 
z
M 27.640625 46.390625 
Q 22.171875 46.390625 18.453125 42.40625 
Q 14.75 38.421875 13.875 31.25 
L 40.328125 31.25 
L 40.328125 31.9375 
Q 39.9375 38.8125 36.609375 42.59375 
Q 33.296875 46.390625 27.640625 46.390625 
z
" id="Roboto-Regular-101"/>
        <path d="M 4.6875 26.859375 
Q 4.6875 39.203125 10.390625 46.5 
Q 16.109375 53.8125 25.53125 53.8125 
Q 35.203125 53.8125 40.625 46.96875 
L 41.0625 52.828125 
L 49.3125 52.828125 
L 49.3125 1.265625 
Q 49.3125 -8.984375 43.234375 -14.890625 
Q 37.15625 -20.796875 26.90625 -20.796875 
Q 21.1875 -20.796875 15.71875 -18.359375 
Q 10.25 -15.921875 7.375 -11.671875 
L 12.0625 -6.25 
Q 17.875 -13.421875 26.265625 -13.421875 
Q 32.859375 -13.421875 36.546875 -9.703125 
Q 40.234375 -6 40.234375 0.734375 
L 40.234375 5.28125 
Q 34.8125 -0.984375 25.4375 -0.984375 
Q 16.15625 -0.984375 10.421875 6.484375 
Q 4.6875 13.96875 4.6875 26.859375 
z
M 13.765625 25.828125 
Q 13.765625 16.890625 17.421875 11.78125 
Q 21.09375 6.6875 27.6875 6.6875 
Q 36.234375 6.6875 40.234375 14.453125 
L 40.234375 38.578125 
Q 36.078125 46.140625 27.78125 46.140625 
Q 21.1875 46.140625 17.46875 41.015625 
Q 13.765625 35.890625 13.765625 25.828125 
z
" id="Roboto-Regular-103"/>
       </defs>
       <use xlink:href="#Roboto-Regular-82"/>
       <use x="61.572266" xlink:href="#Roboto-Regular-101"/>
       <use x="114.550781" xlink:href="#Roboto-Regular-97"/>
       <use x="168.945312" xlink:href="#Roboto-Regular-115"/>
       <use x="220.507812" xlink:href="#Roboto-Regular-111"/>
       <use x="277.539062" xlink:href="#Roboto-Regular-110"/>
       <use x="332.714844" xlink:href="#Roboto-Regular-105"/>
       <use x="356.982422" xlink:href="#Roboto-Regular-110"/>
       <use x="412.158203" xlink:href="#Roboto-Regular-103"/>
      </g>
     </g>
    </g>
    <g id="ytick_3">
     <g id="line2d_3">
      <g>
       <use style="stroke:#000000;stroke-width:0.8;" x="132.859375" xlink:href="#m0b656e9d90" y="88.74"/>
      </g>
     </g>
     <g id="text_3">
      <!-- Generative -->
      <g transform="translate(68.758125 93.24)scale(0.12 -0.12)">
       <defs>
        <path d="M 60.75 9.328125 
Q 57.125 4.15625 50.65625 1.578125 
Q 44.1875 -0.984375 35.59375 -0.984375 
Q 26.90625 -0.984375 20.15625 3.09375 
Q 13.421875 7.171875 9.734375 14.6875 
Q 6.0625 22.21875 5.953125 32.125 
L 5.953125 38.328125 
Q 5.953125 54.390625 13.453125 63.234375 
Q 20.953125 72.078125 34.515625 72.078125 
Q 45.65625 72.078125 52.4375 66.375 
Q 59.234375 60.6875 60.75 50.25 
L 51.375 50.25 
Q 48.734375 64.359375 34.578125 64.359375 
Q 25.140625 64.359375 20.28125 57.734375 
Q 15.4375 51.125 15.375 38.578125 
L 15.375 32.765625 
Q 15.375 20.796875 20.84375 13.734375 
Q 26.3125 6.6875 35.640625 6.6875 
Q 40.921875 6.6875 44.875 7.859375 
Q 48.828125 9.03125 51.421875 11.8125 
L 51.421875 27.78125 
L 34.96875 27.78125 
L 34.96875 35.40625 
L 60.75 35.40625 
z
" id="Roboto-Regular-71"/>
        <path d="M 32.375 44.734375 
Q 30.328125 45.0625 27.9375 45.0625 
Q 19.046875 45.0625 15.875 37.5 
L 15.875 0 
L 6.84375 0 
L 6.84375 52.828125 
L 15.625 52.828125 
L 15.765625 46.734375 
Q 20.21875 53.8125 28.375 53.8125 
Q 31 53.8125 32.375 53.125 
z
" id="Roboto-Regular-114"/>
        <path d="M 24.265625 12.25 
L 37.359375 52.828125 
L 46.578125 52.828125 
L 27.640625 0 
L 20.75 0 
L 1.609375 52.828125 
L 10.84375 52.828125 
z
" id="Roboto-Regular-118"/>
       </defs>
       <use xlink:href="#Roboto-Regular-71"/>
       <use x="68.115234" xlink:href="#Roboto-Regular-101"/>
       <use x="121.09375" xlink:href="#Roboto-Regular-110"/>
       <use x="176.269531" xlink:href="#Roboto-Regular-101"/>
       <use x="229.248047" xlink:href="#Roboto-Regular-114"/>
       <use x="263.085938" xlink:href="#Roboto-Regular-97"/>
       <use x="317.480469" xlink:href="#Roboto-Regular-116"/>
       <use x="350.146484" xlink:href="#Roboto-Regular-105"/>
       <use x="374.414062" xlink:href="#Roboto-Regular-118"/>
       <use x="422.851562" xlink:href="#Roboto-Regular-101"/>
      </g>
     </g>
    </g>
    <g id="ytick_4">
     <g id="line2d_4">
      <g>
       <use style="stroke:#000000;stroke-width:0.8;" x="132.859375" xlink:href="#m0b656e9d90" y="57.073981"/>
      </g>
     </g>
     <g id="text_4">
      <!-- Information extraction -->
      <g transform="translate(7.2 61.573981)scale(0.12 -0.12)">
       <defs>
        <path d="M 18.3125 0 
L 8.9375 0 
L 8.9375 71.09375 
L 18.3125 71.09375 
z
" id="Roboto-Regular-73"/>
        <path d="M 15.328125 52.828125 
L 15.578125 46.96875 
Q 21.390625 53.8125 31.25 53.8125 
Q 42.328125 53.8125 46.34375 45.3125 
Q 48.96875 49.125 53.1875 51.46875 
Q 57.421875 53.8125 63.1875 53.8125 
Q 80.5625 53.8125 80.859375 35.40625 
L 80.859375 0 
L 71.828125 0 
L 71.828125 34.859375 
Q 71.828125 40.53125 69.234375 43.328125 
Q 66.65625 46.140625 60.546875 46.140625 
Q 55.515625 46.140625 52.1875 43.140625 
Q 48.875 40.140625 48.34375 35.0625 
L 48.34375 0 
L 39.265625 0 
L 39.265625 34.625 
Q 39.265625 46.140625 27.984375 46.140625 
Q 19.09375 46.140625 15.828125 38.578125 
L 15.828125 0 
L 6.78125 0 
L 6.78125 52.828125 
z
" id="Roboto-Regular-109"/>
        <path id="Roboto-Regular-32"/>
        <path d="M 24.5625 33.546875 
L 36.28125 52.828125 
L 46.828125 52.828125 
L 29.546875 26.703125 
L 47.359375 0 
L 36.921875 0 
L 24.703125 19.78125 
L 12.5 0 
L 2 0 
L 19.828125 26.703125 
L 2.546875 52.828125 
L 12.984375 52.828125 
z
" id="Roboto-Regular-120"/>
       </defs>
       <use xlink:href="#Roboto-Regular-73"/>
       <use x="27.197266" xlink:href="#Roboto-Regular-110"/>
       <use x="82.373047" xlink:href="#Roboto-Regular-102"/>
       <use x="117.089844" xlink:href="#Roboto-Regular-111"/>
       <use x="174.121094" xlink:href="#Roboto-Regular-114"/>
       <use x="207.958984" xlink:href="#Roboto-Regular-109"/>
       <use x="295.605469" xlink:href="#Roboto-Regular-97"/>
       <use x="350" xlink:href="#Roboto-Regular-116"/>
       <use x="382.666016" xlink:href="#Roboto-Regular-105"/>
       <use x="406.933594" xlink:href="#Roboto-Regular-111"/>
       <use x="463.964844" xlink:href="#Roboto-Regular-110"/>
       <use x="519.140625" xlink:href="#Roboto-Regular-32"/>
       <use x="543.896484" xlink:href="#Roboto-Regular-101"/>
       <use x="596.875" xlink:href="#Roboto-Regular-120"/>
       <use x="646.435547" xlink:href="#Roboto-Regular-116"/>
       <use x="679.101562" xlink:href="#Roboto-Regular-114"/>
       <use x="712.939453" xlink:href="#Roboto-Regular-97"/>
       <use x="767.333984" xlink:href="#Roboto-Regular-99"/>
       <use x="819.677734" xlink:href="#Roboto-Regular-116"/>
       <use x="852.34375" xlink:href="#Roboto-Regular-105"/>
       <use x="876.611328" xlink:href="#Roboto-Regular-111"/>
       <use x="933.642578" xlink:href="#Roboto-Regular-110"/>
      </g>
     </g>
    </g>
    <g id="ytick_5">
     <g id="line2d_5">
      <g>
       <use style="stroke:#000000;stroke-width:0.8;" x="132.859375" xlink:href="#m0b656e9d90" y="25.407961"/>
      </g>
     </g>
     <g id="text_5">
      <!-- Similarity -->
      <g transform="translate(76.389375 29.907961)scale(0.12 -0.12)">
       <defs>
        <path d="M 29.203125 31.6875 
Q 17.140625 35.15625 11.640625 40.203125 
Q 6.15625 45.265625 6.15625 52.6875 
Q 6.15625 61.078125 12.859375 66.578125 
Q 19.578125 72.078125 30.328125 72.078125 
Q 37.640625 72.078125 43.375 69.234375 
Q 49.125 66.40625 52.265625 61.421875 
Q 55.421875 56.453125 55.421875 50.53125 
L 46 50.53125 
Q 46 56.984375 41.890625 60.671875 
Q 37.796875 64.359375 30.328125 64.359375 
Q 23.390625 64.359375 19.5 61.296875 
Q 15.625 58.25 15.625 52.828125 
Q 15.625 48.484375 19.3125 45.484375 
Q 23 42.484375 31.859375 39.984375 
Q 40.71875 37.5 45.71875 34.5 
Q 50.734375 31.5 53.140625 27.484375 
Q 55.5625 23.484375 55.5625 18.0625 
Q 55.5625 9.421875 48.828125 4.21875 
Q 42.09375 -0.984375 30.8125 -0.984375 
Q 23.484375 -0.984375 17.140625 1.828125 
Q 10.796875 4.640625 7.34375 9.515625 
Q 3.90625 14.40625 3.90625 20.609375 
L 13.328125 20.609375 
Q 13.328125 14.15625 18.09375 10.421875 
Q 22.859375 6.6875 30.8125 6.6875 
Q 38.234375 6.6875 42.1875 9.71875 
Q 46.140625 12.75 46.140625 17.96875 
Q 46.140625 23.1875 42.46875 26.046875 
Q 38.8125 28.90625 29.203125 31.6875 
z
" id="Roboto-Regular-83"/>
        <path d="M 24.125 13.234375 
L 36.421875 52.828125 
L 46.09375 52.828125 
L 24.859375 -8.15625 
Q 19.921875 -21.34375 9.1875 -21.34375 
L 7.46875 -21.1875 
L 4.109375 -20.5625 
L 4.109375 -13.234375 
L 6.546875 -13.421875 
Q 11.140625 -13.421875 13.703125 -11.5625 
Q 16.265625 -9.71875 17.921875 -4.78125 
L 19.921875 0.59375 
L 1.078125 52.828125 
L 10.9375 52.828125 
z
" id="Roboto-Regular-121"/>
       </defs>
       <use xlink:href="#Roboto-Regular-83"/>
       <use x="59.326172" xlink:href="#Roboto-Regular-105"/>
       <use x="83.59375" xlink:href="#Roboto-Regular-109"/>
       <use x="171.240234" xlink:href="#Roboto-Regular-105"/>
       <use x="195.507812" xlink:href="#Roboto-Regular-108"/>
       <use x="219.775391" xlink:href="#Roboto-Regular-97"/>
       <use x="274.169922" xlink:href="#Roboto-Regular-114"/>
       <use x="308.007812" xlink:href="#Roboto-Regular-105"/>
       <use x="332.275391" xlink:href="#Roboto-Regular-116"/>
       <use x="364.941406" xlink:href="#Roboto-Regular-121"/>
      </g>
     </g>
    </g>
   </g>
   <g id="text_6">
    <!-- 36 -->
    <g transform="translate(561.545089 155.238641)scale(0.1 -0.1)">
     <defs>
      <path d="M 19.046875 39.9375 
L 25.828125 39.9375 
Q 32.234375 40.046875 35.890625 43.3125 
Q 39.546875 46.578125 39.546875 52.15625 
Q 39.546875 64.65625 27.09375 64.65625 
Q 21.234375 64.65625 17.75 61.296875 
Q 14.265625 57.953125 14.265625 52.4375 
L 5.21875 52.4375 
Q 5.21875 60.890625 11.390625 66.484375 
Q 17.578125 72.078125 27.09375 72.078125 
Q 37.15625 72.078125 42.859375 66.75 
Q 48.578125 61.421875 48.578125 51.953125 
Q 48.578125 47.3125 45.578125 42.96875 
Q 42.578125 38.625 37.40625 36.46875 
Q 43.265625 34.625 46.453125 30.328125 
Q 49.65625 26.03125 49.65625 19.828125 
Q 49.65625 10.25 43.40625 4.625 
Q 37.15625 -0.984375 27.140625 -0.984375 
Q 17.140625 -0.984375 10.859375 4.4375 
Q 4.59375 9.859375 4.59375 18.75 
L 13.671875 18.75 
Q 13.671875 13.140625 17.328125 9.765625 
Q 21 6.390625 27.15625 6.390625 
Q 33.6875 6.390625 37.15625 9.8125 
Q 40.625 13.234375 40.625 19.625 
Q 40.625 25.828125 36.8125 29.140625 
Q 33.015625 32.46875 25.828125 32.5625 
L 19.046875 32.5625 
z
" id="Roboto-Regular-51"/>
      <path d="M 41.359375 71.140625 
L 41.359375 63.484375 
L 39.703125 63.484375 
Q 29.15625 63.28125 22.90625 57.21875 
Q 16.65625 51.171875 15.671875 40.1875 
Q 21.296875 46.625 31 46.625 
Q 40.28125 46.625 45.828125 40.078125 
Q 51.375 33.546875 51.375 23.1875 
Q 51.375 12.203125 45.390625 5.609375 
Q 39.40625 -0.984375 29.34375 -0.984375 
Q 19.140625 -0.984375 12.796875 6.859375 
Q 6.453125 14.703125 6.453125 27.046875 
L 6.453125 30.515625 
Q 6.453125 50.140625 14.8125 60.515625 
Q 23.1875 70.90625 39.75 71.140625 
z
M 29.5 39.109375 
Q 24.859375 39.109375 20.953125 36.328125 
Q 17.046875 33.546875 15.53125 29.34375 
L 15.53125 26.03125 
Q 15.53125 17.234375 19.484375 11.859375 
Q 23.4375 6.5 29.34375 6.5 
Q 35.453125 6.5 38.9375 10.984375 
Q 42.4375 15.484375 42.4375 22.75 
Q 42.4375 30.078125 38.890625 34.59375 
Q 35.359375 39.109375 29.5 39.109375 
z
" id="Roboto-Regular-54"/>
     </defs>
     <use xlink:href="#Roboto-Regular-51"/>
     <use x="56.152344" xlink:href="#Roboto-Regular-54"/>
    </g>
   </g>
   <g id="text_7">
    <!-- 11 -->
    <g transform="translate(266.306994 123.572621)scale(0.1 -0.1)">
     <defs>
      <path d="M 35.59375 0 
L 26.515625 0 
L 26.515625 60.203125 
L 8.296875 53.515625 
L 8.296875 61.71875 
L 34.1875 71.4375 
L 35.59375 71.4375 
z
" id="Roboto-Regular-49"/>
     </defs>
     <use xlink:href="#Roboto-Regular-49"/>
     <use x="56.152344" xlink:href="#Roboto-Regular-49"/>
    </g>
   </g>
   <g id="text_8">
    <!-- 7 -->
    <g transform="translate(219.068899 91.906602)scale(0.1 -0.1)">
     <defs>
      <path d="M 51.8125 66.015625 
L 22.359375 0 
L 12.890625 0 
L 42.234375 63.671875 
L 3.765625 63.671875 
L 3.765625 71.09375 
L 51.8125 71.09375 
z
" id="Roboto-Regular-55"/>
     </defs>
     <use xlink:href="#Roboto-Regular-55"/>
    </g>
   </g>
   <g id="text_9">
    <!-- 7 -->
    <g transform="translate(219.068899 60.240583)scale(0.1 -0.1)">
     <use xlink:href="#Roboto-Regular-55"/>
    </g>
   </g>
   <g id="text_10">
    <!-- 1 -->
    <g transform="translate(148.211756 28.574563)scale(0.1 -0.1)">
     <use xlink:href="#Roboto-Regular-49"/>
    </g>
   </g>
  </g>
 </g>
 <defs>
  <clipPath id="pb717707736">
   <rect height="163.08" width="446.4" x="132.859375" y="7.2"/>
  </clipPath>
 </defs>
</svg>
