<svg class="main-svg" xmlns="http://www.w3.org/2000/svg" xmlns:xlink="http://www.w3.org/1999/xlink" width="700" height="500" style="" viewBox="0 0 700 500"><rect x="0" y="0" width="700" height="500" style="fill: rgb(255, 255, 255); fill-opacity: 1;"/><defs id="defs-e62ade"><g class="clips"/><g class="gradients"/></defs><g class="bglayer"/><g class="layer-below"><g class="imagelayer"/><g class="shapelayer"/></g><g class="cartesianlayer"/><g class="polarlayer"/><g class="ternarylayer"/><g class="geolayer"/><g class="funnelarealayer"/><g class="pielayer"/><g class="treemaplayer"/><g class="sunburstlayer"/><g class="glimages"/><g class="sankey" transform="translate(80,100)matrix(1 0 0 1 0 0)" style="box-sizing: content-box; position: absolute; left: 0px; shape-rendering: geometricprecision; pointer-events: auto;"><g class="sankey-links" style="fill: none;"><path class="sankey-link" d="M10,141.99546088724415C93.33333333333333,141.99546088724415 93.33333333333333,66.14678899082597 176.66666666666666,66.14678899082597L176.66666666666666,68.16513761467917C93.33333333333333,68.16513761467917 93.33333333333333,144.01380951109738 10,144.01380951109738Z" style="stroke: rgb(68, 68, 68); stroke-opacity: 1; fill: rgb(204, 204, 204); fill-opacity: 1; stroke-width: 0; opacity: 1;"/><path class="sankey-link" d="M186.66666666666666,140.8256880733948C270,140.8256880733948 270,227.41019017632544 353.3333333333333,227.41019017632544L353.3333333333333,229.42853880017867C270,229.42853880017867 270,142.84403669724801 186.66666666666666,142.84403669724801Z" style="stroke: rgb(68, 68, 68); stroke-opacity: 1; fill: rgb(87, 188, 214); fill-opacity: 1; stroke-width: 0; opacity: 1;"/><path class="sankey-link" d="M186.66666666666666,108.53211009174346C270,108.53211009174346 270,151.9514745799952 353.3333333333333,151.9514745799952L353.3333333333333,153.96982320384842C270,153.96982320384842 270,110.55045871559666 186.66666666666666,110.55045871559666Z" style="stroke: rgb(68, 68, 68); stroke-opacity: 1; fill: rgb(87, 188, 214); fill-opacity: 1; stroke-width: 0; opacity: 1;"/><path class="sankey-link" d="M10,144.01380951109735C93.33333333333333,144.01380951109735 93.33333333333333,68.16513761467918 176.66666666666666,68.16513761467918L176.66666666666666,70.18348623853238C93.33333333333333,70.18348623853238 93.33333333333333,146.03215813495058 10,146.03215813495058Z" style="stroke: rgb(68, 68, 68); stroke-opacity: 1; fill: rgb(204, 204, 204); fill-opacity: 1; stroke-width: 0; opacity: 1;"/><path class="sankey-link" d="M186.66666666666666,142.844036697248C270,142.844036697248 270,229.42853880017864 353.3333333333333,229.42853880017864L353.3333333333333,231.44688742403187C270,231.44688742403187 270,144.86238532110121 186.66666666666666,144.86238532110121Z" style="stroke: rgb(68, 68, 68); stroke-opacity: 1; fill: rgb(87, 188, 214); fill-opacity: 1; stroke-width: 0; opacity: 1;"/><path class="sankey-link" d="M10,217.45417648357437C93.33333333333333,217.45417648357437 93.33333333333333,210.22935779816527 176.66666666666666,210.22935779816527L176.66666666666666,212.2477064220185C93.33333333333333,212.2477064220185 93.33333333333333,219.4725251074276 10,219.4725251074276Z" style="stroke: rgb(68, 68, 68); stroke-opacity: 1; fill: rgb(87, 188, 214); fill-opacity: 1; stroke-width: 0; opacity: 1;"/><path class="sankey-link" d="M10,201.30738749274877C93.33333333333333,201.30738749274877 93.33333333333333,86.33027522935811 176.66666666666666,86.33027522935811L176.66666666666666,88.34862385321131C93.33333333333333,88.34862385321131 93.33333333333333,203.325736116602 10,203.325736116602Z" style="stroke: rgb(68, 68, 68); stroke-opacity: 1; fill: rgb(87, 188, 214); fill-opacity: 1; stroke-width: 0; opacity: 1;"/><path class="sankey-link" d="M10,219.47252510742757C93.33333333333333,219.47252510742757 93.33333333333333,212.24770642201847 176.66666666666666,212.24770642201847L176.66666666666666,214.2660550458717C93.33333333333333,214.2660550458717 93.33333333333333,221.4908737312808 10,221.4908737312808Z" style="stroke: rgb(68, 68, 68); stroke-opacity: 1; fill: rgb(87, 188, 214); fill-opacity: 1; stroke-width: 0; opacity: 1;"/><path class="sankey-link" d="M186.66666666666666,110.55045871559668C270,110.55045871559668 270,153.9698232038484 353.3333333333333,153.9698232038484L353.3333333333333,155.98817182770162C270,155.98817182770162 270,112.56880733944988 186.66666666666666,112.56880733944988Z" style="stroke: rgb(68, 68, 68); stroke-opacity: 1; fill: rgb(87, 188, 214); fill-opacity: 1; stroke-width: 0; opacity: 1;"/><path class="sankey-link" d="M186.66666666666666,244.54128440366966C270,244.54128440366966 270,180.20835531394 353.3333333333333,180.20835531394L353.3333333333333,182.22670393779322C270,182.22670393779322 270,246.5596330275229 186.66666666666666,246.5596330275229Z" style="stroke: rgb(68, 68, 68); stroke-opacity: 1; fill: rgb(156, 67, 151); fill-opacity: 1; stroke-width: 0; opacity: 1;"/><path class="sankey-link" d="M186.66666666666666,94.40366972477096C358.33333333333337,94.40366972477096 358.33333333333337,123.89908256880756 530,123.89908256880756L530,125.91743119266076C358.33333333333337,125.91743119266076 358.33333333333337,96.42201834862416 186.66666666666666,96.42201834862416Z" style="stroke: rgb(68, 68, 68); stroke-opacity: 1; fill: rgb(87, 188, 214); fill-opacity: 1; stroke-width: 0; opacity: 1;"/><path class="sankey-link" d="M186.66666666666666,234.44954128440367C358.33333333333337,234.44954128440367 358.33333333333337,148.11926605504598 530,148.11926605504598L530,150.1376146788992C358.33333333333337,150.1376146788992 358.33333333333337,236.4678899082569 186.66666666666666,236.4678899082569Z" style="stroke: rgb(68, 68, 68); stroke-opacity: 1; fill: rgb(204, 204, 204); fill-opacity: 1; stroke-width: 0; opacity: 1;"/><path class="sankey-link" d="M363.3333333333333,170.116612194674C446.66666666666663,170.116612194674 446.66666666666663,138.02752293577998 530,138.02752293577998L530,140.0458715596332C446.66666666666663,140.0458715596332 446.66666666666663,172.13496081852722 363.3333333333333,172.13496081852722Z" style="stroke: rgb(68, 68, 68); stroke-opacity: 1; fill: rgb(87, 188, 214); fill-opacity: 1; stroke-width: 0; opacity: 1;"/><path class="sankey-link" d="M186.66666666666666,165.04587155963318C358.33333333333337,165.04587155963318 358.33333333333337,248.57798165137615 530,248.57798165137615L530,250.59633027522938C358.33333333333337,250.59633027522938 358.33333333333337,167.0642201834864 186.66666666666666,167.0642201834864Z" style="stroke: rgb(68, 68, 68); stroke-opacity: 1; fill: rgb(204, 204, 204); fill-opacity: 1; stroke-width: 0; opacity: 1;"/><path class="sankey-link" d="M186.66666666666666,270.7798165137615C358.33333333333337,270.7798165137615 358.33333333333337,262.70642201834863 530,262.70642201834863L530,264.7247706422018C358.33333333333337,264.7247706422018 358.33333333333337,272.79816513761466 186.66666666666666,272.79816513761466Z" style="stroke: rgb(68, 68, 68); stroke-opacity: 1; fill: rgb(204, 204, 204); fill-opacity: 1; stroke-width: 0; opacity: 1;"/><path class="sankey-link" d="M363.3333333333333,188.2817498093528C446.66666666666663,188.2817498093528 446.66666666666663,252.61467889908255 530,252.61467889908255L530,254.63302752293578C446.66666666666663,254.63302752293578 446.66666666666663,190.30009843320602 363.3333333333333,190.30009843320602Z" style="stroke: rgb(68, 68, 68); stroke-opacity: 1; fill: rgb(87, 188, 214); fill-opacity: 1; stroke-width: 0; opacity: 1;"/><path class="sankey-link" d="M186.66666666666666,66.14678899082597C358.33333333333337,66.14678899082597 358.33333333333337,1.2789769243681803e-13 530,1.2789769243681803e-13L530,2.018348623853339C358.33333333333337,2.018348623853339 358.33333333333337,68.16513761467917 186.66666666666666,68.16513761467917Z" style="stroke: rgb(68, 68, 68); stroke-opacity: 1; fill: rgb(204, 204, 204); fill-opacity: 1; stroke-width: 0; opacity: 1;"/><path class="sankey-link" d="M186.66666666666666,200.13761467889927C358.33333333333337,200.13761467889927 358.33333333333337,46.422018348624 530,46.422018348624L530,48.440366972477214C358.33333333333337,48.440366972477214 358.33333333333337,202.1559633027525 186.66666666666666,202.1559633027525Z" style="stroke: rgb(68, 68, 68); stroke-opacity: 1; fill: rgb(204, 204, 204); fill-opacity: 1; stroke-width: 0; opacity: 1;"/><path class="sankey-link" d="M363.3333333333333,151.9514745799952C446.66666666666663,151.9514745799952 446.66666666666663,28.256880733945078 530,28.256880733945078L530,30.275229357798292C446.66666666666663,30.275229357798292 446.66666666666663,153.96982320384842 363.3333333333333,153.96982320384842Z" style="stroke: rgb(68, 68, 68); stroke-opacity: 1; fill: rgb(204, 204, 204); fill-opacity: 1; stroke-width: 0; opacity: 1;"/><path class="sankey-link" d="M10,146.03215813495055C93.33333333333333,146.03215813495055 93.33333333333333,70.1834862385324 176.66666666666666,70.1834862385324L176.66666666666666,72.2018348623856C93.33333333333333,72.2018348623856 93.33333333333333,148.05050675880378 10,148.05050675880378Z" style="stroke: rgb(68, 68, 68); stroke-opacity: 1; fill: rgb(204, 204, 204); fill-opacity: 1; stroke-width: 0; opacity: 1;"/><path class="sankey-link" d="M186.66666666666666,112.56880733944989C270,112.56880733944989 270,155.9881718277016 353.3333333333333,155.9881718277016L353.3333333333333,158.00652045155482C270,158.00652045155482 270,114.58715596330309 186.66666666666666,114.58715596330309Z" style="stroke: rgb(68, 68, 68); stroke-opacity: 1; fill: rgb(87, 188, 214); fill-opacity: 1; stroke-width: 0; opacity: 1;"/><path class="sankey-link" d="M10,250.52757097898728C93.33333333333333,250.52757097898728 93.33333333333333,102.47706422018382 176.66666666666666,102.47706422018382L176.66666666666666,104.49541284403702C93.33333333333333,104.49541284403702 93.33333333333333,252.5459196028405 10,252.5459196028405Z" style="stroke: rgb(68, 68, 68); stroke-opacity: 1; fill: rgb(156, 67, 151); fill-opacity: 1; stroke-width: 0; opacity: 1;"/><path class="sankey-link" d="M186.66666666666666,114.5871559633031C270,114.5871559633031 270,158.0065204515548 353.3333333333333,158.0065204515548L353.3333333333333,160.02486907540802C270,160.02486907540802 270,116.6055045871563 186.66666666666666,116.6055045871563Z" style="stroke: rgb(68, 68, 68); stroke-opacity: 1; fill: rgb(87, 188, 214); fill-opacity: 1; stroke-width: 0; opacity: 1;"/><path class="sankey-link" d="M186.66666666666666,68.16513761467918C358.33333333333337,68.16513761467918 358.33333333333337,2.0183486238533392 530,2.0183486238533392L530,4.03669724770655C358.33333333333337,4.03669724770655 358.33333333333337,70.18348623853238 186.66666666666666,70.18348623853238Z" style="stroke: rgb(68, 68, 68); stroke-opacity: 1; fill: rgb(204, 204, 204); fill-opacity: 1; stroke-width: 0; opacity: 1;"/><path class="sankey-link" d="M363.3333333333333,153.9698232038484C446.66666666666663,153.9698232038484 446.66666666666663,30.27522935779829 530,30.27522935779829L530,32.2935779816515C446.66666666666663,32.2935779816515 446.66666666666663,155.98817182770162 363.3333333333333,155.98817182770162Z" style="stroke: rgb(68, 68, 68); stroke-opacity: 1; fill: rgb(204, 204, 204); fill-opacity: 1; stroke-width: 0; opacity: 1;"/><path class="sankey-link" d="M10,148.05050675880375C93.33333333333333,148.05050675880375 93.33333333333333,72.20183486238561 176.66666666666666,72.20183486238561L176.66666666666666,74.22018348623881C93.33333333333333,74.22018348623881 93.33333333333333,150.06885538265698 10,150.06885538265698Z" style="stroke: rgb(68, 68, 68); stroke-opacity: 1; fill: rgb(204, 204, 204); fill-opacity: 1; stroke-width: 0; opacity: 1;"/><path class="sankey-link" d="M186.66666666666666,144.8623853211012C270,144.8623853211012 270,231.44688742403184 353.3333333333333,231.44688742403184L353.3333333333333,233.46523604788507C270,233.46523604788507 270,146.88073394495441 186.66666666666666,146.88073394495441Z" style="stroke: rgb(68, 68, 68); stroke-opacity: 1; fill: rgb(87, 188, 214); fill-opacity: 1; stroke-width: 0; opacity: 1;"/><path class="sankey-link" d="M186.66666666666666,116.60550458715632C270,116.60550458715632 270,160.024869075408 353.3333333333333,160.024869075408L353.3333333333333,162.04321769926122C270,162.04321769926122 270,118.62385321100952 186.66666666666666,118.62385321100952Z" style="stroke: rgb(68, 68, 68); stroke-opacity: 1; fill: rgb(87, 188, 214); fill-opacity: 1; stroke-width: 0; opacity: 1;"/><path class="sankey-link" d="M10,172.27069024504215C93.33333333333333,172.27069024504215 93.33333333333333,309.9082568807339 176.66666666666666,309.9082568807339L176.66666666666666,311.9266055045871C93.33333333333333,311.9266055045871 93.33333333333333,174.28903886889537 10,174.28903886889537Z" style="stroke: rgb(68, 68, 68); stroke-opacity: 1; fill: rgb(204, 204, 204); fill-opacity: 1; stroke-width: 0; opacity: 1;"/><path class="sankey-link" d="M186.66666666666666,317.98165137614683C270,317.98165137614683 270,253.64872228641704 353.3333333333333,253.64872228641704L353.3333333333333,255.66707091027027C270,255.66707091027027 270,320 186.66666666666666,320Z" style="stroke: rgb(68, 68, 68); stroke-opacity: 1; fill: rgb(204, 204, 204); fill-opacity: 1; stroke-width: 0; opacity: 1;"/><path class="sankey-link" d="M10,203.32573611660197C93.33333333333333,203.32573611660197 93.33333333333333,88.34862385321132 176.66666666666666,88.34862385321132L176.66666666666666,90.36697247706452C93.33333333333333,90.36697247706452 93.33333333333333,205.3440847404552 10,205.3440847404552Z" style="stroke: rgb(68, 68, 68); stroke-opacity: 1; fill: rgb(87, 188, 214); fill-opacity: 1; stroke-width: 0; opacity: 1;"/><path class="sankey-link" d="M186.66666666666666,118.62385321100953C270,118.62385321100953 270,162.0432176992612 353.3333333333333,162.0432176992612L353.3333333333333,164.06156632311442C270,164.06156632311442 270,120.64220183486273 186.66666666666666,120.64220183486273Z" style="stroke: rgb(68, 68, 68); stroke-opacity: 1; fill: rgb(87, 188, 214); fill-opacity: 1; stroke-width: 0; opacity: 1;"/><path class="sankey-link" d="M186.66666666666666,96.42201834862418C358.33333333333337,96.42201834862418 358.33333333333337,125.91743119266077 530,125.91743119266077L530,127.93577981651397C358.33333333333337,127.93577981651397 358.33333333333337,98.44036697247738 186.66666666666666,98.44036697247738Z" style="stroke: rgb(68, 68, 68); stroke-opacity: 1; fill: rgb(87, 188, 214); fill-opacity: 1; stroke-width: 0; opacity: 1;"/><path class="sankey-link" d="M363.3333333333333,172.1349608185272C446.66666666666663,172.1349608185272 446.66666666666663,140.04587155963318 530,140.04587155963318L530,142.0642201834864C446.66666666666663,142.0642201834864 446.66666666666663,174.15330944238042 363.3333333333333,174.15330944238042Z" style="stroke: rgb(68, 68, 68); stroke-opacity: 1; fill: rgb(87, 188, 214); fill-opacity: 1; stroke-width: 0; opacity: 1;"/><path class="sankey-link" d="M186.66666666666666,167.06422018348638C358.33333333333337,167.06422018348638 358.33333333333337,250.59633027522935 530,250.59633027522935L530,252.61467889908258C358.33333333333337,252.61467889908258 358.33333333333337,169.0825688073396 186.66666666666666,169.0825688073396Z" style="stroke: rgb(68, 68, 68); stroke-opacity: 1; fill: rgb(204, 204, 204); fill-opacity: 1; stroke-width: 0; opacity: 1;"/><path class="sankey-link" d="M363.3333333333333,190.300098433206C446.66666666666663,190.300098433206 446.66666666666663,254.63302752293575 530,254.63302752293575L530,256.65137614678895C446.66666666666663,256.65137614678895 446.66666666666663,192.31844705705922 363.3333333333333,192.31844705705922Z" style="stroke: rgb(68, 68, 68); stroke-opacity: 1; fill: rgb(87, 188, 214); fill-opacity: 1; stroke-width: 0; opacity: 1;"/><path class="sankey-link" d="M186.66666666666666,136.7889908256884C358.33333333333337,136.7889908256884 358.33333333333337,187.24770642201838 530,187.24770642201838L530,189.2660550458716C358.33333333333337,189.2660550458716 358.33333333333337,138.80733944954162 186.66666666666666,138.80733944954162Z" style="stroke: rgb(68, 68, 68); stroke-opacity: 1; fill: rgb(204, 204, 204); fill-opacity: 1; stroke-width: 0; opacity: 1;"/><path class="sankey-link" d="M363.3333333333333,180.20835531394C446.66666666666663,180.20835531394 446.66666666666663,191.28440366972478 530,191.28440366972478L530,193.302752293578C446.66666666666663,193.302752293578 446.66666666666663,182.22670393779322 363.3333333333333,182.22670393779322Z" style="stroke: rgb(68, 68, 68); stroke-opacity: 1; fill: rgb(87, 188, 214); fill-opacity: 1; stroke-width: 0; opacity: 1;"/><path class="sankey-link" d="M186.66666666666666,169.08256880733958C358.33333333333337,169.08256880733958 358.33333333333337,303.85321100917434 530,303.85321100917434L530,305.8715596330275C358.33333333333337,305.8715596330275 358.33333333333337,171.1009174311928 186.66666666666666,171.1009174311928Z" style="stroke: rgb(68, 68, 68); stroke-opacity: 1; fill: rgb(87, 188, 214); fill-opacity: 1; stroke-width: 0; opacity: 1;"/><path class="sankey-link" d="M363.3333333333333,198.3734929286188C446.66666666666663,198.3734929286188 446.66666666666663,309.90825688073403 530,309.90825688073403L530,311.9266055045872C446.66666666666663,311.9266055045872 446.66666666666663,200.39184155247202 363.3333333333333,200.39184155247202Z" style="stroke: rgb(68, 68, 68); stroke-opacity: 1; fill: rgb(87, 188, 214); fill-opacity: 1; stroke-width: 0; opacity: 1;"/><path class="sankey-link" d="M10,150.06885538265695C93.33333333333333,150.06885538265695 93.33333333333333,74.22018348623882 176.66666666666666,74.22018348623882L176.66666666666666,76.23853211009202C93.33333333333333,76.23853211009202 93.33333333333333,152.08720400651018 10,152.08720400651018Z" style="stroke: rgb(68, 68, 68); stroke-opacity: 1; fill: rgb(204, 204, 204); fill-opacity: 1; stroke-width: 0; opacity: 1;"/><path class="sankey-link" d="M10,162.17894712577615C93.33333333333333,162.17894712577615 93.33333333333333,200.13761467889927 176.66666666666666,200.13761467889927L176.66666666666666,202.1559633027525C93.33333333333333,202.1559633027525 93.33333333333333,164.19729574962938 10,164.19729574962938Z" style="stroke: rgb(68, 68, 68); stroke-opacity: 1; fill: rgb(204, 204, 204); fill-opacity: 1; stroke-width: 0; opacity: 1;"/><path class="sankey-link" d="M186.66666666666666,120.64220183486275C270,120.64220183486275 270,164.0615663231144 353.3333333333333,164.0615663231144L353.3333333333333,166.07991494696762C270,166.07991494696762 270,122.66055045871595 186.66666666666666,122.66055045871595Z" style="stroke: rgb(68, 68, 68); stroke-opacity: 1; fill: rgb(87, 188, 214); fill-opacity: 1; stroke-width: 0; opacity: 1;"/><path class="sankey-link" d="M186.66666666666666,246.55963302752286C270,246.55963302752286 270,182.2267039377932 353.3333333333333,182.2267039377932L353.3333333333333,184.24505256164642C270,184.24505256164642 270,248.5779816513761 186.66666666666666,248.5779816513761Z" style="stroke: rgb(68, 68, 68); stroke-opacity: 1; fill: rgb(156, 67, 151); fill-opacity: 1; stroke-width: 0; opacity: 1;"/><path class="sankey-link" d="M186.66666666666666,98.44036697247739C358.33333333333337,98.44036697247739 358.33333333333337,127.935779816514 530,127.935779816514L530,129.9541284403672C358.33333333333337,129.9541284403672 358.33333333333337,100.45871559633059 186.66666666666666,100.45871559633059Z" style="stroke: rgb(68, 68, 68); stroke-opacity: 1; fill: rgb(87, 188, 214); fill-opacity: 1; stroke-width: 0; opacity: 1;"/><path class="sankey-link" d="M186.66666666666666,236.46788990825686C358.33333333333337,236.46788990825686 358.33333333333337,150.13761467889918 530,150.13761467889918L530,152.1559633027524C358.33333333333337,152.1559633027524 358.33333333333337,238.4862385321101 186.66666666666666,238.4862385321101Z" style="stroke: rgb(68, 68, 68); stroke-opacity: 1; fill: rgb(204, 204, 204); fill-opacity: 1; stroke-width: 0; opacity: 1;"/><path class="sankey-link" d="M363.3333333333333,174.1533094423804C446.66666666666663,174.1533094423804 446.66666666666663,142.06422018348638 530,142.06422018348638L530,144.0825688073396C446.66666666666663,144.0825688073396 446.66666666666663,176.17165806623362 363.3333333333333,176.17165806623362Z" style="stroke: rgb(68, 68, 68); stroke-opacity: 1; fill: rgb(87, 188, 214); fill-opacity: 1; stroke-width: 0; opacity: 1;"/><path class="sankey-link" d="M186.66666666666666,70.1834862385324C358.33333333333337,70.1834862385324 358.33333333333337,4.03669724770655 530,4.03669724770655L530,6.05504587155976C358.33333333333337,6.05504587155976 358.33333333333337,72.2018348623856 186.66666666666666,72.2018348623856Z" style="stroke: rgb(68, 68, 68); stroke-opacity: 1; fill: rgb(204, 204, 204); fill-opacity: 1; stroke-width: 0; opacity: 1;"/><path class="sankey-link" d="M186.66666666666666,202.15596330275247C358.33333333333337,202.15596330275247 358.33333333333337,48.440366972477214 530,48.440366972477214L530,50.45871559633043C358.33333333333337,50.45871559633043 358.33333333333337,204.1743119266057 186.66666666666666,204.1743119266057Z" style="stroke: rgb(68, 68, 68); stroke-opacity: 1; fill: rgb(204, 204, 204); fill-opacity: 1; stroke-width: 0; opacity: 1;"/><path class="sankey-link" d="M363.3333333333333,155.9881718277016C446.66666666666663,155.9881718277016 446.66666666666663,32.2935779816515 530,32.2935779816515L530,34.311926605504716C446.66666666666663,34.311926605504716 446.66666666666663,158.00652045155482 363.3333333333333,158.00652045155482Z" style="stroke: rgb(68, 68, 68); stroke-opacity: 1; fill: rgb(204, 204, 204); fill-opacity: 1; stroke-width: 0; opacity: 1;"/><path class="sankey-link" d="M10,221.49087373128077C93.33333333333333,221.49087373128077 93.33333333333333,214.26605504587167 176.66666666666666,214.26605504587167L176.66666666666666,216.2844036697249C93.33333333333333,216.2844036697249 93.33333333333333,223.509222355134 10,223.509222355134Z" style="stroke: rgb(68, 68, 68); stroke-opacity: 1; fill: rgb(87, 188, 214); fill-opacity: 1; stroke-width: 0; opacity: 1;"/><path class="sankey-link" d="M186.66666666666666,254.63302752293566C358.33333333333337,254.63302752293566 358.33333333333337,199.35779816513758 530,199.35779816513758L530,201.3761467889908C358.33333333333337,201.3761467889908 358.33333333333337,256.6513761467889 186.66666666666666,256.6513761467889Z" style="stroke: rgb(68, 68, 68); stroke-opacity: 1; fill: rgb(87, 188, 214); fill-opacity: 1; stroke-width: 0; opacity: 1;"/><path class="sankey-link" d="M186.66666666666666,256.6513761467889C358.33333333333337,256.6513761467889 358.33333333333337,201.37614678899078 530,201.37614678899078L530,203.394495412844C358.33333333333337,203.394495412844 358.33333333333337,258.66972477064206 186.66666666666666,258.66972477064206Z" style="stroke: rgb(68, 68, 68); stroke-opacity: 1; fill: rgb(87, 188, 214); fill-opacity: 1; stroke-width: 0; opacity: 1;"/><path class="sankey-link" d="M186.66666666666666,204.17431192660567C358.33333333333337,204.17431192660567 358.33333333333337,50.45871559633043 530,50.45871559633043L530,52.47706422018364C358.33333333333337,52.47706422018364 358.33333333333337,206.1926605504589 186.66666666666666,206.1926605504589Z" style="stroke: rgb(68, 68, 68); stroke-opacity: 1; fill: rgb(204, 204, 204); fill-opacity: 1; stroke-width: 0; opacity: 1;"/><path class="sankey-link" d="M186.66666666666666,206.19266055045887C358.33333333333337,206.19266055045887 358.33333333333337,52.47706422018364 530,52.47706422018364L530,54.495412844036856C358.33333333333337,54.495412844036856 358.33333333333337,208.2110091743121 186.66666666666666,208.2110091743121Z" style="stroke: rgb(68, 68, 68); stroke-opacity: 1; fill: rgb(204, 204, 204); fill-opacity: 1; stroke-width: 0; opacity: 1;"/><path class="sankey-link" d="M10,205.34408474045517C93.33333333333333,205.34408474045517 93.33333333333333,90.36697247706454 176.66666666666666,90.36697247706454L176.66666666666666,92.38532110091774C93.33333333333333,92.38532110091774 93.33333333333333,207.3624333643084 10,207.3624333643084Z" style="stroke: rgb(68, 68, 68); stroke-opacity: 1; fill: rgb(87, 188, 214); fill-opacity: 1; stroke-width: 0; opacity: 1;"/><path class="sankey-link" d="M10,223.50922235513397C93.33333333333333,223.50922235513397 93.33333333333333,216.28440366972487 176.66666666666666,216.28440366972487L176.66666666666666,218.3027522935781C93.33333333333333,218.3027522935781 93.33333333333333,225.5275709789872 10,225.5275709789872Z" style="stroke: rgb(68, 68, 68); stroke-opacity: 1; fill: rgb(87, 188, 214); fill-opacity: 1; stroke-width: 0; opacity: 1;"/><path class="sankey-link" d="M186.66666666666666,122.66055045871596C270,122.66055045871596 270,166.0799149469676 353.3333333333333,166.0799149469676L353.3333333333333,168.09826357082082C270,168.09826357082082 270,124.67889908256916 186.66666666666666,124.67889908256916Z" style="stroke: rgb(68, 68, 68); stroke-opacity: 1; fill: rgb(87, 188, 214); fill-opacity: 1; stroke-width: 0; opacity: 1;"/><path class="sankey-link" d="M186.66666666666666,248.57798165137606C270,248.57798165137606 270,184.2450525616464 353.3333333333333,184.2450525616464L353.3333333333333,186.26340118549962C270,186.26340118549962 270,250.5963302752293 186.66666666666666,250.5963302752293Z" style="stroke: rgb(68, 68, 68); stroke-opacity: 1; fill: rgb(156, 67, 151); fill-opacity: 1; stroke-width: 0; opacity: 1;"/><path class="sankey-link" d="M186.66666666666666,100.4587155963306C358.33333333333337,100.4587155963306 358.33333333333337,129.95412844036719 530,129.95412844036719L530,131.9724770642204C358.33333333333337,131.9724770642204 358.33333333333337,102.4770642201838 186.66666666666666,102.4770642201838Z" style="stroke: rgb(68, 68, 68); stroke-opacity: 1; fill: rgb(87, 188, 214); fill-opacity: 1; stroke-width: 0; opacity: 1;"/><path class="sankey-link" d="M186.66666666666666,238.48623853211006C358.33333333333337,238.48623853211006 358.33333333333337,152.15596330275238 530,152.15596330275238L530,154.1743119266056C358.33333333333337,154.1743119266056 358.33333333333337,240.5045871559633 186.66666666666666,240.5045871559633Z" style="stroke: rgb(68, 68, 68); stroke-opacity: 1; fill: rgb(204, 204, 204); fill-opacity: 1; stroke-width: 0; opacity: 1;"/><path class="sankey-link" d="M363.3333333333333,176.1716580662336C446.66666666666663,176.1716580662336 446.66666666666663,144.08256880733958 530,144.08256880733958L530,146.1009174311928C446.66666666666663,146.1009174311928 446.66666666666663,178.19000669008682 363.3333333333333,178.19000669008682Z" style="stroke: rgb(68, 68, 68); stroke-opacity: 1; fill: rgb(87, 188, 214); fill-opacity: 1; stroke-width: 0; opacity: 1;"/><path class="sankey-link" d="M186.66666666666666,72.20183486238561C358.33333333333337,72.20183486238561 358.33333333333337,6.055045871559761 530,6.055045871559761L530,8.073394495412971C358.33333333333337,8.073394495412971 358.33333333333337,74.22018348623881 186.66666666666666,74.22018348623881Z" style="stroke: rgb(68, 68, 68); stroke-opacity: 1; fill: rgb(204, 204, 204); fill-opacity: 1; stroke-width: 0; opacity: 1;"/><path class="sankey-link" d="M186.66666666666666,208.21100917431207C358.33333333333337,208.21100917431207 358.33333333333337,54.495412844036856 530,54.495412844036856L530,56.51376146789007C358.33333333333337,56.51376146789007 358.33333333333337,210.2293577981653 186.66666666666666,210.2293577981653Z" style="stroke: rgb(68, 68, 68); stroke-opacity: 1; fill: rgb(204, 204, 204); fill-opacity: 1; stroke-width: 0; opacity: 1;"/><path class="sankey-link" d="M363.3333333333333,158.0065204515548C446.66666666666663,158.0065204515548 446.66666666666663,34.311926605504716 530,34.311926605504716L530,36.33027522935793C446.66666666666663,36.33027522935793 446.66666666666663,160.02486907540802 363.3333333333333,160.02486907540802Z" style="stroke: rgb(68, 68, 68); stroke-opacity: 1; fill: rgb(204, 204, 204); fill-opacity: 1; stroke-width: 0; opacity: 1;"/><path class="sankey-link" d="M10,287.6376627221065C93.33333333333333,287.6376627221065 93.33333333333333,108.53211009174346 176.66666666666666,108.53211009174346L176.66666666666666,110.55045871559666C93.33333333333333,110.55045871559666 93.33333333333333,289.65601134595966 10,289.65601134595966Z" style="stroke: rgb(68, 68, 68); stroke-opacity: 1; fill: rgb(204, 204, 204); fill-opacity: 1; stroke-width: 0; opacity: 1;"/><path class="sankey-link" d="M186.66666666666666,146.8807339449544C270,146.8807339449544 270,233.46523604788504 353.3333333333333,233.46523604788504L353.3333333333333,235.48358467173827C270,235.48358467173827 270,148.89908256880761 186.66666666666666,148.89908256880761Z" style="stroke: rgb(68, 68, 68); stroke-opacity: 1; fill: rgb(87, 188, 214); fill-opacity: 1; stroke-width: 0; opacity: 1;"/><path class="sankey-link" d="M186.66666666666666,124.67889908256917C270,124.67889908256917 270,168.0982635708208 353.3333333333333,168.0982635708208L353.3333333333333,170.11661219467402C270,170.11661219467402 270,126.69724770642237 186.66666666666666,126.69724770642237Z" style="stroke: rgb(68, 68, 68); stroke-opacity: 1; fill: rgb(87, 188, 214); fill-opacity: 1; stroke-width: 0; opacity: 1;"/><path class="sankey-link" d="M363.3333333333333,251.63037366256384C446.66666666666663,251.63037366256384 446.66666666666663,272.7981651376148 530,272.7981651376148L530,274.81651376146795C446.66666666666663,274.81651376146795 446.66666666666663,253.64872228641707 363.3333333333333,253.64872228641707Z" style="stroke: rgb(68, 68, 68); stroke-opacity: 1; fill: rgb(87, 188, 214); fill-opacity: 1; stroke-width: 0; opacity: 1;"/><path class="sankey-link" d="M363.3333333333333,192.3184470570592C446.66666666666663,192.3184470570592 446.66666666666663,256.65137614678895 530,256.65137614678895L530,258.6697247706421C446.66666666666663,258.6697247706421 446.66666666666663,194.33679568091242 363.3333333333333,194.33679568091242Z" style="stroke: rgb(68, 68, 68); stroke-opacity: 1; fill: rgb(87, 188, 214); fill-opacity: 1; stroke-width: 0; opacity: 1;"/><path class="sankey-link" d="M363.3333333333333,227.41019017632544C446.66666666666663,227.41019017632544 446.66666666666663,80.73394495412863 530,80.73394495412863L530,82.75229357798183C446.66666666666663,82.75229357798183 446.66666666666663,229.42853880017867 363.3333333333333,229.42853880017867Z" style="stroke: rgb(68, 68, 68); stroke-opacity: 1; fill: rgb(204, 204, 204); fill-opacity: 1; stroke-width: 0; opacity: 1;"/><path class="sankey-link" d="M363.3333333333333,160.024869075408C446.66666666666663,160.024869075408 446.66666666666663,36.33027522935793 530,36.33027522935793L530,38.348623853211144C446.66666666666663,38.348623853211144 446.66666666666663,162.04321769926122 363.3333333333333,162.04321769926122Z" style="stroke: rgb(68, 68, 68); stroke-opacity: 1; fill: rgb(204, 204, 204); fill-opacity: 1; stroke-width: 0; opacity: 1;"/><path class="sankey-link" d="M10,252.54591960284048C93.33333333333333,252.54591960284048 93.33333333333333,104.49541284403703 176.66666666666666,104.49541284403703L176.66666666666666,106.51376146789023C93.33333333333333,106.51376146789023 93.33333333333333,254.5642682266937 10,254.5642682266937Z" style="stroke: rgb(68, 68, 68); stroke-opacity: 1; fill: rgb(156, 67, 151); fill-opacity: 1; stroke-width: 0; opacity: 1;"/><path class="sankey-link" d="M186.66666666666666,148.8990825688076C270,148.8990825688076 270,235.48358467173824 353.3333333333333,235.48358467173824L353.3333333333333,237.50193329559147C270,237.50193329559147 270,150.9174311926608 186.66666666666666,150.9174311926608Z" style="stroke: rgb(68, 68, 68); stroke-opacity: 1; fill: rgb(87, 188, 214); fill-opacity: 1; stroke-width: 0; opacity: 1;"/><path class="sankey-link" d="M186.66666666666666,126.69724770642239C270,126.69724770642239 270,170.116612194674 353.3333333333333,170.116612194674L353.3333333333333,172.13496081852722C270,172.13496081852722 270,128.7155963302756 186.66666666666666,128.7155963302756Z" style="stroke: rgb(68, 68, 68); stroke-opacity: 1; fill: rgb(87, 188, 214); fill-opacity: 1; stroke-width: 0; opacity: 1;"/><path class="sankey-link" d="M363.3333333333333,229.42853880017864C446.66666666666663,229.42853880017864 446.66666666666663,82.75229357798185 530,82.75229357798185L530,84.77064220183505C446.66666666666663,84.77064220183505 446.66666666666663,231.44688742403187 363.3333333333333,231.44688742403187Z" style="stroke: rgb(68, 68, 68); stroke-opacity: 1; fill: rgb(204, 204, 204); fill-opacity: 1; stroke-width: 0; opacity: 1;"/><path class="sankey-link" d="M363.3333333333333,162.0432176992612C446.66666666666663,162.0432176992612 446.66666666666663,38.348623853211144 530,38.348623853211144L530,40.36697247706436C446.66666666666663,40.36697247706436 446.66666666666663,164.06156632311442 363.3333333333333,164.06156632311442Z" style="stroke: rgb(68, 68, 68); stroke-opacity: 1; fill: rgb(204, 204, 204); fill-opacity: 1; stroke-width: 0; opacity: 1;"/><path class="sankey-link" d="M10,207.36243336430837C93.33333333333333,207.36243336430837 93.33333333333333,92.38532110091775 176.66666666666666,92.38532110091775L176.66666666666666,94.40366972477095C93.33333333333333,94.40366972477095 93.33333333333333,209.3807819881616 10,209.3807819881616Z" style="stroke: rgb(68, 68, 68); stroke-opacity: 1; fill: rgb(87, 188, 214); fill-opacity: 1; stroke-width: 0; opacity: 1;"/><path class="sankey-link" d="M186.66666666666666,128.7155963302756C270,128.7155963302756 270,172.1349608185272 353.3333333333333,172.1349608185272L353.3333333333333,174.15330944238042C270,174.15330944238042 270,130.73394495412882 186.66666666666666,130.73394495412882Z" style="stroke: rgb(68, 68, 68); stroke-opacity: 1; fill: rgb(87, 188, 214); fill-opacity: 1; stroke-width: 0; opacity: 1;"/><path class="sankey-link" d="M186.66666666666666,74.22018348623882C358.33333333333337,74.22018348623882 358.33333333333337,8.073394495412971 530,8.073394495412971L530,10.091743119266182C358.33333333333337,10.091743119266182 358.33333333333337,76.23853211009202 186.66666666666666,76.23853211009202Z" style="stroke: rgb(68, 68, 68); stroke-opacity: 1; fill: rgb(204, 204, 204); fill-opacity: 1; stroke-width: 0; opacity: 1;"/><path class="sankey-link" d="M363.3333333333333,164.0615663231144C446.66666666666663,164.0615663231144 446.66666666666663,40.36697247706436 530,40.36697247706436L530,42.38532110091757C446.66666666666663,42.38532110091757 446.66666666666663,166.07991494696762 363.3333333333333,166.07991494696762Z" style="stroke: rgb(68, 68, 68); stroke-opacity: 1; fill: rgb(204, 204, 204); fill-opacity: 1; stroke-width: 0; opacity: 1;"/><path class="sankey-link" d="M10,260.61931409825337C93.33333333333333,260.61931409825337 93.33333333333333,313.9449541284404 176.66666666666666,313.9449541284404L176.66666666666666,315.96330275229354C93.33333333333333,315.96330275229354 93.33333333333333,262.63766272210654 10,262.63766272210654Z" style="stroke: rgb(68, 68, 68); stroke-opacity: 1; fill: rgb(156, 67, 151); fill-opacity: 1; stroke-width: 0; opacity: 1;"/><path class="sankey-link" d="M10,256.5826168505469C93.33333333333333,256.5826168505469 93.33333333333333,218.30275229357807 176.66666666666666,218.30275229357807L176.66666666666666,220.3211009174313C93.33333333333333,220.3211009174313 93.33333333333333,258.6009654744001 10,258.6009654744001Z" style="stroke: rgb(68, 68, 68); stroke-opacity: 1; fill: rgb(156, 67, 151); fill-opacity: 1; stroke-width: 0; opacity: 1;"/><path class="sankey-link" d="M186.66666666666666,250.59633027522926C270,250.59633027522926 270,186.2634011854996 353.3333333333333,186.2634011854996L353.3333333333333,188.28174980935282C270,188.28174980935282 270,252.6146788990825 186.66666666666666,252.6146788990825Z" style="stroke: rgb(68, 68, 68); stroke-opacity: 1; fill: rgb(156, 67, 151); fill-opacity: 1; stroke-width: 0; opacity: 1;"/><path class="sankey-link" d="M186.66666666666666,240.50458715596326C358.33333333333337,240.50458715596326 358.33333333333337,154.17431192660558 530,154.17431192660558L530,156.1926605504588C358.33333333333337,156.1926605504588 358.33333333333337,242.5229357798165 186.66666666666666,242.5229357798165Z" style="stroke: rgb(68, 68, 68); stroke-opacity: 1; fill: rgb(204, 204, 204); fill-opacity: 1; stroke-width: 0; opacity: 1;"/><path class="sankey-link" d="M363.3333333333333,178.1900066900868C446.66666666666663,178.1900066900868 446.66666666666663,146.10091743119278 530,146.10091743119278L530,148.119266055046C446.66666666666663,148.119266055046 446.66666666666663,180.20835531394002 363.3333333333333,180.20835531394002Z" style="stroke: rgb(68, 68, 68); stroke-opacity: 1; fill: rgb(87, 188, 214); fill-opacity: 1; stroke-width: 0; opacity: 1;"/><path class="sankey-link" d="M186.66666666666666,258.6697247706421C358.33333333333337,258.6697247706421 358.33333333333337,203.39449541284398 530,203.39449541284398L530,205.4128440366972C358.33333333333337,205.4128440366972 358.33333333333337,260.6880733944953 186.66666666666666,260.6880733944953Z" style="stroke: rgb(68, 68, 68); stroke-opacity: 1; fill: rgb(87, 188, 214); fill-opacity: 1; stroke-width: 0; opacity: 1;"/><path class="sankey-link" d="M363.3333333333333,182.2267039377932C446.66666666666663,182.2267039377932 446.66666666666663,193.30275229357798 530,193.30275229357798L530,195.3211009174312C446.66666666666663,195.3211009174312 446.66666666666663,184.24505256164642 363.3333333333333,184.24505256164642Z" style="stroke: rgb(68, 68, 68); stroke-opacity: 1; fill: rgb(87, 188, 214); fill-opacity: 1; stroke-width: 0; opacity: 1;"/><path class="sankey-link" d="M186.66666666666666,210.22935779816527C358.33333333333337,210.22935779816527 358.33333333333337,56.51376146789007 530,56.51376146789007L530,58.532110091743284C358.33333333333337,58.532110091743284 358.33333333333337,212.2477064220185 186.66666666666666,212.2477064220185Z" style="stroke: rgb(68, 68, 68); stroke-opacity: 1; fill: rgb(204, 204, 204); fill-opacity: 1; stroke-width: 0; opacity: 1;"/><path class="sankey-link" d="M363.3333333333333,166.0799149469676C446.66666666666663,166.0799149469676 446.66666666666663,42.38532110091757 530,42.38532110091757L530,44.403669724770786C446.66666666666663,44.403669724770786 446.66666666666663,168.09826357082082 363.3333333333333,168.09826357082082Z" style="stroke: rgb(68, 68, 68); stroke-opacity: 1; fill: rgb(204, 204, 204); fill-opacity: 1; stroke-width: 0; opacity: 1;"/><path class="sankey-link" d="M10,291.67435996981294C93.33333333333333,291.67435996981294 93.33333333333333,222.33944954128447 176.66666666666666,222.33944954128447L176.66666666666666,224.3577981651377C93.33333333333333,224.3577981651377 93.33333333333333,293.6927085936661 10,293.6927085936661Z" style="stroke: rgb(68, 68, 68); stroke-opacity: 1; fill: rgb(204, 204, 204); fill-opacity: 1; stroke-width: 0; opacity: 1;"/><path class="sankey-link" d="M186.66666666666666,280.87155963302763C358.33333333333337,280.87155963302763 358.33333333333337,313.9449541284405 530,313.9449541284405L530,315.96330275229366C358.33333333333337,315.96330275229366 358.33333333333337,282.8899082568808 186.66666666666666,282.8899082568808Z" style="stroke: rgb(68, 68, 68); stroke-opacity: 1; fill: rgb(204, 204, 204); fill-opacity: 1; stroke-width: 0; opacity: 1;"/><path class="sankey-link" d="M186.66666666666666,282.88990825688086C358.33333333333337,282.88990825688086 358.33333333333337,315.9633027522937 530,315.9633027522937L530,317.9816513761469C358.33333333333337,317.9816513761469 358.33333333333337,284.90825688073403 186.66666666666666,284.90825688073403Z" style="stroke: rgb(68, 68, 68); stroke-opacity: 1; fill: rgb(204, 204, 204); fill-opacity: 1; stroke-width: 0; opacity: 1;"/><path class="sankey-link" d="M186.66666666666666,212.24770642201847C358.33333333333337,212.24770642201847 358.33333333333337,58.532110091743284 530,58.532110091743284L530,60.5504587155965C358.33333333333337,60.5504587155965 358.33333333333337,214.2660550458717 186.66666666666666,214.2660550458717Z" style="stroke: rgb(68, 68, 68); stroke-opacity: 1; fill: rgb(204, 204, 204); fill-opacity: 1; stroke-width: 0; opacity: 1;"/><path class="sankey-link" d="M186.66666666666666,214.26605504587167C358.33333333333337,214.26605504587167 358.33333333333337,60.5504587155965 530,60.5504587155965L530,62.56880733944971C358.33333333333337,62.56880733944971 358.33333333333337,216.2844036697249 186.66666666666666,216.2844036697249Z" style="stroke: rgb(68, 68, 68); stroke-opacity: 1; fill: rgb(204, 204, 204); fill-opacity: 1; stroke-width: 0; opacity: 1;"/><path class="sankey-link" d="M10,152.08720400651015C93.33333333333333,152.08720400651015 93.33333333333333,76.23853211009204 176.66666666666666,76.23853211009204L176.66666666666666,78.25688073394524C93.33333333333333,78.25688073394524 93.33333333333333,154.10555263036338 10,154.10555263036338Z" style="stroke: rgb(68, 68, 68); stroke-opacity: 1; fill: rgb(204, 204, 204); fill-opacity: 1; stroke-width: 0; opacity: 1;"/><path class="sankey-link" d="M10,164.19729574962935C93.33333333333333,164.19729574962935 93.33333333333333,202.15596330275247 176.66666666666666,202.15596330275247L176.66666666666666,204.1743119266057C93.33333333333333,204.1743119266057 93.33333333333333,166.21564437348258 10,166.21564437348258Z" style="stroke: rgb(68, 68, 68); stroke-opacity: 1; fill: rgb(204, 204, 204); fill-opacity: 1; stroke-width: 0; opacity: 1;"/><path class="sankey-link" d="M186.66666666666666,76.23853211009204C358.33333333333337,76.23853211009204 358.33333333333337,10.091743119266182 530,10.091743119266182L530,12.110091743119392C358.33333333333337,12.110091743119392 358.33333333333337,78.25688073394524 186.66666666666666,78.25688073394524Z" style="stroke: rgb(68, 68, 68); stroke-opacity: 1; fill: rgb(204, 204, 204); fill-opacity: 1; stroke-width: 0; opacity: 1;"/><path class="sankey-link" d="M186.66666666666666,216.28440366972487C358.33333333333337,216.28440366972487 358.33333333333337,62.56880733944971 530,62.56880733944971L530,64.58715596330292C358.33333333333337,64.58715596330292 358.33333333333337,218.3027522935781 186.66666666666666,218.3027522935781Z" style="stroke: rgb(68, 68, 68); stroke-opacity: 1; fill: rgb(204, 204, 204); fill-opacity: 1; stroke-width: 0; opacity: 1;"/><path class="sankey-link" d="M186.66666666666666,78.25688073394525C358.33333333333337,78.25688073394525 358.33333333333337,12.110091743119392 530,12.110091743119392L530,14.128440366972603C358.33333333333337,14.128440366972603 358.33333333333337,80.27522935779845 186.66666666666666,80.27522935779845Z" style="stroke: rgb(68, 68, 68); stroke-opacity: 1; fill: rgb(204, 204, 204); fill-opacity: 1; stroke-width: 0; opacity: 1;"/><path class="sankey-link" d="M186.66666666666666,218.30275229357807C358.33333333333337,218.30275229357807 358.33333333333337,64.58715596330292 530,64.58715596330292L530,66.60550458715612C358.33333333333337,66.60550458715612 358.33333333333337,220.3211009174313 186.66666666666666,220.3211009174313Z" style="stroke: rgb(68, 68, 68); stroke-opacity: 1; fill: rgb(204, 204, 204); fill-opacity: 1; stroke-width: 0; opacity: 1;"/><path class="sankey-link" d="M10,166.21564437348255C93.33333333333333,166.21564437348255 93.33333333333333,204.17431192660567 176.66666666666666,204.17431192660567L176.66666666666666,206.1926605504589C93.33333333333333,206.1926605504589 93.33333333333333,168.23399299733578 10,168.23399299733578Z" style="stroke: rgb(68, 68, 68); stroke-opacity: 1; fill: rgb(204, 204, 204); fill-opacity: 1; stroke-width: 0; opacity: 1;"/><path class="sankey-link" d="M186.66666666666666,252.61467889908246C270,252.61467889908246 270,188.2817498093528 353.3333333333333,188.2817498093528L353.3333333333333,190.30009843320602C270,190.30009843320602 270,254.6330275229357 186.66666666666666,254.6330275229357Z" style="stroke: rgb(68, 68, 68); stroke-opacity: 1; fill: rgb(156, 67, 151); fill-opacity: 1; stroke-width: 0; opacity: 1;"/><path class="sankey-link" d="M186.66666666666666,272.7981651376147C358.33333333333337,272.7981651376147 358.33333333333337,264.72477064220186 530,264.72477064220186L530,266.74311926605503C358.33333333333337,266.74311926605503 358.33333333333337,274.8165137614679 186.66666666666666,274.8165137614679Z" style="stroke: rgb(68, 68, 68); stroke-opacity: 1; fill: rgb(204, 204, 204); fill-opacity: 1; stroke-width: 0; opacity: 1;"/><path class="sankey-link" d="M363.3333333333333,194.3367956809124C446.66666666666663,194.3367956809124 446.66666666666663,258.6697247706422 530,258.6697247706422L530,260.68807339449535C446.66666666666663,260.68807339449535 446.66666666666663,196.35514430476562 363.3333333333333,196.35514430476562Z" style="stroke: rgb(68, 68, 68); stroke-opacity: 1; fill: rgb(87, 188, 214); fill-opacity: 1; stroke-width: 0; opacity: 1;"/><path class="sankey-link" d="M186.66666666666666,260.68807339449535C358.33333333333337,260.68807339449535 358.33333333333337,205.41284403669718 530,205.41284403669718L530,207.4311926605504C358.33333333333337,207.4311926605504 358.33333333333337,262.7064220183485 186.66666666666666,262.7064220183485Z" style="stroke: rgb(68, 68, 68); stroke-opacity: 1; fill: rgb(87, 188, 214); fill-opacity: 1; stroke-width: 0; opacity: 1;"/><path class="sankey-link" d="M363.3333333333333,184.2450525616464C446.66666666666663,184.2450525616464 446.66666666666663,195.32110091743118 530,195.32110091743118L530,197.3394495412844C446.66666666666663,197.3394495412844 446.66666666666663,186.26340118549962 363.3333333333333,186.26340118549962Z" style="stroke: rgb(68, 68, 68); stroke-opacity: 1; fill: rgb(87, 188, 214); fill-opacity: 1; stroke-width: 0; opacity: 1;"/><path class="sankey-link" d="M10,154.10555263036335C93.33333333333333,154.10555263036335 93.33333333333333,78.25688073394525 176.66666666666666,78.25688073394525L176.66666666666666,80.27522935779845C93.33333333333333,80.27522935779845 93.33333333333333,156.12390125421658 10,156.12390125421658Z" style="stroke: rgb(68, 68, 68); stroke-opacity: 1; fill: rgb(204, 204, 204); fill-opacity: 1; stroke-width: 0; opacity: 1;"/><path class="sankey-link" d="M186.66666666666666,150.91743119266079C270,150.91743119266079 270,237.50193329559144 353.3333333333333,237.50193329559144L353.3333333333333,239.52028191944467C270,239.52028191944467 270,152.935779816514 186.66666666666666,152.935779816514Z" style="stroke: rgb(68, 68, 68); stroke-opacity: 1; fill: rgb(87, 188, 214); fill-opacity: 1; stroke-width: 0; opacity: 1;"/><path class="sankey-link" d="M186.66666666666666,130.7339449541288C270,130.7339449541288 270,174.1533094423804 353.3333333333333,174.1533094423804L353.3333333333333,176.17165806623362C270,176.17165806623362 270,132.75229357798202 186.66666666666666,132.75229357798202Z" style="stroke: rgb(68, 68, 68); stroke-opacity: 1; fill: rgb(87, 188, 214); fill-opacity: 1; stroke-width: 0; opacity: 1;"/><path class="sankey-link" d="M10,156.12390125421655C93.33333333333333,156.12390125421655 93.33333333333333,80.27522935779847 176.66666666666666,80.27522935779847L176.66666666666666,82.29357798165167C93.33333333333333,82.29357798165167 93.33333333333333,158.14224987806978 10,158.14224987806978Z" style="stroke: rgb(68, 68, 68); stroke-opacity: 1; fill: rgb(204, 204, 204); fill-opacity: 1; stroke-width: 0; opacity: 1;"/><path class="sankey-link" d="M186.66666666666666,152.93577981651399C270,152.93577981651399 270,239.52028191944464 353.3333333333333,239.52028191944464L353.3333333333333,241.53863054329787C270,241.53863054329787 270,154.9541284403672 186.66666666666666,154.9541284403672Z" style="stroke: rgb(68, 68, 68); stroke-opacity: 1; fill: rgb(87, 188, 214); fill-opacity: 1; stroke-width: 0; opacity: 1;"/><path class="sankey-link" d="M363.3333333333333,231.44688742403184C446.66666666666663,231.44688742403184 446.66666666666663,84.77064220183506 530,84.77064220183506L530,86.78899082568826C446.66666666666663,86.78899082568826 446.66666666666663,233.46523604788507 363.3333333333333,233.46523604788507Z" style="stroke: rgb(68, 68, 68); stroke-opacity: 1; fill: rgb(204, 204, 204); fill-opacity: 1; stroke-width: 0; opacity: 1;"/><path class="sankey-link" d="M186.66666666666666,80.27522935779847C358.33333333333337,80.27522935779847 358.33333333333337,14.128440366972603 530,14.128440366972603L530,16.146788990825815C358.33333333333337,16.146788990825815 358.33333333333337,82.29357798165167 186.66666666666666,82.29357798165167Z" style="stroke: rgb(68, 68, 68); stroke-opacity: 1; fill: rgb(204, 204, 204); fill-opacity: 1; stroke-width: 0; opacity: 1;"/><path class="sankey-link" d="M10,174.28903886889535C93.33333333333333,174.28903886889535 93.33333333333333,311.92660550458714 176.66666666666666,311.92660550458714L176.66666666666666,313.9449541284403C93.33333333333333,313.9449541284403 93.33333333333333,176.30738749274857 10,176.30738749274857Z" style="stroke: rgb(68, 68, 68); stroke-opacity: 1; fill: rgb(204, 204, 204); fill-opacity: 1; stroke-width: 0; opacity: 1;"/><path class="sankey-link" d="M186.66666666666666,313.9449541284404C358.33333333333337,313.9449541284404 358.33333333333337,219.54128440366958 530,219.54128440366958L530,221.5596330275228C358.33333333333337,221.5596330275228 358.33333333333337,315.96330275229354 186.66666666666666,315.96330275229354Z" style="stroke: rgb(68, 68, 68); stroke-opacity: 1; fill: rgb(204, 204, 204); fill-opacity: 1; stroke-width: 0; opacity: 1;"/><path class="sankey-link" d="M186.66666666666666,315.9633027522936C358.33333333333337,315.9633027522936 358.33333333333337,221.55963302752278 530,221.55963302752278L530,223.577981651376C358.33333333333337,223.577981651376 358.33333333333337,317.9816513761468 186.66666666666666,317.9816513761468Z" style="stroke: rgb(68, 68, 68); stroke-opacity: 1; fill: rgb(204, 204, 204); fill-opacity: 1; stroke-width: 0; opacity: 1;"/><path class="sankey-link" d="M186.66666666666666,309.9082568807339C358.33333333333337,309.9082568807339 358.33333333333337,94.86238532110113 530,94.86238532110113L530,96.88073394495433C358.33333333333337,96.88073394495433 358.33333333333337,311.9266055045871 186.66666666666666,311.9266055045871Z" style="stroke: rgb(68, 68, 68); stroke-opacity: 1; fill: rgb(204, 204, 204); fill-opacity: 1; stroke-width: 0; opacity: 1;"/><path class="sankey-link" d="M186.66666666666666,311.92660550458714C358.33333333333337,311.92660550458714 358.33333333333337,96.88073394495434 530,96.88073394495434L530,98.89908256880754C358.33333333333337,98.89908256880754 358.33333333333337,313.9449541284403 186.66666666666666,313.9449541284403Z" style="stroke: rgb(68, 68, 68); stroke-opacity: 1; fill: rgb(204, 204, 204); fill-opacity: 1; stroke-width: 0; opacity: 1;"/><path class="sankey-link" d="M10,158.14224987806975C93.33333333333333,158.14224987806975 93.33333333333333,82.29357798165168 176.66666666666666,82.29357798165168L176.66666666666666,84.31192660550488C93.33333333333333,84.31192660550488 93.33333333333333,160.16059850192298 10,160.16059850192298Z" style="stroke: rgb(68, 68, 68); stroke-opacity: 1; fill: rgb(204, 204, 204); fill-opacity: 1; stroke-width: 0; opacity: 1;"/><path class="sankey-link" d="M186.66666666666666,154.95412844036719C270,154.95412844036719 270,241.53863054329784 353.3333333333333,241.53863054329784L353.3333333333333,243.55697916715107C270,243.55697916715107 270,156.9724770642204 186.66666666666666,156.9724770642204Z" style="stroke: rgb(68, 68, 68); stroke-opacity: 1; fill: rgb(87, 188, 214); fill-opacity: 1; stroke-width: 0; opacity: 1;"/><path class="sankey-link" d="M363.3333333333333,241.53863054329784C446.66666666666663,241.53863054329784 446.66666666666663,158.21100917431198 530,158.21100917431198L530,160.2293577981652C446.66666666666663,160.2293577981652 446.66666666666663,243.55697916715107 363.3333333333333,243.55697916715107Z" style="stroke: rgb(68, 68, 68); stroke-opacity: 1; fill: rgb(156, 67, 151); fill-opacity: 1; stroke-width: 0; opacity: 1;"/><path class="sankey-link" d="M186.66666666666666,102.47706422018382C358.33333333333337,102.47706422018382 358.33333333333337,131.97247706422039 530,131.97247706422039L530,133.9908256880736C358.33333333333337,133.9908256880736 358.33333333333337,104.49541284403702 186.66666666666666,104.49541284403702Z" style="stroke: rgb(68, 68, 68); stroke-opacity: 1; fill: rgb(87, 188, 214); fill-opacity: 1; stroke-width: 0; opacity: 1;"/><path class="sankey-link" d="M363.3333333333333,233.46523604788504C446.66666666666663,233.46523604788504 446.66666666666663,86.78899082568827 530,86.78899082568827L530,88.80733944954147C446.66666666666663,88.80733944954147 446.66666666666663,235.48358467173827 363.3333333333333,235.48358467173827Z" style="stroke: rgb(68, 68, 68); stroke-opacity: 1; fill: rgb(204, 204, 204); fill-opacity: 1; stroke-width: 0; opacity: 1;"/><path class="sankey-link" d="M186.66666666666666,82.29357798165168C358.33333333333337,82.29357798165168 358.33333333333337,16.146788990825815 530,16.146788990825815L530,18.16513761467903C358.33333333333337,18.16513761467903 358.33333333333337,84.31192660550488 186.66666666666666,84.31192660550488Z" style="stroke: rgb(68, 68, 68); stroke-opacity: 1; fill: rgb(204, 204, 204); fill-opacity: 1; stroke-width: 0; opacity: 1;"/><path class="sankey-link" d="M10,160.16059850192295C93.33333333333333,160.16059850192295 93.33333333333333,84.3119266055049 176.66666666666666,84.3119266055049L176.66666666666666,86.3302752293581C93.33333333333333,86.3302752293581 93.33333333333333,162.17894712577618 10,162.17894712577618Z" style="stroke: rgb(68, 68, 68); stroke-opacity: 1; fill: rgb(204, 204, 204); fill-opacity: 1; stroke-width: 0; opacity: 1;"/><path class="sankey-link" d="M186.66666666666666,156.97247706422039C270,156.97247706422039 270,243.55697916715104 353.3333333333333,243.55697916715104L353.3333333333333,245.57532779100427C270,245.57532779100427 270,158.9908256880736 186.66666666666666,158.9908256880736Z" style="stroke: rgb(68, 68, 68); stroke-opacity: 1; fill: rgb(87, 188, 214); fill-opacity: 1; stroke-width: 0; opacity: 1;"/><path class="sankey-link" d="M363.3333333333333,235.48358467173824C446.66666666666663,235.48358467173824 446.66666666666663,88.80733944954149 530,88.80733944954149L530,90.82568807339469C446.66666666666663,90.82568807339469 446.66666666666663,237.50193329559147 363.3333333333333,237.50193329559147Z" style="stroke: rgb(68, 68, 68); stroke-opacity: 1; fill: rgb(204, 204, 204); fill-opacity: 1; stroke-width: 0; opacity: 1;"/><path class="sankey-link" d="M186.66666666666666,84.3119266055049C358.33333333333337,84.3119266055049 358.33333333333337,18.165137614679026 530,18.165137614679026L530,20.18348623853224C358.33333333333337,20.18348623853224 358.33333333333337,86.3302752293581 186.66666666666666,86.3302752293581Z" style="stroke: rgb(68, 68, 68); stroke-opacity: 1; fill: rgb(204, 204, 204); fill-opacity: 1; stroke-width: 0; opacity: 1;"/><path class="sankey-link" d="M10,254.56426822669368C93.33333333333333,254.56426822669368 93.33333333333333,106.51376146789025 176.66666666666666,106.51376146789025L176.66666666666666,108.53211009174345C93.33333333333333,108.53211009174345 93.33333333333333,256.5826168505469 10,256.5826168505469Z" style="stroke: rgb(68, 68, 68); stroke-opacity: 1; fill: rgb(156, 67, 151); fill-opacity: 1; stroke-width: 0; opacity: 1;"/><path class="sankey-link" d="M186.66666666666666,132.752293577982C270,132.752293577982 270,176.1716580662336 353.3333333333333,176.1716580662336L353.3333333333333,178.19000669008682C270,178.19000669008682 270,134.77064220183522 186.66666666666666,134.77064220183522Z" style="stroke: rgb(68, 68, 68); stroke-opacity: 1; fill: rgb(87, 188, 214); fill-opacity: 1; stroke-width: 0; opacity: 1;"/><path class="sankey-link" d="M186.66666666666666,86.33027522935811C358.33333333333337,86.33027522935811 358.33333333333337,20.183486238532236 530,20.183486238532236L530,22.20183486238545C358.33333333333337,22.20183486238545 358.33333333333337,88.34862385321131 186.66666666666666,88.34862385321131Z" style="stroke: rgb(68, 68, 68); stroke-opacity: 1; fill: rgb(204, 204, 204); fill-opacity: 1; stroke-width: 0; opacity: 1;"/><path class="sankey-link" d="M363.3333333333333,168.0982635708208C446.66666666666663,168.0982635708208 446.66666666666663,44.403669724770786 530,44.403669724770786L530,46.422018348624C446.66666666666663,46.422018348624 446.66666666666663,170.11661219467402 363.3333333333333,170.11661219467402Z" style="stroke: rgb(68, 68, 68); stroke-opacity: 1; fill: rgb(204, 204, 204); fill-opacity: 1; stroke-width: 0; opacity: 1;"/><path class="sankey-link" d="M10,289.6560113459597C93.33333333333333,289.6560113459597 93.33333333333333,110.55045871559668 176.66666666666666,110.55045871559668L176.66666666666666,112.56880733944988C93.33333333333333,112.56880733944988 93.33333333333333,291.6743599698129 10,291.6743599698129Z" style="stroke: rgb(68, 68, 68); stroke-opacity: 1; fill: rgb(204, 204, 204); fill-opacity: 1; stroke-width: 0; opacity: 1;"/><path class="sankey-link" d="M186.66666666666666,158.99082568807358C270,158.99082568807358 270,245.57532779100424 353.3333333333333,245.57532779100424L353.3333333333333,247.59367641485747C270,247.59367641485747 270,161.0091743119268 186.66666666666666,161.0091743119268Z" style="stroke: rgb(68, 68, 68); stroke-opacity: 1; fill: rgb(87, 188, 214); fill-opacity: 1; stroke-width: 0; opacity: 1;"/><path class="sankey-link" d="M363.3333333333333,245.57532779100424C446.66666666666663,245.57532779100424 446.66666666666663,213.48623853210998 530,213.48623853210998L530,215.5045871559632C446.66666666666663,215.5045871559632 446.66666666666663,247.59367641485747 363.3333333333333,247.59367641485747Z" style="stroke: rgb(68, 68, 68); stroke-opacity: 1; fill: rgb(87, 188, 214); fill-opacity: 1; stroke-width: 0; opacity: 1;"/><path class="sankey-link" d="M186.66666666666666,138.8073394495416C358.33333333333337,138.8073394495416 358.33333333333337,189.26605504587158 530,189.26605504587158L530,191.2844036697248C358.33333333333337,191.2844036697248 358.33333333333337,140.82568807339482 186.66666666666666,140.82568807339482Z" style="stroke: rgb(68, 68, 68); stroke-opacity: 1; fill: rgb(204, 204, 204); fill-opacity: 1; stroke-width: 0; opacity: 1;"/><path class="sankey-link" d="M363.3333333333333,237.50193329559144C446.66666666666663,237.50193329559144 446.66666666666663,90.8256880733947 530,90.8256880733947L530,92.8440366972479C446.66666666666663,92.8440366972479 446.66666666666663,239.52028191944467 363.3333333333333,239.52028191944467Z" style="stroke: rgb(68, 68, 68); stroke-opacity: 1; fill: rgb(204, 204, 204); fill-opacity: 1; stroke-width: 0; opacity: 1;"/><path class="sankey-link" d="M186.66666666666666,88.34862385321132C358.33333333333337,88.34862385321132 358.33333333333337,22.201834862385446 530,22.201834862385446L530,24.22018348623866C358.33333333333337,24.22018348623866 358.33333333333337,90.36697247706452 186.66666666666666,90.36697247706452Z" style="stroke: rgb(68, 68, 68); stroke-opacity: 1; fill: rgb(204, 204, 204); fill-opacity: 1; stroke-width: 0; opacity: 1;"/><path class="sankey-link" d="M10,293.69270859366617C93.33333333333333,293.69270859366617 93.33333333333333,224.35779816513767 176.66666666666666,224.35779816513767L176.66666666666666,226.3761467889909C93.33333333333333,226.3761467889909 93.33333333333333,295.71105721751934 10,295.71105721751934Z" style="stroke: rgb(68, 68, 68); stroke-opacity: 1; fill: rgb(204, 204, 204); fill-opacity: 1; stroke-width: 0; opacity: 1;"/><path class="sankey-link" d="M186.66666666666666,262.7064220183486C358.33333333333337,262.7064220183486 358.33333333333337,207.43119266055038 530,207.43119266055038L530,209.4495412844036C358.33333333333337,209.4495412844036 358.33333333333337,264.72477064220175 186.66666666666666,264.72477064220175Z" style="stroke: rgb(68, 68, 68); stroke-opacity: 1; fill: rgb(87, 188, 214); fill-opacity: 1; stroke-width: 0; opacity: 1;"/><path class="sankey-link" d="M186.66666666666666,264.7247706422018C358.33333333333337,264.7247706422018 358.33333333333337,209.44954128440358 530,209.44954128440358L530,211.4678899082568C358.33333333333337,211.4678899082568 358.33333333333337,266.743119266055 186.66666666666666,266.743119266055Z" style="stroke: rgb(68, 68, 68); stroke-opacity: 1; fill: rgb(87, 188, 214); fill-opacity: 1; stroke-width: 0; opacity: 1;"/><path class="sankey-link" d="M10,168.23399299733575C93.33333333333333,168.23399299733575 93.33333333333333,206.19266055045887 176.66666666666666,206.19266055045887L176.66666666666666,208.2110091743121C93.33333333333333,208.2110091743121 93.33333333333333,170.25234162118898 10,170.25234162118898Z" style="stroke: rgb(68, 68, 68); stroke-opacity: 1; fill: rgb(204, 204, 204); fill-opacity: 1; stroke-width: 0; opacity: 1;"/><path class="sankey-link" d="M186.66666666666666,220.32110091743127C358.33333333333337,220.32110091743127 358.33333333333337,66.60550458715613 530,66.60550458715613L530,68.62385321100933C358.33333333333337,68.62385321100933 358.33333333333337,222.3394495412845 186.66666666666666,222.3394495412845Z" style="stroke: rgb(68, 68, 68); stroke-opacity: 1; fill: rgb(204, 204, 204); fill-opacity: 1; stroke-width: 0; opacity: 1;"/><path class="sankey-link" d="M186.66666666666666,222.33944954128447C358.33333333333337,222.33944954128447 358.33333333333337,68.62385321100935 530,68.62385321100935L530,70.64220183486255C358.33333333333337,70.64220183486255 358.33333333333337,224.3577981651377 186.66666666666666,224.3577981651377Z" style="stroke: rgb(68, 68, 68); stroke-opacity: 1; fill: rgb(204, 204, 204); fill-opacity: 1; stroke-width: 0; opacity: 1;"/><path class="sankey-link" d="M10,258.60096547440014C93.33333333333333,258.60096547440014 93.33333333333333,220.32110091743127 176.66666666666666,220.32110091743127L176.66666666666666,222.3394495412845C93.33333333333333,222.3394495412845 93.33333333333333,260.6193140982533 10,260.6193140982533Z" style="stroke: rgb(68, 68, 68); stroke-opacity: 1; fill: rgb(156, 67, 151); fill-opacity: 1; stroke-width: 0; opacity: 1;"/><path class="sankey-link" d="M186.66666666666666,268.76146788990826C270,268.76146788990826 270,251.63037366256384 353.3333333333333,251.63037366256384L353.3333333333333,253.64872228641707C270,253.64872228641707 270,270.77981651376143 186.66666666666666,270.77981651376143Z" style="stroke: rgb(68, 68, 68); stroke-opacity: 1; fill: rgb(156, 67, 151); fill-opacity: 1; stroke-width: 0; opacity: 1;"/><path class="sankey-link" d="M363.3333333333333,243.55697916715104C446.66666666666663,243.55697916715104 446.66666666666663,160.22935779816518 530,160.22935779816518L530,162.2477064220184C446.66666666666663,162.2477064220184 446.66666666666663,245.57532779100427 363.3333333333333,245.57532779100427Z" style="stroke: rgb(68, 68, 68); stroke-opacity: 1; fill: rgb(156, 67, 151); fill-opacity: 1; stroke-width: 0; opacity: 1;"/><path class="sankey-link" d="M186.66666666666666,242.52293577981646C358.33333333333337,242.52293577981646 358.33333333333337,156.19266055045878 530,156.19266055045878L530,158.211009174312C358.33333333333337,158.211009174312 358.33333333333337,244.5412844036697 186.66666666666666,244.5412844036697Z" style="stroke: rgb(68, 68, 68); stroke-opacity: 1; fill: rgb(204, 204, 204); fill-opacity: 1; stroke-width: 0; opacity: 1;"/><path class="sankey-link" d="M363.3333333333333,253.64872228641704C446.66666666666663,253.64872228641704 446.66666666666663,274.816513761468 530,274.816513761468L530,276.8348623853212C446.66666666666663,276.8348623853212 446.66666666666663,255.66707091027027 363.3333333333333,255.66707091027027Z" style="stroke: rgb(68, 68, 68); stroke-opacity: 1; fill: rgb(87, 188, 214); fill-opacity: 1; stroke-width: 0; opacity: 1;"/><path class="sankey-link" d="M186.66666666666666,274.81651376146795C358.33333333333337,274.81651376146795 358.33333333333337,266.7431192660551 530,266.7431192660551L530,268.76146788990826C358.33333333333337,268.76146788990826 358.33333333333337,276.8348623853211 186.66666666666666,276.8348623853211Z" style="stroke: rgb(68, 68, 68); stroke-opacity: 1; fill: rgb(204, 204, 204); fill-opacity: 1; stroke-width: 0; opacity: 1;"/><path class="sankey-link" d="M363.3333333333333,247.59367641485744C446.66666666666663,247.59367641485744 446.66666666666663,215.50458715596318 530,215.50458715596318L530,217.5229357798164C446.66666666666663,217.5229357798164 446.66666666666663,249.61202503871067 363.3333333333333,249.61202503871067Z" style="stroke: rgb(68, 68, 68); stroke-opacity: 1; fill: rgb(87, 188, 214); fill-opacity: 1; stroke-width: 0; opacity: 1;"/><path class="sankey-link" d="M186.66666666666666,266.74311926605503C358.33333333333337,266.74311926605503 358.33333333333337,211.46788990825678 530,211.46788990825678L530,213.48623853211C358.33333333333337,213.48623853211 358.33333333333337,268.7614678899082 186.66666666666666,268.7614678899082Z" style="stroke: rgb(68, 68, 68); stroke-opacity: 1; fill: rgb(87, 188, 214); fill-opacity: 1; stroke-width: 0; opacity: 1;"/><path class="sankey-link" d="M363.3333333333333,239.52028191944464C446.66666666666663,239.52028191944464 446.66666666666663,92.84403669724792 530,92.84403669724792L530,94.86238532110112C446.66666666666663,94.86238532110112 446.66666666666663,241.53863054329787 363.3333333333333,241.53863054329787Z" style="stroke: rgb(68, 68, 68); stroke-opacity: 1; fill: rgb(204, 204, 204); fill-opacity: 1; stroke-width: 0; opacity: 1;"/><path class="sankey-link" d="M186.66666666666666,224.35779816513767C358.33333333333337,224.35779816513767 358.33333333333337,70.64220183486256 530,70.64220183486256L530,72.66055045871576C358.33333333333337,72.66055045871576 358.33333333333337,226.3761467889909 186.66666666666666,226.3761467889909Z" style="stroke: rgb(68, 68, 68); stroke-opacity: 1; fill: rgb(204, 204, 204); fill-opacity: 1; stroke-width: 0; opacity: 1;"/><path class="sankey-link" d="M10,170.25234162118895C93.33333333333333,170.25234162118895 93.33333333333333,208.21100917431207 176.66666666666666,208.21100917431207L176.66666666666666,210.2293577981653C93.33333333333333,210.2293577981653 93.33333333333333,172.27069024504218 10,172.27069024504218Z" style="stroke: rgb(68, 68, 68); stroke-opacity: 1; fill: rgb(204, 204, 204); fill-opacity: 1; stroke-width: 0; opacity: 1;"/><path class="sankey-link" d="M186.66666666666666,226.37614678899087C358.33333333333337,226.37614678899087 358.33333333333337,72.66055045871578 530,72.66055045871578L530,74.67889908256898C358.33333333333337,74.67889908256898 358.33333333333337,228.3944954128441 186.66666666666666,228.3944954128441Z" style="stroke: rgb(68, 68, 68); stroke-opacity: 1; fill: rgb(204, 204, 204); fill-opacity: 1; stroke-width: 0; opacity: 1;"/><path class="sankey-link" d="M186.66666666666666,228.39449541284407C358.33333333333337,228.39449541284407 358.33333333333337,74.67889908256899 530,74.67889908256899L530,76.69724770642219C358.33333333333337,76.69724770642219 358.33333333333337,230.4128440366973 186.66666666666666,230.4128440366973Z" style="stroke: rgb(68, 68, 68); stroke-opacity: 1; fill: rgb(204, 204, 204); fill-opacity: 1; stroke-width: 0; opacity: 1;"/><path class="sankey-link" d="M10,209.38078198816157C93.33333333333333,209.38078198816157 93.33333333333333,94.40366972477096 176.66666666666666,94.40366972477096L176.66666666666666,96.42201834862416C93.33333333333333,96.42201834862416 93.33333333333333,211.3991306120148 10,211.3991306120148Z" style="stroke: rgb(68, 68, 68); stroke-opacity: 1; fill: rgb(87, 188, 214); fill-opacity: 1; stroke-width: 0; opacity: 1;"/><path class="sankey-link" d="M186.66666666666666,161.00917431192678C270,161.00917431192678 270,247.59367641485744 353.3333333333333,247.59367641485744L353.3333333333333,249.61202503871067C270,249.61202503871067 270,163.02752293578 186.66666666666666,163.02752293578Z" style="stroke: rgb(68, 68, 68); stroke-opacity: 1; fill: rgb(87, 188, 214); fill-opacity: 1; stroke-width: 0; opacity: 1;"/><path class="sankey-link" d="M10,211.39913061201477C93.33333333333333,211.39913061201477 93.33333333333333,96.42201834862418 176.66666666666666,96.42201834862418L176.66666666666666,98.44036697247738C93.33333333333333,98.44036697247738 93.33333333333333,213.417479235868 10,213.417479235868Z" style="stroke: rgb(68, 68, 68); stroke-opacity: 1; fill: rgb(87, 188, 214); fill-opacity: 1; stroke-width: 0; opacity: 1;"/><path class="sankey-link" d="M10,213.41747923586797C93.33333333333333,213.41747923586797 93.33333333333333,98.44036697247739 176.66666666666666,98.44036697247739L176.66666666666666,100.45871559633059C93.33333333333333,100.45871559633059 93.33333333333333,215.4358278597212 10,215.4358278597212Z" style="stroke: rgb(68, 68, 68); stroke-opacity: 1; fill: rgb(87, 188, 214); fill-opacity: 1; stroke-width: 0; opacity: 1;"/><path class="sankey-link" d="M186.66666666666666,163.02752293577998C270,163.02752293577998 270,249.61202503871064 353.3333333333333,249.61202503871064L353.3333333333333,251.63037366256387C270,251.63037366256387 270,165.0458715596332 186.66666666666666,165.0458715596332Z" style="stroke: rgb(68, 68, 68); stroke-opacity: 1; fill: rgb(87, 188, 214); fill-opacity: 1; stroke-width: 0; opacity: 1;"/><path class="sankey-link" d="M186.66666666666666,134.7706422018352C270,134.7706422018352 270,178.1900066900868 353.3333333333333,178.1900066900868L353.3333333333333,180.20835531394002C270,180.20835531394002 270,136.78899082568842 186.66666666666666,136.78899082568842Z" style="stroke: rgb(68, 68, 68); stroke-opacity: 1; fill: rgb(87, 188, 214); fill-opacity: 1; stroke-width: 0; opacity: 1;"/><path class="sankey-link" d="M363.3333333333333,255.6670709102702C446.66666666666663,255.6670709102702 446.66666666666663,276.83486238532123 530,276.83486238532123L530,278.8532110091744C446.66666666666663,278.8532110091744 446.66666666666663,257.6854195341234 363.3333333333333,257.6854195341234Z" style="stroke: rgb(68, 68, 68); stroke-opacity: 1; fill: rgb(87, 188, 214); fill-opacity: 1; stroke-width: 0; opacity: 1;"/><path class="sankey-link" d="M363.3333333333333,196.3551443047656C446.66666666666663,196.3551443047656 446.66666666666663,260.6880733944954 530,260.6880733944954L530,262.7064220183486C446.66666666666663,262.7064220183486 446.66666666666663,198.37349292861882 363.3333333333333,198.37349292861882Z" style="stroke: rgb(68, 68, 68); stroke-opacity: 1; fill: rgb(87, 188, 214); fill-opacity: 1; stroke-width: 0; opacity: 1;"/><path class="sankey-link" d="M363.3333333333333,249.61202503871064C446.66666666666663,249.61202503871064 446.66666666666663,217.52293577981638 530,217.52293577981638L530,219.5412844036696C446.66666666666663,219.5412844036696 446.66666666666663,251.63037366256387 363.3333333333333,251.63037366256387Z" style="stroke: rgb(68, 68, 68); stroke-opacity: 1; fill: rgb(87, 188, 214); fill-opacity: 1; stroke-width: 0; opacity: 1;"/><path class="sankey-link" d="M363.3333333333333,186.2634011854996C446.66666666666663,186.2634011854996 446.66666666666663,197.33944954128438 530,197.33944954128438L530,199.3577981651376C446.66666666666663,199.3577981651376 446.66666666666663,188.28174980935282 363.3333333333333,188.28174980935282Z" style="stroke: rgb(68, 68, 68); stroke-opacity: 1; fill: rgb(87, 188, 214); fill-opacity: 1; stroke-width: 0; opacity: 1;"/><path class="sankey-link" d="M363.3333333333333,257.68541953412347C446.66666666666663,257.68541953412347 446.66666666666663,317.98165137614694 530,317.98165137614694L530,320.0000000000001C446.66666666666663,320.0000000000001 446.66666666666663,259.70376815797664 363.3333333333333,259.70376815797664Z" style="stroke: rgb(68, 68, 68); stroke-opacity: 1; fill: rgb(204, 204, 204); fill-opacity: 1; stroke-width: 0; opacity: 1;"/><path class="sankey-link" d="M363.3333333333333,200.391841552472C446.66666666666663,200.391841552472 446.66666666666663,311.92660550458726 530,311.92660550458726L530,313.94495412844043C446.66666666666663,313.94495412844043 446.66666666666663,202.41019017632522 363.3333333333333,202.41019017632522Z" style="stroke: rgb(68, 68, 68); stroke-opacity: 1; fill: rgb(87, 188, 214); fill-opacity: 1; stroke-width: 0; opacity: 1;"/><path class="sankey-link" d="M10,215.43582785972117C93.33333333333333,215.43582785972117 93.33333333333333,100.4587155963306 176.66666666666666,100.4587155963306L176.66666666666666,102.4770642201838C93.33333333333333,102.4770642201838 93.33333333333333,217.4541764835744 10,217.4541764835744Z" style="stroke: rgb(68, 68, 68); stroke-opacity: 1; fill: rgb(87, 188, 214); fill-opacity: 1; stroke-width: 0; opacity: 1;"/><path class="sankey-link" d="M186.66666666666666,104.49541284403703C358.33333333333337,104.49541284403703 358.33333333333337,133.99082568807358 530,133.99082568807358L530,136.0091743119268C358.33333333333337,136.0091743119268 358.33333333333337,106.51376146789023 186.66666666666666,106.51376146789023Z" style="stroke: rgb(68, 68, 68); stroke-opacity: 1; fill: rgb(87, 188, 214); fill-opacity: 1; stroke-width: 0; opacity: 1;"/><path class="sankey-link" d="M186.66666666666666,106.51376146789025C358.33333333333337,106.51376146789025 358.33333333333337,136.00917431192678 530,136.00917431192678L530,138.02752293578C358.33333333333337,138.02752293578 358.33333333333337,108.53211009174345 186.66666666666666,108.53211009174345Z" style="stroke: rgb(68, 68, 68); stroke-opacity: 1; fill: rgb(87, 188, 214); fill-opacity: 1; stroke-width: 0; opacity: 1;"/><path class="sankey-link" d="M186.66666666666666,171.10091743119278C358.33333333333337,171.10091743119278 358.33333333333337,305.8715596330276 530,305.8715596330276L530,307.88990825688074C358.33333333333337,307.88990825688074 358.33333333333337,173.119266055046 186.66666666666666,173.119266055046Z" style="stroke: rgb(68, 68, 68); stroke-opacity: 1; fill: rgb(87, 188, 214); fill-opacity: 1; stroke-width: 0; opacity: 1;"/><path class="sankey-link" d="M186.66666666666666,173.11926605504598C358.33333333333337,173.11926605504598 358.33333333333337,307.8899082568808 530,307.8899082568808L530,309.908256880734C358.33333333333337,309.908256880734 358.33333333333337,175.1376146788992 186.66666666666666,175.1376146788992Z" style="stroke: rgb(68, 68, 68); stroke-opacity: 1; fill: rgb(87, 188, 214); fill-opacity: 1; stroke-width: 0; opacity: 1;"/><path class="sankey-link" d="M186.66666666666666,90.36697247706454C358.33333333333337,90.36697247706454 358.33333333333337,24.220183486238657 530,24.220183486238657L530,26.23853211009187C358.33333333333337,26.23853211009187 358.33333333333337,92.38532110091774 186.66666666666666,92.38532110091774Z" style="stroke: rgb(68, 68, 68); stroke-opacity: 1; fill: rgb(204, 204, 204); fill-opacity: 1; stroke-width: 0; opacity: 1;"/><path class="sankey-link" d="M186.66666666666666,92.38532110091775C358.33333333333337,92.38532110091775 358.33333333333337,26.238532110091867 530,26.238532110091867L530,28.25688073394508C358.33333333333337,28.25688073394508 358.33333333333337,94.40366972477095 186.66666666666666,94.40366972477095Z" style="stroke: rgb(68, 68, 68); stroke-opacity: 1; fill: rgb(204, 204, 204); fill-opacity: 1; stroke-width: 0; opacity: 1;"/><path class="sankey-link" d="M10,295.7110572175194C93.33333333333333,295.7110572175194 93.33333333333333,226.37614678899087 176.66666666666666,226.37614678899087L176.66666666666666,228.3944954128441C93.33333333333333,228.3944954128441 93.33333333333333,297.72940584137257 10,297.72940584137257Z" style="stroke: rgb(68, 68, 68); stroke-opacity: 1; fill: rgb(204, 204, 204); fill-opacity: 1; stroke-width: 0; opacity: 1;"/><path class="sankey-link" d="M186.66666666666666,276.8348623853212C358.33333333333337,276.8348623853212 358.33333333333337,268.7614678899083 530,268.7614678899083L530,270.7798165137615C358.33333333333337,270.7798165137615 358.33333333333337,278.85321100917434 186.66666666666666,278.85321100917434Z" style="stroke: rgb(68, 68, 68); stroke-opacity: 1; fill: rgb(204, 204, 204); fill-opacity: 1; stroke-width: 0; opacity: 1;"/><path class="sankey-link" d="M186.66666666666666,278.8532110091744C358.33333333333337,278.8532110091744 358.33333333333337,270.77981651376155 530,270.77981651376155L530,272.7981651376147C358.33333333333337,272.7981651376147 358.33333333333337,280.8715596330276 186.66666666666666,280.8715596330276Z" style="stroke: rgb(68, 68, 68); stroke-opacity: 1; fill: rgb(204, 204, 204); fill-opacity: 1; stroke-width: 0; opacity: 1;"/><path class="sankey-link" d="M186.66666666666666,230.41284403669727C358.33333333333337,230.41284403669727 358.33333333333337,76.6972477064222 530,76.6972477064222L530,78.7155963302754C358.33333333333337,78.7155963302754 358.33333333333337,232.4311926605505 186.66666666666666,232.4311926605505Z" style="stroke: rgb(68, 68, 68); stroke-opacity: 1; fill: rgb(204, 204, 204); fill-opacity: 1; stroke-width: 0; opacity: 1;"/><path class="sankey-link" d="M186.66666666666666,232.43119266055047C358.33333333333337,232.43119266055047 358.33333333333337,78.71559633027542 530,78.71559633027542L530,80.73394495412862C358.33333333333337,80.73394495412862 358.33333333333337,234.4495412844037 186.66666666666666,234.4495412844037Z" style="stroke: rgb(68, 68, 68); stroke-opacity: 1; fill: rgb(204, 204, 204); fill-opacity: 1; stroke-width: 0; opacity: 1;"/></g><g class="sankey-node-set" style="cursor: move;"><g class="sankey-node" transform="translate(0.000, 141.995)" style="opacity: 1;"><rect class="node-rect" width="10" height="34.311926605504624" style="stroke-width: 0.5; stroke: rgb(68, 68, 68); stroke-opacity: 1; fill: rgb(51, 51, 51); fill-opacity: 1;"/><rect class="node-capture" x="-10" y="-12.5" width="30" height="59.311926605504624" style="fill-opacity: 0;"/><g class="node-entered" transform="translate(0 18.155963302752312)"><path class="node-label-guide" id="fa7327_0_node_0" d="M14,0L540,0" transform="matrix(1 0 0 1 0 0)"/><text class="node-label" transform="scale(1 1)" style="user-select: none; cursor: default; fill: rgb(0, 0, 0); text-shadow: rgb(255, 255, 255) -1px 1px 1px, rgb(255, 255, 255) 1px 1px 1px, rgb(255, 255, 255) 1px -1px 1px, rgb(255, 255, 255) -1px -1px 1px; font-family: 'Open Sans', verdana, arial, sans-serif; font-size: 14px; fill-opacity: 1;"><textPath class="node-label-text-path" alignment-baseline="middle" xlink:href="#fa7327_0_node_0" startOffset="0%" text-anchor="start" style="fill: rgb(0, 0, 0);">Sequential</textPath></text></g></g><g class="sankey-node" transform="translate(0.000, 201.307)" style="opacity: 1;"><rect class="node-rect" width="10" height="24.22018348623851" style="stroke-width: 0.5; stroke: rgb(68, 68, 68); stroke-opacity: 1; fill: rgb(51, 51, 51); fill-opacity: 1;"/><rect class="node-capture" x="-10" y="-12.5" width="30" height="49.22018348623851" style="fill-opacity: 0;"/><g class="node-entered" transform="translate(0 13.110091743119256)"><path class="node-label-guide" id="fa7327_0_node_1" d="M14,0L540,0" transform="matrix(1 0 0 1 0 0)"/><text class="node-label" transform="scale(1 1)" style="user-select: none; cursor: default; fill: rgb(0, 0, 0); text-shadow: rgb(255, 255, 255) -1px 1px 1px, rgb(255, 255, 255) 1px 1px 1px, rgb(255, 255, 255) 1px -1px 1px, rgb(255, 255, 255) -1px -1px 1px; font-family: 'Open Sans', verdana, arial, sans-serif; font-size: 14px; fill-opacity: 1;"><textPath class="node-label-text-path" alignment-baseline="middle" xlink:href="#fa7327_0_node_1" startOffset="0%" text-anchor="start" style="fill: rgb(0, 0, 0);">Compiled</textPath></text></g></g><g class="sankey-node" transform="translate(0.000, 250.528)" style="opacity: 1;"><rect class="node-rect" width="10" height="12.110091743119199" style="stroke-width: 0.5; stroke: rgb(68, 68, 68); stroke-opacity: 1; fill: rgb(51, 51, 51); fill-opacity: 1;"/><rect class="node-capture" x="-10" y="-12.5" width="30" height="37.1100917431192" style="fill-opacity: 0;"/><g class="node-entered" transform="translate(0 7.055045871559599)"><path class="node-label-guide" id="fa7327_0_node_2" d="M14,0L540,0" transform="matrix(1 0 0 1 0 0)"/><text class="node-label" transform="scale(1 1)" style="user-select: none; cursor: default; fill: rgb(0, 0, 0); text-shadow: rgb(255, 255, 255) -1px 1px 1px, rgb(255, 255, 255) 1px 1px 1px, rgb(255, 255, 255) 1px -1px 1px, rgb(255, 255, 255) -1px -1px 1px; font-family: 'Open Sans', verdana, arial, sans-serif; font-size: 14px; fill-opacity: 1;"><textPath class="node-label-text-path" alignment-baseline="middle" xlink:href="#fa7327_0_node_2" startOffset="0%" text-anchor="start" style="fill: rgb(0, 0, 0);">Cooperative</textPath></text></g></g><g class="sankey-node" transform="translate(0.000, 287.638)" style="opacity: 1;"><rect class="node-rect" width="10" height="10.091743119266084" style="stroke-width: 0.5; stroke: rgb(68, 68, 68); stroke-opacity: 1; fill: rgb(51, 51, 51); fill-opacity: 1;"/><rect class="node-capture" x="-10" y="-12.5" width="30" height="35.091743119266084" style="fill-opacity: 0;"/><g class="node-entered" transform="translate(0 6.045871559633042)"><path class="node-label-guide" id="fa7327_0_node_3" d="M14,0L540,0" transform="matrix(1 0 0 1 0 0)"/><text class="node-label" transform="scale(1 1)" style="user-select: none; cursor: default; fill: rgb(0, 0, 0); text-shadow: rgb(255, 255, 255) -1px 1px 1px, rgb(255, 255, 255) 1px 1px 1px, rgb(255, 255, 255) 1px -1px 1px, rgb(255, 255, 255) -1px -1px 1px; font-family: 'Open Sans', verdana, arial, sans-serif; font-size: 14px; fill-opacity: 1;"><textPath class="node-label-text-path" alignment-baseline="middle" xlink:href="#fa7327_0_node_3" startOffset="0%" text-anchor="start" style="fill: rgb(0, 0, 0);">Nested</textPath></text></g></g><g class="sankey-node" transform="translate(353.333, 227.410)" style="opacity: 1;"><rect class="node-rect" width="10" height="32.29357798165137" style="stroke-width: 0.5; stroke: rgb(68, 68, 68); stroke-opacity: 1; fill: rgb(51, 51, 51); fill-opacity: 1;"/><rect class="node-capture" x="-10" y="-12.5" width="30" height="57.29357798165137" style="fill-opacity: 0;"/><g class="node-entered" transform="translate(0 17.146788990825684)"><path class="node-label-guide" id="fa7327_0_node_4" d="M14,0L540,0" transform="matrix(1 0 0 1 0 0)"/><text class="node-label" transform="scale(1 1)" style="user-select: none; cursor: default; fill: rgb(0, 0, 0); text-shadow: rgb(255, 255, 255) -1px 1px 1px, rgb(255, 255, 255) 1px 1px 1px, rgb(255, 255, 255) 1px -1px 1px, rgb(255, 255, 255) -1px -1px 1px; font-family: 'Open Sans', verdana, arial, sans-serif; font-size: 14px; fill-opacity: 1;"><textPath class="node-label-text-path" alignment-baseline="middle" xlink:href="#fa7327_0_node_4" startOffset="0%" text-anchor="start" style="fill: rgb(0, 0, 0);">NLS</textPath></text></g></g><g class="sankey-node" transform="translate(353.333, 151.951)" style="opacity: 1;"><rect class="node-rect" width="10" height="50.45871559633025" style="stroke-width: 0.5; stroke: rgb(68, 68, 68); stroke-opacity: 1; fill: rgb(51, 51, 51); fill-opacity: 1;"/><rect class="node-capture" x="-10" y="-12.5" width="30" height="75.45871559633025" style="fill-opacity: 0;"/><g class="node-entered" transform="translate(0 26.229357798165125)"><path class="node-label-guide" id="fa7327_0_node_6" d="M14,0L540,0" transform="matrix(1 0 0 1 0 0)"/><text class="node-label" transform="scale(1 1)" style="user-select: none; cursor: default; fill: rgb(0, 0, 0); text-shadow: rgb(255, 255, 255) -1px 1px 1px, rgb(255, 255, 255) 1px 1px 1px, rgb(255, 255, 255) 1px -1px 1px, rgb(255, 255, 255) -1px -1px 1px; font-family: 'Open Sans', verdana, arial, sans-serif; font-size: 14px; fill-opacity: 1;"><textPath class="node-label-text-path" alignment-baseline="middle" xlink:href="#fa7327_0_node_6" startOffset="0%" text-anchor="start" style="fill: rgb(0, 0, 0);">RSKG</textPath></text></g></g><g class="sankey-node" transform="translate(176.667, 66.147)" style="opacity: 1;"><rect class="node-rect" width="10" height="108.9908256880733" style="stroke-width: 0.5; stroke: rgb(68, 68, 68); stroke-opacity: 1; fill: rgb(51, 51, 51); fill-opacity: 1;"/><rect class="node-capture" x="-10" y="-12.5" width="30" height="133.9908256880733" style="fill-opacity: 0;"/><g class="node-entered" transform="translate(0 55.49541284403665)"><path class="node-label-guide" id="fa7327_0_node_8" d="M14,0L540,0" transform="matrix(1 0 0 1 0 0)"/><text class="node-label" transform="scale(1 1)" style="user-select: none; cursor: default; fill: rgb(0, 0, 0); text-shadow: rgb(255, 255, 255) -1px 1px 1px, rgb(255, 255, 255) 1px 1px 1px, rgb(255, 255, 255) 1px -1px 1px, rgb(255, 255, 255) -1px -1px 1px; font-family: 'Open Sans', verdana, arial, sans-serif; font-size: 14px; fill-opacity: 1;"><textPath class="node-label-text-path" alignment-baseline="middle" xlink:href="#fa7327_0_node_8" startOffset="0%" text-anchor="start" style="fill: rgb(0, 0, 0);">Implicit</textPath></text></g></g><g class="sankey-node" transform="translate(176.667, 200.138)" style="opacity: 1;"><rect class="node-rect" width="10" height="84.77064220183465" style="stroke-width: 0.5; stroke: rgb(68, 68, 68); stroke-opacity: 1; fill: rgb(51, 51, 51); fill-opacity: 1;"/><rect class="node-capture" x="-10" y="-12.5" width="30" height="109.77064220183465" style="fill-opacity: 0;"/><g class="node-entered" transform="translate(0 43.385321100917324)"><path class="node-label-guide" id="fa7327_0_node_9" d="M14,0L540,0" transform="matrix(1 0 0 1 0 0)"/><text class="node-label" transform="scale(1 1)" style="user-select: none; cursor: default; fill: rgb(0, 0, 0); text-shadow: rgb(255, 255, 255) -1px 1px 1px, rgb(255, 255, 255) 1px 1px 1px, rgb(255, 255, 255) 1px -1px 1px, rgb(255, 255, 255) -1px -1px 1px; font-family: 'Open Sans', verdana, arial, sans-serif; font-size: 14px; fill-opacity: 1;"><textPath class="node-label-text-path" alignment-baseline="middle" xlink:href="#fa7327_0_node_9" startOffset="0%" text-anchor="start" style="fill: rgb(0, 0, 0);">Explicit</textPath></text></g></g><g class="sankey-node" transform="translate(176.667, 309.908)" style="opacity: 1;"><rect class="node-rect" width="10" height="10.091743119266084" style="stroke-width: 0.5; stroke: rgb(68, 68, 68); stroke-opacity: 1; fill: rgb(51, 51, 51); fill-opacity: 1;"/><rect class="node-capture" x="-10" y="-12.5" width="30" height="35.091743119266084" style="fill-opacity: 0;"/><g class="node-entered" transform="translate(0 6.045871559633042)"><path class="node-label-guide" id="fa7327_0_node_11" d="M14,0L540,0" transform="matrix(1 0 0 1 0 0)"/><text class="node-label" transform="scale(1 1)" style="user-select: none; cursor: default; fill: rgb(0, 0, 0); text-shadow: rgb(255, 255, 255) -1px 1px 1px, rgb(255, 255, 255) 1px 1px 1px, rgb(255, 255, 255) 1px -1px 1px, rgb(255, 255, 255) -1px -1px 1px; font-family: 'Open Sans', verdana, arial, sans-serif; font-size: 14px; fill-opacity: 1;"><textPath class="node-label-text-path" alignment-baseline="middle" xlink:href="#fa7327_0_node_11" startOffset="0%" text-anchor="start" style="fill: rgb(0, 0, 0);">NA</textPath></text></g></g><g class="sankey-node" transform="translate(530.000, 248.578)" style="opacity: 1;"><rect class="node-rect" width="10" height="30.275229357798196" style="stroke-width: 0.5; stroke: rgb(68, 68, 68); stroke-opacity: 1; fill: rgb(51, 51, 51); fill-opacity: 1;"/><rect class="node-capture" x="-10" y="-12.5" width="30" height="55.275229357798196" style="fill-opacity: 0;"/><g class="node-entered" transform="translate(0 16.137614678899098)"><path class="node-label-guide" id="fa7327_0_node_12" d="M-540,0L-4,0" transform="matrix(1 0 0 1 0 0)"/><text class="node-label" transform="scale(1 1)" style="user-select: none; cursor: default; fill: rgb(0, 0, 0); text-shadow: rgb(255, 255, 255) -1px 1px 1px, rgb(255, 255, 255) 1px 1px 1px, rgb(255, 255, 255) 1px -1px 1px, rgb(255, 255, 255) -1px -1px 1px; font-family: 'Open Sans', verdana, arial, sans-serif; font-size: 14px; fill-opacity: 1;"><textPath class="node-label-text-path" alignment-baseline="middle" xlink:href="#fa7327_0_node_12" startOffset="100%" text-anchor="end" style="fill: rgb(0, 0, 0);">Out of distribution</textPath></text></g></g><g class="sankey-node" transform="translate(530.000, 123.899)" style="opacity: 1;"><rect class="node-rect" width="10" height="38.348623853210825" style="stroke-width: 0.5; stroke: rgb(68, 68, 68); stroke-opacity: 1; fill: rgb(0, 0, 0); fill-opacity: 1;"/><rect class="node-capture" x="-10" y="-12.5" width="30" height="63.348623853210825" style="fill-opacity: 0;"/><g class="node-entered" transform="translate(0 20.174311926605412)"><path class="node-label-guide" id="fa7327_0_node_14" d="M-540,0L-4,0" transform="matrix(1 0 0 1 0 0)"/><text class="node-label" transform="scale(1 1)" style="user-select: none; cursor: default; fill: rgb(0, 0, 0); text-shadow: rgb(255, 255, 255) -1px 1px 1px, rgb(255, 255, 255) 1px 1px 1px, rgb(255, 255, 255) 1px -1px 1px, rgb(255, 255, 255) -1px -1px 1px; font-family: 'Open Sans', verdana, arial, sans-serif; font-size: 14px; fill-opacity: 1;"><textPath class="node-label-text-path" alignment-baseline="middle" xlink:href="#fa7327_0_node_14" startOffset="100%" text-anchor="end" style="fill: rgb(0, 0, 0);">Interpretability</textPath></text></g></g><g class="sankey-node" transform="translate(530.000, 187.248)" style="opacity: 1;"><rect class="node-rect" width="10" height="36.33027522935777" style="stroke-width: 0.5; stroke: rgb(68, 68, 68); stroke-opacity: 1; fill: rgb(0, 0, 0); fill-opacity: 1;"/><rect class="node-capture" x="-10" y="-12.5" width="30" height="61.33027522935777" style="fill-opacity: 0;"/><g class="node-entered" transform="translate(0 19.165137614678883)"><path class="node-label-guide" id="fa7327_0_node_16" d="M-540,0L-4,0" transform="matrix(1 0 0 1 0 0)"/><text class="node-label" transform="scale(1 1)" style="user-select: none; cursor: default; fill: rgb(0, 0, 0); text-shadow: rgb(255, 255, 255) -1px 1px 1px, rgb(255, 255, 255) 1px 1px 1px, rgb(255, 255, 255) 1px -1px 1px, rgb(255, 255, 255) -1px -1px 1px; font-family: 'Open Sans', verdana, arial, sans-serif; font-size: 14px; fill-opacity: 1;"><textPath class="node-label-text-path" alignment-baseline="middle" xlink:href="#fa7327_0_node_16" startOffset="100%" text-anchor="end" style="fill: rgb(0, 0, 0);">Reduced data</textPath></text></g></g><g class="sankey-node" transform="translate(530.000, 303.853)" style="opacity: 1;"><rect class="node-rect" width="10" height="16.146788990825655" style="stroke-width: 0.5; stroke: rgb(68, 68, 68); stroke-opacity: 1; fill: rgb(0, 0, 0); fill-opacity: 1;"/><rect class="node-capture" x="-10" y="-12.5" width="30" height="41.146788990825655" style="fill-opacity: 0;"/><g class="node-entered" transform="translate(0 9.073394495412828)"><path class="node-label-guide" id="fa7327_0_node_18" d="M-540,0L-4,0" transform="matrix(1 0 0 1 0 0)"/><text class="node-label" transform="scale(1 1)" style="user-select: none; cursor: default; fill: rgb(0, 0, 0); text-shadow: rgb(255, 255, 255) -1px 1px 1px, rgb(255, 255, 255) 1px 1px 1px, rgb(255, 255, 255) 1px -1px 1px, rgb(255, 255, 255) -1px -1px 1px; font-family: 'Open Sans', verdana, arial, sans-serif; font-size: 14px; fill-opacity: 1;"><textPath class="node-label-text-path" alignment-baseline="middle" xlink:href="#fa7327_0_node_18" startOffset="100%" text-anchor="end" style="fill: rgb(0, 0, 0);">Transferability</textPath></text></g></g><g class="sankey-node" transform="translate(530.000, 0.000)" style="opacity: 1;"><rect class="node-rect" width="10" height="98.89908256880743" style="stroke-width: 0.5; stroke: rgb(68, 68, 68); stroke-opacity: 1; fill: rgb(0, 0, 0); fill-opacity: 1;"/><rect class="node-capture" x="-10" y="-12.5" width="30" height="123.89908256880743" style="fill-opacity: 0;"/><g class="node-entered" transform="translate(0 50.449541284403715)"><path class="node-label-guide" id="fa7327_0_node_20" d="M-540,0L-4,0" transform="matrix(1 0 0 1 0 0)"/><text class="node-label" transform="scale(1 1)" style="user-select: none; cursor: default; fill: rgb(0, 0, 0); text-shadow: rgb(255, 255, 255) -1px 1px 1px, rgb(255, 255, 255) 1px 1px 1px, rgb(255, 255, 255) 1px -1px 1px, rgb(255, 255, 255) -1px -1px 1px; font-family: 'Open Sans', verdana, arial, sans-serif; font-size: 14px; fill-opacity: 1;"><textPath class="node-label-text-path" alignment-baseline="middle" xlink:href="#fa7327_0_node_20" startOffset="100%" text-anchor="end" style="fill: rgb(0, 0, 0);">Reasoning</textPath></text></g></g></g></g><defs id="topdefs-e62ade"><g class="clips"/></defs><g class="layer-above"><g class="imagelayer"/><g class="shapelayer"/></g><g class="infolayer"><g class="g-gtitle"><text class="gtitle" x="35" y="50" text-anchor="start" dy="0em" style="font-family: 'Open Sans', verdana, arial, sans-serif; font-size: 20px; fill: rgb(0, 0, 0); opacity: 1; font-weight: normal; white-space: pre;">NeSy promises</text></g><g class="first-render"/></g></svg>