<?xml version="1.0" encoding="utf-8"?>
<!-- Generator: Adobe Illustrator 26.0.2, SVG Export Plug-In . SVG Version: 6.00 Build 0)  -->
<svg version="1.1" id="Layer_1" xmlns="http://www.w3.org/2000/svg" xmlns:xlink="http://www.w3.org/1999/xlink" x="0px" y="0px"
	 viewBox="0 0 675.6 377" style="enable-background:new 0 0 675.6 377;" xml:space="preserve">
<style type="text/css">
	.st0{fill:#89B79F;}
	.st1{fill:#57BCD6;}
	.st2{fill:#2070B4;}
	.st3{fill:#450256;}
	.st4{fill:#A687A9;}
	.st5{fill:#D8CED4;}
	.st6{fill:#333333;stroke:#444444;stroke-width:0.5;}
	.st7{fill:#333333;}
	.st8{font-family:'ArialMT';}
	.st9{font-size:14px;}
</style>
<path class="st0" d="M440,122.4c66.7,0,66.7-56,133.3-56v10.7c-66.7,0-66.7,56-133.3,56V122.4z"/>
<path class="st0" d="M440,133.1c66.7,0,66.7-38.3,133.3-38.3v10.7c-66.7,0-66.7,38.3-133.3,38.3V133.1z"/>
<path class="st1" d="M440,172.8c66.7,0,66.7-33.9,133.3-33.9v10.7c-66.7,0-66.7,33.9-133.3,33.9V172.8z"/>
<path class="st1" d="M440,183.4c66.7,0,66.7-10.2,133.3-10.2v10.7c-66.7,0-66.7,10.2-133.3,10.2V183.4z"/>
<path class="st2" d="M440,227.3c66.7,0,66.7,12.9,133.3,12.9v10.7c-66.7,0-66.7-12.9-133.3-12.9V227.3z"/>
<path class="st2" d="M440,238c66.7,0,66.7,36.7,133.3,36.7v10.7c-66.7,0-66.7-36.7-133.3-36.7V238z"/>
<path class="st3" d="M440,287.1c66.7,0,66.7,31.9,133.3,31.9v10.7c-66.7,0-66.7-31.9-133.3-31.9V287.1z"/>
<path class="st3" d="M440,297.8c66.7,0,66.7,55.6,133.3,55.6V364c-66.7,0-66.7-55.6-133.3-55.6V297.8z"/>
<path class="st4" d="M253.4,147.3c66.7,0,109.9-24.8,176.6-24.8v10.7c-66.7,0-109.9,24.8-176.6,24.8V147.3z"/>
<path class="st4" d="M253.4,157.9c66.7,0,109.9,14.7,176.6,14.7v10.7c-66.7,0-109.9-14.7-176.6-14.7V157.9z"/>
<path class="st4" d="M253.4,168.6c66.7,0,109.9,58.7,176.6,58.7V238c-66.7,0-109.9-58.7-176.6-58.7V168.6z"/>
<path class="st4" d="M253.4,179.3c66.7,0,109.9,107.9,176.6,107.9v10.7c-66.7,0-109.9-107.9-176.6-107.9V179.3z"/>
<path class="st5" d="M150.1,126c210,0,213.3-115.1,423.3-115.1v10.7c-210,0-213.3,115.1-423.3,115.1L150.1,126L150.1,126z"/>
<path class="st5" d="M150.3,136.8c210,0,213.3-106.7,423.3-106.7v10.7c-210,0-213.3,106.7-423.3,106.7L150.3,136.8L150.3,136.8z"/>
<path class="st5" d="M150.1,147.3c66.7,0,26.7-0.1,93.3-0.1v10.7c-66.7,0-26.7,0.1-93.3,0.1V147.3z"/>
<rect x="573.3" y="10.9" class="st6" width="10" height="10.7"/>
<rect x="573.3" y="66.4" class="st6" width="10" height="10.7"/>
<rect x="573.3" y="94.8" class="st6" width="10" height="10.7"/>
<rect x="573.3" y="138.9" class="st6" width="10" height="10.7"/>
<rect x="573.3" y="173.2" class="st6" width="10" height="10.7"/>
<rect x="573.3" y="240.3" class="st6" width="10" height="10.7"/>
<rect x="573.3" y="274.6" class="st6" width="10" height="10.7"/>
<rect x="573.3" y="319" class="st6" width="10" height="10.7"/>
<rect x="573.3" y="353.4" class="st6" width="10" height="10.7"/>
<rect x="430.2" y="122.4" class="st6" width="10" height="21.3"/>
<rect x="430" y="172.8" class="st6" width="10" height="21.3"/>
<rect x="430" y="227.3" class="st6" width="10" height="21.3"/>
<rect x="430" y="287.1" class="st6" width="10" height="21.3"/>
<rect x="243.4" y="147.3" class="st6" width="10" height="42.7"/>
<rect x="573.6" y="30.1" class="st6" width="10" height="10.7"/>
<rect x="140.1" y="126" class="st6" width="10" height="32"/>
<text transform="matrix(1 0 0 1 18.68 147.0286)" class="st7 st8 st9">Machine Learning</text>
<text transform="matrix(1 0 0 1 143.9643 180.9752)" class="st7 st8 st9">Deep Learning</text>
<text transform="matrix(1 0 0 1 375.6733 98.2)" class="st7 st8 st9">Stacked </text>
<text transform="matrix(1 0 0 1 375.6733 115)" class="st7 st8 st9">Hidden Layers</text>
<text transform="matrix(1 0 0 1 375.6738 165.0057)" class="st7 st8 st9">Euclidean Space</text>
<text transform="matrix(1 0 0 1 408.6774 218.2373)" class="st7 st8 st9">Sequence-to-Sequence</text>
<text transform="matrix(1 0 0 1 408.678 278.8075)" class="st7 st8 st9">Neuro-Symbolic</text>
<text transform="matrix(1 0 0 1 592.06 76.7857)" class="st7 st8 st9">MLP</text>
<text transform="matrix(1 0 0 1 592.06 21.2803)" class="st7 st8 st9">SVM</text>
<text transform="matrix(1 0 0 1 592.06 40.4437)" class="st7 st8 st9">RL</text>
<text transform="matrix(1 0 0 1 592.06 105.1201)" class="st7 st8 st9">DBN</text>
<text transform="matrix(1 0 0 1 592.0604 183.1045)" class="st7 st8 st9">GNN</text>
<text transform="matrix(1 0 0 1 592.0604 251.5072)" class="st7 st8 st9">RNN</text>
<text transform="matrix(1 0 0 1 592.0604 283.4462)" class="st7 st8 st9">Transformer</text>
<text transform="matrix(1 0 0 1 592.0604 329.3775)" class="st7 st8 st9">LTN</text>
<text transform="matrix(1 0 0 1 592.0604 363.7119)" class="st7 st8 st9">RKNN</text>
<text transform="matrix(1 0 0 1 592.0604 149.5685)" class="st7 st8 st9">CNN</text>
</svg>
