<svg class="main-svg" xmlns="http://www.w3.org/2000/svg" xmlns:xlink="http://www.w3.org/1999/xlink" width="500" height="500" style="" viewBox="0 0 500 500"><rect x="0" y="0" width="500" height="500" style="fill: rgb(255, 255, 255); fill-opacity: 1;"/><defs id="defs-579dbe"><g class="clips"/><g class="gradients"/></defs><g class="bglayer"/><g class="layer-below"><g class="imagelayer"/><g class="shapelayer"/></g><g class="cartesianlayer"/><g class="polarlayer"/><g class="ternarylayer"/><g class="geolayer"/><g class="funnelarealayer"/><g class="pielayer"/><g class="treemaplayer"/><g class="sunburstlayer"/><g class="glimages"/><g class="sankey" transform="translate(80,100)matrix(1 0 0 1 0 0)" style="box-sizing: content-box; position: absolute; left: 0px; shape-rendering: geometricprecision; pointer-events: auto;"><g class="sankey-links" style="fill: none;"><path class="sankey-link" d="M10,110.92242114237035C170,110.92242114237035 170,120.11594202898604 330,120.11594202898604L330,122.4347826086962C170,122.4347826086962 170,113.24126172208051 10,113.24126172208051Z" style="stroke: rgb(68, 68, 68); stroke-opacity: 1; fill: rgb(87, 188, 214); fill-opacity: 1; stroke-width: 0; opacity: 1;"/><path class="sankey-link" d="M10,246.80647911338508C170,246.80647911338508 170,150.260869565218 330,150.260869565218L330,152.57971014492813C170,152.57971014492813 170,249.1253196930952 10,249.1253196930952Z" style="stroke: rgb(68, 68, 68); stroke-opacity: 1; fill: rgb(69, 2, 86); fill-opacity: 1; stroke-width: 0; opacity: 1;"/><path class="sankey-link" d="M10,160.08184143222562C170,160.08184143222562 170,131.71014492753676 330,131.71014492753676L330,134.0289855072469C170,134.0289855072469 170,162.40068201193574 10,162.40068201193574Z" style="stroke: rgb(68, 68, 68); stroke-opacity: 1; fill: rgb(32, 112, 180); fill-opacity: 1; stroke-width: 0; opacity: 1;"/><path class="sankey-link" d="M10,258.4006820119358C170,258.4006820119358 170,317.6811594202899 330,317.6811594202899L330,320C170,320 170,260.71952259164595 10,260.71952259164595Z" style="stroke: rgb(68, 68, 68); stroke-opacity: 1; fill: rgb(69, 2, 86); fill-opacity: 1; stroke-width: 0; opacity: 1;"/><path class="sankey-link" d="M10,204.60358056266043C170,204.60358056266043 170,140.98550724637738 330,140.98550724637738L330,143.3043478260875C170,143.3043478260875 170,206.92242114237055 10,206.92242114237055Z" style="stroke: rgb(68, 68, 68); stroke-opacity: 1; fill: rgb(137, 183, 159); fill-opacity: 1; stroke-width: 0; opacity: 1;"/><path class="sankey-link" d="M10,256.0818414322257C170,256.0818414322257 170,294.0289855072464 330,294.0289855072464L330,296.3478260869565C170,296.3478260869565 170,258.4006820119358 10,258.4006820119358Z" style="stroke: rgb(68, 68, 68); stroke-opacity: 1; fill: rgb(69, 2, 86); fill-opacity: 1; stroke-width: 0; opacity: 1;"/><path class="sankey-link" d="M10,244.48763853367493C170,244.48763853367493 170,96.4637681159425 330,96.4637681159425L330,98.78260869565266C170,98.78260869565266 170,246.80647911338505 10,246.80647911338505Z" style="stroke: rgb(68, 68, 68); stroke-opacity: 1; fill: rgb(69, 2, 86); fill-opacity: 1; stroke-width: 0; opacity: 1;"/><path class="sankey-link" d="M10,94.69053708439937C170,94.69053708439937 170,25.971014492754094 330,25.971014492754094L330,28.289855072464242C170,28.289855072464242 170,97.00937766410952 10,97.00937766410952Z" style="stroke: rgb(68, 68, 68); stroke-opacity: 1; fill: rgb(87, 188, 214); fill-opacity: 1; stroke-width: 0; opacity: 1;"/><path class="sankey-link" d="M10,213.87894288150105C170,213.87894288150105 170,183.188405797102 330,183.188405797102L330,185.50724637681213C170,185.50724637681213 170,216.19778346121117 10,216.19778346121117Z" style="stroke: rgb(68, 68, 68); stroke-opacity: 1; fill: rgb(137, 183, 159); fill-opacity: 1; stroke-width: 0; opacity: 1;"/><path class="sankey-link" d="M10,162.40068201193577C170,162.40068201193577 170,134.02898550724692 330,134.02898550724692L330,136.34782608695704C170,136.34782608695704 170,164.7195225916459 10,164.7195225916459Z" style="stroke: rgb(68, 68, 68); stroke-opacity: 1; fill: rgb(32, 112, 180); fill-opacity: 1; stroke-width: 0; opacity: 1;"/><path class="sankey-link" d="M10,150.806479113385C170,150.806479113385 170,32.92753623188453 330,32.92753623188453L330,35.24637681159467C170,35.24637681159467 170,153.12531969309512 10,153.12531969309512Z" style="stroke: rgb(68, 68, 68); stroke-opacity: 1; fill: rgb(32, 112, 180); fill-opacity: 1; stroke-width: 0; opacity: 1;"/><path class="sankey-link" d="M10,173.99488491048655C170,173.99488491048655 170,230.49275362318906 330,230.49275362318906L330,232.8115942028992C170,232.8115942028992 170,176.31372549019667 10,176.31372549019667Z" style="stroke: rgb(68, 68, 68); stroke-opacity: 1; fill: rgb(32, 112, 180); fill-opacity: 1; stroke-width: 0; opacity: 1;"/><path class="sankey-link" d="M10,97.00937766410951C170,97.00937766410951 170,28.28985507246424 330,28.28985507246424L330,30.608695652174386C170,30.608695652174386 170,99.32821824381966 10,99.32821824381966Z" style="stroke: rgb(68, 68, 68); stroke-opacity: 1; fill: rgb(87, 188, 214); fill-opacity: 1; stroke-width: 0; opacity: 1;"/><path class="sankey-link" d="M10,202.28473998295027C170,202.28473998295027 170,35.24637681159468 330,35.24637681159468L330,37.56521739130482C170,37.56521739130482 170,204.6035805626604 10,204.6035805626604Z" style="stroke: rgb(68, 68, 68); stroke-opacity: 1; fill: rgb(137, 183, 159); fill-opacity: 1; stroke-width: 0; opacity: 1;"/><path class="sankey-link" d="M10,206.92242114237058C170,206.92242114237058 170,143.30434782608754 330,143.30434782608754L330,145.62318840579766C170,145.62318840579766 170,209.2412617220807 10,209.2412617220807Z" style="stroke: rgb(68, 68, 68); stroke-opacity: 1; fill: rgb(137, 183, 159); fill-opacity: 1; stroke-width: 0; opacity: 1;"/><path class="sankey-link" d="M10,103.96589940323993C170,103.96589940323993 170,84.8695652173918 330,84.8695652173918L330,87.18840579710195C170,87.18840579710195 170,106.28473998295009 10,106.28473998295009Z" style="stroke: rgb(68, 68, 68); stroke-opacity: 1; fill: rgb(87, 188, 214); fill-opacity: 1; stroke-width: 0; opacity: 1;"/><path class="sankey-link" d="M10,90.05285592497908C170,90.05285592497908 170,4.547473508864641e-13 330,4.547473508864641e-13L330,2.3188405797106C170,2.3188405797106 170,92.37169650468924 10,92.37169650468924Z" style="stroke: rgb(68, 68, 68); stroke-opacity: 1; fill: rgb(87, 188, 214); fill-opacity: 1; stroke-width: 0; opacity: 1;"/><path class="sankey-link" d="M10,176.3137254901967C170,176.3137254901967 170,256.4637681159426 330,256.4637681159426L330,258.78260869565275C170,258.78260869565275 170,178.63256606990683 10,178.63256606990683Z" style="stroke: rgb(68, 68, 68); stroke-opacity: 1; fill: rgb(32, 112, 180); fill-opacity: 1; stroke-width: 0; opacity: 1;"/><path class="sankey-link" d="M10,155.4441602728053C170,155.4441602728053 170,91.82608695652222 330,91.82608695652222L330,94.14492753623237C170,94.14492753623237 170,157.76300085251543 10,157.76300085251543Z" style="stroke: rgb(68, 68, 68); stroke-opacity: 1; fill: rgb(32, 112, 180); fill-opacity: 1; stroke-width: 0; opacity: 1;"/><path class="sankey-link" d="M10,169.35720375106624C170,169.35720375106624 170,180.86956521739185 330,180.86956521739185L330,183.18840579710198C170,183.18840579710198 170,171.67604433077636 10,171.67604433077636Z" style="stroke: rgb(68, 68, 68); stroke-opacity: 1; fill: rgb(32, 112, 180); fill-opacity: 1; stroke-width: 0; opacity: 1;"/><path class="sankey-link" d="M10,216.1977834612112C170,216.1977834612112 170,261.1014492753629 330,261.1014492753629L330,263.420289855073C170,263.420289855073 170,218.51662404092133 10,218.51662404092133Z" style="stroke: rgb(68, 68, 68); stroke-opacity: 1; fill: rgb(137, 183, 159); fill-opacity: 1; stroke-width: 0; opacity: 1;"/><path class="sankey-link" d="M10,178.63256606990686C170,178.63256606990686 170,258.78260869565275 330,258.78260869565275L330,261.1014492753629C170,261.1014492753629 170,180.95140664961698 10,180.95140664961698Z" style="stroke: rgb(68, 68, 68); stroke-opacity: 1; fill: rgb(32, 112, 180); fill-opacity: 1; stroke-width: 0; opacity: 1;"/><path class="sankey-link" d="M10,113.2412617220805C170,113.2412617220805 170,122.43478260869618 330,122.43478260869618L330,124.75362318840634C170,124.75362318840634 170,115.56010230179065 10,115.56010230179065Z" style="stroke: rgb(68, 68, 68); stroke-opacity: 1; fill: rgb(87, 188, 214); fill-opacity: 1; stroke-width: 0; opacity: 1;"/><path class="sankey-link" d="M10,115.56010230179064C170,115.56010230179064 170,124.75362318840632 330,124.75362318840632L330,127.07246376811648C170,127.07246376811648 170,117.87894288150079 10,117.87894288150079Z" style="stroke: rgb(68, 68, 68); stroke-opacity: 1; fill: rgb(87, 188, 214); fill-opacity: 1; stroke-width: 0; opacity: 1;"/><path class="sankey-link" d="M10,124.8354646206312C170,124.8354646206312 170,254.1449275362325 330,254.1449275362325L330,256.4637681159426C170,256.4637681159426 170,127.15430520034135 10,127.15430520034135Z" style="stroke: rgb(68, 68, 68); stroke-opacity: 1; fill: rgb(87, 188, 214); fill-opacity: 1; stroke-width: 0; opacity: 1;"/><path class="sankey-link" d="M10,220.8354646206315C170,220.8354646206315 170,291.71014492753625 330,291.71014492753625L330,294.0289855072464C170,294.0289855072464 170,223.15430520034164 10,223.15430520034164Z" style="stroke: rgb(68, 68, 68); stroke-opacity: 1; fill: rgb(137, 183, 159); fill-opacity: 1; stroke-width: 0; opacity: 1;"/><path class="sankey-link" d="M10,209.24126172208074C170,209.24126172208074 170,145.6231884057977 330,145.6231884057977L330,147.94202898550782C170,147.94202898550782 170,211.56010230179086 10,211.56010230179086Z" style="stroke: rgb(68, 68, 68); stroke-opacity: 1; fill: rgb(137, 183, 159); fill-opacity: 1; stroke-width: 0; opacity: 1;"/><path class="sankey-link" d="M10,106.28473998295007C170,106.28473998295007 170,87.18840579710194 330,87.18840579710194L330,89.50724637681209C170,89.50724637681209 170,108.60358056266023 10,108.60358056266023Z" style="stroke: rgb(68, 68, 68); stroke-opacity: 1; fill: rgb(87, 188, 214); fill-opacity: 1; stroke-width: 0; opacity: 1;"/><path class="sankey-link" d="M10,164.71952259164593C170,164.71952259164593 170,136.34782608695707 330,136.34782608695707L330,138.6666666666672C170,138.6666666666672 170,167.03836317135605 10,167.03836317135605Z" style="stroke: rgb(68, 68, 68); stroke-opacity: 1; fill: rgb(32, 112, 180); fill-opacity: 1; stroke-width: 0; opacity: 1;"/><path class="sankey-link" d="M10,117.87894288150078C170,117.87894288150078 170,127.07246376811646 330,127.07246376811646L330,129.3913043478266C170,129.3913043478266 170,120.19778346121093 10,120.19778346121093Z" style="stroke: rgb(68, 68, 68); stroke-opacity: 1; fill: rgb(87, 188, 214); fill-opacity: 1; stroke-width: 0; opacity: 1;"/><path class="sankey-link" d="M10,99.32821824381965C170,99.32821824381965 170,30.608695652174383 330,30.608695652174383L330,32.92753623188453C170,32.92753623188453 170,101.6470588235298 10,101.6470588235298Z" style="stroke: rgb(68, 68, 68); stroke-opacity: 1; fill: rgb(87, 188, 214); fill-opacity: 1; stroke-width: 0; opacity: 1;"/><path class="sankey-link" d="M10,101.64705882352979C170,101.64705882352979 170,58.89855072463807 330,58.89855072463807L330,61.21739130434821C170,61.21739130434821 170,103.96589940323994 10,103.96589940323994Z" style="stroke: rgb(68, 68, 68); stroke-opacity: 1; fill: rgb(87, 188, 214); fill-opacity: 1; stroke-width: 0; opacity: 1;"/><path class="sankey-link" d="M10,249.12531969309524C170,249.12531969309524 170,152.57971014492816 330,152.57971014492816L330,154.89855072463828C170,154.89855072463828 170,251.44416027280536 10,251.44416027280536Z" style="stroke: rgb(68, 68, 68); stroke-opacity: 1; fill: rgb(69, 2, 86); fill-opacity: 1; stroke-width: 0; opacity: 1;"/><path class="sankey-link" d="M10,127.15430520034134C170,127.15430520034134 170,289.3913043478261 330,289.3913043478261L330,291.71014492753625C170,291.71014492753625 170,129.47314578005148 10,129.47314578005148Z" style="stroke: rgb(68, 68, 68); stroke-opacity: 1; fill: rgb(87, 188, 214); fill-opacity: 1; stroke-width: 0; opacity: 1;"/><path class="sankey-link" d="M10,251.4441602728054C170,251.4441602728054 170,154.8985507246383 330,154.8985507246383L330,157.21739130434844C170,157.21739130434844 170,253.76300085251552 10,253.76300085251552Z" style="stroke: rgb(68, 68, 68); stroke-opacity: 1; fill: rgb(69, 2, 86); fill-opacity: 1; stroke-width: 0; opacity: 1;"/><path class="sankey-link" d="M10,120.19778346121092C170,120.19778346121092 170,129.3913043478266 330,129.3913043478266L330,131.71014492753673C170,131.71014492753673 170,122.51662404092107 10,122.51662404092107Z" style="stroke: rgb(68, 68, 68); stroke-opacity: 1; fill: rgb(87, 188, 214); fill-opacity: 1; stroke-width: 0; opacity: 1;"/><path class="sankey-link" d="M10,218.51662404092136C170,218.51662404092136 170,263.420289855073 330,263.420289855073L330,265.73913043478314C170,265.73913043478314 170,220.83546462063148 10,220.83546462063148Z" style="stroke: rgb(68, 68, 68); stroke-opacity: 1; fill: rgb(137, 183, 159); fill-opacity: 1; stroke-width: 0; opacity: 1;"/><path class="sankey-link" d="M10,153.12531969309515C170,153.12531969309515 170,61.21739130434822 330,61.21739130434822L330,63.53623188405836C170,63.53623188405836 170,155.44416027280528 10,155.44416027280528Z" style="stroke: rgb(68, 68, 68); stroke-opacity: 1; fill: rgb(32, 112, 180); fill-opacity: 1; stroke-width: 0; opacity: 1;"/><path class="sankey-link" d="M10,122.51662404092106C170,122.51662404092106 170,178.5507246376817 330,178.5507246376817L330,180.86956521739182C170,180.86956521739182 170,124.83546462063121 10,124.83546462063121Z" style="stroke: rgb(68, 68, 68); stroke-opacity: 1; fill: rgb(87, 188, 214); fill-opacity: 1; stroke-width: 0; opacity: 1;"/><path class="sankey-link" d="M10,108.60358056266021C170,108.60358056266021 170,89.50724637681208 330,89.50724637681208L330,91.82608695652223C170,91.82608695652223 170,110.92242114237037 10,110.92242114237037Z" style="stroke: rgb(68, 68, 68); stroke-opacity: 1; fill: rgb(87, 188, 214); fill-opacity: 1; stroke-width: 0; opacity: 1;"/><path class="sankey-link" d="M10,167.03836317135608C170,167.03836317135608 170,138.66666666666723 330,138.66666666666723L330,140.98550724637735C170,140.98550724637735 170,169.3572037510662 10,169.3572037510662Z" style="stroke: rgb(68, 68, 68); stroke-opacity: 1; fill: rgb(32, 112, 180); fill-opacity: 1; stroke-width: 0; opacity: 1;"/><path class="sankey-link" d="M10,171.6760443307764C170,171.6760443307764 170,206.84057971014556 330,206.84057971014556L330,209.1594202898557C170,209.1594202898557 170,173.99488491048652 10,173.99488491048652Z" style="stroke: rgb(68, 68, 68); stroke-opacity: 1; fill: rgb(32, 112, 180); fill-opacity: 1; stroke-width: 0; opacity: 1;"/><path class="sankey-link" d="M10,211.5601023017909C170,211.5601023017909 170,147.94202898550785 330,147.94202898550785L330,150.26086956521797C170,150.26086956521797 170,213.87894288150102 10,213.87894288150102Z" style="stroke: rgb(68, 68, 68); stroke-opacity: 1; fill: rgb(137, 183, 159); fill-opacity: 1; stroke-width: 0; opacity: 1;"/><path class="sankey-link" d="M10,157.76300085251546C170,157.76300085251546 170,94.14492753623236 330,94.14492753623236L330,96.46376811594251C170,96.46376811594251 170,160.0818414322256 10,160.0818414322256Z" style="stroke: rgb(68, 68, 68); stroke-opacity: 1; fill: rgb(32, 112, 180); fill-opacity: 1; stroke-width: 0; opacity: 1;"/><path class="sankey-link" d="M10,92.37169650468923C170,92.37169650468923 170,2.3188405797106 330,2.3188405797106L330,4.637681159420746C170,4.637681159420746 170,94.69053708439938 10,94.69053708439938Z" style="stroke: rgb(68, 68, 68); stroke-opacity: 1; fill: rgb(87, 188, 214); fill-opacity: 1; stroke-width: 0; opacity: 1;"/><path class="sankey-link" d="M10,253.76300085251555C170,253.76300085251555 170,265.73913043478314 330,265.73913043478314L330,268.05797101449326C170,268.05797101449326 170,256.0818414322257 10,256.0818414322257Z" style="stroke: rgb(68, 68, 68); stroke-opacity: 1; fill: rgb(69, 2, 86); fill-opacity: 1; stroke-width: 0; opacity: 1;"/></g><g class="sankey-node-set" style="cursor: move;"><g class="sankey-node" transform="translate(0.000, 244.488)" style="opacity: 1;"><rect class="node-rect" width="10" height="16.231884057971143" style="stroke-width: 0.5; stroke: rgb(68, 68, 68); stroke-opacity: 1; fill: rgb(0, 0, 0); fill-opacity: 1;"/><rect class="node-capture" x="-10" y="-12.5" width="30" height="41.23188405797114" style="fill-opacity: 0;"/><g class="node-entered" transform="translate(0 9.115942028985572)"><path class="node-label-guide" id="9dba5c_0_node_36" d="M14,0L340,0" transform="matrix(1 0 0 1 0 0)"/><text class="node-label" transform="scale(1 1)" style="user-select: none; cursor: default; fill: rgb(0, 0, 0); text-shadow: rgb(255, 255, 255) -1px 1px 1px, rgb(255, 255, 255) 1px 1px 1px, rgb(255, 255, 255) 1px -1px 1px, rgb(255, 255, 255) -1px -1px 1px; font-family: Arial; font-size: 14px; fill-opacity: 1;"><textPath class="node-label-text-path" alignment-baseline="middle" xlink:href="#9dba5c_0_node_36" startOffset="0%" text-anchor="start" style="fill: rgb(0, 0, 0);">Frames</textPath></text></g></g><g class="sankey-node" transform="translate(0.000, 150.806)" style="opacity: 1;"><rect class="node-rect" width="10" height="30.144927536231933" style="stroke-width: 0.5; stroke: rgb(68, 68, 68); stroke-opacity: 1; fill: rgb(0, 0, 0); fill-opacity: 1;"/><rect class="node-capture" x="-10" y="-12.5" width="30" height="55.14492753623193" style="fill-opacity: 0;"/><g class="node-entered" transform="translate(0 16.072463768115966)"><path class="node-label-guide" id="9dba5c_0_node_37" d="M14,0L340,0" transform="matrix(1 0 0 1 0 0)"/><text class="node-label" transform="scale(1 1)" style="user-select: none; cursor: default; fill: rgb(0, 0, 0); text-shadow: rgb(255, 255, 255) -1px 1px 1px, rgb(255, 255, 255) 1px 1px 1px, rgb(255, 255, 255) 1px -1px 1px, rgb(255, 255, 255) -1px -1px 1px; font-family: Arial; font-size: 14px; fill-opacity: 1;"><textPath class="node-label-text-path" alignment-baseline="middle" xlink:href="#9dba5c_0_node_37" startOffset="0%" text-anchor="start" style="fill: rgb(0, 0, 0);">Logic</textPath></text></g></g><g class="sankey-node" transform="translate(0.000, 90.053)" style="opacity: 1;"><rect class="node-rect" width="10" height="39.42028985507257" style="stroke-width: 0.5; stroke: rgb(68, 68, 68); stroke-opacity: 1; fill: rgb(0, 0, 0); fill-opacity: 1;"/><rect class="node-capture" x="-10" y="-12.5" width="30" height="64.42028985507257" style="fill-opacity: 0;"/><g class="node-entered" transform="translate(0 20.710144927536284)"><path class="node-label-guide" id="9dba5c_0_node_38" d="M14,0L340,0" transform="matrix(1 0 0 1 0 0)"/><text class="node-label" transform="scale(1 1)" style="user-select: none; cursor: default; fill: rgb(0, 0, 0); text-shadow: rgb(255, 255, 255) -1px 1px 1px, rgb(255, 255, 255) 1px 1px 1px, rgb(255, 255, 255) 1px -1px 1px, rgb(255, 255, 255) -1px -1px 1px; font-family: Arial; font-size: 14px; fill-opacity: 1;"><textPath class="node-label-text-path" alignment-baseline="middle" xlink:href="#9dba5c_0_node_38" startOffset="0%" text-anchor="start" style="fill: rgb(0, 0, 0);">Rules</textPath></text></g></g><g class="sankey-node" transform="translate(0.000, 202.285)" style="opacity: 1;"><rect class="node-rect" width="10" height="20.86956521739131" style="stroke-width: 0.5; stroke: rgb(68, 68, 68); stroke-opacity: 1; fill: rgb(0, 0, 0); fill-opacity: 1;"/><rect class="node-capture" x="-10" y="-12.5" width="30" height="45.86956521739131" style="fill-opacity: 0;"/><g class="node-entered" transform="translate(0 11.434782608695656)"><path class="node-label-guide" id="9dba5c_0_node_39" d="M14,0L340,0" transform="matrix(1 0 0 1 0 0)"/><text class="node-label" transform="scale(1 1)" style="user-select: none; cursor: default; fill: rgb(0, 0, 0); text-shadow: rgb(255, 255, 255) -1px 1px 1px, rgb(255, 255, 255) 1px 1px 1px, rgb(255, 255, 255) 1px -1px 1px, rgb(255, 255, 255) -1px -1px 1px; font-family: Arial; font-size: 14px; fill-opacity: 1;"><textPath class="node-label-text-path" alignment-baseline="middle" xlink:href="#9dba5c_0_node_39" startOffset="0%" text-anchor="start" style="fill: rgb(0, 0, 0);">Semantic network</textPath></text></g></g><g class="sankey-node" transform="translate(330.000, 25.971)" style="opacity: 1;"><rect class="node-rect" width="10" height="11.594202898550648" style="stroke-width: 0.5; stroke: rgb(68, 68, 68); stroke-opacity: 1; fill: rgb(0, 0, 0); fill-opacity: 1;"/><rect class="node-capture" x="-10" y="-12.5" width="30" height="36.59420289855065" style="fill-opacity: 0;"/><g class="node-entered" transform="translate(0 6.797101449275324)"><path class="node-label-guide" id="9dba5c_0_node_40" d="M-340,0L-4,0" transform="matrix(1 0 0 1 0 0)"/><text class="node-label" transform="scale(1 1)" style="user-select: none; cursor: default; fill: rgb(0, 0, 0); text-shadow: rgb(255, 255, 255) -1px 1px 1px, rgb(255, 255, 255) 1px 1px 1px, rgb(255, 255, 255) 1px -1px 1px, rgb(255, 255, 255) -1px -1px 1px; font-family: Arial; font-size: 14px; fill-opacity: 1;"><textPath class="node-label-text-path" alignment-baseline="middle" xlink:href="#9dba5c_0_node_40" startOffset="100%" text-anchor="end" style="fill: rgb(0, 0, 0);">SVM</textPath></text></g></g><g class="sankey-node" transform="translate(330.000, 84.870)" style="opacity: 1;"><rect class="node-rect" width="10" height="13.913043478260903" style="stroke-width: 0.5; stroke: rgb(68, 68, 68); stroke-opacity: 1; fill: rgb(0, 0, 0); fill-opacity: 1;"/><rect class="node-capture" x="-10" y="-12.5" width="30" height="38.9130434782609" style="fill-opacity: 0;"/><g class="node-entered" transform="translate(0 7.9565217391304515)"><path class="node-label-guide" id="9dba5c_0_node_41" d="M-340,0L-4,0" transform="matrix(1 0 0 1 0 0)"/><text class="node-label" transform="scale(1 1)" style="user-select: none; cursor: default; fill: rgb(0, 0, 0); text-shadow: rgb(255, 255, 255) -1px 1px 1px, rgb(255, 255, 255) 1px 1px 1px, rgb(255, 255, 255) 1px -1px 1px, rgb(255, 255, 255) -1px -1px 1px; font-family: Arial; font-size: 14px; fill-opacity: 1;"><textPath class="node-label-text-path" alignment-baseline="middle" xlink:href="#9dba5c_0_node_41" startOffset="100%" text-anchor="end" style="fill: rgb(0, 0, 0);">MLP</textPath></text></g></g><g class="sankey-node" transform="translate(330.000, 206.841)" style="opacity: 1;"><rect class="node-rect" width="10" height="2.3188405797101836" style="stroke-width: 0.5; stroke: rgb(68, 68, 68); stroke-opacity: 1; fill: rgb(0, 0, 0); fill-opacity: 1;"/><rect class="node-capture" x="-10" y="-12.5" width="30" height="27.318840579710184" style="fill-opacity: 0;"/><g class="node-entered" transform="translate(0 2.159420289855092)"><path class="node-label-guide" id="9dba5c_0_node_42" d="M-340,0L-4,0" transform="matrix(1 0 0 1 0 0)"/><text class="node-label" transform="scale(1 1)" style="user-select: none; cursor: default; fill: rgb(0, 0, 0); text-shadow: rgb(255, 255, 255) -1px 1px 1px, rgb(255, 255, 255) 1px 1px 1px, rgb(255, 255, 255) 1px -1px 1px, rgb(255, 255, 255) -1px -1px 1px; font-family: Arial; font-size: 14px; fill-opacity: 1;"><textPath class="node-label-text-path" alignment-baseline="middle" xlink:href="#9dba5c_0_node_42" startOffset="100%" text-anchor="end" style="fill: rgb(0, 0, 0);">DBN</textPath></text></g></g><g class="sankey-node" transform="translate(330.000, 254.145)" style="opacity: 1;"><rect class="node-rect" width="10" height="13.913043478260306" style="stroke-width: 0.5; stroke: rgb(68, 68, 68); stroke-opacity: 1; fill: rgb(0, 0, 0); fill-opacity: 1;"/><rect class="node-capture" x="-10" y="-12.5" width="30" height="38.913043478260306" style="fill-opacity: 0;"/><g class="node-entered" transform="translate(0 7.956521739130153)"><path class="node-label-guide" id="9dba5c_0_node_43" d="M-340,0L-4,0" transform="matrix(1 0 0 1 0 0)"/><text class="node-label" transform="scale(1 1)" style="user-select: none; cursor: default; fill: rgb(0, 0, 0); text-shadow: rgb(255, 255, 255) -1px 1px 1px, rgb(255, 255, 255) 1px 1px 1px, rgb(255, 255, 255) 1px -1px 1px, rgb(255, 255, 255) -1px -1px 1px; font-family: Arial; font-size: 14px; fill-opacity: 1;"><textPath class="node-label-text-path" alignment-baseline="middle" xlink:href="#9dba5c_0_node_43" startOffset="100%" text-anchor="end" style="fill: rgb(0, 0, 0);">CNN</textPath></text></g></g><g class="sankey-node" transform="translate(330.000, 289.391)" style="opacity: 1;"><rect class="node-rect" width="10" height="6.956521739130437" style="stroke-width: 0.5; stroke: rgb(68, 68, 68); stroke-opacity: 1; fill: rgb(0, 0, 0); fill-opacity: 1;"/><rect class="node-capture" x="-10" y="-12.5" width="30" height="31.956521739130437" style="fill-opacity: 0;"/><g class="node-entered" transform="translate(0 4.478260869565219)"><path class="node-label-guide" id="9dba5c_0_node_44" d="M-340,0L-4,0" transform="matrix(1 0 0 1 0 0)"/><text class="node-label" transform="scale(1 1)" style="user-select: none; cursor: default; fill: rgb(0, 0, 0); text-shadow: rgb(255, 255, 255) -1px 1px 1px, rgb(255, 255, 255) 1px 1px 1px, rgb(255, 255, 255) 1px -1px 1px, rgb(255, 255, 255) -1px -1px 1px; font-family: Arial; font-size: 14px; fill-opacity: 1;"><textPath class="node-label-text-path" alignment-baseline="middle" xlink:href="#9dba5c_0_node_44" startOffset="100%" text-anchor="end" style="fill: rgb(0, 0, 0);">GNN</textPath></text></g></g><g class="sankey-node" transform="translate(330.000, 120.116)" style="opacity: 1;"><rect class="node-rect" width="10" height="37.10144927536231" style="stroke-width: 0.5; stroke: rgb(68, 68, 68); stroke-opacity: 1; fill: rgb(0, 0, 0); fill-opacity: 1;"/><rect class="node-capture" x="-10" y="-12.5" width="30" height="62.10144927536231" style="fill-opacity: 0;"/><g class="node-entered" transform="translate(0 19.550724637681157)"><path class="node-label-guide" id="9dba5c_0_node_45" d="M-340,0L-4,0" transform="matrix(1 0 0 1 0 0)"/><text class="node-label" transform="scale(1 1)" style="user-select: none; cursor: default; fill: rgb(0, 0, 0); text-shadow: rgb(255, 255, 255) -1px 1px 1px, rgb(255, 255, 255) 1px 1px 1px, rgb(255, 255, 255) 1px -1px 1px, rgb(255, 255, 255) -1px -1px 1px; font-family: Arial; font-size: 14px; fill-opacity: 1;"><textPath class="node-label-text-path" alignment-baseline="middle" xlink:href="#9dba5c_0_node_45" startOffset="100%" text-anchor="end" style="fill: rgb(0, 0, 0);">RNN</textPath></text></g></g><g class="sankey-node" transform="translate(330.000, 58.899)" style="opacity: 1;"><rect class="node-rect" width="10" height="4.6376811594203815" style="stroke-width: 0.5; stroke: rgb(68, 68, 68); stroke-opacity: 1; fill: rgb(0, 0, 0); fill-opacity: 1;"/><rect class="node-capture" x="-10" y="-12.5" width="30" height="29.63768115942038" style="fill-opacity: 0;"/><g class="node-entered" transform="translate(0 3.3188405797101908)"><path class="node-label-guide" id="9dba5c_0_node_46" d="M-340,0L-4,0" transform="matrix(1 0 0 1 0 0)"/><text class="node-label" transform="scale(1 1)" style="user-select: none; cursor: default; fill: rgb(0, 0, 0); text-shadow: rgb(255, 255, 255) -1px 1px 1px, rgb(255, 255, 255) 1px 1px 1px, rgb(255, 255, 255) 1px -1px 1px, rgb(255, 255, 255) -1px -1px 1px; font-family: Arial; font-size: 14px; fill-opacity: 1;"><textPath class="node-label-text-path" alignment-baseline="middle" xlink:href="#9dba5c_0_node_46" startOffset="100%" text-anchor="end" style="fill: rgb(0, 0, 0);">RcNN</textPath></text></g></g><g class="sankey-node" transform="translate(330.000, 178.551)" style="opacity: 1;"><rect class="node-rect" width="10" height="6.956521739130551" style="stroke-width: 0.5; stroke: rgb(68, 68, 68); stroke-opacity: 1; fill: rgb(0, 0, 0); fill-opacity: 1;"/><rect class="node-capture" x="-10" y="-12.5" width="30" height="31.95652173913055" style="fill-opacity: 0;"/><g class="node-entered" transform="translate(0 4.4782608695652755)"><path class="node-label-guide" id="9dba5c_0_node_47" d="M-340,0L-4,0" transform="matrix(1 0 0 1 0 0)"/><text class="node-label" transform="scale(1 1)" style="user-select: none; cursor: default; fill: rgb(0, 0, 0); text-shadow: rgb(255, 255, 255) -1px 1px 1px, rgb(255, 255, 255) 1px 1px 1px, rgb(255, 255, 255) 1px -1px 1px, rgb(255, 255, 255) -1px -1px 1px; font-family: Arial; font-size: 14px; fill-opacity: 1;"><textPath class="node-label-text-path" alignment-baseline="middle" xlink:href="#9dba5c_0_node_47" startOffset="100%" text-anchor="end" style="fill: rgb(0, 0, 0);">Transformer</textPath></text></g></g><g class="sankey-node" transform="translate(330.000, 317.681)" style="opacity: 1;"><rect class="node-rect" width="10" height="2.318840579710127" style="stroke-width: 0.5; stroke: rgb(68, 68, 68); stroke-opacity: 1; fill: rgb(0, 0, 0); fill-opacity: 1;"/><rect class="node-capture" x="-10" y="-12.5" width="30" height="27.318840579710127" style="fill-opacity: 0;"/><g class="node-entered" transform="translate(0 2.1594202898550634)"><path class="node-label-guide" id="9dba5c_0_node_48" d="M-340,0L-4,0" transform="matrix(1 0 0 1 0 0)"/><text class="node-label" transform="scale(1 1)" style="user-select: none; cursor: default; fill: rgb(0, 0, 0); text-shadow: rgb(255, 255, 255) -1px 1px 1px, rgb(255, 255, 255) 1px 1px 1px, rgb(255, 255, 255) 1px -1px 1px, rgb(255, 255, 255) -1px -1px 1px; font-family: Arial; font-size: 14px; fill-opacity: 1;"><textPath class="node-label-text-path" alignment-baseline="middle" xlink:href="#9dba5c_0_node_48" startOffset="100%" text-anchor="end" style="fill: rgb(0, 0, 0);">LTN</textPath></text></g></g><g class="sankey-node" transform="translate(330.000, 230.493)" style="opacity: 1;"><rect class="node-rect" width="10" height="2.318840579710127" style="stroke-width: 0.5; stroke: rgb(68, 68, 68); stroke-opacity: 1; fill: rgb(0, 0, 0); fill-opacity: 1;"/><rect class="node-capture" x="-10" y="-12.5" width="30" height="27.318840579710127" style="fill-opacity: 0;"/><g class="node-entered" transform="translate(0 2.1594202898550634)"><path class="node-label-guide" id="9dba5c_0_node_49" d="M-340,0L-4,0" transform="matrix(1 0 0 1 0 0)"/><text class="node-label" transform="scale(1 1)" style="user-select: none; cursor: default; fill: rgb(0, 0, 0); text-shadow: rgb(255, 255, 255) -1px 1px 1px, rgb(255, 255, 255) 1px 1px 1px, rgb(255, 255, 255) 1px -1px 1px, rgb(255, 255, 255) -1px -1px 1px; font-family: Arial; font-size: 14px; fill-opacity: 1;"><textPath class="node-label-text-path" alignment-baseline="middle" xlink:href="#9dba5c_0_node_49" startOffset="100%" text-anchor="end" style="fill: rgb(0, 0, 0);">RKNN</textPath></text></g></g><g class="sankey-node" transform="translate(330.000, 0.000)" style="opacity: 1;"><rect class="node-rect" width="10" height="4.6376811594203105" style="stroke-width: 0.5; stroke: rgb(68, 68, 68); stroke-opacity: 1; fill: rgb(0, 0, 0); fill-opacity: 1;"/><rect class="node-capture" x="-10" y="-12.5" width="30" height="29.63768115942031" style="fill-opacity: 0;"/><g class="node-entered" transform="translate(0 3.3188405797101552)"><path class="node-label-guide" id="9dba5c_0_node_50" d="M-340,0L-4,0" transform="matrix(1 0 0 1 0 0)"/><text class="node-label" transform="scale(1 1)" style="user-select: none; cursor: default; fill: rgb(0, 0, 0); text-shadow: rgb(255, 255, 255) -1px 1px 1px, rgb(255, 255, 255) 1px 1px 1px, rgb(255, 255, 255) 1px -1px 1px, rgb(255, 255, 255) -1px -1px 1px; font-family: Arial; font-size: 14px; fill-opacity: 1;"><textPath class="node-label-text-path" alignment-baseline="middle" xlink:href="#9dba5c_0_node_50" startOffset="100%" text-anchor="end" style="fill: rgb(0, 0, 0);">RL</textPath></text></g></g></g></g><defs id="topdefs-579dbe"><g class="clips"/></defs><g class="layer-above"><g class="imagelayer"/><g class="shapelayer"/></g><g class="infolayer"><g class="g-gtitle"><text class="gtitle" x="25" y="50" text-anchor="start" dy="0em" style="font-family: Arial; font-size: 20px; fill: rgb(0, 0, 0); opacity: 1; font-weight: normal; white-space: pre;">Neural terms taxonomy</text></g><g class="first-render"/></g></svg>