<svg class="main-svg" xmlns="http://www.w3.org/2000/svg" xmlns:xlink="http://www.w3.org/1999/xlink" width="800" height="600" style="" viewBox="0 0 800 600"><rect x="0" y="0" width="800" height="600" style="fill: rgb(255, 255, 255); fill-opacity: 1;"/><defs id="defs-8faad0"><g class="clips"/><g class="gradients"/></defs><g class="bglayer"/><g class="layer-below"><g class="imagelayer"/><g class="shapelayer"/></g><g class="cartesianlayer"/><g class="polarlayer"/><g class="ternarylayer"/><g class="geolayer"/><g class="funnelarealayer"/><g class="pielayer"/><g class="treemaplayer"/><g class="sunburstlayer"/><g class="glimages"/><g class="sankey" transform="translate(80,100)matrix(1 0 0 1 0 0)" style="box-sizing: content-box; position: absolute; left: 0px; shape-rendering: geometricprecision; pointer-events: auto;"><g class="sankey-links" style="fill: none;"><path class="sankey-link" d="M5,152.30179028133017C320,152.30179028133017 320,148.04347826086976 635,148.04347826086976L635,153.91304347826107C320,153.91304347826107 320,158.17135549872148 5,158.17135549872148Z" style="stroke: rgb(68, 68, 68); stroke-opacity: 1; fill: rgb(0, 0, 0); fill-opacity: 0.2; stroke-width: 0; opacity: 1;"/><path class="sankey-link" d="M5,379.25831202046066C320,379.25831202046066 320,224.34782608695681 635,224.34782608695681L635,230.21739130434813C320,230.21739130434813 320,385.1278772378519 5,385.1278772378519Z" style="stroke: rgb(68, 68, 68); stroke-opacity: 1; fill: rgb(0, 0, 0); fill-opacity: 0.2; stroke-width: 0; opacity: 1;"/><path class="sankey-link" d="M5,237.73657289002588C320,237.73657289002588 320,177.39130434782632 635,177.39130434782632L635,183.26086956521763C320,183.26086956521763 320,243.6061381074172 5,243.6061381074172Z" style="stroke: rgb(68, 68, 68); stroke-opacity: 1; fill: rgb(0, 0, 0); fill-opacity: 0.2; stroke-width: 0; opacity: 1;"/><path class="sankey-link" d="M5,408.6061381074172C320,408.6061381074172 320,414.13043478260875 635,414.13043478260875L635,420C320,420 320,414.4757033248085 5,414.4757033248085Z" style="stroke: rgb(68, 68, 68); stroke-opacity: 1; fill: rgb(0, 0, 0); fill-opacity: 0.2; stroke-width: 0; opacity: 1;"/><path class="sankey-link" d="M5,311.4322250639388C320,311.4322250639388 320,200.86956521739157 635,200.86956521739157L635,206.73913043478288C320,206.73913043478288 320,317.30179028133006 5,317.30179028133006Z" style="stroke: rgb(68, 68, 68); stroke-opacity: 1; fill: rgb(0, 0, 0); fill-opacity: 0.2; stroke-width: 0; opacity: 1;"/><path class="sankey-link" d="M5,402.7365728900259C320,402.7365728900259 320,393.2608695652176 635,393.2608695652176L635,399.13043478260886C320,399.13043478260886 320,408.60613810741717 5,408.60613810741717Z" style="stroke: rgb(68, 68, 68); stroke-opacity: 1; fill: rgb(0, 0, 0); fill-opacity: 0.2; stroke-width: 0; opacity: 1;"/><path class="sankey-link" d="M5,373.38874680306935C320,373.38874680306935 320,127.17391304347856 635,127.17391304347856L635,133.04347826086988C320,133.04347826086988 320,379.2583120204606 5,379.2583120204606Z" style="stroke: rgb(68, 68, 68); stroke-opacity: 1; fill: rgb(0, 0, 0); fill-opacity: 0.2; stroke-width: 0; opacity: 1;"/><path class="sankey-link" d="M5,111.21483375959099C320,111.21483375959099 320,26.739130434782837 635,26.739130434782837L635,32.60869565217414C320,32.60869565217414 320,117.0843989769823 5,117.0843989769823Z" style="stroke: rgb(68, 68, 68); stroke-opacity: 1; fill: rgb(0, 0, 0); fill-opacity: 0.2; stroke-width: 0; opacity: 1;"/><path class="sankey-link" d="M5,334.91048593350405C320,334.91048593350405 320,268.69565217391346 635,268.69565217391346L635,274.5652173913047C320,274.5652173913047 320,340.7800511508953 5,340.7800511508953Z" style="stroke: rgb(68, 68, 68); stroke-opacity: 1; fill: rgb(0, 0, 0); fill-opacity: 0.2; stroke-width: 0; opacity: 1;"/><path class="sankey-link" d="M5,243.6061381074172C320,243.6061381074172 320,183.26086956521763 635,183.26086956521763L635,189.13043478260894C320,189.13043478260894 320,249.4757033248085 5,249.4757033248085Z" style="stroke: rgb(68, 68, 68); stroke-opacity: 1; fill: rgb(0, 0, 0); fill-opacity: 0.2; stroke-width: 0; opacity: 1;"/><path class="sankey-link" d="M5,214.25831202046064C320,214.25831202046064 320,44.34782608695674 635,44.34782608695674L635,50.217391304348055C320,50.217391304348055 320,220.12787723785195 5,220.12787723785195Z" style="stroke: rgb(68, 68, 68); stroke-opacity: 1; fill: rgb(0, 0, 0); fill-opacity: 0.2; stroke-width: 0; opacity: 1;"/><path class="sankey-link" d="M5,272.9539641943737C320,272.9539641943737 320,310.43478260869585 635,310.43478260869585L635,316.3043478260871C320,316.3043478260871 320,278.823529411765 5,278.823529411765Z" style="stroke: rgb(68, 68, 68); stroke-opacity: 1; fill: rgb(0, 0, 0); fill-opacity: 0.2; stroke-width: 0; opacity: 1;"/><path class="sankey-link" d="M5,117.0843989769823C320,117.0843989769823 320,32.608695652174134 635,32.608695652174134L635,38.478260869565446C320,38.478260869565446 320,122.95396419437361 5,122.95396419437361Z" style="stroke: rgb(68, 68, 68); stroke-opacity: 1; fill: rgb(0, 0, 0); fill-opacity: 0.2; stroke-width: 0; opacity: 1;"/><path class="sankey-link" d="M5,305.5626598465475C320,305.5626598465475 320,50.217391304348055 635,50.217391304348055L635,56.08695652173937C320,56.08695652173937 320,311.43222506393874 5,311.43222506393874Z" style="stroke: rgb(68, 68, 68); stroke-opacity: 1; fill: rgb(0, 0, 0); fill-opacity: 0.2; stroke-width: 0; opacity: 1;"/><path class="sankey-link" d="M5,317.3017902813301C320,317.3017902813301 320,206.73913043478288 635,206.73913043478288L635,212.6086956521742C320,212.6086956521742 320,323.17135549872137 5,323.17135549872137Z" style="stroke: rgb(68, 68, 68); stroke-opacity: 1; fill: rgb(0, 0, 0); fill-opacity: 0.2; stroke-width: 0; opacity: 1;"/><path class="sankey-link" d="M5,134.69309462915623C320,134.69309462915623 320,97.826086956522 635,97.826086956522L635,103.69565217391332C320,103.69565217391332 320,140.56265984654755 5,140.56265984654755Z" style="stroke: rgb(68, 68, 68); stroke-opacity: 1; fill: rgb(0, 0, 0); fill-opacity: 0.2; stroke-width: 0; opacity: 1;"/><path class="sankey-link" d="M5,99.47570332480836C320,99.47570332480836 320,2.2737367544323206e-13 635,2.2737367544323206e-13L635,5.869565217391532C320,5.869565217391532 320,105.34526854219968 5,105.34526854219968Z" style="stroke: rgb(68, 68, 68); stroke-opacity: 1; fill: rgb(0, 0, 0); fill-opacity: 0.2; stroke-width: 0; opacity: 1;"/><path class="sankey-link" d="M5,278.82352941176504C320,278.82352941176504 320,337.1739130434783 635,337.1739130434783L635,343.04347826086956C320,343.04347826086956 320,284.6930946291563 5,284.6930946291563Z" style="stroke: rgb(68, 68, 68); stroke-opacity: 1; fill: rgb(0, 0, 0); fill-opacity: 0.2; stroke-width: 0; opacity: 1;"/><path class="sankey-link" d="M5,225.99744245524326C320,225.99744245524326 320,115.43478260869594 635,115.43478260869594L635,121.30434782608725C320,121.30434782608725 320,231.86700767263457 5,231.86700767263457Z" style="stroke: rgb(68, 68, 68); stroke-opacity: 1; fill: rgb(0, 0, 0); fill-opacity: 0.2; stroke-width: 0; opacity: 1;"/><path class="sankey-link" d="M5,261.2148337595911C320,261.2148337595911 320,262.82608695652215 635,262.82608695652215L635,268.6956521739134C320,268.6956521739134 320,267.08439897698236 5,267.08439897698236Z" style="stroke: rgb(68, 68, 68); stroke-opacity: 1; fill: rgb(0, 0, 0); fill-opacity: 0.2; stroke-width: 0; opacity: 1;"/><path class="sankey-link" d="M5,340.78005115089536C320,340.78005115089536 320,348.91304347826093 635,348.91304347826093L635,354.7826086956522C320,354.7826086956522 320,346.6496163682866 5,346.6496163682866Z" style="stroke: rgb(68, 68, 68); stroke-opacity: 1; fill: rgb(0, 0, 0); fill-opacity: 0.2; stroke-width: 0; opacity: 1;"/><path class="sankey-link" d="M5,284.69309462915635C320,284.69309462915635 320,343.0434782608696 635,343.0434782608696L635,348.9130434782609C320,348.9130434782609 320,290.5626598465476 5,290.5626598465476Z" style="stroke: rgb(68, 68, 68); stroke-opacity: 1; fill: rgb(0, 0, 0); fill-opacity: 0.2; stroke-width: 0; opacity: 1;"/><path class="sankey-link" d="M5,158.17135549872148C320,158.17135549872148 320,153.91304347826107 635,153.91304347826107L635,159.78260869565239C320,159.78260869565239 320,164.0409207161128 5,164.0409207161128Z" style="stroke: rgb(68, 68, 68); stroke-opacity: 1; fill: rgb(0, 0, 0); fill-opacity: 0.2; stroke-width: 0; opacity: 1;"/><path class="sankey-link" d="M5,164.0409207161128C320,164.0409207161128 320,159.78260869565239 635,159.78260869565239L635,165.6521739130437C320,165.6521739130437 320,169.9104859335041 5,169.9104859335041Z" style="stroke: rgb(68, 68, 68); stroke-opacity: 1; fill: rgb(0, 0, 0); fill-opacity: 0.2; stroke-width: 0; opacity: 1;"/><path class="sankey-link" d="M5,187.51918158567804C320,187.51918158567804 320,331.304347826087 635,331.304347826087L635,337.17391304347825C320,337.17391304347825 320,193.38874680306935 5,193.38874680306935Z" style="stroke: rgb(68, 68, 68); stroke-opacity: 1; fill: rgb(0, 0, 0); fill-opacity: 0.2; stroke-width: 0; opacity: 1;"/><path class="sankey-link" d="M5,352.519181585678C320,352.519181585678 320,387.3913043478263 635,387.3913043478263L635,393.26086956521755C320,393.26086956521755 320,358.38874680306924 5,358.38874680306924Z" style="stroke: rgb(68, 68, 68); stroke-opacity: 1; fill: rgb(0, 0, 0); fill-opacity: 0.2; stroke-width: 0; opacity: 1;"/><path class="sankey-link" d="M5,323.1713554987214C320,323.1713554987214 320,212.6086956521742 635,212.6086956521742L635,218.4782608695655C320,218.4782608695655 320,329.0409207161127 5,329.0409207161127Z" style="stroke: rgb(68, 68, 68); stroke-opacity: 1; fill: rgb(0, 0, 0); fill-opacity: 0.2; stroke-width: 0; opacity: 1;"/><path class="sankey-link" d="M5,140.56265984654755C320,140.56265984654755 320,103.69565217391332 635,103.69565217391332L635,109.56521739130463C320,109.56521739130463 320,146.43222506393886 5,146.43222506393886Z" style="stroke: rgb(68, 68, 68); stroke-opacity: 1; fill: rgb(0, 0, 0); fill-opacity: 0.2; stroke-width: 0; opacity: 1;"/><path class="sankey-link" d="M5,249.4757033248085C320,249.4757033248085 320,189.13043478260894 635,189.13043478260894L635,195.00000000000026C320,195.00000000000026 320,255.34526854219982 5,255.34526854219982Z" style="stroke: rgb(68, 68, 68); stroke-opacity: 1; fill: rgb(0, 0, 0); fill-opacity: 0.2; stroke-width: 0; opacity: 1;"/><path class="sankey-link" d="M5,169.9104859335041C320,169.9104859335041 320,165.6521739130437 635,165.6521739130437L635,171.521739130435C320,171.521739130435 320,175.78005115089542 5,175.78005115089542Z" style="stroke: rgb(68, 68, 68); stroke-opacity: 1; fill: rgb(0, 0, 0); fill-opacity: 0.2; stroke-width: 0; opacity: 1;"/><path class="sankey-link" d="M5,122.95396419437361C320,122.95396419437361 320,38.478260869565446 635,38.478260869565446L635,44.34782608695676C320,44.34782608695676 320,128.82352941176492 5,128.82352941176492Z" style="stroke: rgb(68, 68, 68); stroke-opacity: 1; fill: rgb(0, 0, 0); fill-opacity: 0.2; stroke-width: 0; opacity: 1;"/><path class="sankey-link" d="M5,128.82352941176492C320,128.82352941176492 320,71.08695652173938 635,71.08695652173938L635,76.9565217391307C320,76.9565217391307 320,134.69309462915623 5,134.69309462915623Z" style="stroke: rgb(68, 68, 68); stroke-opacity: 1; fill: rgb(0, 0, 0); fill-opacity: 0.2; stroke-width: 0; opacity: 1;"/><path class="sankey-link" d="M5,385.127877237852C320,385.127877237852 320,230.21739130434813 635,230.21739130434813L635,236.08695652173944C320,236.08695652173944 320,390.99744245524323 5,390.99744245524323Z" style="stroke: rgb(68, 68, 68); stroke-opacity: 1; fill: rgb(0, 0, 0); fill-opacity: 0.2; stroke-width: 0; opacity: 1;"/><path class="sankey-link" d="M5,193.38874680306935C320,193.38874680306935 320,381.521739130435 635,381.521739130435L635,387.39130434782624C320,387.39130434782624 320,199.25831202046066 5,199.25831202046066Z" style="stroke: rgb(68, 68, 68); stroke-opacity: 1; fill: rgb(0, 0, 0); fill-opacity: 0.2; stroke-width: 0; opacity: 1;"/><path class="sankey-link" d="M5,390.9974424552433C320,390.9974424552433 320,236.08695652173944 635,236.08695652173944L635,241.95652173913075C320,241.95652173913075 320,396.86700767263454 5,396.86700767263454Z" style="stroke: rgb(68, 68, 68); stroke-opacity: 1; fill: rgb(0, 0, 0); fill-opacity: 0.2; stroke-width: 0; opacity: 1;"/><path class="sankey-link" d="M5,175.78005115089542C320,175.78005115089542 320,171.521739130435 635,171.521739130435L635,177.39130434782632C320,177.39130434782632 320,181.64961636828673 5,181.64961636828673Z" style="stroke: rgb(68, 68, 68); stroke-opacity: 1; fill: rgb(0, 0, 0); fill-opacity: 0.2; stroke-width: 0; opacity: 1;"/><path class="sankey-link" d="M5,346.6496163682867C320,346.6496163682867 320,354.78260869565224 635,354.78260869565224L635,360.6521739130435C320,360.6521739130435 320,352.5191815856779 5,352.5191815856779Z" style="stroke: rgb(68, 68, 68); stroke-opacity: 1; fill: rgb(0, 0, 0); fill-opacity: 0.2; stroke-width: 0; opacity: 1;"/><path class="sankey-link" d="M5,220.12787723785195C320,220.12787723785195 320,76.9565217391307 635,76.9565217391307L635,82.826086956522C320,82.826086956522 320,225.99744245524326 5,225.99744245524326Z" style="stroke: rgb(68, 68, 68); stroke-opacity: 1; fill: rgb(0, 0, 0); fill-opacity: 0.2; stroke-width: 0; opacity: 1;"/><path class="sankey-link" d="M5,181.64961636828673C320,181.64961636828673 320,256.95652173913084 635,256.95652173913084L635,262.8260869565221C320,262.8260869565221 320,187.51918158567804 5,187.51918158567804Z" style="stroke: rgb(68, 68, 68); stroke-opacity: 1; fill: rgb(0, 0, 0); fill-opacity: 0.2; stroke-width: 0; opacity: 1;"/><path class="sankey-link" d="M5,146.43222506393886C320,146.43222506393886 320,109.56521739130463 635,109.56521739130463L635,115.43478260869594C320,115.43478260869594 320,152.30179028133017 5,152.30179028133017Z" style="stroke: rgb(68, 68, 68); stroke-opacity: 1; fill: rgb(0, 0, 0); fill-opacity: 0.2; stroke-width: 0; opacity: 1;"/><path class="sankey-link" d="M5,255.34526854219982C320,255.34526854219982 320,195.00000000000026 635,195.00000000000026L635,200.86956521739157C320,200.86956521739157 320,261.2148337595911 5,261.2148337595911Z" style="stroke: rgb(68, 68, 68); stroke-opacity: 1; fill: rgb(0, 0, 0); fill-opacity: 0.2; stroke-width: 0; opacity: 1;"/><path class="sankey-link" d="M5,267.0843989769824C320,267.0843989769824 320,289.5652173913046 635,289.5652173913046L635,295.43478260869585C320,295.43478260869585 320,272.95396419437367 5,272.95396419437367Z" style="stroke: rgb(68, 68, 68); stroke-opacity: 1; fill: rgb(0, 0, 0); fill-opacity: 0.2; stroke-width: 0; opacity: 1;"/><path class="sankey-link" d="M5,329.04092071611274C320,329.04092071611274 320,218.4782608695655 635,218.4782608695655L635,224.34782608695681C320,224.34782608695681 320,334.910485933504 5,334.910485933504Z" style="stroke: rgb(68, 68, 68); stroke-opacity: 1; fill: rgb(0, 0, 0); fill-opacity: 0.2; stroke-width: 0; opacity: 1;"/><path class="sankey-link" d="M5,231.86700767263457C320,231.86700767263457 320,121.30434782608725 635,121.30434782608725L635,127.17391304347856C320,127.17391304347856 320,237.73657289002588 5,237.73657289002588Z" style="stroke: rgb(68, 68, 68); stroke-opacity: 1; fill: rgb(0, 0, 0); fill-opacity: 0.2; stroke-width: 0; opacity: 1;"/><path class="sankey-link" d="M5,105.34526854219968C320,105.34526854219968 320,5.869565217391532 635,5.869565217391532L635,11.739130434782837C320,11.739130434782837 320,111.21483375959099 5,111.21483375959099Z" style="stroke: rgb(68, 68, 68); stroke-opacity: 1; fill: rgb(0, 0, 0); fill-opacity: 0.2; stroke-width: 0; opacity: 1;"/><path class="sankey-link" d="M5,396.8670076726346C320,396.8670076726346 320,360.65217391304355 635,360.65217391304355L635,366.5217391304348C320,366.5217391304348 320,402.73657289002585 5,402.73657289002585Z" style="stroke: rgb(68, 68, 68); stroke-opacity: 1; fill: rgb(0, 0, 0); fill-opacity: 0.2; stroke-width: 0; opacity: 1;"/></g><g class="sankey-node-set" style="cursor: move;"><g class="sankey-node" transform="translate(0.000, 373.389)" style="opacity: 1;"><rect class="node-rect" width="5" height="41.08695652173935" style="stroke-width: 0.5; stroke: rgb(68, 68, 68); stroke-opacity: 1; fill: rgb(255, 102, 146); fill-opacity: 0.8;"/><rect class="node-capture" x="-10" y="-7.5" width="25" height="56.08695652173935" style="fill-opacity: 0;"/><g class="node-entered" transform="translate(0 21.543478260869676)"><path class="node-label-guide" id="b316d8_0_node_36" d="M9,0L640,0" transform="matrix(1 0 0 1 0 0)"/><text class="node-label" transform="scale(1 1)" style="user-select: none; cursor: default; fill: rgb(42, 63, 95); text-shadow: rgb(255, 255, 255) -1px 1px 1px, rgb(255, 255, 255) 1px 1px 1px, rgb(255, 255, 255) 1px -1px 1px, rgb(255, 255, 255) -1px -1px 1px; font-family: 'Open Sans', verdana, arial, sans-serif; font-size: 12px; fill-opacity: 1;"><textPath class="node-label-text-path" alignment-baseline="middle" xlink:href="#b316d8_0_node_36" startOffset="0%" text-anchor="start" style="fill: rgb(0, 0, 0);">Frames</textPath></text></g></g><g class="sankey-node" transform="translate(0.000, 214.258)" style="opacity: 1;"><rect class="node-rect" width="5" height="76.30434782608685" style="stroke-width: 0.5; stroke: rgb(68, 68, 68); stroke-opacity: 1; fill: rgb(182, 232, 128); fill-opacity: 0.8;"/><rect class="node-capture" x="-10" y="-7.5" width="25" height="91.30434782608685" style="fill-opacity: 0;"/><g class="node-entered" transform="translate(0 39.15217391304343)"><path class="node-label-guide" id="b316d8_0_node_37" d="M9,0L640,0" transform="matrix(1 0 0 1 0 0)"/><text class="node-label" transform="scale(1 1)" style="user-select: none; cursor: default; fill: rgb(42, 63, 95); text-shadow: rgb(255, 255, 255) -1px 1px 1px, rgb(255, 255, 255) 1px 1px 1px, rgb(255, 255, 255) 1px -1px 1px, rgb(255, 255, 255) -1px -1px 1px; font-family: 'Open Sans', verdana, arial, sans-serif; font-size: 12px; fill-opacity: 1;"><textPath class="node-label-text-path" alignment-baseline="middle" xlink:href="#b316d8_0_node_37" startOffset="0%" text-anchor="start" style="fill: rgb(0, 0, 0);">Logic</textPath></text></g></g><g class="sankey-node" transform="translate(0.000, 99.476)" style="opacity: 1;"><rect class="node-rect" width="5" height="99.78260869565227" style="stroke-width: 0.5; stroke: rgb(68, 68, 68); stroke-opacity: 1; fill: rgb(255, 151, 255); fill-opacity: 0.8;"/><rect class="node-capture" x="-10" y="-7.5" width="25" height="114.78260869565227" style="fill-opacity: 0;"/><g class="node-entered" transform="translate(0 50.891304347826136)"><path class="node-label-guide" id="b316d8_0_node_38" d="M9,0L640,0" transform="matrix(1 0 0 1 0 0)"/><text class="node-label" transform="scale(1 1)" style="user-select: none; cursor: default; fill: rgb(42, 63, 95); text-shadow: rgb(255, 255, 255) -1px 1px 1px, rgb(255, 255, 255) 1px 1px 1px, rgb(255, 255, 255) 1px -1px 1px, rgb(255, 255, 255) -1px -1px 1px; font-family: 'Open Sans', verdana, arial, sans-serif; font-size: 12px; fill-opacity: 1;"><textPath class="node-label-text-path" alignment-baseline="middle" xlink:href="#b316d8_0_node_38" startOffset="0%" text-anchor="start" style="fill: rgb(0, 0, 0);">Rules</textPath></text></g></g><g class="sankey-node" transform="translate(0.000, 305.563)" style="opacity: 1;"><rect class="node-rect" width="5" height="52.82608695652186" style="stroke-width: 0.5; stroke: rgb(68, 68, 68); stroke-opacity: 1; fill: rgb(254, 203, 82); fill-opacity: 0.8;"/><rect class="node-capture" x="-10" y="-7.5" width="25" height="67.82608695652186" style="fill-opacity: 0;"/><g class="node-entered" transform="translate(0 27.41304347826093)"><path class="node-label-guide" id="b316d8_0_node_39" d="M9,0L640,0" transform="matrix(1 0 0 1 0 0)"/><text class="node-label" transform="scale(1 1)" style="user-select: none; cursor: default; fill: rgb(42, 63, 95); text-shadow: rgb(255, 255, 255) -1px 1px 1px, rgb(255, 255, 255) 1px 1px 1px, rgb(255, 255, 255) 1px -1px 1px, rgb(255, 255, 255) -1px -1px 1px; font-family: 'Open Sans', verdana, arial, sans-serif; font-size: 12px; fill-opacity: 1;"><textPath class="node-label-text-path" alignment-baseline="middle" xlink:href="#b316d8_0_node_39" startOffset="0%" text-anchor="start" style="fill: rgb(0, 0, 0);">Semantic network</textPath></text></g></g><g class="sankey-node" transform="translate(635.000, 26.739)" style="opacity: 1;"><rect class="node-rect" width="5" height="29.347826086956545" style="stroke-width: 0.5; stroke: rgb(68, 68, 68); stroke-opacity: 1; fill: rgb(99, 110, 250); fill-opacity: 0.8;"/><rect class="node-capture" x="-10" y="-7.5" width="25" height="44.347826086956545" style="fill-opacity: 0;"/><g class="node-entered" transform="translate(0 15.673913043478272)"><path class="node-label-guide" id="b316d8_0_node_40" d="M-640,0L-4,0" transform="matrix(1 0 0 1 0 0)"/><text class="node-label" transform="scale(1 1)" style="user-select: none; cursor: default; fill: rgb(42, 63, 95); text-shadow: rgb(255, 255, 255) -1px 1px 1px, rgb(255, 255, 255) 1px 1px 1px, rgb(255, 255, 255) 1px -1px 1px, rgb(255, 255, 255) -1px -1px 1px; font-family: 'Open Sans', verdana, arial, sans-serif; font-size: 12px; fill-opacity: 1;"><textPath class="node-label-text-path" alignment-baseline="middle" xlink:href="#b316d8_0_node_40" startOffset="100%" text-anchor="end" style="fill: rgb(0, 0, 0);">SVM</textPath></text></g></g><g class="sankey-node" transform="translate(635.000, 97.826)" style="opacity: 1;"><rect class="node-rect" width="5" height="35.21739130434776" style="stroke-width: 0.5; stroke: rgb(68, 68, 68); stroke-opacity: 1; fill: rgb(239, 85, 59); fill-opacity: 0.8;"/><rect class="node-capture" x="-10" y="-7.5" width="25" height="50.21739130434776" style="fill-opacity: 0;"/><g class="node-entered" transform="translate(0 18.60869565217388)"><path class="node-label-guide" id="b316d8_0_node_41" d="M-640,0L-4,0" transform="matrix(1 0 0 1 0 0)"/><text class="node-label" transform="scale(1 1)" style="user-select: none; cursor: default; fill: rgb(42, 63, 95); text-shadow: rgb(255, 255, 255) -1px 1px 1px, rgb(255, 255, 255) 1px 1px 1px, rgb(255, 255, 255) 1px -1px 1px, rgb(255, 255, 255) -1px -1px 1px; font-family: 'Open Sans', verdana, arial, sans-serif; font-size: 12px; fill-opacity: 1;"><textPath class="node-label-text-path" alignment-baseline="middle" xlink:href="#b316d8_0_node_41" startOffset="100%" text-anchor="end" style="fill: rgb(0, 0, 0);">MLP</textPath></text></g></g><g class="sankey-node" transform="translate(635.000, 289.565)" style="opacity: 1;"><rect class="node-rect" width="5" height="5.869565217391255" style="stroke-width: 0.5; stroke: rgb(68, 68, 68); stroke-opacity: 1; fill: rgb(0, 204, 150); fill-opacity: 0.8;"/><rect class="node-capture" x="-10" y="-7.5" width="25" height="20.869565217391255" style="fill-opacity: 0;"/><g class="node-entered" transform="translate(0 3.9347826086956275)"><path class="node-label-guide" id="b316d8_0_node_42" d="M-640,0L-4,0" transform="matrix(1 0 0 1 0 0)"/><text class="node-label" transform="scale(1 1)" style="user-select: none; cursor: default; fill: rgb(42, 63, 95); text-shadow: rgb(255, 255, 255) -1px 1px 1px, rgb(255, 255, 255) 1px 1px 1px, rgb(255, 255, 255) 1px -1px 1px, rgb(255, 255, 255) -1px -1px 1px; font-family: 'Open Sans', verdana, arial, sans-serif; font-size: 12px; fill-opacity: 1;"><textPath class="node-label-text-path" alignment-baseline="middle" xlink:href="#b316d8_0_node_42" startOffset="100%" text-anchor="end" style="fill: rgb(0, 0, 0);">DBN</textPath></text></g></g><g class="sankey-node" transform="translate(635.000, 331.304)" style="opacity: 1;"><rect class="node-rect" width="5" height="35.217391304347984" style="stroke-width: 0.5; stroke: rgb(68, 68, 68); stroke-opacity: 1; fill: rgb(171, 99, 250); fill-opacity: 0.8;"/><rect class="node-capture" x="-10" y="-7.5" width="25" height="50.217391304347984" style="fill-opacity: 0;"/><g class="node-entered" transform="translate(0 18.608695652173992)"><path class="node-label-guide" id="b316d8_0_node_43" d="M-640,0L-4,0" transform="matrix(1 0 0 1 0 0)"/><text class="node-label" transform="scale(1 1)" style="user-select: none; cursor: default; fill: rgb(42, 63, 95); text-shadow: rgb(255, 255, 255) -1px 1px 1px, rgb(255, 255, 255) 1px 1px 1px, rgb(255, 255, 255) 1px -1px 1px, rgb(255, 255, 255) -1px -1px 1px; font-family: 'Open Sans', verdana, arial, sans-serif; font-size: 12px; fill-opacity: 1;"><textPath class="node-label-text-path" alignment-baseline="middle" xlink:href="#b316d8_0_node_43" startOffset="100%" text-anchor="end" style="fill: rgb(0, 0, 0);">CNN</textPath></text></g></g><g class="sankey-node" transform="translate(635.000, 381.522)" style="opacity: 1;"><rect class="node-rect" width="5" height="17.608695652173765" style="stroke-width: 0.5; stroke: rgb(68, 68, 68); stroke-opacity: 1; fill: rgb(255, 161, 90); fill-opacity: 0.8;"/><rect class="node-capture" x="-10" y="-7.5" width="25" height="32.608695652173765" style="fill-opacity: 0;"/><g class="node-entered" transform="translate(0 9.804347826086882)"><path class="node-label-guide" id="b316d8_0_node_44" d="M-640,0L-4,0" transform="matrix(1 0 0 1 0 0)"/><text class="node-label" transform="scale(1 1)" style="user-select: none; cursor: default; fill: rgb(42, 63, 95); text-shadow: rgb(255, 255, 255) -1px 1px 1px, rgb(255, 255, 255) 1px 1px 1px, rgb(255, 255, 255) 1px -1px 1px, rgb(255, 255, 255) -1px -1px 1px; font-family: 'Open Sans', verdana, arial, sans-serif; font-size: 12px; fill-opacity: 1;"><textPath class="node-label-text-path" alignment-baseline="middle" xlink:href="#b316d8_0_node_44" startOffset="100%" text-anchor="end" style="fill: rgb(0, 0, 0);">GNN</textPath></text></g></g><g class="sankey-node" transform="translate(635.000, 148.043)" style="opacity: 1;"><rect class="node-rect" width="5" height="93.91304347826107" style="stroke-width: 0.5; stroke: rgb(68, 68, 68); stroke-opacity: 1; fill: rgb(25, 211, 243); fill-opacity: 0.8;"/><rect class="node-capture" x="-10" y="-7.5" width="25" height="108.91304347826107" style="fill-opacity: 0;"/><g class="node-entered" transform="translate(0 47.95652173913054)"><path class="node-label-guide" id="b316d8_0_node_45" d="M-640,0L-4,0" transform="matrix(1 0 0 1 0 0)"/><text class="node-label" transform="scale(1 1)" style="user-select: none; cursor: default; fill: rgb(42, 63, 95); text-shadow: rgb(255, 255, 255) -1px 1px 1px, rgb(255, 255, 255) 1px 1px 1px, rgb(255, 255, 255) 1px -1px 1px, rgb(255, 255, 255) -1px -1px 1px; font-family: 'Open Sans', verdana, arial, sans-serif; font-size: 12px; fill-opacity: 1;"><textPath class="node-label-text-path" alignment-baseline="middle" xlink:href="#b316d8_0_node_45" startOffset="100%" text-anchor="end" style="fill: rgb(0, 0, 0);">RNN</textPath></text></g></g><g class="sankey-node" transform="translate(635.000, 71.087)" style="opacity: 1;"><rect class="node-rect" width="5" height="11.739130434782624" style="stroke-width: 0.5; stroke: rgb(68, 68, 68); stroke-opacity: 1; fill: rgb(255, 102, 146); fill-opacity: 0.8;"/><rect class="node-capture" x="-10" y="-7.5" width="25" height="26.739130434782624" style="fill-opacity: 0;"/><g class="node-entered" transform="translate(0 6.869565217391312)"><path class="node-label-guide" id="b316d8_0_node_46" d="M-640,0L-4,0" transform="matrix(1 0 0 1 0 0)"/><text class="node-label" transform="scale(1 1)" style="user-select: none; cursor: default; fill: rgb(42, 63, 95); text-shadow: rgb(255, 255, 255) -1px 1px 1px, rgb(255, 255, 255) 1px 1px 1px, rgb(255, 255, 255) 1px -1px 1px, rgb(255, 255, 255) -1px -1px 1px; font-family: 'Open Sans', verdana, arial, sans-serif; font-size: 12px; fill-opacity: 1;"><textPath class="node-label-text-path" alignment-baseline="middle" xlink:href="#b316d8_0_node_46" startOffset="100%" text-anchor="end" style="fill: rgb(0, 0, 0);">RcNN</textPath></text></g></g><g class="sankey-node" transform="translate(635.000, 256.957)" style="opacity: 1;"><rect class="node-rect" width="5" height="17.608695652173765" style="stroke-width: 0.5; stroke: rgb(68, 68, 68); stroke-opacity: 1; fill: rgb(182, 232, 128); fill-opacity: 0.8;"/><rect class="node-capture" x="-10" y="-7.5" width="25" height="32.608695652173765" style="fill-opacity: 0;"/><g class="node-entered" transform="translate(0 9.804347826086882)"><path class="node-label-guide" id="b316d8_0_node_47" d="M-640,0L-4,0" transform="matrix(1 0 0 1 0 0)"/><text class="node-label" transform="scale(1 1)" style="user-select: none; cursor: default; fill: rgb(42, 63, 95); text-shadow: rgb(255, 255, 255) -1px 1px 1px, rgb(255, 255, 255) 1px 1px 1px, rgb(255, 255, 255) 1px -1px 1px, rgb(255, 255, 255) -1px -1px 1px; font-family: 'Open Sans', verdana, arial, sans-serif; font-size: 12px; fill-opacity: 1;"><textPath class="node-label-text-path" alignment-baseline="middle" xlink:href="#b316d8_0_node_47" startOffset="100%" text-anchor="end" style="fill: rgb(0, 0, 0);">Transformer</textPath></text></g></g><g class="sankey-node" transform="translate(635.000, 414.130)" style="opacity: 1;"><rect class="node-rect" width="5" height="5.869565217391255" style="stroke-width: 0.5; stroke: rgb(68, 68, 68); stroke-opacity: 1; fill: rgb(255, 151, 255); fill-opacity: 0.8;"/><rect class="node-capture" x="-10" y="-7.5" width="25" height="20.869565217391255" style="fill-opacity: 0;"/><g class="node-entered" transform="translate(0 3.9347826086956275)"><path class="node-label-guide" id="b316d8_0_node_48" d="M-640,0L-4,0" transform="matrix(1 0 0 1 0 0)"/><text class="node-label" transform="scale(1 1)" style="user-select: none; cursor: default; fill: rgb(42, 63, 95); text-shadow: rgb(255, 255, 255) -1px 1px 1px, rgb(255, 255, 255) 1px 1px 1px, rgb(255, 255, 255) 1px -1px 1px, rgb(255, 255, 255) -1px -1px 1px; font-family: 'Open Sans', verdana, arial, sans-serif; font-size: 12px; fill-opacity: 1;"><textPath class="node-label-text-path" alignment-baseline="middle" xlink:href="#b316d8_0_node_48" startOffset="100%" text-anchor="end" style="fill: rgb(0, 0, 0);">LTN</textPath></text></g></g><g class="sankey-node" transform="translate(635.000, 310.435)" style="opacity: 1;"><rect class="node-rect" width="5" height="5.869565217391141" style="stroke-width: 0.5; stroke: rgb(68, 68, 68); stroke-opacity: 1; fill: rgb(254, 203, 82); fill-opacity: 0.8;"/><rect class="node-capture" x="-10" y="-7.5" width="25" height="20.86956521739114" style="fill-opacity: 0;"/><g class="node-entered" transform="translate(0 3.9347826086955706)"><path class="node-label-guide" id="b316d8_0_node_49" d="M-640,0L-4,0" transform="matrix(1 0 0 1 0 0)"/><text class="node-label" transform="scale(1 1)" style="user-select: none; cursor: default; fill: rgb(42, 63, 95); text-shadow: rgb(255, 255, 255) -1px 1px 1px, rgb(255, 255, 255) 1px 1px 1px, rgb(255, 255, 255) 1px -1px 1px, rgb(255, 255, 255) -1px -1px 1px; font-family: 'Open Sans', verdana, arial, sans-serif; font-size: 12px; fill-opacity: 1;"><textPath class="node-label-text-path" alignment-baseline="middle" xlink:href="#b316d8_0_node_49" startOffset="100%" text-anchor="end" style="fill: rgb(0, 0, 0);">RKNN</textPath></text></g></g><g class="sankey-node" transform="translate(635.000, 0.000)" style="opacity: 1;"><rect class="node-rect" width="5" height="11.73913043478261" style="stroke-width: 0.5; stroke: rgb(68, 68, 68); stroke-opacity: 1; fill: rgb(99, 110, 250); fill-opacity: 0.8;"/><rect class="node-capture" x="-10" y="-7.5" width="25" height="26.73913043478261" style="fill-opacity: 0;"/><g class="node-entered" transform="translate(0 6.869565217391305)"><path class="node-label-guide" id="b316d8_0_node_50" d="M-640,0L-4,0" transform="matrix(1 0 0 1 0 0)"/><text class="node-label" transform="scale(1 1)" style="user-select: none; cursor: default; fill: rgb(42, 63, 95); text-shadow: rgb(255, 255, 255) -1px 1px 1px, rgb(255, 255, 255) 1px 1px 1px, rgb(255, 255, 255) 1px -1px 1px, rgb(255, 255, 255) -1px -1px 1px; font-family: 'Open Sans', verdana, arial, sans-serif; font-size: 12px; fill-opacity: 1;"><textPath class="node-label-text-path" alignment-baseline="middle" xlink:href="#b316d8_0_node_50" startOffset="100%" text-anchor="end" style="fill: rgb(0, 0, 0);">RL</textPath></text></g></g></g></g><defs id="topdefs-8faad0"><g class="clips"/></defs><g class="layer-above"><g class="imagelayer"/><g class="shapelayer"/></g><g class="infolayer"><g class="g-gtitle"/><g class="first-render"/></g></svg>