<svg class="main-svg" xmlns="http://www.w3.org/2000/svg" xmlns:xlink="http://www.w3.org/1999/xlink" width="800" height="600" style="" viewBox="0 0 800 600"><rect x="0" y="0" width="800" height="600" style="fill: rgb(255, 255, 255); fill-opacity: 1;"/><defs id="defs-1728a8"><g class="clips"/><g class="gradients"/></defs><g class="bglayer"/><g class="layer-below"><g class="imagelayer"/><g class="shapelayer"/></g><g class="cartesianlayer"/><g class="polarlayer"/><g class="ternarylayer"/><g class="geolayer"/><g class="funnelarealayer"/><g class="pielayer"/><g class="treemaplayer"/><g class="sunburstlayer"/><g class="glimages"/><g class="sankey" transform="translate(80,100)matrix(1 0 0 1 0 0)" style="box-sizing: content-box; position: absolute; left: 0px; shape-rendering: geometricprecision; pointer-events: auto;"><g class="sankey-links" style="fill: none;"><path class="sankey-link" d="M5,0C161.25,0 161.25,5.2173913043476 317.5,5.2173913043476L317.5,13.369565217391077C161.25,13.369565217391077 161.25,8.152173913043478 5,8.152173913043478Z" style="stroke: rgb(68, 68, 68); stroke-opacity: 1; fill: rgb(0, 0, 0); fill-opacity: 0.2; stroke-width: 0; opacity: 1;"/><path class="sankey-link" d="M5,362.9347826086955C161.25,362.9347826086955 161.25,111.19565217391285 317.5,111.19565217391285L317.5,119.34782608695632C161.25,119.34782608695632 161.25,371.086956521739 5,371.086956521739Z" style="stroke: rgb(68, 68, 68); stroke-opacity: 1; fill: rgb(0, 0, 0); fill-opacity: 0.2; stroke-width: 0; opacity: 1;"/><path class="sankey-link" d="M5,153.58695652173907C161.25,153.58695652173907 161.25,45.97826086956499 317.5,45.97826086956499L317.5,54.130434782608475C161.25,54.130434782608475 161.25,161.73913043478257 5,161.73913043478257Z" style="stroke: rgb(68, 68, 68); stroke-opacity: 1; fill: rgb(0, 0, 0); fill-opacity: 0.2; stroke-width: 0; opacity: 1;"/><path class="sankey-link" d="M5,411.8478260869565C161.25,411.8478260869565 161.25,411.84782608695673 317.5,411.84782608695673L317.5,420.0000000000002C161.25,420.0000000000002 161.25,420 5,420Z" style="stroke: rgb(68, 68, 68); stroke-opacity: 1; fill: rgb(0, 0, 0); fill-opacity: 0.2; stroke-width: 0; opacity: 1;"/><path class="sankey-link" d="M5,274.56521739130415C161.25,274.56521739130415 161.25,78.58695652173891 317.5,78.58695652173891L317.5,86.73913043478238C161.25,86.73913043478238 161.25,282.71739130434764 5,282.71739130434764Z" style="stroke: rgb(68, 68, 68); stroke-opacity: 1; fill: rgb(0, 0, 0); fill-opacity: 0.2; stroke-width: 0; opacity: 1;"/><path class="sankey-link" d="M5,403.695652173913C161.25,403.695652173913 161.25,388.69565217391334 317.5,388.69565217391334L317.5,396.84782608695684C161.25,396.84782608695684 161.25,411.8478260869565 5,411.8478260869565Z" style="stroke: rgb(68, 68, 68); stroke-opacity: 1; fill: rgb(0, 0, 0); fill-opacity: 0.2; stroke-width: 0; opacity: 1;"/><path class="sankey-link" d="M5,387.391304347826C161.25,387.391304347826 161.25,222.71739130434756 317.5,222.71739130434756L317.5,230.86956521739106C161.25,230.86956521739106 161.25,395.5434782608695 5,395.5434782608695Z" style="stroke: rgb(68, 68, 68); stroke-opacity: 1; fill: rgb(0, 0, 0); fill-opacity: 0.2; stroke-width: 0; opacity: 1;"/><path class="sankey-link" d="M5,57.065217391304344C320,57.065217391304344 320,124.76086956521733 635,124.76086956521733L635,132.91304347826082C320,132.91304347826082 320,65.21739130434783 5,65.21739130434783Z" style="stroke: rgb(68, 68, 68); stroke-opacity: 1; fill: rgb(0, 0, 0); fill-opacity: 0.2; stroke-width: 0; opacity: 1;"/><path class="sankey-link" d="M5,331.63043478260863C161.25,331.63043478260863 161.25,349.23913043478274 317.5,349.23913043478274L317.5,357.39130434782624C161.25,357.39130434782624 161.25,339.78260869565213 5,339.78260869565213Z" style="stroke: rgb(68, 68, 68); stroke-opacity: 1; fill: rgb(0, 0, 0); fill-opacity: 0.2; stroke-width: 0; opacity: 1;"/><path class="sankey-link" d="M5,161.73913043478254C161.25,161.73913043478254 161.25,54.13043478260847 317.5,54.13043478260847L317.5,62.28260869565195C161.25,62.28260869565195 161.25,169.89130434782604 5,169.89130434782604Z" style="stroke: rgb(68, 68, 68); stroke-opacity: 1; fill: rgb(0, 0, 0); fill-opacity: 0.2; stroke-width: 0; opacity: 1;"/><path class="sankey-link" d="M5,186.19565217391295C320,186.19565217391295 320,149.21739130434776 635,149.21739130434776L635,157.36956521739125C320,157.36956521739125 320,194.34782608695645 5,194.34782608695645Z" style="stroke: rgb(68, 68, 68); stroke-opacity: 1; fill: rgb(0, 0, 0); fill-opacity: 0.2; stroke-width: 0; opacity: 1;"/><path class="sankey-link" d="M5,218.80434782608683C320,218.80434782608683 320,243.1304347826086 635,243.1304347826086L635,251.2826086956521C320,251.2826086956521 320,226.95652173913032 5,226.95652173913032Z" style="stroke: rgb(68, 68, 68); stroke-opacity: 1; fill: rgb(0, 0, 0); fill-opacity: 0.2; stroke-width: 0; opacity: 1;"/><path class="sankey-link" d="M5,65.21739130434783C320,65.21739130434783 320,132.91304347826082 635,132.91304347826082L635,141.06521739130432C320,141.06521739130432 320,73.3695652173913 5,73.3695652173913Z" style="stroke: rgb(68, 68, 68); stroke-opacity: 1; fill: rgb(0, 0, 0); fill-opacity: 0.2; stroke-width: 0; opacity: 1;"/><path class="sankey-link" d="M5,307.17391304347814C320,307.17391304347814 320,157.36956521739123 635,157.36956521739123L635,165.52173913043472C320,165.52173913043472 320,315.32608695652164 5,315.32608695652164Z" style="stroke: rgb(68, 68, 68); stroke-opacity: 1; fill: rgb(0, 0, 0); fill-opacity: 0.2; stroke-width: 0; opacity: 1;"/><path class="sankey-link" d="M5,282.71739130434764C161.25,282.71739130434764 161.25,86.7391304347824 317.5,86.7391304347824L317.5,94.89130434782587C161.25,94.89130434782587 161.25,290.86956521739114 5,290.86956521739114Z" style="stroke: rgb(68, 68, 68); stroke-opacity: 1; fill: rgb(0, 0, 0); fill-opacity: 0.2; stroke-width: 0; opacity: 1;"/><path class="sankey-link" d="M5,89.67391304347828C161.25,89.67391304347828 161.25,181.9565217391302 317.5,181.9565217391302L317.5,190.1086956521737C161.25,190.1086956521737 161.25,97.82608695652175 5,97.82608695652175Z" style="stroke: rgb(68, 68, 68); stroke-opacity: 1; fill: rgb(0, 0, 0); fill-opacity: 0.2; stroke-width: 0; opacity: 1;"/><path class="sankey-link" d="M5,40.76086956521739C320,40.76086956521739 320,61.14130434782606 635,61.14130434782606L635,69.29347826086953C320,69.29347826086953 320,48.913043478260875 5,48.913043478260875Z" style="stroke: rgb(68, 68, 68); stroke-opacity: 1; fill: rgb(0, 0, 0); fill-opacity: 0.2; stroke-width: 0; opacity: 1;"/><path class="sankey-link" d="M5,235.10869565217376C161.25,235.10869565217376 161.25,277.173913043478 317.5,277.173913043478L317.5,285.3260869565215C161.25,285.3260869565215 161.25,243.26086956521726 5,243.26086956521726Z" style="stroke: rgb(68, 68, 68); stroke-opacity: 1; fill: rgb(0, 0, 0); fill-opacity: 0.2; stroke-width: 0; opacity: 1;"/><path class="sankey-link" d="M5,202.4999999999999C161.25,202.4999999999999 161.25,206.41304347826062 317.5,206.41304347826062L317.5,214.56521739130412C161.25,214.56521739130412 161.25,210.65217391304338 5,210.65217391304338Z" style="stroke: rgb(68, 68, 68); stroke-opacity: 1; fill: rgb(0, 0, 0); fill-opacity: 0.2; stroke-width: 0; opacity: 1;"/><path class="sankey-link" d="M5,251.4130434782607C161.25,251.4130434782607 161.25,341.08695652173924 317.5,341.08695652173924L317.5,349.23913043478274C161.25,349.23913043478274 161.25,259.5652173913042 5,259.5652173913042Z" style="stroke: rgb(68, 68, 68); stroke-opacity: 1; fill: rgb(0, 0, 0); fill-opacity: 0.2; stroke-width: 0; opacity: 1;"/><path class="sankey-link" d="M5,315.32608695652164C161.25,315.32608695652164 161.25,293.478260869565 317.5,293.478260869565L317.5,301.6304347826085C161.25,301.6304347826085 161.25,323.47826086956513 5,323.47826086956513Z" style="stroke: rgb(68, 68, 68); stroke-opacity: 1; fill: rgb(0, 0, 0); fill-opacity: 0.2; stroke-width: 0; opacity: 1;"/><path class="sankey-link" d="M5,243.26086956521723C161.25,243.26086956521723 161.25,285.3260869565215 317.5,285.3260869565215L317.5,293.478260869565C161.25,293.478260869565 161.25,251.41304347826073 5,251.41304347826073Z" style="stroke: rgb(68, 68, 68); stroke-opacity: 1; fill: rgb(0, 0, 0); fill-opacity: 0.2; stroke-width: 0; opacity: 1;"/><path class="sankey-link" d="M5,8.15217391304348C161.25,8.15217391304348 161.25,13.36956521739108 317.5,13.36956521739108L317.5,21.521739130434558C161.25,21.521739130434558 161.25,16.304347826086957 5,16.304347826086957Z" style="stroke: rgb(68, 68, 68); stroke-opacity: 1; fill: rgb(0, 0, 0); fill-opacity: 0.2; stroke-width: 0; opacity: 1;"/><path class="sankey-link" d="M5,16.304347826086957C161.25,16.304347826086957 161.25,21.521739130434558 317.5,21.521739130434558L317.5,29.673913043478034C161.25,29.673913043478034 161.25,24.456521739130434 5,24.456521739130434Z" style="stroke: rgb(68, 68, 68); stroke-opacity: 1; fill: rgb(0, 0, 0); fill-opacity: 0.2; stroke-width: 0; opacity: 1;"/><path class="sankey-link" d="M5,114.13043478260873C161.25,114.13043478260873 161.25,269.0217391304345 317.5,269.0217391304345L317.5,277.173913043478C161.25,277.173913043478 161.25,122.2826086956522 5,122.2826086956522Z" style="stroke: rgb(68, 68, 68); stroke-opacity: 1; fill: rgb(0, 0, 0); fill-opacity: 0.2; stroke-width: 0; opacity: 1;"/><path class="sankey-link" d="M5,339.78260869565213C161.25,339.78260869565213 161.25,380.54347826086985 317.5,380.54347826086985L317.5,388.69565217391334C161.25,388.69565217391334 161.25,347.9347826086956 5,347.9347826086956Z" style="stroke: rgb(68, 68, 68); stroke-opacity: 1; fill: rgb(0, 0, 0); fill-opacity: 0.2; stroke-width: 0; opacity: 1;"/><path class="sankey-link" d="M5,290.86956521739114C161.25,290.86956521739114 161.25,94.89130434782588 317.5,94.89130434782588L317.5,103.04347826086935C161.25,103.04347826086935 161.25,299.02173913043464 5,299.02173913043464Z" style="stroke: rgb(68, 68, 68); stroke-opacity: 1; fill: rgb(0, 0, 0); fill-opacity: 0.2; stroke-width: 0; opacity: 1;"/><path class="sankey-link" d="M5,97.82608695652176C161.25,97.82608695652176 161.25,190.10869565217368 317.5,190.10869565217368L317.5,198.26086956521718C161.25,198.26086956521718 161.25,105.97826086956523 5,105.97826086956523Z" style="stroke: rgb(68, 68, 68); stroke-opacity: 1; fill: rgb(0, 0, 0); fill-opacity: 0.2; stroke-width: 0; opacity: 1;"/><path class="sankey-link" d="M5,169.891304347826C161.25,169.891304347826 161.25,62.28260869565194 317.5,62.28260869565194L317.5,70.43478260869541C161.25,70.43478260869541 161.25,178.0434782608695 5,178.0434782608695Z" style="stroke: rgb(68, 68, 68); stroke-opacity: 1; fill: rgb(0, 0, 0); fill-opacity: 0.2; stroke-width: 0; opacity: 1;"/><path class="sankey-link" d="M5,24.456521739130437C161.25,24.456521739130437 161.25,29.67391304347804 317.5,29.67391304347804L317.5,37.82608695652152C161.25,37.82608695652152 161.25,32.608695652173914 5,32.608695652173914Z" style="stroke: rgb(68, 68, 68); stroke-opacity: 1; fill: rgb(0, 0, 0); fill-opacity: 0.2; stroke-width: 0; opacity: 1;"/><path class="sankey-link" d="M5,73.36956521739131C320,73.36956521739131 320,141.0652173913043 635,141.0652173913043L635,149.21739130434779C320,149.21739130434779 320,81.52173913043478 5,81.52173913043478Z" style="stroke: rgb(68, 68, 68); stroke-opacity: 1; fill: rgb(0, 0, 0); fill-opacity: 0.2; stroke-width: 0; opacity: 1;"/><path class="sankey-link" d="M5,81.5217391304348C161.25,81.5217391304348 161.25,150.65217391304336 317.5,150.65217391304336L317.5,158.80434782608685C161.25,158.80434782608685 161.25,89.67391304347827 5,89.67391304347827Z" style="stroke: rgb(68, 68, 68); stroke-opacity: 1; fill: rgb(0, 0, 0); fill-opacity: 0.2; stroke-width: 0; opacity: 1;"/><path class="sankey-link" d="M5,371.086956521739C161.25,371.086956521739 161.25,119.34782608695633 317.5,119.34782608695633L317.5,127.4999999999998C161.25,127.4999999999998 161.25,379.2391304347825 5,379.2391304347825Z" style="stroke: rgb(68, 68, 68); stroke-opacity: 1; fill: rgb(0, 0, 0); fill-opacity: 0.2; stroke-width: 0; opacity: 1;"/><path class="sankey-link" d="M5,130.43478260869568C161.25,130.43478260869568 161.25,372.39130434782635 317.5,372.39130434782635L317.5,380.54347826086985C161.25,380.54347826086985 161.25,138.58695652173918 5,138.58695652173918Z" style="stroke: rgb(68, 68, 68); stroke-opacity: 1; fill: rgb(0, 0, 0); fill-opacity: 0.2; stroke-width: 0; opacity: 1;"/><path class="sankey-link" d="M5,379.2391304347825C161.25,379.2391304347825 161.25,127.49999999999982 317.5,127.49999999999982L317.5,135.6521739130433C161.25,135.6521739130433 161.25,387.391304347826 5,387.391304347826Z" style="stroke: rgb(68, 68, 68); stroke-opacity: 1; fill: rgb(0, 0, 0); fill-opacity: 0.2; stroke-width: 0; opacity: 1;"/><path class="sankey-link" d="M5,32.608695652173914C161.25,32.608695652173914 161.25,37.826086956521515 317.5,37.826086956521515L317.5,45.978260869565C161.25,45.978260869565 161.25,40.7608695652174 5,40.7608695652174Z" style="stroke: rgb(68, 68, 68); stroke-opacity: 1; fill: rgb(0, 0, 0); fill-opacity: 0.2; stroke-width: 0; opacity: 1;"/><path class="sankey-link" d="M5,323.47826086956513C161.25,323.47826086956513 161.25,301.6304347826085 317.5,301.6304347826085L317.5,309.782608695652C161.25,309.782608695652 161.25,331.63043478260863 5,331.63043478260863Z" style="stroke: rgb(68, 68, 68); stroke-opacity: 1; fill: rgb(0, 0, 0); fill-opacity: 0.2; stroke-width: 0; opacity: 1;"/><path class="sankey-link" d="M5,194.34782608695642C161.25,194.34782608695642 161.25,158.80434782608683 317.5,158.80434782608683L317.5,166.95652173913032C161.25,166.95652173913032 161.25,202.49999999999991 5,202.49999999999991Z" style="stroke: rgb(68, 68, 68); stroke-opacity: 1; fill: rgb(0, 0, 0); fill-opacity: 0.2; stroke-width: 0; opacity: 1;"/><path class="sankey-link" d="M5,122.28260869565221C161.25,122.28260869565221 161.25,332.93478260869574 317.5,332.93478260869574L317.5,341.08695652173924C161.25,341.08695652173924 161.25,130.43478260869568 5,130.43478260869568Z" style="stroke: rgb(68, 68, 68); stroke-opacity: 1; fill: rgb(0, 0, 0); fill-opacity: 0.2; stroke-width: 0; opacity: 1;"/><path class="sankey-link" d="M5,105.97826086956525C161.25,105.97826086956525 161.25,198.26086956521715 317.5,198.26086956521715L317.5,206.41304347826065C161.25,206.41304347826065 161.25,114.13043478260872 5,114.13043478260872Z" style="stroke: rgb(68, 68, 68); stroke-opacity: 1; fill: rgb(0, 0, 0); fill-opacity: 0.2; stroke-width: 0; opacity: 1;"/><path class="sankey-link" d="M5,178.04347826086948C161.25,178.04347826086948 161.25,70.43478260869543 317.5,70.43478260869543L317.5,78.5869565217389C161.25,78.5869565217389 161.25,186.19565217391298 5,186.19565217391298Z" style="stroke: rgb(68, 68, 68); stroke-opacity: 1; fill: rgb(0, 0, 0); fill-opacity: 0.2; stroke-width: 0; opacity: 1;"/><path class="sankey-link" d="M5,226.9565217391303C161.25,226.9565217391303 161.25,245.86956521739103 317.5,245.86956521739103L317.5,254.02173913043453C161.25,254.02173913043453 161.25,235.1086956521738 5,235.1086956521738Z" style="stroke: rgb(68, 68, 68); stroke-opacity: 1; fill: rgb(0, 0, 0); fill-opacity: 0.2; stroke-width: 0; opacity: 1;"/><path class="sankey-link" d="M5,299.02173913043464C161.25,299.02173913043464 161.25,103.04347826086936 317.5,103.04347826086936L317.5,111.19565217391283C161.25,111.19565217391283 161.25,307.17391304347814 5,307.17391304347814Z" style="stroke: rgb(68, 68, 68); stroke-opacity: 1; fill: rgb(0, 0, 0); fill-opacity: 0.2; stroke-width: 0; opacity: 1;"/><path class="sankey-link" d="M5,210.65217391304336C161.25,210.65217391304336 161.25,214.5652173913041 317.5,214.5652173913041L317.5,222.7173913043476C161.25,222.7173913043476 161.25,218.80434782608685 5,218.80434782608685Z" style="stroke: rgb(68, 68, 68); stroke-opacity: 1; fill: rgb(0, 0, 0); fill-opacity: 0.2; stroke-width: 0; opacity: 1;"/><path class="sankey-link" d="M5,48.91304347826087C320,48.91304347826087 320,69.29347826086955 635,69.29347826086955L635,77.44565217391302C320,77.44565217391302 320,57.06521739130435 5,57.06521739130435Z" style="stroke: rgb(68, 68, 68); stroke-opacity: 1; fill: rgb(0, 0, 0); fill-opacity: 0.2; stroke-width: 0; opacity: 1;"/><path class="sankey-link" d="M5,395.5434782608695C161.25,395.5434782608695 161.25,309.782608695652 317.5,309.782608695652L317.5,317.9347826086955C161.25,317.9347826086955 161.25,403.695652173913 5,403.695652173913Z" style="stroke: rgb(68, 68, 68); stroke-opacity: 1; fill: rgb(0, 0, 0); fill-opacity: 0.2; stroke-width: 0; opacity: 1;"/><path class="sankey-link" d="M322.5,181.9565217391302C478.75,181.9565217391302 478.75,211.82608695652166 635,211.82608695652166L635,219.97826086956516C478.75,219.97826086956516 478.75,190.1086956521737 322.5,190.1086956521737Z" style="stroke: rgb(68, 68, 68); stroke-opacity: 1; fill: rgb(0, 0, 0); fill-opacity: 0.2; stroke-width: 0; opacity: 1;"/><path class="sankey-link" d="M322.5,245.86956521739103C478.75,245.86956521739103 478.75,219.97826086956513 635,219.97826086956513L635,228.13043478260863C478.75,228.13043478260863 478.75,254.02173913043453 322.5,254.02173913043453Z" style="stroke: rgb(68, 68, 68); stroke-opacity: 1; fill: rgb(0, 0, 0); fill-opacity: 0.2; stroke-width: 0; opacity: 1;"/><path class="sankey-link" d="M322.5,269.0217391304345C478.75,269.0217391304345 478.75,271.0071693061092 635,271.0071693061092L635,279.1593432191527C478.75,279.1593432191527 478.75,277.173913043478 322.5,277.173913043478Z" style="stroke: rgb(68, 68, 68); stroke-opacity: 1; fill: rgb(0, 0, 0); fill-opacity: 0.2; stroke-width: 0; opacity: 1;"/><path class="sankey-link" d="M322.5,372.39130434782635C478.75,372.39130434782635 478.75,279.1593432191527 635,279.1593432191527L635,287.3115171321962C478.75,287.3115171321962 478.75,380.54347826086985 322.5,380.54347826086985Z" style="stroke: rgb(68, 68, 68); stroke-opacity: 1; fill: rgb(0, 0, 0); fill-opacity: 0.2; stroke-width: 0; opacity: 1;"/><path class="sankey-link" d="M322.5,5.2173913043476C478.75,5.2173913043476 478.75,180.52173913043467 635,180.52173913043467L635,188.67391304347817C478.75,188.67391304347817 478.75,13.369565217391077 322.5,13.369565217391077Z" style="stroke: rgb(68, 68, 68); stroke-opacity: 1; fill: rgb(0, 0, 0); fill-opacity: 0.2; stroke-width: 0; opacity: 1;"/><path class="sankey-link" d="M322.5,150.65217391304336C478.75,150.65217391304336 478.75,188.67391304347814 635,188.67391304347814L635,196.82608695652164C478.75,196.82608695652164 478.75,158.80434782608685 322.5,158.80434782608685Z" style="stroke: rgb(68, 68, 68); stroke-opacity: 1; fill: rgb(0, 0, 0); fill-opacity: 0.2; stroke-width: 0; opacity: 1;"/><path class="sankey-link" d="M322.5,332.93478260869574C478.75,332.93478260869574 478.75,327.1532260492894 635,327.1532260492894L635,335.3053999623329C478.75,335.3053999623329 478.75,341.08695652173924 322.5,341.08695652173924Z" style="stroke: rgb(68, 68, 68); stroke-opacity: 1; fill: rgb(0, 0, 0); fill-opacity: 0.2; stroke-width: 0; opacity: 1;"/><path class="sankey-link" d="M322.5,411.84782608695673C478.75,411.84782608695673 478.75,335.3053999623329 635,335.3053999623329L635,343.4575738753764C478.75,343.4575738753764 478.75,420.0000000000002 322.5,420.0000000000002Z" style="stroke: rgb(68, 68, 68); stroke-opacity: 1; fill: rgb(0, 0, 0); fill-opacity: 0.2; stroke-width: 0; opacity: 1;"/></g><g class="sankey-node-set" style="cursor: move;"><g class="sankey-node" transform="translate(0.000, 362.935)" style="opacity: 1;"><rect class="node-rect" width="5" height="57.065217391304486" style="stroke-width: 0.5; stroke: rgb(68, 68, 68); stroke-opacity: 1; fill: rgb(255, 102, 146); fill-opacity: 0.8;"/><rect class="node-capture" x="-10" y="-7.5" width="25" height="72.06521739130449" style="fill-opacity: 0;"/><g class="node-entered" transform="translate(0 29.532608695652243)"><path class="node-label-guide" id="3db6d4_0_node_36" d="M9,0L640,0" transform="matrix(1 0 0 1 0 0)"/><text class="node-label" transform="scale(1 1)" style="user-select: none; cursor: default; fill: rgb(42, 63, 95); text-shadow: rgb(255, 255, 255) -1px 1px 1px, rgb(255, 255, 255) 1px 1px 1px, rgb(255, 255, 255) 1px -1px 1px, rgb(255, 255, 255) -1px -1px 1px; font-family: 'Open Sans', verdana, arial, sans-serif; font-size: 12px; fill-opacity: 1;"><textPath class="node-label-text-path" alignment-baseline="middle" xlink:href="#3db6d4_0_node_36" startOffset="0%" text-anchor="start" style="fill: rgb(0, 0, 0);">Frames</textPath></text></g></g><g class="sankey-node" transform="translate(0.000, 153.587)" style="opacity: 1;"><rect class="node-rect" width="5" height="105.97826086956508" style="stroke-width: 0.5; stroke: rgb(68, 68, 68); stroke-opacity: 1; fill: rgb(182, 232, 128); fill-opacity: 0.8;"/><rect class="node-capture" x="-10" y="-7.5" width="25" height="120.97826086956508" style="fill-opacity: 0;"/><g class="node-entered" transform="translate(0 53.98913043478254)"><path class="node-label-guide" id="3db6d4_0_node_37" d="M9,0L640,0" transform="matrix(1 0 0 1 0 0)"/><text class="node-label" transform="scale(1 1)" style="user-select: none; cursor: default; fill: rgb(42, 63, 95); text-shadow: rgb(255, 255, 255) -1px 1px 1px, rgb(255, 255, 255) 1px 1px 1px, rgb(255, 255, 255) 1px -1px 1px, rgb(255, 255, 255) -1px -1px 1px; font-family: 'Open Sans', verdana, arial, sans-serif; font-size: 12px; fill-opacity: 1;"><textPath class="node-label-text-path" alignment-baseline="middle" xlink:href="#3db6d4_0_node_37" startOffset="0%" text-anchor="start" style="fill: rgb(0, 0, 0);">Logic</textPath></text></g></g><g class="sankey-node" transform="translate(0.000, 0.000)" style="opacity: 1;"><rect class="node-rect" width="5" height="138.58695652173907" style="stroke-width: 0.5; stroke: rgb(68, 68, 68); stroke-opacity: 1; fill: rgb(255, 151, 255); fill-opacity: 0.8;"/><rect class="node-capture" x="-10" y="-7.5" width="25" height="153.58695652173907" style="fill-opacity: 0;"/><g class="node-entered" transform="translate(0 70.29347826086953)"><path class="node-label-guide" id="3db6d4_0_node_38" d="M9,0L640,0" transform="matrix(1 0 0 1 0 0)"/><text class="node-label" transform="scale(1 1)" style="user-select: none; cursor: default; fill: rgb(42, 63, 95); text-shadow: rgb(255, 255, 255) -1px 1px 1px, rgb(255, 255, 255) 1px 1px 1px, rgb(255, 255, 255) 1px -1px 1px, rgb(255, 255, 255) -1px -1px 1px; font-family: 'Open Sans', verdana, arial, sans-serif; font-size: 12px; fill-opacity: 1;"><textPath class="node-label-text-path" alignment-baseline="middle" xlink:href="#3db6d4_0_node_38" startOffset="0%" text-anchor="start" style="fill: rgb(0, 0, 0);">Rules</textPath></text></g></g><g class="sankey-node" transform="translate(0.000, 274.565)" style="opacity: 1;"><rect class="node-rect" width="5" height="73.36956521739137" style="stroke-width: 0.5; stroke: rgb(68, 68, 68); stroke-opacity: 1; fill: rgb(254, 203, 82); fill-opacity: 0.8;"/><rect class="node-capture" x="-10" y="-7.5" width="25" height="88.36956521739137" style="fill-opacity: 0;"/><g class="node-entered" transform="translate(0 37.684782608695684)"><path class="node-label-guide" id="3db6d4_0_node_39" d="M9,0L640,0" transform="matrix(1 0 0 1 0 0)"/><text class="node-label" transform="scale(1 1)" style="user-select: none; cursor: default; fill: rgb(42, 63, 95); text-shadow: rgb(255, 255, 255) -1px 1px 1px, rgb(255, 255, 255) 1px 1px 1px, rgb(255, 255, 255) 1px -1px 1px, rgb(255, 255, 255) -1px -1px 1px; font-family: 'Open Sans', verdana, arial, sans-serif; font-size: 12px; fill-opacity: 1;"><textPath class="node-label-text-path" alignment-baseline="middle" xlink:href="#3db6d4_0_node_39" startOffset="0%" text-anchor="start" style="fill: rgb(0, 0, 0);">Semantic network</textPath></text></g></g><g class="sankey-node" transform="translate(635.000, 124.761)" style="opacity: 1;"><rect class="node-rect" width="5" height="40.760869565217334" style="stroke-width: 0.5; stroke: rgb(68, 68, 68); stroke-opacity: 1; fill: rgb(99, 110, 250); fill-opacity: 0.8;"/><rect class="node-capture" x="-10" y="-7.5" width="25" height="55.760869565217334" style="fill-opacity: 0;"/><g class="node-entered" transform="translate(0 21.380434782608667)"><path class="node-label-guide" id="3db6d4_0_node_40" d="M-640,0L-4,0" transform="matrix(1 0 0 1 0 0)"/><text class="node-label" transform="scale(1 1)" style="user-select: none; cursor: default; fill: rgb(42, 63, 95); text-shadow: rgb(255, 255, 255) -1px 1px 1px, rgb(255, 255, 255) 1px 1px 1px, rgb(255, 255, 255) 1px -1px 1px, rgb(255, 255, 255) -1px -1px 1px; font-family: 'Open Sans', verdana, arial, sans-serif; font-size: 12px; fill-opacity: 1;"><textPath class="node-label-text-path" alignment-baseline="middle" xlink:href="#3db6d4_0_node_40" startOffset="100%" text-anchor="end" style="fill: rgb(0, 0, 0);">SVM</textPath></text></g></g><g class="sankey-node" transform="translate(317.500, 181.957)" style="opacity: 1;"><rect class="node-rect" width="5" height="48.91304347826082" style="stroke-width: 0.5; stroke: rgb(68, 68, 68); stroke-opacity: 1; fill: rgb(239, 85, 59); fill-opacity: 0.8;"/><rect class="node-capture" x="-10" y="-7.5" width="25" height="63.91304347826082" style="fill-opacity: 0;"/><g class="node-entered" transform="translate(0 25.45652173913041)"><path class="node-label-guide" id="3db6d4_0_node_41" d="M9,0L640,0" transform="matrix(1 0 0 1 0 0)"/><text class="node-label" transform="scale(1 1)" style="user-select: none; cursor: default; fill: rgb(42, 63, 95); text-shadow: rgb(255, 255, 255) -1px 1px 1px, rgb(255, 255, 255) 1px 1px 1px, rgb(255, 255, 255) 1px -1px 1px, rgb(255, 255, 255) -1px -1px 1px; font-family: 'Open Sans', verdana, arial, sans-serif; font-size: 12px; fill-opacity: 1;"><textPath class="node-label-text-path" alignment-baseline="middle" xlink:href="#3db6d4_0_node_41" startOffset="0%" text-anchor="start" style="fill: rgb(0, 0, 0);">MLP</textPath></text></g></g><g class="sankey-node" transform="translate(317.500, 245.870)" style="opacity: 1;"><rect class="node-rect" width="5" height="8.152173913043498" style="stroke-width: 0.5; stroke: rgb(68, 68, 68); stroke-opacity: 1; fill: rgb(0, 204, 150); fill-opacity: 0.8;"/><rect class="node-capture" x="-10" y="-7.5" width="25" height="23.152173913043498" style="fill-opacity: 0;"/><g class="node-entered" transform="translate(0 5.076086956521749)"><path class="node-label-guide" id="3db6d4_0_node_42" d="M9,0L640,0" transform="matrix(1 0 0 1 0 0)"/><text class="node-label" transform="scale(1 1)" style="user-select: none; cursor: default; fill: rgb(42, 63, 95); text-shadow: rgb(255, 255, 255) -1px 1px 1px, rgb(255, 255, 255) 1px 1px 1px, rgb(255, 255, 255) 1px -1px 1px, rgb(255, 255, 255) -1px -1px 1px; font-family: 'Open Sans', verdana, arial, sans-serif; font-size: 12px; fill-opacity: 1;"><textPath class="node-label-text-path" alignment-baseline="middle" xlink:href="#3db6d4_0_node_42" startOffset="0%" text-anchor="start" style="fill: rgb(0, 0, 0);">DBN</textPath></text></g></g><g class="sankey-node" transform="translate(317.500, 269.022)" style="opacity: 1;"><rect class="node-rect" width="5" height="48.913043478261216" style="stroke-width: 0.5; stroke: rgb(68, 68, 68); stroke-opacity: 1; fill: rgb(171, 99, 250); fill-opacity: 0.8;"/><rect class="node-capture" x="-10" y="-7.5" width="25" height="63.913043478261216" style="fill-opacity: 0;"/><g class="node-entered" transform="translate(0 25.456521739130608)"><path class="node-label-guide" id="3db6d4_0_node_43" d="M9,0L640,0" transform="matrix(1 0 0 1 0 0)"/><text class="node-label" transform="scale(1 1)" style="user-select: none; cursor: default; fill: rgb(42, 63, 95); text-shadow: rgb(255, 255, 255) -1px 1px 1px, rgb(255, 255, 255) 1px 1px 1px, rgb(255, 255, 255) 1px -1px 1px, rgb(255, 255, 255) -1px -1px 1px; font-family: 'Open Sans', verdana, arial, sans-serif; font-size: 12px; fill-opacity: 1;"><textPath class="node-label-text-path" alignment-baseline="middle" xlink:href="#3db6d4_0_node_43" startOffset="0%" text-anchor="start" style="fill: rgb(0, 0, 0);">CNN</textPath></text></g></g><g class="sankey-node" transform="translate(317.500, 372.391)" style="opacity: 1;"><rect class="node-rect" width="5" height="24.45652173913038" style="stroke-width: 0.5; stroke: rgb(68, 68, 68); stroke-opacity: 1; fill: rgb(255, 161, 90); fill-opacity: 0.8;"/><rect class="node-capture" x="-10" y="-7.5" width="25" height="39.45652173913038" style="fill-opacity: 0;"/><g class="node-entered" transform="translate(0 13.22826086956519)"><path class="node-label-guide" id="3db6d4_0_node_44" d="M9,0L640,0" transform="matrix(1 0 0 1 0 0)"/><text class="node-label" transform="scale(1 1)" style="user-select: none; cursor: default; fill: rgb(42, 63, 95); text-shadow: rgb(255, 255, 255) -1px 1px 1px, rgb(255, 255, 255) 1px 1px 1px, rgb(255, 255, 255) 1px -1px 1px, rgb(255, 255, 255) -1px -1px 1px; font-family: 'Open Sans', verdana, arial, sans-serif; font-size: 12px; fill-opacity: 1;"><textPath class="node-label-text-path" alignment-baseline="middle" xlink:href="#3db6d4_0_node_44" startOffset="0%" text-anchor="start" style="fill: rgb(0, 0, 0);">GNN</textPath></text></g></g><g class="sankey-node" transform="translate(317.500, 5.217)" style="opacity: 1;"><rect class="node-rect" width="5" height="130.43478260869574" style="stroke-width: 0.5; stroke: rgb(68, 68, 68); stroke-opacity: 1; fill: rgb(25, 211, 243); fill-opacity: 0.8;"/><rect class="node-capture" x="-10" y="-7.5" width="25" height="145.43478260869574" style="fill-opacity: 0;"/><g class="node-entered" transform="translate(0 66.21739130434787)"><path class="node-label-guide" id="3db6d4_0_node_45" d="M9,0L640,0" transform="matrix(1 0 0 1 0 0)"/><text class="node-label" transform="scale(1 1)" style="user-select: none; cursor: default; fill: rgb(42, 63, 95); text-shadow: rgb(255, 255, 255) -1px 1px 1px, rgb(255, 255, 255) 1px 1px 1px, rgb(255, 255, 255) 1px -1px 1px, rgb(255, 255, 255) -1px -1px 1px; font-family: 'Open Sans', verdana, arial, sans-serif; font-size: 12px; fill-opacity: 1;"><textPath class="node-label-text-path" alignment-baseline="middle" xlink:href="#3db6d4_0_node_45" startOffset="0%" text-anchor="start" style="fill: rgb(0, 0, 0);">RNN</textPath></text></g></g><g class="sankey-node" transform="translate(317.500, 150.652)" style="opacity: 1;"><rect class="node-rect" width="5" height="16.304347826086854" style="stroke-width: 0.5; stroke: rgb(68, 68, 68); stroke-opacity: 1; fill: rgb(255, 102, 146); fill-opacity: 0.8;"/><rect class="node-capture" x="-10" y="-7.5" width="25" height="31.304347826086854" style="fill-opacity: 0;"/><g class="node-entered" transform="translate(0 9.152173913043427)"><path class="node-label-guide" id="3db6d4_0_node_46" d="M9,0L640,0" transform="matrix(1 0 0 1 0 0)"/><text class="node-label" transform="scale(1 1)" style="user-select: none; cursor: default; fill: rgb(42, 63, 95); text-shadow: rgb(255, 255, 255) -1px 1px 1px, rgb(255, 255, 255) 1px 1px 1px, rgb(255, 255, 255) 1px -1px 1px, rgb(255, 255, 255) -1px -1px 1px; font-family: 'Open Sans', verdana, arial, sans-serif; font-size: 12px; fill-opacity: 1;"><textPath class="node-label-text-path" alignment-baseline="middle" xlink:href="#3db6d4_0_node_46" startOffset="0%" text-anchor="start" style="fill: rgb(0, 0, 0);">RcNN</textPath></text></g></g><g class="sankey-node" transform="translate(317.500, 332.935)" style="opacity: 1;"><rect class="node-rect" width="5" height="24.456521739130608" style="stroke-width: 0.5; stroke: rgb(68, 68, 68); stroke-opacity: 1; fill: rgb(182, 232, 128); fill-opacity: 0.8;"/><rect class="node-capture" x="-10" y="-7.5" width="25" height="39.45652173913061" style="fill-opacity: 0;"/><g class="node-entered" transform="translate(0 13.228260869565304)"><path class="node-label-guide" id="3db6d4_0_node_47" d="M9,0L640,0" transform="matrix(1 0 0 1 0 0)"/><text class="node-label" transform="scale(1 1)" style="user-select: none; cursor: default; fill: rgb(42, 63, 95); text-shadow: rgb(255, 255, 255) -1px 1px 1px, rgb(255, 255, 255) 1px 1px 1px, rgb(255, 255, 255) 1px -1px 1px, rgb(255, 255, 255) -1px -1px 1px; font-family: 'Open Sans', verdana, arial, sans-serif; font-size: 12px; fill-opacity: 1;"><textPath class="node-label-text-path" alignment-baseline="middle" xlink:href="#3db6d4_0_node_47" startOffset="0%" text-anchor="start" style="fill: rgb(0, 0, 0);">Transformer</textPath></text></g></g><g class="sankey-node" transform="translate(317.500, 411.848)" style="opacity: 1;"><rect class="node-rect" width="5" height="8.15217391304327" style="stroke-width: 0.5; stroke: rgb(68, 68, 68); stroke-opacity: 1; fill: rgb(255, 151, 255); fill-opacity: 0.8;"/><rect class="node-capture" x="-10" y="-7.5" width="25" height="23.15217391304327" style="fill-opacity: 0;"/><g class="node-entered" transform="translate(0 5.076086956521635)"><path class="node-label-guide" id="3db6d4_0_node_48" d="M9,0L640,0" transform="matrix(1 0 0 1 0 0)"/><text class="node-label" transform="scale(1 1)" style="user-select: none; cursor: default; fill: rgb(42, 63, 95); text-shadow: rgb(255, 255, 255) -1px 1px 1px, rgb(255, 255, 255) 1px 1px 1px, rgb(255, 255, 255) 1px -1px 1px, rgb(255, 255, 255) -1px -1px 1px; font-family: 'Open Sans', verdana, arial, sans-serif; font-size: 12px; fill-opacity: 1;"><textPath class="node-label-text-path" alignment-baseline="middle" xlink:href="#3db6d4_0_node_48" startOffset="0%" text-anchor="start" style="fill: rgb(0, 0, 0);">LTN</textPath></text></g></g><g class="sankey-node" transform="translate(635.000, 243.130)" style="opacity: 1;"><rect class="node-rect" width="5" height="8.152173913043498" style="stroke-width: 0.5; stroke: rgb(68, 68, 68); stroke-opacity: 1; fill: rgb(254, 203, 82); fill-opacity: 0.8;"/><rect class="node-capture" x="-10" y="-7.5" width="25" height="23.152173913043498" style="fill-opacity: 0;"/><g class="node-entered" transform="translate(0 5.076086956521749)"><path class="node-label-guide" id="3db6d4_0_node_49" d="M-640,0L-4,0" transform="matrix(1 0 0 1 0 0)"/><text class="node-label" transform="scale(1 1)" style="user-select: none; cursor: default; fill: rgb(42, 63, 95); text-shadow: rgb(255, 255, 255) -1px 1px 1px, rgb(255, 255, 255) 1px 1px 1px, rgb(255, 255, 255) 1px -1px 1px, rgb(255, 255, 255) -1px -1px 1px; font-family: 'Open Sans', verdana, arial, sans-serif; font-size: 12px; fill-opacity: 1;"><textPath class="node-label-text-path" alignment-baseline="middle" xlink:href="#3db6d4_0_node_49" startOffset="100%" text-anchor="end" style="fill: rgb(0, 0, 0);">RKNN</textPath></text></g></g><g class="sankey-node" transform="translate(635.000, 61.141)" style="opacity: 1;"><rect class="node-rect" width="5" height="16.30434782608691" style="stroke-width: 0.5; stroke: rgb(68, 68, 68); stroke-opacity: 1; fill: rgb(99, 110, 250); fill-opacity: 0.8;"/><rect class="node-capture" x="-10" y="-7.5" width="25" height="31.30434782608691" style="fill-opacity: 0;"/><g class="node-entered" transform="translate(0 9.152173913043455)"><path class="node-label-guide" id="3db6d4_0_node_50" d="M-640,0L-4,0" transform="matrix(1 0 0 1 0 0)"/><text class="node-label" transform="scale(1 1)" style="user-select: none; cursor: default; fill: rgb(42, 63, 95); text-shadow: rgb(255, 255, 255) -1px 1px 1px, rgb(255, 255, 255) 1px 1px 1px, rgb(255, 255, 255) 1px -1px 1px, rgb(255, 255, 255) -1px -1px 1px; font-family: 'Open Sans', verdana, arial, sans-serif; font-size: 12px; fill-opacity: 1;"><textPath class="node-label-text-path" alignment-baseline="middle" xlink:href="#3db6d4_0_node_50" startOffset="100%" text-anchor="end" style="fill: rgb(0, 0, 0);">RL</textPath></text></g></g><g class="sankey-node" transform="translate(635.000, 211.826)" style="opacity: 1;"><rect class="node-rect" width="5" height="16.30434782608694" style="stroke-width: 0.5; stroke: rgb(68, 68, 68); stroke-opacity: 1; fill: rgb(239, 85, 59); fill-opacity: 0.8;"/><rect class="node-capture" x="-10" y="-7.5" width="25" height="31.30434782608694" style="fill-opacity: 0;"/><g class="node-entered" transform="translate(0 9.15217391304347)"><path class="node-label-guide" id="3db6d4_0_node_51" d="M-640,0L-4,0" transform="matrix(1 0 0 1 0 0)"/><text class="node-label" transform="scale(1 1)" style="user-select: none; cursor: default; fill: rgb(42, 63, 95); text-shadow: rgb(255, 255, 255) -1px 1px 1px, rgb(255, 255, 255) 1px 1px 1px, rgb(255, 255, 255) 1px -1px 1px, rgb(255, 255, 255) -1px -1px 1px; font-family: 'Open Sans', verdana, arial, sans-serif; font-size: 12px; fill-opacity: 1;"><textPath class="node-label-text-path" alignment-baseline="middle" xlink:href="#3db6d4_0_node_51" startOffset="100%" text-anchor="end" style="fill: rgb(0, 0, 0);">Stacked hidden layers</textPath></text></g></g><g class="sankey-node" transform="translate(635.000, 271.007)" style="opacity: 1;"><rect class="node-rect" width="5" height="16.30434782608677" style="stroke-width: 0.5; stroke: rgb(68, 68, 68); stroke-opacity: 1; fill: rgb(0, 204, 150); fill-opacity: 0.8;"/><rect class="node-capture" x="-10" y="-7.5" width="25" height="31.30434782608677" style="fill-opacity: 0;"/><g class="node-entered" transform="translate(0 9.152173913043384)"><path class="node-label-guide" id="3db6d4_0_node_52" d="M-640,0L-4,0" transform="matrix(1 0 0 1 0 0)"/><text class="node-label" transform="scale(1 1)" style="user-select: none; cursor: default; fill: rgb(42, 63, 95); text-shadow: rgb(255, 255, 255) -1px 1px 1px, rgb(255, 255, 255) 1px 1px 1px, rgb(255, 255, 255) 1px -1px 1px, rgb(255, 255, 255) -1px -1px 1px; font-family: 'Open Sans', verdana, arial, sans-serif; font-size: 12px; fill-opacity: 1;"><textPath class="node-label-text-path" alignment-baseline="middle" xlink:href="#3db6d4_0_node_52" startOffset="100%" text-anchor="end" style="fill: rgb(0, 0, 0);">Euclidean Space</textPath></text></g></g><g class="sankey-node" transform="translate(635.000, 180.522)" style="opacity: 1;"><rect class="node-rect" width="5" height="16.304347826086996" style="stroke-width: 0.5; stroke: rgb(68, 68, 68); stroke-opacity: 1; fill: rgb(171, 99, 250); fill-opacity: 0.8;"/><rect class="node-capture" x="-10" y="-7.5" width="25" height="31.304347826086996" style="fill-opacity: 0;"/><g class="node-entered" transform="translate(0 9.152173913043498)"><path class="node-label-guide" id="3db6d4_0_node_53" d="M-640,0L-4,0" transform="matrix(1 0 0 1 0 0)"/><text class="node-label" transform="scale(1 1)" style="user-select: none; cursor: default; fill: rgb(42, 63, 95); text-shadow: rgb(255, 255, 255) -1px 1px 1px, rgb(255, 255, 255) 1px 1px 1px, rgb(255, 255, 255) 1px -1px 1px, rgb(255, 255, 255) -1px -1px 1px; font-family: 'Open Sans', verdana, arial, sans-serif; font-size: 12px; fill-opacity: 1;"><textPath class="node-label-text-path" alignment-baseline="middle" xlink:href="#3db6d4_0_node_53" startOffset="100%" text-anchor="end" style="fill: rgb(0, 0, 0);">Sequence-to-Sequence</textPath></text></g></g><g class="sankey-node" transform="translate(635.000, 327.153)" style="opacity: 1;"><rect class="node-rect" width="5" height="16.304347826086996" style="stroke-width: 0.5; stroke: rgb(68, 68, 68); stroke-opacity: 1; fill: rgb(255, 161, 90); fill-opacity: 0.8;"/><rect class="node-capture" x="-10" y="-7.5" width="25" height="31.304347826086996" style="fill-opacity: 0;"/><g class="node-entered" transform="translate(0 9.152173913043498)"><path class="node-label-guide" id="3db6d4_0_node_54" d="M-640,0L-4,0" transform="matrix(1 0 0 1 0 0)"/><text class="node-label" transform="scale(1 1)" style="user-select: none; cursor: default; fill: rgb(42, 63, 95); text-shadow: rgb(255, 255, 255) -1px 1px 1px, rgb(255, 255, 255) 1px 1px 1px, rgb(255, 255, 255) 1px -1px 1px, rgb(255, 255, 255) -1px -1px 1px; font-family: 'Open Sans', verdana, arial, sans-serif; font-size: 12px; fill-opacity: 1;"><textPath class="node-label-text-path" alignment-baseline="middle" xlink:href="#3db6d4_0_node_54" startOffset="100%" text-anchor="end" style="fill: rgb(0, 0, 0);">Neuro-Symbolic</textPath></text></g></g></g></g><defs id="topdefs-1728a8"><g class="clips"/></defs><g class="layer-above"><g class="imagelayer"/><g class="shapelayer"/></g><g class="infolayer"><g class="g-gtitle"/><g class="first-render"/></g></svg>