<?xml version="1.0" encoding="utf-8" standalone="no"?>
<!DOCTYPE svg PUBLIC "-//W3C//DTD SVG 1.1//EN"
  "http://www.w3.org/Graphics/SVG/1.1/DTD/svg11.dtd">
<!-- Created with matplotlib (https://matplotlib.org/) -->
<svg height="266.709687pt" version="1.1" viewBox="0 0 385.115 266.709687" width="385.115pt" xmlns="http://www.w3.org/2000/svg" xmlns:xlink="http://www.w3.org/1999/xlink">
 <metadata>
  <rdf:RDF xmlns:cc="http://creativecommons.org/ns#" xmlns:dc="http://purl.org/dc/elements/1.1/" xmlns:rdf="http://www.w3.org/1999/02/22-rdf-syntax-ns#">
   <cc:Work>
    <dc:type rdf:resource="http://purl.org/dc/dcmitype/StillImage"/>
    <dc:date>2022-06-01T08:02:20.082146</dc:date>
    <dc:format>image/svg+xml</dc:format>
    <dc:creator>
     <cc:Agent>
      <dc:title>Matplotlib v3.3.2, https://matplotlib.org/</dc:title>
     </cc:Agent>
    </dc:creator>
   </cc:Work>
  </rdf:RDF>
 </metadata>
 <defs>
  <style type="text/css">*{stroke-linecap:butt;stroke-linejoin:round;}</style>
 </defs>
 <g id="figure_1">
  <g id="patch_1">
   <path d="M 0 266.709687 
L 385.115 266.709687 
L 385.115 0 
L 0 0 
z
" style="fill:none;"/>
  </g>
  <g id="axes_1">
   <g id="patch_2">
    <path d="M 43.115 241.072187 
L 377.915 241.072187 
L 377.915 23.632187 
L 43.115 23.632187 
z
" style="fill:#ffffff;"/>
   </g>
   <g id="patch_3">
    <path clip-path="url(#pda8c952cd6)" d="M 134.424091 241.072187 
L 149.642273 241.072187 
L 149.642273 208.715045 
L 134.424091 208.715045 
z
" style="fill:#2070b4;"/>
   </g>
   <g id="patch_4">
    <path clip-path="url(#pda8c952cd6)" d="M 149.642273 241.072187 
L 164.860455 241.072187 
L 164.860455 241.072187 
L 149.642273 241.072187 
z
" style="fill:#2070b4;"/>
   </g>
   <g id="patch_5">
    <path clip-path="url(#pda8c952cd6)" d="M 164.860455 241.072187 
L 180.078636 241.072187 
L 180.078636 163.415045 
L 164.860455 163.415045 
z
" style="fill:#2070b4;"/>
   </g>
   <g id="patch_6">
    <path clip-path="url(#pda8c952cd6)" d="M 180.078636 241.072187 
L 195.296818 241.072187 
L 195.296818 241.072187 
L 180.078636 241.072187 
z
" style="fill:#2070b4;"/>
   </g>
   <g id="patch_7">
    <path clip-path="url(#pda8c952cd6)" d="M 195.296818 241.072187 
L 210.515 241.072187 
L 210.515 241.072187 
L 195.296818 241.072187 
z
" style="fill:#2070b4;"/>
   </g>
   <g id="patch_8">
    <path clip-path="url(#pda8c952cd6)" d="M 210.515 241.072187 
L 225.733182 241.072187 
L 225.733182 33.986473 
L 210.515 33.986473 
z
" style="fill:#2070b4;"/>
   </g>
   <g id="patch_9">
    <path clip-path="url(#pda8c952cd6)" d="M 225.733182 241.072187 
L 240.951364 241.072187 
L 240.951364 241.072187 
L 225.733182 241.072187 
z
" style="fill:#2070b4;"/>
   </g>
   <g id="patch_10">
    <path clip-path="url(#pda8c952cd6)" d="M 240.951364 241.072187 
L 256.169545 241.072187 
L 256.169545 182.82933 
L 240.951364 182.82933 
z
" style="fill:#2070b4;"/>
   </g>
   <g id="patch_11">
    <path clip-path="url(#pda8c952cd6)" d="M 256.169545 241.072187 
L 271.387727 241.072187 
L 271.387727 241.072187 
L 256.169545 241.072187 
z
" style="fill:#2070b4;"/>
   </g>
   <g id="patch_12">
    <path clip-path="url(#pda8c952cd6)" d="M 271.387727 241.072187 
L 286.605909 241.072187 
L 286.605909 221.657902 
L 271.387727 221.657902 
z
" style="fill:#2070b4;"/>
   </g>
   <g id="matplotlib.axis_1">
    <g id="xtick_1">
     <g id="line2d_1">
      <defs>
       <path d="M 0 0 
L 0 3.5 
" id="m8aeca8c7c3" style="stroke:#000000;stroke-width:0.8;"/>
      </defs>
      <g>
       <use style="stroke:#000000;stroke-width:0.8;" x="81.160455" xlink:href="#m8aeca8c7c3" y="241.072187"/>
      </g>
     </g>
     <g id="text_1">
      <!-- 0.4 -->
      <g transform="translate(72.842955 257.072187)scale(0.12 -0.12)">
       <defs>
        <path d="M 50.484375 30.328125 
Q 50.484375 14.453125 45.0625 6.734375 
Q 39.65625 -0.984375 28.125 -0.984375 
Q 16.75 -0.984375 11.28125 6.5625 
Q 5.8125 14.109375 5.609375 29.109375 
L 5.609375 41.15625 
Q 5.609375 56.84375 11.03125 64.453125 
Q 16.453125 72.078125 28.03125 72.078125 
Q 39.5 72.078125 44.921875 64.71875 
Q 50.34375 57.375 50.484375 42.046875 
z
M 41.453125 42.671875 
Q 41.453125 54.15625 38.234375 59.40625 
Q 35.015625 64.65625 28.03125 64.65625 
Q 21.09375 64.65625 17.921875 59.421875 
Q 14.75 54.203125 14.65625 43.359375 
L 14.65625 28.90625 
Q 14.65625 17.390625 18 11.890625 
Q 21.34375 6.390625 28.125 6.390625 
Q 34.8125 6.390625 38.0625 11.5625 
Q 41.3125 16.75 41.453125 27.875 
z
" id="Roboto-Regular-48"/>
        <path d="M 7.03125 4.734375 
Q 7.03125 7.078125 8.421875 8.640625 
Q 9.8125 10.203125 12.59375 10.203125 
Q 15.375 10.203125 16.8125 8.640625 
Q 18.265625 7.078125 18.265625 4.734375 
Q 18.265625 2.484375 16.8125 0.96875 
Q 15.375 -0.53125 12.59375 -0.53125 
Q 9.8125 -0.53125 8.421875 0.96875 
Q 7.03125 2.484375 7.03125 4.734375 
z
" id="Roboto-Regular-46"/>
        <path d="M 44.046875 23.875 
L 53.90625 23.875 
L 53.90625 16.5 
L 44.046875 16.5 
L 44.046875 0 
L 34.96875 0 
L 34.96875 16.5 
L 2.59375 16.5 
L 2.59375 21.828125 
L 34.421875 71.09375 
L 44.046875 71.09375 
z
M 12.84375 23.875 
L 34.96875 23.875 
L 34.96875 58.734375 
L 33.890625 56.78125 
z
" id="Roboto-Regular-52"/>
       </defs>
       <use xlink:href="#Roboto-Regular-48"/>
       <use x="56.152344" xlink:href="#Roboto-Regular-46"/>
       <use x="82.470703" xlink:href="#Roboto-Regular-52"/>
      </g>
     </g>
    </g>
    <g id="xtick_2">
     <g id="line2d_2">
      <g>
       <use style="stroke:#000000;stroke-width:0.8;" x="149.642273" xlink:href="#m8aeca8c7c3" y="241.072187"/>
      </g>
     </g>
     <g id="text_2">
      <!-- 0.6 -->
      <g transform="translate(141.324773 257.072187)scale(0.12 -0.12)">
       <defs>
        <path d="M 41.359375 71.140625 
L 41.359375 63.484375 
L 39.703125 63.484375 
Q 29.15625 63.28125 22.90625 57.21875 
Q 16.65625 51.171875 15.671875 40.1875 
Q 21.296875 46.625 31 46.625 
Q 40.28125 46.625 45.828125 40.078125 
Q 51.375 33.546875 51.375 23.1875 
Q 51.375 12.203125 45.390625 5.609375 
Q 39.40625 -0.984375 29.34375 -0.984375 
Q 19.140625 -0.984375 12.796875 6.859375 
Q 6.453125 14.703125 6.453125 27.046875 
L 6.453125 30.515625 
Q 6.453125 50.140625 14.8125 60.515625 
Q 23.1875 70.90625 39.75 71.140625 
z
M 29.5 39.109375 
Q 24.859375 39.109375 20.953125 36.328125 
Q 17.046875 33.546875 15.53125 29.34375 
L 15.53125 26.03125 
Q 15.53125 17.234375 19.484375 11.859375 
Q 23.4375 6.5 29.34375 6.5 
Q 35.453125 6.5 38.9375 10.984375 
Q 42.4375 15.484375 42.4375 22.75 
Q 42.4375 30.078125 38.890625 34.59375 
Q 35.359375 39.109375 29.5 39.109375 
z
" id="Roboto-Regular-54"/>
       </defs>
       <use xlink:href="#Roboto-Regular-48"/>
       <use x="56.152344" xlink:href="#Roboto-Regular-46"/>
       <use x="82.470703" xlink:href="#Roboto-Regular-54"/>
      </g>
     </g>
    </g>
    <g id="xtick_3">
     <g id="line2d_3">
      <g>
       <use style="stroke:#000000;stroke-width:0.8;" x="218.124091" xlink:href="#m8aeca8c7c3" y="241.072187"/>
      </g>
     </g>
     <g id="text_3">
      <!-- 0.8 -->
      <g transform="translate(209.806591 257.072187)scale(0.12 -0.12)">
       <defs>
        <path d="M 49.03125 52.546875 
Q 49.03125 47.21875 46.21875 43.0625 
Q 43.40625 38.921875 38.625 36.578125 
Q 44.1875 34.1875 47.4375 29.59375 
Q 50.6875 25 50.6875 19.1875 
Q 50.6875 9.96875 44.453125 4.484375 
Q 38.234375 -0.984375 28.078125 -0.984375 
Q 17.828125 -0.984375 11.640625 4.515625 
Q 5.46875 10.015625 5.46875 19.1875 
Q 5.46875 24.953125 8.609375 29.59375 
Q 11.765625 34.234375 17.328125 36.625 
Q 12.59375 38.96875 9.859375 43.109375 
Q 7.125 47.265625 7.125 52.546875 
Q 7.125 61.53125 12.890625 66.796875 
Q 18.65625 72.078125 28.078125 72.078125 
Q 37.453125 72.078125 43.234375 66.796875 
Q 49.03125 61.53125 49.03125 52.546875 
z
M 41.65625 19.390625 
Q 41.65625 25.34375 37.859375 29.09375 
Q 34.078125 32.859375 27.96875 32.859375 
Q 21.875 32.859375 18.1875 29.140625 
Q 14.5 25.4375 14.5 19.375 
Q 14.5 13.328125 18.09375 9.859375 
Q 21.6875 6.390625 28.078125 6.390625 
Q 34.421875 6.390625 38.03125 9.875 
Q 41.65625 13.375 41.65625 19.390625 
z
M 28.078125 64.65625 
Q 22.75 64.65625 19.453125 61.359375 
Q 16.15625 58.0625 16.15625 52.390625 
Q 16.15625 46.96875 19.40625 43.625 
Q 22.65625 40.28125 28.078125 40.28125 
Q 33.5 40.28125 36.734375 43.625 
Q 39.984375 46.96875 39.984375 52.390625 
Q 39.984375 57.8125 36.609375 61.234375 
Q 33.25 64.65625 28.078125 64.65625 
z
" id="Roboto-Regular-56"/>
       </defs>
       <use xlink:href="#Roboto-Regular-48"/>
       <use x="56.152344" xlink:href="#Roboto-Regular-46"/>
       <use x="82.470703" xlink:href="#Roboto-Regular-56"/>
      </g>
     </g>
    </g>
    <g id="xtick_4">
     <g id="line2d_4">
      <g>
       <use style="stroke:#000000;stroke-width:0.8;" x="286.605909" xlink:href="#m8aeca8c7c3" y="241.072187"/>
      </g>
     </g>
     <g id="text_4">
      <!-- 1.0 -->
      <g transform="translate(278.288409 257.072187)scale(0.12 -0.12)">
       <defs>
        <path d="M 35.59375 0 
L 26.515625 0 
L 26.515625 60.203125 
L 8.296875 53.515625 
L 8.296875 61.71875 
L 34.1875 71.4375 
L 35.59375 71.4375 
z
" id="Roboto-Regular-49"/>
       </defs>
       <use xlink:href="#Roboto-Regular-49"/>
       <use x="56.152344" xlink:href="#Roboto-Regular-46"/>
       <use x="82.470703" xlink:href="#Roboto-Regular-48"/>
      </g>
     </g>
    </g>
    <g id="xtick_5">
     <g id="line2d_5">
      <g>
       <use style="stroke:#000000;stroke-width:0.8;" x="355.087727" xlink:href="#m8aeca8c7c3" y="241.072187"/>
      </g>
     </g>
     <g id="text_5">
      <!-- 1.2 -->
      <g transform="translate(346.770227 257.072187)scale(0.12 -0.12)">
       <defs>
        <path d="M 52.484375 0 
L 5.90625 0 
L 5.90625 6.5 
L 30.515625 33.84375 
Q 35.984375 40.046875 38.0625 43.921875 
Q 40.140625 47.796875 40.140625 51.953125 
Q 40.140625 57.515625 36.765625 61.078125 
Q 33.40625 64.65625 27.78125 64.65625 
Q 21.046875 64.65625 17.3125 60.8125 
Q 13.578125 56.984375 13.578125 50.140625 
L 4.546875 50.140625 
Q 4.546875 59.96875 10.859375 66.015625 
Q 17.1875 72.078125 27.78125 72.078125 
Q 37.703125 72.078125 43.453125 66.875 
Q 49.21875 61.671875 49.21875 53.03125 
Q 49.21875 42.53125 35.84375 28.03125 
L 16.796875 7.375 
L 52.484375 7.375 
z
" id="Roboto-Regular-50"/>
       </defs>
       <use xlink:href="#Roboto-Regular-49"/>
       <use x="56.152344" xlink:href="#Roboto-Regular-46"/>
       <use x="82.470703" xlink:href="#Roboto-Regular-50"/>
      </g>
     </g>
    </g>
   </g>
   <g id="matplotlib.axis_2">
    <g id="ytick_1">
     <g id="line2d_6">
      <defs>
       <path d="M 0 0 
L -3.5 0 
" id="m80a499ade0" style="stroke:#000000;stroke-width:0.8;"/>
      </defs>
      <g>
       <use style="stroke:#000000;stroke-width:0.8;" x="43.115" xlink:href="#m80a499ade0" y="241.072187"/>
      </g>
     </g>
     <g id="text_6">
      <!-- 0 -->
      <g transform="translate(29.37625 245.572187)scale(0.12 -0.12)">
       <use xlink:href="#Roboto-Regular-48"/>
      </g>
     </g>
    </g>
    <g id="ytick_2">
     <g id="line2d_7">
      <g>
       <use style="stroke:#000000;stroke-width:0.8;" x="43.115" xlink:href="#m80a499ade0" y="205.982664"/>
      </g>
     </g>
     <g id="text_7">
      <!-- 2 -->
      <g transform="translate(29.37625 210.482664)scale(0.12 -0.12)">
       <use xlink:href="#Roboto-Regular-50"/>
      </g>
     </g>
    </g>
    <g id="ytick_3">
     <g id="line2d_8">
      <g>
       <use style="stroke:#000000;stroke-width:0.8;" x="43.115" xlink:href="#m80a499ade0" y="170.89314"/>
      </g>
     </g>
     <g id="text_8">
      <!-- 4 -->
      <g transform="translate(29.37625 175.39314)scale(0.12 -0.12)">
       <use xlink:href="#Roboto-Regular-52"/>
      </g>
     </g>
    </g>
    <g id="ytick_4">
     <g id="line2d_9">
      <g>
       <use style="stroke:#000000;stroke-width:0.8;" x="43.115" xlink:href="#m80a499ade0" y="135.803616"/>
      </g>
     </g>
     <g id="text_9">
      <!-- 6 -->
      <g transform="translate(29.37625 140.303616)scale(0.12 -0.12)">
       <use xlink:href="#Roboto-Regular-54"/>
      </g>
     </g>
    </g>
    <g id="ytick_5">
     <g id="line2d_10">
      <g>
       <use style="stroke:#000000;stroke-width:0.8;" x="43.115" xlink:href="#m80a499ade0" y="100.714092"/>
      </g>
     </g>
     <g id="text_10">
      <!-- 8 -->
      <g transform="translate(29.37625 105.214092)scale(0.12 -0.12)">
       <use xlink:href="#Roboto-Regular-56"/>
      </g>
     </g>
    </g>
    <g id="ytick_6">
     <g id="line2d_11">
      <g>
       <use style="stroke:#000000;stroke-width:0.8;" x="43.115" xlink:href="#m80a499ade0" y="65.624568"/>
      </g>
     </g>
     <g id="text_11">
      <!-- 10 -->
      <g transform="translate(22.6375 70.124568)scale(0.12 -0.12)">
       <use xlink:href="#Roboto-Regular-49"/>
       <use x="56.152344" xlink:href="#Roboto-Regular-48"/>
      </g>
     </g>
    </g>
    <g id="ytick_7">
     <g id="line2d_12">
      <g>
       <use style="stroke:#000000;stroke-width:0.8;" x="43.115" xlink:href="#m80a499ade0" y="30.535045"/>
      </g>
     </g>
     <g id="text_12">
      <!-- 12 -->
      <g transform="translate(22.6375 35.035045)scale(0.12 -0.12)">
       <use xlink:href="#Roboto-Regular-49"/>
       <use x="56.152344" xlink:href="#Roboto-Regular-50"/>
      </g>
     </g>
    </g>
    <g id="text_13">
     <!-- Frequency -->
     <g transform="translate(16.07625 160.065625)rotate(-90)scale(0.12 -0.12)">
      <defs>
       <path d="M 47.46875 31.390625 
L 17.625 31.390625 
L 17.625 0 
L 8.25 0 
L 8.25 71.09375 
L 52.296875 71.09375 
L 52.296875 63.375 
L 17.625 63.375 
L 17.625 39.0625 
L 47.46875 39.0625 
z
" id="Roboto-Regular-70"/>
       <path d="M 32.375 44.734375 
Q 30.328125 45.0625 27.9375 45.0625 
Q 19.046875 45.0625 15.875 37.5 
L 15.875 0 
L 6.84375 0 
L 6.84375 52.828125 
L 15.625 52.828125 
L 15.765625 46.734375 
Q 20.21875 53.8125 28.375 53.8125 
Q 31 53.8125 32.375 53.125 
z
" id="Roboto-Regular-114"/>
       <path d="M 28.765625 -0.984375 
Q 18.015625 -0.984375 11.28125 6.078125 
Q 4.546875 13.140625 4.546875 24.953125 
L 4.546875 26.609375 
Q 4.546875 34.46875 7.546875 40.640625 
Q 10.546875 46.828125 15.9375 50.3125 
Q 21.34375 53.8125 27.640625 53.8125 
Q 37.9375 53.8125 43.640625 47.015625 
Q 49.359375 40.234375 49.359375 27.59375 
L 49.359375 23.828125 
L 13.578125 23.828125 
Q 13.765625 16.015625 18.140625 11.203125 
Q 22.515625 6.390625 29.25 6.390625 
Q 34.03125 6.390625 37.34375 8.34375 
Q 40.671875 10.296875 43.171875 13.53125 
L 48.6875 9.234375 
Q 42.046875 -0.984375 28.765625 -0.984375 
z
M 27.640625 46.390625 
Q 22.171875 46.390625 18.453125 42.40625 
Q 14.75 38.421875 13.875 31.25 
L 40.328125 31.25 
L 40.328125 31.9375 
Q 39.9375 38.8125 36.609375 42.59375 
Q 33.296875 46.390625 27.640625 46.390625 
z
" id="Roboto-Regular-101"/>
       <path d="M 4.640625 26.859375 
Q 4.640625 39.3125 10.34375 46.5625 
Q 16.0625 53.8125 25.6875 53.8125 
Q 35.0625 53.8125 40.484375 47.515625 
L 40.875 52.828125 
L 49.171875 52.828125 
L 49.171875 -20.3125 
L 40.140625 -20.3125 
L 40.140625 4.890625 
Q 34.671875 -0.984375 25.59375 -0.984375 
Q 16.015625 -0.984375 10.328125 6.46875 
Q 4.640625 13.921875 4.640625 26.21875 
z
M 13.671875 25.828125 
Q 13.671875 16.75 17.5 11.5625 
Q 21.34375 6.390625 27.828125 6.390625 
Q 35.890625 6.390625 40.140625 13.53125 
L 40.140625 39.40625 
Q 35.84375 46.390625 27.9375 46.390625 
Q 21.390625 46.390625 17.53125 41.1875 
Q 13.671875 35.984375 13.671875 25.828125 
z
" id="Roboto-Regular-113"/>
       <path d="M 39.453125 5.21875 
Q 34.1875 -0.984375 23.96875 -0.984375 
Q 15.53125 -0.984375 11.109375 3.921875 
Q 6.6875 8.84375 6.640625 18.453125 
L 6.640625 52.828125 
L 15.671875 52.828125 
L 15.671875 18.703125 
Q 15.671875 6.6875 25.4375 6.6875 
Q 35.796875 6.6875 39.203125 14.40625 
L 39.203125 52.828125 
L 48.25 52.828125 
L 48.25 0 
L 39.65625 0 
z
" id="Roboto-Regular-117"/>
       <path d="M 15.375 52.828125 
L 15.671875 46.1875 
Q 21.734375 53.8125 31.5 53.8125 
Q 48.25 53.8125 48.390625 34.90625 
L 48.390625 0 
L 39.359375 0 
L 39.359375 34.96875 
Q 39.3125 40.671875 36.75 43.40625 
Q 34.1875 46.140625 28.765625 46.140625 
Q 24.359375 46.140625 21.03125 43.796875 
Q 17.71875 41.453125 15.875 37.640625 
L 15.875 0 
L 6.84375 0 
L 6.84375 52.828125 
z
" id="Roboto-Regular-110"/>
       <path d="M 28.03125 6.390625 
Q 32.859375 6.390625 36.46875 9.3125 
Q 40.09375 12.25 40.484375 16.65625 
L 49.03125 16.65625 
Q 48.78125 12.109375 45.890625 8 
Q 43.015625 3.90625 38.203125 1.453125 
Q 33.40625 -0.984375 28.03125 -0.984375 
Q 17.234375 -0.984375 10.859375 6.21875 
Q 4.5 13.421875 4.5 25.921875 
L 4.5 27.4375 
Q 4.5 35.15625 7.328125 41.15625 
Q 10.15625 47.171875 15.453125 50.484375 
Q 20.75 53.8125 27.984375 53.8125 
Q 36.859375 53.8125 42.75 48.484375 
Q 48.640625 43.171875 49.03125 34.671875 
L 40.484375 34.671875 
Q 40.09375 39.796875 36.59375 43.09375 
Q 33.109375 46.390625 27.984375 46.390625 
Q 21.09375 46.390625 17.3125 41.421875 
Q 13.53125 36.46875 13.53125 27.09375 
L 13.53125 25.390625 
Q 13.53125 16.265625 17.28125 11.328125 
Q 21.046875 6.390625 28.03125 6.390625 
z
" id="Roboto-Regular-99"/>
       <path d="M 24.125 13.234375 
L 36.421875 52.828125 
L 46.09375 52.828125 
L 24.859375 -8.15625 
Q 19.921875 -21.34375 9.1875 -21.34375 
L 7.46875 -21.1875 
L 4.109375 -20.5625 
L 4.109375 -13.234375 
L 6.546875 -13.421875 
Q 11.140625 -13.421875 13.703125 -11.5625 
Q 16.265625 -9.71875 17.921875 -4.78125 
L 19.921875 0.59375 
L 1.078125 52.828125 
L 10.9375 52.828125 
z
" id="Roboto-Regular-121"/>
      </defs>
      <use xlink:href="#Roboto-Regular-70"/>
      <use x="55.273438" xlink:href="#Roboto-Regular-114"/>
      <use x="89.111328" xlink:href="#Roboto-Regular-101"/>
      <use x="142.089844" xlink:href="#Roboto-Regular-113"/>
      <use x="198.925781" xlink:href="#Roboto-Regular-117"/>
      <use x="254.052734" xlink:href="#Roboto-Regular-101"/>
      <use x="307.03125" xlink:href="#Roboto-Regular-110"/>
      <use x="362.207031" xlink:href="#Roboto-Regular-99"/>
      <use x="414.550781" xlink:href="#Roboto-Regular-121"/>
     </g>
    </g>
   </g>
   <g id="line2d_13">
    <path clip-path="url(#pda8c952cd6)" d="M 58.333182 241.072102 
L 86.362666 240.963082 
L 92.7607 240.716999 
L 97.330725 240.327621 
L 100.986744 239.80668 
L 104.338096 239.110893 
L 107.384779 238.265246 
L 110.431462 237.203829 
L 113.782813 235.8006 
L 118.04817 233.745604 
L 126.274214 229.70732 
L 129.625565 228.363456 
L 132.672248 227.38932 
L 136.0236 226.570584 
L 145.772985 224.407091 
L 148.210332 223.506355 
L 150.34301 222.49405 
L 152.475688 221.256171 
L 154.913034 219.575949 
L 157.655049 217.407176 
L 163.139079 212.683281 
L 166.49043 209.961679 
L 169.232445 208.015491 
L 171.974459 206.3575 
L 175.325811 204.616758 
L 179.286499 202.535748 
L 181.419177 201.149653 
L 183.247187 199.684247 
L 184.770528 198.210641 
L 186.29387 196.471134 
L 188.12188 194.002246 
L 189.949889 191.107394 
L 191.777899 187.808532 
L 194.215246 182.886672 
L 198.175934 174.224104 
L 201.222617 167.813994 
L 203.050627 164.436301 
L 204.573968 162.038084 
L 205.792641 160.454202 
L 207.011314 159.208681 
L 208.229988 158.331967 
L 209.143993 157.930339 
L 210.057998 157.755361 
L 210.972002 157.810514 
L 211.886007 158.096356 
L 212.800012 158.610518 
L 213.714017 159.347755 
L 214.93269 160.663502 
L 216.151364 162.335118 
L 217.674705 164.87342 
L 219.502715 168.47187 
L 221.635393 173.232224 
L 225.596081 182.800861 
L 228.947432 190.644956 
L 231.080111 195.142407 
L 233.212789 199.110784 
L 235.040799 202.050972 
L 236.868808 204.566369 
L 238.696818 206.686361 
L 240.524828 208.46156 
L 242.657506 210.183922 
L 245.094853 211.832858 
L 249.360209 214.367672 
L 253.625565 216.989081 
L 257.586253 219.709018 
L 266.116966 225.71214 
L 268.85898 227.323599 
L 271.600995 228.664398 
L 274.038342 229.619952 
L 276.780356 230.454615 
L 280.131708 231.213099 
L 286.83441 232.398654 
L 291.404435 233.342766 
L 295.669791 234.452076 
L 302.067826 236.385905 
L 308.161192 238.14917 
L 312.426548 239.147775 
L 316.387236 239.850025 
L 320.652592 240.374374 
L 325.527285 240.736469 
L 331.620651 240.954908 
L 341.674705 241.057372 
L 362.696818 241.072136 
L 362.696818 241.072136 
" style="fill:none;stroke:#450256;stroke-linecap:square;"/>
   </g>
   <g id="patch_13">
    <path d="M 43.115 241.072187 
L 43.115 23.632187 
" style="fill:none;stroke:#cccccc;stroke-linecap:square;stroke-linejoin:miter;stroke-width:0.6;"/>
   </g>
   <g id="patch_14">
    <path d="M 377.915 241.072187 
L 377.915 23.632187 
" style="fill:none;stroke:#cccccc;stroke-linecap:square;stroke-linejoin:miter;stroke-width:0.6;"/>
   </g>
   <g id="patch_15">
    <path d="M 43.115 241.072187 
L 377.915 241.072187 
" style="fill:none;stroke:#cccccc;stroke-linecap:square;stroke-linejoin:miter;stroke-width:0.6;"/>
   </g>
   <g id="patch_16">
    <path d="M 43.115 23.632187 
L 377.915 23.632187 
" style="fill:none;stroke:#cccccc;stroke-linecap:square;stroke-linejoin:miter;stroke-width:0.6;"/>
   </g>
   <g id="text_14">
    <!-- Histogram -->
    <g transform="translate(177.698125 17.632187)scale(0.14 -0.14)">
     <defs>
      <path d="M 62.890625 0 
L 53.46875 0 
L 53.46875 32.859375 
L 17.625 32.859375 
L 17.625 0 
L 8.25 0 
L 8.25 71.09375 
L 17.625 71.09375 
L 17.625 40.53125 
L 53.46875 40.53125 
L 53.46875 71.09375 
L 62.890625 71.09375 
z
" id="Roboto-Regular-72"/>
      <path d="M 16.65625 0 
L 7.625 0 
L 7.625 52.828125 
L 16.65625 52.828125 
z
M 6.890625 66.84375 
Q 6.890625 69.046875 8.234375 70.5625 
Q 9.578125 72.078125 12.203125 72.078125 
Q 14.84375 72.078125 16.203125 70.5625 
Q 17.578125 69.046875 17.578125 66.84375 
Q 17.578125 64.65625 16.203125 63.1875 
Q 14.84375 61.71875 12.203125 61.71875 
Q 9.578125 61.71875 8.234375 63.1875 
Q 6.890625 64.65625 6.890625 66.84375 
z
" id="Roboto-Regular-105"/>
      <path d="M 37.59375 14.015625 
Q 37.59375 17.671875 34.828125 19.703125 
Q 32.078125 21.734375 25.21875 23.1875 
Q 18.359375 24.65625 14.328125 26.703125 
Q 10.296875 28.765625 8.375 31.59375 
Q 6.453125 34.421875 6.453125 38.328125 
Q 6.453125 44.828125 11.9375 49.3125 
Q 17.4375 53.8125 25.984375 53.8125 
Q 34.96875 53.8125 40.546875 49.171875 
Q 46.140625 44.53125 46.140625 37.3125 
L 37.0625 37.3125 
Q 37.0625 41.015625 33.90625 43.703125 
Q 30.765625 46.390625 25.984375 46.390625 
Q 21.046875 46.390625 18.265625 44.234375 
Q 15.484375 42.09375 15.484375 38.625 
Q 15.484375 35.359375 18.0625 33.6875 
Q 20.65625 32.03125 27.421875 30.515625 
Q 34.1875 29 38.375 26.90625 
Q 42.578125 24.8125 44.59375 21.84375 
Q 46.625 18.890625 46.625 14.65625 
Q 46.625 7.5625 40.953125 3.28125 
Q 35.296875 -0.984375 26.265625 -0.984375 
Q 19.921875 -0.984375 15.03125 1.265625 
Q 10.15625 3.515625 7.390625 7.546875 
Q 4.640625 11.578125 4.640625 16.265625 
L 13.671875 16.265625 
Q 13.921875 11.71875 17.3125 9.046875 
Q 20.703125 6.390625 26.265625 6.390625 
Q 31.390625 6.390625 34.484375 8.46875 
Q 37.59375 10.546875 37.59375 14.015625 
z
" id="Roboto-Regular-115"/>
      <path d="M 19.09375 65.625 
L 19.09375 52.828125 
L 28.953125 52.828125 
L 28.953125 45.84375 
L 19.09375 45.84375 
L 19.09375 13.09375 
Q 19.09375 9.90625 20.40625 8.3125 
Q 21.734375 6.734375 24.90625 6.734375 
Q 26.46875 6.734375 29.203125 7.328125 
L 29.203125 0 
Q 25.640625 -0.984375 22.265625 -0.984375 
Q 16.21875 -0.984375 13.140625 2.671875 
Q 10.0625 6.34375 10.0625 13.09375 
L 10.0625 45.84375 
L 0.4375 45.84375 
L 0.4375 52.828125 
L 10.0625 52.828125 
L 10.0625 65.625 
z
" id="Roboto-Regular-116"/>
      <path d="M 4.4375 26.90625 
Q 4.4375 34.671875 7.484375 40.875 
Q 10.546875 47.078125 15.984375 50.4375 
Q 21.4375 53.8125 28.421875 53.8125 
Q 39.203125 53.8125 45.875 46.34375 
Q 52.546875 38.875 52.546875 26.46875 
L 52.546875 25.828125 
Q 52.546875 18.109375 49.578125 11.984375 
Q 46.625 5.859375 41.125 2.4375 
Q 35.640625 -0.984375 28.515625 -0.984375 
Q 17.78125 -0.984375 11.109375 6.484375 
Q 4.4375 13.96875 4.4375 26.265625 
z
M 13.53125 25.828125 
Q 13.53125 17.046875 17.609375 11.71875 
Q 21.6875 6.390625 28.515625 6.390625 
Q 35.40625 6.390625 39.453125 11.78125 
Q 43.5 17.1875 43.5 26.90625 
Q 43.5 35.59375 39.375 40.984375 
Q 35.25 46.390625 28.421875 46.390625 
Q 21.734375 46.390625 17.625 41.0625 
Q 13.53125 35.75 13.53125 25.828125 
z
" id="Roboto-Regular-111"/>
      <path d="M 4.6875 26.859375 
Q 4.6875 39.203125 10.390625 46.5 
Q 16.109375 53.8125 25.53125 53.8125 
Q 35.203125 53.8125 40.625 46.96875 
L 41.0625 52.828125 
L 49.3125 52.828125 
L 49.3125 1.265625 
Q 49.3125 -8.984375 43.234375 -14.890625 
Q 37.15625 -20.796875 26.90625 -20.796875 
Q 21.1875 -20.796875 15.71875 -18.359375 
Q 10.25 -15.921875 7.375 -11.671875 
L 12.0625 -6.25 
Q 17.875 -13.421875 26.265625 -13.421875 
Q 32.859375 -13.421875 36.546875 -9.703125 
Q 40.234375 -6 40.234375 0.734375 
L 40.234375 5.28125 
Q 34.8125 -0.984375 25.4375 -0.984375 
Q 16.15625 -0.984375 10.421875 6.484375 
Q 4.6875 13.96875 4.6875 26.859375 
z
M 13.765625 25.828125 
Q 13.765625 16.890625 17.421875 11.78125 
Q 21.09375 6.6875 27.6875 6.6875 
Q 36.234375 6.6875 40.234375 14.453125 
L 40.234375 38.578125 
Q 36.078125 46.140625 27.78125 46.140625 
Q 21.1875 46.140625 17.46875 41.015625 
Q 13.765625 35.890625 13.765625 25.828125 
z
" id="Roboto-Regular-103"/>
      <path d="M 39.453125 0 
Q 38.671875 1.5625 38.1875 5.5625 
Q 31.890625 -0.984375 23.140625 -0.984375 
Q 15.328125 -0.984375 10.328125 3.4375 
Q 5.328125 7.859375 5.328125 14.65625 
Q 5.328125 22.90625 11.59375 27.46875 
Q 17.875 32.03125 29.25 32.03125 
L 38.03125 32.03125 
L 38.03125 36.1875 
Q 38.03125 40.921875 35.203125 43.71875 
Q 32.375 46.53125 26.859375 46.53125 
Q 22.015625 46.53125 18.75 44.09375 
Q 15.484375 41.65625 15.484375 38.1875 
L 6.390625 38.1875 
Q 6.390625 42.140625 9.203125 45.828125 
Q 12.015625 49.515625 16.8125 51.65625 
Q 21.625 53.8125 27.390625 53.8125 
Q 36.53125 53.8125 41.703125 49.234375 
Q 46.875 44.671875 47.078125 36.671875 
L 47.078125 12.359375 
Q 47.078125 5.078125 48.921875 0.78125 
L 48.921875 0 
z
M 24.46875 6.890625 
Q 28.71875 6.890625 32.515625 9.078125 
Q 36.328125 11.28125 38.03125 14.796875 
L 38.03125 25.640625 
L 30.953125 25.640625 
Q 14.359375 25.640625 14.359375 15.921875 
Q 14.359375 11.671875 17.1875 9.28125 
Q 20.015625 6.890625 24.46875 6.890625 
z
" id="Roboto-Regular-97"/>
      <path d="M 15.328125 52.828125 
L 15.578125 46.96875 
Q 21.390625 53.8125 31.25 53.8125 
Q 42.328125 53.8125 46.34375 45.3125 
Q 48.96875 49.125 53.1875 51.46875 
Q 57.421875 53.8125 63.1875 53.8125 
Q 80.5625 53.8125 80.859375 35.40625 
L 80.859375 0 
L 71.828125 0 
L 71.828125 34.859375 
Q 71.828125 40.53125 69.234375 43.328125 
Q 66.65625 46.140625 60.546875 46.140625 
Q 55.515625 46.140625 52.1875 43.140625 
Q 48.875 40.140625 48.34375 35.0625 
L 48.34375 0 
L 39.265625 0 
L 39.265625 34.625 
Q 39.265625 46.140625 27.984375 46.140625 
Q 19.09375 46.140625 15.828125 38.578125 
L 15.828125 0 
L 6.78125 0 
L 6.78125 52.828125 
z
" id="Roboto-Regular-109"/>
     </defs>
     <use xlink:href="#Roboto-Regular-72"/>
     <use x="71.289062" xlink:href="#Roboto-Regular-105"/>
     <use x="95.556641" xlink:href="#Roboto-Regular-115"/>
     <use x="147.119141" xlink:href="#Roboto-Regular-116"/>
     <use x="179.785156" xlink:href="#Roboto-Regular-111"/>
     <use x="236.816406" xlink:href="#Roboto-Regular-103"/>
     <use x="292.919922" xlink:href="#Roboto-Regular-114"/>
     <use x="326.757812" xlink:href="#Roboto-Regular-97"/>
     <use x="381.152344" xlink:href="#Roboto-Regular-109"/>
    </g>
   </g>
  </g>
 </g>
 <defs>
  <clipPath id="pda8c952cd6">
   <rect height="217.44" width="334.8" x="43.115" y="23.632187"/>
  </clipPath>
 </defs>
</svg>
