<svg class="main-svg" xmlns="http://www.w3.org/2000/svg" xmlns:xlink="http://www.w3.org/1999/xlink" width="600" height="500" style="" viewBox="0 0 600 500"><rect x="0" y="0" width="600" height="500" style="fill: rgb(255, 255, 255); fill-opacity: 1;"/><defs id="defs-f5ce1d"><g class="clips"/><g class="gradients"/><g class="patterns"/></defs><g class="bglayer"/><g class="layer-below"><g class="imagelayer"/><g class="shapelayer"/></g><g class="cartesianlayer"/><g class="polarlayer"/><g class="smithlayer"/><g class="ternarylayer"/><g class="geolayer"/><g class="funnelarealayer"/><g class="pielayer"/><g class="iciclelayer"/><g class="treemaplayer"/><g class="sunburstlayer"/><g class="glimages"/><g class="sankey" transform="translate(80,100)matrix(1 0 0 1 0 0)" style="box-sizing: content-box; position: absolute; left: 0px; shape-rendering: geometricprecision; pointer-events: auto;"><g class="sankey-links" style="fill: none;"><path class="sankey-link" d="M10,202.51207729439875C220,202.51207729439875 220,126.275992439278 430,126.275992439278L430,128.59483301906627C220,128.59483301906627 220,204.83091787418704 10,204.83091787418704Z" style="stroke: rgb(68, 68, 68); stroke-opacity: 1; fill: rgb(42, 145, 167); fill-opacity: 1; stroke-width: 0; opacity: 1;"/><path class="sankey-link" d="M10,210.62801932368674C220,210.62801932368674 220,207.6370510392587 430,207.6370510392587L430,209.95589161904698C220,209.95589161904698 220,212.94685990347503 10,212.94685990347503Z" style="stroke: rgb(68, 68, 68); stroke-opacity: 1; fill: rgb(42, 145, 167); fill-opacity: 1; stroke-width: 0; opacity: 1;"/><path class="sankey-link" d="M10,67.2463768113676C220,67.2463768113676 220,96.13106490318974 430,96.13106490318974L430,100.76874606253442C220,100.76874606253442 220,71.88405797071228 10,71.88405797071228Z" style="stroke: rgb(68, 68, 68); stroke-opacity: 1; fill: rgb(175, 233, 121); fill-opacity: 1; stroke-width: 0; opacity: 1;"/><path class="sankey-link" d="M10,242.31884058002024C220,242.31884058002024 220,220.39067422789137 430,220.39067422789137L430,225.02835538723602C220,225.02835538723602 220,246.9565217393649 10,246.9565217393649Z" style="stroke: rgb(68, 68, 68); stroke-opacity: 1; fill: rgb(175, 233, 121); fill-opacity: 1; stroke-width: 0; opacity: 1;"/><path class="sankey-link" d="M10,246.95652173936492C220,246.95652173936492 220,225.02835538723605 430,225.02835538723605L430,229.6660365465807C220,229.6660365465807 220,251.59420289870957 10,251.59420289870957Z" style="stroke: rgb(68, 68, 68); stroke-opacity: 1; fill: rgb(175, 233, 121); fill-opacity: 1; stroke-width: 0; opacity: 1;"/><path class="sankey-link" d="M10,204.83091787418704C220,204.83091787418704 220,128.59483301906627 430,128.59483301906627L430,129.75425330898938C220,129.75425330898938 220,205.99033816411014 10,205.99033816411014Z" style="stroke: rgb(68, 68, 68); stroke-opacity: 1; fill: rgb(42, 145, 167); fill-opacity: 1; stroke-width: 0; opacity: 1;"/><path class="sankey-link" d="M10,212.94685990347503C220,212.94685990347503 220,209.95589161904698 430,209.95589161904698L430,211.11531190897009C220,211.11531190897009 220,214.10628019339813 10,214.10628019339813Z" style="stroke: rgb(68, 68, 68); stroke-opacity: 1; fill: rgb(42, 145, 167); fill-opacity: 1; stroke-width: 0; opacity: 1;"/><path class="sankey-link" d="M10,241.1594202900971C220,241.1594202900971 220,134.39193446856598 430,134.39193446856598L430,135.55135475848908C220,135.55135475848908 220,242.3188405800202 10,242.3188405800202Z" style="stroke: rgb(68, 68, 68); stroke-opacity: 1; fill: rgb(175, 233, 121); fill-opacity: 1; stroke-width: 0; opacity: 1;"/><path class="sankey-link" d="M10,251.5942028987096C220,251.5942028987096 220,229.66603654658073 430,229.66603654658073L430,230.82545683650383C220,230.82545683650383 220,252.7536231886327 10,252.7536231886327Z" style="stroke: rgb(68, 68, 68); stroke-opacity: 1; fill: rgb(175, 233, 121); fill-opacity: 1; stroke-width: 0; opacity: 1;"/><path class="sankey-link" d="M10,121.35265700453358C220,121.35265700453358 220,112.36294896101207 430,112.36294896101207L430,117.00063012035675C220,117.00063012035675 220,125.99033816387826 10,125.99033816387826Z" style="stroke: rgb(68, 68, 68); stroke-opacity: 1; fill: rgb(42, 145, 167); fill-opacity: 1; stroke-width: 0; opacity: 1;"/><path class="sankey-link" d="M10,205.99033816411017C220,205.99033816411017 220,129.7542533089894 430,129.7542533089894L430,132.0730938887777C220,132.0730938887777 220,208.30917874389846 10,208.30917874389846Z" style="stroke: rgb(68, 68, 68); stroke-opacity: 1; fill: rgb(42, 145, 167); fill-opacity: 1; stroke-width: 0; opacity: 1;"/><path class="sankey-link" d="M10,214.10628019339816C220,214.10628019339816 220,211.1153119089701 430,211.1153119089701L430,213.4341524887584C220,213.4341524887584 220,216.42512077318645 10,216.42512077318645Z" style="stroke: rgb(68, 68, 68); stroke-opacity: 1; fill: rgb(42, 145, 167); fill-opacity: 1; stroke-width: 0; opacity: 1;"/><path class="sankey-link" d="M10,130.62801932322293C220,130.62801932322293 220,193.72400756099276 430,193.72400756099276L430,198.3616887203374C220,198.3616887203374 220,135.26570048256758 10,135.26570048256758Z" style="stroke: rgb(68, 68, 68); stroke-opacity: 1; fill: rgb(42, 145, 167); fill-opacity: 1; stroke-width: 0; opacity: 1;"/><path class="sankey-link" d="M10,315.36231884065535C220,315.36231884065535 220,240.10081915519322 430,240.10081915519322L430,244.73850031453787C220,244.73850031453787 220,320 10,320Z" style="stroke: rgb(68, 68, 68); stroke-opacity: 1; fill: rgb(255, 47, 109); fill-opacity: 1; stroke-width: 0; opacity: 1;"/><path class="sankey-link" d="M10,180.09661835704446C220,180.09661835704446 220,123.95715185948971 430,123.95715185948971L430,126.275992439278C220,126.275992439278 220,182.41545893683275 10,182.41545893683275Z" style="stroke: rgb(68, 68, 68); stroke-opacity: 1; fill: rgb(69, 2, 86); fill-opacity: 1; stroke-width: 0; opacity: 1;"/><path class="sankey-link" d="M10,182.41545893683275C220,182.41545893683275 220,205.3182104594704 430,205.3182104594704L430,207.6370510392587C220,207.6370510392587 220,184.73429951662104 10,184.73429951662104Z" style="stroke: rgb(68, 68, 68); stroke-opacity: 1; fill: rgb(69, 2, 86); fill-opacity: 1; stroke-width: 0; opacity: 1;"/><path class="sankey-link" d="M10,89.66183574849002C220,89.66183574849002 220,100.76874606253442 430,100.76874606253442L430,103.0875866423227C220,103.0875866423227 220,91.9806763282783 10,91.9806763282783Z" style="stroke: rgb(68, 68, 68); stroke-opacity: 1; fill: rgb(0, 93, 121); fill-opacity: 1; stroke-width: 0; opacity: 1;"/><path class="sankey-link" d="M10,101.25603864696767C220,101.25603864696767 220,191.40516698120447 430,191.40516698120447L430,193.72400756099276C220,193.72400756099276 220,103.57487922675595 10,103.57487922675595Z" style="stroke: rgb(68, 68, 68); stroke-opacity: 1; fill: rgb(0, 93, 121); fill-opacity: 1; stroke-width: 0; opacity: 1;"/><path class="sankey-link" d="M10,270.53140096641044C220,270.53140096641044 220,230.82545683650386 430,230.82545683650386L430,235.4631379958485C220,235.4631379958485 220,275.1690821257551 10,275.1690821257551Z" style="stroke: rgb(68, 68, 68); stroke-opacity: 1; fill: rgb(137, 183, 159); fill-opacity: 1; stroke-width: 0; opacity: 1;"/><path class="sankey-link" d="M10,135.2657004825676C220,135.2657004825676 220,198.36168872033744 430,198.36168872033744L430,202.9993698796821C220,202.9993698796821 220,139.90338164191226 10,139.90338164191226Z" style="stroke: rgb(68, 68, 68); stroke-opacity: 1; fill: rgb(42, 145, 167); fill-opacity: 1; stroke-width: 0; opacity: 1;"/><path class="sankey-link" d="M10,216.42512077318645C220,216.42512077318645 220,213.4341524887584 430,213.4341524887584L430,218.07183364810305C220,218.07183364810305 220,221.0628019325311 10,221.0628019325311Z" style="stroke: rgb(68, 68, 68); stroke-opacity: 1; fill: rgb(42, 145, 167); fill-opacity: 1; stroke-width: 0; opacity: 1;"/><path class="sankey-link" d="M10,208.30917874389846C220,208.30917874389846 220,132.0730938887777 430,132.0730938887777L430,134.39193446856598C220,134.39193446856598 220,210.62801932368674 10,210.62801932368674Z" style="stroke: rgb(68, 68, 68); stroke-opacity: 1; fill: rgb(42, 145, 167); fill-opacity: 1; stroke-width: 0; opacity: 1;"/><path class="sankey-link" d="M10,221.06280193253113C220,221.06280193253113 220,218.07183364810308 430,218.07183364810308L430,220.39067422789137C220,220.39067422789137 220,223.38164251231942 10,223.38164251231942Z" style="stroke: rgb(68, 68, 68); stroke-opacity: 1; fill: rgb(42, 145, 167); fill-opacity: 1; stroke-width: 0; opacity: 1;"/><path class="sankey-link" d="M10,91.9806763282783C220,91.9806763282783 220,103.0875866423227 430,103.0875866423227L430,107.72526780166739C220,107.72526780166739 220,96.61835748762299 10,96.61835748762299Z" style="stroke: rgb(68, 68, 68); stroke-opacity: 1; fill: rgb(0, 93, 121); fill-opacity: 1; stroke-width: 0; opacity: 1;"/><path class="sankey-link" d="M10,96.61835748762299C220,96.61835748762299 220,107.72526780166739 430,107.72526780166739L430,112.36294896101207C220,112.36294896101207 220,101.25603864696767 10,101.25603864696767Z" style="stroke: rgb(68, 68, 68); stroke-opacity: 1; fill: rgb(0, 93, 121); fill-opacity: 1; stroke-width: 0; opacity: 1;"/><path class="sankey-link" d="M10,22.415458937122736C220,22.415458937122736 220,86.85570258450038 430,86.85570258450038L430,91.49338374384506C220,91.49338374384506 220,27.053140096467416 10,27.053140096467416Z" style="stroke: rgb(68, 68, 68); stroke-opacity: 1; fill: rgb(255, 47, 109); fill-opacity: 1; stroke-width: 0; opacity: 1;"/><path class="sankey-link" d="M10,292.9468599035329C220,292.9468599035329 220,235.46313799584854 430,235.46313799584854L430,240.1008191551932C220,240.1008191551932 220,297.5845410628776 10,297.5845410628776Z" style="stroke: rgb(68, 68, 68); stroke-opacity: 1; fill: rgb(87, 188, 214); fill-opacity: 1; stroke-width: 0; opacity: 1;"/><path class="sankey-link" d="M10,2.8421709430404007e-13C220,2.8421709430404007e-13 220,82.2180214251557 430,82.2180214251557L430,86.85570258450038C220,86.85570258450038 220,4.637681159344961 10,4.637681159344961Z" style="stroke: rgb(68, 68, 68); stroke-opacity: 1; fill: rgb(156, 67, 151); fill-opacity: 1; stroke-width: 0; opacity: 1;"/><path class="sankey-link" d="M10,125.99033816387826C220,125.99033816387826 220,117.00063012035675 430,117.00063012035675L430,121.63831127970143C220,121.63831127970143 220,130.62801932322293 10,130.62801932322293Z" style="stroke: rgb(68, 68, 68); stroke-opacity: 1; fill: rgb(42, 145, 167); fill-opacity: 1; stroke-width: 0; opacity: 1;"/><path class="sankey-link" d="M10,44.830917874245166C220,44.830917874245166 220,91.49338374384506 430,91.49338374384506L430,96.13106490318974C220,96.13106490318974 220,49.46859903358985 10,49.46859903358985Z" style="stroke: rgb(68, 68, 68); stroke-opacity: 1; fill: rgb(137, 183, 159); fill-opacity: 1; stroke-width: 0; opacity: 1;"/><path class="sankey-link" d="M10,157.68115941969012C220,157.68115941969012 220,121.63831127970143 430,121.63831127970143L430,123.95715185948971C220,123.95715185948971 220,159.9999999994784 10,159.9999999994784Z" style="stroke: rgb(68, 68, 68); stroke-opacity: 1; fill: rgb(69, 2, 86); fill-opacity: 1; stroke-width: 0; opacity: 1;"/><path class="sankey-link" d="M10,159.9999999994784C220,159.9999999994784 220,202.99936987968212 430,202.99936987968212L430,205.3182104594704C220,205.3182104594704 220,162.3188405792667 10,162.3188405792667Z" style="stroke: rgb(68, 68, 68); stroke-opacity: 1; fill: rgb(69, 2, 86); fill-opacity: 1; stroke-width: 0; opacity: 1;"/></g><g class="sankey-node-set" style="cursor: move;"><g class="sankey-node" transform="translate(430.000,82.218)" style="opacity: 1;"><rect class="node-rect" width="10" height="53.333333333333385" style="stroke-width: 0.5; stroke: rgb(68, 68, 68); stroke-opacity: 1; fill: rgb(51, 51, 51); fill-opacity: 1;"/><text class="node-label" data-notex="1" x="0" y="0" text-anchor="end" transform="translate(-3.25,31.216666666666693)" style="cursor: default; font-family: Arial; font-size: 13px; fill: rgb(51, 51, 51); fill-opacity: 1; white-space: pre; text-shadow: white 1px 1px 1px, white -1px -1px 1px, white 1px -1px 1px, white -1px 1px 1px;">Linguistic Structure</text></g><g class="sankey-node" transform="translate(430.000,191.405)" style="opacity: 1;"><rect class="node-rect" width="10" height="53.33333333333337" style="stroke-width: 0.5; stroke: rgb(68, 68, 68); stroke-opacity: 1; fill: rgb(51, 51, 51); fill-opacity: 1;"/><text class="node-label" data-notex="1" x="0" y="0" text-anchor="end" transform="translate(-3.25,31.216666666666686)" style="cursor: default; font-family: Arial; font-size: 13px; fill: rgb(51, 51, 51); fill-opacity: 1; white-space: pre; text-shadow: white 1px 1px 1px, white -1px -1px 1px, white 1px -1px 1px, white -1px 1px 1px;">Relational Structure</text></g><g class="sankey-node" transform="translate(0.000,89.662)" style="opacity: 1;"><rect class="node-rect" width="10" height="13.913043478265791" style="stroke-width: 0.5; stroke: rgb(68, 68, 68); stroke-opacity: 1; fill: rgb(51, 51, 51); fill-opacity: 1;"/><text class="node-label" data-notex="1" x="0" y="0" text-anchor="start" transform="translate(13.25,11.506521739132896)" style="cursor: default; font-family: Arial; font-size: 13px; fill: rgb(51, 51, 51); fill-opacity: 1; white-space: pre; text-shadow: white 1px 1px 1px, white -1px -1px 1px, white 1px -1px 1px, white -1px 1px 1px;">Sentiment Analysis</text></g><g class="sankey-node" transform="translate(0.000,157.681)" style="opacity: 1;"><rect class="node-rect" width="10" height="4.637681159576573" style="stroke-width: 0.5; stroke: rgb(68, 68, 68); stroke-opacity: 1; fill: rgb(51, 51, 51); fill-opacity: 1;"/><text class="node-label" data-notex="1" x="0" y="0" text-anchor="start" transform="translate(13.25,6.868840579788286)" style="cursor: default; font-family: Arial; font-size: 13px; fill: rgb(51, 51, 51); fill-opacity: 1; white-space: pre; text-shadow: white 1px 1px 1px, white -1px -1px 1px, white 1px -1px 1px, white -1px 1px 1px;">Translation</text></g><g class="sankey-node" transform="translate(0.000,270.531)" style="opacity: 1;"><rect class="node-rect" width="10" height="4.637681159344709" style="stroke-width: 0.5; stroke: rgb(68, 68, 68); stroke-opacity: 1; fill: rgb(51, 51, 51); fill-opacity: 1;"/><text class="node-label" data-notex="1" x="0" y="0" text-anchor="start" transform="translate(13.25,6.868840579672354)" style="cursor: default; font-family: Arial; font-size: 13px; fill: rgb(51, 51, 51); fill-opacity: 1; white-space: pre; text-shadow: white 1px 1px 1px, white -1px -1px 1px, white 1px -1px 1px, white -1px 1px 1px;">Dialog System</text></g><g class="sankey-node" transform="translate(0.000,0.000)" style="opacity: 1;"><rect class="node-rect" width="10" height="4.63768115934468" style="stroke-width: 0.5; stroke: rgb(68, 68, 68); stroke-opacity: 1; fill: rgb(51, 51, 51); fill-opacity: 1;"/><text class="node-label" data-notex="1" x="0" y="0" text-anchor="start" transform="translate(13.25,6.86884057967234)" style="cursor: default; font-family: Arial; font-size: 13px; fill: rgb(51, 51, 51); fill-opacity: 1; white-space: pre; text-shadow: white 1px 1px 1px, white -1px -1px 1px, white 1px -1px 1px, white -1px 1px 1px;">Annotation</text></g><g class="sankey-node" transform="translate(0.000,22.415)" style="opacity: 1;"><rect class="node-rect" width="10" height="4.637681159344652" style="stroke-width: 0.5; stroke: rgb(68, 68, 68); stroke-opacity: 1; fill: rgb(51, 51, 51); fill-opacity: 1;"/><text class="node-label" data-notex="1" x="0" y="0" text-anchor="start" transform="translate(13.25,6.868840579672326)" style="cursor: default; font-family: Arial; font-size: 13px; fill: rgb(51, 51, 51); fill-opacity: 1; white-space: pre; text-shadow: white 1px 1px 1px, white -1px -1px 1px, white 1px -1px 1px, white -1px 1px 1px;">Cause-Effect Identification</text></g><g class="sankey-node" transform="translate(0.000,202.512)" style="opacity: 1;"><rect class="node-rect" width="10" height="20.86956521792058" style="stroke-width: 0.5; stroke: rgb(68, 68, 68); stroke-opacity: 1; fill: rgb(51, 51, 51); fill-opacity: 1;"/><text class="node-label" data-notex="1" x="0" y="0" text-anchor="start" transform="translate(13.25,14.984782608960291)" style="cursor: default; font-family: Arial; font-size: 13px; fill: rgb(51, 51, 51); fill-opacity: 1; white-space: pre; text-shadow: white 1px 1px 1px, white -1px -1px 1px, white 1px -1px 1px, white -1px 1px 1px;">Text Classification</text></g><g class="sankey-node" transform="translate(0.000,241.159)" style="opacity: 1;"><rect class="node-rect" width="10" height="11.59420289853557" style="stroke-width: 0.5; stroke: rgb(68, 68, 68); stroke-opacity: 1; fill: rgb(51, 51, 51); fill-opacity: 1;"/><text class="node-label" data-notex="1" x="0" y="0" text-anchor="start" transform="translate(13.25,10.347101449267786)" style="cursor: default; font-family: Arial; font-size: 13px; fill: rgb(51, 51, 51); fill-opacity: 1; white-space: pre; text-shadow: white 1px 1px 1px, white -1px -1px 1px, white 1px -1px 1px, white -1px 1px 1px;">KG Completion / Link Prediction</text></g><g class="sankey-node" transform="translate(0.000,180.097)" style="opacity: 1;"><rect class="node-rect" width="10" height="4.637681159576516" style="stroke-width: 0.5; stroke: rgb(68, 68, 68); stroke-opacity: 1; fill: rgb(51, 51, 51); fill-opacity: 1;"/><text class="node-label" data-notex="1" x="0" y="0" text-anchor="start" transform="translate(13.25,6.868840579788258)" style="cursor: default; font-family: Arial; font-size: 13px; fill: rgb(51, 51, 51); fill-opacity: 1; white-space: pre; text-shadow: white 1px 1px 1px, white -1px -1px 1px, white 1px -1px 1px, white -1px 1px 1px;">Text Summarization</text></g><g class="sankey-node" transform="translate(0.000,292.947)" style="opacity: 1;"><rect class="node-rect" width="10" height="4.637681159344652" style="stroke-width: 0.5; stroke: rgb(68, 68, 68); stroke-opacity: 1; fill: rgb(51, 51, 51); fill-opacity: 1;"/><text class="node-label" data-notex="1" x="0" y="0" text-anchor="start" transform="translate(13.25,6.868840579672326)" style="cursor: default; font-family: Arial; font-size: 13px; fill: rgb(51, 51, 51); fill-opacity: 1; white-space: pre; text-shadow: white 1px 1px 1px, white -1px -1px 1px, white 1px -1px 1px, white -1px 1px 1px;">Relation Extraction</text></g><g class="sankey-node" transform="translate(0.000,44.831)" style="opacity: 1;"><rect class="node-rect" width="10" height="4.637681159344652" style="stroke-width: 0.5; stroke: rgb(68, 68, 68); stroke-opacity: 1; fill: rgb(51, 51, 51); fill-opacity: 1;"/><text class="node-label" data-notex="1" x="0" y="0" text-anchor="start" transform="translate(13.25,6.868840579672326)" style="cursor: default; font-family: Arial; font-size: 13px; fill: rgb(51, 51, 51); fill-opacity: 1; white-space: pre; text-shadow: white 1px 1px 1px, white -1px -1px 1px, white 1px -1px 1px, white -1px 1px 1px;">Image Captioning</text></g><g class="sankey-node" transform="translate(0.000,315.362)" style="opacity: 1;"><rect class="node-rect" width="10" height="4.637681159344652" style="stroke-width: 0.5; stroke: rgb(68, 68, 68); stroke-opacity: 1; fill: rgb(51, 51, 51); fill-opacity: 1;"/><text class="node-label" data-notex="1" x="0" y="0" text-anchor="start" transform="translate(13.25,6.868840579672326)" style="cursor: default; font-family: Arial; font-size: 13px; fill: rgb(51, 51, 51); fill-opacity: 1; white-space: pre; text-shadow: white 1px 1px 1px, white -1px -1px 1px, white 1px -1px 1px, white -1px 1px 1px;">Decision Making</text></g><g class="sankey-node" transform="translate(0.000,121.353)" style="opacity: 1;"><rect class="node-rect" width="10" height="18.550724637378764" style="stroke-width: 0.5; stroke: rgb(68, 68, 68); stroke-opacity: 1; fill: rgb(51, 51, 51); fill-opacity: 1;"/><text class="node-label" data-notex="1" x="0" y="0" text-anchor="start" transform="translate(13.25,13.825362318689383)" style="cursor: default; font-family: Arial; font-size: 13px; fill: rgb(51, 51, 51); fill-opacity: 1; white-space: pre; text-shadow: white 1px 1px 1px, white -1px -1px 1px, white 1px -1px 1px, white -1px 1px 1px;">Question Answering</text></g><g class="sankey-node" transform="translate(0.000,67.246)" style="opacity: 1;"><rect class="node-rect" width="10" height="4.637681159344652" style="stroke-width: 0.5; stroke: rgb(68, 68, 68); stroke-opacity: 1; fill: rgb(51, 51, 51); fill-opacity: 1;"/><text class="node-label" data-notex="1" x="0" y="0" text-anchor="start" transform="translate(13.25,6.868840579672326)" style="cursor: default; font-family: Arial; font-size: 13px; fill: rgb(51, 51, 51); fill-opacity: 1; white-space: pre; text-shadow: white 1px 1px 1px, white -1px -1px 1px, white 1px -1px 1px, white -1px 1px 1px;">Fact Verification</text></g></g></g><defs id="topdefs-f5ce1d"><g class="clips"/></defs><g class="layer-above"><g class="imagelayer"/><g class="shapelayer"/></g><g class="infolayer"><g class="g-gtitle"/><g class="first-render"/></g></svg>