<?xml version="1.0" encoding="utf-8" standalone="no"?>
<!DOCTYPE svg PUBLIC "-//W3C//DTD SVG 1.1//EN"
  "http://www.w3.org/Graphics/SVG/1.1/DTD/svg11.dtd">
<!-- Created with matplotlib (https://matplotlib.org/) -->
<svg height="231.84pt" version="1.1" viewBox="0 0 300.751582 231.84" width="300.751582pt" xmlns="http://www.w3.org/2000/svg" xmlns:xlink="http://www.w3.org/1999/xlink">
 <metadata>
  <rdf:RDF xmlns:cc="http://creativecommons.org/ns#" xmlns:dc="http://purl.org/dc/elements/1.1/" xmlns:rdf="http://www.w3.org/1999/02/22-rdf-syntax-ns#">
   <cc:Work>
    <dc:type rdf:resource="http://purl.org/dc/dcmitype/StillImage"/>
    <dc:date>2022-02-09T10:17:03.503806</dc:date>
    <dc:format>image/svg+xml</dc:format>
    <dc:creator>
     <cc:Agent>
      <dc:title>Matplotlib v3.3.1, https://matplotlib.org/</dc:title>
     </cc:Agent>
    </dc:creator>
   </cc:Work>
  </rdf:RDF>
 </metadata>
 <defs>
  <style type="text/css">*{stroke-linecap:butt;stroke-linejoin:round;}</style>
 </defs>
 <g id="figure_1">
  <g id="patch_1">
   <path d="M 0 231.84 
L 300.751582 231.84 
L 300.751582 0 
L 0 0 
z
" style="fill:none;"/>
  </g>
  <g id="axes_1">
   <g id="patch_2">
    <path clip-path="url(#pc20d43868f)" d="M 180.131875 215.800976 
L 286.417589 215.800976 
L 286.417589 192.819512 
L 180.131875 192.819512 
z
" style="fill:#450256;"/>
   </g>
   <g id="patch_3">
    <path clip-path="url(#pc20d43868f)" d="M 180.131875 180.444878 
L 286.417589 180.444878 
L 286.417589 157.463415 
L 180.131875 157.463415 
z
" style="fill:#450256;"/>
   </g>
   <g id="patch_4">
    <path clip-path="url(#pc20d43868f)" d="M 180.131875 145.08878 
L 256.050242 145.08878 
L 256.050242 122.107317 
L 180.131875 122.107317 
z
" style="fill:#450256;"/>
   </g>
   <g id="patch_5">
    <path clip-path="url(#pc20d43868f)" d="M 180.131875 109.732683 
L 225.682895 109.732683 
L 225.682895 86.75122 
L 180.131875 86.75122 
z
" style="fill:#450256;"/>
   </g>
   <g id="patch_6">
    <path clip-path="url(#pc20d43868f)" d="M 180.131875 74.376585 
L 210.499222 74.376585 
L 210.499222 51.395122 
L 180.131875 51.395122 
z
" style="fill:#450256;"/>
   </g>
   <g id="patch_7">
    <path clip-path="url(#pc20d43868f)" d="M 180.131875 39.020488 
L 210.499222 39.020488 
L 210.499222 16.039024 
L 180.131875 16.039024 
z
" style="fill:#450256;"/>
   </g>
   <g id="matplotlib.axis_1"/>
   <g id="matplotlib.axis_2">
    <g id="ytick_1">
     <g id="line2d_1">
      <defs>
       <path d="M 0 0 
L -3.5 0 
" id="mb2c91e339f" style="stroke:#000000;stroke-width:0.8;"/>
      </defs>
      <g>
       <use style="stroke:#000000;stroke-width:0.8;" x="180.131875" xlink:href="#mb2c91e339f" y="204.310244"/>
      </g>
     </g>
     <g id="text_1">
      <!-- Text classification -->
      <g transform="translate(75.585 208.810244)scale(0.12 -0.12)">
       <defs>
        <path d="M 57.375 63.375 
L 34.515625 63.375 
L 34.515625 0 
L 25.203125 0 
L 25.203125 63.375 
L 2.390625 63.375 
L 2.390625 71.09375 
L 57.375 71.09375 
z
" id="Roboto-Regular-84"/>
        <path d="M 28.765625 -0.984375 
Q 18.015625 -0.984375 11.28125 6.078125 
Q 4.546875 13.140625 4.546875 24.953125 
L 4.546875 26.609375 
Q 4.546875 34.46875 7.546875 40.640625 
Q 10.546875 46.828125 15.9375 50.3125 
Q 21.34375 53.8125 27.640625 53.8125 
Q 37.9375 53.8125 43.640625 47.015625 
Q 49.359375 40.234375 49.359375 27.59375 
L 49.359375 23.828125 
L 13.578125 23.828125 
Q 13.765625 16.015625 18.140625 11.203125 
Q 22.515625 6.390625 29.25 6.390625 
Q 34.03125 6.390625 37.34375 8.34375 
Q 40.671875 10.296875 43.171875 13.53125 
L 48.6875 9.234375 
Q 42.046875 -0.984375 28.765625 -0.984375 
z
M 27.640625 46.390625 
Q 22.171875 46.390625 18.453125 42.40625 
Q 14.75 38.421875 13.875 31.25 
L 40.328125 31.25 
L 40.328125 31.9375 
Q 39.9375 38.8125 36.609375 42.59375 
Q 33.296875 46.390625 27.640625 46.390625 
z
" id="Roboto-Regular-101"/>
        <path d="M 24.5625 33.546875 
L 36.28125 52.828125 
L 46.828125 52.828125 
L 29.546875 26.703125 
L 47.359375 0 
L 36.921875 0 
L 24.703125 19.78125 
L 12.5 0 
L 2 0 
L 19.828125 26.703125 
L 2.546875 52.828125 
L 12.984375 52.828125 
z
" id="Roboto-Regular-120"/>
        <path d="M 19.09375 65.625 
L 19.09375 52.828125 
L 28.953125 52.828125 
L 28.953125 45.84375 
L 19.09375 45.84375 
L 19.09375 13.09375 
Q 19.09375 9.90625 20.40625 8.3125 
Q 21.734375 6.734375 24.90625 6.734375 
Q 26.46875 6.734375 29.203125 7.328125 
L 29.203125 0 
Q 25.640625 -0.984375 22.265625 -0.984375 
Q 16.21875 -0.984375 13.140625 2.671875 
Q 10.0625 6.34375 10.0625 13.09375 
L 10.0625 45.84375 
L 0.4375 45.84375 
L 0.4375 52.828125 
L 10.0625 52.828125 
L 10.0625 65.625 
z
" id="Roboto-Regular-116"/>
        <path id="Roboto-Regular-32"/>
        <path d="M 28.03125 6.390625 
Q 32.859375 6.390625 36.46875 9.3125 
Q 40.09375 12.25 40.484375 16.65625 
L 49.03125 16.65625 
Q 48.78125 12.109375 45.890625 8 
Q 43.015625 3.90625 38.203125 1.453125 
Q 33.40625 -0.984375 28.03125 -0.984375 
Q 17.234375 -0.984375 10.859375 6.21875 
Q 4.5 13.421875 4.5 25.921875 
L 4.5 27.4375 
Q 4.5 35.15625 7.328125 41.15625 
Q 10.15625 47.171875 15.453125 50.484375 
Q 20.75 53.8125 27.984375 53.8125 
Q 36.859375 53.8125 42.75 48.484375 
Q 48.640625 43.171875 49.03125 34.671875 
L 40.484375 34.671875 
Q 40.09375 39.796875 36.59375 43.09375 
Q 33.109375 46.390625 27.984375 46.390625 
Q 21.09375 46.390625 17.3125 41.421875 
Q 13.53125 36.46875 13.53125 27.09375 
L 13.53125 25.390625 
Q 13.53125 16.265625 17.28125 11.328125 
Q 21.046875 6.390625 28.03125 6.390625 
z
" id="Roboto-Regular-99"/>
        <path d="M 16.65625 0 
L 7.625 0 
L 7.625 75 
L 16.65625 75 
z
" id="Roboto-Regular-108"/>
        <path d="M 39.453125 0 
Q 38.671875 1.5625 38.1875 5.5625 
Q 31.890625 -0.984375 23.140625 -0.984375 
Q 15.328125 -0.984375 10.328125 3.4375 
Q 5.328125 7.859375 5.328125 14.65625 
Q 5.328125 22.90625 11.59375 27.46875 
Q 17.875 32.03125 29.25 32.03125 
L 38.03125 32.03125 
L 38.03125 36.1875 
Q 38.03125 40.921875 35.203125 43.71875 
Q 32.375 46.53125 26.859375 46.53125 
Q 22.015625 46.53125 18.75 44.09375 
Q 15.484375 41.65625 15.484375 38.1875 
L 6.390625 38.1875 
Q 6.390625 42.140625 9.203125 45.828125 
Q 12.015625 49.515625 16.8125 51.65625 
Q 21.625 53.8125 27.390625 53.8125 
Q 36.53125 53.8125 41.703125 49.234375 
Q 46.875 44.671875 47.078125 36.671875 
L 47.078125 12.359375 
Q 47.078125 5.078125 48.921875 0.78125 
L 48.921875 0 
z
M 24.46875 6.890625 
Q 28.71875 6.890625 32.515625 9.078125 
Q 36.328125 11.28125 38.03125 14.796875 
L 38.03125 25.640625 
L 30.953125 25.640625 
Q 14.359375 25.640625 14.359375 15.921875 
Q 14.359375 11.671875 17.1875 9.28125 
Q 20.015625 6.890625 24.46875 6.890625 
z
" id="Roboto-Regular-97"/>
        <path d="M 37.59375 14.015625 
Q 37.59375 17.671875 34.828125 19.703125 
Q 32.078125 21.734375 25.21875 23.1875 
Q 18.359375 24.65625 14.328125 26.703125 
Q 10.296875 28.765625 8.375 31.59375 
Q 6.453125 34.421875 6.453125 38.328125 
Q 6.453125 44.828125 11.9375 49.3125 
Q 17.4375 53.8125 25.984375 53.8125 
Q 34.96875 53.8125 40.546875 49.171875 
Q 46.140625 44.53125 46.140625 37.3125 
L 37.0625 37.3125 
Q 37.0625 41.015625 33.90625 43.703125 
Q 30.765625 46.390625 25.984375 46.390625 
Q 21.046875 46.390625 18.265625 44.234375 
Q 15.484375 42.09375 15.484375 38.625 
Q 15.484375 35.359375 18.0625 33.6875 
Q 20.65625 32.03125 27.421875 30.515625 
Q 34.1875 29 38.375 26.90625 
Q 42.578125 24.8125 44.59375 21.84375 
Q 46.625 18.890625 46.625 14.65625 
Q 46.625 7.5625 40.953125 3.28125 
Q 35.296875 -0.984375 26.265625 -0.984375 
Q 19.921875 -0.984375 15.03125 1.265625 
Q 10.15625 3.515625 7.390625 7.546875 
Q 4.640625 11.578125 4.640625 16.265625 
L 13.671875 16.265625 
Q 13.921875 11.71875 17.3125 9.046875 
Q 20.703125 6.390625 26.265625 6.390625 
Q 31.390625 6.390625 34.484375 8.46875 
Q 37.59375 10.546875 37.59375 14.015625 
z
" id="Roboto-Regular-115"/>
        <path d="M 16.65625 0 
L 7.625 0 
L 7.625 52.828125 
L 16.65625 52.828125 
z
M 6.890625 66.84375 
Q 6.890625 69.046875 8.234375 70.5625 
Q 9.578125 72.078125 12.203125 72.078125 
Q 14.84375 72.078125 16.203125 70.5625 
Q 17.578125 69.046875 17.578125 66.84375 
Q 17.578125 64.65625 16.203125 63.1875 
Q 14.84375 61.71875 12.203125 61.71875 
Q 9.578125 61.71875 8.234375 63.1875 
Q 6.890625 64.65625 6.890625 66.84375 
z
" id="Roboto-Regular-105"/>
        <path d="M 11.28125 0 
L 11.28125 45.84375 
L 2.9375 45.84375 
L 2.9375 52.828125 
L 11.28125 52.828125 
L 11.28125 58.25 
Q 11.28125 66.75 15.8125 71.390625 
Q 20.359375 76.03125 28.65625 76.03125 
Q 31.78125 76.03125 34.859375 75.203125 
L 34.375 67.875 
Q 32.078125 68.3125 29.5 68.3125 
Q 25.09375 68.3125 22.703125 65.75 
Q 20.3125 63.1875 20.3125 58.40625 
L 20.3125 52.828125 
L 31.59375 52.828125 
L 31.59375 45.84375 
L 20.3125 45.84375 
L 20.3125 0 
z
" id="Roboto-Regular-102"/>
        <path d="M 4.4375 26.90625 
Q 4.4375 34.671875 7.484375 40.875 
Q 10.546875 47.078125 15.984375 50.4375 
Q 21.4375 53.8125 28.421875 53.8125 
Q 39.203125 53.8125 45.875 46.34375 
Q 52.546875 38.875 52.546875 26.46875 
L 52.546875 25.828125 
Q 52.546875 18.109375 49.578125 11.984375 
Q 46.625 5.859375 41.125 2.4375 
Q 35.640625 -0.984375 28.515625 -0.984375 
Q 17.78125 -0.984375 11.109375 6.484375 
Q 4.4375 13.96875 4.4375 26.265625 
z
M 13.53125 25.828125 
Q 13.53125 17.046875 17.609375 11.71875 
Q 21.6875 6.390625 28.515625 6.390625 
Q 35.40625 6.390625 39.453125 11.78125 
Q 43.5 17.1875 43.5 26.90625 
Q 43.5 35.59375 39.375 40.984375 
Q 35.25 46.390625 28.421875 46.390625 
Q 21.734375 46.390625 17.625 41.0625 
Q 13.53125 35.75 13.53125 25.828125 
z
" id="Roboto-Regular-111"/>
        <path d="M 15.375 52.828125 
L 15.671875 46.1875 
Q 21.734375 53.8125 31.5 53.8125 
Q 48.25 53.8125 48.390625 34.90625 
L 48.390625 0 
L 39.359375 0 
L 39.359375 34.96875 
Q 39.3125 40.671875 36.75 43.40625 
Q 34.1875 46.140625 28.765625 46.140625 
Q 24.359375 46.140625 21.03125 43.796875 
Q 17.71875 41.453125 15.875 37.640625 
L 15.875 0 
L 6.84375 0 
L 6.84375 52.828125 
z
" id="Roboto-Regular-110"/>
       </defs>
       <use xlink:href="#Roboto-Regular-84"/>
       <use x="59.667969" xlink:href="#Roboto-Regular-101"/>
       <use x="112.646484" xlink:href="#Roboto-Regular-120"/>
       <use x="162.207031" xlink:href="#Roboto-Regular-116"/>
       <use x="194.873047" xlink:href="#Roboto-Regular-32"/>
       <use x="219.628906" xlink:href="#Roboto-Regular-99"/>
       <use x="271.972656" xlink:href="#Roboto-Regular-108"/>
       <use x="296.240234" xlink:href="#Roboto-Regular-97"/>
       <use x="350.634766" xlink:href="#Roboto-Regular-115"/>
       <use x="402.197266" xlink:href="#Roboto-Regular-115"/>
       <use x="453.759766" xlink:href="#Roboto-Regular-105"/>
       <use x="478.027344" xlink:href="#Roboto-Regular-102"/>
       <use x="512.744141" xlink:href="#Roboto-Regular-105"/>
       <use x="537.011719" xlink:href="#Roboto-Regular-99"/>
       <use x="589.355469" xlink:href="#Roboto-Regular-97"/>
       <use x="643.75" xlink:href="#Roboto-Regular-116"/>
       <use x="676.416016" xlink:href="#Roboto-Regular-105"/>
       <use x="700.683594" xlink:href="#Roboto-Regular-111"/>
       <use x="757.714844" xlink:href="#Roboto-Regular-110"/>
      </g>
     </g>
    </g>
    <g id="ytick_2">
     <g id="line2d_2">
      <g>
       <use style="stroke:#000000;stroke-width:0.8;" x="180.131875" xlink:href="#mb2c91e339f" y="168.954146"/>
      </g>
     </g>
     <g id="text_2">
      <!-- Question answering -->
      <g transform="translate(67.4175 173.425084)scale(0.12 -0.12)">
       <defs>
        <path d="M 62.546875 33.25 
Q 62.546875 22.953125 59.265625 15.5 
Q 56 8.0625 50.09375 3.859375 
L 62.796875 -6.109375 
L 56.390625 -12.015625 
L 41.40625 -0.09375 
Q 37.890625 -0.984375 33.984375 -0.984375 
Q 25.59375 -0.984375 19.09375 3.140625 
Q 12.59375 7.28125 9 14.921875 
Q 5.421875 22.5625 5.328125 32.625 
L 5.328125 37.75 
Q 5.328125 48 8.890625 55.859375 
Q 12.453125 63.71875 18.96875 67.890625 
Q 25.484375 72.078125 33.890625 72.078125 
Q 42.484375 72.078125 49 67.921875 
Q 55.515625 63.765625 59.03125 55.96875 
Q 62.546875 48.1875 62.546875 37.796875 
z
M 53.171875 37.84375 
Q 53.171875 50.390625 48.171875 57.203125 
Q 43.171875 64.015625 33.890625 64.015625 
Q 25.046875 64.015625 19.9375 57.25 
Q 14.84375 50.484375 14.703125 38.484375 
L 14.703125 33.25 
Q 14.703125 21.046875 19.796875 14.015625 
Q 24.90625 6.984375 33.984375 6.984375 
Q 43.0625 6.984375 48.046875 13.59375 
Q 53.03125 20.21875 53.171875 32.5625 
z
" id="Roboto-Regular-81"/>
        <path d="M 39.453125 5.21875 
Q 34.1875 -0.984375 23.96875 -0.984375 
Q 15.53125 -0.984375 11.109375 3.921875 
Q 6.6875 8.84375 6.640625 18.453125 
L 6.640625 52.828125 
L 15.671875 52.828125 
L 15.671875 18.703125 
Q 15.671875 6.6875 25.4375 6.6875 
Q 35.796875 6.6875 39.203125 14.40625 
L 39.203125 52.828125 
L 48.25 52.828125 
L 48.25 0 
L 39.65625 0 
z
" id="Roboto-Regular-117"/>
        <path d="M 53.609375 12.453125 
L 63.765625 52.828125 
L 72.796875 52.828125 
L 57.421875 0 
L 50.09375 0 
L 37.25 40.046875 
L 24.75 0 
L 17.4375 0 
L 2.09375 52.828125 
L 11.078125 52.828125 
L 21.484375 13.28125 
L 33.796875 52.828125 
L 41.0625 52.828125 
z
" id="Roboto-Regular-119"/>
        <path d="M 32.375 44.734375 
Q 30.328125 45.0625 27.9375 45.0625 
Q 19.046875 45.0625 15.875 37.5 
L 15.875 0 
L 6.84375 0 
L 6.84375 52.828125 
L 15.625 52.828125 
L 15.765625 46.734375 
Q 20.21875 53.8125 28.375 53.8125 
Q 31 53.8125 32.375 53.125 
z
" id="Roboto-Regular-114"/>
        <path d="M 4.6875 26.859375 
Q 4.6875 39.203125 10.390625 46.5 
Q 16.109375 53.8125 25.53125 53.8125 
Q 35.203125 53.8125 40.625 46.96875 
L 41.0625 52.828125 
L 49.3125 52.828125 
L 49.3125 1.265625 
Q 49.3125 -8.984375 43.234375 -14.890625 
Q 37.15625 -20.796875 26.90625 -20.796875 
Q 21.1875 -20.796875 15.71875 -18.359375 
Q 10.25 -15.921875 7.375 -11.671875 
L 12.0625 -6.25 
Q 17.875 -13.421875 26.265625 -13.421875 
Q 32.859375 -13.421875 36.546875 -9.703125 
Q 40.234375 -6 40.234375 0.734375 
L 40.234375 5.28125 
Q 34.8125 -0.984375 25.4375 -0.984375 
Q 16.15625 -0.984375 10.421875 6.484375 
Q 4.6875 13.96875 4.6875 26.859375 
z
M 13.765625 25.828125 
Q 13.765625 16.890625 17.421875 11.78125 
Q 21.09375 6.6875 27.6875 6.6875 
Q 36.234375 6.6875 40.234375 14.453125 
L 40.234375 38.578125 
Q 36.078125 46.140625 27.78125 46.140625 
Q 21.1875 46.140625 17.46875 41.015625 
Q 13.765625 35.890625 13.765625 25.828125 
z
" id="Roboto-Regular-103"/>
       </defs>
       <use xlink:href="#Roboto-Regular-81"/>
       <use x="68.75" xlink:href="#Roboto-Regular-117"/>
       <use x="123.876953" xlink:href="#Roboto-Regular-101"/>
       <use x="176.855469" xlink:href="#Roboto-Regular-115"/>
       <use x="228.417969" xlink:href="#Roboto-Regular-116"/>
       <use x="261.083984" xlink:href="#Roboto-Regular-105"/>
       <use x="285.351562" xlink:href="#Roboto-Regular-111"/>
       <use x="342.382812" xlink:href="#Roboto-Regular-110"/>
       <use x="397.558594" xlink:href="#Roboto-Regular-32"/>
       <use x="422.314453" xlink:href="#Roboto-Regular-97"/>
       <use x="476.708984" xlink:href="#Roboto-Regular-110"/>
       <use x="531.884766" xlink:href="#Roboto-Regular-115"/>
       <use x="583.447266" xlink:href="#Roboto-Regular-119"/>
       <use x="658.59375" xlink:href="#Roboto-Regular-101"/>
       <use x="711.572266" xlink:href="#Roboto-Regular-114"/>
       <use x="745.410156" xlink:href="#Roboto-Regular-105"/>
       <use x="769.677734" xlink:href="#Roboto-Regular-110"/>
       <use x="824.853516" xlink:href="#Roboto-Regular-103"/>
      </g>
     </g>
    </g>
    <g id="ytick_3">
     <g id="line2d_3">
      <g>
       <use style="stroke:#000000;stroke-width:0.8;" x="180.131875" xlink:href="#mb2c91e339f" y="133.598049"/>
      </g>
     </g>
     <g id="text_3">
      <!-- Sentiment analysis -->
      <g transform="translate(72.264375 138.098049)scale(0.12 -0.12)">
       <defs>
        <path d="M 29.203125 31.6875 
Q 17.140625 35.15625 11.640625 40.203125 
Q 6.15625 45.265625 6.15625 52.6875 
Q 6.15625 61.078125 12.859375 66.578125 
Q 19.578125 72.078125 30.328125 72.078125 
Q 37.640625 72.078125 43.375 69.234375 
Q 49.125 66.40625 52.265625 61.421875 
Q 55.421875 56.453125 55.421875 50.53125 
L 46 50.53125 
Q 46 56.984375 41.890625 60.671875 
Q 37.796875 64.359375 30.328125 64.359375 
Q 23.390625 64.359375 19.5 61.296875 
Q 15.625 58.25 15.625 52.828125 
Q 15.625 48.484375 19.3125 45.484375 
Q 23 42.484375 31.859375 39.984375 
Q 40.71875 37.5 45.71875 34.5 
Q 50.734375 31.5 53.140625 27.484375 
Q 55.5625 23.484375 55.5625 18.0625 
Q 55.5625 9.421875 48.828125 4.21875 
Q 42.09375 -0.984375 30.8125 -0.984375 
Q 23.484375 -0.984375 17.140625 1.828125 
Q 10.796875 4.640625 7.34375 9.515625 
Q 3.90625 14.40625 3.90625 20.609375 
L 13.328125 20.609375 
Q 13.328125 14.15625 18.09375 10.421875 
Q 22.859375 6.6875 30.8125 6.6875 
Q 38.234375 6.6875 42.1875 9.71875 
Q 46.140625 12.75 46.140625 17.96875 
Q 46.140625 23.1875 42.46875 26.046875 
Q 38.8125 28.90625 29.203125 31.6875 
z
" id="Roboto-Regular-83"/>
        <path d="M 15.328125 52.828125 
L 15.578125 46.96875 
Q 21.390625 53.8125 31.25 53.8125 
Q 42.328125 53.8125 46.34375 45.3125 
Q 48.96875 49.125 53.1875 51.46875 
Q 57.421875 53.8125 63.1875 53.8125 
Q 80.5625 53.8125 80.859375 35.40625 
L 80.859375 0 
L 71.828125 0 
L 71.828125 34.859375 
Q 71.828125 40.53125 69.234375 43.328125 
Q 66.65625 46.140625 60.546875 46.140625 
Q 55.515625 46.140625 52.1875 43.140625 
Q 48.875 40.140625 48.34375 35.0625 
L 48.34375 0 
L 39.265625 0 
L 39.265625 34.625 
Q 39.265625 46.140625 27.984375 46.140625 
Q 19.09375 46.140625 15.828125 38.578125 
L 15.828125 0 
L 6.78125 0 
L 6.78125 52.828125 
z
" id="Roboto-Regular-109"/>
        <path d="M 24.125 13.234375 
L 36.421875 52.828125 
L 46.09375 52.828125 
L 24.859375 -8.15625 
Q 19.921875 -21.34375 9.1875 -21.34375 
L 7.46875 -21.1875 
L 4.109375 -20.5625 
L 4.109375 -13.234375 
L 6.546875 -13.421875 
Q 11.140625 -13.421875 13.703125 -11.5625 
Q 16.265625 -9.71875 17.921875 -4.78125 
L 19.921875 0.59375 
L 1.078125 52.828125 
L 10.9375 52.828125 
z
" id="Roboto-Regular-121"/>
       </defs>
       <use xlink:href="#Roboto-Regular-83"/>
       <use x="59.326172" xlink:href="#Roboto-Regular-101"/>
       <use x="112.304688" xlink:href="#Roboto-Regular-110"/>
       <use x="167.480469" xlink:href="#Roboto-Regular-116"/>
       <use x="200.146484" xlink:href="#Roboto-Regular-105"/>
       <use x="224.414062" xlink:href="#Roboto-Regular-109"/>
       <use x="312.060547" xlink:href="#Roboto-Regular-101"/>
       <use x="365.039062" xlink:href="#Roboto-Regular-110"/>
       <use x="420.214844" xlink:href="#Roboto-Regular-116"/>
       <use x="452.880859" xlink:href="#Roboto-Regular-32"/>
       <use x="477.636719" xlink:href="#Roboto-Regular-97"/>
       <use x="532.03125" xlink:href="#Roboto-Regular-110"/>
       <use x="587.207031" xlink:href="#Roboto-Regular-97"/>
       <use x="641.601562" xlink:href="#Roboto-Regular-108"/>
       <use x="665.869141" xlink:href="#Roboto-Regular-121"/>
       <use x="713.183594" xlink:href="#Roboto-Regular-115"/>
       <use x="764.746094" xlink:href="#Roboto-Regular-105"/>
       <use x="789.013672" xlink:href="#Roboto-Regular-115"/>
      </g>
     </g>
    </g>
    <g id="ytick_4">
     <g id="line2d_4">
      <g>
       <use style="stroke:#000000;stroke-width:0.8;" x="180.131875" xlink:href="#mb2c91e339f" y="98.241951"/>
      </g>
     </g>
     <g id="text_4">
      <!-- KG Completion / link prediction -->
      <g transform="translate(7.2 102.741951)scale(0.12 -0.12)">
       <defs>
        <path d="M 26.3125 33.0625 
L 17.625 24.03125 
L 17.625 0 
L 8.25 0 
L 8.25 71.09375 
L 17.625 71.09375 
L 17.625 35.9375 
L 49.21875 71.09375 
L 60.546875 71.09375 
L 32.5625 39.703125 
L 62.75 0 
L 51.515625 0 
z
" id="Roboto-Regular-75"/>
        <path d="M 60.75 9.328125 
Q 57.125 4.15625 50.65625 1.578125 
Q 44.1875 -0.984375 35.59375 -0.984375 
Q 26.90625 -0.984375 20.15625 3.09375 
Q 13.421875 7.171875 9.734375 14.6875 
Q 6.0625 22.21875 5.953125 32.125 
L 5.953125 38.328125 
Q 5.953125 54.390625 13.453125 63.234375 
Q 20.953125 72.078125 34.515625 72.078125 
Q 45.65625 72.078125 52.4375 66.375 
Q 59.234375 60.6875 60.75 50.25 
L 51.375 50.25 
Q 48.734375 64.359375 34.578125 64.359375 
Q 25.140625 64.359375 20.28125 57.734375 
Q 15.4375 51.125 15.375 38.578125 
L 15.375 32.765625 
Q 15.375 20.796875 20.84375 13.734375 
Q 26.3125 6.6875 35.640625 6.6875 
Q 40.921875 6.6875 44.875 7.859375 
Q 48.828125 9.03125 51.421875 11.8125 
L 51.421875 27.78125 
L 34.96875 27.78125 
L 34.96875 35.40625 
L 60.75 35.40625 
z
" id="Roboto-Regular-71"/>
        <path d="M 60.546875 22.5625 
Q 59.234375 11.28125 52.21875 5.140625 
Q 45.21875 -0.984375 33.59375 -0.984375 
Q 21 -0.984375 13.40625 8.046875 
Q 5.8125 17.09375 5.8125 32.234375 
L 5.8125 39.0625 
Q 5.8125 48.96875 9.34375 56.484375 
Q 12.890625 64.015625 19.375 68.046875 
Q 25.875 72.078125 34.421875 72.078125 
Q 45.75 72.078125 52.578125 65.75 
Q 59.421875 59.421875 60.546875 48.25 
L 51.125 48.25 
Q 49.90625 56.734375 45.828125 60.546875 
Q 41.75 64.359375 34.421875 64.359375 
Q 25.4375 64.359375 20.328125 57.71875 
Q 15.234375 51.078125 15.234375 38.8125 
L 15.234375 31.9375 
Q 15.234375 20.359375 20.0625 13.515625 
Q 24.90625 6.6875 33.59375 6.6875 
Q 41.40625 6.6875 45.578125 10.21875 
Q 49.75 13.765625 51.125 22.5625 
z
" id="Roboto-Regular-67"/>
        <path d="M 51.46875 25.828125 
Q 51.46875 13.765625 45.953125 6.390625 
Q 40.4375 -0.984375 31 -0.984375 
Q 21.390625 -0.984375 15.875 5.125 
L 15.875 -20.3125 
L 6.84375 -20.3125 
L 6.84375 52.828125 
L 15.09375 52.828125 
L 15.53125 46.96875 
Q 21.046875 53.8125 30.859375 53.8125 
Q 40.375 53.8125 45.921875 46.625 
Q 51.46875 39.453125 51.46875 26.65625 
z
M 42.4375 26.859375 
Q 42.4375 35.796875 38.625 40.96875 
Q 34.8125 46.140625 28.171875 46.140625 
Q 19.96875 46.140625 15.875 38.875 
L 15.875 13.625 
Q 19.921875 6.390625 28.265625 6.390625 
Q 34.765625 6.390625 38.59375 11.546875 
Q 42.4375 16.703125 42.4375 26.859375 
z
" id="Roboto-Regular-112"/>
        <path d="M 8.640625 -6.109375 
L 0.875 -6.109375 
L 30.5625 71.09375 
L 38.28125 71.09375 
z
" id="Roboto-Regular-47"/>
        <path d="M 21.578125 24.46875 
L 15.921875 18.5625 
L 15.921875 0 
L 6.890625 0 
L 6.890625 75 
L 15.921875 75 
L 15.921875 29.640625 
L 20.75 35.453125 
L 37.203125 52.828125 
L 48.1875 52.828125 
L 27.640625 30.765625 
L 50.59375 0 
L 39.984375 0 
z
" id="Roboto-Regular-107"/>
        <path d="M 4.640625 26.859375 
Q 4.640625 39.015625 10.390625 46.40625 
Q 16.15625 53.8125 25.484375 53.8125 
Q 34.765625 53.8125 40.1875 47.46875 
L 40.1875 75 
L 49.21875 75 
L 49.21875 0 
L 40.921875 0 
L 40.484375 5.671875 
Q 35.0625 -0.984375 25.390625 -0.984375 
Q 16.21875 -0.984375 10.421875 6.53125 
Q 4.640625 14.0625 4.640625 26.171875 
z
M 13.671875 25.828125 
Q 13.671875 16.84375 17.375 11.765625 
Q 21.09375 6.6875 27.640625 6.6875 
Q 36.234375 6.6875 40.1875 14.40625 
L 40.1875 38.671875 
Q 36.140625 46.140625 27.734375 46.140625 
Q 21.09375 46.140625 17.375 41.015625 
Q 13.671875 35.890625 13.671875 25.828125 
z
" id="Roboto-Regular-100"/>
       </defs>
       <use xlink:href="#Roboto-Regular-75"/>
       <use x="62.695312" xlink:href="#Roboto-Regular-71"/>
       <use x="130.810547" xlink:href="#Roboto-Regular-32"/>
       <use x="155.566406" xlink:href="#Roboto-Regular-67"/>
       <use x="220.654297" xlink:href="#Roboto-Regular-111"/>
       <use x="277.685547" xlink:href="#Roboto-Regular-109"/>
       <use x="365.332031" xlink:href="#Roboto-Regular-112"/>
       <use x="421.435547" xlink:href="#Roboto-Regular-108"/>
       <use x="445.703125" xlink:href="#Roboto-Regular-101"/>
       <use x="498.681641" xlink:href="#Roboto-Regular-116"/>
       <use x="531.347656" xlink:href="#Roboto-Regular-105"/>
       <use x="555.615234" xlink:href="#Roboto-Regular-111"/>
       <use x="612.646484" xlink:href="#Roboto-Regular-110"/>
       <use x="667.822266" xlink:href="#Roboto-Regular-32"/>
       <use x="692.578125" xlink:href="#Roboto-Regular-47"/>
       <use x="733.789062" xlink:href="#Roboto-Regular-32"/>
       <use x="758.544922" xlink:href="#Roboto-Regular-108"/>
       <use x="782.8125" xlink:href="#Roboto-Regular-105"/>
       <use x="807.080078" xlink:href="#Roboto-Regular-110"/>
       <use x="862.255859" xlink:href="#Roboto-Regular-107"/>
       <use x="912.939453" xlink:href="#Roboto-Regular-32"/>
       <use x="937.695312" xlink:href="#Roboto-Regular-112"/>
       <use x="993.798828" xlink:href="#Roboto-Regular-114"/>
       <use x="1027.636719" xlink:href="#Roboto-Regular-101"/>
       <use x="1080.615234" xlink:href="#Roboto-Regular-100"/>
       <use x="1137.011719" xlink:href="#Roboto-Regular-105"/>
       <use x="1161.279297" xlink:href="#Roboto-Regular-99"/>
       <use x="1213.623047" xlink:href="#Roboto-Regular-116"/>
       <use x="1246.289062" xlink:href="#Roboto-Regular-105"/>
       <use x="1270.556641" xlink:href="#Roboto-Regular-111"/>
       <use x="1327.587891" xlink:href="#Roboto-Regular-110"/>
      </g>
     </g>
    </g>
    <g id="ytick_5">
     <g id="line2d_5">
      <g>
       <use style="stroke:#000000;stroke-width:0.8;" x="180.131875" xlink:href="#mb2c91e339f" y="62.885854"/>
      </g>
     </g>
     <g id="text_5">
      <!-- Textual reasoning -->
      <g transform="translate(77.8575 67.385854)scale(0.12 -0.12)">
       <use xlink:href="#Roboto-Regular-84"/>
       <use x="59.667969" xlink:href="#Roboto-Regular-101"/>
       <use x="112.646484" xlink:href="#Roboto-Regular-120"/>
       <use x="162.207031" xlink:href="#Roboto-Regular-116"/>
       <use x="194.873047" xlink:href="#Roboto-Regular-117"/>
       <use x="250" xlink:href="#Roboto-Regular-97"/>
       <use x="304.394531" xlink:href="#Roboto-Regular-108"/>
       <use x="328.662109" xlink:href="#Roboto-Regular-32"/>
       <use x="353.417969" xlink:href="#Roboto-Regular-114"/>
       <use x="387.255859" xlink:href="#Roboto-Regular-101"/>
       <use x="440.234375" xlink:href="#Roboto-Regular-97"/>
       <use x="494.628906" xlink:href="#Roboto-Regular-115"/>
       <use x="546.191406" xlink:href="#Roboto-Regular-111"/>
       <use x="603.222656" xlink:href="#Roboto-Regular-110"/>
       <use x="658.398438" xlink:href="#Roboto-Regular-105"/>
       <use x="682.666016" xlink:href="#Roboto-Regular-110"/>
       <use x="737.841797" xlink:href="#Roboto-Regular-103"/>
      </g>
     </g>
    </g>
    <g id="ytick_6">
     <g id="line2d_6">
      <g>
       <use style="stroke:#000000;stroke-width:0.8;" x="180.131875" xlink:href="#mb2c91e339f" y="27.529756"/>
      </g>
     </g>
     <g id="text_6">
      <!-- Information extraction -->
      <g transform="translate(54.4725 32.029756)scale(0.12 -0.12)">
       <defs>
        <path d="M 18.3125 0 
L 8.9375 0 
L 8.9375 71.09375 
L 18.3125 71.09375 
z
" id="Roboto-Regular-73"/>
       </defs>
       <use xlink:href="#Roboto-Regular-73"/>
       <use x="27.197266" xlink:href="#Roboto-Regular-110"/>
       <use x="82.373047" xlink:href="#Roboto-Regular-102"/>
       <use x="117.089844" xlink:href="#Roboto-Regular-111"/>
       <use x="174.121094" xlink:href="#Roboto-Regular-114"/>
       <use x="207.958984" xlink:href="#Roboto-Regular-109"/>
       <use x="295.605469" xlink:href="#Roboto-Regular-97"/>
       <use x="350" xlink:href="#Roboto-Regular-116"/>
       <use x="382.666016" xlink:href="#Roboto-Regular-105"/>
       <use x="406.933594" xlink:href="#Roboto-Regular-111"/>
       <use x="463.964844" xlink:href="#Roboto-Regular-110"/>
       <use x="519.140625" xlink:href="#Roboto-Regular-32"/>
       <use x="543.896484" xlink:href="#Roboto-Regular-101"/>
       <use x="596.875" xlink:href="#Roboto-Regular-120"/>
       <use x="646.435547" xlink:href="#Roboto-Regular-116"/>
       <use x="679.101562" xlink:href="#Roboto-Regular-114"/>
       <use x="712.939453" xlink:href="#Roboto-Regular-97"/>
       <use x="767.333984" xlink:href="#Roboto-Regular-99"/>
       <use x="819.677734" xlink:href="#Roboto-Regular-116"/>
       <use x="852.34375" xlink:href="#Roboto-Regular-105"/>
       <use x="876.611328" xlink:href="#Roboto-Regular-111"/>
       <use x="933.642578" xlink:href="#Roboto-Regular-110"/>
      </g>
     </g>
    </g>
   </g>
   <g id="text_7">
    <!-- 7 -->
    <g transform="translate(287.935957 207.845854)scale(0.1 -0.1)">
     <defs>
      <path d="M 51.8125 66.015625 
L 22.359375 0 
L 12.890625 0 
L 42.234375 63.671875 
L 3.765625 63.671875 
L 3.765625 71.09375 
L 51.8125 71.09375 
z
" id="Roboto-Regular-55"/>
     </defs>
     <use xlink:href="#Roboto-Regular-55"/>
    </g>
   </g>
   <g id="text_8">
    <!-- 7 -->
    <g transform="translate(287.935957 172.489756)scale(0.1 -0.1)">
     <use xlink:href="#Roboto-Regular-55"/>
    </g>
   </g>
   <g id="text_9">
    <!-- 5 -->
    <g transform="translate(257.56861 137.133659)scale(0.1 -0.1)">
     <defs>
      <path d="M 10.0625 35.640625 
L 13.671875 71.09375 
L 50.09375 71.09375 
L 50.09375 62.75 
L 21.34375 62.75 
L 19.1875 43.359375 
Q 24.421875 46.4375 31.0625 46.4375 
Q 40.765625 46.4375 46.484375 40.015625 
Q 52.203125 33.59375 52.203125 22.65625 
Q 52.203125 11.671875 46.265625 5.34375 
Q 40.328125 -0.984375 29.6875 -0.984375 
Q 20.265625 -0.984375 14.296875 4.234375 
Q 8.34375 9.46875 7.515625 18.703125 
L 16.0625 18.703125 
Q 16.890625 12.59375 20.40625 9.484375 
Q 23.921875 6.390625 29.6875 6.390625 
Q 35.984375 6.390625 39.578125 10.6875 
Q 43.171875 14.984375 43.171875 22.5625 
Q 43.171875 29.6875 39.28125 34 
Q 35.40625 38.328125 28.953125 38.328125 
Q 23.046875 38.328125 19.671875 35.75 
L 17.28125 33.796875 
z
" id="Roboto-Regular-53"/>
     </defs>
     <use xlink:href="#Roboto-Regular-53"/>
    </g>
   </g>
   <g id="text_10">
    <!-- 3 -->
    <g transform="translate(227.201263 101.777561)scale(0.1 -0.1)">
     <defs>
      <path d="M 19.046875 39.9375 
L 25.828125 39.9375 
Q 32.234375 40.046875 35.890625 43.3125 
Q 39.546875 46.578125 39.546875 52.15625 
Q 39.546875 64.65625 27.09375 64.65625 
Q 21.234375 64.65625 17.75 61.296875 
Q 14.265625 57.953125 14.265625 52.4375 
L 5.21875 52.4375 
Q 5.21875 60.890625 11.390625 66.484375 
Q 17.578125 72.078125 27.09375 72.078125 
Q 37.15625 72.078125 42.859375 66.75 
Q 48.578125 61.421875 48.578125 51.953125 
Q 48.578125 47.3125 45.578125 42.96875 
Q 42.578125 38.625 37.40625 36.46875 
Q 43.265625 34.625 46.453125 30.328125 
Q 49.65625 26.03125 49.65625 19.828125 
Q 49.65625 10.25 43.40625 4.625 
Q 37.15625 -0.984375 27.140625 -0.984375 
Q 17.140625 -0.984375 10.859375 4.4375 
Q 4.59375 9.859375 4.59375 18.75 
L 13.671875 18.75 
Q 13.671875 13.140625 17.328125 9.765625 
Q 21 6.390625 27.15625 6.390625 
Q 33.6875 6.390625 37.15625 9.8125 
Q 40.625 13.234375 40.625 19.625 
Q 40.625 25.828125 36.8125 29.140625 
Q 33.015625 32.46875 25.828125 32.5625 
L 19.046875 32.5625 
z
" id="Roboto-Regular-51"/>
     </defs>
     <use xlink:href="#Roboto-Regular-51"/>
    </g>
   </g>
   <g id="text_11">
    <!-- 2 -->
    <g transform="translate(212.017589 66.421463)scale(0.1 -0.1)">
     <defs>
      <path d="M 52.484375 0 
L 5.90625 0 
L 5.90625 6.5 
L 30.515625 33.84375 
Q 35.984375 40.046875 38.0625 43.921875 
Q 40.140625 47.796875 40.140625 51.953125 
Q 40.140625 57.515625 36.765625 61.078125 
Q 33.40625 64.65625 27.78125 64.65625 
Q 21.046875 64.65625 17.3125 60.8125 
Q 13.578125 56.984375 13.578125 50.140625 
L 4.546875 50.140625 
Q 4.546875 59.96875 10.859375 66.015625 
Q 17.1875 72.078125 27.78125 72.078125 
Q 37.703125 72.078125 43.453125 66.875 
Q 49.21875 61.671875 49.21875 53.03125 
Q 49.21875 42.53125 35.84375 28.03125 
L 16.796875 7.375 
L 52.484375 7.375 
z
" id="Roboto-Regular-50"/>
     </defs>
     <use xlink:href="#Roboto-Regular-50"/>
    </g>
   </g>
   <g id="text_12">
    <!-- 2 -->
    <g transform="translate(212.017589 31.065366)scale(0.1 -0.1)">
     <use xlink:href="#Roboto-Regular-50"/>
    </g>
   </g>
  </g>
 </g>
 <defs>
  <clipPath id="pc20d43868f">
   <rect height="217.44" width="111.6" x="180.131875" y="7.2"/>
  </clipPath>
 </defs>
</svg>
