<svg class="main-svg" xmlns="http://www.w3.org/2000/svg" xmlns:xlink="http://www.w3.org/1999/xlink" width="800" height="500" style="" viewBox="0 0 800 500"><rect x="0" y="0" width="800" height="500" style="fill: rgb(255, 255, 255); fill-opacity: 1;"/><defs id="defs-7c3468"><g class="clips"/><g class="gradients"/><g class="patterns"/></defs><g class="bglayer"/><g class="layer-below"><g class="imagelayer"/><g class="shapelayer"/></g><g class="cartesianlayer"/><g class="polarlayer"/><g class="smithlayer"/><g class="ternarylayer"/><g class="geolayer"/><g class="funnelarealayer"/><g class="pielayer"/><g class="iciclelayer"/><g class="treemaplayer"/><g class="sunburstlayer"/><g class="glimages"/><g class="sankey" transform="translate(80,100)matrix(1 0 0 1 0 0)" style="box-sizing: content-box; position: absolute; left: 0px; shape-rendering: geometricprecision; pointer-events: auto;"><g class="sankey-links" style="fill: none;"><path class="sankey-link" d="M10,75.00000000470789C162.5,75.00000000470789 162.5,74.99999999999945 315,74.99999999999945L315,77.8676470588676C162.5,77.8676470588676 162.5,77.86764706357604 10,77.86764706357604Z" style="stroke: rgb(68, 68, 68); stroke-opacity: 1; fill: rgb(69, 2, 86); fill-opacity: 1; stroke-width: 0; opacity: 1;"/><path class="sankey-link" d="M10,129.48529412148233C162.5,129.48529412148233 162.5,171.69117647078357 315,171.69117647078357L315,174.55882352965173C162.5,174.55882352965173 162.5,132.35294118035048 10,132.35294118035048Z" style="stroke: rgb(68, 68, 68); stroke-opacity: 1; fill: rgb(69, 2, 86); fill-opacity: 1; stroke-width: 0; opacity: 1;"/><path class="sankey-link" d="M325,99.85294117638686C477.5,99.85294117638686 477.5,109.59558823451982 630,109.59558823451982L630,112.46323529338798C477.5,112.46323529338798 477.5,102.72058823525502 325,102.72058823525502Z" style="stroke: rgb(68, 68, 68); stroke-opacity: 1; fill: rgb(69, 2, 86); fill-opacity: 1; stroke-width: 0; opacity: 1;"/><path class="sankey-link" d="M325,202.7573529410946C477.5,202.7573529410946 477.5,135.40441176347298 630,135.40441176347298L630,138.27205882234114C477.5,138.27205882234114 477.5,205.62499999996277 325,205.62499999996277Z" style="stroke: rgb(68, 68, 68); stroke-opacity: 1; fill: rgb(69, 2, 86); fill-opacity: 1; stroke-width: 0; opacity: 1;"/><path class="sankey-link" d="M10,77.86764706357604C162.5,77.86764706357604 162.5,77.8676470588676 315,77.8676470588676L315,83.60294117631717C162.5,83.60294117631717 162.5,83.60294118102561 10,83.60294118102561Z" style="stroke: rgb(68, 68, 68); stroke-opacity: 1; fill: rgb(69, 2, 86); fill-opacity: 1; stroke-width: 0; opacity: 1;"/><path class="sankey-link" d="M325,102.72058823525502C477.5,102.72058823525502 477.5,112.46323529338798 630,112.46323529338798L630,118.19852941083755C477.5,118.19852941083755 477.5,108.45588235270459 325,108.45588235270459Z" style="stroke: rgb(68, 68, 68); stroke-opacity: 1; fill: rgb(69, 2, 86); fill-opacity: 1; stroke-width: 0; opacity: 1;"/><path class="sankey-link" d="M10,226.17647059060548C162.5,226.17647059060548 162.5,268.3823529418066 315,268.3823529418066L315,274.11764705925617C162.5,274.11764705925617 162.5,231.91176470805502 10,231.91176470805502Z" style="stroke: rgb(68, 68, 68); stroke-opacity: 1; fill: rgb(137, 183, 159); fill-opacity: 1; stroke-width: 0; opacity: 1;"/><path class="sankey-link" d="M325,291.3235294121783C477.5,291.3235294121783 477.5,144.00735294007745 630,144.00735294007745L630,149.742647057527C477.5,149.742647057527 477.5,297.0588235296279 325,297.0588235296279Z" style="stroke: rgb(68, 68, 68); stroke-opacity: 1; fill: rgb(137, 183, 159); fill-opacity: 1; stroke-width: 0; opacity: 1;"/><path class="sankey-link" d="M10,297.0588235302018C162.5,297.0588235302018 162.5,220.44117647010853 315,220.44117647010853L315,226.17647058755807C162.5,226.17647058755807 162.5,302.7941176476514 10,302.7941176476514Z" style="stroke: rgb(68, 68, 68); stroke-opacity: 1; fill: rgb(87, 188, 214); fill-opacity: 1; stroke-width: 0; opacity: 1;"/><path class="sankey-link" d="M325,171.69117647078357C477.5,171.69117647078357 477.5,24.852941176387493 630,24.852941176387493L630,26.764705882331466C477.5,26.764705882331466 477.5,173.60294117672757 325,173.60294117672757Z" style="stroke: rgb(68, 68, 68); stroke-opacity: 1; fill: rgb(87, 188, 214); fill-opacity: 1; stroke-width: 0; opacity: 1;"/><path class="sankey-link" d="M325,221.63602941206724C477.5,221.63602941206724 477.5,227.2242647050424 630,227.2242647050424L630,229.1360294109864C477.5,229.1360294109864 477.5,223.54779411801124 325,223.54779411801124Z" style="stroke: rgb(68, 68, 68); stroke-opacity: 1; fill: rgb(87, 188, 214); fill-opacity: 1; stroke-width: 0; opacity: 1;"/><path class="sankey-link" d="M325,211.36029411769908C477.5,211.36029411769908 477.5,187.4080882340025 630,187.4080882340025L630,189.3198529399465C477.5,189.3198529399465 477.5,213.27205882364308 325,213.27205882364308Z" style="stroke: rgb(68, 68, 68); stroke-opacity: 1; fill: rgb(87, 188, 214); fill-opacity: 1; stroke-width: 0; opacity: 1;"/><path class="sankey-link" d="M10,132.35294118035048C162.5,132.35294118035048 162.5,174.55882352965173 315,174.55882352965173L315,180.29411764710127C162.5,180.29411764710127 162.5,138.08823529780003 10,138.08823529780003Z" style="stroke: rgb(68, 68, 68); stroke-opacity: 1; fill: rgb(69, 2, 86); fill-opacity: 1; stroke-width: 0; opacity: 1;"/><path class="sankey-link" d="M325,173.60294117672754C477.5,173.60294117672754 477.5,26.764705882331462 630,26.764705882331462L630,32.49999999978102C477.5,32.49999999978102 477.5,179.33823529417708 325,179.33823529417708Z" style="stroke: rgb(68, 68, 68); stroke-opacity: 1; fill: rgb(69, 2, 86); fill-opacity: 1; stroke-width: 0; opacity: 1;"/><path class="sankey-link" d="M10,83.6029411810256C162.5,83.6029411810256 162.5,83.60294117631716 315,83.60294117631716L315,86.47058823518532C162.5,86.47058823518532 162.5,86.47058823989376 10,86.47058823989376Z" style="stroke: rgb(68, 68, 68); stroke-opacity: 1; fill: rgb(69, 2, 86); fill-opacity: 1; stroke-width: 0; opacity: 1;"/><path class="sankey-link" d="M10,138.08823529780005C162.5,138.08823529780005 162.5,180.2941176471013 315,180.2941176471013L315,183.16176470596946C162.5,183.16176470596946 162.5,140.9558823566682 10,140.9558823566682Z" style="stroke: rgb(68, 68, 68); stroke-opacity: 1; fill: rgb(69, 2, 86); fill-opacity: 1; stroke-width: 0; opacity: 1;"/><path class="sankey-link" d="M325,108.45588235270458C477.5,108.45588235270458 477.5,118.19852941083754 630,118.19852941083754L630,121.0661764697057C477.5,121.0661764697057 477.5,111.32352941157274 325,111.32352941157274Z" style="stroke: rgb(68, 68, 68); stroke-opacity: 1; fill: rgb(69, 2, 86); fill-opacity: 1; stroke-width: 0; opacity: 1;"/><path class="sankey-link" d="M325,205.62499999996277C477.5,205.62499999996277 477.5,138.27205882234114 630,138.27205882234114L630,141.1397058812093C477.5,141.1397058812093 477.5,208.49264705883093 325,208.49264705883093Z" style="stroke: rgb(68, 68, 68); stroke-opacity: 1; fill: rgb(69, 2, 86); fill-opacity: 1; stroke-width: 0; opacity: 1;"/><path class="sankey-link" d="M10,197.50000000335763C162.5,197.50000000335763 162.5,129.4852941167739 315,129.4852941167739L315,135.22058823422344C162.5,135.22058823422344 162.5,203.23529412080717 10,203.23529412080717Z" style="stroke: rgb(68, 68, 68); stroke-opacity: 1; fill: rgb(137, 183, 159); fill-opacity: 1; stroke-width: 0; opacity: 1;"/><path class="sankey-link" d="M325,111.32352941157274C477.5,111.32352941157274 477.5,121.0661764697057 630,121.0661764697057L630,126.80147058715526C477.5,126.80147058715526 477.5,117.0588235290223 325,117.0588235290223Z" style="stroke: rgb(68, 68, 68); stroke-opacity: 1; fill: rgb(137, 183, 159); fill-opacity: 1; stroke-width: 0; opacity: 1;"/><path class="sankey-link" d="M10,86.47058823989376C162.5,86.47058823989376 162.5,86.47058823518532 315,86.47058823518532L315,89.33823529405348C162.5,89.33823529405348 162.5,89.33823529876192 10,89.33823529876192Z" style="stroke: rgb(68, 68, 68); stroke-opacity: 1; fill: rgb(69, 2, 86); fill-opacity: 1; stroke-width: 0; opacity: 1;"/><path class="sankey-link" d="M10,140.9558823566682C162.5,140.9558823566682 162.5,183.16176470596946 315,183.16176470596946L315,186.02941176483762C162.5,186.02941176483762 162.5,143.82352941553637 10,143.82352941553637Z" style="stroke: rgb(68, 68, 68); stroke-opacity: 1; fill: rgb(69, 2, 86); fill-opacity: 1; stroke-width: 0; opacity: 1;"/><path class="sankey-link" d="M325,132.591911764366C477.5,132.591911764366 477.5,222.68382352837074 630,222.68382352837074L630,223.40073529311468C477.5,223.40073529311468 477.5,133.30882352910993 325,133.30882352910993Z" style="stroke: rgb(69, 2, 86); stroke-opacity: 1; fill: rgb(69, 2, 86); fill-opacity: 1; stroke-width: 1; opacity: 1;"/><path class="sankey-link" d="M325,125.66176470534C477.5,125.66176470534 477.5,180.47794117497654 630,180.47794117497654L630,181.19485293972048C477.5,181.19485293972048 477.5,126.37867647008392 325,126.37867647008392Z" style="stroke: rgb(69, 2, 86); stroke-opacity: 1; fill: rgb(69, 2, 86); fill-opacity: 1; stroke-width: 1; opacity: 1;"/><path class="sankey-link" d="M325,140.71691176471344C477.5,140.71691176471344 477.5,296.1029411762003 630,296.1029411762003L630,296.81985294094426C477.5,296.81985294094426 477.5,141.43382352945738 325,141.43382352945738Z" style="stroke: rgb(69, 2, 86); stroke-opacity: 1; fill: rgb(69, 2, 86); fill-opacity: 1; stroke-width: 1; opacity: 1;"/><path class="sankey-link" d="M325,137.13235294103765C477.5,137.13235294103765 477.5,262.9779411759245 630,262.9779411759245L630,263.69485294066845C477.5,263.69485294066845 477.5,137.8492647057816 325,137.8492647057816Z" style="stroke: rgb(69, 2, 86); stroke-opacity: 1; fill: rgb(69, 2, 86); fill-opacity: 1; stroke-width: 1; opacity: 1;"/><path class="sankey-link" d="M325,223.5477941180112C477.5,223.5477941180112 477.5,229.13602941098637 630,229.13602941098637L630,229.8529411757303C477.5,229.8529411757303 477.5,224.26470588275515 325,224.26470588275515Z" style="stroke: rgb(69, 2, 86); stroke-opacity: 1; fill: rgb(69, 2, 86); fill-opacity: 1; stroke-width: 1; opacity: 1;"/><path class="sankey-link" d="M325,213.27205882364305C477.5,213.27205882364305 477.5,189.31985293994646 630,189.31985293994646L630,190.0367647046904C477.5,190.0367647046904 477.5,213.988970588387 325,213.988970588387Z" style="stroke: rgb(69, 2, 86); stroke-opacity: 1; fill: rgb(69, 2, 86); fill-opacity: 1; stroke-width: 1; opacity: 1;"/><path class="sankey-link" d="M325,231.19485294181294C477.5,231.19485294181294 477.5,302.0772058822703 630,302.0772058822703L630,302.7941176470142C477.5,302.7941176470142 477.5,231.91176470655688 325,231.91176470655688Z" style="stroke: rgb(69, 2, 86); stroke-opacity: 1; fill: rgb(69, 2, 86); fill-opacity: 1; stroke-width: 1; opacity: 1;"/><path class="sankey-link" d="M325,229.5220588240811C477.5,229.5220588240811 477.5,266.5624999996004 630,266.5624999996004L630,267.27941176434433C477.5,267.27941176434433 477.5,230.23897058882505 325,230.23897058882505Z" style="stroke: rgb(69, 2, 86); stroke-opacity: 1; fill: rgb(69, 2, 86); fill-opacity: 1; stroke-width: 1; opacity: 1;"/><path class="sankey-link" d="M10,302.7941176476513C162.5,302.7941176476513 162.5,226.1764705875581 315,226.1764705875581L315,231.91176470500764C162.5,231.91176470500764 162.5,308.5294117651009 10,308.5294117651009Z" style="stroke: rgb(68, 68, 68); stroke-opacity: 1; fill: rgb(87, 188, 214); fill-opacity: 1; stroke-width: 0; opacity: 1;"/><path class="sankey-link" d="M325,179.3382352941771C477.5,179.3382352941771 477.5,32.49999999978102 630,32.49999999978102L630,35.367647058649176C477.5,35.367647058649176 477.5,182.20588235304527 325,182.20588235304527Z" style="stroke: rgb(68, 68, 68); stroke-opacity: 1; fill: rgb(87, 188, 214); fill-opacity: 1; stroke-width: 0; opacity: 1;"/><path class="sankey-link" d="M325,213.98897058838696C477.5,213.98897058838696 477.5,190.03676470469037 630,190.03676470469037L630,192.90441176355853C477.5,192.90441176355853 477.5,216.85661764725512 325,216.85661764725512Z" style="stroke: rgb(68, 68, 68); stroke-opacity: 1; fill: rgb(87, 188, 214); fill-opacity: 1; stroke-width: 0; opacity: 1;"/><path class="sankey-link" d="M10,231.91176470805505C162.5,231.91176470805505 162.5,274.1176470592561 315,274.1176470592561L315,279.8529411767057C162.5,279.8529411767057 162.5,237.6470588255046 10,237.6470588255046Z" style="stroke: rgb(68, 68, 68); stroke-opacity: 1; fill: rgb(137, 183, 159); fill-opacity: 1; stroke-width: 0; opacity: 1;"/><path class="sankey-link" d="M325,262.64705882435703C477.5,262.64705882435703 477.5,55.9191176466985 630,55.9191176466985L630,58.78676470556666C477.5,58.78676470556666 477.5,265.51470588322525 325,265.51470588322525Z" style="stroke: rgb(68, 68, 68); stroke-opacity: 1; fill: rgb(137, 183, 159); fill-opacity: 1; stroke-width: 0; opacity: 1;"/><path class="sankey-link" d="M325,308.5294117648137C477.5,308.5294117648137 477.5,308.5294117648143 630,308.5294117648143L630,311.3970588236825C477.5,311.3970588236825 477.5,311.3970588236819 325,311.3970588236819Z" style="stroke: rgb(68, 68, 68); stroke-opacity: 1; fill: rgb(137, 183, 159); fill-opacity: 1; stroke-width: 0; opacity: 1;"/><path class="sankey-link" d="M10,308.52941176510086C162.5,308.52941176510086 162.5,231.91176470500767 315,231.91176470500767L315,237.6470588224572C162.5,237.6470588224572 162.5,314.26470588255046 10,314.26470588255046Z" style="stroke: rgb(68, 68, 68); stroke-opacity: 1; fill: rgb(87, 188, 214); fill-opacity: 1; stroke-width: 0; opacity: 1;"/><path class="sankey-link" d="M325,182.20588235304527C477.5,182.20588235304527 477.5,35.367647058649176 630,35.367647058649176L630,38.235294117517334C477.5,38.235294117517334 477.5,185.07352941191343 325,185.07352941191343Z" style="stroke: rgb(68, 68, 68); stroke-opacity: 1; fill: rgb(87, 188, 214); fill-opacity: 1; stroke-width: 0; opacity: 1;"/><path class="sankey-link" d="M325,216.85661764725512C477.5,216.85661764725512 477.5,192.90441176355853 630,192.90441176355853L630,195.7720588224267C477.5,195.7720588224267 477.5,219.72426470612328 325,219.72426470612328Z" style="stroke: rgb(68, 68, 68); stroke-opacity: 1; fill: rgb(87, 188, 214); fill-opacity: 1; stroke-width: 0; opacity: 1;"/><path class="sankey-link" d="M10,89.33823529876192C162.5,89.33823529876192 162.5,89.33823529405348 315,89.33823529405348L315,92.20588235292163C162.5,92.20588235292163 162.5,92.20588235763007 10,92.20588235763007Z" style="stroke: rgb(68, 68, 68); stroke-opacity: 1; fill: rgb(69, 2, 86); fill-opacity: 1; stroke-width: 0; opacity: 1;"/><path class="sankey-link" d="M10,143.82352941553637C162.5,143.82352941553637 162.5,186.02941176483762 315,186.02941176483762L315,188.89705882370578C162.5,188.89705882370578 162.5,146.69117647440453 10,146.69117647440453Z" style="stroke: rgb(68, 68, 68); stroke-opacity: 1; fill: rgb(69, 2, 86); fill-opacity: 1; stroke-width: 0; opacity: 1;"/><path class="sankey-link" d="M325,74.99999999999945C477.5,74.99999999999945 477.5,7.105427357601002e-14 630,7.105427357601002e-14L630,1.4338235294699972C477.5,1.4338235294699972 477.5,76.43382352946936 325,76.43382352946936Z" style="stroke: rgb(68, 68, 68); stroke-opacity: 1; fill: rgb(69, 2, 86); fill-opacity: 1; stroke-width: 0; opacity: 1;"/><path class="sankey-link" d="M325,133.3088235291099C477.5,133.3088235291099 477.5,223.40073529311465 630,223.40073529311465L630,224.83455882258457C477.5,224.83455882258457 477.5,134.74264705857982 325,134.74264705857982Z" style="stroke: rgb(68, 68, 68); stroke-opacity: 1; fill: rgb(69, 2, 86); fill-opacity: 1; stroke-width: 0; opacity: 1;"/><path class="sankey-link" d="M325,185.07352941191343C477.5,185.07352941191343 477.5,38.235294117517334 630,38.235294117517334L630,39.66911764698727C477.5,39.66911764698727 477.5,186.50735294138335 325,186.50735294138335Z" style="stroke: rgb(68, 68, 68); stroke-opacity: 1; fill: rgb(69, 2, 86); fill-opacity: 1; stroke-width: 0; opacity: 1;"/><path class="sankey-link" d="M325,224.26470588275512C477.5,224.26470588275512 477.5,229.85294117573028 630,229.85294117573028L630,231.2867647052002C477.5,231.2867647052002 477.5,225.69852941222504 325,225.69852941222504Z" style="stroke: rgb(68, 68, 68); stroke-opacity: 1; fill: rgb(69, 2, 86); fill-opacity: 1; stroke-width: 0; opacity: 1;"/><path class="sankey-link" d="M10,92.20588235763007C162.5,92.20588235763007 162.5,92.20588235292163 315,92.20588235292163L315,95.07352941178979C162.5,95.07352941178979 162.5,95.07352941649823 10,95.07352941649823Z" style="stroke: rgb(68, 68, 68); stroke-opacity: 1; fill: rgb(69, 2, 86); fill-opacity: 1; stroke-width: 0; opacity: 1;"/><path class="sankey-link" d="M10,146.69117647440453C162.5,146.69117647440453 162.5,188.89705882370578 315,188.89705882370578L315,191.76470588257394C162.5,191.76470588257394 162.5,149.5588235332727 10,149.5588235332727Z" style="stroke: rgb(68, 68, 68); stroke-opacity: 1; fill: rgb(69, 2, 86); fill-opacity: 1; stroke-width: 0; opacity: 1;"/><path class="sankey-link" d="M325,76.43382352946938C477.5,76.43382352946938 477.5,1.4338235294699972 630,1.4338235294699972L630,4.301470588338159C477.5,4.301470588338159 477.5,79.30147058833754 325,79.30147058833754Z" style="stroke: rgb(68, 68, 68); stroke-opacity: 1; fill: rgb(69, 2, 86); fill-opacity: 1; stroke-width: 0; opacity: 1;"/><path class="sankey-link" d="M325,186.50735294138335C477.5,186.50735294138335 477.5,39.66911764698726 630,39.66911764698726L630,42.53676470585542C477.5,42.53676470585542 477.5,189.3750000002515 325,189.3750000002515Z" style="stroke: rgb(68, 68, 68); stroke-opacity: 1; fill: rgb(69, 2, 86); fill-opacity: 1; stroke-width: 0; opacity: 1;"/><path class="sankey-link" d="M10,149.5588235332727C162.5,149.5588235332727 162.5,191.76470588257394 315,191.76470588257394L315,197.50000000002348C162.5,197.50000000002348 162.5,155.29411765072223 10,155.29411765072223Z" style="stroke: rgb(68, 68, 68); stroke-opacity: 1; fill: rgb(69, 2, 86); fill-opacity: 1; stroke-width: 0; opacity: 1;"/><path class="sankey-link" d="M325,189.3750000002515C477.5,189.3750000002515 477.5,42.53676470585542 630,42.53676470585542L630,48.272058823304974C477.5,48.272058823304974 477.5,195.11029411770105 325,195.11029411770105Z" style="stroke: rgb(68, 68, 68); stroke-opacity: 1; fill: rgb(69, 2, 86); fill-opacity: 1; stroke-width: 0; opacity: 1;"/><path class="sankey-link" d="M10,214.70588235570634C162.5,214.70588235570634 162.5,208.9705882352094 315,208.9705882352094L315,214.70588235265893C162.5,214.70588235265893 162.5,220.44117647315588 10,220.44117647315588Z" style="stroke: rgb(68, 68, 68); stroke-opacity: 1; fill: rgb(137, 183, 159); fill-opacity: 1; stroke-width: 0; opacity: 1;"/><path class="sankey-link" d="M325,195.11029411770107C477.5,195.11029411770107 477.5,48.272058823304974 630,48.272058823304974L630,50.18382352924894C477.5,50.18382352924894 477.5,197.02205882364507 325,197.02205882364507Z" style="stroke: rgb(68, 68, 68); stroke-opacity: 1; fill: rgb(137, 183, 159); fill-opacity: 1; stroke-width: 0; opacity: 1;"/><path class="sankey-link" d="M325,219.72426470612328C477.5,219.72426470612328 477.5,195.7720588224267 630,195.7720588224267L630,197.68382352837068C477.5,197.68382352837068 477.5,221.63602941206727 325,221.63602941206727Z" style="stroke: rgb(68, 68, 68); stroke-opacity: 1; fill: rgb(137, 183, 159); fill-opacity: 1; stroke-width: 0; opacity: 1;"/><path class="sankey-link" d="M325,231.91176470655685C477.5,231.91176470655685 477.5,302.7941176470142 630,302.7941176470142L630,304.70588235295816C477.5,304.70588235295816 477.5,233.82352941250085 325,233.82352941250085Z" style="stroke: rgb(68, 68, 68); stroke-opacity: 1; fill: rgb(137, 183, 159); fill-opacity: 1; stroke-width: 0; opacity: 1;"/><path class="sankey-link" d="M10,237.64705882550462C162.5,237.64705882550462 162.5,279.85294117670566 315,279.85294117670566L315,285.58823529415525C162.5,285.58823529415525 162.5,243.38235294295416 10,243.38235294295416Z" style="stroke: rgb(68, 68, 68); stroke-opacity: 1; fill: rgb(137, 183, 159); fill-opacity: 1; stroke-width: 0; opacity: 1;"/><path class="sankey-link" d="M325,265.5147058832252C477.5,265.5147058832252 477.5,58.78676470556666 630,58.78676470556666L630,61.65441176443482C477.5,61.65441176443482 477.5,268.3823529420934 325,268.3823529420934Z" style="stroke: rgb(68, 68, 68); stroke-opacity: 1; fill: rgb(137, 183, 159); fill-opacity: 1; stroke-width: 0; opacity: 1;"/><path class="sankey-link" d="M325,305.66176470594553C477.5,305.66176470594553 477.5,268.2352941173323 630,268.2352941173323L630,271.1029411762005C477.5,271.1029411762005 477.5,308.52941176481374 325,308.52941176481374Z" style="stroke: rgb(68, 68, 68); stroke-opacity: 1; fill: rgb(137, 183, 159); fill-opacity: 1; stroke-width: 0; opacity: 1;"/><path class="sankey-link" d="M10,314.2647058825504C162.5,314.2647058825504 162.5,314.2647058814029 315,314.2647058814029L315,319.9999999988525C162.5,319.9999999988525 162.5,320 10,320Z" style="stroke: rgb(68, 68, 68); stroke-opacity: 1; fill: rgb(87, 188, 214); fill-opacity: 1; stroke-width: 0; opacity: 1;"/><path class="sankey-link" d="M325,268.38235294209335C477.5,268.38235294209335 477.5,61.65441176443482 630,61.65441176443482L630,67.38970588188438C477.5,67.38970588188438 477.5,274.11764705954295 325,274.11764705954295Z" style="stroke: rgb(68, 68, 68); stroke-opacity: 1; fill: rgb(87, 188, 214); fill-opacity: 1; stroke-width: 0; opacity: 1;"/><path class="sankey-link" d="M10,220.4411764731559C162.5,220.4411764731559 162.5,214.70588235265896 315,214.70588235265896L315,220.4411764701085C162.5,220.4411764701085 162.5,226.17647059060545 10,226.17647059060545Z" style="stroke: rgb(68, 68, 68); stroke-opacity: 1; fill: rgb(137, 183, 159); fill-opacity: 1; stroke-width: 0; opacity: 1;"/><path class="sankey-link" d="M325,225.69852941222504C477.5,225.69852941222504 477.5,231.2867647052002 630,231.2867647052002L630,234.15441176406836C477.5,234.15441176406836 477.5,228.5661764710932 325,228.5661764710932Z" style="stroke: rgb(68, 68, 68); stroke-opacity: 1; fill: rgb(137, 183, 159); fill-opacity: 1; stroke-width: 0; opacity: 1;"/><path class="sankey-link" d="M325,233.82352941250082C477.5,233.82352941250082 477.5,304.7058823529582 630,304.7058823529582L630,307.5735294118264C477.5,307.5735294118264 477.5,236.69117647136898 325,236.69117647136898Z" style="stroke: rgb(68, 68, 68); stroke-opacity: 1; fill: rgb(137, 183, 159); fill-opacity: 1; stroke-width: 0; opacity: 1;"/><path class="sankey-link" d="M10,95.07352941649823C162.5,95.07352941649823 162.5,95.07352941178979 315,95.07352941178979L315,97.94117647065795C162.5,97.94117647065795 162.5,97.94117647536639 10,97.94117647536639Z" style="stroke: rgb(68, 68, 68); stroke-opacity: 1; fill: rgb(69, 2, 86); fill-opacity: 1; stroke-width: 0; opacity: 1;"/><path class="sankey-link" d="M10,155.29411765072226C162.5,155.29411765072226 162.5,197.5000000000235 315,197.5000000000235L315,200.36764705889166C162.5,200.36764705889166 162.5,158.16176470959041 10,158.16176470959041Z" style="stroke: rgb(68, 68, 68); stroke-opacity: 1; fill: rgb(69, 2, 86); fill-opacity: 1; stroke-width: 0; opacity: 1;"/><path class="sankey-link" d="M325,117.05882352902229C477.5,117.05882352902229 477.5,126.80147058715525 630,126.80147058715525L630,129.6691176460234C477.5,129.6691176460234 477.5,119.92647058789045 325,119.92647058789045Z" style="stroke: rgb(68, 68, 68); stroke-opacity: 1; fill: rgb(69, 2, 86); fill-opacity: 1; stroke-width: 0; opacity: 1;"/><path class="sankey-link" d="M325,208.49264705883093C477.5,208.49264705883093 477.5,141.1397058812093 630,141.1397058812093L630,144.00735294007745C477.5,144.00735294007745 477.5,211.36029411769908 325,211.36029411769908Z" style="stroke: rgb(68, 68, 68); stroke-opacity: 1; fill: rgb(69, 2, 86); fill-opacity: 1; stroke-width: 0; opacity: 1;"/><path class="sankey-link" d="M10,203.2352941208072C162.5,203.2352941208072 162.5,135.22058823422347 315,135.22058823422347L315,140.955882351673C162.5,140.955882351673 162.5,208.97058823825674 10,208.97058823825674Z" style="stroke: rgb(68, 68, 68); stroke-opacity: 1; fill: rgb(137, 183, 159); fill-opacity: 1; stroke-width: 0; opacity: 1;"/><path class="sankey-link" d="M325,79.30147058833754C477.5,79.30147058833754 477.5,4.301470588338159 630,4.301470588338159L630,10.036764705787716C477.5,10.036764705787716 477.5,85.0367647057871 325,85.0367647057871Z" style="stroke: rgb(68, 68, 68); stroke-opacity: 1; fill: rgb(137, 183, 159); fill-opacity: 1; stroke-width: 0; opacity: 1;"/><path class="sankey-link" d="M10,243.38235294295418C162.5,243.38235294295418 162.5,285.5882352941552 315,285.5882352941552L315,291.3235294116048C162.5,291.3235294116048 162.5,249.11764706040373 10,249.11764706040373Z" style="stroke: rgb(68, 68, 68); stroke-opacity: 1; fill: rgb(137, 183, 159); fill-opacity: 1; stroke-width: 0; opacity: 1;"/><path class="sankey-link" d="M325,274.1176470595429C477.5,274.1176470595429 477.5,67.38970588188438 630,67.38970588188438L630,70.25735294075254C477.5,70.25735294075254 477.5,276.9852941184111 325,276.9852941184111Z" style="stroke: rgb(68, 68, 68); stroke-opacity: 1; fill: rgb(137, 183, 159); fill-opacity: 1; stroke-width: 0; opacity: 1;"/><path class="sankey-link" d="M325,311.39705882368185C477.5,311.39705882368185 477.5,311.39705882368247 630,311.39705882368247L630,314.2647058825507C477.5,314.2647058825507 477.5,314.26470588255006 325,314.26470588255006Z" style="stroke: rgb(68, 68, 68); stroke-opacity: 1; fill: rgb(137, 183, 159); fill-opacity: 1; stroke-width: 0; opacity: 1;"/><path class="sankey-link" d="M10,97.94117647536639C162.5,97.94117647536639 162.5,97.94117647065795 315,97.94117647065795L315,103.67647058810752C162.5,103.67647058810752 162.5,103.67647059281596 10,103.67647059281596Z" style="stroke: rgb(68, 68, 68); stroke-opacity: 1; fill: rgb(69, 2, 86); fill-opacity: 1; stroke-width: 0; opacity: 1;"/><path class="sankey-link" d="M325,85.03676470578709C477.5,85.03676470578709 477.5,10.036764705787716 630,10.036764705787716L630,12.904411764655878C477.5,12.904411764655878 477.5,87.90441176465525 325,87.90441176465525Z" style="stroke: rgb(68, 68, 68); stroke-opacity: 1; fill: rgb(69, 2, 86); fill-opacity: 1; stroke-width: 0; opacity: 1;"/><path class="sankey-link" d="M325,126.37867647008393C477.5,126.37867647008393 477.5,181.19485293972045 630,181.19485293972045L630,184.0624999985886C477.5,184.0624999985886 477.5,129.2463235289521 325,129.2463235289521Z" style="stroke: rgb(68, 68, 68); stroke-opacity: 1; fill: rgb(69, 2, 86); fill-opacity: 1; stroke-width: 0; opacity: 1;"/><path class="sankey-link" d="M10,103.67647059281595C162.5,103.67647059281595 162.5,103.6764705881075 315,103.6764705881075L315,109.41176470555708C162.5,109.41176470555708 162.5,109.41176471026552 10,109.41176471026552Z" style="stroke: rgb(68, 68, 68); stroke-opacity: 1; fill: rgb(69, 2, 86); fill-opacity: 1; stroke-width: 0; opacity: 1;"/><path class="sankey-link" d="M325,87.90441176465525C477.5,87.90441176465525 477.5,12.90441176465588 630,12.90441176465588L630,18.639705882105435C477.5,18.639705882105435 477.5,93.63970588210482 325,93.63970588210482Z" style="stroke: rgb(68, 68, 68); stroke-opacity: 1; fill: rgb(69, 2, 86); fill-opacity: 1; stroke-width: 0; opacity: 1;"/><path class="sankey-link" d="M10,158.16176470959041C162.5,158.16176470959041 162.5,200.36764705889166 315,200.36764705889166L315,206.1029411763412C162.5,206.1029411763412 162.5,163.89705882703996 10,163.89705882703996Z" style="stroke: rgb(68, 68, 68); stroke-opacity: 1; fill: rgb(69, 2, 86); fill-opacity: 1; stroke-width: 0; opacity: 1;"/><path class="sankey-link" d="M325,197.02205882364504C477.5,197.02205882364504 477.5,50.18382352924895 630,50.18382352924895L630,55.9191176466985C477.5,55.9191176466985 477.5,202.75735294109458 325,202.75735294109458Z" style="stroke: rgb(68, 68, 68); stroke-opacity: 1; fill: rgb(69, 2, 86); fill-opacity: 1; stroke-width: 0; opacity: 1;"/><path class="sankey-link" d="M10,109.4117647102655C162.5,109.4117647102655 162.5,109.41176470555706 315,109.41176470555706L315,115.14705882300663C162.5,115.14705882300663 162.5,115.14705882771507 10,115.14705882771507Z" style="stroke: rgb(68, 68, 68); stroke-opacity: 1; fill: rgb(69, 2, 86); fill-opacity: 1; stroke-width: 0; opacity: 1;"/><path class="sankey-link" d="M325,93.6397058821048C477.5,93.6397058821048 477.5,18.639705882105435 630,18.639705882105435L630,21.507352940973593C477.5,21.507352940973593 477.5,96.50735294097296 325,96.50735294097296Z" style="stroke: rgb(68, 68, 68); stroke-opacity: 1; fill: rgb(69, 2, 86); fill-opacity: 1; stroke-width: 0; opacity: 1;"/><path class="sankey-link" d="M325,141.43382352945736C477.5,141.43382352945736 477.5,296.81985294094426 630,296.81985294094426L630,299.6874999998125C477.5,299.6874999998125 477.5,144.30147058832551 325,144.30147058832551Z" style="stroke: rgb(68, 68, 68); stroke-opacity: 1; fill: rgb(69, 2, 86); fill-opacity: 1; stroke-width: 0; opacity: 1;"/><path class="sankey-link" d="M10,249.11764706040375C162.5,249.11764706040375 162.5,291.32352941160474 315,291.32352941160474L315,297.05882352905434C162.5,297.05882352905434 162.5,254.8529411778533 10,254.8529411778533Z" style="stroke: rgb(68, 68, 68); stroke-opacity: 1; fill: rgb(137, 183, 159); fill-opacity: 1; stroke-width: 0; opacity: 1;"/><path class="sankey-link" d="M325,314.26470588255C477.5,314.26470588255 477.5,314.26470588255063 630,314.26470588255063L630,320.0000000000002C477.5,320.0000000000002 477.5,319.9999999999996 325,319.9999999999996Z" style="stroke: rgb(68, 68, 68); stroke-opacity: 1; fill: rgb(137, 183, 159); fill-opacity: 1; stroke-width: 0; opacity: 1;"/><path class="sankey-link" d="M10,254.85294117785335C162.5,254.85294117785335 162.5,297.0588235290543 315,297.0588235290543L315,302.7941176465039C162.5,302.7941176465039 162.5,260.5882352953029 10,260.5882352953029Z" style="stroke: rgb(68, 68, 68); stroke-opacity: 1; fill: rgb(137, 183, 159); fill-opacity: 1; stroke-width: 0; opacity: 1;"/><path class="sankey-link" d="M325,276.98529411841105C477.5,276.98529411841105 477.5,70.25735294075254 630,70.25735294075254L630,75.99264705820211C477.5,75.99264705820211 477.5,282.72058823586065 325,282.72058823586065Z" style="stroke: rgb(68, 68, 68); stroke-opacity: 1; fill: rgb(137, 183, 159); fill-opacity: 1; stroke-width: 0; opacity: 1;"/><path class="sankey-link" d="M10,208.97058823825677C162.5,208.97058823825677 162.5,140.95588235167304 315,140.95588235167304L315,146.69117646912258C162.5,146.69117646912258 162.5,214.7058823557063 10,214.7058823557063Z" style="stroke: rgb(68, 68, 68); stroke-opacity: 1; fill: rgb(137, 183, 159); fill-opacity: 1; stroke-width: 0; opacity: 1;"/><path class="sankey-link" d="M325,96.50735294097296C477.5,96.50735294097296 477.5,21.507352940973597 630,21.507352940973597L630,22.941176470443523C477.5,22.941176470443523 477.5,97.94117647044288 325,97.94117647044288Z" style="stroke: rgb(68, 68, 68); stroke-opacity: 1; fill: rgb(137, 183, 159); fill-opacity: 1; stroke-width: 0; opacity: 1;"/><path class="sankey-link" d="M325,134.74264705857982C477.5,134.74264705857982 477.5,224.83455882258457 630,224.83455882258457L630,226.2683823520545C477.5,226.2683823520545 477.5,136.17647058804974 325,136.17647058804974Z" style="stroke: rgb(68, 68, 68); stroke-opacity: 1; fill: rgb(137, 183, 159); fill-opacity: 1; stroke-width: 0; opacity: 1;"/><path class="sankey-link" d="M325,129.2463235289521C477.5,129.2463235289521 477.5,184.0624999985886 630,184.0624999985886L630,185.49632352805853C477.5,185.49632352805853 477.5,130.68014705842202 325,130.68014705842202Z" style="stroke: rgb(68, 68, 68); stroke-opacity: 1; fill: rgb(137, 183, 159); fill-opacity: 1; stroke-width: 0; opacity: 1;"/><path class="sankey-link" d="M325,144.30147058832551C477.5,144.30147058832551 477.5,299.6874999998124 630,299.6874999998124L630,301.12132352928234C477.5,301.12132352928234 477.5,145.73529411779543 325,145.73529411779543Z" style="stroke: rgb(68, 68, 68); stroke-opacity: 1; fill: rgb(137, 183, 159); fill-opacity: 1; stroke-width: 0; opacity: 1;"/><path class="sankey-link" d="M10,260.58823529530287C162.5,260.58823529530287 162.5,302.7941176465038 315,302.7941176465038L315,308.5294117639534C162.5,308.5294117639534 162.5,266.32352941275246 10,266.32352941275246Z" style="stroke: rgb(68, 68, 68); stroke-opacity: 1; fill: rgb(137, 183, 159); fill-opacity: 1; stroke-width: 0; opacity: 1;"/><path class="sankey-link" d="M325,282.7205882358606C477.5,282.7205882358606 477.5,75.9926470582021 630,75.9926470582021L630,81.72794117565167C477.5,81.72794117565167 477.5,288.4558823533102 325,288.4558823533102Z" style="stroke: rgb(68, 68, 68); stroke-opacity: 1; fill: rgb(137, 183, 159); fill-opacity: 1; stroke-width: 0; opacity: 1;"/><path class="sankey-link" d="M10,115.14705882771506C162.5,115.14705882771506 162.5,115.14705882300662 315,115.14705882300662L315,120.88235294045619C162.5,120.88235294045619 162.5,120.88235294516463 10,120.88235294516463Z" style="stroke: rgb(68, 68, 68); stroke-opacity: 1; fill: rgb(69, 2, 86); fill-opacity: 1; stroke-width: 0; opacity: 1;"/><path class="sankey-link" d="M325,119.92647058789045C477.5,119.92647058789045 477.5,129.6691176460234 630,129.6691176460234L630,135.40441176347295C477.5,135.40441176347295 477.5,125.66176470534002 325,125.66176470534002Z" style="stroke: rgb(68, 68, 68); stroke-opacity: 1; fill: rgb(69, 2, 86); fill-opacity: 1; stroke-width: 0; opacity: 1;"/><path class="sankey-link" d="M10,166.76470588590814C162.5,166.76470588590814 162.5,262.64705882435703 315,262.64705882435703L315,268.38235294180663C162.5,268.38235294180663 162.5,172.50000000335768 10,172.50000000335768Z" style="stroke: rgb(68, 68, 68); stroke-opacity: 1; fill: rgb(69, 2, 86); fill-opacity: 1; stroke-width: 0; opacity: 1;"/><path class="sankey-link" d="M325,297.05882352962783C477.5,297.05882352962783 477.5,149.74264705752702 630,149.74264705752702L630,155.47794117497656C477.5,155.47794117497656 477.5,302.7941176470774 325,302.7941176470774Z" style="stroke: rgb(68, 68, 68); stroke-opacity: 1; fill: rgb(69, 2, 86); fill-opacity: 1; stroke-width: 0; opacity: 1;"/><path class="sankey-link" d="M10,120.88235294516461C162.5,120.88235294516461 162.5,120.88235294045617 315,120.88235294045617L315,123.74999999932433C162.5,123.74999999932433 162.5,123.75000000403277 10,123.75000000403277Z" style="stroke: rgb(68, 68, 68); stroke-opacity: 1; fill: rgb(69, 2, 86); fill-opacity: 1; stroke-width: 0; opacity: 1;"/><path class="sankey-link" d="M10,163.89705882703998C162.5,163.89705882703998 162.5,206.10294117634123 315,206.10294117634123L315,208.9705882352094C162.5,208.9705882352094 162.5,166.76470588590814 10,166.76470588590814Z" style="stroke: rgb(68, 68, 68); stroke-opacity: 1; fill: rgb(69, 2, 86); fill-opacity: 1; stroke-width: 0; opacity: 1;"/><path class="sankey-link" d="M325,136.17647058804974C477.5,136.17647058804974 477.5,226.2683823520545 630,226.2683823520545L630,227.22426470504243C477.5,227.22426470504243 477.5,137.13235294103768 325,137.13235294103768Z" style="stroke: rgb(69, 2, 86); stroke-opacity: 1; fill: rgb(69, 2, 86); fill-opacity: 1; stroke-width: 1; opacity: 1;"/><path class="sankey-link" d="M325,145.73529411779543C477.5,145.73529411779543 477.5,301.12132352928234 630,301.12132352928234L630,302.0772058822703C477.5,302.0772058822703 477.5,146.69117647078338 325,146.69117647078338Z" style="stroke: rgb(69, 2, 86); stroke-opacity: 1; fill: rgb(69, 2, 86); fill-opacity: 1; stroke-width: 1; opacity: 1;"/><path class="sankey-link" d="M325,137.84926470578156C477.5,137.84926470578156 477.5,263.69485294066845 630,263.69485294066845L630,264.6507352936564C477.5,264.6507352936564 477.5,138.8051470587695 325,138.8051470587695Z" style="stroke: rgb(69, 2, 86); stroke-opacity: 1; fill: rgb(69, 2, 86); fill-opacity: 1; stroke-width: 1; opacity: 1;"/><path class="sankey-link" d="M325,228.5661764710932C477.5,228.5661764710932 477.5,234.15441176406836 630,234.15441176406836L630,235.1102941170563C477.5,235.1102941170563 477.5,229.52205882408114 325,229.52205882408114Z" style="stroke: rgb(69, 2, 86); stroke-opacity: 1; fill: rgb(69, 2, 86); fill-opacity: 1; stroke-width: 1; opacity: 1;"/><path class="sankey-link" d="M325,236.69117647136898C477.5,236.69117647136898 477.5,307.57352941182637 630,307.57352941182637L630,308.5294117648143C477.5,308.5294117648143 477.5,237.64705882435692 325,237.64705882435692Z" style="stroke: rgb(69, 2, 86); stroke-opacity: 1; fill: rgb(69, 2, 86); fill-opacity: 1; stroke-width: 1; opacity: 1;"/><path class="sankey-link" d="M325,230.23897058882503C477.5,230.23897058882503 477.5,267.27941176434433 630,267.27941176434433L630,268.2352941173323C477.5,268.2352941173323 477.5,231.19485294181297 325,231.19485294181297Z" style="stroke: rgb(69, 2, 86); stroke-opacity: 1; fill: rgb(69, 2, 86); fill-opacity: 1; stroke-width: 1; opacity: 1;"/><path class="sankey-link" d="M10,123.75000000403277C162.5,123.75000000403277 162.5,123.74999999932433 315,123.74999999932433L315,129.4852941167739C162.5,129.4852941167739 162.5,129.48529412148233 10,129.48529412148233Z" style="stroke: rgb(68, 68, 68); stroke-opacity: 1; fill: rgb(69, 2, 86); fill-opacity: 1; stroke-width: 0; opacity: 1;"/><path class="sankey-link" d="M325,97.9411764704429C477.5,97.9411764704429 477.5,22.941176470443523 630,22.941176470443523L630,24.852941176387496C477.5,24.852941176387496 477.5,99.85294117638686 325,99.85294117638686Z" style="stroke: rgb(68, 68, 68); stroke-opacity: 1; fill: rgb(69, 2, 86); fill-opacity: 1; stroke-width: 0; opacity: 1;"/><path class="sankey-link" d="M325,130.68014705842202C477.5,130.68014705842202 477.5,185.49632352805853 630,185.49632352805853L630,187.40808823400252C477.5,187.40808823400252 477.5,132.59191176436602 325,132.59191176436602Z" style="stroke: rgb(68, 68, 68); stroke-opacity: 1; fill: rgb(69, 2, 86); fill-opacity: 1; stroke-width: 0; opacity: 1;"/><path class="sankey-link" d="M325,138.80514705876948C477.5,138.80514705876948 477.5,264.6507352936564 630,264.6507352936564L630,266.56249999960033C477.5,266.56249999960033 477.5,140.71691176471347 325,140.71691176471347Z" style="stroke: rgb(68, 68, 68); stroke-opacity: 1; fill: rgb(69, 2, 86); fill-opacity: 1; stroke-width: 0; opacity: 1;"/><path class="sankey-link" d="M10,266.3235294127524C162.5,266.3235294127524 162.5,308.52941176395336 315,308.52941176395336L315,314.26470588140296C162.5,314.26470588140296 162.5,272.058823530202 10,272.058823530202Z" style="stroke: rgb(68, 68, 68); stroke-opacity: 1; fill: rgb(137, 183, 159); fill-opacity: 1; stroke-width: 0; opacity: 1;"/><path class="sankey-link" d="M325,288.45588235331013C477.5,288.45588235331013 477.5,81.72794117565165 630,81.72794117565165L630,84.59558823451981C477.5,84.59558823451981 477.5,291.32352941217835 325,291.32352941217835Z" style="stroke: rgb(68, 68, 68); stroke-opacity: 1; fill: rgb(137, 183, 159); fill-opacity: 1; stroke-width: 0; opacity: 1;"/><path class="sankey-link" d="M325,302.79411764707737C477.5,302.79411764707737 477.5,235.11029411705627 630,235.11029411705627L630,237.97794117592443C477.5,237.97794117592443 477.5,305.6617647059456 325,305.6617647059456Z" style="stroke: rgb(68, 68, 68); stroke-opacity: 1; fill: rgb(137, 183, 159); fill-opacity: 1; stroke-width: 0; opacity: 1;"/></g><g class="sankey-node-set" style="cursor: move;"><g class="sankey-node" transform="translate(315.000,75.000)" style="opacity: 1;"><rect class="node-rect" width="10" height="71.69117647078413" style="stroke-width: 0.5; stroke: rgb(68, 68, 68); stroke-opacity: 1; fill: rgb(51, 51, 51); fill-opacity: 1;"/><text class="node-label" data-notex="1" x="0" y="0" text-anchor="start" transform="translate(13.25,40.39558823539206)" style="cursor: default; font-family: Arial; font-size: 13px; fill: rgb(51, 51, 51); fill-opacity: 1; white-space: pre; text-shadow: white 1px 1px 1px, white -1px -1px 1px, white 1px -1px 1px, white -1px 1px 1px;">Leverages Natural Language Structure</text></g><g class="sankey-node" transform="translate(315.000,171.691)" style="opacity: 1;"><rect class="node-rect" width="10" height="65.95588235357346" style="stroke-width: 0.5; stroke: rgb(68, 68, 68); stroke-opacity: 1; fill: rgb(51, 51, 51); fill-opacity: 1;"/><text class="node-label" data-notex="1" x="0" y="0" text-anchor="start" transform="translate(13.25,37.527941176786726)" style="cursor: default; font-family: Arial; font-size: 13px; fill: rgb(51, 51, 51); fill-opacity: 1; white-space: pre; text-shadow: white 1px 1px 1px, white -1px -1px 1px, white 1px -1px 1px, white -1px 1px 1px;">Leverages Relational Structure (KG)</text></g><g class="sankey-node" transform="translate(315.000,262.647)" style="opacity: 1;"><rect class="node-rect" width="10" height="57.35294117564297" style="stroke-width: 0.5; stroke: rgb(68, 68, 68); stroke-opacity: 1; fill: rgb(51, 51, 51); fill-opacity: 1;"/><text class="node-label" data-notex="1" x="0" y="0" text-anchor="start" transform="translate(13.25,33.22647058782148)" style="cursor: default; font-family: Arial; font-size: 13px; fill: rgb(51, 51, 51); fill-opacity: 1; white-space: pre; text-shadow: white 1px 1px 1px, white -1px -1px 1px, white 1px -1px 1px, white -1px 1px 1px;">No Structure Leverage</text></g><g class="sankey-node" transform="translate(630.000,0.000)" style="opacity: 1;"><rect class="node-rect" width="10" height="84.59558823451975" style="stroke-width: 0.5; stroke: rgb(68, 68, 68); stroke-opacity: 1; fill: rgb(51, 51, 51); fill-opacity: 1;"/><text class="node-label" data-notex="1" x="0" y="0" text-anchor="end" transform="translate(-3.25,46.84779411725987)" style="cursor: default; font-family: Arial; font-size: 13px; fill: rgb(51, 51, 51); fill-opacity: 1; white-space: pre; text-shadow: white 1px 1px 1px, white -1px -1px 1px, white 1px -1px 1px, white -1px 1px 1px;">Reasoning</text></g><g class="sankey-node" transform="translate(630.000,222.684)" style="opacity: 1;"><rect class="node-rect" width="10" height="15.294117647553776" style="stroke-width: 0.5; stroke: rgb(68, 68, 68); stroke-opacity: 1; fill: rgb(51, 51, 51); fill-opacity: 1;"/><text class="node-label" data-notex="1" x="0" y="0" text-anchor="end" transform="translate(-3.25,12.197058823776889)" style="cursor: default; font-family: Arial; font-size: 13px; fill: rgb(51, 51, 51); fill-opacity: 1; white-space: pre; text-shadow: white 1px 1px 1px, white -1px -1px 1px, white 1px -1px 1px, white -1px 1px 1px;">Out-of-distribution Generalization</text></g><g class="sankey-node" transform="translate(630.000,180.478)" style="opacity: 1;"><rect class="node-rect" width="10" height="17.205882353394202" style="stroke-width: 0.5; stroke: rgb(68, 68, 68); stroke-opacity: 1; fill: rgb(51, 51, 51); fill-opacity: 1;"/><text class="node-label" data-notex="1" x="0" y="0" text-anchor="end" transform="translate(-3.25,13.152941176697102)" style="cursor: default; font-family: Arial; font-size: 13px; fill: rgb(51, 51, 51); fill-opacity: 1; white-space: pre; text-shadow: white 1px 1px 1px, white -1px -1px 1px, white 1px -1px 1px, white -1px 1px 1px;">Interpretability</text></g><g class="sankey-node" transform="translate(630.000,296.103)" style="opacity: 1;"><rect class="node-rect" width="10" height="23.897058823799682" style="stroke-width: 0.5; stroke: rgb(68, 68, 68); stroke-opacity: 1; fill: rgb(51, 51, 51); fill-opacity: 1;"/><text class="node-label" data-notex="1" x="0" y="0" text-anchor="end" transform="translate(-3.25,16.498529411899842)" style="cursor: default; font-family: Arial; font-size: 13px; fill: rgb(51, 51, 51); fill-opacity: 1; white-space: pre; text-shadow: white 1px 1px 1px, white -1px -1px 1px, white 1px -1px 1px, white -1px 1px 1px;">Reduced Data</text></g><g class="sankey-node" transform="translate(630.000,262.978)" style="opacity: 1;"><rect class="node-rect" width="10" height="8.125000000275804" style="stroke-width: 0.5; stroke: rgb(68, 68, 68); stroke-opacity: 1; fill: rgb(51, 51, 51); fill-opacity: 1;"/><text class="node-label" data-notex="1" x="0" y="0" text-anchor="end" transform="translate(-3.25,8.612500000137903)" style="cursor: default; font-family: Arial; font-size: 13px; fill: rgb(51, 51, 51); fill-opacity: 1; white-space: pre; text-shadow: white 1px 1px 1px, white -1px -1px 1px, white 1px -1px 1px, white -1px 1px 1px;">Transferability</text></g><g class="sankey-node" transform="translate(630.000,109.596)" style="opacity: 1;"><rect class="node-rect" width="10" height="45.88235294045671" style="stroke-width: 0.5; stroke: rgb(68, 68, 68); stroke-opacity: 1; fill: rgb(51, 51, 51); fill-opacity: 1;"/><text class="node-label" data-notex="1" x="0" y="0" text-anchor="end" transform="translate(-3.25,27.491176470228357)" style="cursor: default; font-family: Arial; font-size: 13px; fill: rgb(51, 51, 51); fill-opacity: 1; white-space: pre; text-shadow: white 1px 1px 1px, white -1px -1px 1px, white 1px -1px 1px, white -1px 1px 1px;">None</text></g><g class="sankey-node" transform="translate(0.000,297.059)" style="opacity: 1;"><rect class="node-rect" width="10" height="22.941176469798222" style="stroke-width: 0.5; stroke: rgb(68, 68, 68); stroke-opacity: 1; fill: rgb(51, 51, 51); fill-opacity: 1;"/><text class="node-label" data-notex="1" x="0" y="0" text-anchor="start" transform="translate(13.25,16.02058823489911)" style="cursor: default; font-family: Arial; font-size: 13px; fill: rgb(51, 51, 51); fill-opacity: 1; white-space: pre; text-shadow: white 1px 1px 1px, white -1px -1px 1px, white 1px -1px 1px, white -1px 1px 1px;">Both</text></g><g class="sankey-node" transform="translate(0.000,197.500)" style="opacity: 1;"><rect class="node-rect" width="10" height="74.55882352684415" style="stroke-width: 0.5; stroke: rgb(68, 68, 68); stroke-opacity: 1; fill: rgb(51, 51, 51); fill-opacity: 1;"/><text class="node-label" data-notex="1" x="0" y="0" text-anchor="start" transform="translate(13.25,41.82941176342207)" style="cursor: default; font-family: Arial; font-size: 13px; fill: rgb(51, 51, 51); fill-opacity: 1; white-space: pre; text-shadow: white 1px 1px 1px, white -1px -1px 1px, white 1px -1px 1px, white -1px 1px 1px;">Explicit</text></g><g class="sankey-node" transform="translate(0.000,75.000)" style="opacity: 1;"><rect class="node-rect" width="10" height="97.49999999864974" style="stroke-width: 0.5; stroke: rgb(68, 68, 68); stroke-opacity: 1; fill: rgb(51, 51, 51); fill-opacity: 1;"/><text class="node-label" data-notex="1" x="0" y="0" text-anchor="start" transform="translate(13.25,53.29999999932487)" style="cursor: default; font-family: Arial; font-size: 13px; fill: rgb(51, 51, 51); fill-opacity: 1; white-space: pre; text-shadow: white 1px 1px 1px, white -1px -1px 1px, white 1px -1px 1px, white -1px 1px 1px;">Implicit</text></g></g></g><defs id="topdefs-7c3468"><g class="clips"/></defs><g class="layer-above"><g class="imagelayer"/><g class="shapelayer"/></g><g class="infolayer"><g class="g-gtitle"/><g class="first-render"/></g></svg>