<svg class="main-svg" xmlns="http://www.w3.org/2000/svg" xmlns:xlink="http://www.w3.org/1999/xlink" width="800" height="500" style="" viewBox="0 0 800 500"><rect x="0" y="0" width="800" height="500" style="fill: rgb(255, 255, 255); fill-opacity: 1;"/><defs id="defs-b5eaf3"><g class="clips"/><g class="gradients"/><g class="patterns"/></defs><g class="bglayer"/><g class="layer-below"><g class="imagelayer"/><g class="shapelayer"/></g><g class="cartesianlayer"/><g class="polarlayer"/><g class="smithlayer"/><g class="ternarylayer"/><g class="geolayer"/><g class="funnelarealayer"/><g class="pielayer"/><g class="iciclelayer"/><g class="treemaplayer"/><g class="sunburstlayer"/><g class="glimages"/><g class="sankey" transform="translate(80,100)matrix(1 0 0 1 0 0)" style="box-sizing: content-box; position: absolute; left: 0px; shape-rendering: geometricprecision; pointer-events: auto;"><g class="sankey-links" style="fill: none;"><path class="sankey-link" d="M10,191.7186518351153C162.5,191.7186518351153 162.5,161.82926829268325 315,161.82926829268325L315,164.20731707317105C162.5,164.20731707317105 162.5,194.0967006156031 10,194.0967006156031Z" style="stroke: rgb(68, 68, 68); stroke-opacity: 1; fill: rgb(69, 2, 86); fill-opacity: 1; stroke-width: 0; opacity: 1;"/><path class="sankey-link" d="M10,236.90157866438355C162.5,236.90157866438355 162.5,258.17073170731726 315,258.17073170731726L315,260.54878048780506C162.5,260.54878048780506 162.5,239.27962744487135 10,239.27962744487135Z" style="stroke: rgb(68, 68, 68); stroke-opacity: 1; fill: rgb(69, 2, 86); fill-opacity: 1; stroke-width: 0; opacity: 1;"/><path class="sankey-link" d="M325,171.7378048780491C477.5,171.7378048780491 477.5,111.7987804878048 630,111.7987804878048L630,116.55487804878041C477.5,116.55487804878041 477.5,176.4939024390247 325,176.4939024390247Z" style="stroke: rgb(68, 68, 68); stroke-opacity: 1; fill: rgb(69, 2, 86); fill-opacity: 1; stroke-width: 0; opacity: 1;"/><path class="sankey-link" d="M325,277.98780487804896C477.5,277.98780487804896 477.5,140.33536585365843 630,140.33536585365843L630,145.09146341463403C477.5,145.09146341463403 477.5,282.74390243902457 325,282.74390243902457Z" style="stroke: rgb(68, 68, 68); stroke-opacity: 1; fill: rgb(69, 2, 86); fill-opacity: 1; stroke-width: 0; opacity: 1;"/><path class="sankey-link" d="M10,194.0967006156031C162.5,194.0967006156031 162.5,164.20731707317105 315,164.20731707317105L315,168.96341463414666C162.5,168.96341463414666 162.5,198.85279817657872 10,198.85279817657872Z" style="stroke: rgb(68, 68, 68); stroke-opacity: 1; fill: rgb(69, 2, 86); fill-opacity: 1; stroke-width: 0; opacity: 1;"/><path class="sankey-link" d="M325,176.4939024390247C477.5,176.4939024390247 477.5,116.55487804878041 630,116.55487804878041L630,121.31097560975601C477.5,121.31097560975601 477.5,181.2500000000003 325,181.2500000000003Z" style="stroke: rgb(68, 68, 68); stroke-opacity: 1; fill: rgb(69, 2, 86); fill-opacity: 1; stroke-width: 0; opacity: 1;"/><path class="sankey-link" d="M10,100.13328598145675C162.5,100.13328598145675 162.5,75.0000000000004 315,75.0000000000004L315,79.756097560976C162.5,79.756097560976 162.5,104.88938354243236 10,104.88938354243236Z" style="stroke: rgb(68, 68, 68); stroke-opacity: 1; fill: rgb(137, 183, 159); fill-opacity: 1; stroke-width: 0; opacity: 1;"/><path class="sankey-link" d="M325,98.78048780487842C477.5,98.78048780487842 477.5,102.2865853658536 630,102.2865853658536L630,107.0426829268292C477.5,107.0426829268292 477.5,103.53658536585402 325,103.53658536585402Z" style="stroke: rgb(68, 68, 68); stroke-opacity: 1; fill: rgb(137, 183, 159); fill-opacity: 1; stroke-width: 0; opacity: 1;"/><path class="sankey-link" d="M10,297.5723103717007C162.5,297.5723103717007 162.5,289.0853658536587 315,289.0853658536587L315,293.8414634146343C162.5,293.8414634146343 162.5,302.3284079326763 10,302.3284079326763Z" style="stroke: rgb(68, 68, 68); stroke-opacity: 1; fill: rgb(87, 188, 214); fill-opacity: 1; stroke-width: 0; opacity: 1;"/><path class="sankey-link" d="M325,248.65853658536605C477.5,248.65853658536605 477.5,47.95731707317072 630,47.95731707317072L630,49.54268292682925C477.5,49.54268292682925 477.5,250.24390243902457 325,250.24390243902457Z" style="stroke: rgb(68, 68, 68); stroke-opacity: 1; fill: rgb(87, 188, 214); fill-opacity: 1; stroke-width: 0; opacity: 1;"/><path class="sankey-link" d="M325,301.7682926829269C477.5,301.7682926829269 477.5,270.4268292682925 630,270.4268292682925L630,272.0121951219511C477.5,272.0121951219511 477.5,303.3536585365855 325,303.3536585365855Z" style="stroke: rgb(68, 68, 68); stroke-opacity: 1; fill: rgb(87, 188, 214); fill-opacity: 1; stroke-width: 0; opacity: 1;"/><path class="sankey-link" d="M325,310.88414634146346C477.5,310.88414634146346 477.5,310.8841463414633 630,310.8841463414633L630,312.46951219512187C477.5,312.46951219512187 477.5,312.46951219512204 325,312.46951219512204Z" style="stroke: rgb(68, 68, 68); stroke-opacity: 1; fill: rgb(87, 188, 214); fill-opacity: 1; stroke-width: 0; opacity: 1;"/><path class="sankey-link" d="M10,239.27962744487135C162.5,239.27962744487135 162.5,260.54878048780506 315,260.54878048780506L315,265.30487804878067C162.5,265.30487804878067 162.5,244.03572500584696 10,244.03572500584696Z" style="stroke: rgb(68, 68, 68); stroke-opacity: 1; fill: rgb(69, 2, 86); fill-opacity: 1; stroke-width: 0; opacity: 1;"/><path class="sankey-link" d="M325,250.2439024390246C477.5,250.2439024390246 477.5,49.54268292682926 630,49.54268292682926L630,54.29878048780486C477.5,54.29878048780486 477.5,255.0000000000002 325,255.0000000000002Z" style="stroke: rgb(68, 68, 68); stroke-opacity: 1; fill: rgb(69, 2, 86); fill-opacity: 1; stroke-width: 0; opacity: 1;"/><path class="sankey-link" d="M10,198.85279817657872C162.5,198.85279817657872 162.5,168.96341463414666 315,168.96341463414666L315,171.34146341463446C162.5,171.34146341463446 162.5,201.23084695706652 10,201.23084695706652Z" style="stroke: rgb(68, 68, 68); stroke-opacity: 1; fill: rgb(69, 2, 86); fill-opacity: 1; stroke-width: 0; opacity: 1;"/><path class="sankey-link" d="M10,244.03572500584696C162.5,244.03572500584696 162.5,265.30487804878067 315,265.30487804878067L315,267.68292682926847C162.5,267.68292682926847 162.5,246.41377378633476 10,246.41377378633476Z" style="stroke: rgb(68, 68, 68); stroke-opacity: 1; fill: rgb(69, 2, 86); fill-opacity: 1; stroke-width: 0; opacity: 1;"/><path class="sankey-link" d="M325,181.2500000000003C477.5,181.2500000000003 477.5,121.31097560975601 630,121.31097560975601L630,126.06707317073162C477.5,126.06707317073162 477.5,186.00609756097592 325,186.00609756097592Z" style="stroke: rgb(68, 68, 68); stroke-opacity: 1; fill: rgb(69, 2, 86); fill-opacity: 1; stroke-width: 0; opacity: 1;"/><path class="sankey-link" d="M325,282.74390243902457C477.5,282.74390243902457 477.5,145.09146341463403 630,145.09146341463403L630,149.84756097560964C477.5,149.84756097560964 477.5,287.50000000000017 325,287.50000000000017Z" style="stroke: rgb(68, 68, 68); stroke-opacity: 1; fill: rgb(69, 2, 86); fill-opacity: 1; stroke-width: 0; opacity: 1;"/><path class="sankey-link" d="M10,138.1820664692616C162.5,138.1820664692616 162.5,147.56097560975644 315,147.56097560975644L315,152.31707317073204C162.5,152.31707317073204 162.5,142.9381640302372 10,142.9381640302372Z" style="stroke: rgb(68, 68, 68); stroke-opacity: 1; fill: rgb(137, 183, 159); fill-opacity: 1; stroke-width: 0; opacity: 1;"/><path class="sankey-link" d="M325,186.00609756097592C477.5,186.00609756097592 477.5,126.06707317073162 630,126.06707317073162L630,130.82317073170722C477.5,130.82317073170722 477.5,190.76219512195152 325,190.76219512195152Z" style="stroke: rgb(68, 68, 68); stroke-opacity: 1; fill: rgb(137, 183, 159); fill-opacity: 1; stroke-width: 0; opacity: 1;"/><path class="sankey-link" d="M10,201.23084695706652C162.5,201.23084695706652 162.5,171.34146341463446 315,171.34146341463446L315,173.71951219512226C162.5,173.71951219512226 162.5,203.60889573755432 10,203.60889573755432Z" style="stroke: rgb(68, 68, 68); stroke-opacity: 1; fill: rgb(69, 2, 86); fill-opacity: 1; stroke-width: 0; opacity: 1;"/><path class="sankey-link" d="M10,246.41377378633476C162.5,246.41377378633476 162.5,267.68292682926847 315,267.68292682926847L315,270.06097560975627C162.5,270.06097560975627 162.5,248.79182256682256 10,248.79182256682256Z" style="stroke: rgb(68, 68, 68); stroke-opacity: 1; fill: rgb(69, 2, 86); fill-opacity: 1; stroke-width: 0; opacity: 1;"/><path class="sankey-link" d="M325,210.97560975609787C477.5,210.97560975609787 477.5,264.0853658536584 630,264.0853658536584L630,265.27439024390236C477.5,265.27439024390236 477.5,212.16463414634177 325,212.16463414634177Z" style="stroke: rgb(68, 68, 68); stroke-opacity: 1; fill: rgb(69, 2, 86); fill-opacity: 1; stroke-width: 0; opacity: 1;"/><path class="sankey-link" d="M325,217.31707317073202C477.5,217.31707317073202 477.5,304.5426829268292 630,304.5426829268292L630,305.73170731707313C477.5,305.73170731707313 477.5,218.50609756097592 325,218.50609756097592Z" style="stroke: rgb(68, 68, 68); stroke-opacity: 1; fill: rgb(69, 2, 86); fill-opacity: 1; stroke-width: 0; opacity: 1;"/><path class="sankey-link" d="M325,200.27439024390273C477.5,200.27439024390273 477.5,189.11585365853648 630,189.11585365853648L630,190.30487804878038C477.5,190.30487804878038 477.5,201.46341463414663 325,201.46341463414663Z" style="stroke: rgb(68, 68, 68); stroke-opacity: 1; fill: rgb(69, 2, 86); fill-opacity: 1; stroke-width: 0; opacity: 1;"/><path class="sankey-link" d="M325,206.61585365853688C477.5,206.61585365853688 477.5,229.5731707317072 630,229.5731707317072L630,230.7621951219511C477.5,230.7621951219511 477.5,207.80487804878078 325,207.80487804878078Z" style="stroke: rgb(68, 68, 68); stroke-opacity: 1; fill: rgb(69, 2, 86); fill-opacity: 1; stroke-width: 0; opacity: 1;"/><path class="sankey-link" d="M325,303.35365853658544C477.5,303.35365853658544 477.5,272.01219512195104 630,272.01219512195104L630,273.201219512195C477.5,273.201219512195 477.5,304.5426829268294 325,304.5426829268294Z" style="stroke: rgb(68, 68, 68); stroke-opacity: 1; fill: rgb(69, 2, 86); fill-opacity: 1; stroke-width: 0; opacity: 1;"/><path class="sankey-link" d="M325,312.469512195122C477.5,312.469512195122 477.5,312.4695121951218 630,312.4695121951218L630,313.65853658536577C477.5,313.65853658536577 477.5,313.65853658536594 325,313.65853658536594Z" style="stroke: rgb(68, 68, 68); stroke-opacity: 1; fill: rgb(69, 2, 86); fill-opacity: 1; stroke-width: 0; opacity: 1;"/><path class="sankey-link" d="M325,292.2560975609758C477.5,292.2560975609758 477.5,195.45731707317063 630,195.45731707317063L630,196.64634146341453C477.5,196.64634146341453 477.5,293.44512195121973 325,293.44512195121973Z" style="stroke: rgb(68, 68, 68); stroke-opacity: 1; fill: rgb(69, 2, 86); fill-opacity: 1; stroke-width: 0; opacity: 1;"/><path class="sankey-link" d="M325,298.9939024390245C477.5,298.9939024390245 477.5,233.93292682926818 630,233.93292682926818L630,235.12195121951208C477.5,235.12195121951208 477.5,300.18292682926847 325,300.18292682926847Z" style="stroke: rgb(68, 68, 68); stroke-opacity: 1; fill: rgb(69, 2, 86); fill-opacity: 1; stroke-width: 0; opacity: 1;"/><path class="sankey-link" d="M10,302.3284079326763C162.5,302.3284079326763 162.5,293.8414634146343 315,293.8414634146343L315,298.5975609756099C162.5,298.5975609756099 162.5,307.08450549365193 10,307.08450549365193Z" style="stroke: rgb(68, 68, 68); stroke-opacity: 1; fill: rgb(87, 188, 214); fill-opacity: 1; stroke-width: 0; opacity: 1;"/><path class="sankey-link" d="M325,255.00000000000023C477.5,255.00000000000023 477.5,54.29878048780487 630,54.29878048780487L630,56.67682926829267C477.5,56.67682926829267 477.5,257.37804878048803 325,257.37804878048803Z" style="stroke: rgb(68, 68, 68); stroke-opacity: 1; fill: rgb(87, 188, 214); fill-opacity: 1; stroke-width: 0; opacity: 1;"/><path class="sankey-link" d="M325,313.6585365853659C477.5,313.6585365853659 477.5,313.6585365853657 630,313.6585365853657L630,316.0365853658535C477.5,316.0365853658535 477.5,316.0365853658537 325,316.0365853658537Z" style="stroke: rgb(68, 68, 68); stroke-opacity: 1; fill: rgb(87, 188, 214); fill-opacity: 1; stroke-width: 0; opacity: 1;"/><path class="sankey-link" d="M10,104.88938354243236C162.5,104.88938354243236 162.5,79.756097560976 315,79.756097560976L315,84.5121951219516C162.5,84.5121951219516 162.5,109.64548110340796 10,109.64548110340796Z" style="stroke: rgb(68, 68, 68); stroke-opacity: 1; fill: rgb(137, 183, 159); fill-opacity: 1; stroke-width: 0; opacity: 1;"/><path class="sankey-link" d="M325,75.0000000000004C477.5,75.0000000000004 477.5,-1.4210854715202004e-14 630,-1.4210854715202004e-14L630,2.3780487804877906C477.5,2.3780487804877906 477.5,77.3780487804882 325,77.3780487804882Z" style="stroke: rgb(68, 68, 68); stroke-opacity: 1; fill: rgb(137, 183, 159); fill-opacity: 1; stroke-width: 0; opacity: 1;"/><path class="sankey-link" d="M325,108.29268292682963C477.5,108.29268292682963 477.5,179.60365853658527 630,179.60365853658527L630,181.98170731707307C477.5,181.98170731707307 477.5,110.67073170731743 325,110.67073170731743Z" style="stroke: rgb(68, 68, 68); stroke-opacity: 1; fill: rgb(137, 183, 159); fill-opacity: 1; stroke-width: 0; opacity: 1;"/><path class="sankey-link" d="M10,307.08450549365193C162.5,307.08450549365193 162.5,298.5975609756099 315,298.5975609756099L315,303.3536585365855C162.5,303.3536585365855 162.5,311.84060305462754 10,311.84060305462754Z" style="stroke: rgb(68, 68, 68); stroke-opacity: 1; fill: rgb(87, 188, 214); fill-opacity: 1; stroke-width: 0; opacity: 1;"/><path class="sankey-link" d="M325,257.37804878048803C477.5,257.37804878048803 477.5,56.67682926829267 630,56.67682926829267L630,59.05487804878047C477.5,59.05487804878047 477.5,259.75609756097583 325,259.75609756097583Z" style="stroke: rgb(68, 68, 68); stroke-opacity: 1; fill: rgb(87, 188, 214); fill-opacity: 1; stroke-width: 0; opacity: 1;"/><path class="sankey-link" d="M325,316.0365853658537C477.5,316.0365853658537 477.5,316.0365853658535 630,316.0365853658535L630,318.4146341463413C477.5,318.4146341463413 477.5,318.4146341463415 325,318.4146341463415Z" style="stroke: rgb(68, 68, 68); stroke-opacity: 1; fill: rgb(87, 188, 214); fill-opacity: 1; stroke-width: 0; opacity: 1;"/><path class="sankey-link" d="M10,203.60889573755432C162.5,203.60889573755432 162.5,173.71951219512226 315,173.71951219512226L315,176.09756097561007C162.5,176.09756097561007 162.5,205.98694451804212 10,205.98694451804212Z" style="stroke: rgb(68, 68, 68); stroke-opacity: 1; fill: rgb(69, 2, 86); fill-opacity: 1; stroke-width: 0; opacity: 1;"/><path class="sankey-link" d="M10,248.79182256682256C162.5,248.79182256682256 162.5,270.06097560975627 315,270.06097560975627L315,272.4390243902441C162.5,272.4390243902441 162.5,251.16987134731036 10,251.16987134731036Z" style="stroke: rgb(68, 68, 68); stroke-opacity: 1; fill: rgb(69, 2, 86); fill-opacity: 1; stroke-width: 0; opacity: 1;"/><path class="sankey-link" d="M325,147.56097560975644C477.5,147.56097560975644 477.5,23.78048780487804 630,23.78048780487804L630,26.15853658536584C477.5,26.15853658536584 477.5,149.93902439024424 325,149.93902439024424Z" style="stroke: rgb(68, 68, 68); stroke-opacity: 1; fill: rgb(69, 2, 86); fill-opacity: 1; stroke-width: 0; opacity: 1;"/><path class="sankey-link" d="M325,212.16463414634177C477.5,212.16463414634177 477.5,265.2743902439023 630,265.2743902439023L630,267.6524390243901C477.5,267.6524390243901 477.5,214.54268292682957 325,214.54268292682957Z" style="stroke: rgb(68, 68, 68); stroke-opacity: 1; fill: rgb(69, 2, 86); fill-opacity: 1; stroke-width: 0; opacity: 1;"/><path class="sankey-link" d="M325,259.75609756097583C477.5,259.75609756097583 477.5,59.05487804878047 630,59.05487804878047L630,61.432926829268276C477.5,61.432926829268276 477.5,262.13414634146363 325,262.13414634146363Z" style="stroke: rgb(68, 68, 68); stroke-opacity: 1; fill: rgb(69, 2, 86); fill-opacity: 1; stroke-width: 0; opacity: 1;"/><path class="sankey-link" d="M325,304.54268292682934C477.5,304.54268292682934 477.5,273.20121951219494 630,273.20121951219494L630,275.57926829268274C477.5,275.57926829268274 477.5,306.92073170731715 325,306.92073170731715Z" style="stroke: rgb(68, 68, 68); stroke-opacity: 1; fill: rgb(69, 2, 86); fill-opacity: 1; stroke-width: 0; opacity: 1;"/><path class="sankey-link" d="M10,205.98694451804212C162.5,205.98694451804212 162.5,176.09756097561007 315,176.09756097561007L315,178.47560975609787C162.5,178.47560975609787 162.5,208.36499329852992 10,208.36499329852992Z" style="stroke: rgb(68, 68, 68); stroke-opacity: 1; fill: rgb(69, 2, 86); fill-opacity: 1; stroke-width: 0; opacity: 1;"/><path class="sankey-link" d="M10,251.16987134731036C162.5,251.16987134731036 162.5,272.4390243902441 315,272.4390243902441L315,274.8170731707319C162.5,274.8170731707319 162.5,253.54792012779816 10,253.54792012779816Z" style="stroke: rgb(68, 68, 68); stroke-opacity: 1; fill: rgb(69, 2, 86); fill-opacity: 1; stroke-width: 0; opacity: 1;"/><path class="sankey-link" d="M325,149.93902439024424C477.5,149.93902439024424 477.5,26.158536585365844 630,26.158536585365844L630,30.914634146341456C477.5,30.914634146341456 477.5,154.69512195121985 325,154.69512195121985Z" style="stroke: rgb(68, 68, 68); stroke-opacity: 1; fill: rgb(69, 2, 86); fill-opacity: 1; stroke-width: 0; opacity: 1;"/><path class="sankey-link" d="M325,262.13414634146363C477.5,262.13414634146363 477.5,61.432926829268276 630,61.432926829268276L630,66.18902439024389C477.5,66.18902439024389 477.5,266.89024390243924 325,266.89024390243924Z" style="stroke: rgb(68, 68, 68); stroke-opacity: 1; fill: rgb(69, 2, 86); fill-opacity: 1; stroke-width: 0; opacity: 1;"/><path class="sankey-link" d="M10,253.54792012779816C162.5,253.54792012779816 162.5,274.8170731707319 315,274.8170731707319L315,279.5731707317075C162.5,279.5731707317075 162.5,258.3040176887738 10,258.3040176887738Z" style="stroke: rgb(68, 68, 68); stroke-opacity: 1; fill: rgb(69, 2, 86); fill-opacity: 1; stroke-width: 0; opacity: 1;"/><path class="sankey-link" d="M325,266.89024390243924C477.5,266.89024390243924 477.5,66.18902439024389 630,66.18902439024389L630,70.94512195121949C477.5,70.94512195121949 477.5,271.64634146341484 325,271.64634146341484Z" style="stroke: rgb(68, 68, 68); stroke-opacity: 1; fill: rgb(69, 2, 86); fill-opacity: 1; stroke-width: 0; opacity: 1;"/><path class="sankey-link" d="M10,152.4503591521884C162.5,152.4503591521884 162.5,248.65853658536605 315,248.65853658536605L315,253.41463414634165C162.5,253.41463414634165 162.5,157.20645671316402 10,157.20645671316402Z" style="stroke: rgb(68, 68, 68); stroke-opacity: 1; fill: rgb(137, 183, 159); fill-opacity: 1; stroke-width: 0; opacity: 1;"/><path class="sankey-link" d="M325,271.64634146341484C477.5,271.64634146341484 477.5,70.94512195121949 630,70.94512195121949L630,72.53048780487804C477.5,72.53048780487804 477.5,273.2317073170734 325,273.2317073170734Z" style="stroke: rgb(68, 68, 68); stroke-opacity: 1; fill: rgb(137, 183, 159); fill-opacity: 1; stroke-width: 0; opacity: 1;"/><path class="sankey-link" d="M325,318.4146341463415C477.5,318.4146341463415 477.5,318.4146341463413 630,318.4146341463413L630,319.9999999999999C477.5,319.9999999999999 477.5,320.00000000000006 325,320.00000000000006Z" style="stroke: rgb(68, 68, 68); stroke-opacity: 1; fill: rgb(137, 183, 159); fill-opacity: 1; stroke-width: 0; opacity: 1;"/><path class="sankey-link" d="M325,293.4451219512197C477.5,293.4451219512197 477.5,196.64634146341453 630,196.64634146341453L630,198.23170731707305C477.5,198.23170731707305 477.5,295.03048780487825 325,295.03048780487825Z" style="stroke: rgb(68, 68, 68); stroke-opacity: 1; fill: rgb(137, 183, 159); fill-opacity: 1; stroke-width: 0; opacity: 1;"/><path class="sankey-link" d="M10,109.64548110340796C162.5,109.64548110340796 162.5,84.5121951219516 315,84.5121951219516L315,89.26829268292721C162.5,89.26829268292721 162.5,114.40157866438356 10,114.40157866438356Z" style="stroke: rgb(68, 68, 68); stroke-opacity: 1; fill: rgb(137, 183, 159); fill-opacity: 1; stroke-width: 0; opacity: 1;"/><path class="sankey-link" d="M325,77.3780487804882C477.5,77.3780487804882 477.5,2.3780487804877906 630,2.3780487804877906L630,4.756097560975595C477.5,4.756097560975595 477.5,79.756097560976 325,79.756097560976Z" style="stroke: rgb(68, 68, 68); stroke-opacity: 1; fill: rgb(137, 183, 159); fill-opacity: 1; stroke-width: 0; opacity: 1;"/><path class="sankey-link" d="M325,117.80487804878084C477.5,117.80487804878084 477.5,227.1951219512194 630,227.1951219512194L630,229.5731707317072C477.5,229.5731707317072 477.5,120.18292682926864 325,120.18292682926864Z" style="stroke: rgb(68, 68, 68); stroke-opacity: 1; fill: rgb(137, 183, 159); fill-opacity: 1; stroke-width: 0; opacity: 1;"/><path class="sankey-link" d="M10,292.8162128107251C162.5,292.8162128107251 162.5,117.80487804878084 315,117.80487804878084L315,122.56097560975644C162.5,122.56097560975644 162.5,297.5723103717007 10,297.5723103717007Z" style="stroke: rgb(68, 68, 68); stroke-opacity: 1; fill: rgb(87, 188, 214); fill-opacity: 1; stroke-width: 0; opacity: 1;"/><path class="sankey-link" d="M325,79.756097560976C477.5,79.756097560976 477.5,4.756097560975595 630,4.756097560975595L630,9.512195121951205C477.5,9.512195121951205 477.5,84.5121951219516 325,84.5121951219516Z" style="stroke: rgb(68, 68, 68); stroke-opacity: 1; fill: rgb(87, 188, 214); fill-opacity: 1; stroke-width: 0; opacity: 1;"/><path class="sankey-link" d="M10,157.20645671316402C162.5,157.20645671316402 162.5,253.41463414634165 315,253.41463414634165L315,258.17073170731726C162.5,258.17073170731726 162.5,161.96255427413962 10,161.96255427413962Z" style="stroke: rgb(68, 68, 68); stroke-opacity: 1; fill: rgb(137, 183, 159); fill-opacity: 1; stroke-width: 0; opacity: 1;"/><path class="sankey-link" d="M325,306.92073170731715C477.5,306.92073170731715 477.5,275.57926829268274 630,275.57926829268274L630,277.95731707317054C477.5,277.95731707317054 477.5,309.29878048780495 325,309.29878048780495Z" style="stroke: rgb(68, 68, 68); stroke-opacity: 1; fill: rgb(137, 183, 159); fill-opacity: 1; stroke-width: 0; opacity: 1;"/><path class="sankey-link" d="M325,295.0304878048782C477.5,295.0304878048782 477.5,198.23170731707307 630,198.23170731707307L630,200.60975609756088C477.5,200.60975609756088 477.5,297.408536585366 325,297.408536585366Z" style="stroke: rgb(68, 68, 68); stroke-opacity: 1; fill: rgb(137, 183, 159); fill-opacity: 1; stroke-width: 0; opacity: 1;"/><path class="sankey-link" d="M10,208.36499329852992C162.5,208.36499329852992 162.5,178.47560975609787 315,178.47560975609787L315,180.85365853658567C162.5,180.85365853658567 162.5,210.74304207901773 10,210.74304207901773Z" style="stroke: rgb(68, 68, 68); stroke-opacity: 1; fill: rgb(69, 2, 86); fill-opacity: 1; stroke-width: 0; opacity: 1;"/><path class="sankey-link" d="M10,258.3040176887738C162.5,258.3040176887738 162.5,279.5731707317075 315,279.5731707317075L315,281.9512195121953C162.5,281.9512195121953 162.5,260.6820664692616 10,260.6820664692616Z" style="stroke: rgb(68, 68, 68); stroke-opacity: 1; fill: rgb(69, 2, 86); fill-opacity: 1; stroke-width: 0; opacity: 1;"/><path class="sankey-link" d="M325,190.76219512195152C477.5,190.76219512195152 477.5,130.82317073170722 630,130.82317073170722L630,135.57926829268283C477.5,135.57926829268283 477.5,195.51829268292713 325,195.51829268292713Z" style="stroke: rgb(68, 68, 68); stroke-opacity: 1; fill: rgb(69, 2, 86); fill-opacity: 1; stroke-width: 0; opacity: 1;"/><path class="sankey-link" d="M325,287.50000000000017C477.5,287.50000000000017 477.5,149.84756097560964 630,149.84756097560964L630,154.60365853658524C477.5,154.60365853658524 477.5,292.2560975609758 325,292.2560975609758Z" style="stroke: rgb(68, 68, 68); stroke-opacity: 1; fill: rgb(69, 2, 86); fill-opacity: 1; stroke-width: 0; opacity: 1;"/><path class="sankey-link" d="M10,142.9381640302372C162.5,142.9381640302372 162.5,152.31707317073204 315,152.31707317073204L315,157.07317073170765C162.5,157.07317073170765 162.5,147.6942615912128 10,147.6942615912128Z" style="stroke: rgb(68, 68, 68); stroke-opacity: 1; fill: rgb(137, 183, 159); fill-opacity: 1; stroke-width: 0; opacity: 1;"/><path class="sankey-link" d="M325,154.69512195121985C477.5,154.69512195121985 477.5,30.914634146341452 630,30.914634146341452L630,35.67073170731706C477.5,35.67073170731706 477.5,159.45121951219545 325,159.45121951219545Z" style="stroke: rgb(68, 68, 68); stroke-opacity: 1; fill: rgb(137, 183, 159); fill-opacity: 1; stroke-width: 0; opacity: 1;"/><path class="sankey-link" d="M10,114.40157866438356C162.5,114.40157866438356 162.5,89.26829268292721 315,89.26829268292721L315,94.02439024390281C162.5,94.02439024390281 162.5,119.15767622535917 10,119.15767622535917Z" style="stroke: rgb(68, 68, 68); stroke-opacity: 1; fill: rgb(137, 183, 159); fill-opacity: 1; stroke-width: 0; opacity: 1;"/><path class="sankey-link" d="M325,84.5121951219516C477.5,84.5121951219516 477.5,9.512195121951205 630,9.512195121951205L630,11.89024390243901C477.5,11.89024390243901 477.5,86.89024390243941 325,86.89024390243941Z" style="stroke: rgb(68, 68, 68); stroke-opacity: 1; fill: rgb(137, 183, 159); fill-opacity: 1; stroke-width: 0; opacity: 1;"/><path class="sankey-link" d="M325,110.67073170731743C477.5,110.67073170731743 477.5,181.98170731707307 630,181.98170731707307L630,184.35975609756088C477.5,184.35975609756088 477.5,113.04878048780523 325,113.04878048780523Z" style="stroke: rgb(68, 68, 68); stroke-opacity: 1; fill: rgb(137, 183, 159); fill-opacity: 1; stroke-width: 0; opacity: 1;"/><path class="sankey-link" d="M10,210.74304207901773C162.5,210.74304207901773 162.5,180.85365853658567 315,180.85365853658567L315,185.60975609756127C162.5,185.60975609756127 162.5,215.49913963999333 10,215.49913963999333Z" style="stroke: rgb(68, 68, 68); stroke-opacity: 1; fill: rgb(69, 2, 86); fill-opacity: 1; stroke-width: 0; opacity: 1;"/><path class="sankey-link" d="M325,159.45121951219545C477.5,159.45121951219545 477.5,35.67073170731707 630,35.67073170731707L630,38.04878048780487C477.5,38.04878048780487 477.5,161.82926829268325 325,161.82926829268325Z" style="stroke: rgb(68, 68, 68); stroke-opacity: 1; fill: rgb(69, 2, 86); fill-opacity: 1; stroke-width: 0; opacity: 1;"/><path class="sankey-link" d="M325,218.50609756097592C477.5,218.50609756097592 477.5,305.7317073170731 630,305.7317073170731L630,308.1097560975609C477.5,308.1097560975609 477.5,220.88414634146372 325,220.88414634146372Z" style="stroke: rgb(68, 68, 68); stroke-opacity: 1; fill: rgb(69, 2, 86); fill-opacity: 1; stroke-width: 0; opacity: 1;"/><path class="sankey-link" d="M10,215.49913963999333C162.5,215.49913963999333 162.5,185.60975609756127 315,185.60975609756127L315,190.36585365853688C162.5,190.36585365853688 162.5,220.25523720096893 10,220.25523720096893Z" style="stroke: rgb(68, 68, 68); stroke-opacity: 1; fill: rgb(69, 2, 86); fill-opacity: 1; stroke-width: 0; opacity: 1;"/><path class="sankey-link" d="M325,161.82926829268325C477.5,161.82926829268325 477.5,38.04878048780487 630,38.04878048780487L630,42.80487804878047C477.5,42.80487804878047 477.5,166.58536585365886 325,166.58536585365886Z" style="stroke: rgb(68, 68, 68); stroke-opacity: 1; fill: rgb(69, 2, 86); fill-opacity: 1; stroke-width: 0; opacity: 1;"/><path class="sankey-link" d="M10,260.6820664692616C162.5,260.6820664692616 162.5,281.9512195121953 315,281.9512195121953L315,286.7073170731709C162.5,286.7073170731709 162.5,265.4381640302372 10,265.4381640302372Z" style="stroke: rgb(68, 68, 68); stroke-opacity: 1; fill: rgb(69, 2, 86); fill-opacity: 1; stroke-width: 0; opacity: 1;"/><path class="sankey-link" d="M325,273.23170731707336C477.5,273.23170731707336 477.5,72.53048780487802 630,72.53048780487802L630,77.28658536585363C477.5,77.28658536585363 477.5,277.98780487804896 325,277.98780487804896Z" style="stroke: rgb(68, 68, 68); stroke-opacity: 1; fill: rgb(69, 2, 86); fill-opacity: 1; stroke-width: 0; opacity: 1;"/><path class="sankey-link" d="M10,220.25523720096893C162.5,220.25523720096893 162.5,190.36585365853688 315,190.36585365853688L315,195.12195121951248C162.5,195.12195121951248 162.5,225.01133476194454 10,225.01133476194454Z" style="stroke: rgb(68, 68, 68); stroke-opacity: 1; fill: rgb(69, 2, 86); fill-opacity: 1; stroke-width: 0; opacity: 1;"/><path class="sankey-link" d="M325,166.58536585365886C477.5,166.58536585365886 477.5,42.80487804878048 630,42.80487804878048L630,45.18292682926828C477.5,45.18292682926828 477.5,168.96341463414666 325,168.96341463414666Z" style="stroke: rgb(68, 68, 68); stroke-opacity: 1; fill: rgb(69, 2, 86); fill-opacity: 1; stroke-width: 0; opacity: 1;"/><path class="sankey-link" d="M325,201.46341463414663C477.5,201.46341463414663 477.5,190.30487804878038 630,190.30487804878038L630,192.68292682926818C477.5,192.68292682926818 477.5,203.84146341463443 325,203.84146341463443Z" style="stroke: rgb(68, 68, 68); stroke-opacity: 1; fill: rgb(69, 2, 86); fill-opacity: 1; stroke-width: 0; opacity: 1;"/><path class="sankey-link" d="M10,119.15767622535917C162.5,119.15767622535917 162.5,94.02439024390281 315,94.02439024390281L315,98.78048780487842C162.5,98.78048780487842 162.5,123.91377378633477 10,123.91377378633477Z" style="stroke: rgb(68, 68, 68); stroke-opacity: 1; fill: rgb(137, 183, 159); fill-opacity: 1; stroke-width: 0; opacity: 1;"/><path class="sankey-link" d="M325,113.04878048780523C477.5,113.04878048780523 477.5,184.35975609756088 630,184.35975609756088L630,189.11585365853648C477.5,189.11585365853648 477.5,117.80487804878084 325,117.80487804878084Z" style="stroke: rgb(68, 68, 68); stroke-opacity: 1; fill: rgb(137, 183, 159); fill-opacity: 1; stroke-width: 0; opacity: 1;"/><path class="sankey-link" d="M10,123.91377378633477C162.5,123.91377378633477 162.5,98.78048780487842 315,98.78048780487842L315,103.53658536585402C162.5,103.53658536585402 162.5,128.6698713473104 10,128.6698713473104Z" style="stroke: rgb(68, 68, 68); stroke-opacity: 1; fill: rgb(137, 183, 159); fill-opacity: 1; stroke-width: 0; opacity: 1;"/><path class="sankey-link" d="M325,86.89024390243941C477.5,86.89024390243941 477.5,11.89024390243901 630,11.89024390243901L630,16.646341463414622C477.5,16.646341463414622 477.5,91.64634146341501 325,91.64634146341501Z" style="stroke: rgb(68, 68, 68); stroke-opacity: 1; fill: rgb(137, 183, 159); fill-opacity: 1; stroke-width: 0; opacity: 1;"/><path class="sankey-link" d="M10,147.6942615912128C162.5,147.6942615912128 162.5,157.07317073170765 315,157.07317073170765L315,161.82926829268325C162.5,161.82926829268325 162.5,152.4503591521884 10,152.4503591521884Z" style="stroke: rgb(68, 68, 68); stroke-opacity: 1; fill: rgb(137, 183, 159); fill-opacity: 1; stroke-width: 0; opacity: 1;"/><path class="sankey-link" d="M325,168.96341463414666C477.5,168.96341463414666 477.5,45.18292682926828 630,45.18292682926828L630,46.371951219512184C477.5,46.371951219512184 477.5,170.15243902439056 325,170.15243902439056Z" style="stroke: rgb(68, 68, 68); stroke-opacity: 1; fill: rgb(137, 183, 159); fill-opacity: 1; stroke-width: 0; opacity: 1;"/><path class="sankey-link" d="M325,214.54268292682957C477.5,214.54268292682957 477.5,267.6524390243901 630,267.6524390243901L630,268.84146341463406C477.5,268.84146341463406 477.5,215.73170731707347 325,215.73170731707347Z" style="stroke: rgb(68, 68, 68); stroke-opacity: 1; fill: rgb(137, 183, 159); fill-opacity: 1; stroke-width: 0; opacity: 1;"/><path class="sankey-link" d="M325,220.88414634146372C477.5,220.88414634146372 477.5,308.1097560975609 630,308.1097560975609L630,309.29878048780483C477.5,309.29878048780483 477.5,222.07317073170762 325,222.07317073170762Z" style="stroke: rgb(68, 68, 68); stroke-opacity: 1; fill: rgb(137, 183, 159); fill-opacity: 1; stroke-width: 0; opacity: 1;"/><path class="sankey-link" d="M325,203.84146341463443C477.5,203.84146341463443 477.5,192.68292682926818 630,192.68292682926818L630,193.87195121951208C477.5,193.87195121951208 477.5,205.03048780487833 325,205.03048780487833Z" style="stroke: rgb(68, 68, 68); stroke-opacity: 1; fill: rgb(137, 183, 159); fill-opacity: 1; stroke-width: 0; opacity: 1;"/><path class="sankey-link" d="M10,128.6698713473104C162.5,128.6698713473104 162.5,103.53658536585402 315,103.53658536585402L315,108.29268292682963C162.5,108.29268292682963 162.5,133.425968908286 10,133.425968908286Z" style="stroke: rgb(68, 68, 68); stroke-opacity: 1; fill: rgb(137, 183, 159); fill-opacity: 1; stroke-width: 0; opacity: 1;"/><path class="sankey-link" d="M325,91.64634146341501C477.5,91.64634146341501 477.5,16.646341463414622 630,16.646341463414622L630,21.402439024390233C477.5,21.402439024390233 477.5,96.40243902439062 325,96.40243902439062Z" style="stroke: rgb(68, 68, 68); stroke-opacity: 1; fill: rgb(137, 183, 159); fill-opacity: 1; stroke-width: 0; opacity: 1;"/><path class="sankey-link" d="M10,225.01133476194454C162.5,225.01133476194454 162.5,195.12195121951248 315,195.12195121951248L315,199.8780487804881C162.5,199.8780487804881 162.5,229.76743232292014 10,229.76743232292014Z" style="stroke: rgb(68, 68, 68); stroke-opacity: 1; fill: rgb(69, 2, 86); fill-opacity: 1; stroke-width: 0; opacity: 1;"/><path class="sankey-link" d="M325,195.51829268292713C477.5,195.51829268292713 477.5,135.57926829268283 630,135.57926829268283L630,140.33536585365843C477.5,140.33536585365843 477.5,200.27439024390273 325,200.27439024390273Z" style="stroke: rgb(68, 68, 68); stroke-opacity: 1; fill: rgb(69, 2, 86); fill-opacity: 1; stroke-width: 0; opacity: 1;"/><path class="sankey-link" d="M10,186.9625542741397C162.5,186.9625542741397 162.5,113.04878048780523 315,113.04878048780523L315,117.80487804878084C162.5,117.80487804878084 162.5,191.7186518351153 10,191.7186518351153Z" style="stroke: rgb(68, 68, 68); stroke-opacity: 1; fill: rgb(69, 2, 86); fill-opacity: 1; stroke-width: 0; opacity: 1;"/><path class="sankey-link" d="M325,103.53658536585402C477.5,103.53658536585402 477.5,107.0426829268292 630,107.0426829268292L630,111.7987804878048C477.5,111.7987804878048 477.5,108.29268292682963 325,108.29268292682963Z" style="stroke: rgb(68, 68, 68); stroke-opacity: 1; fill: rgb(69, 2, 86); fill-opacity: 1; stroke-width: 0; opacity: 1;"/><path class="sankey-link" d="M10,229.76743232292014C162.5,229.76743232292014 162.5,199.8780487804881 315,199.8780487804881L315,202.2560975609759C162.5,202.2560975609759 162.5,232.14548110340795 10,232.14548110340795Z" style="stroke: rgb(68, 68, 68); stroke-opacity: 1; fill: rgb(69, 2, 86); fill-opacity: 1; stroke-width: 0; opacity: 1;"/><path class="sankey-link" d="M10,265.4381640302372C162.5,265.4381640302372 162.5,286.7073170731709 315,286.7073170731709L315,289.0853658536587C162.5,289.0853658536587 162.5,267.816212810725 10,267.816212810725Z" style="stroke: rgb(68, 68, 68); stroke-opacity: 1; fill: rgb(69, 2, 86); fill-opacity: 1; stroke-width: 0; opacity: 1;"/><path class="sankey-link" d="M325,215.73170731707347C477.5,215.73170731707347 477.5,268.841463414634 630,268.841463414634L630,270.4268292682926C477.5,270.4268292682926 477.5,217.317073170732 325,217.317073170732Z" style="stroke: rgb(68, 68, 68); stroke-opacity: 1; fill: rgb(69, 2, 86); fill-opacity: 1; stroke-width: 0; opacity: 1;"/><path class="sankey-link" d="M325,205.03048780487833C477.5,205.03048780487833 477.5,193.87195121951208 630,193.87195121951208L630,195.4573170731706C477.5,195.4573170731706 477.5,206.61585365853685 325,206.61585365853685Z" style="stroke: rgb(68, 68, 68); stroke-opacity: 1; fill: rgb(69, 2, 86); fill-opacity: 1; stroke-width: 0; opacity: 1;"/><path class="sankey-link" d="M325,207.80487804878078C477.5,207.80487804878078 477.5,230.7621951219511 630,230.7621951219511L630,232.3475609756096C477.5,232.3475609756096 477.5,209.3902439024393 325,209.3902439024393Z" style="stroke: rgb(68, 68, 68); stroke-opacity: 1; fill: rgb(69, 2, 86); fill-opacity: 1; stroke-width: 0; opacity: 1;"/><path class="sankey-link" d="M325,309.29878048780495C477.5,309.29878048780495 477.5,277.95731707317054 630,277.95731707317054L630,279.5426829268291C477.5,279.5426829268291 477.5,310.8841463414635 325,310.8841463414635Z" style="stroke: rgb(68, 68, 68); stroke-opacity: 1; fill: rgb(69, 2, 86); fill-opacity: 1; stroke-width: 0; opacity: 1;"/><path class="sankey-link" d="M325,297.408536585366C477.5,297.408536585366 477.5,200.60975609756088 630,200.60975609756088L630,202.1951219512194C477.5,202.1951219512194 477.5,298.99390243902457 325,298.99390243902457Z" style="stroke: rgb(68, 68, 68); stroke-opacity: 1; fill: rgb(69, 2, 86); fill-opacity: 1; stroke-width: 0; opacity: 1;"/><path class="sankey-link" d="M325,300.1829268292684C477.5,300.1829268292684 477.5,235.12195121951208 630,235.12195121951208L630,236.7073170731706C477.5,236.7073170731706 477.5,301.768292682927 325,301.768292682927Z" style="stroke: rgb(68, 68, 68); stroke-opacity: 1; fill: rgb(69, 2, 86); fill-opacity: 1; stroke-width: 0; opacity: 1;"/><path class="sankey-link" d="M10,232.14548110340795C162.5,232.14548110340795 162.5,202.2560975609759 315,202.2560975609759L315,207.0121951219515C162.5,207.0121951219515 162.5,236.90157866438355 10,236.90157866438355Z" style="stroke: rgb(68, 68, 68); stroke-opacity: 1; fill: rgb(69, 2, 86); fill-opacity: 1; stroke-width: 0; opacity: 1;"/><path class="sankey-link" d="M325,170.15243902439056C477.5,170.15243902439056 477.5,46.371951219512184 630,46.371951219512184L630,47.957317073170714C477.5,47.957317073170714 477.5,171.73780487804908 325,171.73780487804908Z" style="stroke: rgb(68, 68, 68); stroke-opacity: 1; fill: rgb(69, 2, 86); fill-opacity: 1; stroke-width: 0; opacity: 1;"/><path class="sankey-link" d="M325,222.07317073170762C477.5,222.07317073170762 477.5,309.2987804878048 630,309.2987804878048L630,310.88414634146335C477.5,310.88414634146335 477.5,223.65853658536614 325,223.65853658536614Z" style="stroke: rgb(68, 68, 68); stroke-opacity: 1; fill: rgb(69, 2, 86); fill-opacity: 1; stroke-width: 0; opacity: 1;"/><path class="sankey-link" d="M325,209.39024390243932C477.5,209.39024390243932 477.5,232.34756097560964 630,232.34756097560964L630,233.93292682926815C477.5,233.93292682926815 477.5,210.97560975609784 325,210.97560975609784Z" style="stroke: rgb(68, 68, 68); stroke-opacity: 1; fill: rgb(69, 2, 86); fill-opacity: 1; stroke-width: 0; opacity: 1;"/><path class="sankey-link" d="M10,133.425968908286C162.5,133.425968908286 162.5,108.29268292682963 315,108.29268292682963L315,113.04878048780523C162.5,113.04878048780523 162.5,138.1820664692616 10,138.1820664692616Z" style="stroke: rgb(68, 68, 68); stroke-opacity: 1; fill: rgb(137, 183, 159); fill-opacity: 1; stroke-width: 0; opacity: 1;"/><path class="sankey-link" d="M325,96.40243902439062C477.5,96.40243902439062 477.5,21.402439024390233 630,21.402439024390233L630,23.780487804878035C477.5,23.780487804878035 477.5,98.78048780487842 325,98.78048780487842Z" style="stroke: rgb(68, 68, 68); stroke-opacity: 1; fill: rgb(137, 183, 159); fill-opacity: 1; stroke-width: 0; opacity: 1;"/><path class="sankey-link" d="M325,120.18292682926864C477.5,120.18292682926864 477.5,261.7073170731706 630,261.7073170731706L630,264.0853658536584C477.5,264.0853658536584 477.5,122.56097560975644 325,122.56097560975644Z" style="stroke: rgb(68, 68, 68); stroke-opacity: 1; fill: rgb(137, 183, 159); fill-opacity: 1; stroke-width: 0; opacity: 1;"/></g><g class="sankey-node-set" style="cursor: move;"><g class="sankey-node" transform="translate(315.000,147.561)" style="opacity: 1;"><rect class="node-rect" width="10" height="76.09756097560961" style="stroke-width: 0.5; stroke: rgb(68, 68, 68); stroke-opacity: 1; fill: rgb(51, 51, 51); fill-opacity: 1;"/><text class="node-label" data-notex="1" x="0" y="0" text-anchor="start" transform="translate(13.25,42.5987804878048)" style="cursor: default; font-family: Arial; font-size: 13px; fill: rgb(51, 51, 51); fill-opacity: 1; white-space: pre; text-shadow: white 1px 1px 1px, white -1px -1px 1px, white 1px -1px 1px, white -1px 1px 1px;">Leverages Natural Language Structure</text></g><g class="sankey-node" transform="translate(315.000,248.659)" style="opacity: 1;"><rect class="node-rect" width="10" height="71.34146341463395" style="stroke-width: 0.5; stroke: rgb(68, 68, 68); stroke-opacity: 1; fill: rgb(51, 51, 51); fill-opacity: 1;"/><text class="node-label" data-notex="1" x="0" y="0" text-anchor="start" transform="translate(13.25,40.22073170731697)" style="cursor: default; font-family: Arial; font-size: 13px; fill: rgb(51, 51, 51); fill-opacity: 1; white-space: pre; text-shadow: white 1px 1px 1px, white -1px -1px 1px, white 1px -1px 1px, white -1px 1px 1px;">Leverages Relational Structure (KG)</text></g><g class="sankey-node" transform="translate(315.000,75.000)" style="opacity: 1;"><rect class="node-rect" width="10" height="47.56097560975604" style="stroke-width: 0.5; stroke: rgb(68, 68, 68); stroke-opacity: 1; fill: rgb(51, 51, 51); fill-opacity: 1;"/><text class="node-label" data-notex="1" x="0" y="0" text-anchor="start" transform="translate(13.25,28.33048780487802)" style="cursor: default; font-family: Arial; font-size: 13px; fill: rgb(51, 51, 51); fill-opacity: 1; white-space: pre; text-shadow: white 1px 1px 1px, white -1px -1px 1px, white 1px -1px 1px, white -1px 1px 1px;">No Structure Leverage</text></g><g class="sankey-node" transform="translate(630.000,-0.000)" style="opacity: 1;"><rect class="node-rect" width="10" height="77.28658536585361" style="stroke-width: 0.5; stroke: rgb(68, 68, 68); stroke-opacity: 1; fill: rgb(51, 51, 51); fill-opacity: 1;"/><text class="node-label" data-notex="1" x="0" y="0" text-anchor="end" transform="translate(-3.25,43.1932926829268)" style="cursor: default; font-family: Arial; font-size: 13px; fill: rgb(51, 51, 51); fill-opacity: 1; white-space: pre; text-shadow: white 1px 1px 1px, white -1px -1px 1px, white 1px -1px 1px, white -1px 1px 1px;">Reasoning</text></g><g class="sankey-node" transform="translate(630.000,261.707)" style="opacity: 1;"><rect class="node-rect" width="10" height="17.835365853658573" style="stroke-width: 0.5; stroke: rgb(68, 68, 68); stroke-opacity: 1; fill: rgb(51, 51, 51); fill-opacity: 1;"/><text class="node-label" data-notex="1" x="0" y="0" text-anchor="end" transform="translate(-3.25,13.467682926829287)" style="cursor: default; font-family: Arial; font-size: 13px; fill: rgb(51, 51, 51); fill-opacity: 1; white-space: pre; text-shadow: white 1px 1px 1px, white -1px -1px 1px, white 1px -1px 1px, white -1px 1px 1px;">Out-of-distribution Generalization</text></g><g class="sankey-node" transform="translate(630.000,304.543)" style="opacity: 1;"><rect class="node-rect" width="10" height="15.457317073170827" style="stroke-width: 0.5; stroke: rgb(68, 68, 68); stroke-opacity: 1; fill: rgb(51, 51, 51); fill-opacity: 1;"/><text class="node-label" data-notex="1" x="0" y="0" text-anchor="end" transform="translate(-3.25,12.278658536585414)" style="cursor: default; font-family: Arial; font-size: 13px; fill: rgb(51, 51, 51); fill-opacity: 1; white-space: pre; text-shadow: white 1px 1px 1px, white -1px -1px 1px, white 1px -1px 1px, white -1px 1px 1px;">Interpretability</text></g><g class="sankey-node" transform="translate(630.000,179.604)" style="opacity: 1;"><rect class="node-rect" width="10" height="22.59146341463412" style="stroke-width: 0.5; stroke: rgb(68, 68, 68); stroke-opacity: 1; fill: rgb(51, 51, 51); fill-opacity: 1;"/><text class="node-label" data-notex="1" x="0" y="0" text-anchor="end" transform="translate(-3.25,15.84573170731706)" style="cursor: default; font-family: Arial; font-size: 13px; fill: rgb(51, 51, 51); fill-opacity: 1; white-space: pre; text-shadow: white 1px 1px 1px, white -1px -1px 1px, white 1px -1px 1px, white -1px 1px 1px;">Reduced Data</text></g><g class="sankey-node" transform="translate(630.000,227.195)" style="opacity: 1;"><rect class="node-rect" width="10" height="9.512195121951208" style="stroke-width: 0.5; stroke: rgb(68, 68, 68); stroke-opacity: 1; fill: rgb(51, 51, 51); fill-opacity: 1;"/><text class="node-label" data-notex="1" x="0" y="0" text-anchor="end" transform="translate(-3.25,9.306097560975605)" style="cursor: default; font-family: Arial; font-size: 13px; fill: rgb(51, 51, 51); fill-opacity: 1; white-space: pre; text-shadow: white 1px 1px 1px, white -1px -1px 1px, white 1px -1px 1px, white -1px 1px 1px;">Transferability</text></g><g class="sankey-node" transform="translate(630.000,102.287)" style="opacity: 1;"><rect class="node-rect" width="10" height="52.317073170731646" style="stroke-width: 0.5; stroke: rgb(68, 68, 68); stroke-opacity: 1; fill: rgb(51, 51, 51); fill-opacity: 1;"/><text class="node-label" data-notex="1" x="0" y="0" text-anchor="end" transform="translate(-3.25,30.708536585365824)" style="cursor: default; font-family: Arial; font-size: 13px; fill: rgb(51, 51, 51); fill-opacity: 1; white-space: pre; text-shadow: white 1px 1px 1px, white -1px -1px 1px, white 1px -1px 1px, white -1px 1px 1px;">None</text></g><g class="sankey-node" transform="translate(0.000,292.816)" style="opacity: 1;"><rect class="node-rect" width="10" height="19.024390243902417" style="stroke-width: 0.5; stroke: rgb(68, 68, 68); stroke-opacity: 1; fill: rgb(51, 51, 51); fill-opacity: 1;"/><text class="node-label" data-notex="1" x="0" y="0" text-anchor="start" transform="translate(13.25,14.06219512195121)" style="cursor: default; font-family: Arial; font-size: 13px; fill: rgb(51, 51, 51); fill-opacity: 1; white-space: pre; text-shadow: white 1px 1px 1px, white -1px -1px 1px, white 1px -1px 1px, white -1px 1px 1px;">Both</text></g><g class="sankey-node" transform="translate(0.000,100.133)" style="opacity: 1;"><rect class="node-rect" width="10" height="61.829268292682954" style="stroke-width: 0.5; stroke: rgb(68, 68, 68); stroke-opacity: 1; fill: rgb(51, 51, 51); fill-opacity: 1;"/><text class="node-label" data-notex="1" x="0" y="0" text-anchor="start" transform="translate(13.25,35.464634146341474)" style="cursor: default; font-family: Arial; font-size: 13px; fill: rgb(51, 51, 51); fill-opacity: 1; white-space: pre; text-shadow: white 1px 1px 1px, white -1px -1px 1px, white 1px -1px 1px, white -1px 1px 1px;">Explicit</text></g><g class="sankey-node" transform="translate(0.000,186.963)" style="opacity: 1;"><rect class="node-rect" width="10" height="80.85365853658541" style="stroke-width: 0.5; stroke: rgb(68, 68, 68); stroke-opacity: 1; fill: rgb(51, 51, 51); fill-opacity: 1;"/><text class="node-label" data-notex="1" x="0" y="0" text-anchor="start" transform="translate(13.25,44.976829268292704)" style="cursor: default; font-family: Arial; font-size: 13px; fill: rgb(51, 51, 51); fill-opacity: 1; white-space: pre; text-shadow: white 1px 1px 1px, white -1px -1px 1px, white 1px -1px 1px, white -1px 1px 1px;">Implicit</text></g></g></g><defs id="topdefs-b5eaf3"><g class="clips"/></defs><g class="layer-above"><g class="imagelayer"/><g class="shapelayer"/></g><g class="infolayer"><g class="g-gtitle"/><g class="first-render"/></g></svg>