<?xml version="1.0" encoding="utf-8"?>
<!-- Generator: Adobe Illustrator 26.0.3, SVG Export Plug-In . SVG Version: 6.00 Build 0)  -->
<svg version="1.1" xmlns="http://www.w3.org/2000/svg" xmlns:xlink="http://www.w3.org/1999/xlink" x="0px" y="0px"
	 viewBox="0 0 800 500" style="enable-background:new 0 0 800 500;" xml:space="preserve">
<style type="text/css">
	.st0{fill:#450256;}
	.st1{fill:#333333;stroke:#444444;stroke-width:0.5;}
	.st2{fill:#89B79F;}
	.st3{fill:#57BCD6;}
	.st4{fill:#333333;}
	.st5{font-family:'ArialMT';}
	.st6{font-size:13px;}
</style>
<g id="Layer_1">
	<path class="st0" d="M90,395.6c152.5,0,152.5,0,305,0v8.1c-152.5,0-152.5,0-305,0V395.6z"/>
	<path class="st0" d="M405,326.6c152.5,0,152.5-191.4,305-191.4v2.7c-152.5,0-152.5,191.4-305,191.4V326.6z"/>
	<path class="st0" d="M405,408.8c152.5,0,152.5,0,305,0v2.7c-152.5,0-152.5,0-305,0V408.8z"/>
	<path class="st0" d="M405,385.1c152.5,0,152.5-64.9,305-64.9v2.7c-152.5,0-152.5,64.9-305,64.9V385.1z"/>
	<path class="st0" d="M90,403.8c152.5,0,152.5,0,305,0v8.1c-152.5,0-152.5,0-305,0V403.8z"/>
	<path class="st0" d="M405,337.4c152.5,0,152.5-191.4,305-191.4v4.1c-152.5,0-152.5,191.4-305,191.4V337.4z"/>
	<path class="st0" d="M405,388.9c152.5,0,152.5-64.9,305-64.9v4.1c-152.5,0-152.5,64.9-305,64.9V388.9z"/>
	<path class="st0" d="M90,411.9c152.5,0,152.5,0,305,0v8.1c-152.5,0-152.5,0-305,0V411.9z"/>
	<path class="st0" d="M405,341.5c152.5,0,152.5-191.4,305-191.4v4.1c-152.5,0-152.5,191.4-305,191.4V341.5z"/>
	<path class="st0" d="M405,392.9c152.5,0,152.5-64.9,305-64.9v4.1c-152.5,0-152.5,64.9-305,64.9V392.9z"/>
	<rect x="395" y="200" class="st1" width="10" height="101.6"/>
	<rect x="395" y="326.6" class="st1" width="10" height="93.4"/>
	<rect x="710" y="100" class="st1" width="10" height="79.2"/>
	<rect x="710" y="402.4" class="st1" width="10" height="17.6"/>
	<rect x="710" y="310.4" class="st1" width="10" height="24.4"/>
	<rect x="710" y="359.8" class="st1" width="10" height="17.6"/>
	<rect x="710" y="278" class="st1" width="10" height="7.4"/>
	<rect x="710" y="204.2" class="st1" width="10" height="48.8"/>
	<rect x="80" y="395.6" class="st1" width="10" height="24.4"/>
	<rect x="80" y="330" class="st1" width="10" height="40.6"/>
	<rect x="80" y="175" class="st1" width="10" height="130"/>
</g>
<g id="implicit">
	<path class="st2" d="M90,175c152.5,0,152.5,25,305,25v4.1c-152.5,0-152.5-25-305-25V175z"/>
	<path class="st2" d="M90,252.2c152.5,0,152.5,74.4,305,74.4v4.1c-152.5,0-152.5-74.4-305-74.4V252.2z"/>
	<path class="st2" d="M405,235.2c152.5,0,152.5-31,305-31v4.1c-152.5,0-152.5,31-305,31V235.2z"/>
	<path class="st2" d="M405,370.6c152.5,0,152.5-129.8,305-129.8v4.1c-152.5,0-152.5,129.8-305,129.8V370.6z"/>
	<path class="st2" d="M90,179.1c152.5,0,152.5,25,305,25v8.1c-152.5,0-152.5-25-305-25V179.1z"/>
	<path class="st2" d="M405,239.3c152.5,0,152.5-31,305-31v8.1c-152.5,0-152.5,31-305,31V239.3z"/>
	<path class="st2" d="M90,256.2c152.5,0,152.5,74.4,305,74.4v8.1c-152.5,0-152.5-74.4-305-74.4V256.2z"/>
	<path class="st2" d="M405,329.3c152.5,0,152.5-191.4,305-191.4v8.1c-152.5,0-152.5,191.4-305,191.4V329.3z"/>
	<path class="st2" d="M90,187.2c152.5,0,152.5,25,305,25v4.1c-152.5,0-152.5-25-305-25V187.2z"/>
	<path class="st2" d="M90,264.4c152.5,0,152.5,74.4,305,74.4v4.1c-152.5,0-152.5-74.4-305-74.4V264.4z"/>
	<path class="st2" d="M405,247.4c152.5,0,152.5-31,305-31v4.1c-152.5,0-152.5,31-305,31V247.4z"/>
	<path class="st2" d="M405,374.6c152.5,0,152.5-129.8,305-129.8v4.1c-152.5,0-152.5,129.8-305,129.8V374.6z"/>
	<path class="st2" d="M90,191.2c152.5,0,152.5,25,305,25v4.1c-152.5,0-152.5-25-305-25V191.2z"/>
	<path class="st2" d="M90,268.4c152.5,0,152.5,74.4,305,74.4v4.1c-152.5,0-152.5-74.4-305-74.4V268.4z"/>
	<path class="st2" d="M405,295.1c152.5,0,152.5,107.3,305,107.3v1c-152.5,0-152.5-107.3-305-107.3V295.1z"/>
	<path class="st2" d="M405,276.8c152.5,0,152.5,33.6,305,33.6v1c-152.5,0-152.5-33.6-305-33.6V276.8z"/>
	<path class="st2" d="M405,286.7c152.5,0,152.5,73.1,305,73.1v1c-152.5,0-152.5-73.1-305-73.1V286.7z"/>
	<path class="st2" d="M405,271.8c152.5,0,152.5,6.2,305,6.2v1c-152.5,0-152.5-6.2-305-6.2V271.8z"/>
	<path class="st2" d="M405,411.5c152.5,0,152.5,0,305,0v1c-152.5,0-152.5,0-305,0V411.5z"/>
	<path class="st2" d="M405,387.8c152.5,0,152.5-64.9,305-64.9v1c-152.5,0-152.5,64.9-305,64.9V387.8z"/>
	<path class="st2" d="M405,399.7c152.5,0,152.5-31.4,305-31.4v1c-152.5,0-152.5,31.4-305,31.4V399.7z"/>
	<path class="st2" d="M405,382.8c152.5,0,152.5-99.7,305-99.7v1c-152.5,0-152.5,99.7-305,99.7V382.8z"/>
	<path class="st2" d="M90,195.3c152.5,0,152.5,25,305,25v4.1c-152.5,0-152.5-25-305-25V195.3z"/>
	<path class="st2" d="M90,272.5c152.5,0,152.5,74.4,305,74.4v4.1c-152.5,0-152.5-74.4-305-74.4V272.5z"/>
	<path class="st2" d="M405,200c152.5,0,152.5-100,305-100v2c-152.5,0-152.5,100-305,100V200z"/>
	<path class="st2" d="M405,296.1c152.5,0,152.5,107.3,305,107.3v2c-152.5,0-152.5-107.3-305-107.3V296.1z"/>
	<path class="st2" d="M405,345.5c152.5,0,152.5-191.4,305-191.4v2c-152.5,0-152.5,191.4-305,191.4V345.5z"/>
	<path class="st2" d="M405,412.6c152.5,0,152.5,0,305,0v2c-152.5,0-152.5,0-305,0V412.6z"/>
	<path class="st2" d="M90,199.4c152.5,0,152.5,25,305,25v4.1c-152.5,0-152.5-25-305-25V199.4z"/>
	<path class="st2" d="M90,276.6c152.5,0,152.5,74.4,305,74.4v4.1c-152.5,0-152.5-74.4-305-74.4V276.6z"/>
	<path class="st2" d="M405,202c152.5,0,152.5-100,305-100v4.1c-152.5,0-152.5,100-305,100V202z"/>
	<path class="st2" d="M405,347.6c152.5,0,152.5-191.4,305-191.4v4.1c-152.5,0-152.5,191.4-305,191.4V347.6z"/>
	<path class="st2" d="M90,280.6c152.5,0,152.5,74.4,305,74.4v8.1c-152.5,0-152.5-74.4-305-74.4V280.6z"/>
	<path class="st2" d="M405,351.6c152.5,0,152.5-191.4,305-191.4v8.1c-152.5,0-152.5,191.4-305,191.4V351.6z"/>
	<path class="st2" d="M90,203.4c152.5,0,152.5,25,305,25v4.1c-152.5,0-152.5-25-305-25V203.4z"/>
	<path class="st2" d="M90,288.8c152.5,0,152.5,74.4,305,74.4v4.1c-152.5,0-152.5-74.4-305-74.4V288.8z"/>
	<path class="st2" d="M405,259.6c152.5,0,152.5-31,305-31v4.1c-152.5,0-152.5,31-305,31V259.6z"/>
	<path class="st2" d="M405,378.7c152.5,0,152.5-129.8,305-129.8v4.1c-152.5,0-152.5,129.8-305,129.8V378.7z"/>
	<path class="st2" d="M90,207.5c152.5,0,152.5,25,305,25v8.1c-152.5,0-152.5-25-305-25V207.5z"/>
	<path class="st2" d="M405,214.2c152.5,0,152.5-100,305-100v4.1c-152.5,0-152.5,100-305,100V214.2z"/>
	<path class="st2" d="M405,277.9c152.5,0,152.5,33.6,305,33.6v4.1c-152.5,0-152.5-33.6-305-33.6V277.9z"/>
	<path class="st2" d="M90,215.6c152.5,0,152.5,25,305,25v8.1c-152.5,0-152.5-25-305-25V215.6z"/>
	<path class="st2" d="M405,218.3c152.5,0,152.5-100,305-100v8.1c-152.5,0-152.5,100-305,100V218.3z"/>
	<path class="st2" d="M90,292.8c152.5,0,152.5,74.4,305,74.4v8.1c-152.5,0-152.5-74.4-305-74.4V292.8z"/>
	<path class="st2" d="M405,362.4c152.5,0,152.5-191.4,305-191.4v8.1c-152.5,0-152.5,191.4-305,191.4V362.4z"/>
	<path class="st2" d="M90,223.8c152.5,0,152.5,25,305,25v8.1c-152.5,0-152.5-25-305-25V223.8z"/>
	<path class="st2" d="M405,226.4c152.5,0,152.5-100,305-100v4.1c-152.5,0-152.5,100-305,100V226.4z"/>
	<path class="st2" d="M405,287.7c152.5,0,152.5,73.1,305,73.1v4.1c-152.5,0-152.5-73.1-305-73.1V287.7z"/>
	<path class="st2" d="M90,231.9c152.5,0,152.5,25,305,25v8.1c-152.5,0-152.5-25-305-25V231.9z"/>
	<path class="st2" d="M405,263.6c152.5,0,152.5-31,305-31v8.1c-152.5,0-152.5,31-305,31V263.6z"/>
	<path class="st2" d="M90,240c152.5,0,152.5,25,305,25v4.1c-152.5,0-152.5-25-305-25V240z"/>
	<path class="st2" d="M90,300.9c152.5,0,152.5,74.4,305,74.4v4.1c-152.5,0-152.5-74.4-305-74.4V300.9z"/>
	<path class="st2" d="M405,300.2c152.5,0,152.5,107.3,305,107.3v1.4c-152.5,0-152.5-107.3-305-107.3V300.2z"/>
	<path class="st2" d="M405,293.8c152.5,0,152.5,73.1,305,73.1v1.4c-152.5,0-152.5-73.1-305-73.1V293.8z"/>
	<path class="st2" d="M405,272.8c152.5,0,152.5,6.2,305,6.2v1.4c-152.5,0-152.5-6.2-305-6.2V272.8z"/>
	<path class="st2" d="M405,418.6c152.5,0,152.5,0,305,0v1.4c-152.5,0-152.5,0-305,0V418.6z"/>
	<path class="st2" d="M405,407.5c152.5,0,152.5-31.4,305-31.4v1.4c-152.5,0-152.5,31.4-305,31.4V407.5z"/>
	<path class="st2" d="M405,383.8c152.5,0,152.5-99.7,305-99.7v1.4c-152.5,0-152.5,99.7-305,99.7V383.8z"/>
	<path class="st2" d="M90,244.1c152.5,0,152.5,25,305,25v8.1c-152.5,0-152.5-25-305-25V244.1z"/>
	<path class="st2" d="M405,232.5c152.5,0,152.5-100,305-100v2.7c-152.5,0-152.5,100-305,100V232.5z"/>
	<path class="st2" d="M405,284c152.5,0,152.5,33.6,305,33.6v2.7c-152.5,0-152.5-33.6-305-33.6V284z"/>
	<path class="st2" d="M405,274.1c152.5,0,152.5,6.2,305,6.2v2.7c-152.5,0-152.5-6.2-305-6.2V274.1z"/>
</g>
<g id="explicit">
	<path class="st3" d="M90,330c152.5,0,152.5-52.8,305-52.8v8.1c-152.5,0-152.5,52.8-305,52.8V330z"/>
	<path class="st3" d="M405,251.5c152.5,0,152.5-31,305-31v8.1c-152.5,0-152.5,31-305,31V251.5z"/>
	<path class="st3" d="M90,354.4c152.5,0,152.5,25,305,25v8.1c-152.5,0-152.5-25-305-25V354.4z"/>
	<path class="st3" d="M405,359.7c152.5,0,152.5-191.4,305-191.4v2.7c-152.5,0-152.5,191.4-305,191.4V359.7z"/>
	<path class="st3" d="M405,397c152.5,0,152.5-64.9,305-64.9v2.7c-152.5,0-152.5,64.9-305,64.9V397z"/>
	<path class="st3" d="M405,400.7c152.5,0,152.5-31.4,305-31.4v2.7c-152.5,0-152.5,31.4-305,31.4V400.7z"/>
	<path class="st3" d="M90,362.5c152.5,0,152.5,25,305,25v8.1c-152.5,0-152.5-25-305-25V362.5z"/>
	<path class="st3" d="M405,414.6c152.5,0,152.5,0,305,0v4.1c-152.5,0-152.5,0-305,0V414.6z"/>
	<path class="st3" d="M405,403.4c152.5,0,152.5-31.4,305-31.4v4.1c-152.5,0-152.5,31.4-305,31.4V403.4z"/>
	<path class="st3" d="M90,338.1c152.5,0,152.5-52.8,305-52.8v8.1c-152.5,0-152.5,52.8-305,52.8V338.1z"/>
	<path class="st3" d="M405,206.1c152.5,0,152.5-100,305-100v8.1c-152.5,0-152.5,100-305,100V206.1z"/>
	<path class="st3" d="M90,346.2c152.5,0,152.5-52.8,305-52.8v8.1c-152.5,0-152.5,52.8-305,52.8V346.2z"/>
	<path class="st3" d="M405,230.5c152.5,0,152.5-100,305-100v2c-152.5,0-152.5,100-305,100V230.5z"/>
	<path class="st3" d="M405,298.2c152.5,0,152.5,107.3,305,107.3v2c-152.5,0-152.5-107.3-305-107.3V298.2z"/>
	<path class="st3" d="M405,281.9c152.5,0,152.5,33.6,305,33.6v2c-152.5,0-152.5-33.6-305-33.6V281.9z"/>
	<path class="st3" d="M405,291.7c152.5,0,152.5,73.1,305,73.1v2c-152.5,0-152.5-73.1-305-73.1V291.7z"/>
</g>
<g id="Layer_2">
	<text transform="matrix(1 0 0 1 278.8971 173.8868)" class="st4 st5 st6">Leverages Natural Language Structure</text>
	<text transform="matrix(1 0 0 1 295.9312 444.3703)" class="st4 st5 st6">Leverages Relational Structure (KG)</text>
	<text transform="matrix(1 0 0 1 728.9168 144.1594)" class="st4 st5 st6">Reasoning</text>
	<text transform="matrix(1 0 0 1 728.9168 415.7481)" class="st4 st5 st6">Out-of-distribution Generalization</text>
	<text transform="matrix(1 0 0 1 728.9163 327.1545)" class="st4 st5 st6">Interpretability</text>
	<text transform="matrix(1 0 0 1 728.9163 373.1441)" class="st4 st5 st6">Reduced Data</text>
	<text transform="matrix(1 0 0 1 728.9163 286.243)" class="st4 st5 st6">Transferability</text>
	<text transform="matrix(1 0 0 1 728.9168 233.144)" class="st4 st5 st6">None</text>
	<text transform="matrix(1 0 0 1 93.25 412.3625)" class="st4 st5 st6">Both</text>
	<text transform="matrix(1 0 0 1 29.921 354.8625)" class="st4 st5 st6">Explicit</text>
	<text transform="matrix(1 0 0 1 30.651 244.55)" class="st4 st5 st6">Implicit</text>
</g>
</svg>
