<?xml version="1.0" encoding="utf-8"?>
<!-- Generator: Adobe Illustrator 26.0.3, SVG Export Plug-In . SVG Version: 6.00 Build 0)  -->
<svg version="1.1" id="Layer_1" xmlns="http://www.w3.org/2000/svg" xmlns:xlink="http://www.w3.org/1999/xlink" x="0px" y="0px"
	 viewBox="0 0 715 500" style="enable-background:new 0 0 715 500;" xml:space="preserve">
<style type="text/css">
	.st0{fill:#89B79F;}
	.st1{fill:#9C4397;}
	.st2{fill:#57BCD6;}
	.st3{fill:#450256;}
	.st4{fill:#333333;stroke:#444444;stroke-width:0.5;}
	.st5{enable-background:new    ;}
	.st6{fill:#333333;}
</style>
<path class="st0" d="M152,272c210,0,210-85.5,420-85.5v3.1c-210,0-210,85.5-420,85.5V272z"/>
<path class="st1" d="M152,328.1c210,0,210-127.4,420-127.4v3.1c-210,0-210,127.4-420,127.4V328.1z"/>
<path class="st2" d="M152,200.3c210,0,210-32,420-32v3.1c-210,0-210,32-420,32V200.3z"/>
<path class="st1" d="M152,343.8c210,0,210,73.1,420,73.1v3.1c-210,0-210-73.1-420-73.1V343.8z"/>
<path class="st1" d="M152,339c210,0,210,41.1,420,41.1v3.1c-210,0-210-41.1-420-41.1V339z"/>
<path class="st1" d="M152,334.9c210,0,210-29.8,420-29.8v3.1c-210,0-210,29.8-420,29.8V334.9z"/>
<path class="st0" d="M152,287.7c210,0,210-39.8,420-39.8v3.1c-210,0-210,39.8-420,39.8V287.7z"/>
<path class="st3" d="M152,247.4c210,0,210-4.2,420-4.2v1.6c-210,0-210,4.2-420,4.2V247.4z"/>
<path class="st3" d="M152,238c210,0,210-86.5,420-86.5v1.6c-210,0-210,86.5-420,86.5V238z"/>
<path class="st2" d="M152,203.4c210,0,210-32,420-32v3.1c-210,0-210,32-420,32V203.4z"/>
<path class="st2" d="M152,212.3c210,0,210,27.8,420,27.8v3.1c-210,0-210-27.8-420-27.8V212.3z"/>
<path class="st2" d="M152,198.7c210,0,210-64,420-64v1.6c-210,0-210,64-420,64V198.7z"/>
<path class="st2" d="M152,210.7c210,0,210,11,420,11v1.6c-210,0-210-11-420-11V210.7z"/>
<path class="st0" d="M152,290.9c210,0,210-39.8,420-39.8v3.1c-210,0-210,39.8-420,39.8V290.9z"/>
<path class="st3" d="M152,249c210,0,210-4.2,420-4.2v3.1c-210,0-210,4.2-420,4.2V249z"/>
<path class="st3" d="M152,239.5c210,0,210-60.8,420-60.8v3.1c-210,0-210,60.8-420,60.8V239.5z"/>
<path class="st0" d="M152,304.5c210,0,210,36.8,420,36.8v1c-210,0-210-36.8-420-36.8V304.5z"/>
<path class="st0" d="M152,307.1c210,0,210,52,420,52v1c-210,0-210-52-420-52V307.1z"/>
<path class="st0" d="M152,300.3c210,0,210,0.6,420,0.6v1c-210,0-210-0.6-420-0.6V300.3z"/>
<path class="st2" d="M152,215.4c210,0,210,57.1,420,57.1v1c-210,0-210-57.1-420-57.1V215.4z"/>
<path class="st2" d="M152,206.5c210,0,210-32,420-32v1c-210,0-210,32-420,32V206.5z"/>
<path class="st2" d="M152,197.6c210,0,210-79.3,420-79.3v1c-210,0-210,79.3-420,79.3V197.6z"/>
<path class="st2" d="M152,218c210,0,210,78.1,420,78.1v3.1c-210,0-210-78.1-420-78.1V218z"/>
<path class="st2" d="M152,194.5c210,0,210-94.5,420-94.5v3.1c-210,0-210,94.5-420,94.5V194.5z"/>
<path class="st3" d="M152,252.1c210,0,210,23.1,420,23.1v1.6c-210,0-210-23.1-420-23.1V252.1z"/>
<path class="st3" d="M152,242.7c210,0,210-60.8,420-60.8v1.6c-210,0-210,60.8-420,60.8V242.7z"/>
<path class="st2" d="M152,216.5c210,0,210,57.1,420,57.1v1.6c-210,0-210-57.1-420-57.1V216.5z"/>
<path class="st2" d="M152,221.2c210,0,210,78.1,420,78.1v1.6c-210,0-210-78.1-420-78.1V221.2z"/>
<path class="st0" d="M152,275.2c210,0,210-85.5,420-85.5v3.1c-210,0-210,85.5-420,85.5V275.2z"/>
<path class="st0" d="M152,278.3c210,0,210-85.5,420-85.5v3.1c-210,0-210,85.5-420,85.5V278.3z"/>
<path class="st0" d="M152,297.1c210,0,210-20.4,420-20.4v3.1c-210,0-210,20.4-420,20.4V297.1z"/>
<path class="st3" d="M152,253.7c210,0,210,69.8,420,69.8v1.6c-210,0-210-69.8-420-69.8V253.7z"/>
<path class="st3" d="M152,255.2c210,0,210,120.2,420,120.2v1.6c-210,0-210-120.2-420-120.2V255.2z"/>
<path class="st3" d="M152,244.3c210,0,210-60.8,420-60.8v3.1c-210,0-210,60.8-420,60.8V244.3z"/>
<path class="st0" d="M152,301.3c210,0,210,0.6,420,0.6v3.1c-210,0-210-0.6-420-0.6V301.3z"/>
<path class="st2" d="M152,207.6c210,0,210-32,420-32v3.1c-210,0-210,32-420,32V207.6z"/>
<path class="st0" d="M152,281.5c210,0,210-85.5,420-85.5v1.6c-210,0-210,85.5-420,85.5V281.5z"/>
<path class="st0" d="M152,305.5c210,0,210,36.8,420,36.8v1.6c-210,0-210-36.8-420-36.8V305.5z"/>
<path class="st0" d="M152,294c210,0,210-39.8,420-39.8v3.1c-210,0-210,39.8-420,39.8V294z"/>
<path class="st0" d="M152,286.2c210,0,210-62.9,420-62.9v1.6c-210,0-210,62.9-420,62.9V286.2z"/>
<path class="st0" d="M152,311.3c210,0,210,87.2,420,87.2v1.6c-210,0-210-87.2-420-87.2V311.3z"/>
<path class="st1" d="M152,331.2c210,0,210-127.4,420-127.4v1c-210,0-210,127.4-420,127.4V331.2z"/>
<path class="st1" d="M152,333.8c210,0,210-53.9,420-53.9v1c-210,0-210,53.9-420,53.9V333.8z"/>
<path class="st1" d="M152,338c210,0,210-13,420-13v1c-210,0-210,13-420,13V338z"/>
<path class="st0" d="M152,308.1c210,0,210,68.9,420,68.9v3.1c-210,0-210-68.9-420-68.9V308.1z"/>
<path class="st1" d="M152,342.2c210,0,210,57.9,420,57.9v1.6c-210,0-210-57.9-420-57.9V342.2z"/>
<path class="st1" d="M152,332.2c210,0,210-127.4,420-127.4v1.6c-210,0-210,127.4-420,127.4V332.2z"/>
<path class="st0" d="M152,283c210,0,210-85.5,420-85.5v3.1c-210,0-210,85.5-420,85.5V283z"/>
<rect x="142" y="238" class="st4" width="10" height="18.8"/>
<g class="st5">
	<path class="st6" d="M24.4,249l1.2-0.1c0.1,0.5,0.2,0.8,0.4,1.1c0.2,0.3,0.5,0.5,0.9,0.7c0.4,0.2,0.9,0.3,1.4,0.3
		c0.5,0,0.9-0.1,1.2-0.2s0.6-0.3,0.8-0.6c0.2-0.2,0.3-0.5,0.3-0.8c0-0.3-0.1-0.5-0.3-0.8s-0.4-0.4-0.8-0.5c-0.2-0.1-0.8-0.2-1.7-0.5
		s-1.5-0.4-1.8-0.6c-0.4-0.2-0.8-0.5-1-0.9c-0.2-0.3-0.3-0.7-0.3-1.2c0-0.5,0.1-0.9,0.4-1.3s0.7-0.7,1.2-0.9
		c0.5-0.2,1.1-0.3,1.7-0.3c0.7,0,1.3,0.1,1.8,0.3c0.5,0.2,0.9,0.5,1.2,1s0.4,0.9,0.5,1.5l-1.2,0.1c-0.1-0.6-0.3-1-0.6-1.3
		c-0.4-0.3-0.9-0.5-1.6-0.5c-0.7,0-1.3,0.1-1.6,0.4c-0.3,0.3-0.5,0.6-0.5,1c0,0.3,0.1,0.6,0.4,0.8c0.2,0.2,0.9,0.4,1.9,0.7
		c1,0.2,1.7,0.4,2.1,0.6c0.5,0.2,0.9,0.6,1.2,0.9s0.4,0.8,0.4,1.3c0,0.5-0.1,1-0.4,1.4c-0.3,0.4-0.7,0.8-1.2,1
		c-0.5,0.2-1.1,0.4-1.8,0.4c-0.8,0-1.5-0.1-2.1-0.4c-0.6-0.2-1-0.6-1.3-1.1C24.5,250.1,24.4,249.6,24.4,249z"/>
	<path class="st6" d="M37.9,249.8l1.2,0.1c-0.2,0.7-0.5,1.2-1,1.6s-1.1,0.6-1.9,0.6c-1,0-1.8-0.3-2.3-0.9c-0.6-0.6-0.9-1.5-0.9-2.6
		c0-1.1,0.3-2,0.9-2.6s1.3-0.9,2.3-0.9c0.9,0,1.6,0.3,2.2,0.9c0.6,0.6,0.9,1.5,0.9,2.6c0,0.1,0,0.2,0,0.3h-5c0,0.7,0.3,1.3,0.6,1.7
		c0.4,0.4,0.8,0.6,1.4,0.6c0.4,0,0.8-0.1,1.1-0.3C37.5,250.6,37.7,250.3,37.9,249.8z M34.2,247.9h3.8c-0.1-0.6-0.2-1-0.4-1.3
		c-0.4-0.4-0.8-0.7-1.4-0.7c-0.5,0-1,0.2-1.3,0.5C34.4,246.9,34.2,247.3,34.2,247.9z"/>
	<path class="st6" d="M40.5,251.9v-6.7h1v0.9c0.2-0.3,0.5-0.6,0.8-0.8s0.8-0.3,1.2-0.3c0.5,0,0.9,0.1,1.2,0.3
		c0.3,0.2,0.5,0.5,0.7,0.9c0.5-0.8,1.2-1.2,2.1-1.2c0.7,0,1.2,0.2,1.5,0.6s0.5,0.9,0.5,1.7v4.6h-1.1v-4.2c0-0.5,0-0.8-0.1-1
		c-0.1-0.2-0.2-0.4-0.4-0.5c-0.2-0.1-0.4-0.2-0.7-0.2c-0.5,0-0.9,0.2-1.2,0.5s-0.5,0.8-0.5,1.5v3.9h-1.1v-4.4c0-0.5-0.1-0.9-0.3-1.1
		s-0.5-0.4-0.9-0.4c-0.3,0-0.6,0.1-0.9,0.3c-0.3,0.2-0.5,0.4-0.6,0.7c-0.1,0.3-0.2,0.8-0.2,1.4v3.5H40.5z"/>
	<path class="st6" d="M55.8,251.1c-0.4,0.4-0.8,0.6-1.2,0.8c-0.4,0.1-0.8,0.2-1.3,0.2c-0.7,0-1.3-0.2-1.7-0.5
		c-0.4-0.4-0.6-0.8-0.6-1.4c0-0.3,0.1-0.6,0.2-0.9c0.1-0.3,0.3-0.5,0.6-0.7c0.2-0.2,0.5-0.3,0.8-0.4c0.2-0.1,0.6-0.1,1-0.2
		c0.9-0.1,1.6-0.2,2-0.4c0-0.2,0-0.3,0-0.3c0-0.5-0.1-0.8-0.3-1c-0.3-0.3-0.7-0.4-1.3-0.4c-0.5,0-0.9,0.1-1.2,0.3
		c-0.3,0.2-0.4,0.5-0.6,1l-1.1-0.2c0.1-0.5,0.3-0.9,0.5-1.2s0.6-0.5,1-0.7c0.4-0.2,1-0.2,1.5-0.2c0.6,0,1,0.1,1.4,0.2
		s0.6,0.3,0.8,0.5s0.3,0.5,0.4,0.8c0,0.2,0.1,0.5,0.1,1.1v1.5c0,1.1,0,1.7,0.1,2c0,0.3,0.1,0.6,0.3,0.8H56
		C55.9,251.7,55.8,251.4,55.8,251.1z M55.7,248.6c-0.4,0.2-1,0.3-1.9,0.4c-0.5,0.1-0.8,0.1-1,0.2c-0.2,0.1-0.3,0.2-0.5,0.4
		s-0.2,0.3-0.2,0.5c0,0.3,0.1,0.6,0.3,0.8c0.2,0.2,0.6,0.3,1,0.3c0.4,0,0.8-0.1,1.2-0.3c0.3-0.2,0.6-0.5,0.8-0.8
		c0.1-0.3,0.2-0.6,0.2-1.1V248.6z"/>
	<path class="st6" d="M58.6,251.9v-6.7h1v1c0.5-0.7,1.2-1.1,2.1-1.1c0.4,0,0.8,0.1,1.1,0.2c0.3,0.1,0.6,0.3,0.8,0.6
		c0.2,0.2,0.3,0.5,0.4,0.8c0,0.2,0.1,0.6,0.1,1.1v4.1h-1.1v-4.1c0-0.5,0-0.8-0.1-1s-0.2-0.4-0.5-0.6c-0.2-0.1-0.5-0.2-0.8-0.2
		c-0.5,0-0.9,0.2-1.3,0.5c-0.4,0.3-0.5,0.9-0.5,1.8v3.7H58.6z"/>
	<path class="st6" d="M68.3,250.9l0.2,1c-0.3,0.1-0.6,0.1-0.9,0.1c-0.4,0-0.7-0.1-1-0.2c-0.2-0.1-0.4-0.3-0.5-0.5S66,250.7,66,250
		v-3.9h-0.8v-0.9H66v-1.7l1.1-0.7v2.4h1.1v0.9h-1.1v3.9c0,0.3,0,0.5,0.1,0.6c0,0.1,0.1,0.2,0.2,0.2c0.1,0.1,0.2,0.1,0.4,0.1
		C67.9,251,68.1,250.9,68.3,250.9z"/>
	<path class="st6" d="M69.4,243.9v-1.3h1.1v1.3H69.4z M69.4,251.9v-6.7h1.1v6.7H69.4z"/>
	<path class="st6" d="M76.7,249.5l1.1,0.1c-0.1,0.8-0.4,1.4-0.9,1.8c-0.5,0.4-1.1,0.7-1.9,0.7c-0.9,0-1.7-0.3-2.2-0.9
		c-0.6-0.6-0.8-1.5-0.8-2.6c0-0.7,0.1-1.4,0.4-1.9s0.6-1,1.1-1.2c0.5-0.3,1-0.4,1.6-0.4c0.7,0,1.3,0.2,1.8,0.6s0.8,0.9,0.9,1.6
		l-1.1,0.2c-0.1-0.5-0.3-0.8-0.6-1c-0.3-0.2-0.6-0.3-1-0.3c-0.6,0-1,0.2-1.4,0.6c-0.4,0.4-0.5,1.1-0.5,2c0,0.9,0.2,1.6,0.5,2
		c0.3,0.4,0.8,0.6,1.4,0.6c0.4,0,0.8-0.1,1.1-0.4C76.4,250.5,76.6,250,76.7,249.5z"/>
	<path class="st6" d="M82.6,251.9v-9.3h1.3l4.9,7.3v-7.3h1.2v9.3h-1.3l-4.9-7.3v7.3H82.6z"/>
	<path class="st6" d="M96.4,249.8l1.2,0.1c-0.2,0.7-0.5,1.2-1,1.6s-1.1,0.6-1.9,0.6c-1,0-1.8-0.3-2.3-0.9c-0.6-0.6-0.9-1.5-0.9-2.6
		c0-1.1,0.3-2,0.9-2.6s1.3-0.9,2.3-0.9c0.9,0,1.6,0.3,2.2,0.9c0.6,0.6,0.9,1.5,0.9,2.6c0,0.1,0,0.2,0,0.3h-5c0,0.7,0.3,1.3,0.6,1.7
		c0.4,0.4,0.8,0.6,1.4,0.6c0.4,0,0.8-0.1,1.1-0.3C96,250.6,96.3,250.3,96.4,249.8z M92.7,247.9h3.8c-0.1-0.6-0.2-1-0.4-1.3
		c-0.4-0.4-0.8-0.7-1.4-0.7c-0.5,0-1,0.2-1.3,0.5C92.9,246.9,92.7,247.3,92.7,247.9z"/>
	<path class="st6" d="M101.5,250.9l0.2,1c-0.3,0.1-0.6,0.1-0.9,0.1c-0.4,0-0.7-0.1-1-0.2c-0.2-0.1-0.4-0.3-0.5-0.5s-0.1-0.7-0.1-1.3
		v-3.9h-0.8v-0.9h0.8v-1.7l1.1-0.7v2.4h1.1v0.9h-1.1v3.9c0,0.3,0,0.5,0.1,0.6c0,0.1,0.1,0.2,0.2,0.2c0.1,0.1,0.2,0.1,0.4,0.1
		C101.2,251,101.3,250.9,101.5,250.9z"/>
	<path class="st6" d="M103.9,251.9l-2.1-6.7h1.2l1.1,3.9l0.4,1.4c0-0.1,0.1-0.5,0.3-1.4l1.1-3.9h1.2l1,3.9l0.3,1.3l0.4-1.3l1.2-3.9
		h1.1l-2.1,6.7h-1.2l-1.1-4l-0.3-1.1l-1.4,5.2H103.9z"/>
	<path class="st6" d="M111.6,248.6c0-1.2,0.3-2.2,1-2.8c0.6-0.5,1.3-0.7,2.1-0.7c0.9,0,1.7,0.3,2.3,0.9s0.9,1.4,0.9,2.5
		c0,0.9-0.1,1.5-0.4,2c-0.3,0.5-0.6,0.9-1.1,1.2c-0.5,0.3-1,0.4-1.6,0.4c-0.9,0-1.7-0.3-2.3-0.9
		C111.9,250.6,111.6,249.7,111.6,248.6z M112.8,248.6c0,0.9,0.2,1.5,0.6,1.9s0.9,0.6,1.4,0.6c0.6,0,1-0.2,1.4-0.6s0.6-1.1,0.6-2
		c0-0.8-0.2-1.5-0.6-1.9c-0.4-0.4-0.8-0.6-1.4-0.6c-0.6,0-1,0.2-1.4,0.6S112.8,247.7,112.8,248.6z"/>
	<path class="st6" d="M119.3,251.9v-6.7h1v1c0.3-0.5,0.5-0.8,0.7-0.9c0.2-0.2,0.5-0.2,0.7-0.2c0.4,0,0.8,0.1,1.2,0.4l-0.4,1.1
		c-0.3-0.2-0.6-0.2-0.8-0.2c-0.2,0-0.5,0.1-0.7,0.2s-0.3,0.4-0.4,0.6c-0.1,0.4-0.2,0.9-0.2,1.3v3.5H119.3z"/>
	<path class="st6" d="M123.6,251.9v-9.3h1.1v5.3l2.7-2.7h1.5l-2.6,2.5l2.8,4.2h-1.4l-2.2-3.4l-0.8,0.8v2.7H123.6z"/>
</g>
<rect x="142" y="194.5" class="st4" width="10" height="28.2"/>
<g class="st5">
	<path class="st6" d="M89,213.2v-9.3h1.2v8.2h4.6v1.1H89z"/>
	<path class="st6" d="M95.7,209.8c0-1.2,0.3-2.2,1-2.8c0.6-0.5,1.3-0.7,2.1-0.7c0.9,0,1.7,0.3,2.3,0.9s0.9,1.4,0.9,2.5
		c0,0.9-0.1,1.5-0.4,2c-0.3,0.5-0.6,0.9-1.1,1.2c-0.5,0.3-1,0.4-1.6,0.4c-0.9,0-1.7-0.3-2.3-0.9C96,211.8,95.7,210.9,95.7,209.8z
		 M96.9,209.8c0,0.9,0.2,1.5,0.6,1.9s0.9,0.6,1.4,0.6c0.6,0,1-0.2,1.4-0.6s0.6-1.1,0.6-2c0-0.8-0.2-1.5-0.6-1.9
		c-0.4-0.4-0.8-0.6-1.4-0.6c-0.6,0-1,0.2-1.4,0.6S96.9,208.9,96.9,209.8z"/>
	<path class="st6" d="M103.2,213.7l1.1,0.2c0,0.3,0.2,0.6,0.4,0.7c0.3,0.2,0.7,0.3,1.2,0.3c0.5,0,0.9-0.1,1.2-0.3s0.5-0.5,0.6-0.9
		c0.1-0.2,0.1-0.7,0.1-1.5c-0.5,0.6-1.1,0.9-1.9,0.9c-0.9,0-1.6-0.3-2.2-1s-0.8-1.5-0.8-2.4c0-0.6,0.1-1.2,0.3-1.8s0.6-1,1-1.3
		c0.4-0.3,1-0.4,1.6-0.4c0.8,0,1.5,0.3,2,1v-0.8h1.1v5.8c0,1-0.1,1.8-0.3,2.2c-0.2,0.4-0.6,0.8-1,1c-0.5,0.3-1,0.4-1.7,0.4
		c-0.8,0-1.5-0.2-1.9-0.5C103.4,215,103.1,214.5,103.2,213.7z M104.1,209.7c0,0.9,0.2,1.5,0.5,1.9s0.8,0.6,1.3,0.6
		c0.5,0,1-0.2,1.3-0.6s0.5-1,0.5-1.9c0-0.8-0.2-1.4-0.5-1.9c-0.4-0.4-0.8-0.6-1.3-0.6c-0.5,0-0.9,0.2-1.3,0.6
		C104.3,208.3,104.1,208.9,104.1,209.7z"/>
	<path class="st6" d="M110.6,205.2v-1.3h1.1v1.3H110.6z M110.6,213.2v-6.7h1.1v6.7H110.6z"/>
	<path class="st6" d="M117.9,210.7l1.1,0.1c-0.1,0.8-0.4,1.4-0.9,1.8c-0.5,0.4-1.1,0.7-1.9,0.7c-0.9,0-1.7-0.3-2.2-0.9
		c-0.6-0.6-0.8-1.5-0.8-2.6c0-0.7,0.1-1.4,0.4-1.9s0.6-1,1.1-1.2c0.5-0.3,1-0.4,1.6-0.4c0.7,0,1.3,0.2,1.8,0.6s0.8,0.9,0.9,1.6
		l-1.1,0.2c-0.1-0.5-0.3-0.8-0.6-1c-0.3-0.2-0.6-0.3-1-0.3c-0.6,0-1,0.2-1.4,0.6c-0.4,0.4-0.5,1.1-0.5,2c0,0.9,0.2,1.6,0.5,2
		c0.3,0.4,0.8,0.6,1.4,0.6c0.4,0,0.8-0.1,1.1-0.4C117.6,211.7,117.8,211.3,117.9,210.7z"/>
	<path class="st6" d="M124.4,212.3c-0.4,0.4-0.8,0.6-1.2,0.8c-0.4,0.1-0.8,0.2-1.3,0.2c-0.7,0-1.3-0.2-1.7-0.5
		c-0.4-0.4-0.6-0.8-0.6-1.4c0-0.3,0.1-0.6,0.2-0.9c0.1-0.3,0.3-0.5,0.6-0.7c0.2-0.2,0.5-0.3,0.8-0.4c0.2-0.1,0.6-0.1,1-0.2
		c0.9-0.1,1.6-0.2,2-0.4c0-0.2,0-0.3,0-0.3c0-0.5-0.1-0.8-0.3-1c-0.3-0.3-0.7-0.4-1.3-0.4c-0.5,0-0.9,0.1-1.2,0.3
		c-0.3,0.2-0.4,0.5-0.6,1l-1.1-0.2c0.1-0.5,0.3-0.9,0.5-1.2s0.6-0.5,1-0.7c0.4-0.2,1-0.2,1.5-0.2c0.6,0,1,0.1,1.4,0.2
		s0.6,0.3,0.8,0.5s0.3,0.5,0.4,0.8c0,0.2,0.1,0.5,0.1,1.1v1.5c0,1.1,0,1.7,0.1,2c0,0.3,0.1,0.6,0.3,0.8h-1.2
		C124.5,212.9,124.4,212.7,124.4,212.3z M124.3,209.8c-0.4,0.2-1,0.3-1.9,0.4c-0.5,0.1-0.8,0.1-1,0.2c-0.2,0.1-0.3,0.2-0.5,0.4
		s-0.2,0.3-0.2,0.5c0,0.3,0.1,0.6,0.3,0.8c0.2,0.2,0.6,0.3,1,0.3c0.4,0,0.8-0.1,1.2-0.3s0.6-0.5,0.8-0.8c0.1-0.3,0.2-0.6,0.2-1.1
		V209.8z"/>
	<path class="st6" d="M127.2,213.2v-9.3h1.1v9.3H127.2z"/>
</g>
<rect x="142" y="272" class="st4" width="10" height="40.8"/>
<g class="st5">
	<path class="st6" d="M97,297v-9.3h4.1c0.8,0,1.5,0.1,1.9,0.3s0.8,0.5,1,0.9c0.3,0.4,0.4,0.9,0.4,1.4c0,0.7-0.2,1.2-0.6,1.7
		c-0.4,0.5-1.1,0.7-2,0.9c0.3,0.2,0.6,0.3,0.7,0.5c0.4,0.3,0.7,0.7,1,1.2l1.6,2.5h-1.5l-1.2-1.9c-0.4-0.6-0.7-1-0.9-1.3
		c-0.2-0.3-0.4-0.5-0.6-0.6c-0.2-0.1-0.4-0.2-0.6-0.2c-0.1,0-0.4,0-0.7,0h-1.4v4.1H97z M98.3,291.8h2.6c0.6,0,1-0.1,1.3-0.2
		s0.6-0.3,0.7-0.6s0.2-0.5,0.2-0.8c0-0.4-0.2-0.8-0.5-1.1c-0.3-0.3-0.8-0.4-1.5-0.4h-2.9V291.8z"/>
	<path class="st6" d="M110.7,297v-1c-0.5,0.8-1.2,1.1-2.1,1.1c-0.4,0-0.8-0.1-1.1-0.2c-0.3-0.2-0.6-0.3-0.8-0.6
		c-0.2-0.2-0.3-0.5-0.4-0.8c0-0.2-0.1-0.6-0.1-1.1v-4.2h1.1v3.7c0,0.6,0,1,0.1,1.2c0.1,0.3,0.2,0.5,0.5,0.7c0.2,0.2,0.5,0.3,0.9,0.3
		s0.7-0.1,1-0.3s0.5-0.4,0.6-0.7c0.1-0.3,0.2-0.7,0.2-1.3v-3.6h1.1v6.7H110.7z"/>
	<path class="st6" d="M113.5,297v-9.3h1.1v9.3H113.5z"/>
	<path class="st6" d="M121,294.8l1.2,0.1c-0.2,0.7-0.5,1.2-1,1.6s-1.1,0.6-1.9,0.6c-1,0-1.8-0.3-2.3-0.9c-0.6-0.6-0.9-1.5-0.9-2.6
		c0-1.1,0.3-2,0.9-2.6s1.3-0.9,2.3-0.9c0.9,0,1.6,0.3,2.2,0.9c0.6,0.6,0.9,1.5,0.9,2.6c0,0.1,0,0.2,0,0.3h-5c0,0.7,0.3,1.3,0.6,1.7
		c0.4,0.4,0.8,0.6,1.4,0.6c0.4,0,0.8-0.1,1.1-0.3S120.8,295.3,121,294.8z M117.2,293h3.8c-0.1-0.6-0.2-1-0.4-1.3
		c-0.4-0.4-0.8-0.7-1.4-0.7c-0.5,0-1,0.2-1.3,0.5C117.5,291.9,117.3,292.4,117.2,293z"/>
	<path class="st6" d="M123.1,295l1.1-0.2c0.1,0.5,0.2,0.8,0.5,1c0.3,0.2,0.7,0.4,1.2,0.4c0.5,0,0.9-0.1,1.2-0.3s0.4-0.5,0.4-0.8
		c0-0.3-0.1-0.5-0.3-0.6c-0.2-0.1-0.5-0.2-1.2-0.4c-0.8-0.2-1.4-0.4-1.7-0.5c-0.3-0.2-0.6-0.4-0.7-0.6c-0.2-0.3-0.3-0.6-0.3-0.9
		c0-0.3,0.1-0.6,0.2-0.8c0.1-0.3,0.3-0.5,0.6-0.6c0.2-0.1,0.4-0.2,0.7-0.3c0.3-0.1,0.6-0.1,1-0.1c0.5,0,1,0.1,1.4,0.2
		c0.4,0.2,0.7,0.4,0.9,0.6c0.2,0.3,0.3,0.6,0.4,1l-1.1,0.2c-0.1-0.3-0.2-0.6-0.4-0.8c-0.2-0.2-0.6-0.3-1-0.3c-0.5,0-0.9,0.1-1.1,0.3
		c-0.2,0.2-0.3,0.4-0.3,0.6c0,0.1,0,0.3,0.1,0.4c0.1,0.1,0.2,0.2,0.4,0.3c0.1,0,0.5,0.1,1,0.3c0.8,0.2,1.4,0.4,1.7,0.5
		c0.3,0.1,0.6,0.3,0.8,0.6s0.3,0.6,0.3,1c0,0.4-0.1,0.7-0.3,1.1c-0.2,0.3-0.5,0.6-1,0.8c-0.4,0.2-0.9,0.3-1.4,0.3
		c-0.9,0-1.5-0.2-2-0.5C123.6,296.2,123.3,295.7,123.1,295z"/>
</g>
<rect x="142" y="328.1" class="st4" width="10" height="18.8"/>
<g class="st5">
	<path class="st6" d="M86.3,342v-9.3h6.3v1.1h-5v2.9h4.4v1.1h-4.4v4.2H86.3z"/>
	<path class="st6" d="M94,342v-6.7h1v1c0.3-0.5,0.5-0.8,0.7-0.9c0.2-0.2,0.5-0.2,0.7-0.2c0.4,0,0.8,0.1,1.2,0.4l-0.4,1.1
		c-0.3-0.2-0.6-0.2-0.8-0.2c-0.2,0-0.5,0.1-0.7,0.2s-0.3,0.4-0.4,0.6c-0.1,0.4-0.2,0.9-0.2,1.3v3.5H94z"/>
	<path class="st6" d="M102.7,341.2c-0.4,0.4-0.8,0.6-1.2,0.8c-0.4,0.1-0.8,0.2-1.3,0.2c-0.7,0-1.3-0.2-1.7-0.5
		c-0.4-0.4-0.6-0.8-0.6-1.4c0-0.3,0.1-0.6,0.2-0.9c0.1-0.3,0.3-0.5,0.6-0.7c0.2-0.2,0.5-0.3,0.8-0.4c0.2-0.1,0.6-0.1,1-0.2
		c0.9-0.1,1.6-0.2,2-0.4c0-0.2,0-0.3,0-0.3c0-0.5-0.1-0.8-0.3-1c-0.3-0.3-0.7-0.4-1.3-0.4c-0.5,0-0.9,0.1-1.2,0.3
		c-0.3,0.2-0.4,0.5-0.6,1l-1.1-0.2c0.1-0.5,0.3-0.9,0.5-1.2s0.6-0.5,1-0.7c0.4-0.2,1-0.2,1.5-0.2c0.6,0,1,0.1,1.4,0.2
		s0.6,0.3,0.8,0.5s0.3,0.5,0.4,0.8c0,0.2,0.1,0.5,0.1,1.1v1.5c0,1.1,0,1.7,0.1,2c0,0.3,0.1,0.6,0.3,0.8h-1.2
		C102.8,341.8,102.8,341.5,102.7,341.2z M102.6,338.6c-0.4,0.2-1,0.3-1.9,0.4c-0.5,0.1-0.8,0.1-1,0.2c-0.2,0.1-0.3,0.2-0.5,0.4
		s-0.2,0.3-0.2,0.5c0,0.3,0.1,0.6,0.3,0.8c0.2,0.2,0.6,0.3,1,0.3c0.4,0,0.8-0.1,1.2-0.3s0.6-0.5,0.8-0.8c0.1-0.3,0.2-0.6,0.2-1.1
		V338.6z"/>
	<path class="st6" d="M105.5,342v-6.7h1v0.9c0.2-0.3,0.5-0.6,0.8-0.8s0.8-0.3,1.2-0.3c0.5,0,0.9,0.1,1.2,0.3
		c0.3,0.2,0.5,0.5,0.7,0.9c0.5-0.8,1.2-1.2,2.1-1.2c0.7,0,1.2,0.2,1.5,0.6s0.5,0.9,0.5,1.7v4.6h-1.1v-4.2c0-0.5,0-0.8-0.1-1
		c-0.1-0.2-0.2-0.4-0.4-0.5c-0.2-0.1-0.4-0.2-0.7-0.2c-0.5,0-0.9,0.2-1.2,0.5s-0.5,0.8-0.5,1.5v3.9h-1.1v-4.4c0-0.5-0.1-0.9-0.3-1.1
		s-0.5-0.4-0.9-0.4c-0.3,0-0.6,0.1-0.9,0.3c-0.3,0.2-0.5,0.4-0.6,0.7c-0.1,0.3-0.2,0.8-0.2,1.4v3.5H105.5z"/>
	<path class="st6" d="M121,339.9l1.2,0.1c-0.2,0.7-0.5,1.2-1,1.6s-1.1,0.6-1.9,0.6c-1,0-1.8-0.3-2.3-0.9c-0.6-0.6-0.9-1.5-0.9-2.6
		c0-1.1,0.3-2,0.9-2.6s1.3-0.9,2.3-0.9c0.9,0,1.6,0.3,2.2,0.9c0.6,0.6,0.9,1.5,0.9,2.6c0,0.1,0,0.2,0,0.3h-5c0,0.7,0.3,1.3,0.6,1.7
		c0.4,0.4,0.8,0.6,1.4,0.6c0.4,0,0.8-0.1,1.1-0.3S120.8,340.3,121,339.9z M117.2,338h3.8c-0.1-0.6-0.2-1-0.4-1.3
		c-0.4-0.4-0.8-0.7-1.4-0.7c-0.5,0-1,0.2-1.3,0.5C117.5,336.9,117.3,337.4,117.2,338z"/>
	<path class="st6" d="M123.1,340l1.1-0.2c0.1,0.5,0.2,0.8,0.5,1c0.3,0.2,0.7,0.4,1.2,0.4c0.5,0,0.9-0.1,1.2-0.3s0.4-0.5,0.4-0.8
		c0-0.3-0.1-0.5-0.3-0.6c-0.2-0.1-0.5-0.2-1.2-0.4c-0.8-0.2-1.4-0.4-1.7-0.5c-0.3-0.2-0.6-0.4-0.7-0.6c-0.2-0.3-0.3-0.6-0.3-0.9
		c0-0.3,0.1-0.6,0.2-0.8c0.1-0.3,0.3-0.5,0.6-0.6c0.2-0.1,0.4-0.2,0.7-0.3c0.3-0.1,0.6-0.1,1-0.1c0.5,0,1,0.1,1.4,0.2
		c0.4,0.2,0.7,0.4,0.9,0.6c0.2,0.3,0.3,0.6,0.4,1l-1.1,0.2c-0.1-0.3-0.2-0.6-0.4-0.8c-0.2-0.2-0.6-0.3-1-0.3c-0.5,0-0.9,0.1-1.1,0.3
		c-0.2,0.2-0.3,0.4-0.3,0.6c0,0.1,0,0.3,0.1,0.4c0.1,0.1,0.2,0.2,0.4,0.3c0.1,0,0.5,0.1,1,0.3c0.8,0.2,1.4,0.4,1.7,0.5
		c0.3,0.1,0.6,0.3,0.8,0.6s0.3,0.6,0.3,1c0,0.4-0.1,0.7-0.3,1.1c-0.2,0.3-0.5,0.6-1,0.8c-0.4,0.2-0.9,0.3-1.4,0.3
		c-0.9,0-1.5-0.2-2-0.5C123.6,341.3,123.3,340.7,123.1,340z"/>
</g>
<rect x="572" y="151.5" class="st4" width="10" height="1.6"/>
<g class="st5">
	<path class="st6" d="M593.5,156.8v-9.3h1.3l4.9,7.3v-7.3h1.2v9.3h-1.3l-4.9-7.3v7.3H593.5z"/>
	<path class="st6" d="M602.9,156.8v-9.3h6.7v1.1h-5.5v2.8h5.1v1.1h-5.1v3.2h5.7v1.1H602.9z"/>
</g>
<rect x="572" y="272.5" class="st4" width="10" height="8.4"/>
<g class="st5">
	<path class="st6" d="M600.2,278l1.2,0.3c-0.3,1-0.7,1.8-1.4,2.3c-0.7,0.5-1.5,0.8-2.5,0.8c-1,0-1.8-0.2-2.4-0.6
		c-0.6-0.4-1.1-1-1.4-1.8c-0.3-0.8-0.5-1.6-0.5-2.5c0-1,0.2-1.8,0.6-2.5c0.4-0.7,0.9-1.3,1.6-1.6c0.7-0.4,1.4-0.6,2.3-0.6
		c0.9,0,1.7,0.2,2.3,0.7c0.6,0.5,1.1,1.1,1.3,2l-1.2,0.3c-0.2-0.7-0.5-1.2-0.9-1.5c-0.4-0.3-0.9-0.5-1.5-0.5c-0.7,0-1.3,0.2-1.8,0.5
		s-0.8,0.8-1,1.4c-0.2,0.6-0.3,1.2-0.3,1.8c0,0.8,0.1,1.5,0.3,2.1c0.2,0.6,0.6,1,1.1,1.3c0.5,0.3,1,0.4,1.6,0.4
		c0.7,0,1.3-0.2,1.8-0.6C599.7,279.4,600,278.8,600.2,278z"/>
	<path class="st6" d="M602.9,281.3V272h1.3l4.9,7.3V272h1.2v9.3H609l-4.9-7.3v7.3H602.9z"/>
	<path class="st6" d="M612.3,281.3V272h1.3l4.9,7.3V272h1.2v9.3h-1.3l-4.9-7.3v7.3H612.3z"/>
</g>
<rect x="572" y="323.4" class="st4" width="10" height="2.6"/>
<g class="st5">
	<path class="st6" d="M592.5,329.3l3.6-9.3h1.3l3.8,9.3h-1.4l-1.1-2.8h-3.9l-1,2.8H592.5z M595.2,325.5h3.2l-1-2.6
		c-0.3-0.8-0.5-1.4-0.7-1.9c-0.1,0.6-0.3,1.2-0.5,1.8L595.2,325.5z"/>
	<path class="st6" d="M604.6,328.3l0.2,1c-0.3,0.1-0.6,0.1-0.9,0.1c-0.4,0-0.7-0.1-1-0.2c-0.2-0.1-0.4-0.3-0.5-0.5
		c-0.1-0.2-0.1-0.7-0.1-1.3v-3.9h-0.8v-0.9h0.8v-1.7l1.1-0.7v2.4h1.1v0.9h-1.1v3.9c0,0.3,0,0.5,0.1,0.6c0,0.1,0.1,0.2,0.2,0.2
		c0.1,0.1,0.2,0.1,0.4,0.1C604.2,328.3,604.3,328.3,604.6,328.3z"/>
	<path class="st6" d="M608.2,328.3l0.2,1c-0.3,0.1-0.6,0.1-0.9,0.1c-0.4,0-0.7-0.1-1-0.2c-0.2-0.1-0.4-0.3-0.5-0.5s-0.1-0.7-0.1-1.3
		v-3.9H605v-0.9h0.8v-1.7l1.1-0.7v2.4h1.1v0.9H607v3.9c0,0.3,0,0.5,0.1,0.6s0.1,0.2,0.2,0.2c0.1,0.1,0.2,0.1,0.4,0.1
		C607.8,328.3,608,328.3,608.2,328.3z"/>
	<path class="st6" d="M609.3,329.3v-6.7h1v1c0.5-0.7,1.2-1.1,2.1-1.1c0.4,0,0.8,0.1,1.1,0.2c0.3,0.1,0.6,0.3,0.8,0.6
		c0.2,0.2,0.3,0.5,0.4,0.8c0,0.2,0.1,0.6,0.1,1.1v4.1h-1.1v-4.1c0-0.5,0-0.8-0.1-1s-0.2-0.4-0.5-0.6c-0.2-0.1-0.5-0.2-0.8-0.2
		c-0.5,0-0.9,0.2-1.3,0.5c-0.4,0.3-0.5,0.9-0.5,1.8v3.7H609.3z"/>
</g>
<rect x="572" y="118.4" class="st4" width="10" height="1"/>
<g class="st5">
	<path class="st6" d="M593.5,123.4v-9.3h3.2c0.7,0,1.3,0,1.7,0.1c0.5,0.1,1,0.3,1.4,0.7c0.5,0.4,0.9,0.9,1.1,1.6s0.4,1.4,0.4,2.2
		c0,0.7-0.1,1.3-0.2,1.9c-0.2,0.5-0.4,1-0.6,1.4c-0.3,0.4-0.5,0.6-0.8,0.8s-0.7,0.4-1.1,0.5c-0.4,0.1-0.9,0.2-1.5,0.2H593.5z
		 M594.7,122.4h2c0.6,0,1.1-0.1,1.4-0.2c0.3-0.1,0.6-0.3,0.8-0.5c0.3-0.3,0.5-0.7,0.7-1.2s0.2-1.1,0.2-1.8c0-1-0.2-1.7-0.5-2.2
		c-0.3-0.5-0.7-0.9-1.2-1.1c-0.3-0.1-0.9-0.2-1.6-0.2h-2V122.4z"/>
	<path class="st6" d="M602.9,123.4v-9.3h3.5c0.7,0,1.3,0.1,1.7,0.3c0.4,0.2,0.8,0.5,1,0.9c0.2,0.4,0.4,0.8,0.4,1.2
		c0,0.4-0.1,0.8-0.3,1.1s-0.5,0.6-1,0.9c0.6,0.2,1,0.4,1.3,0.8c0.3,0.4,0.5,0.9,0.5,1.4c0,0.4-0.1,0.8-0.3,1.2
		c-0.2,0.4-0.4,0.7-0.7,0.9c-0.3,0.2-0.6,0.4-1,0.5c-0.4,0.1-0.9,0.2-1.5,0.2H602.9z M604.1,118.1h2c0.5,0,0.9,0,1.2-0.1
		c0.3-0.1,0.5-0.2,0.7-0.5c0.2-0.2,0.2-0.5,0.2-0.8c0-0.3-0.1-0.6-0.2-0.8c-0.1-0.2-0.4-0.4-0.6-0.5c-0.3-0.1-0.7-0.1-1.4-0.1h-1.9
		V118.1z M604.1,122.4h2.3c0.4,0,0.7,0,0.8,0c0.3-0.1,0.5-0.1,0.7-0.3s0.3-0.3,0.5-0.5s0.2-0.5,0.2-0.8c0-0.3-0.1-0.6-0.3-0.9
		s-0.4-0.4-0.7-0.5c-0.3-0.1-0.8-0.2-1.4-0.2h-2.2V122.4z"/>
	<path class="st6" d="M611.6,123.4v-9.3h1.3l4.9,7.3v-7.3h1.2v9.3h-1.3l-4.9-7.3v7.3H611.6z"/>
</g>
<rect x="572" y="221.7" class="st4" width="10" height="3.1"/>
<g class="st5">
	<path class="st6" d="M593.5,227.8v-9.3h4.1c0.8,0,1.5,0.1,1.9,0.3s0.8,0.5,1,0.9c0.3,0.4,0.4,0.9,0.4,1.4c0,0.7-0.2,1.2-0.6,1.7
		c-0.4,0.5-1.1,0.7-2,0.9c0.3,0.2,0.6,0.3,0.7,0.5c0.4,0.3,0.7,0.7,1,1.2l1.6,2.5h-1.5l-1.2-1.9c-0.4-0.6-0.7-1-0.9-1.3
		c-0.2-0.3-0.4-0.5-0.6-0.6c-0.2-0.1-0.4-0.2-0.6-0.2c-0.1,0-0.4,0-0.7,0h-1.4v4.1H593.5z M594.8,222.6h2.6c0.6,0,1-0.1,1.3-0.2
		c0.3-0.1,0.6-0.3,0.7-0.6c0.2-0.3,0.2-0.5,0.2-0.8c0-0.4-0.2-0.8-0.5-1.1c-0.3-0.3-0.8-0.4-1.5-0.4h-2.9V222.6z"/>
	<path class="st6" d="M607.2,225.3l1.1,0.1c-0.1,0.8-0.4,1.4-0.9,1.8c-0.5,0.4-1.1,0.7-1.9,0.7c-0.9,0-1.7-0.3-2.2-0.9
		c-0.6-0.6-0.8-1.5-0.8-2.6c0-0.7,0.1-1.4,0.4-1.9c0.2-0.5,0.6-1,1.1-1.2c0.5-0.3,1-0.4,1.6-0.4c0.7,0,1.3,0.2,1.8,0.6
		c0.5,0.4,0.8,0.9,0.9,1.6l-1.1,0.2c-0.1-0.5-0.3-0.8-0.6-1c-0.3-0.2-0.6-0.3-1-0.3c-0.6,0-1,0.2-1.4,0.6c-0.4,0.4-0.5,1.1-0.5,2
		c0,0.9,0.2,1.6,0.5,2c0.3,0.4,0.8,0.6,1.4,0.6c0.4,0,0.8-0.1,1.1-0.4C606.9,226.3,607.1,225.9,607.2,225.3z"/>
	<path class="st6" d="M609.4,227.8v-9.3h1.3l4.9,7.3v-7.3h1.2v9.3h-1.3l-4.9-7.3v7.3H609.4z"/>
	<path class="st6" d="M618.8,227.8v-9.3h1.3l4.9,7.3v-7.3h1.2v9.3h-1.3l-4.9-7.3v7.3H618.8z"/>
</g>
<rect x="572" y="240.1" class="st4" width="10" height="17.3"/>
<g class="st5">
	<path class="st6" d="M593.1,250.2l1.2-0.1c0.1,0.5,0.2,0.8,0.4,1.1c0.2,0.3,0.5,0.5,0.9,0.7c0.4,0.2,0.9,0.3,1.4,0.3
		c0.5,0,0.9-0.1,1.2-0.2s0.6-0.3,0.8-0.6s0.3-0.5,0.3-0.8c0-0.3-0.1-0.5-0.3-0.8s-0.4-0.4-0.8-0.5c-0.2-0.1-0.8-0.2-1.7-0.5
		c-0.9-0.2-1.5-0.4-1.8-0.6c-0.4-0.2-0.8-0.5-1-0.9s-0.3-0.7-0.3-1.2c0-0.5,0.1-0.9,0.4-1.3c0.3-0.4,0.7-0.7,1.2-0.9
		c0.5-0.2,1.1-0.3,1.7-0.3c0.7,0,1.3,0.1,1.8,0.3c0.5,0.2,0.9,0.5,1.2,1c0.3,0.4,0.4,0.9,0.5,1.5l-1.2,0.1c-0.1-0.6-0.3-1-0.6-1.3
		c-0.4-0.3-0.9-0.5-1.6-0.5c-0.7,0-1.3,0.1-1.6,0.4c-0.3,0.3-0.5,0.6-0.5,1c0,0.3,0.1,0.6,0.4,0.8c0.2,0.2,0.9,0.4,1.9,0.7
		s1.7,0.4,2.1,0.6c0.5,0.2,0.9,0.6,1.2,0.9s0.4,0.8,0.4,1.3c0,0.5-0.1,1-0.4,1.4c-0.3,0.4-0.7,0.8-1.2,1c-0.5,0.2-1.1,0.4-1.8,0.4
		c-0.8,0-1.5-0.1-2.1-0.4c-0.6-0.2-1-0.6-1.3-1.1C593.3,251.4,593.1,250.9,593.1,250.2z"/>
	<path class="st6" d="M604.8,253.2l-3.6-9.3h1.3l2.4,6.8c0.2,0.5,0.4,1,0.5,1.5c0.1-0.5,0.3-1,0.5-1.5l2.5-6.8h1.3l-3.6,9.3H604.8z"
		/>
	<path class="st6" d="M610.8,253.2v-9.3h1.9l2.2,6.6c0.2,0.6,0.4,1.1,0.4,1.4c0.1-0.3,0.3-0.8,0.5-1.5l2.2-6.5h1.7v9.3h-1.2v-7.8
		l-2.7,7.8h-1.1l-2.7-7.9v7.9H610.8z"/>
</g>
<rect x="572" y="296.2" class="st4" width="10" height="12"/>
<g class="st5">
	<path class="st6" d="M593.5,306.7v-9.3h1.3l4.9,7.3v-7.3h1.2v9.3h-1.3l-4.9-7.3v7.3H593.5z"/>
	<path class="st6" d="M602.9,306.7v-9.3h1.3l4.9,7.3v-7.3h1.2v9.3H609l-4.9-7.3v7.3H602.9z"/>
</g>
<rect x="572" y="416.9" class="st4" width="10" height="3.1"/>
<g class="st5">
	<path class="st6" d="M593.5,423v-9.3h1.2v8.2h4.6v1.1H593.5z"/>
	<path class="st6" d="M602.1,423v-8.2h-3.1v-1.1h7.4v1.1h-3.1v8.2H602.1z"/>
	<path class="st6" d="M607.7,423v-9.3h1.3l4.9,7.3v-7.3h1.2v9.3h-1.3l-4.9-7.3v7.3H607.7z"/>
</g>
<rect x="572" y="134.7" class="st4" width="10" height="1.6"/>
<g class="st5">
	<path class="st6" d="M593.5,140v-9.3h4.1c0.8,0,1.5,0.1,1.9,0.3s0.8,0.5,1,0.9c0.3,0.4,0.4,0.9,0.4,1.4c0,0.7-0.2,1.2-0.6,1.7
		c-0.4,0.5-1.1,0.7-2,0.9c0.3,0.2,0.6,0.3,0.7,0.5c0.4,0.3,0.7,0.7,1,1.2l1.6,2.5h-1.5l-1.2-1.9c-0.4-0.6-0.7-1-0.9-1.3
		c-0.2-0.3-0.4-0.5-0.6-0.6c-0.2-0.1-0.4-0.2-0.6-0.2c-0.1,0-0.4,0-0.7,0h-1.4v4.1H593.5z M594.8,134.8h2.6c0.6,0,1-0.1,1.3-0.2
		c0.3-0.1,0.6-0.3,0.7-0.6c0.2-0.3,0.2-0.5,0.2-0.8c0-0.4-0.2-0.8-0.5-1.1c-0.3-0.3-0.8-0.4-1.5-0.4h-2.9V134.8z"/>
	<path class="st6" d="M602.9,140v-9.3h1.3l4.9,7.3v-7.3h1.2v9.3H609l-4.9-7.3v7.3H602.9z"/>
	<path class="st6" d="M612.2,140v-9.3h1.2v4.6l4.6-4.6h1.7l-3.9,3.8l4.1,5.5h-1.6l-3.3-4.7l-1.5,1.5v3.2H612.2z"/>
	<path class="st6" d="M621,140v-9.3h1.3l4.9,7.3v-7.3h1.2v9.3H627l-4.9-7.3v7.3H621z"/>
</g>
<rect x="572" y="341.3" class="st4" width="10" height="2.6"/>
<g class="st5">
	<path class="st6" d="M593.5,347.1v-9.3h4.1c0.8,0,1.5,0.1,1.9,0.3s0.8,0.5,1,0.9c0.3,0.4,0.4,0.9,0.4,1.4c0,0.7-0.2,1.2-0.6,1.7
		c-0.4,0.5-1.1,0.7-2,0.9c0.3,0.2,0.6,0.3,0.7,0.5c0.4,0.3,0.7,0.7,1,1.2l1.6,2.5h-1.5l-1.2-1.9c-0.4-0.6-0.7-1-0.9-1.3
		c-0.2-0.3-0.4-0.5-0.6-0.6c-0.2-0.1-0.4-0.2-0.6-0.2c-0.1,0-0.4,0-0.7,0h-1.4v4.1H593.5z M594.8,341.9h2.6c0.6,0,1-0.1,1.3-0.2
		s0.6-0.3,0.7-0.6s0.2-0.5,0.2-0.8c0-0.4-0.2-0.8-0.5-1.1c-0.3-0.3-0.8-0.4-1.5-0.4h-2.9V341.9z"/>
	<path class="st6" d="M602.9,347.1v-9.3h1.2v8.2h4.6v1.1H602.9z"/>
</g>
<rect x="572" y="100" class="st4" width="10" height="3.1"/>
<g class="st5">
	<path class="st6" d="M595.9,106.1v-8.2h-3.1v-1.1h7.4v1.1h-3.1v8.2H595.9z"/>
	<path class="st6" d="M600.8,106.1v-6.7h1v1c0.3-0.5,0.5-0.8,0.7-0.9c0.2-0.2,0.5-0.2,0.7-0.2c0.4,0,0.8,0.1,1.2,0.4l-0.4,1.1
		c-0.3-0.2-0.6-0.2-0.8-0.2c-0.2,0-0.5,0.1-0.7,0.2c-0.2,0.2-0.3,0.4-0.4,0.6c-0.1,0.4-0.2,0.9-0.2,1.3v3.5H600.8z"/>
	<path class="st6" d="M609.6,105.3c-0.4,0.4-0.8,0.6-1.2,0.8c-0.4,0.1-0.8,0.2-1.3,0.2c-0.7,0-1.3-0.2-1.7-0.5
		c-0.4-0.4-0.6-0.8-0.6-1.4c0-0.3,0.1-0.6,0.2-0.9c0.2-0.3,0.3-0.5,0.6-0.7c0.2-0.2,0.5-0.3,0.8-0.4c0.2-0.1,0.6-0.1,1-0.2
		c0.9-0.1,1.6-0.2,2-0.4c0-0.2,0-0.3,0-0.3c0-0.5-0.1-0.8-0.3-1c-0.3-0.3-0.7-0.4-1.3-0.4c-0.5,0-0.9,0.1-1.2,0.3
		c-0.3,0.2-0.4,0.5-0.6,1l-1.1-0.2c0.1-0.5,0.3-0.9,0.5-1.2c0.2-0.3,0.6-0.5,1-0.7c0.4-0.2,1-0.2,1.5-0.2c0.6,0,1,0.1,1.4,0.2
		s0.6,0.3,0.8,0.5c0.2,0.2,0.3,0.5,0.4,0.8c0,0.2,0.1,0.5,0.1,1.1v1.5c0,1.1,0,1.7,0.1,2c0,0.3,0.1,0.6,0.3,0.8h-1.2
		C609.7,105.9,609.6,105.6,609.6,105.3z M609.5,102.7c-0.4,0.2-1,0.3-1.9,0.4c-0.5,0.1-0.8,0.1-1,0.2c-0.2,0.1-0.3,0.2-0.5,0.4
		s-0.2,0.3-0.2,0.5c0,0.3,0.1,0.6,0.3,0.8s0.6,0.3,1,0.3c0.4,0,0.8-0.1,1.2-0.3s0.6-0.5,0.8-0.8c0.1-0.3,0.2-0.6,0.2-1.1V102.7z"/>
	<path class="st6" d="M612.4,106.1v-6.7h1v1c0.5-0.7,1.2-1.1,2.1-1.1c0.4,0,0.8,0.1,1.1,0.2c0.3,0.1,0.6,0.3,0.8,0.6
		c0.2,0.2,0.3,0.5,0.4,0.8c0,0.2,0.1,0.6,0.1,1.1v4.1h-1.1V102c0-0.5,0-0.8-0.1-1c-0.1-0.2-0.2-0.4-0.5-0.6s-0.5-0.2-0.8-0.2
		c-0.5,0-0.9,0.2-1.3,0.5c-0.4,0.3-0.5,0.9-0.5,1.8v3.7H612.4z"/>
	<path class="st6" d="M619.2,104.1l1.1-0.2c0.1,0.5,0.2,0.8,0.5,1c0.3,0.2,0.7,0.4,1.2,0.4c0.5,0,0.9-0.1,1.2-0.3s0.4-0.5,0.4-0.8
		c0-0.3-0.1-0.5-0.3-0.6c-0.2-0.1-0.5-0.2-1.2-0.4c-0.8-0.2-1.4-0.4-1.7-0.5c-0.3-0.2-0.6-0.4-0.7-0.6c-0.2-0.3-0.2-0.6-0.2-0.9
		c0-0.3,0.1-0.6,0.2-0.8c0.1-0.3,0.3-0.5,0.6-0.6c0.2-0.1,0.4-0.2,0.7-0.3c0.3-0.1,0.6-0.1,1-0.1c0.5,0,1,0.1,1.4,0.2
		s0.7,0.4,0.9,0.6c0.2,0.3,0.3,0.6,0.4,1l-1.1,0.2c-0.1-0.3-0.2-0.6-0.4-0.8c-0.2-0.2-0.6-0.3-1-0.3c-0.5,0-0.9,0.1-1.1,0.3
		c-0.2,0.2-0.3,0.4-0.3,0.6c0,0.1,0,0.3,0.1,0.4c0.1,0.1,0.2,0.2,0.4,0.3c0.1,0,0.5,0.1,1,0.3c0.8,0.2,1.4,0.4,1.7,0.5
		c0.3,0.1,0.6,0.3,0.8,0.6c0.2,0.3,0.3,0.6,0.3,1c0,0.4-0.1,0.7-0.3,1.1c-0.2,0.3-0.5,0.6-1,0.8c-0.4,0.2-0.9,0.3-1.4,0.3
		c-0.9,0-1.5-0.2-2-0.5C619.6,105.4,619.3,104.8,619.2,104.1z"/>
	<path class="st6" d="M626.4,106.1v-5.9h-1v-0.9h1v-0.7c0-0.5,0-0.8,0.1-1c0.1-0.3,0.3-0.5,0.6-0.7c0.3-0.2,0.7-0.3,1.2-0.3
		c0.3,0,0.7,0,1.1,0.1l-0.2,1c-0.2,0-0.5-0.1-0.7-0.1c-0.3,0-0.6,0.1-0.7,0.2c-0.1,0.1-0.2,0.4-0.2,0.8v0.6h1.3v0.9h-1.3v5.9H626.4z
		"/>
	<path class="st6" d="M629.3,102.7c0-1.2,0.3-2.2,1-2.8c0.6-0.5,1.3-0.7,2.1-0.7c0.9,0,1.7,0.3,2.3,0.9s0.9,1.4,0.9,2.5
		c0,0.9-0.1,1.5-0.4,2c-0.3,0.5-0.6,0.9-1.1,1.2c-0.5,0.3-1,0.4-1.6,0.4c-0.9,0-1.7-0.3-2.3-0.9
		C629.6,104.8,629.3,103.9,629.3,102.7z M630.5,102.7c0,0.9,0.2,1.5,0.6,1.9s0.9,0.6,1.4,0.6c0.6,0,1-0.2,1.4-0.6
		c0.4-0.4,0.6-1.1,0.6-2c0-0.8-0.2-1.5-0.6-1.9c-0.4-0.4-0.8-0.6-1.4-0.6c-0.6,0-1,0.2-1.4,0.6S630.5,101.9,630.5,102.7z"/>
	<path class="st6" d="M636.9,106.1v-6.7h1v1c0.3-0.5,0.5-0.8,0.7-0.9c0.2-0.2,0.5-0.2,0.7-0.2c0.4,0,0.8,0.1,1.2,0.4l-0.4,1.1
		c-0.3-0.2-0.6-0.2-0.8-0.2c-0.2,0-0.5,0.1-0.7,0.2c-0.2,0.2-0.3,0.4-0.4,0.6c-0.1,0.4-0.2,0.9-0.2,1.3v3.5H636.9z"/>
	<path class="st6" d="M641.3,106.1v-6.7h1v0.9c0.2-0.3,0.5-0.6,0.8-0.8s0.8-0.3,1.2-0.3c0.5,0,0.9,0.1,1.2,0.3
		c0.3,0.2,0.5,0.5,0.7,0.9c0.5-0.8,1.2-1.2,2.1-1.2c0.7,0,1.2,0.2,1.5,0.6s0.5,0.9,0.5,1.7v4.6h-1.1v-4.2c0-0.5,0-0.8-0.1-1
		s-0.2-0.4-0.4-0.5c-0.2-0.1-0.4-0.2-0.7-0.2c-0.5,0-0.9,0.2-1.2,0.5c-0.3,0.3-0.5,0.8-0.5,1.5v3.9h-1.1v-4.4c0-0.5-0.1-0.9-0.3-1.1
		c-0.2-0.3-0.5-0.4-0.9-0.4c-0.3,0-0.6,0.1-0.9,0.3s-0.5,0.4-0.6,0.7c-0.1,0.3-0.2,0.8-0.2,1.4v3.5H641.3z"/>
	<path class="st6" d="M656.7,103.9l1.2,0.1c-0.2,0.7-0.5,1.2-1,1.6s-1.1,0.6-1.9,0.6c-1,0-1.8-0.3-2.3-0.9s-0.9-1.5-0.9-2.6
		c0-1.1,0.3-2,0.9-2.6s1.3-0.9,2.3-0.9c0.9,0,1.6,0.3,2.2,0.9c0.6,0.6,0.9,1.5,0.9,2.6c0,0.1,0,0.2,0,0.3h-5c0,0.7,0.3,1.3,0.6,1.7
		c0.4,0.4,0.8,0.6,1.4,0.6c0.4,0,0.8-0.1,1.1-0.3S656.6,104.4,656.7,103.9z M653,102.1h3.8c-0.1-0.6-0.2-1-0.4-1.3
		c-0.4-0.4-0.8-0.7-1.4-0.7c-0.5,0-1,0.2-1.3,0.5C653.2,101,653,101.5,653,102.1z"/>
	<path class="st6" d="M659.3,106.1v-6.7h1v1c0.3-0.5,0.5-0.8,0.7-0.9c0.2-0.2,0.5-0.2,0.7-0.2c0.4,0,0.8,0.1,1.2,0.4l-0.4,1.1
		c-0.3-0.2-0.6-0.2-0.8-0.2c-0.2,0-0.5,0.1-0.7,0.2s-0.3,0.4-0.4,0.6c-0.1,0.4-0.2,0.9-0.2,1.3v3.5H659.3z"/>
</g>
<rect x="572" y="359.1" class="st4" width="10" height="1"/>
<g class="st5">
	<path class="st6" d="M593.5,364.2v-9.3h1.9l2.2,6.6c0.2,0.6,0.4,1.1,0.4,1.4c0.1-0.3,0.3-0.8,0.5-1.5l2.2-6.5h1.7v9.3h-1.2v-7.8
		l-2.7,7.8h-1.1l-2.7-7.9v7.9H593.5z"/>
	<path class="st6" d="M608.8,362l1.2,0.1c-0.2,0.7-0.5,1.2-1,1.6c-0.5,0.4-1.1,0.6-1.9,0.6c-1,0-1.8-0.3-2.3-0.9
		c-0.6-0.6-0.9-1.5-0.9-2.6c0-1.1,0.3-2,0.9-2.6s1.3-0.9,2.3-0.9c0.9,0,1.6,0.3,2.2,0.9c0.6,0.6,0.9,1.5,0.9,2.6c0,0.1,0,0.2,0,0.3
		h-5c0,0.7,0.3,1.3,0.6,1.7c0.4,0.4,0.8,0.6,1.4,0.6c0.4,0,0.8-0.1,1.1-0.3C608.4,362.9,608.6,362.5,608.8,362z M605.1,360.2h3.8
		c-0.1-0.6-0.2-1-0.4-1.3c-0.4-0.4-0.8-0.7-1.4-0.7c-0.5,0-1,0.2-1.3,0.5C605.3,359.1,605.1,359.6,605.1,360.2z"/>
	<path class="st6" d="M611.4,364.2v-6.7h1v0.9c0.2-0.3,0.5-0.6,0.8-0.8s0.8-0.3,1.2-0.3c0.5,0,0.9,0.1,1.2,0.3
		c0.3,0.2,0.5,0.5,0.7,0.9c0.5-0.8,1.2-1.2,2.1-1.2c0.7,0,1.2,0.2,1.5,0.6s0.5,0.9,0.5,1.7v4.6h-1.1v-4.2c0-0.5,0-0.8-0.1-1
		s-0.2-0.4-0.4-0.5c-0.2-0.1-0.4-0.2-0.7-0.2c-0.5,0-0.9,0.2-1.2,0.5c-0.3,0.3-0.5,0.8-0.5,1.5v3.9h-1.1v-4.4c0-0.5-0.1-0.9-0.3-1.1
		c-0.2-0.3-0.5-0.4-0.9-0.4c-0.3,0-0.6,0.1-0.9,0.3s-0.5,0.4-0.6,0.7c-0.1,0.3-0.2,0.8-0.2,1.4v3.5H611.4z"/>
	<path class="st6" d="M621.8,360.8c0-1.2,0.3-2.2,1-2.8c0.6-0.5,1.3-0.7,2.1-0.7c0.9,0,1.7,0.3,2.3,0.9c0.6,0.6,0.9,1.4,0.9,2.5
		c0,0.9-0.1,1.5-0.4,2c-0.3,0.5-0.6,0.9-1.1,1.2c-0.5,0.3-1,0.4-1.6,0.4c-0.9,0-1.7-0.3-2.3-0.9C622.1,362.8,621.8,362,621.8,360.8z
		 M623,360.8c0,0.9,0.2,1.5,0.6,1.9c0.4,0.4,0.9,0.6,1.4,0.6c0.6,0,1-0.2,1.4-0.6s0.6-1.1,0.6-2c0-0.8-0.2-1.5-0.6-1.9
		c-0.4-0.4-0.8-0.6-1.4-0.6c-0.6,0-1,0.2-1.4,0.6C623.2,359.3,623,360,623,360.8z"/>
	<path class="st6" d="M629.5,364.2v-6.7h1v1c0.3-0.5,0.5-0.8,0.7-0.9c0.2-0.2,0.5-0.2,0.7-0.2c0.4,0,0.8,0.1,1.2,0.4l-0.4,1.1
		c-0.3-0.2-0.6-0.2-0.8-0.2c-0.2,0-0.5,0.1-0.7,0.2s-0.3,0.4-0.4,0.6c-0.1,0.4-0.2,0.9-0.2,1.3v3.5H629.5z"/>
	<path class="st6" d="M633.8,366.8l-0.1-1.1c0.2,0.1,0.5,0.1,0.7,0.1c0.3,0,0.5,0,0.6-0.1s0.3-0.2,0.4-0.4c0.1-0.1,0.2-0.4,0.3-0.9
		c0-0.1,0.1-0.2,0.1-0.3l-2.6-6.8h1.2l1.4,3.9c0.2,0.5,0.3,1,0.5,1.6c0.1-0.5,0.3-1,0.5-1.5l1.4-3.9h1.1l-2.6,6.9
		c-0.3,0.7-0.5,1.3-0.6,1.5c-0.2,0.4-0.4,0.7-0.7,0.8c-0.3,0.2-0.6,0.3-0.9,0.3C634.3,366.9,634,366.9,633.8,366.8z"/>
	<path class="st6" d="M644.1,364.2v-9.3h1.3l4.9,7.3v-7.3h1.2v9.3h-1.3l-4.9-7.3v7.3H644.1z"/>
	<path class="st6" d="M657.9,362l1.2,0.1c-0.2,0.7-0.5,1.2-1,1.6c-0.5,0.4-1.1,0.6-1.9,0.6c-1,0-1.8-0.3-2.3-0.9
		c-0.6-0.6-0.9-1.5-0.9-2.6c0-1.1,0.3-2,0.9-2.6s1.3-0.9,2.3-0.9c0.9,0,1.6,0.3,2.2,0.9c0.6,0.6,0.9,1.5,0.9,2.6c0,0.1,0,0.2,0,0.3
		h-5c0,0.7,0.3,1.3,0.6,1.7c0.4,0.4,0.8,0.6,1.4,0.6c0.4,0,0.8-0.1,1.1-0.3C657.5,362.9,657.8,362.5,657.9,362z M654.2,360.2h3.8
		c-0.1-0.6-0.2-1-0.4-1.3c-0.4-0.4-0.8-0.7-1.4-0.7c-0.5,0-1,0.2-1.3,0.5C654.4,359.1,654.2,359.6,654.2,360.2z"/>
	<path class="st6" d="M663,363.2l0.2,1c-0.3,0.1-0.6,0.1-0.9,0.1c-0.4,0-0.7-0.1-1-0.2c-0.2-0.1-0.4-0.3-0.5-0.5
		c-0.1-0.2-0.1-0.7-0.1-1.3v-3.9h-0.8v-0.9h0.8v-1.7l1.1-0.7v2.4h1.1v0.9h-1.1v3.9c0,0.3,0,0.5,0.1,0.6c0,0.1,0.1,0.2,0.2,0.2
		c0.1,0.1,0.2,0.1,0.4,0.1C662.7,363.2,662.8,363.2,663,363.2z"/>
	<path class="st6" d="M665.4,364.2l-2.1-6.7h1.2l1.1,3.9l0.4,1.4c0-0.1,0.1-0.5,0.3-1.4l1.1-3.9h1.2l1,3.9l0.3,1.3l0.4-1.3l1.2-3.9
		h1.1l-2.1,6.7h-1.2l-1.1-4L668,359l-1.4,5.2H665.4z"/>
	<path class="st6" d="M673.1,360.8c0-1.2,0.3-2.2,1-2.8c0.6-0.5,1.3-0.7,2.1-0.7c0.9,0,1.7,0.3,2.3,0.9c0.6,0.6,0.9,1.4,0.9,2.5
		c0,0.9-0.1,1.5-0.4,2c-0.3,0.5-0.6,0.9-1.1,1.2c-0.5,0.3-1,0.4-1.6,0.4c-0.9,0-1.7-0.3-2.3-0.9C673.4,362.8,673.1,362,673.1,360.8z
		 M674.3,360.8c0,0.9,0.2,1.5,0.6,1.9c0.4,0.4,0.9,0.6,1.4,0.6c0.6,0,1-0.2,1.4-0.6s0.6-1.1,0.6-2c0-0.8-0.2-1.5-0.6-1.9
		c-0.4-0.4-0.8-0.6-1.4-0.6c-0.6,0-1,0.2-1.4,0.6C674.5,359.3,674.3,360,674.3,360.8z"/>
	<path class="st6" d="M680.8,364.2v-6.7h1v1c0.3-0.5,0.5-0.8,0.7-0.9c0.2-0.2,0.5-0.2,0.7-0.2c0.4,0,0.8,0.1,1.2,0.4l-0.4,1.1
		c-0.3-0.2-0.6-0.2-0.8-0.2c-0.2,0-0.5,0.1-0.7,0.2s-0.3,0.4-0.4,0.6c-0.1,0.4-0.2,0.9-0.2,1.3v3.5H680.8z"/>
	<path class="st6" d="M685.1,364.2v-9.3h1.1v5.3l2.7-2.7h1.5l-2.6,2.5l2.8,4.2h-1.4l-2.2-3.4l-0.8,0.8v2.7H685.1z"/>
</g>
<rect x="572" y="398.5" class="st4" width="10" height="3.1"/>
<g class="st5">
	<path class="st6" d="M595.9,404.6v-8.2h-3.1v-1.1h7.4v1.1h-3.1v8.2H595.9z"/>
	<path class="st6" d="M601.5,404.6v-9.3h3.5c0.6,0,1.1,0,1.4,0.1c0.5,0.1,0.8,0.2,1.1,0.4s0.6,0.5,0.7,0.9c0.2,0.4,0.3,0.8,0.3,1.3
		c0,0.8-0.3,1.5-0.8,2c-0.5,0.5-1.4,0.8-2.7,0.8h-2.4v3.8H601.5z M602.7,399.7h2.4c0.8,0,1.4-0.1,1.7-0.4c0.3-0.3,0.5-0.7,0.5-1.2
		c0-0.4-0.1-0.7-0.3-1s-0.5-0.5-0.8-0.5c-0.2-0.1-0.6-0.1-1.1-0.1h-2.4V399.7z"/>
	<path class="st6" d="M610.1,404.6v-9.3h4.1c0.8,0,1.5,0.1,1.9,0.3s0.8,0.5,1,0.9c0.3,0.4,0.4,0.9,0.4,1.4c0,0.7-0.2,1.2-0.6,1.7
		c-0.4,0.5-1.1,0.7-2,0.9c0.3,0.2,0.6,0.3,0.7,0.5c0.4,0.3,0.7,0.7,1,1.2l1.6,2.5h-1.5l-1.2-1.9c-0.4-0.6-0.7-1-0.9-1.3
		c-0.2-0.3-0.4-0.5-0.6-0.6c-0.2-0.1-0.4-0.2-0.6-0.2c-0.1,0-0.4,0-0.7,0h-1.4v4.1H610.1z M611.4,399.4h2.6c0.6,0,1-0.1,1.3-0.2
		c0.3-0.1,0.6-0.3,0.7-0.6c0.2-0.3,0.2-0.5,0.2-0.8c0-0.4-0.2-0.8-0.5-1.1c-0.3-0.3-0.8-0.4-1.5-0.4h-2.9V399.4z"/>
</g>
<rect x="572" y="168.3" class="st4" width="10" height="38.2"/>
<g class="st5">
	<path class="st6" d="M593.5,191.9v-9.3h4.1c0.8,0,1.5,0.1,1.9,0.3s0.8,0.5,1,0.9c0.3,0.4,0.4,0.9,0.4,1.4c0,0.7-0.2,1.2-0.6,1.7
		c-0.4,0.5-1.1,0.7-2,0.9c0.3,0.2,0.6,0.3,0.7,0.5c0.4,0.3,0.7,0.7,1,1.2l1.6,2.5h-1.5L599,190c-0.4-0.6-0.7-1-0.9-1.3
		c-0.2-0.3-0.4-0.5-0.6-0.6c-0.2-0.1-0.4-0.2-0.6-0.2c-0.1,0-0.4,0-0.7,0h-1.4v4.1H593.5z M594.8,186.7h2.6c0.6,0,1-0.1,1.3-0.2
		c0.3-0.1,0.6-0.3,0.7-0.6c0.2-0.3,0.2-0.5,0.2-0.8c0-0.4-0.2-0.8-0.5-1.1c-0.3-0.3-0.8-0.4-1.5-0.4h-2.9V186.7z"/>
	<path class="st6" d="M602.9,191.9v-9.3h1.3l4.9,7.3v-7.3h1.2v9.3H609l-4.9-7.3v7.3H602.9z"/>
	<path class="st6" d="M612.3,191.9v-9.3h1.3l4.9,7.3v-7.3h1.2v9.3h-1.3l-4.9-7.3v7.3H612.3z"/>
</g>
<rect x="572" y="375.4" class="st4" width="10" height="7.8"/>
<g class="st5">
	<path class="st6" d="M597.9,380.2v-1.1l3.9,0v3.5c-0.6,0.5-1.2,0.8-1.9,1.1c-0.6,0.2-1.3,0.4-2,0.4c-0.9,0-1.7-0.2-2.5-0.6
		c-0.7-0.4-1.3-1-1.7-1.7c-0.4-0.7-0.6-1.6-0.6-2.5c0-0.9,0.2-1.8,0.6-2.5c0.4-0.8,0.9-1.4,1.6-1.7s1.5-0.6,2.5-0.6
		c0.7,0,1.3,0.1,1.8,0.3c0.5,0.2,1,0.5,1.3,0.9c0.3,0.4,0.5,0.9,0.7,1.5l-1.1,0.3c-0.1-0.5-0.3-0.8-0.5-1.1
		c-0.2-0.3-0.5-0.5-0.9-0.7c-0.4-0.2-0.8-0.2-1.3-0.2c-0.6,0-1,0.1-1.5,0.3c-0.4,0.2-0.7,0.4-1,0.7s-0.4,0.6-0.6,0.9
		c-0.2,0.6-0.4,1.2-0.4,1.9c0,0.8,0.1,1.5,0.4,2.1s0.7,1,1.2,1.2s1.1,0.4,1.7,0.4c0.5,0,1.1-0.1,1.6-0.3s0.9-0.4,1.2-0.7v-1.7H597.9
		z"/>
	<path class="st6" d="M603.6,383.9v-9.3h1.3l4.9,7.3v-7.3h1.2v9.3h-1.3l-4.9-7.3v7.3H603.6z"/>
	<path class="st6" d="M613,383.9v-9.3h1.3l4.9,7.3v-7.3h1.2v9.3h-1.3l-4.9-7.3v7.3H613z"/>
</g>
</svg>
