<?xml version="1.0" encoding="utf-8"?>
<!-- Generator: Adobe Illustrator 26.0.3, SVG Export Plug-In . SVG Version: 6.00 Build 0)  -->
<svg version="1.1" id="Layer_1" xmlns="http://www.w3.org/2000/svg" xmlns:xlink="http://www.w3.org/1999/xlink" x="0px" y="0px"
	 viewBox="0 0 1366 768" style="enable-background:new 0 0 1366 768;" xml:space="preserve">
<style type="text/css">
	.st0{fill:none;stroke:#CCCCCC;stroke-miterlimit:10;}
	.st1{fill:none;stroke:#9C4397;stroke-miterlimit:10;stroke-dasharray:12.1184,12.1184;}
	.st2{fill:#333333;}
	.st3{font-family:'ArialMT';}
	.st4{font-size:16px;}
	.st5{fill:#450256;}
	.st6{font-size:18px;}
	.st7{font-family:'Arial-BoldMT';}
	.st8{fill:none;stroke:#000000;stroke-miterlimit:10;stroke-dasharray:4;}
</style>
<ellipse class="st0" cx="696.1" cy="374.7" rx="318.7" ry="196.7"/>
<g>
	<path class="st1" d="M991.1,377.2c0,78.6-80.8,142.4-180.5,142.4c-239.5-7.7-239.5-277.1,0-284.7
		C910.2,234.8,991.1,298.6,991.1,377.2L991.1,377.2z"/>
</g>
<text transform="matrix(1 0 0 1 455.6578 306.0168)"><tspan x="0" y="0" class="st2 st3 st4">Named Entity Recognition </tspan><tspan x="72.5" y="19.2" class="st2 st3 st4">(NER)</tspan></text>
<text transform="matrix(1 0 0 1 437.7888 365.3389)"><tspan x="0" y="0" class="st2 st3 st4">Part-of-Speech Tagging </tspan><tspan x="64.9" y="19.2" class="st2 st3 st4">(POS)</tspan></text>
<text transform="matrix(1 0 0 1 537.2574 245.8473)"><tspan x="0" y="0" class="st2 st3 st4">Text Categorization/</tspan><tspan x="24.5" y="19.2" class="st2 st3 st4">Classification</tspan></text>
<text transform="matrix(1 0 0 1 458.907 422.966)" class="st2 st3 st4">Syntactic Parsing</text>
<text transform="matrix(1 0 0 1 461.241 464.4914)" class="st2 st3 st4">Coreference Resolution</text>
<text transform="matrix(1 0 0 1 533.4222 506.8643)" class="st2 st3 st4">Machine Translation</text>
<text transform="matrix(1 0 0 1 746.1354 290.7626)" class="st5 st3 st4">Relation Extraction</text>
<text transform="matrix(1 0 0 1 679.1862 329.7456)" class="st5 st3 st4">Question Answering (QA)</text>
<text transform="matrix(1 0 0 1 650.3727 383.9829)" class="st5 st3 st4">Sentiment Analysis</text>
<text transform="matrix(1 0 0 1 683.4235 433.9829)" class="st5 st3 st4">Semantic Parsing</text>
<text transform="matrix(1 0 0 1 816.983 371.2711)"><tspan x="0" y="0" class="st5 st3 st4">Paraphrase &amp; Natural </tspan><tspan x="8" y="19.2" class="st5 st3 st4">Language Inference</tspan></text>
<text transform="matrix(1 0 0 1 842.7455 442.4575)" class="st5 st3 st4">Dialog Agents</text>
<text transform="matrix(1 0 0 1 760.5421 482.288)" class="st5 st3 st4">Summarization</text>
<text transform="matrix(1 0 0 1 220.7781 213.2203)"><tspan x="0" y="0" class="st3 st6">Natural Language Processing</tspan><tspan x="94.6" y="21.6" class="st3 st6">(</tspan><tspan x="100.6" y="21.6" class="st7 st6">NLP</tspan><tspan x="136.6" y="21.6" class="st3 st6">)</tspan></text>
<text transform="matrix(1 0 0 1 947.0139 213.2206)"><tspan x="0" y="0" class="st3 st6">Natural Language Understanding</tspan><tspan x="108.1" y="21.6" class="st3 st6">(</tspan><tspan x="114.1" y="21.6" class="st7 st6">NLU</tspan><tspan x="151.1" y="21.6" class="st3 st6">)</tspan></text>
<text transform="matrix(1 0 0 1 1024.5825 274.6611)"><tspan x="0" y="0" class="st3 st6">Natural Language Generation</tspan><tspan x="93.6" y="21.6" class="st3 st6">(</tspan><tspan x="99.6" y="21.6" class="st7 st6">NLG</tspan><tspan x="137.6" y="21.6" class="st3 st6">)</tspan></text>
<line class="st8" x1="386" y1="237.4" x2="449.5" y2="273"/>
<line class="st8" x1="908" y1="291.6" x2="975.4" y2="255.8"/>
</svg>
