<svg class="main-svg" xmlns="http://www.w3.org/2000/svg" xmlns:xlink="http://www.w3.org/1999/xlink" width="600" height="500" style="" viewBox="0 0 600 500"><rect x="0" y="0" width="600" height="500" style="fill: rgb(255, 255, 255); fill-opacity: 1;"/><defs id="defs-b443ea"><g class="clips"/><g class="gradients"/><g class="patterns"/></defs><g class="bglayer"/><g class="layer-below"><g class="imagelayer"/><g class="shapelayer"/></g><g class="cartesianlayer"/><g class="polarlayer"/><g class="smithlayer"/><g class="ternarylayer"/><g class="geolayer"/><g class="funnelarealayer"/><g class="pielayer"/><g class="iciclelayer"/><g class="treemaplayer"/><g class="sunburstlayer"/><g class="glimages"/><g class="sankey" transform="translate(80,100)matrix(1 0 0 1 0 0)" style="box-sizing: content-box; position: absolute; left: 0px; shape-rendering: geometricprecision; pointer-events: auto;"><g class="sankey-links" style="fill: none;"><path class="sankey-link" d="M10,25.000000000000263C220,25.000000000000263 220,2.4158453015843406e-13 430,2.4158453015843406e-13L430,5.869565217582945C220,5.869565217582945 220,30.869565217582966 10,30.869565217582966Z" style="stroke: rgb(68, 68, 68); stroke-opacity: 1; fill: rgb(69, 2, 86); fill-opacity: 1; stroke-width: 0; opacity: 1;"/><path class="sankey-link" d="M10,185.00000000029374C220,185.00000000029374 220,105.65217391296719 430,105.65217391296719L430,111.52173913054989C220,111.52173913054989 220,190.86956521787644 10,190.86956521787644Z" style="stroke: rgb(68, 68, 68); stroke-opacity: 1; fill: rgb(87, 188, 214); fill-opacity: 1; stroke-width: 0; opacity: 1;"/><path class="sankey-link" d="M10,30.86956521758297C220,30.86956521758297 220,5.869565217582944 430,5.869565217582944L430,17.608695652161394C220,17.608695652161394 220,42.60869565216142 10,42.60869565216142Z" style="stroke: rgb(68, 68, 68); stroke-opacity: 1; fill: rgb(69, 2, 86); fill-opacity: 1; stroke-width: 0; opacity: 1;"/><path class="sankey-link" d="M10,284.7826086962649C220,284.7826086962649 220,284.7826086962649 430,284.7826086962649L430,296.52173913084334C220,296.52173913084334 220,296.52173913084334 10,296.52173913084334Z" style="stroke: rgb(68, 68, 68); stroke-opacity: 1; fill: rgb(87, 188, 214); fill-opacity: 1; stroke-width: 0; opacity: 1;"/><path class="sankey-link" d="M10,190.86956521787644C220,190.86956521787644 220,111.52173913054989 430,111.52173913054989L430,123.26086956512833C220,123.26086956512833 220,202.60869565245488 10,202.60869565245488Z" style="stroke: rgb(68, 68, 68); stroke-opacity: 1; fill: rgb(87, 188, 214); fill-opacity: 1; stroke-width: 0; opacity: 1;"/><path class="sankey-link" d="M10,42.608695652161416C220,42.608695652161416 220,17.608695652161394 430,17.608695652161394L430,23.478260869744098C220,23.478260869744098 220,48.47826086974412 10,48.47826086974412Z" style="stroke: rgb(68, 68, 68); stroke-opacity: 1; fill: rgb(69, 2, 86); fill-opacity: 1; stroke-width: 0; opacity: 1;"/><path class="sankey-link" d="M10,202.60869565245488C220,202.60869565245488 220,123.26086956512835 430,123.26086956512835L430,129.13043478271106C220,129.13043478271106 220,208.4782608700376 10,208.4782608700376Z" style="stroke: rgb(68, 68, 68); stroke-opacity: 1; fill: rgb(87, 188, 214); fill-opacity: 1; stroke-width: 0; opacity: 1;"/><path class="sankey-link" d="M10,48.47826086974412C220,48.47826086974412 220,23.478260869744098 430,23.478260869744098L430,35.21739130432255C220,35.21739130432255 220,60.217391304322575 10,60.217391304322575Z" style="stroke: rgb(68, 68, 68); stroke-opacity: 1; fill: rgb(69, 2, 86); fill-opacity: 1; stroke-width: 0; opacity: 1;"/><path class="sankey-link" d="M10,60.21739130432257C220,60.21739130432257 220,35.21739130432255 430,35.21739130432255L430,41.08695652190525C220,41.08695652190525 220,66.08695652190528 10,66.08695652190528Z" style="stroke: rgb(68, 68, 68); stroke-opacity: 1; fill: rgb(69, 2, 86); fill-opacity: 1; stroke-width: 0; opacity: 1;"/><path class="sankey-link" d="M10,208.4782608700376C220,208.4782608700376 220,129.13043478271106 430,129.13043478271106L430,135.00000000029377C220,135.00000000029377 220,214.3478260876203 10,214.3478260876203Z" style="stroke: rgb(68, 68, 68); stroke-opacity: 1; fill: rgb(87, 188, 214); fill-opacity: 1; stroke-width: 0; opacity: 1;"/><path class="sankey-link" d="M10,296.52173913084334C220,296.52173913084334 220,296.52173913084334 430,296.52173913084334L430,308.2608695654218C220,308.2608695654218 220,308.2608695654218 10,308.2608695654218Z" style="stroke: rgb(68, 68, 68); stroke-opacity: 1; fill: rgb(87, 188, 214); fill-opacity: 1; stroke-width: 0; opacity: 1;"/><path class="sankey-link" d="M10,214.3478260876203C220,214.3478260876203 220,135.00000000029377 430,135.00000000029377L430,146.7391304348722C220,146.7391304348722 220,226.08695652219873 10,226.08695652219873Z" style="stroke: rgb(68, 68, 68); stroke-opacity: 1; fill: rgb(87, 188, 214); fill-opacity: 1; stroke-width: 0; opacity: 1;"/><path class="sankey-link" d="M10,130.6521739129672C220,130.6521739129672 220,218.69565217377294 430,218.69565217377294L430,224.56521739135565C220,224.56521739135565 220,136.52173913054992 10,136.52173913054992Z" style="stroke: rgb(68, 68, 68); stroke-opacity: 1; fill: rgb(69, 2, 86); fill-opacity: 1; stroke-width: 0; opacity: 1;"/><path class="sankey-link" d="M10,273.0434782610995C220,273.0434782610995 220,242.1739130435168 430,242.1739130435168L430,248.0434782610995C220,248.0434782610995 220,278.9130434786822 10,278.9130434786822Z" style="stroke: rgb(68, 68, 68); stroke-opacity: 1; fill: rgb(87, 188, 214); fill-opacity: 1; stroke-width: 0; opacity: 1;"/><path class="sankey-link" d="M10,66.08695652190528C220,66.08695652190528 220,41.08695652190525 430,41.08695652190525L430,46.956521739487954C220,46.956521739487954 220,71.95652173948798 10,71.95652173948798Z" style="stroke: rgb(68, 68, 68); stroke-opacity: 1; fill: rgb(69, 2, 86); fill-opacity: 1; stroke-width: 0; opacity: 1;"/><path class="sankey-link" d="M10,226.08695652219873C220,226.08695652219873 220,146.7391304348722 430,146.7391304348722L430,152.6086956524549C220,152.6086956524549 220,231.95652173978144 10,231.95652173978144Z" style="stroke: rgb(68, 68, 68); stroke-opacity: 1; fill: rgb(87, 188, 214); fill-opacity: 1; stroke-width: 0; opacity: 1;"/><path class="sankey-link" d="M10,231.95652173978144C220,231.95652173978144 220,152.6086956524549 430,152.6086956524549L430,164.34782608703335C220,164.34782608703335 220,243.69565217435988 10,243.69565217435988Z" style="stroke: rgb(68, 68, 68); stroke-opacity: 1; fill: rgb(87, 188, 214); fill-opacity: 1; stroke-width: 0; opacity: 1;"/><path class="sankey-link" d="M10,308.2608695654218C220,308.2608695654218 220,308.2608695654218 430,308.2608695654218L430,320.0000000000002C220,320.0000000000002 220,320.0000000000002 10,320.0000000000002Z" style="stroke: rgb(68, 68, 68); stroke-opacity: 1; fill: rgb(87, 188, 214); fill-opacity: 1; stroke-width: 0; opacity: 1;"/><path class="sankey-link" d="M10,243.69565217435988C220,243.69565217435988 220,164.34782608703335 430,164.34782608703335L430,176.0869565216118C220,176.0869565216118 220,255.43478260893832 10,255.43478260893832Z" style="stroke: rgb(68, 68, 68); stroke-opacity: 1; fill: rgb(87, 188, 214); fill-opacity: 1; stroke-width: 0; opacity: 1;"/><path class="sankey-link" d="M10,71.95652173948798C220,71.95652173948798 220,46.956521739487954 430,46.956521739487954L430,52.82608695707066C220,52.82608695707066 220,77.82608695707069 10,77.82608695707069Z" style="stroke: rgb(68, 68, 68); stroke-opacity: 1; fill: rgb(69, 2, 86); fill-opacity: 1; stroke-width: 0; opacity: 1;"/><path class="sankey-link" d="M10,255.43478260893835C220,255.43478260893835 220,176.0869565216118 430,176.0869565216118L430,181.9565217391945C220,181.9565217391945 220,261.30434782652105 10,261.30434782652105Z" style="stroke: rgb(68, 68, 68); stroke-opacity: 1; fill: rgb(87, 188, 214); fill-opacity: 1; stroke-width: 0; opacity: 1;"/><path class="sankey-link" d="M10,77.82608695707069C220,77.82608695707069 220,52.82608695707066 430,52.82608695707066L430,64.56521739164911C220,64.56521739164911 220,89.56521739164913 10,89.56521739164913Z" style="stroke: rgb(68, 68, 68); stroke-opacity: 1; fill: rgb(69, 2, 86); fill-opacity: 1; stroke-width: 0; opacity: 1;"/><path class="sankey-link" d="M10,89.56521739164914C220,89.56521739164914 220,64.56521739164911 430,64.56521739164911L430,76.30434782622756C220,76.30434782622756 220,101.30434782622758 10,101.30434782622758Z" style="stroke: rgb(68, 68, 68); stroke-opacity: 1; fill: rgb(69, 2, 86); fill-opacity: 1; stroke-width: 0; opacity: 1;"/><path class="sankey-link" d="M10,101.3043478262276C220,101.3043478262276 220,76.30434782622757 430,76.30434782622757L430,88.04347826080601C220,88.04347826080601 220,113.04347826080604 10,113.04347826080604Z" style="stroke: rgb(68, 68, 68); stroke-opacity: 1; fill: rgb(69, 2, 86); fill-opacity: 1; stroke-width: 0; opacity: 1;"/><path class="sankey-link" d="M10,261.30434782652105C220,261.30434782652105 220,181.9565217391945 430,181.9565217391945L430,193.69565217377294C220,193.69565217377294 220,273.0434782610995 10,273.0434782610995Z" style="stroke: rgb(68, 68, 68); stroke-opacity: 1; fill: rgb(87, 188, 214); fill-opacity: 1; stroke-width: 0; opacity: 1;"/><path class="sankey-link" d="M10,113.04347826080605C220,113.04347826080605 220,88.04347826080603 430,88.04347826080603L430,99.78260869538447C220,99.78260869538447 220,124.7826086953845 10,124.7826086953845Z" style="stroke: rgb(68, 68, 68); stroke-opacity: 1; fill: rgb(69, 2, 86); fill-opacity: 1; stroke-width: 0; opacity: 1;"/><path class="sankey-link" d="M10,124.78260869538451C220,124.78260869538451 220,99.78260869538448 430,99.78260869538448L430,105.65217391296719C220,105.65217391296719 220,130.6521739129672 10,130.6521739129672Z" style="stroke: rgb(68, 68, 68); stroke-opacity: 1; fill: rgb(69, 2, 86); fill-opacity: 1; stroke-width: 0; opacity: 1;"/><path class="sankey-link" d="M10,154.13043478271106C220,154.13043478271106 220,278.9130434786822 430,278.9130434786822L430,284.7826086962649C220,284.7826086962649 220,160.00000000029377 10,160.00000000029377Z" style="stroke: rgb(68, 68, 68); stroke-opacity: 1; fill: rgb(69, 2, 86); fill-opacity: 1; stroke-width: 0; opacity: 1;"/><path class="sankey-link" d="M10,136.52173913054992C220,136.52173913054992 220,224.56521739135565 430,224.56521739135565L430,236.3043478259341C220,236.3043478259341 220,148.26086956512836 10,148.26086956512836Z" style="stroke: rgb(68, 68, 68); stroke-opacity: 1; fill: rgb(69, 2, 86); fill-opacity: 1; stroke-width: 0; opacity: 1;"/><path class="sankey-link" d="M10,148.26086956512836C220,148.26086956512836 220,236.3043478259341 430,236.3043478259341L430,242.1739130435168C220,242.1739130435168 220,154.13043478271106 10,154.13043478271106Z" style="stroke: rgb(68, 68, 68); stroke-opacity: 1; fill: rgb(69, 2, 86); fill-opacity: 1; stroke-width: 0; opacity: 1;"/><path class="sankey-link" d="M10,278.9130434786822C220,278.9130434786822 220,248.0434782610995 430,248.0434782610995L430,253.9130434786822C220,253.9130434786822 220,284.7826086962649 10,284.7826086962649Z" style="stroke: rgb(68, 68, 68); stroke-opacity: 1; fill: rgb(87, 188, 214); fill-opacity: 1; stroke-width: 0; opacity: 1;"/></g><g class="sankey-node-set" style="cursor: move;"><g class="sankey-node" transform="translate(0.000,25.000)" style="opacity: 1;"><rect class="node-rect" width="10" height="135.00000000029348" style="stroke-width: 0.5; stroke: rgb(68, 68, 68); stroke-opacity: 1; fill: rgb(51, 51, 51); fill-opacity: 1;"/><text class="node-label" data-notex="1" x="0" y="0" text-anchor="start" transform="translate(13.25,72.05000000014674)" style="cursor: default; font-family: Arial; font-size: 13px; fill: rgb(51, 51, 51); fill-opacity: 1; white-space: pre; text-shadow: white 1px 1px 1px, white -1px -1px 1px, white 1px -1px 1px, white -1px 1px 1px;">Linguistic Structure</text></g><g class="sankey-node" transform="translate(0.000,185.000)" style="opacity: 1;"><rect class="node-rect" width="10" height="134.99999999970626" style="stroke-width: 0.5; stroke: rgb(68, 68, 68); stroke-opacity: 1; fill: rgb(51, 51, 51); fill-opacity: 1;"/><text class="node-label" data-notex="1" x="0" y="0" text-anchor="start" transform="translate(13.25,72.04999999985313)" style="cursor: default; font-family: Arial; font-size: 13px; fill: rgb(51, 51, 51); fill-opacity: 1; white-space: pre; text-shadow: white 1px 1px 1px, white -1px -1px 1px, white 1px -1px 1px, white -1px 1px 1px;">Relational Structure</text></g><g class="sankey-node" transform="translate(430.000,0.000)" style="opacity: 1;"><rect class="node-rect" width="10" height="193.69565217377266" style="stroke-width: 0.5; stroke: rgb(68, 68, 68); stroke-opacity: 1; fill: rgb(51, 51, 51); fill-opacity: 1;"/><text class="node-label" data-notex="1" x="0" y="0" text-anchor="end" transform="translate(-3.25,101.39782608688633)" style="cursor: default; font-family: Arial; font-size: 13px; fill: rgb(51, 51, 51); fill-opacity: 1; white-space: pre; text-shadow: white 1px 1px 1px, white -1px -1px 1px, white 1px -1px 1px, white -1px 1px 1px;">Classification</text></g><g class="sankey-node" transform="translate(430.000,278.913)" style="opacity: 1;"><rect class="node-rect" width="10" height="41.0869565213178" style="stroke-width: 0.5; stroke: rgb(68, 68, 68); stroke-opacity: 1; fill: rgb(51, 51, 51); fill-opacity: 1;"/><text class="node-label" data-notex="1" x="0" y="0" text-anchor="end" transform="translate(-3.25,25.0934782606589)" style="cursor: default; font-family: Arial; font-size: 13px; fill: rgb(51, 51, 51); fill-opacity: 1; white-space: pre; text-shadow: white 1px 1px 1px, white -1px -1px 1px, white 1px -1px 1px, white -1px 1px 1px;">Inference</text></g><g class="sankey-node" transform="translate(430.000,218.696)" style="opacity: 1;"><rect class="node-rect" width="10" height="35.217391304909256" style="stroke-width: 0.5; stroke: rgb(68, 68, 68); stroke-opacity: 1; fill: rgb(51, 51, 51); fill-opacity: 1;"/><text class="node-label" data-notex="1" x="0" y="0" text-anchor="end" transform="translate(-3.25,22.15869565245463)" style="cursor: default; font-family: Arial; font-size: 13px; fill: rgb(51, 51, 51); fill-opacity: 1; white-space: pre; text-shadow: white 1px 1px 1px, white -1px -1px 1px, white 1px -1px 1px, white -1px 1px 1px;">Generative</text></g></g></g><defs id="topdefs-b443ea"><g class="clips"/></defs><g class="layer-above"><g class="imagelayer"/><g class="shapelayer"/></g><g class="infolayer"><g class="g-gtitle"/><g class="first-render"/></g></svg>