<?xml version="1.0" encoding="utf-8"?>
<!-- Generator: Adobe Illustrator 26.0.2, SVG Export Plug-In . SVG Version: 6.00 Build 0)  -->
<svg version="1.1" xmlns="http://www.w3.org/2000/svg" xmlns:xlink="http://www.w3.org/1999/xlink" x="0px" y="0px"
	 viewBox="0 0 1664.6 2097.7" style="enable-background:new 0 0 1664.6 2097.7;" xml:space="preserve">
<style type="text/css">
	.st0{fill:#450256;}
	.st1{fill:#57BCD6;}
	.st2{fill:#333333;stroke:#444444;stroke-width:0.5;}
	.st3{opacity:0.3;fill:#450256;}
	.st4{opacity:0.3;fill:#57BCD6;}
	.st5{fill:#EEEEEE;}
	.st6{fill:#450256;stroke:#450256;}
	.st7{opacity:0.3;fill:#333333;stroke:#444444;stroke-width:0.5;}
	.st8{fill:#57BCD6;stroke:#57BCD6;}
	.st9{fill:#FFFFFF;}
	.st10{fill:#333333;}
	.st11{font-family:'ArialMT';}
	.st12{font-size:13px;}
	.st13{font-family:'Arial-BoldMT';}
	.st14{font-size:14px;}
</style>
<g id="Layer_1">
	<path class="st0" d="M223.1,677.5c210,0,210-25,420-25v5.9c-210,0-210,25-420,25V677.5z"/>
	<path class="st1" d="M223.1,837.5c210,0,210-79.3,420-79.3v5.9c-210,0-210,79.3-420,79.3V837.5z"/>
	<path class="st0" d="M223.1,683.4c210,0,210-25,420-25v11.7c-210,0-210,25-420,25V683.4z"/>
	<path class="st1" d="M223.1,937.3c210,0,210,0,420,0v11.7c-210,0-210,0-420,0V937.3z"/>
	<path class="st1" d="M223.1,843.4c210,0,210-79.3,420-79.3v11.7c-210,0-210,79.3-420,79.3V843.4z"/>
	<path class="st0" d="M223.1,695.2c210,0,210-25,420-25v5.9c-210,0-210,25-420,25V695.2z"/>
	<path class="st1" d="M223.1,855.2c210,0,210-79.3,420-79.3v5.9c-210,0-210,79.3-420,79.3V855.2z"/>
	<path class="st0" d="M223.1,701c210,0,210-25,420-25v11.7c-210,0-210,25-420,25V701z"/>
	<path class="st0" d="M223.1,712.8c210,0,210-25,420-25v5.9c-210,0-210,25-420,25V712.8z"/>
	<path class="st1" d="M223.1,861c210,0,210-79.3,420-79.3v5.9c-210,0-210,79.3-420,79.3V861z"/>
	<path class="st1" d="M223.1,949.1c210,0,210,0,420,0v11.7c-210,0-210,0-420,0V949.1z"/>
	<path class="st1" d="M223.1,866.9c210,0,210-79.3,420-79.3v11.7c-210,0-210,79.3-420,79.3V866.9z"/>
	<path class="st0" d="M223.1,783.2c210,0,210,88,420,88v5.9c-210,0-210-88-420-88V783.2z"/>
	<path class="st1" d="M223.1,925.6c210,0,210-30.9,420-30.9v5.9c-210,0-210,30.9-420,30.9V925.6z"/>
	<path class="st0" d="M223.1,718.6c210,0,210-25,420-25v5.9c-210,0-210,25-420,25V718.6z"/>
	<path class="st1" d="M223.1,878.6c210,0,210-79.3,420-79.3v5.9c-210,0-210,79.3-420,79.3V878.6z"/>
	<path class="st1" d="M223.1,884.5c210,0,210-79.3,420-79.3v11.7c-210,0-210,79.3-420,79.3V884.5z"/>
	<path class="st1" d="M223.1,960.8c210,0,210,0,420,0v11.7c-210,0-210,0-420,0V960.8z"/>
	<path class="st1" d="M223.1,896.2c210,0,210-79.3,420-79.3v11.7c-210,0-210,79.3-420,79.3V896.2z"/>
	<path class="st0" d="M223.1,724.5c210,0,210-25,420-25v5.9c-210,0-210,25-420,25V724.5z"/>
	<path class="st1" d="M223.1,908c210,0,210-79.3,420-79.3v5.9c-210,0-210,79.3-420,79.3V908z"/>
	<path class="st0" d="M223.1,730.4c210,0,210-25,420-25v11.7c-210,0-210,25-420,25V730.4z"/>
	<path class="st0" d="M223.1,742.1c210,0,210-25,420-25v11.7c-210,0-210,25-420,25V742.1z"/>
	<path class="st0" d="M223.1,753.8c210,0,210-25,420-25v11.7c-210,0-210,25-420,25V753.8z"/>
	<path class="st1" d="M223.1,913.8c210,0,210-79.3,420-79.3v11.7c-210,0-210,79.3-420,79.3V913.8z"/>
	<path class="st0" d="M223.1,765.6c210,0,210-25,420-25v11.7c-210,0-210,25-420,25V765.6z"/>
	<path class="st0" d="M223.1,777.3c210,0,210-25,420-25v5.9c-210,0-210,25-420,25V777.3z"/>
	<path class="st0" d="M223.1,806.7c210,0,210,124.8,420,124.8v5.9c-210,0-210-124.8-420-124.8V806.7z"/>
	<path class="st0" d="M223.1,789.1c210,0,210,88,420,88v11.7c-210,0-210-88-420-88V789.1z"/>
	<path class="st0" d="M223.1,800.8c210,0,210,88,420,88v5.9c-210,0-210-88-420-88V800.8z"/>
	<path class="st1" d="M223.1,931.5c210,0,210-30.9,420-30.9v5.9c-210,0-210,30.9-420,30.9V931.5z"/>
	<rect x="213.1" y="677.5" class="st2" width="10" height="135"/>
	<rect x="213.1" y="837.5" class="st2" width="10" height="135"/>
	<rect x="643.1" y="652.5" class="st2" width="10" height="193.7"/>
	<rect x="643.1" y="931.5" class="st2" width="10" height="41.1"/>
	<rect x="643.1" y="871.2" class="st2" width="10" height="35.2"/>
	<path class="st0" d="M222.8,1722.5c210,0,210,76.2,420,76.2v2.3c-210,0-210-76.2-420-76.2V1722.5z"/>
	<path class="st1" d="M222.8,1803.8c210,0,210,3,420,3v2.3c-210,0-210-3-420-3V1803.8z"/>
	<path class="st0" d="M222.8,1692.3c210,0,210-28.9,420-28.9v4.6c-210,0-210,28.9-420,28.9V1692.3z"/>
	<path class="st1" d="M222.8,1816.6c210,0,210,21.9,420,21.9v4.6c-210,0-210-21.9-420-21.9V1816.6z"/>
	<path class="st1" d="M222.8,1821.2c210,0,210,21.9,420,21.9v4.6c-210,0-210-21.9-420-21.9V1821.2z"/>
	<path class="st0" d="M222.8,1724.8c210,0,210,76.2,420,76.2v1.2c-210,0-210-76.2-420-76.2V1724.8z"/>
	<path class="st0" d="M222.8,1730.6c210,0,210,106.8,420,106.8v1.2c-210,0-210-106.8-420-106.8V1730.6z"/>
	<path class="st1" d="M222.8,1806.1c210,0,210,3,420,3v1.2c-210,0-210-3-420-3V1806.1z"/>
	<path class="st1" d="M222.8,1825.9c210,0,210,21.9,420,21.9v1.2c-210,0-210-21.9-420-21.9V1825.9z"/>
	<path class="st0" d="M222.8,1708.6c210,0,210,9,420,9v4.6c-210,0-210-9-420-9V1708.6z"/>
	<path class="st0" d="M222.8,1725.9c210,0,210,76.2,420,76.2v2.3c-210,0-210-76.2-420-76.2V1725.9z"/>
	<path class="st1" d="M222.8,1807.3c210,0,210,3,420,3v2.3c-210,0-210-3-420-3V1807.3z"/>
	<path class="st1" d="M222.8,1789.9c210,0,210-63.1,420-63.1v4.6c-210,0-210,63.1-420,63.1V1789.9z"/>
	<path class="st1" d="M222.8,1836.3c210,0,210,75.3,420,75.3v4.6c-210,0-210-75.3-420-75.3V1836.3z"/>
	<path class="st0" d="M222.8,1720.1c210,0,210,56.1,420,56.1v2.3c-210,0-210-56.1-420-56.1V1720.1z"/>
	<path class="st1" d="M222.8,1801.5c210,0,210-22.9,420-22.9v2.3c-210,0-210,22.9-420,22.9V1801.5z"/>
	<path class="st0" d="M222.8,1697c210,0,210-11.1,420-11.1v2.3c-210,0-210,11.1-420,11.1V1697z"/>
	<path class="st1" d="M222.8,1787.6c210,0,210-90.1,420-90.1v2.3c-210,0-210,90.1-420,90.1V1787.6z"/>
	<path class="st1" d="M222.8,1827c210,0,210,39.7,420,39.7v4.6c-210,0-210-39.7-420-39.7V1827z"/>
	<path class="st1" d="M222.8,1794.6c210,0,210-63.1,420-63.1v4.6c-210,0-210,63.1-420,63.1V1794.6z"/>
	<path class="st1" d="M222.8,1809.6c210,0,210,3,420,3v4.6c-210,0-210-3-420-3V1809.6z"/>
	<path class="st0" d="M222.8,1728.3c210,0,210,76.2,420,76.2v2.3c-210,0-210-76.2-420-76.2V1728.3z"/>
	<path class="st1" d="M222.8,1814.3c210,0,210,3,420,3v2.3c-210,0-210-3-420-3V1814.3z"/>
	<path class="st0" d="M222.8,1699.3c210,0,210-11.1,420-11.1v4.6c-210,0-210,11.1-420,11.1V1699.3z"/>
	<path class="st0" d="M222.8,1703.9c210,0,210-11.1,420-11.1v4.6c-210,0-210,11.1-420,11.1V1703.9z"/>
	<path class="st0" d="M222.8,1683c210,0,210-64.4,420-64.4v4.6c-210,0-210,64.4-420,64.4V1683z"/>
	<path class="st1" d="M222.8,1831.7c210,0,210,57.5,420,57.5v4.6c-210,0-210-57.5-420-57.5V1831.7z"/>
	<path class="st0" d="M222.8,1678.4c210,0,210-82.2,420-82.2v4.6c-210,0-210,82.2-420,82.2V1678.4z"/>
	<path class="st0" d="M222.8,1713.2c210,0,210,9,420,9v4.6c-210,0-210-9-420-9V1713.2z"/>
	<path class="st0" d="M222.8,1687.7c210,0,210-46.7,420-46.7v4.6c-210,0-210,46.7-420,46.7V1687.7z"/>
	<path class="st0" d="M222.8,1717.8c210,0,210,36,420,36v2.3c-210,0-210-36-420-36V1717.8z"/>
	<path class="st1" d="M222.8,1799.2c210,0,210-43,420-43v2.3c-210,0-210,43-420,43V1799.2z"/>
	<rect x="212.8" y="1678.4" class="st2" width="10" height="53.3"/>
	<rect x="212.8" y="1787.6" class="st2" width="10" height="53.3"/>
	<rect x="642.8" y="1685.9" class="st2" width="10" height="13.9"/>
	<rect x="642.8" y="1753.9" class="st2" width="10" height="4.6"/>
	<rect x="642.8" y="1866.7" class="st2" width="10" height="4.6"/>
	<rect x="642.8" y="1596.2" class="st2" width="10" height="4.6"/>
	<rect x="642.8" y="1618.6" class="st2" width="10" height="4.6"/>
	<rect x="642.8" y="1798.7" class="st2" width="10" height="20.9"/>
	<rect x="642.8" y="1837.4" class="st2" width="10" height="11.6"/>
	<rect x="642.8" y="1776.3" class="st2" width="10" height="4.6"/>
	<rect x="642.8" y="1889.1" class="st2" width="10" height="4.6"/>
	<rect x="642.8" y="1641" class="st2" width="10" height="4.6"/>
	<rect x="642.8" y="1911.6" class="st2" width="10" height="4.6"/>
	<rect x="642.8" y="1717.5" class="st2" width="10" height="18.6"/>
	<rect x="642.8" y="1663.4" class="st2" width="10" height="4.6"/>
	<path class="st3" d="M222.3,310.7c210,0,210,151.4,420,151.4v4.2c-210,0-210-151.4-420-151.4V310.7z"/>
	<path class="st4" d="M222.3,460.6c210,0,210-11.2,420-11.2v4.2c-210,0-210,11.2-420,11.2V460.6z"/>
	<path class="st3" d="M222.3,314.9c210,0,210,151.4,420,151.4v8.5c-210,0-210-151.4-420-151.4V314.9z"/>
	<path class="st1" d="M222.3,375.8c210,0,210-195.6,420-195.6v2.8c-210,0-210,195.6-420,195.6V375.8z"/>
	<path class="st1" d="M222.3,436.9c210,0,210-104.2,420-104.2v2.8c-210,0-210,104.2-420,104.2V436.9z"/>
	<path class="st1" d="M222.3,421.7c210,0,210-136.7,420-136.7v2.8c-210,0-210,136.7-420,136.7V421.7z"/>
	<path class="st1" d="M222.3,378.6c210,0,210-195.6,420-195.6v8.5c-210,0-210,195.6-420,195.6V378.6z"/>
	<path class="st3" d="M222.3,323.4c210,0,210,151.4,420,151.4v4.2c-210,0-210-151.4-420-151.4V323.4z"/>
	<path class="st4" d="M222.3,464.8c210,0,210-11.2,420-11.2v4.2c-210,0-210,11.2-420,11.2V464.8z"/>
	<path class="st3" d="M222.3,327.6c210,0,210,151.4,420,151.4v8.5c-210,0-210-151.4-420-151.4V327.6z"/>
	<path class="st0" d="M222.3,292.7c210,0,210,51.7,420,51.7v1.1c-210,0-210-51.7-420-51.7V292.7z"/>
	<path class="st0" d="M222.3,285.2c210,0,210,15,420,15v1.1c-210,0-210-15-420-15V285.2z"/>
	<path class="st0" d="M222.3,299.4c210,0,210,86.2,420,86.2v1.1c-210,0-210-86.2-420-86.2V299.4z"/>
	<path class="st0" d="M222.3,308.2c210,0,210,113.7,420,113.7v1.1c-210,0-210-113.7-420-113.7V308.2z"/>
	<path class="st1" d="M222.3,439.8c210,0,210-104.2,420-104.2v1.1c-210,0-210,104.2-420,104.2V439.8z"/>
	<path class="st1" d="M222.3,424.6c210,0,210-136.7,420-136.7v1.1c-210,0-210,136.7-420,136.7V424.6z"/>
	<path class="st1" d="M222.3,448.6c210,0,210-72.5,420-72.5v1.1c-210,0-210,72.5-420,72.5V448.6z"/>
	<path class="st1" d="M222.3,458.1c210,0,210-38.7,420-38.7v1.1c-210,0-210,38.7-420,38.7V458.1z"/>
	<path class="st1" d="M222.3,387.1c210,0,210-195.6,420-195.6v4.2c-210,0-210,195.6-420,195.6V387.1z"/>
	<path class="st1" d="M222.3,425.6c210,0,210-136.7,420-136.7v4.2c-210,0-210,136.7-420,136.7V425.6z"/>
	<path class="st1" d="M222.3,391.4c210,0,210-195.6,420-195.6v4.2c-210,0-210,195.6-420,195.6V391.4z"/>
	<path class="st1" d="M222.3,429.9c210,0,210-136.7,420-136.7v4.2c-210,0-210,136.7-420,136.7V429.9z"/>
	<path class="st0" d="M222.3,251.3c210,0,210-25.2,420-25.2v2.1c-210,0-210,25.2-420,25.2V251.3z"/>
	<path class="st0" d="M222.3,293.7c210,0,210,51.7,420,51.7v2.1c-210,0-210-51.7-420-51.7V293.7z"/>
	<path class="st1" d="M222.3,395.6c210,0,210-195.6,420-195.6v2.1c-210,0-210,195.6-420,195.6V395.6z"/>
	<path class="st1" d="M222.3,440.8c210,0,210-104.2,420-104.2v2.1c-210,0-210,104.2-420,104.2V440.8z"/>
	<path class="st0" d="M222.3,253.4c210,0,210-25.2,420-25.2v4.2c-210,0-210,25.2-420,25.2V253.4z"/>
	<path class="st1" d="M222.3,397.7c210,0,210-195.6,420-195.6v4.2c-210,0-210,195.6-420,195.6V397.7z"/>
	<path class="st1" d="M222.3,402c210,0,210-195.6,420-195.6v8.5c-210,0-210,195.6-420,195.6V402z"/>
	<path class="st1" d="M222.3,410.4c210,0,210-195.6,420-195.6v2.8c-210,0-210,195.6-420,195.6V410.4z"/>
	<path class="st1" d="M222.3,434.1c210,0,210-136.7,420-136.7v2.8c-210,0-210,136.7-420,136.7V434.1z"/>
	<path class="st1" d="M222.3,449.7c210,0,210-72.5,420-72.5v2.8c-210,0-210,72.5-420,72.5V449.7z"/>
	<path class="st1" d="M222.3,442.9c210,0,210-104.2,420-104.2v4.2c-210,0-210,104.2-420,104.2V442.9z"/>
	<path class="st1" d="M222.3,452.5c210,0,210-72.5,420-72.5v4.2c-210,0-210,72.5-420,72.5V452.5z"/>
	<path class="st3" d="M222.3,336.1c210,0,210,151.4,420,151.4v4.2c-210,0-210-151.4-420-151.4V336.1z"/>
	<path class="st4" d="M222.3,469.1c210,0,210-11.2,420-11.2v4.2c-210,0-210,11.2-420,11.2V469.1z"/>
	<path class="st0" d="M222.3,257.7c210,0,210-25.2,420-25.2v8.5c-210,0-210,25.2-420,25.2V257.7z"/>
	<path class="st0" d="M222.3,266.2c210,0,210-25.2,420-25.2v4.2c-210,0-210,25.2-420,25.2V266.2z"/>
	<path class="st0" d="M222.3,286.3c210,0,210,15,420,15v4.2c-210,0-210-15-420-15V286.3z"/>
	<path class="st0" d="M222.3,270.4c210,0,210-25.2,420-25.2v8.5c-210,0-210,25.2-420,25.2V270.4z"/>
	<path class="st1" d="M222.3,413.3c210,0,210-195.6,420-195.6v8.5c-210,0-210,195.6-420,195.6V413.3z"/>
	<path class="st0" d="M222.3,278.9c210,0,210-25.2,420-25.2v4.2c-210,0-210,25.2-420,25.2V278.9z"/>
	<path class="st0" d="M222.3,300.4c210,0,210,86.2,420,86.2v4.2c-210,0-210-86.2-420-86.2V300.4z"/>
	<path class="st0" d="M222.3,283.1c210,0,210-25.2,420-25.2v2.1c-210,0-210,25.2-420,25.2V283.1z"/>
	<path class="st0" d="M222.3,295.8c210,0,210,51.7,420,51.7v2.1c-210,0-210-51.7-420-51.7V295.8z"/>
	<path class="st0" d="M222.3,290.5c210,0,210,15,420,15v2.1c-210,0-210-15-420-15V290.5z"/>
	<path class="st0" d="M222.3,304.7c210,0,210,86.2,420,86.2v2.1c-210,0-210-86.2-420-86.2V304.7z"/>
	<path class="st3" d="M222.3,340.3c210,0,210,151.4,420,151.4v8.5c-210,0-210-151.4-420-151.4V340.3z"/>
	<path class="st0" d="M222.3,298c210,0,210,51.7,420,51.7v1.4c-210,0-210-51.7-420-51.7V298z"/>
	<path class="st0" d="M222.3,306.8c210,0,210,86.2,420,86.2v1.4c-210,0-210-86.2-420-86.2V306.8z"/>
	<path class="st0" d="M222.3,309.3c210,0,210,113.7,420,113.7v1.4c-210,0-210-113.7-420-113.7V309.3z"/>
	<path class="st1" d="M222.3,447.2c210,0,210-104.2,420-104.2v1.4c-210,0-210,104.2-420,104.2V447.2z"/>
	<path class="st1" d="M222.3,456.7c210,0,210-72.5,420-72.5v1.4c-210,0-210,72.5-420,72.5V456.7z"/>
	<path class="st1" d="M222.3,459.2c210,0,210-38.7,420-38.7v1.4c-210,0-210,38.7-420,38.7V459.2z"/>
	<rect x="212.3" y="251.3" class="st2" width="10" height="97.5"/>
	<rect x="212.3" y="375.8" class="st2" width="10" height="97.5"/>
	<rect x="642.3" y="180.2" class="st2" width="10" height="79.8"/>
	<rect x="642.3" y="332.7" class="st2" width="10" height="18.4"/>
	<rect x="642.3" y="285.1" class="st2" width="10" height="22.6"/>
	<rect x="642.3" y="376.1" class="st2" width="10" height="18.4"/>
	<rect x="642.3" y="419.4" class="st2" width="10" height="4.9"/>
	<rect x="642.3" y="449.4" class="st5" width="10" height="50.9"/>
	<path class="st0" d="M1026.1,696c210,0,210-50,420-50v5.3c-210,0-210,50-420,50V696z"/>
	<path class="st1" d="M1026.1,843.5c210,0,210-128.3,420-128.3v5.3c-210,0-210,128.3-420,128.3V843.5z"/>
	<path class="st0" d="M1026.1,791.9c210,0,210,63.9,420,63.9v10.7c-210,0-210-63.9-420-63.9V791.9z"/>
	<path class="st1" d="M1026.1,907.4c210,0,210-35.7,420-35.7v10.7c-210,0-210,35.7-420,35.7V907.4z"/>
	<path class="st1" d="M1026.1,918.1c210,0,210-35.7,420-35.7v10.7c-210,0-210,35.7-420,35.7V918.1z"/>
	<path class="st0" d="M1026.1,802.5c210,0,210,63.9,420,63.9v5.3c-210,0-210-63.9-420-63.9V802.5z"/>
	<path class="st1" d="M1026.1,928.7c210,0,210-35.7,420-35.7v5.3c-210,0-210,35.7-420,35.7V928.7z"/>
	<path class="st0" d="M1026.1,701.4c210,0,210-50,420-50V662c-210,0-210,50-420,50V701.4z"/>
	<path class="st0" d="M1026.1,765.3c210,0,210,1.6,420,1.6v5.3c-210,0-210-1.6-420-1.6V765.3z"/>
	<path class="st1" d="M1026.1,870.2c210,0,210-76.6,420-76.6v5.3c-210,0-210,76.6-420,76.6V870.2z"/>
	<path class="st1" d="M1026.1,934.1c210,0,210,0,420,0v10.7c-210,0-210,0-420,0V934.1z"/>
	<path class="st1" d="M1026.1,944.7c210,0,210,0,420,0v10.7c-210,0-210,0-420,0V944.7z"/>
	<path class="st0" d="M1026.1,712c210,0,210-50,420-50v5.3c-210,0-210,50-420,50V712z"/>
	<path class="st1" d="M1026.1,848.9c210,0,210-128.3,420-128.3v5.3c-210,0-210,128.3-420,128.3V848.9z"/>
	<path class="st0" d="M1026.1,770.6c210,0,210,1.6,420,1.6v5.3c-210,0-210-1.6-420-1.6V770.6z"/>
	<path class="st1" d="M1026.1,875.5c210,0,210-76.6,420-76.6v5.3c-210,0-210,76.6-420,76.6V875.5z"/>
	<path class="st1" d="M1026.1,880.8c210,0,210-76.6,420-76.6v10.7c-210,0-210,76.6-420,76.6V880.8z"/>
	<path class="st1" d="M1026.1,854.2c210,0,210-128.3,420-128.3v10.7c-210,0-210,128.3-420,128.3V854.2z"/>
	<path class="st1" d="M1026.1,955.4c210,0,210,0,420,0V966c-210,0-210,0-420,0V955.4z"/>
	<path class="st0" d="M1026.1,775.9c210,0,210,1.6,420,1.6v5.3c-210,0-210-1.6-420-1.6V775.9z"/>
	<path class="st1" d="M1026.1,891.5c210,0,210-76.6,420-76.6v5.3c-210,0-210,76.6-420,76.6V891.5z"/>
	<path class="st0" d="M1026.1,807.9c210,0,210,115.5,420,115.5v10.7c-210,0-210-115.5-420-115.5V807.9z"/>
	<path class="st0" d="M1026.1,717.3c210,0,210-50,420-50V678c-210,0-210,50-420,50V717.3z"/>
	<path class="st0" d="M1026.1,728c210,0,210-50,420-50v10.7c-210,0-210,50-420,50V728z"/>
	<path class="st1" d="M1026.1,896.8c210,0,210-76.6,420-76.6v10.7c-210,0-210,76.6-420,76.6V896.8z"/>
	<path class="st0" d="M1026.1,781.2c210,0,210,1.6,420,1.6v10.7c-210,0-210-1.6-420-1.6V781.2z"/>
	<path class="st0" d="M1026.1,738.6c210,0,210-50,420-50v10.7c-210,0-210,50-420,50V738.6z"/>
	<path class="st0" d="M1026.1,749.3c210,0,210-50,420-50v10.7c-210,0-210,50-420,50V749.3z"/>
	<path class="st0" d="M1026.1,759.9c210,0,210-50,420-50v5.3c-210,0-210,50-420,50V759.9z"/>
	<path class="st1" d="M1026.1,864.8c210,0,210-128.3,420-128.3v5.3c-210,0-210,128.3-420,128.3V864.8z"/>
	<rect x="1016.1" y="696" class="st2" width="10" height="122.5"/>
	<rect x="1016.1" y="843.5" class="st2" width="10" height="122.5"/>
	<rect x="1446.1" y="646" class="st2" width="10" height="95.9"/>
	<rect x="1446.1" y="923.4" class="st2" width="10" height="42.6"/>
	<rect x="1446.1" y="855.8" class="st2" width="10" height="42.6"/>
	<rect x="1446.1" y="766.9" class="st2" width="10" height="63.9"/>
	<path class="st0" d="M1026.6,325.1c210,0,210,74.6,420,74.6v5.3c-210,0-210-74.6-420-74.6V325.1z"/>
	<path class="st1" d="M1026.6,451.3c210,0,210-30.3,420-30.3v5.3c-210,0-210,30.3-420,30.3V451.3z"/>
	<path class="st0" d="M1026.6,229.2c210,0,210-50,420-50v10.7c-210,0-210,50-420,50V229.2z"/>
	<path class="st1" d="M1026.6,408.7c210,0,210-76.6,420-76.6v10.7c-210,0-210,76.6-420,76.6V408.7z"/>
	<path class="st1" d="M1026.6,456.6c210,0,210-30.3,420-30.3v10.7c-210,0-210,30.3-420,30.3V456.6z"/>
	<path class="st0" d="M1026.6,239.9c210,0,210-50,420-50v5.3c-210,0-210,50-420,50V239.9z"/>
	<path class="st1" d="M1026.6,376.7c210,0,210-122.9,420-122.9v5.3c-210,0-210,122.9-420,122.9V376.7z"/>
	<path class="st0" d="M1026.6,245.2c210,0,210-50,420-50v10.7c-210,0-210,50-420,50V245.2z"/>
	<path class="st0" d="M1026.6,330.4c210,0,210,74.6,420,74.6v5.3c-210,0-210-74.6-420-74.6V330.4z"/>
	<path class="st1" d="M1026.6,467.3c210,0,210-30.3,420-30.3v5.3c-210,0-210,30.3-420,30.3V467.3z"/>
	<path class="st1" d="M1026.6,382c210,0,210-122.9,420-122.9v10.7c-210,0-210,122.9-420,122.9V382z"/>
	<path class="st1" d="M1026.6,419.3c210,0,210-76.6,420-76.6v10.7c-210,0-210,76.6-420,76.6V419.3z"/>
	<path class="st0" d="M1026.6,346.4c210,0,210,142.2,420,142.2v5.3c-210,0-210-142.2-420-142.2V346.4z"/>
	<path class="st1" d="M1026.6,493.9c210,0,210,0,420,0v5.3c-210,0-210,0-420,0V493.9z"/>
	<path class="st0" d="M1026.6,303.8c210,0,210,7,420,7v5.3c-210,0-210-7-420-7V303.8z"/>
	<path class="st1" d="M1026.6,430c210,0,210-76.6,420-76.6v5.3c-210,0-210,76.6-420,76.6V430z"/>
	<path class="st1" d="M1026.6,435.3c210,0,210-76.6,420-76.6v10.7c-210,0-210,76.6-420,76.6V435.3z"/>
	<path class="st1" d="M1026.6,472.6c210,0,210-30.3,420-30.3v10.7c-210,0-210,30.3-420,30.3V472.6z"/>
	<path class="st1" d="M1026.6,392.7c210,0,210-122.9,420-122.9v10.7c-210,0-210,122.9-420,122.9V392.7z"/>
	<path class="st0" d="M1026.6,255.8c210,0,210-50,420-50v5.3c-210,0-210,50-420,50V255.8z"/>
	<path class="st1" d="M1026.6,403.3c210,0,210-122.9,420-122.9v5.3c-210,0-210,122.9-420,122.9V403.3z"/>
	<path class="st0" d="M1026.6,261.2c210,0,210-50,420-50v10.7c-210,0-210,50-420,50V261.2z"/>
	<path class="st0" d="M1026.6,271.8c210,0,210-50,420-50v10.7c-210,0-210,50-420,50V271.8z"/>
	<path class="st0" d="M1026.6,282.5c210,0,210-50,420-50v10.7c-210,0-210,50-420,50V282.5z"/>
	<path class="st1" d="M1026.6,483.2c210,0,210-30.3,420-30.3v10.7c-210,0-210,30.3-420,30.3V483.2z"/>
	<path class="st0" d="M1026.6,293.1c210,0,210-50,420-50v10.7c-210,0-210,50-420,50V293.1z"/>
	<path class="st0" d="M1026.6,335.7c210,0,210,74.6,420,74.6V421c-210,0-210-74.6-420-74.6V335.7z"/>
	<path class="st0" d="M1026.6,309.1c210,0,210,7,420,7v10.7c-210,0-210-7-420-7V309.1z"/>
	<path class="st0" d="M1026.6,319.8c210,0,210,7,420,7v5.3c-210,0-210-7-420-7V319.8z"/>
	<path class="st1" d="M1026.6,446c210,0,210-76.6,420-76.6v5.3c-210,0-210,76.6-420,76.6V446z"/>
	<rect x="1446.6" y="179.2" class="st2" width="10" height="106.5"/>
	<rect x="1446.6" y="310.7" class="st2" width="10" height="63.9"/>
	<rect x="1446.6" y="399.7" class="st2" width="10" height="63.9"/>
	<rect x="1446.6" y="488.6" class="st2" width="10" height="10.7"/>
	<rect x="1016.6" y="229.2" class="st2" width="10" height="122.5"/>
	<rect x="1016.6" y="376.7" class="st2" width="10" height="122.5"/>
	<path class="st0" d="M1027,1210.6c102.5,0,102.5-17.3,205-17.3v2.9c-102.5,0-102.5,17.3-205,17.3V1210.6z"/>
	<path class="st1" d="M1027,1295.3c102.5,0,102.5-145,205-145v2.9c-102.5,0-102.5,145-205,145V1295.3z"/>
	<path class="st4" d="M1242,1224.8c102.5,0,102.5-9.2,205-9.2v5.7c-102.5,0-102.5,9.2-205,9.2V1224.8z"/>
	<path class="st0" d="M1027,1213.4c102.5,0,102.5-17.3,205-17.3v5.7c-102.5,0-102.5,17.3-205,17.3V1213.4z"/>
	<path class="st3" d="M1242,1230.5c102.5,0,102.5-9.2,205-9.2v5.7c-102.5,0-102.5,9.2-205,9.2V1230.5z"/>
	<path class="st3" d="M1242,1236.3c102.5,0,102.5-9.2,205-9.2v5.7c-102.5,0-102.5,9.2-205,9.2V1236.3z"/>
	<path class="st1" d="M1027,1338.3c102.5,0,102.5-28.3,205-28.3v5.7c-102.5,0-102.5,28.3-205,28.3V1338.3z"/>
	<path class="st1" d="M1242,1310c102.5,0,102.5-179.6,205-179.6v1.9c-102.5,0-102.5,179.6-205,179.6V1310z"/>
	<path class="st1" d="M1242,1324.8c102.5,0,102.5-33.4,205-33.4v1.9c-102.5,0-102.5,33.4-205,33.4V1324.8z"/>
	<path class="st1" d="M1242,1317.4c102.5,0,102.5-136.2,205-136.2v1.9c-102.5,0-102.5,136.2-205,136.2V1317.4z"/>
	<path class="st1" d="M1027,1298.1c102.5,0,102.5-145,205-145v5.7c-102.5,0-102.5,145-205,145V1298.1z"/>
	<path class="st1" d="M1242,1150.2c102.5,0,102.5-86.5,205-86.5v5.7c-102.5,0-102.5,86.5-205,86.5V1150.2z"/>
	<path class="st0" d="M1027,1219.2c102.5,0,102.5-17.3,205-17.3v2.9c-102.5,0-102.5,17.3-205,17.3V1219.2z"/>
	<path class="st1" d="M1027,1303.9c102.5,0,102.5-145,205-145v2.9c-102.5,0-102.5,145-205,145V1303.9z"/>
	<path class="st4" d="M1242,1242c102.5,0,102.5-9.2,205-9.2v5.7c-102.5,0-102.5,9.2-205,9.2V1242z"/>
	<path class="st0" d="M1027,1222c102.5,0,102.5-17.3,205-17.3v5.7c-102.5,0-102.5,17.3-205,17.3V1222z"/>
	<path class="st3" d="M1242,1247.7c102.5,0,102.5-9.2,205-9.2v5.7c-102.5,0-102.5,9.2-205,9.2V1247.7z"/>
	<path class="st0" d="M1027,1227.8c102.5,0,102.5-17.3,205-17.3v2.9c-102.5,0-102.5,17.3-205,17.3V1227.8z"/>
	<path class="st1" d="M1027,1306.7c102.5,0,102.5-145,205-145v2.9c-102.5,0-102.5,145-205,145V1306.7z"/>
	<path class="st1" d="M1242,1264.9c102.5,0,102.5,21.5,205,21.5v1.4c-102.5,0-102.5-21.5-205-21.5V1264.9z"/>
	<path class="st1" d="M1242,1216.9c102.5,0,102.5-43.5,205-43.5v1.4c-102.5,0-102.5,43.5-205,43.5V1216.9z"/>
	<path class="st1" d="M1242,1274.3c102.5,0,102.5,85.6,205,85.6v1.4c-102.5,0-102.5-85.6-205-85.6V1274.3z"/>
	<path class="st1" d="M1242,1270c102.5,0,102.5,56.8,205,56.8v1.4c-102.5,0-102.5-56.8-205-56.8V1270z"/>
	<path class="st1" d="M1027,1344c102.5,0,102.5-28.3,205-28.3v5.7c-102.5,0-102.5,28.3-205,28.3V1344z"/>
	<path class="st1" d="M1242,1311.9c102.5,0,102.5-179.6,205-179.6v2.9c-102.5,0-102.5,179.6-205,179.6V1311.9z"/>
	<path class="st1" d="M1242,1319.3c102.5,0,102.5-136.2,205-136.2v2.9c-102.5,0-102.5,136.2-205,136.2V1319.3z"/>
	<path class="st1" d="M1242,1156c102.5,0,102.5-86.5,205-86.5v2.9c-102.5,0-102.5,86.5-205,86.5V1156z"/>
	<path class="st1" d="M1242,1275.7c102.5,0,102.5,85.6,205,85.6v2.9c-102.5,0-102.5-85.6-205-85.6V1275.7z"/>
	<path class="st1" d="M1027,1309.6c102.5,0,102.5-145,205-145v5.7c-102.5,0-102.5,145-205,145V1309.6z"/>
	<path class="st1" d="M1242,1158.8c102.5,0,102.5-86.5,205-86.5v2.9c-102.5,0-102.5,86.5-205,86.5V1158.8z"/>
	<path class="st1" d="M1242,1218.3c102.5,0,102.5-43.5,205-43.5v2.9c-102.5,0-102.5,43.5-205,43.5V1218.3z"/>
	<path class="st0" d="M1027,1265c102.5,0,102.5,95.8,205,95.8v2.9c-102.5,0-102.5-95.8-205-95.8V1265z"/>
	<path class="st1" d="M1027,1355.5c102.5,0,102.5-0.4,205-0.4v2.9c-102.5,0-102.5,0.4-205,0.4V1355.5z"/>
	<path class="st1" d="M1242,1355.1c102.5,0,102.5-214.4,205-214.4v2.9c-102.5,0-102.5,214.4-205,214.4V1355.1z"/>
	<path class="st1" d="M1242,1370.4c102.5,0,102.5-76.3,205-76.3v2.9c-102.5,0-102.5,76.3-205,76.3V1370.4z"/>
	<path class="st0" d="M1027,1230.6c102.5,0,102.5-17.3,205-17.3v2.9c-102.5,0-102.5,17.3-205,17.3V1230.6z"/>
	<path class="st1" d="M1027,1315.3c102.5,0,102.5-145,205-145v2.9c-102.5,0-102.5,145-205,145V1315.3z"/>
	<path class="st1" d="M1242,1161.7c102.5,0,102.5-86.5,205-86.5v5.7c-102.5,0-102.5,86.5-205,86.5V1161.7z"/>
	<path class="st1" d="M1027,1318.2c102.5,0,102.5-145,205-145v5.7c-102.5,0-102.5,145-205,145V1318.2z"/>
	<path class="st1" d="M1242,1167.4c102.5,0,102.5-86.5,205-86.5v5.7c-102.5,0-102.5,86.5-205,86.5V1167.4z"/>
	<path class="st1" d="M1027,1349.7c102.5,0,102.5-28.3,205-28.3v5.7c-102.5,0-102.5,28.3-205,28.3V1349.7z"/>
	<path class="st1" d="M1242,1314.8c102.5,0,102.5-179.6,205-179.6v1.9c-102.5,0-102.5,179.6-205,179.6V1314.8z"/>
	<path class="st1" d="M1242,1322.2c102.5,0,102.5-136.2,205-136.2v1.9c-102.5,0-102.5,136.2-205,136.2V1322.2z"/>
	<path class="st1" d="M1242,1327.5c102.5,0,102.5,43.2,205,43.2v1.9c-102.5,0-102.5-43.2-205-43.2V1327.5z"/>
	<path class="st1" d="M1242,1173.2c102.5,0,102.5-86.5,205-86.5v2.9c-102.5,0-102.5,86.5-205,86.5V1173.2z"/>
	<path class="st1" d="M1242,1271.4c102.5,0,102.5,56.8,205,56.8v2.9c-102.5,0-102.5-56.8-205-56.8V1271.4z"/>
	<path class="st1" d="M1242,1176c102.5,0,102.5-86.5,205-86.5v5.7c-102.5,0-102.5,86.5-205,86.5V1176z"/>
	<path class="st1" d="M1027,1323.9c102.5,0,102.5-145,205-145v5.7c-102.5,0-102.5,145-205,145V1323.9z"/>
	<path class="st1" d="M1242,1266.4c102.5,0,102.5,21.5,205,21.5v2.9c-102.5,0-102.5-21.5-205-21.5V1266.4z"/>
	<path class="st1" d="M1242,1278.6c102.5,0,102.5,85.6,205,85.6v2.9c-102.5,0-102.5-85.6-205-85.6V1278.6z"/>
	<path class="st0" d="M1027,1233.5c102.5,0,102.5-17.3,205-17.3v2.9c-102.5,0-102.5,17.3-205,17.3V1233.5z"/>
	<path class="st1" d="M1027,1329.7c102.5,0,102.5-145,205-145v2.9c-102.5,0-102.5,145-205,145V1329.7z"/>
	<path class="st4" d="M1242,1253.5c102.5,0,102.5-9.2,205-9.2v5.7c-102.5,0-102.5,9.2-205,9.2V1253.5z"/>
	<path class="st0" d="M1027,1236.4c102.5,0,102.5-17.3,205-17.3v5.7c-102.5,0-102.5,17.3-205,17.3V1236.4z"/>
	<path class="st0" d="M1242,1181.8c102.5,0,102.5-86.5,205-86.5v5.7c-102.5,0-102.5,86.5-205,86.5V1181.8z"/>
	<path class="st0" d="M1027,1242.1c102.5,0,102.5-17.3,205-17.3v5.7c-102.5,0-102.5,17.3-205,17.3V1242.1z"/>
	<path class="st0" d="M1242,1187.5c102.5,0,102.5-86.5,205-86.5v2.9c-102.5,0-102.5,86.5-205,86.5V1187.5z"/>
	<path class="st0" d="M1242,1221.2c102.5,0,102.5-43.5,205-43.5v2.9c-102.5,0-102.5,43.5-205,43.5V1221.2z"/>
	<path class="st0" d="M1027,1247.8c102.5,0,102.5-17.3,205-17.3v5.7c-102.5,0-102.5,17.3-205,17.3V1247.8z"/>
	<path class="st0" d="M1242,1190.4c102.5,0,102.5-86.5,205-86.5v5.7c-102.5,0-102.5,86.5-205,86.5V1190.4z"/>
	<path class="st1" d="M1027,1332.5c102.5,0,102.5-145,205-145v5.7c-102.5,0-102.5,145-205,145V1332.5z"/>
	<path class="st1" d="M1242,1196.1c102.5,0,102.5-86.5,205-86.5v5.7c-102.5,0-102.5,86.5-205,86.5V1196.1z"/>
	<path class="st0" d="M1027,1253.6c102.5,0,102.5-17.3,205-17.3v5.7c-102.5,0-102.5,17.3-205,17.3V1253.6z"/>
	<path class="st0" d="M1242,1201.8c102.5,0,102.5-86.5,205-86.5v2.9c-102.5,0-102.5,86.5-205,86.5V1201.8z"/>
	<path class="st0" d="M1242,1281.4c102.5,0,102.5,85.6,205,85.6v2.9c-102.5,0-102.5-85.6-205-85.6V1281.4z"/>
	<path class="st0" d="M1242,1204.7c102.5,0,102.5-86.5,205-86.5v5.7c-102.5,0-102.5,86.5-205,86.5V1204.7z"/>
	<path class="st0" d="M1027,1259.3c102.5,0,102.5-17.3,205-17.3v2.9c-102.5,0-102.5,17.3-205,17.3V1259.3z"/>
	<path class="st0" d="M1027,1262.2c102.5,0,102.5,65,205,65v2.9c-102.5,0-102.5-65-205-65V1262.2z"/>
	<path class="st6" d="M1242,1210.5c102.5,0,102.5-86.5,205-86.5v0.7c-102.5,0-102.5,86.5-205,86.5V1210.5z"/>
	<path class="st6" d="M1242,1269.2c102.5,0,102.5,21.5,205,21.5v0.7c-102.5,0-102.5-21.5-205-21.5V1269.2z"/>
	<path class="st6" d="M1242,1224.1c102.5,0,102.5-43.5,205-43.5v0.7c-102.5,0-102.5,43.5-205,43.5V1224.1z"/>
	<path class="st6" d="M1242,1284.3c102.5,0,102.5,85.6,205,85.6v0.7c-102.5,0-102.5-85.6-205-85.6V1284.3z"/>
	<path class="st6" d="M1242,1316.7c102.5,0,102.5-179.6,205-179.6v0.7c-102.5,0-102.5,179.6-205,179.6V1316.7z"/>
	<path class="st6" d="M1242,1326.7c102.5,0,102.5-33.4,205-33.4v0.7c-102.5,0-102.5,33.4-205,33.4V1326.7z"/>
	<path class="st6" d="M1242,1324.1c102.5,0,102.5-136.2,205-136.2v0.7c-102.5,0-102.5,136.2-205,136.2V1324.1z"/>
	<path class="st6" d="M1242,1329.4c102.5,0,102.5,43.2,205,43.2v0.7c-102.5,0-102.5-43.2-205-43.2V1329.4z"/>
	<path class="st0" d="M1242,1211.2c102.5,0,102.5-86.5,205-86.5v5.7c-102.5,0-102.5,86.5-205,86.5V1211.2z"/>
	<path class="st0" d="M1027,1267.9c102.5,0,102.5,95.8,205,95.8v5.7c-102.5,0-102.5-95.8-205-95.8V1267.9z"/>
	<path class="st3" d="M1242,1364.6c102.5,0,102.5-108.9,205-108.9v5.7c-102.5,0-102.5,108.9-205,108.9V1364.6z"/>
	<path class="st3" d="M1242,1259.2c102.5,0,102.5-9.2,205-9.2v5.7c-102.5,0-102.5,9.2-205,9.2V1259.2z"/>
	<path class="st0" d="M1027,1273.6c102.5,0,102.5,95.8,205,95.8v2.9c-102.5,0-102.5-95.8-205-95.8V1273.6z"/>
	<path class="st1" d="M1027,1358.4c102.5,0,102.5-0.4,205-0.4v2.9c-102.5,0-102.5,0.4-205,0.4V1358.4z"/>
	<path class="st1" d="M1242,1373.2c102.5,0,102.5-76.3,205-76.3v1.9c-102.5,0-102.5,76.3-205,76.3V1373.2z"/>
	<path class="st1" d="M1242,1381.8c102.5,0,102.5-5.7,205-5.7v1.9c-102.5,0-102.5,5.7-205,5.7V1381.8z"/>
	<path class="st1" d="M1242,1378c102.5,0,102.5-47,205-47v1.9c-102.5,0-102.5,47-205,47V1378z"/>
	<path class="st1" d="M1242,1358c102.5,0,102.5-214.4,205-214.4v1.9c-102.5,0-102.5,214.4-205,214.4V1358z"/>
	<path class="st1" d="M1242,1362.7c102.5,0,102.5-174.1,205-174.1v1.9c-102.5,0-102.5,174.1-205,174.1V1362.7z"/>
	<path class="st1" d="M1242,1379.9c102.5,0,102.5-47,205-47v1.9c-102.5,0-102.5,47-205,47V1379.9z"/>
	<path class="st1" d="M1242,1359.9c102.5,0,102.5-214.4,205-214.4v2.9c-102.5,0-102.5,214.4-205,214.4V1359.9z"/>
	<path class="st1" d="M1242,1375.2c102.5,0,102.5-76.3,205-76.3v2.9c-102.5,0-102.5,76.3-205,76.3V1375.2z"/>
	<rect x="1017" y="1210.6" class="st2" width="10" height="66"/>
	<rect x="1017" y="1295.3" class="st2" width="10" height="66"/>
	<rect x="1447" y="1063.8" class="st2" width="10" height="84.6"/>
	<rect x="1447" y="1286.4" class="st2" width="10" height="15.3"/>
	<rect x="1447" y="1173.4" class="st2" width="10" height="17.2"/>
	<rect x="1447" y="1359.9" class="st2" width="10" height="23.9"/>
	<rect x="1447" y="1326.7" class="st2" width="10" height="8.1"/>
	<rect x="1232.2" y="1455.7" class="st2" width="10" height="5.7"/>
	<rect x="1232.2" y="1425" class="st2" width="10" height="5.7"/>
	<rect x="1232" y="1150.2" class="st2" width="10" height="134.8"/>
	<rect x="1232" y="1310" class="st2" width="10" height="20.1"/>
	<rect x="1232" y="1355.1" class="st2" width="10" height="28.7"/>
	<rect x="1447" y="1215.6" class="st7" width="10" height="45.9"/>
	<path class="st0" d="M223.1,1214.4c102.5,0,102.5,24.6,205,24.6v3c-102.5,0-102.5-24.6-205-24.6V1214.4z"/>
	<path class="st1" d="M223.1,1303.5c102.5,0,102.5-111.8,205-111.8v3c-102.5,0-102.5,111.8-205,111.8V1303.5z"/>
	<path class="st4" d="M438.1,1251.3c102.5,0,102.5,2.2,205,2.2v5.9c-102.5,0-102.5-2.2-205-2.2V1251.3z"/>
	<path class="st0" d="M223.1,1217.4c102.5,0,102.5,24.6,205,24.6v5.9c-102.5,0-102.5-24.6-205-24.6V1217.4z"/>
	<path class="st3" d="M438.1,1257.2c102.5,0,102.5,2.2,205,2.2v5.9c-102.5,0-102.5-2.2-205-2.2V1257.2z"/>
	<path class="st3" d="M438.1,1387.1c102.5,0,102.5-98.1,205-98.1v5.9c-102.5,0-102.5,98.1-205,98.1V1387.1z"/>
	<path class="st1" d="M223.1,1306.5c102.5,0,102.5-111.8,205-111.8v3c-102.5,0-102.5,111.8-205,111.8V1306.5z"/>
	<path class="st1" d="M223.1,1350.8c102.5,0,102.5-15.9,205-15.9v3c-102.5,0-102.5,15.9-205,15.9V1350.8z"/>
	<path class="st8" d="M438.1,1191.7c102.5,0,102.5-100,205-100v1c-102.5,0-102.5,100-205,100V1191.7z"/>
	<path class="st8" d="M438.1,1286.7c102.5,0,102.5,33.1,205,33.1v1c-102.5,0-102.5-33.1-205-33.1V1286.7z"/>
	<path class="st8" d="M438.1,1294.1c102.5,0,102.5,66.5,205,66.5v1c-102.5,0-102.5-66.5-205-66.5V1294.1z"/>
	<path class="st8" d="M438.1,1334.9c102.5,0,102.5-190,205-190v1c-102.5,0-102.5,190-205,190V1334.9z"/>
	<path class="st8" d="M438.1,1393c102.5,0,102.5-65.8,205-65.8v1c-102.5,0-102.5,65.8-205,65.8V1393z"/>
	<path class="st8" d="M438.1,1401.4c102.5,0,102.5-30.4,205-30.4v1c-102.5,0-102.5,30.4-205,30.4V1401.4z"/>
	<path class="st1" d="M223.1,1309.4c102.5,0,102.5-111.8,205-111.8v5.9c-102.5,0-102.5,111.8-205,111.8V1309.4z"/>
	<path class="st1" d="M438.1,1192.7c102.5,0,102.5-100,205-100v5.9c-102.5,0-102.5,100-205,100V1192.7z"/>
	<path class="st0" d="M223.1,1223.3c102.5,0,102.5,24.6,205,24.6v3c-102.5,0-102.5-24.6-205-24.6V1223.3z"/>
	<path class="st1" d="M223.1,1315.3c102.5,0,102.5-111.8,205-111.8v3c-102.5,0-102.5,111.8-205,111.8V1315.3z"/>
	<path class="st4" d="M438.1,1263.1c102.5,0,102.5,2.2,205,2.2v5.9c-102.5,0-102.5-2.2-205-2.2V1263.1z"/>
	<path class="st0" d="M223.1,1226.2c102.5,0,102.5,24.6,205,24.6v3c-102.5,0-102.5-24.6-205-24.6V1226.2z"/>
	<path class="st1" d="M223.1,1318.3c102.5,0,102.5-111.8,205-111.8v3c-102.5,0-102.5,111.8-205,111.8V1318.3z"/>
	<path class="st1" d="M438.1,1287.7c102.5,0,102.5,33.1,205,33.1v1.5c-102.5,0-102.5-33.1-205-33.1V1287.7z"/>
	<path class="st1" d="M438.1,1295.1c102.5,0,102.5,66.5,205,66.5v1.5c-102.5,0-102.5-66.5-205-66.5V1295.1z"/>
	<path class="st1" d="M438.1,1244.9c102.5,0,102.5-41,205-41v1.5c-102.5,0-102.5,41-205,41V1244.9z"/>
	<path class="st1" d="M438.1,1304.5c102.5,0,102.5,98.9,205,98.9v1.5c-102.5,0-102.5-98.9-205-98.9V1304.5z"/>
	<path class="st1" d="M223.1,1321.2c102.5,0,102.5-111.8,205-111.8v3c-102.5,0-102.5,111.8-205,111.8V1321.2z"/>
	<path class="st1" d="M223.1,1353.7c102.5,0,102.5-15.9,205-15.9v3c-102.5,0-102.5,15.9-205,15.9V1353.7z"/>
	<path class="st1" d="M438.1,1198.6c102.5,0,102.5-100,205-100v1.5c-102.5,0-102.5,100-205,100V1198.6z"/>
	<path class="st1" d="M438.1,1296.6c102.5,0,102.5,66.5,205,66.5v1.5c-102.5,0-102.5-66.5-205-66.5V1296.6z"/>
	<path class="st1" d="M438.1,1335.9c102.5,0,102.5-190,205-190v1.5c-102.5,0-102.5,190-205,190V1335.9z"/>
	<path class="st1" d="M438.1,1402.3c102.5,0,102.5-30.4,205-30.4v1.5c-102.5,0-102.5,30.4-205,30.4V1402.3z"/>
	<path class="st1" d="M438.1,1337.3c102.5,0,102.5-190,205-190v3c-102.5,0-102.5,190-205,190V1337.3z"/>
	<path class="st1" d="M438.1,1368.9c102.5,0,102.5-158.6,205-158.6v3c-102.5,0-102.5,158.6-205,158.6V1368.9z"/>
	<path class="st1" d="M223.1,1324.2c102.5,0,102.5-111.8,205-111.8v3c-102.5,0-102.5,111.8-205,111.8V1324.2z"/>
	<path class="st1" d="M223.1,1356.7c102.5,0,102.5-15.9,205-15.9v3c-102.5,0-102.5,15.9-205,15.9V1356.7z"/>
	<path class="st1" d="M438.1,1200.1c102.5,0,102.5-100,205-100v1.5c-102.5,0-102.5,100-205,100V1200.1z"/>
	<path class="st1" d="M438.1,1298.1c102.5,0,102.5,66.5,205,66.5v1.5c-102.5,0-102.5-66.5-205-66.5V1298.1z"/>
	<path class="st1" d="M438.1,1340.3c102.5,0,102.5-190,205-190v1.5c-102.5,0-102.5,190-205,190V1340.3z"/>
	<path class="st1" d="M438.1,1403.8c102.5,0,102.5-30.4,205-30.4v1.5c-102.5,0-102.5,30.4-205,30.4V1403.8z"/>
	<path class="st0" d="M223.1,1229.2c102.5,0,102.5,24.6,205,24.6v3c-102.5,0-102.5-24.6-205-24.6V1229.2z"/>
	<path class="st1" d="M223.1,1327.1c102.5,0,102.5-111.8,205-111.8v3c-102.5,0-102.5,111.8-205,111.8V1327.1z"/>
	<path class="st1" d="M438.1,1201.5c102.5,0,102.5-100,205-100v3c-102.5,0-102.5,100-205,100V1201.5z"/>
	<path class="st1" d="M438.1,1289.2c102.5,0,102.5,33.1,205,33.1v3c-102.5,0-102.5-33.1-205-33.1V1289.2z"/>
	<path class="st0" d="M223.1,1232.1c102.5,0,102.5,24.6,205,24.6v3c-102.5,0-102.5-24.6-205-24.6V1232.1z"/>
	<path class="st1" d="M223.1,1330.1c102.5,0,102.5-111.8,205-111.8v3c-102.5,0-102.5,111.8-205,111.8V1330.1z"/>
	<path class="st1" d="M438.1,1204.5c102.5,0,102.5-100,205-100v5.9c-102.5,0-102.5,100-205,100V1204.5z"/>
	<path class="st1" d="M223.1,1333.1c102.5,0,102.5-111.8,205-111.8v5.9c-102.5,0-102.5,111.8-205,111.8V1333.1z"/>
	<path class="st1" d="M438.1,1210.4c102.5,0,102.5-100,205-100v5.9c-102.5,0-102.5,100-205,100V1210.4z"/>
	<path class="st1" d="M223.1,1359.6c102.5,0,102.5-15.9,205-15.9v5.9c-102.5,0-102.5,15.9-205,15.9V1359.6z"/>
	<path class="st1" d="M438.1,1341.8c102.5,0,102.5-190,205-190v2c-102.5,0-102.5,190-205,190V1341.8z"/>
	<path class="st1" d="M438.1,1405.3c102.5,0,102.5-30.4,205-30.4v2c-102.5,0-102.5,30.4-205,30.4V1405.3z"/>
	<path class="st1" d="M438.1,1371.8c102.5,0,102.5-158.6,205-158.6v2c-102.5,0-102.5,158.6-205,158.6V1371.8z"/>
	<path class="st1" d="M438.1,1343.7c102.5,0,102.5-190,205-190v3c-102.5,0-102.5,190-205,190V1343.7z"/>
	<path class="st1" d="M438.1,1408.7c102.5,0,102.5,0,205,0v3c-102.5,0-102.5,0-205,0V1408.7z"/>
	<path class="st1" d="M438.1,1216.3c102.5,0,102.5-100,205-100v3c-102.5,0-102.5,100-205,100V1216.3z"/>
	<path class="st1" d="M438.1,1346.7c102.5,0,102.5-190,205-190v3c-102.5,0-102.5,190-205,190V1346.7z"/>
	<path class="st1" d="M223.1,1365.6c102.5,0,102.5-15.9,205-15.9v5.9c-102.5,0-102.5,15.9-205,15.9V1365.6z"/>
	<path class="st1" d="M438.1,1394c102.5,0,102.5-65.8,205-65.8v3c-102.5,0-102.5,65.8-205,65.8V1394z"/>
	<path class="st1" d="M438.1,1373.8c102.5,0,102.5-158.6,205-158.6v3c-102.5,0-102.5,158.6-205,158.6V1373.8z"/>
	<path class="st0" d="M223.1,1235.1c102.5,0,102.5,24.6,205,24.6v3c-102.5,0-102.5-24.6-205-24.6V1235.1z"/>
	<path class="st1" d="M223.1,1339c102.5,0,102.5-111.8,205-111.8v3c-102.5,0-102.5,111.8-205,111.8V1339z"/>
	<path class="st4" d="M438.1,1269c102.5,0,102.5,2.2,205,2.2v5.9c-102.5,0-102.5-2.2-205-2.2V1269z"/>
	<path class="st0" d="M223.1,1238.1c102.5,0,102.5,24.6,205,24.6v5.9c-102.5,0-102.5-24.6-205-24.6V1238.1z"/>
	<path class="st0" d="M438.1,1219.3c102.5,0,102.5-100,205-100v5.9c-102.5,0-102.5,100-205,100V1219.3z"/>
	<path class="st0" d="M438.1,1349.6c102.5,0,102.5-190,205-190v3c-102.5,0-102.5,190-205,190V1349.6z"/>
	<path class="st0" d="M438.1,1376.7c102.5,0,102.5-158.6,205-158.6v3c-102.5,0-102.5,158.6-205,158.6V1376.7z"/>
	<path class="st0" d="M223.1,1244c102.5,0,102.5,24.6,205,24.6v5.9c-102.5,0-102.5-24.6-205-24.6V1244z"/>
	<path class="st0" d="M438.1,1225.2c102.5,0,102.5-100,205-100v3c-102.5,0-102.5,100-205,100V1225.2z"/>
	<path class="st0" d="M438.1,1299.5c102.5,0,102.5,66.5,205,66.5v3c-102.5,0-102.5-66.5-205-66.5V1299.5z"/>
	<path class="st0" d="M223.1,1249.9c102.5,0,102.5,24.6,205,24.6v5.9c-102.5,0-102.5-24.6-205-24.6V1249.9z"/>
	<path class="st0" d="M438.1,1228.1c102.5,0,102.5-100,205-100v5.9c-102.5,0-102.5,100-205,100V1228.1z"/>
	<path class="st1" d="M223.1,1341.9c102.5,0,102.5-111.8,205-111.8v5.9c-102.5,0-102.5,111.8-205,111.8V1341.9z"/>
	<path class="st1" d="M438.1,1234c102.5,0,102.5-100,205-100v5.9c-102.5,0-102.5,100-205,100V1234z"/>
	<path class="st0" d="M223.1,1255.8c102.5,0,102.5,24.6,205,24.6v5.9c-102.5,0-102.5-24.6-205-24.6V1255.8z"/>
	<path class="st0" d="M438.1,1240c102.5,0,102.5-100,205-100v3c-102.5,0-102.5,100-205,100V1240z"/>
	<path class="st0" d="M438.1,1246.4c102.5,0,102.5-41,205-41v3c-102.5,0-102.5,41-205,41V1246.4z"/>
	<path class="st0" d="M438.1,1379.7c102.5,0,102.5-158.6,205-158.6v5.9c-102.5,0-102.5,158.6-205,158.6V1379.7z"/>
	<path class="st0" d="M438.1,1352.6c102.5,0,102.5-190,205-190v5.9c-102.5,0-102.5,190-205,190V1352.6z"/>
	<path class="st0" d="M223.1,1270.6c102.5,0,102.5,85,205,85v5.9c-102.5,0-102.5-85-205-85V1270.6z"/>
	<path class="st0" d="M438.1,1358.5c102.5,0,102.5-190,205-190v1.5c-102.5,0-102.5,190-205,190V1358.5z"/>
	<path class="st0" d="M438.1,1396.9c102.5,0,102.5-65.8,205-65.8v1.5c-102.5,0-102.5,65.8-205,65.8V1396.9z"/>
	<path class="st0" d="M438.1,1407.3c102.5,0,102.5-30.4,205-30.4v1.5c-102.5,0-102.5,30.4-205,30.4V1407.3z"/>
	<path class="st0" d="M438.1,1385.6c102.5,0,102.5-158.6,205-158.6v1.5c-102.5,0-102.5,158.6-205,158.6V1385.6z"/>
	<path class="st0" d="M438.1,1360c102.5,0,102.5-190,205-190v5.9c-102.5,0-102.5,190-205,190V1360z"/>
	<path class="st0" d="M223.1,1261.7c102.5,0,102.5,24.6,205,24.6v5.9c-102.5,0-102.5-24.6-205-24.6V1261.7z"/>
	<path class="st3" d="M438.1,1274.9c102.5,0,102.5,2.2,205,2.2v5.9c-102.5,0-102.5-2.2-205-2.2V1274.9z"/>
	<path class="st3" d="M438.1,1280.8c102.5,0,102.5,2.2,205,2.2v5.9c-102.5,0-102.5-2.2-205-2.2V1280.8z"/>
	<path class="st0" d="M223.1,1267.6c102.5,0,102.5,24.6,205,24.6v3c-102.5,0-102.5-24.6-205-24.6V1267.6z"/>
	<path class="st1" d="M223.1,1347.8c102.5,0,102.5-111.8,205-111.8v3c-102.5,0-102.5,111.8-205,111.8V1347.8z"/>
	<path class="st1" d="M438.1,1292.1c102.5,0,102.5,33.1,205,33.1v2c-102.5,0-102.5-33.1-205-33.1V1292.1z"/>
	<path class="st1" d="M438.1,1249.3c102.5,0,102.5-41,205-41v2c-102.5,0-102.5,41-205,41V1249.3z"/>
	<path class="st1" d="M438.1,1305.9c102.5,0,102.5,98.9,205,98.9v2c-102.5,0-102.5-98.9-205-98.9V1305.9z"/>
	<path class="st1" d="M438.1,1242.9c102.5,0,102.5-100,205-100v2c-102.5,0-102.5,100-205,100V1242.9z"/>
	<path class="st1" d="M438.1,1302.5c102.5,0,102.5,66.5,205,66.5v2c-102.5,0-102.5-66.5-205-66.5V1302.5z"/>
	<path class="st1" d="M438.1,1307.9c102.5,0,102.5,98.9,205,98.9v2c-102.5,0-102.5-98.9-205-98.9V1307.9z"/>
	<path class="st1" d="M438.1,1365.9c102.5,0,102.5-190,205-190v3c-102.5,0-102.5,190-205,190V1365.9z"/>
	<path class="st1" d="M438.1,1398.4c102.5,0,102.5-65.8,205-65.8v3c-102.5,0-102.5,65.8-205,65.8V1398.4z"/>
	<rect x="213.1" y="1214.4" class="st2" width="10" height="62"/>
	<rect x="213.1" y="1303.5" class="st2" width="10" height="68"/>
	<rect x="428.1" y="1191.7" class="st2" width="10" height="118.2"/>
	<rect x="428.1" y="1334.9" class="st2" width="10" height="76.8"/>
	<rect x="643.1" y="1091.7" class="st2" width="10" height="87.2"/>
	<rect x="643.1" y="1319.8" class="st2" width="10" height="15.8"/>
	<rect x="643.1" y="1360.6" class="st2" width="10" height="17.7"/>
	<rect x="643.1" y="1203.9" class="st2" width="10" height="24.6"/>
	<rect x="643.1" y="1403.3" class="st2" width="10" height="8.4"/>
	<rect x="643.1" y="1253.5" class="st7" width="10" height="41.4"/>
	<path class="st0" d="M1026.6,1709.1c102.5,0,102.5-54.6,205-54.6v1.8c-102.5,0-102.5,54.6-205,54.6V1709.1z"/>
	<path class="st1" d="M1026.6,1780.3c102.5,0,102.5-135.5,205-135.5v1.8c-102.5,0-102.5,135.5-205,135.5V1780.3z"/>
	<path class="st1" d="M1241.6,1644.8c102.5,0,102.5,74.7,205,74.7v3.6c-102.5,0-102.5-74.7-205-74.7V1644.8z"/>
	<path class="st0" d="M1026.6,1742.9c102.5,0,102.5,133,205,133v3.6c-102.5,0-102.5-133-205-133V1742.9z"/>
	<path class="st0" d="M1241.6,1875.9c102.5,0,102.5-87.1,205-87.1v3.6c-102.5,0-102.5,87.1-205,87.1V1875.9z"/>
	<path class="st0" d="M1241.6,1755c102.5,0,102.5,1.8,205,1.8v3.6c-102.5,0-102.5-1.8-205-1.8V1755z"/>
	<path class="st1" d="M1026.6,1790c102.5,0,102.5-104.4,205-104.4v3.6c-102.5,0-102.5,104.4-205,104.4V1790z"/>
	<path class="st1" d="M1241.6,1691c102.5,0,102.5,119.1,205,119.1v3.6c-102.5,0-102.5-119.1-205-119.1V1691z"/>
	<path class="st1" d="M1026.6,1793.6c102.5,0,102.5-104.4,205-104.4v3.6c-102.5,0-102.5,104.4-205,104.4V1793.6z"/>
	<path class="st1" d="M1241.6,1685.6c102.5,0,102.5,56.9,205,56.9v3.6c-102.5,0-102.5-56.9-205-56.9V1685.6z"/>
	<path class="st6" d="M1026.6,1710.9c102.5,0,102.5-54.6,205-54.6v0.9c-102.5,0-102.5,54.6-205,54.6V1710.9z"/>
	<path class="st6" d="M1026.6,1715.3c102.5,0,102.5-21.7,205-21.7v0.9c-102.5,0-102.5,21.7-205,21.7V1715.3z"/>
	<path class="st8" d="M1026.6,1782c102.5,0,102.5-135.5,205-135.5v0.9c-102.5,0-102.5,135.5-205,135.5V1782z"/>
	<path class="st8" d="M1026.6,1797.1c102.5,0,102.5-104.4,205-104.4v0.9c-102.5,0-102.5,104.4-205,104.4V1797.1z"/>
	<path class="st1" d="M1241.6,1648.3c102.5,0,102.5,74.7,205,74.7v1.8c-102.5,0-102.5-74.7-205-74.7V1648.3z"/>
	<path class="st1" d="M1241.6,1689.2c102.5,0,102.5,56.9,205,56.9v1.8c-102.5,0-102.5-56.9-205-56.9V1689.2z"/>
	<path class="st0" d="M1026.6,1716.2c102.5,0,102.5,3.2,205,3.2v3.6c-102.5,0-102.5-3.2-205-3.2V1716.2z"/>
	<path class="st0" d="M1241.6,1712.3c102.5,0,102.5,35.6,205,35.6v3.6c-102.5,0-102.5-35.6-205-35.6V1712.3z"/>
	<path class="st0" d="M1026.6,1711.8c102.5,0,102.5-54.6,205-54.6v1.8c-102.5,0-102.5,54.6-205,54.6V1711.8z"/>
	<path class="st1" d="M1026.6,1782.9c102.5,0,102.5-135.5,205-135.5v1.8c-102.5,0-102.5,135.5-205,135.5V1782.9z"/>
	<path class="st1" d="M1241.6,1650.1c102.5,0,102.5,74.7,205,74.7v3.6c-102.5,0-102.5-74.7-205-74.7V1650.1z"/>
	<path class="st1" d="M1026.6,1798c102.5,0,102.5-85.7,205-85.7v3.6c-102.5,0-102.5,85.7-205,85.7V1798z"/>
	<path class="st1" d="M1241.6,1721.2c102.5,0,102.5,92.4,205,92.4v3.6c-102.5,0-102.5-92.4-205-92.4V1721.2z"/>
	<path class="st1" d="M1026.6,1776.7c102.5,0,102.5-153.3,205-153.3v3.6c-102.5,0-102.5,153.3-205,153.3V1776.7z"/>
	<path class="st1" d="M1241.6,1623.4c102.5,0,102.5,92.4,205,92.4v3.6c-102.5,0-102.5-92.4-205-92.4V1623.4z"/>
	<path class="st0" d="M1026.6,1737.5c102.5,0,102.5,97.4,205,97.4v1.8c-102.5,0-102.5-97.4-205-97.4V1737.5z"/>
	<path class="st1" d="M1026.6,1808.7c102.5,0,102.5,24.5,205,24.5v1.8c-102.5,0-102.5-24.5-205-24.5V1808.7z"/>
	<path class="st1" d="M1241.6,1833.2c102.5,0,102.5,53.3,205,53.3v3.6c-102.5,0-102.5-53.3-205-53.3V1833.2z"/>
	<path class="st0" d="M1026.6,1723.3c102.5,0,102.5,33.4,205,33.4v1.8c-102.5,0-102.5-33.4-205-33.4V1723.3z"/>
	<path class="st1" d="M1026.6,1805.1c102.5,0,102.5-50.2,205-50.2v1.8c-102.5,0-102.5,50.2-205,50.2V1805.1z"/>
	<path class="st1" d="M1241.6,1758.5c102.5,0,102.5,1.8,205,1.8v3.6c-102.5,0-102.5-1.8-205-1.8V1758.5z"/>
	<path class="st1" d="M1026.6,1769.6c102.5,0,102.5-188.8,205-188.8v3.6c-102.5,0-102.5,188.8-205,188.8V1769.6z"/>
	<path class="st1" d="M1241.6,1580.8c102.5,0,102.5,128,205,128v3.6c-102.5,0-102.5-128-205-128V1580.8z"/>
	<path class="st1" d="M1026.6,1801.6c102.5,0,102.5-85.7,205-85.7v3.6c-102.5,0-102.5,85.7-205,85.7V1801.6z"/>
	<path class="st1" d="M1241.6,1724.8c102.5,0,102.5,92.4,205,92.4v3.6c-102.5,0-102.5-92.4-205-92.4V1724.8z"/>
	<path class="st1" d="M1241.6,1762.1c102.5,0,102.5,1.8,205,1.8v3.6c-102.5,0-102.5-1.8-205-1.8V1762.1z"/>
	<path class="st1" d="M1241.6,1653.6c102.5,0,102.5,74.7,205,74.7v3.6c-102.5,0-102.5-74.7-205-74.7V1653.6z"/>
	<path class="st1" d="M1026.6,1784.7c102.5,0,102.5-135.5,205-135.5v3.6c-102.5,0-102.5,135.5-205,135.5V1784.7z"/>
	<path class="st1" d="M1241.6,1657.2c102.5,0,102.5,74.7,205,74.7v3.6c-102.5,0-102.5-74.7-205-74.7V1657.2z"/>
	<path class="st0" d="M1026.6,1713.5c102.5,0,102.5-54.6,205-54.6v1.8c-102.5,0-102.5,54.6-205,54.6V1713.5z"/>
	<path class="st1" d="M1026.6,1788.3c102.5,0,102.5-135.5,205-135.5v1.8c-102.5,0-102.5,135.5-205,135.5V1788.3z"/>
	<path class="st1" d="M1241.6,1660.8c102.5,0,102.5,74.7,205,74.7v3.6c-102.5,0-102.5-74.7-205-74.7V1660.8z"/>
	<path class="st0" d="M1026.6,1725.1c102.5,0,102.5,33.4,205,33.4v3.6c-102.5,0-102.5-33.4-205-33.4V1725.1z"/>
	<path class="st0" d="M1241.6,1765.6c102.5,0,102.5,1.8,205,1.8v3.6c-102.5,0-102.5-1.8-205-1.8V1765.6z"/>
	<path class="st0" d="M1241.6,1733.6c102.5,0,102.5,128,205,128v3.6c-102.5,0-102.5-128-205-128V1733.6z"/>
	<path class="st0" d="M1026.6,1728.7c102.5,0,102.5,33.4,205,33.4v3.6c-102.5,0-102.5-33.4-205-33.4V1728.7z"/>
	<path class="st0" d="M1241.6,1769.2c102.5,0,102.5,1.8,205,1.8v3.6c-102.5,0-102.5-1.8-205-1.8V1769.2z"/>
	<path class="st0" d="M1026.6,1739.3c102.5,0,102.5,115.2,205,115.2v3.6c-102.5,0-102.5-115.2-205-115.2V1739.3z"/>
	<path class="st0" d="M1241.6,1854.5c102.5,0,102.5-69.3,205-69.3v3.6c-102.5,0-102.5,69.3-205,69.3V1854.5z"/>
	<path class="st1" d="M1026.6,1773.1c102.5,0,102.5-171.1,205-171.1v3.6c-102.5,0-102.5,171.1-205,171.1V1773.1z"/>
	<path class="st1" d="M1241.6,1602.1c102.5,0,102.5,110.2,205,110.2v3.6c-102.5,0-102.5-110.2-205-110.2V1602.1z"/>
	<path class="st0" d="M1026.6,1734c102.5,0,102.5,77.9,205,77.9v3.6c-102.5,0-102.5-77.9-205-77.9V1734z"/>
	<path class="st0" d="M1241.6,1811.9c102.5,0,102.5-30.2,205-30.2v3.6c-102.5,0-102.5,30.2-205,30.2V1811.9z"/>
	<path class="st0" d="M1241.6,1730.1c102.5,0,102.5,110.2,205,110.2v3.6c-102.5,0-102.5-110.2-205-110.2V1730.1z"/>
	<path class="st0" d="M1026.6,1719.8c102.5,0,102.5,3.2,205,3.2v3.6c-102.5,0-102.5-3.2-205-3.2V1719.8z"/>
	<path class="st0" d="M1241.6,1715.9c102.5,0,102.5,35.6,205,35.6v1.8c-102.5,0-102.5-35.6-205-35.6V1715.9z"/>
	<path class="st0" d="M1241.6,1728.3c102.5,0,102.5,92.4,205,92.4v1.8c-102.5,0-102.5-92.4-205-92.4V1728.3z"/>
	<path class="st0" d="M1241.6,1717.6c102.5,0,102.5,35.6,205,35.6v3.6c-102.5,0-102.5-35.6-205-35.6V1717.6z"/>
	<path class="st0" d="M1026.6,1746.4c102.5,0,102.5,150.8,205,150.8v3.6c-102.5,0-102.5-150.8-205-150.8V1746.4z"/>
	<path class="st0" d="M1241.6,1897.2c102.5,0,102.5,0,205,0v3.6c-102.5,0-102.5,0-205,0V1897.2z"/>
	<path class="st0" d="M1241.6,1664.3c102.5,0,102.5,74.7,205,74.7v3.6c-102.5,0-102.5-74.7-205-74.7V1664.3z"/>
	<path class="st0" d="M1026.6,1732.2c102.5,0,102.5,60.1,205,60.1v1.8c-102.5,0-102.5-60.1-205-60.1V1732.2z"/>
	<path class="st1" d="M1026.6,1806.9c102.5,0,102.5-16.4,205-16.4v1.8c-102.5,0-102.5,16.4-205,16.4V1806.9z"/>
	<path class="st1" d="M1241.6,1790.5c102.5,0,102.5,92.4,205,92.4v3.6c-102.5,0-102.5-92.4-205-92.4V1790.5z"/>
	<rect x="1016.6" y="1709.1" class="st2" width="10" height="40.9"/>
	<rect x="1016.6" y="1769.6" class="st2" width="10" height="40.9"/>
	<rect x="1446.6" y="1840.3" class="st2" width="10" height="3.6"/>
	<rect x="1446.6" y="1861.6" class="st2" width="10" height="3.6"/>
	<rect x="1446.6" y="1708.8" class="st2" width="10" height="83.6"/>
	<rect x="1446.6" y="1810.1" class="st2" width="10" height="12.4"/>
	<rect x="1446.6" y="1883" class="st2" width="10" height="17.8"/>
	<rect x="1231.6" y="1755" class="st2" width="10" height="17.8"/>
	<rect x="1231.6" y="1790.5" class="st2" width="10" height="3.6"/>
	<rect x="1232" y="1928.1" class="st2" width="10" height="3.6"/>
	<rect x="1231.6" y="1580.8" class="st2" width="10" height="3.6"/>
	<rect x="1231.6" y="1811.9" class="st2" width="10" height="3.6"/>
	<rect x="1231.6" y="1854.5" class="st2" width="10" height="3.6"/>
	<rect x="1231.6" y="1644.8" class="st2" width="10" height="23.1"/>
	<rect x="1231.6" y="1685.6" class="st2" width="10" height="8.9"/>
	<rect x="1231.6" y="1833.2" class="st2" width="10" height="3.6"/>
	<rect x="1231.6" y="1602.1" class="st2" width="10" height="3.6"/>
	<rect x="1231.6" y="1897.2" class="st2" width="10" height="3.6"/>
	<rect x="1232.3" y="1951.4" class="st2" width="10" height="3.6"/>
	<rect x="1231.6" y="1623.4" class="st2" width="10" height="3.6"/>
	<rect x="1231.6" y="1712.3" class="st2" width="10" height="24.9"/>
	<rect x="1231.6" y="1875.9" class="st2" width="10" height="3.6"/>
	<rect x="1232" y="1974.5" class="st2" width="10" height="7.1"/>
	<path class="st1" d="M1242,1974.5c100.6,0,102.1-84.5,204.6-84.5v3.6c-102.7,0-104,84.5-204.6,84.5V1974.5z"/>
	<path class="st1" d="M1242,1978.1c100.9,0,101.9-84.5,204.6-84.5v3.6c-102.7,0-103.7,84.5-204.6,84.5V1978.1z"/>
	<path class="st0" d="M1242.3,1951.4c101.7,0,101.3-173.3,204.3-173.3v3.6c-102.6,0-103,173.3-204.3,173.3V1951.4z"/>
	<path class="st1" d="M1242,1928.1c101.6,0,101.6-153.5,204.6-153.5v3.6c-102.6,0-103,153.5-204.6,153.5V1928.1z"/>
</g>
<g id="Layer_4">
	<path class="st0" d="M1242.2,1425c99.4,0,101.8-287.2,204.8-287.2v2.9c-103.4,0-105.4,287.2-204.8,287.2V1425z"/>
	<path class="st0" d="M1242.2,1427.9c99.4,0,101.8-54.6,204.8-54.6v2.9c-103,0-105,54.6-204.8,54.6V1427.9z"/>
	<path class="st0" d="M1242.2,1455.7c99.8,0,101.8-77.7,204.8-77.7v5.7c-102.7,0-105,77.7-204.8,77.7V1455.7z"/>
</g>
<g id="text_bg">
	<rect x="1230.2" y="1862.7" class="st9" width="91" height="11.5"/>
	<rect x="1230.2" y="1840.8" class="st9" width="150.3" height="11.5"/>
	<rect x="1230.2" y="1819.8" class="st9" width="114" height="11.5"/>
	<rect x="1230.2" y="1742.5" class="st9" width="109.6" height="13"/>
	<rect x="1230.2" y="1698.7" class="st9" width="114.4" height="12"/>
	<rect x="1230.2" y="1671.6" class="st9" width="184" height="12"/>
	<rect x="1230.2" y="1629" class="st9" width="103.8" height="12"/>
	<rect x="1230.2" y="1609" class="st9" width="98" height="14.9"/>
	<rect x="1230.2" y="1585.1" class="st9" width="111.2" height="14.9"/>
</g>
<g id="text">
	<text transform="matrix(1 0 0 1 93.4408 749.5945)" class="st10 st11 st12">Linguistic Structure</text>
	<text transform="matrix(1 0 0 1 89.8226 909.5945)" class="st10 st11 st12">Relational Structure</text>
	<text transform="matrix(1 0 0 1 663.5961 753.9423)" class="st10 st11 st12">Classification</text>
	<text transform="matrix(1 0 0 1 663.5961 956.551)" class="st10 st11 st12">Inference</text>
	<text transform="matrix(1 0 0 1 663.5966 893.3992)" class="st10 st11 st12">Generative</text>
	<text transform="matrix(1 0 0 1 93.4407 1709.627)" class="st10 st11 st12">Linguistic Structure</text>
	<text transform="matrix(1 0 0 1 89.8226 1818.814)" class="st10 st11 st12">Relational Structure</text>
	<text transform="matrix(1 0 0 1 663.5964 1697.3608)" class="st10 st11 st12">Sentiment Analysis</text>
	<text transform="matrix(1 0 0 1 663.5964 1760.7421)" class="st10 st11 st12">Translation</text>
	<text transform="matrix(1 0 0 1 663.5964 1873.592)" class="st10 st11 st12">Dialog System</text>
	<text transform="matrix(1 0 0 1 663.6159 1603.061)" class="st10 st11 st12">Annotation</text>
	<text transform="matrix(1 0 0 1 663.5964 1625.4761)" class="st10 st11 st12">Cause-Effect Identification</text>
	<text transform="matrix(1 0 0 1 663.5959 1813.689)" class="st10 st11 st12">Text Classification</text>
	<text transform="matrix(1 0 0 1 663.5964 1847.6984)" class="st10 st11 st12">KG Completion / Link Prediction</text>
	<text transform="matrix(1 0 0 1 663.5964 1783.1581)" class="st10 st11 st12">Text Summarization</text>
	<text transform="matrix(1 0 0 1 663.5964 1896.0081)" class="st10 st11 st12">Relation Extraction</text>
	<text transform="matrix(1 0 0 1 663.5964 1647.8921)" class="st10 st11 st12">Image Captioning</text>
	<text transform="matrix(1 0 0 1 663.5964 1918.4231)" class="st10 st11 st12">Decision Making</text>
	<text transform="matrix(1 0 0 1 663.5964 1731.3706)" class="st10 st11 st12">Question Answering</text>
	<text transform="matrix(1 0 0 1 663.5959 1670.3071)" class="st10 st11 st12">Fact Verification</text>
	<text transform="matrix(1 0 0 1 93.4405 305.692)" class="st10 st11 st12">Linguistic Structure</text>
	<text transform="matrix(1 0 0 1 89.8223 432.3161)" class="st10 st11 st12">Relational Structure</text>
	<text transform="matrix(1 0 0 1 663.5959 224.7163)" class="st10 st11 st12">Reasoning</text>
	<text transform="matrix(1 0 0 1 663.5959 346.4286)" class="st10 st11 st12">OOD Generalization</text>
	<text transform="matrix(1 0 0 1 663.5964 300.9391)" class="st10 st11 st12">Interpretability</text>
	<text transform="matrix(1 0 0 1 663.5964 389.7976)" class="st10 st11 st12">Reduced Data</text>
	<text transform="matrix(1 0 0 1 663.5964 426.4556)" class="st10 st11 st12">Transferability</text>
	<text transform="matrix(1 0 0 1 663.596 479.3626)" class="st10 st13 st12">NONE</text>
	<text transform="matrix(1 0 0 1 898.0375 761.8245)" class="st10 st11 st12">Linguistic Structure</text>
	<text transform="matrix(1 0 0 1 894.4194 909.3245)" class="st10 st11 st12">Relational Structure</text>
	<text transform="matrix(1 0 0 1 1464.6527 698.5093)" class="st10 st11 st12">Rules</text>
	<text transform="matrix(1 0 0 1 1464.6527 949.2698)" class="st10 st11 st12">Logic</text>
	<text transform="matrix(1 0 0 1 1464.6522 881.6619)" class="st10 st11 st12">Frames</text>
	<text transform="matrix(1 0 0 1 1464.6522 803.401)" class="st10 st11 st12">Semantic Net</text>
	<text transform="matrix(1 0 0 1 1464.6527 237.0259)" class="st10 st11 st12">Sequential</text>
	<text transform="matrix(1 0 0 1 1464.6527 347.2436)" class="st10 st11 st12">Compiled</text>
	<text transform="matrix(1 0 0 1 1464.6527 436.1566)" class="st10 st11 st12">Cooperative</text>
	<text transform="matrix(1 0 0 1 1464.6527 498.4391)" class="st10 st11 st12">Nested</text>
	<text transform="matrix(1 0 0 1 898.0375 295.015)" class="st10 st11 st12">Linguistic Structure</text>
	<text transform="matrix(1 0 0 1 894.4194 442.515)" class="st10 st11 st12">Relational Structure</text>
	<text transform="matrix(1 0 0 1 212.986 640.4738)" class="st11 st14">Technical Appliction</text>
	<text transform="matrix(1 0 0 1 212.7763 1600.7732)" class="st11 st14">Business Use Case</text>
	<text transform="matrix(1 0 0 1 1016.2516 166.1803)" class="st11 st14">NeSy Category</text>
	<text transform="matrix(1 0 0 1 213.5184 166.1803)" class="st11 st14">NeSy Goal</text>
	<text transform="matrix(1 0 0 1 1018.3809 640.4742)" class="st11 st14">Knowledege Representation </text>
	<text transform="matrix(1 0 0 1 898.0378 1248.083)" class="st10 st11 st12">Linguistic Structure</text>
	<text transform="matrix(1 0 0 1 894.4196 1332.7914)" class="st10 st11 st12">Relational Structure</text>
	<text transform="matrix(1 0 0 1 1464.653 1110.6079)" class="st10 st11 st12">Reasoning</text>
	<text transform="matrix(1 0 0 1 1464.653 1298.6414)" class="st10 st11 st12">OOD Generalization</text>
	<text transform="matrix(1 0 0 1 1464.6525 1186.5092)" class="st10 st11 st12">Interpretability</text>
	<text transform="matrix(1 0 0 1 1464.6525 1376.3618)" class="st10 st11 st12">Reduced Data</text>
	<text transform="matrix(1 0 0 1 1464.6525 1335.3507)" class="st10 st11 st12">Transferability</text>
	<text transform="matrix(1 0 0 1 1173.1754 1448.2561)" class="st10 st11 st12">Information Extraction</text>
	<text transform="matrix(1 0 0 1 1183.8942 1413.2615)" class="st10 st11 st12">Recommendation</text>
	<text transform="matrix(1 0 0 1 1199.4891 1142.3235)" class="st10 st11 st12">Classification</text>
	<text transform="matrix(1 0 0 1 1211.2001 1303.3043)" class="st10 st11 st12">Inference</text>
	<text transform="matrix(1 0 0 1 1204.8124 1348.4214)" class="st10 st11 st12">Generative</text>
	<text transform="matrix(1 0 0 1 1464.6525 1243.0524)" class="st10 st11 st12">NONE</text>
	<text transform="matrix(1 0 0 1 1020.3654 1090.8138)" class="st11 st14">Leverage - Tech App -NeSy Goal</text>
	<text transform="matrix(1 0 0 1 93.4409 1249.9875)" class="st10 st11 st12">Linguistic Structure</text>
	<text transform="matrix(1 0 0 1 89.8227 1342.0393)" class="st10 st11 st12">Relational Structure</text>
	<text transform="matrix(1 0 0 1 414.7332 1178.6798)" class="st10 st11 st12">Implicit</text>
	<text transform="matrix(1 0 0 1 412.6039 1432.1299)" class="st10 st11 st12">Explicit</text>
	<text transform="matrix(1 0 0 1 663.5965 1139.822)" class="st10 st11 st12">Reasoning</text>
	<text transform="matrix(1 0 0 1 663.5956 1332.2653)" class="st10 st11 st12">OOD Generalization</text>
	<text transform="matrix(1 0 0 1 663.596 1374.0081)" class="st10 st11 st12">Interpretability</text>
	<text transform="matrix(1 0 0 1 663.596 1220.7122)" class="st10 st11 st12">Reduced Data</text>
	<text transform="matrix(1 0 0 1 663.596 1412.0571)" class="st10 st11 st12">Transferability</text>
	<text transform="matrix(1 0 0 1 664.3948 1278.7043)" class="st10 st11 st12">NONE</text>
	<text transform="matrix(1 0 0 1 898.0375 1734.0947)" class="st10 st11 st12">Linguistic Structure</text>
	<text transform="matrix(1 0 0 1 894.4194 1794.5859)" class="st10 st11 st12">Relational Structure</text>
	<text transform="matrix(1 0 0 1 1464.6532 1846.6389)" class="st10 st11 st12">Information Extraction</text>
	<text transform="matrix(1 0 0 1 1464.6527 1867.9719)" class="st10 st11 st12">Recommendation</text>
	<text transform="matrix(1 0 0 1 1464.6527 1755.0829)" class="st10 st11 st12">Classification</text>
	<text transform="matrix(1 0 0 1 1464.6527 1820.8604)" class="st10 st11 st12">Inference</text>
	<text transform="matrix(1 0 0 1 1464.6532 1896.416)" class="st10 st11 st12">Generative</text>
	<text transform="matrix(1 0 0 1 1229.7096 1752.4465)" class="st10 st11 st12">Sentiment Analysis</text>
	<text transform="matrix(1 0 0 1 1229.7098 1788.0776)" class="st10 st11 st12">Translation</text>
	<text transform="matrix(1 0 0 1 1227.9343 1924.0145)" class="st10 st11 st12">Topic Modeling / Categorization</text>
	<text transform="matrix(1 0 0 1 1229.7096 1578.2996)" class="st10 st11 st12">Dialog System</text>
	<text transform="matrix(1 0 0 1 1229.7294 1809.4106)" class="st10 st11 st12">Annotation</text>
	<text transform="matrix(1 0 0 1 1229.7096 1852.0778)" class="st10 st11 st12">Cause-Effect Identification</text>
	<text transform="matrix(1 0 0 1 1229.7096 1640.1003)" class="st10 st11 st12">Text Classification</text>
	<text transform="matrix(1 0 0 1 1229.7096 1683.46)" class="st10 st11 st12">KG Completion / Link Prediction</text>
	<text transform="matrix(1 0 0 1 1229.7096 1830.7437)" class="st10 st11 st12">Text Summarization</text>
	<text transform="matrix(1 0 0 1 1229.7096 1599.6326)" class="st10 st11 st12">Relation Extraction</text>
	<text transform="matrix(1 0 0 1 1229.7096 1894.7437)" class="st10 st11 st12">Image Captioning</text>
	<text transform="matrix(1 0 0 1 1231.6077 1948.5424)" class="st10 st11 st12">Information Extraction</text>
	<text transform="matrix(1 0 0 1 1229.7096 1620.9666)" class="st10 st11 st12">Decision Making</text>
	<text transform="matrix(1 0 0 1 1229.7096 1709.3438)" class="st10 st11 st12">Question Answering</text>
	<text transform="matrix(1 0 0 1 1229.7096 1873.4106)" class="st10 st11 st12">Fact Verification</text>
	<text transform="matrix(1 0 0 1 1228.0961 1969.8762)" class="st10 st11 st12">Textual Reasoning</text>
</g>
</svg>
