<svg class="main-svg" xmlns="http://www.w3.org/2000/svg" xmlns:xlink="http://www.w3.org/1999/xlink" width="600" height="500" style="" viewBox="0 0 600 500"><rect x="0" y="0" width="600" height="500" style="fill: rgb(255, 255, 255); fill-opacity: 1;"/><defs id="defs-74ad61"><g class="clips"/><g class="gradients"/><g class="patterns"/></defs><g class="bglayer"/><g class="layer-below"><g class="imagelayer"/><g class="shapelayer"/></g><g class="cartesianlayer"/><g class="polarlayer"/><g class="smithlayer"/><g class="ternarylayer"/><g class="geolayer"/><g class="funnelarealayer"/><g class="pielayer"/><g class="iciclelayer"/><g class="treemaplayer"/><g class="sunburstlayer"/><g class="glimages"/><g class="sankey" transform="translate(80,100)matrix(1 0 0 1 0 0)" style="box-sizing: content-box; position: absolute; left: 0px; shape-rendering: geometricprecision; pointer-events: auto;"><g class="sankey-links" style="fill: none;"><path class="sankey-link" d="M10,145.86956521699742C220,145.86956521699742 220,220.43478260823264 430,220.43478260823264L430,225.76086956493964C220,225.76086956493964 220,151.19565217370442 10,151.19565217370442Z" style="stroke: rgb(68, 68, 68); stroke-opacity: 1; fill: rgb(69, 2, 86); fill-opacity: 1; stroke-width: 0; opacity: 1;"/><path class="sankey-link" d="M10,272.0652173912346C220,272.0652173912346 220,241.73913043452802 430,241.73913043452802L430,247.06521739123502C220,247.06521739123502 220,277.39130434794157 10,277.39130434794157Z" style="stroke: rgb(68, 68, 68); stroke-opacity: 1; fill: rgb(87, 188, 214); fill-opacity: 1; stroke-width: 0; opacity: 1;"/><path class="sankey-link" d="M10,49.99999999999976C220,49.99999999999976 220,-8.526512829121202e-14 430,-8.526512829121202e-14L430,10.652173912881295C220,10.652173912881295 220,60.65217391288114 10,60.65217391288114Z" style="stroke: rgb(68, 68, 68); stroke-opacity: 1; fill: rgb(69, 2, 86); fill-opacity: 1; stroke-width: 0; opacity: 1;"/><path class="sankey-link" d="M10,229.4565217391765C220,229.4565217391765 220,152.8260869561744 430,152.8260869561744L430,163.4782608690558C220,163.4782608690558 220,240.1086956520579 10,240.1086956520579Z" style="stroke: rgb(68, 68, 68); stroke-opacity: 1; fill: rgb(87, 188, 214); fill-opacity: 1; stroke-width: 0; opacity: 1;"/><path class="sankey-link" d="M10,277.3913043479416C220,277.3913043479416 220,247.06521739123502 430,247.06521739123502L430,257.7173913041164C220,257.7173913041164 220,288.043478260823 10,288.043478260823Z" style="stroke: rgb(68, 68, 68); stroke-opacity: 1; fill: rgb(87, 188, 214); fill-opacity: 1; stroke-width: 0; opacity: 1;"/><path class="sankey-link" d="M10,60.65217391288114C220,60.65217391288114 220,10.652173912881295 430,10.652173912881295L430,15.97826086958829C220,15.97826086958829 220,65.97826086958814 10,65.97826086958814Z" style="stroke: rgb(68, 68, 68); stroke-opacity: 1; fill: rgb(69, 2, 86); fill-opacity: 1; stroke-width: 0; opacity: 1;"/><path class="sankey-link" d="M10,197.49999999999974C220,197.49999999999974 220,74.56521739070219 430,74.56521739070219L430,79.89130434740919C220,79.89130434740919 220,202.82608695670675 10,202.82608695670675Z" style="stroke: rgb(68, 68, 68); stroke-opacity: 1; fill: rgb(87, 188, 214); fill-opacity: 1; stroke-width: 0; opacity: 1;"/><path class="sankey-link" d="M10,65.97826086958813C220,65.97826086958813 220,15.97826086958829 430,15.97826086958829L430,26.63043478246967C220,26.63043478246967 220,76.63043478246951 10,76.63043478246951Z" style="stroke: rgb(68, 68, 68); stroke-opacity: 1; fill: rgb(69, 2, 86); fill-opacity: 1; stroke-width: 0; opacity: 1;"/><path class="sankey-link" d="M10,151.19565217370442C220,151.19565217370442 220,225.76086956493964 430,225.76086956493964L430,231.08695652164664C220,231.08695652164664 220,156.52173913041142 10,156.52173913041142Z" style="stroke: rgb(68, 68, 68); stroke-opacity: 1; fill: rgb(69, 2, 86); fill-opacity: 1; stroke-width: 0; opacity: 1;"/><path class="sankey-link" d="M10,288.043478260823C220,288.043478260823 220,257.7173913041164 430,257.7173913041164L430,263.04347826082335C220,263.04347826082335 220,293.36956521752995 10,293.36956521752995Z" style="stroke: rgb(68, 68, 68); stroke-opacity: 1; fill: rgb(87, 188, 214); fill-opacity: 1; stroke-width: 0; opacity: 1;"/><path class="sankey-link" d="M10,202.82608695670675C220,202.82608695670675 220,79.89130434740918 430,79.89130434740918L430,90.54347826029056C220,90.54347826029056 220,213.47826086958813 10,213.47826086958813Z" style="stroke: rgb(68, 68, 68); stroke-opacity: 1; fill: rgb(87, 188, 214); fill-opacity: 1; stroke-width: 0; opacity: 1;"/><path class="sankey-link" d="M10,240.1086956520579C220,240.1086956520579 220,163.4782608690558 430,163.4782608690558L430,174.13043478193717C220,174.13043478193717 220,250.76086956493927 10,250.76086956493927Z" style="stroke: rgb(68, 68, 68); stroke-opacity: 1; fill: rgb(87, 188, 214); fill-opacity: 1; stroke-width: 0; opacity: 1;"/><path class="sankey-link" d="M10,167.1739130432928C220,167.1739130432928 220,309.347826086586 430,309.347826086586L430,314.67391304329294C220,314.67391304329294 220,172.4999999999998 10,172.4999999999998Z" style="stroke: rgb(68, 68, 68); stroke-opacity: 1; fill: rgb(69, 2, 86); fill-opacity: 1; stroke-width: 0; opacity: 1;"/><path class="sankey-link" d="M10,314.67391304329277C220,314.67391304329277 220,314.673913043293 430,314.673913043293L430,319.99999999999994C220,319.99999999999994 220,319.9999999999997 10,319.9999999999997Z" style="stroke: rgb(68, 68, 68); stroke-opacity: 1; fill: rgb(87, 188, 214); fill-opacity: 1; stroke-width: 0; opacity: 1;"/><path class="sankey-link" d="M10,124.56521739070203C220,124.56521739070203 220,131.52173912987902 430,131.52173912987902L430,136.84782608658602C220,136.84782608658602 220,129.89130434740903 10,129.89130434740903Z" style="stroke: rgb(68, 68, 68); stroke-opacity: 1; fill: rgb(69, 2, 86); fill-opacity: 1; stroke-width: 0; opacity: 1;"/><path class="sankey-link" d="M10,250.76086956493927C220,250.76086956493927 220,174.13043478193717 430,174.13043478193717L430,179.45652173864417C220,179.45652173864417 220,256.08695652164624 10,256.08695652164624Z" style="stroke: rgb(68, 68, 68); stroke-opacity: 1; fill: rgb(87, 188, 214); fill-opacity: 1; stroke-width: 0; opacity: 1;"/><path class="sankey-link" d="M10,256.08695652164624C220,256.08695652164624 220,179.45652173864417 430,179.45652173864417L430,190.10869565152555C220,190.10869565152555 220,266.7391304345276 10,266.7391304345276Z" style="stroke: rgb(68, 68, 68); stroke-opacity: 1; fill: rgb(87, 188, 214); fill-opacity: 1; stroke-width: 0; opacity: 1;"/><path class="sankey-link" d="M10,293.36956521753C220,293.36956521753 220,263.0434782608234 430,263.0434782608234L430,273.6956521737048C220,273.6956521737048 220,304.0217391304114 10,304.0217391304114Z" style="stroke: rgb(68, 68, 68); stroke-opacity: 1; fill: rgb(87, 188, 214); fill-opacity: 1; stroke-width: 0; opacity: 1;"/><path class="sankey-link" d="M10,213.47826086958813C220,213.47826086958813 220,90.54347826029056 430,90.54347826029056L430,101.19565217317194C220,101.19565217317194 220,224.1304347824695 10,224.1304347824695Z" style="stroke: rgb(68, 68, 68); stroke-opacity: 1; fill: rgb(87, 188, 214); fill-opacity: 1; stroke-width: 0; opacity: 1;"/><path class="sankey-link" d="M10,76.63043478246951C220,76.63043478246951 220,26.63043478246967 430,26.63043478246967L430,31.956521739176665C220,31.956521739176665 220,81.95652173917651 10,81.95652173917651Z" style="stroke: rgb(68, 68, 68); stroke-opacity: 1; fill: rgb(69, 2, 86); fill-opacity: 1; stroke-width: 0; opacity: 1;"/><path class="sankey-link" d="M10,224.1304347824695C220,224.1304347824695 220,101.19565217317194 430,101.19565217317194L430,106.52173912987894C220,106.52173912987894 220,229.4565217391765 10,229.4565217391765Z" style="stroke: rgb(68, 68, 68); stroke-opacity: 1; fill: rgb(87, 188, 214); fill-opacity: 1; stroke-width: 0; opacity: 1;"/><path class="sankey-link" d="M10,81.95652173917651C220,81.95652173917651 220,31.956521739176665 430,31.956521739176665L430,42.608695652058046C220,42.608695652058046 220,92.60869565205789 10,92.60869565205789Z" style="stroke: rgb(68, 68, 68); stroke-opacity: 1; fill: rgb(69, 2, 86); fill-opacity: 1; stroke-width: 0; opacity: 1;"/><path class="sankey-link" d="M10,92.60869565205789C220,92.60869565205789 220,42.608695652058046 430,42.608695652058046L430,53.260869564939426C220,53.260869564939426 220,103.26086956493927 10,103.26086956493927Z" style="stroke: rgb(68, 68, 68); stroke-opacity: 1; fill: rgb(69, 2, 86); fill-opacity: 1; stroke-width: 0; opacity: 1;"/><path class="sankey-link" d="M10,103.26086956493927C220,103.26086956493927 220,53.260869564939426 430,53.260869564939426L430,63.91304347782081C220,63.91304347782081 220,113.91304347782065 10,113.91304347782065Z" style="stroke: rgb(68, 68, 68); stroke-opacity: 1; fill: rgb(69, 2, 86); fill-opacity: 1; stroke-width: 0; opacity: 1;"/><path class="sankey-link" d="M10,304.0217391304114C220,304.0217391304114 220,273.6956521737048 430,273.6956521737048L430,284.34782608658617C220,284.34782608658617 220,314.67391304329277 10,314.67391304329277Z" style="stroke: rgb(68, 68, 68); stroke-opacity: 1; fill: rgb(87, 188, 214); fill-opacity: 1; stroke-width: 0; opacity: 1;"/><path class="sankey-link" d="M10,113.91304347782065C220,113.91304347782065 220,63.91304347782081 430,63.91304347782081L430,74.56521739070219C220,74.56521739070219 220,124.56521739070203 10,124.56521739070203Z" style="stroke: rgb(68, 68, 68); stroke-opacity: 1; fill: rgb(69, 2, 86); fill-opacity: 1; stroke-width: 0; opacity: 1;"/><path class="sankey-link" d="M10,156.52173913041142C220,156.52173913041142 220,231.08695652164664 430,231.08695652164664L430,241.73913043452802C220,241.73913043452802 220,167.1739130432928 10,167.1739130432928Z" style="stroke: rgb(68, 68, 68); stroke-opacity: 1; fill: rgb(69, 2, 86); fill-opacity: 1; stroke-width: 0; opacity: 1;"/><path class="sankey-link" d="M10,129.89130434740903C220,129.89130434740903 220,136.84782608658602 430,136.84782608658602L430,147.4999999994674C220,147.4999999994674 220,140.5434782602904 10,140.5434782602904Z" style="stroke: rgb(68, 68, 68); stroke-opacity: 1; fill: rgb(69, 2, 86); fill-opacity: 1; stroke-width: 0; opacity: 1;"/><path class="sankey-link" d="M10,140.5434782602904C220,140.5434782602904 220,147.4999999994674 430,147.4999999994674L430,152.8260869561744C220,152.8260869561744 220,145.86956521699742 10,145.86956521699742Z" style="stroke: rgb(68, 68, 68); stroke-opacity: 1; fill: rgb(69, 2, 86); fill-opacity: 1; stroke-width: 0; opacity: 1;"/><path class="sankey-link" d="M10,266.7391304345276C220,266.7391304345276 220,190.10869565152555 430,190.10869565152555L430,195.43478260823255C220,195.43478260823255 220,272.06521739123457 10,272.06521739123457Z" style="stroke: rgb(68, 68, 68); stroke-opacity: 1; fill: rgb(87, 188, 214); fill-opacity: 1; stroke-width: 0; opacity: 1;"/></g><g class="sankey-node-set" style="cursor: move;"><g class="sankey-node" transform="translate(430.000,-0.000)" style="opacity: 1;"><rect class="node-rect" width="10" height="106.52173912987911" style="stroke-width: 0.5; stroke: rgb(68, 68, 68); stroke-opacity: 1; fill: rgb(51, 51, 51); fill-opacity: 1;"/><text class="node-label" data-notex="1" x="0" y="0" text-anchor="end" transform="translate(-3.25,57.81086956493955)" style="cursor: default; font-family: Arial; font-size: 13px; fill: rgb(51, 51, 51); fill-opacity: 1; white-space: pre; text-shadow: white 1px 1px 1px, white -1px -1px 1px, white 1px -1px 1px, white -1px 1px 1px;">Sequential</text></g><g class="sankey-node" transform="translate(430.000,131.522)" style="opacity: 1;"><rect class="node-rect" width="10" height="63.913043478353615" style="stroke-width: 0.5; stroke: rgb(68, 68, 68); stroke-opacity: 1; fill: rgb(51, 51, 51); fill-opacity: 1;"/><text class="node-label" data-notex="1" x="0" y="0" text-anchor="end" transform="translate(-3.25,36.506521739176804)" style="cursor: default; font-family: Arial; font-size: 13px; fill: rgb(51, 51, 51); fill-opacity: 1; white-space: pre; text-shadow: white 1px 1px 1px, white -1px -1px 1px, white 1px -1px 1px, white -1px 1px 1px;">Compiled</text></g><g class="sankey-node" transform="translate(430.000,220.435)" style="opacity: 1;"><rect class="node-rect" width="10" height="63.91304347835336" style="stroke-width: 0.5; stroke: rgb(68, 68, 68); stroke-opacity: 1; fill: rgb(51, 51, 51); fill-opacity: 1;"/><text class="node-label" data-notex="1" x="0" y="0" text-anchor="end" transform="translate(-3.25,36.50652173917668)" style="cursor: default; font-family: Arial; font-size: 13px; fill: rgb(51, 51, 51); fill-opacity: 1; white-space: pre; text-shadow: white 1px 1px 1px, white -1px -1px 1px, white 1px -1px 1px, white -1px 1px 1px;">Cooperative</text></g><g class="sankey-node" transform="translate(430.000,309.348)" style="opacity: 1;"><rect class="node-rect" width="10" height="10.652173913414003" style="stroke-width: 0.5; stroke: rgb(68, 68, 68); stroke-opacity: 1; fill: rgb(51, 51, 51); fill-opacity: 1;"/><text class="node-label" data-notex="1" x="0" y="0" text-anchor="end" transform="translate(-3.25,9.876086956707002)" style="cursor: default; font-family: Arial; font-size: 13px; fill: rgb(51, 51, 51); fill-opacity: 1; white-space: pre; text-shadow: white 1px 1px 1px, white -1px -1px 1px, white 1px -1px 1px, white -1px 1px 1px;">Nested</text></g><g class="sankey-node" transform="translate(0.000,50.000)" style="opacity: 1;"><rect class="node-rect" width="10" height="122.49999999999999" style="stroke-width: 0.5; stroke: rgb(68, 68, 68); stroke-opacity: 1; fill: rgb(51, 51, 51); fill-opacity: 1;"/><text class="node-label" data-notex="1" x="0" y="0" text-anchor="start" transform="translate(13.25,65.8)" style="cursor: default; font-family: Arial; font-size: 13px; fill: rgb(51, 51, 51); fill-opacity: 1; white-space: pre; text-shadow: white 1px 1px 1px, white -1px -1px 1px, white 1px -1px 1px, white -1px 1px 1px;">Linguistic Structure</text></g><g class="sankey-node" transform="translate(0.000,197.500)" style="opacity: 1;"><rect class="node-rect" width="10" height="122.50000000000026" style="stroke-width: 0.5; stroke: rgb(68, 68, 68); stroke-opacity: 1; fill: rgb(51, 51, 51); fill-opacity: 1;"/><text class="node-label" data-notex="1" x="0" y="0" text-anchor="start" transform="translate(13.25,65.80000000000013)" style="cursor: default; font-family: Arial; font-size: 13px; fill: rgb(51, 51, 51); fill-opacity: 1; white-space: pre; text-shadow: white 1px 1px 1px, white -1px -1px 1px, white 1px -1px 1px, white -1px 1px 1px;">Relational Structure</text></g></g></g><defs id="topdefs-74ad61"><g class="clips"/></defs><g class="layer-above"><g class="imagelayer"/><g class="shapelayer"/></g><g class="infolayer"><g class="g-gtitle"/><g class="first-render"/></g></svg>