<svg class="main-svg" xmlns="http://www.w3.org/2000/svg" xmlns:xlink="http://www.w3.org/1999/xlink" width="600" height="500" style="" viewBox="0 0 600 500"><rect x="0" y="0" width="600" height="500" style="fill: rgb(255, 255, 255); fill-opacity: 1;"/><defs id="defs-17ce4c"><g class="clips"/><g class="gradients"/><g class="patterns"/></defs><g class="bglayer"/><g class="layer-below"><g class="imagelayer"/><g class="shapelayer"/></g><g class="cartesianlayer"/><g class="polarlayer"/><g class="smithlayer"/><g class="ternarylayer"/><g class="geolayer"/><g class="funnelarealayer"/><g class="pielayer"/><g class="iciclelayer"/><g class="treemaplayer"/><g class="sunburstlayer"/><g class="glimages"/><g class="sankey" transform="translate(80,100)matrix(1 0 0 1 0 0)" style="box-sizing: content-box; position: absolute; left: 0px; shape-rendering: geometricprecision; pointer-events: auto;"><g class="sankey-links" style="fill: none;"><path class="sankey-link" d="M10,253.92475976841675C220,253.92475976841675 220,281.8478260878205 430,281.8478260878205L430,286.0869565226484C220,286.0869565226484 220,258.16389020324465 10,258.16389020324465Z" style="stroke: rgb(68, 68, 68); stroke-opacity: 1; fill: rgb(69, 2, 86); fill-opacity: 1; stroke-width: 0; opacity: 1;"/><path class="sankey-link" d="M10,156.85954237657174C220,156.85954237657174 220,269.13043478333674 430,269.13043478333674L430,273.3695652181646C220,273.3695652181646 220,161.09867281139967 10,161.09867281139967Z" style="stroke: rgb(68, 68, 68); stroke-opacity: 1; fill: rgb(87, 188, 214); fill-opacity: 1; stroke-width: 0; opacity: 1;"/><path class="sankey-link" d="M10,258.16389020324465C220,258.16389020324465 220,286.08695652264845 430,286.08695652264845L430,294.56521739188037C220,294.56521739188037 220,266.64215107247657 10,266.64215107247657Z" style="stroke: rgb(68, 68, 68); stroke-opacity: 1; fill: rgb(69, 2, 86); fill-opacity: 1; stroke-width: 0; opacity: 1;"/><path class="sankey-link" d="M10,72.07693368059627C220,72.07693368059627 220,0 430,0L430,2.826086956599047C220,2.826086956599047 220,74.90302063719533 10,74.90302063719533Z" style="stroke: rgb(68, 68, 68); stroke-opacity: 1; fill: rgb(87, 188, 214); fill-opacity: 1; stroke-width: 0; opacity: 1;"/><path class="sankey-link" d="M10,133.19106411504146C220,133.19106411504146 220,152.44565217336827 430,152.44565217336827L430,155.27173912996733C220,155.27173912996733 220,136.0171510716405 10,136.0171510716405Z" style="stroke: rgb(68, 68, 68); stroke-opacity: 1; fill: rgb(87, 188, 214); fill-opacity: 1; stroke-width: 0; opacity: 1;"/><path class="sankey-link" d="M10,118.00084672344082C220,118.00084672344082 220,104.83695652072606 430,104.83695652072606L430,107.66304347732512C220,107.66304347732512 220,120.82693368003987 10,120.82693368003987Z" style="stroke: rgb(68, 68, 68); stroke-opacity: 1; fill: rgb(87, 188, 214); fill-opacity: 1; stroke-width: 0; opacity: 1;"/><path class="sankey-link" d="M10,74.90302063719531C220,74.90302063719531 220,2.826086956599047 430,2.826086956599047L430,11.304347825830972C220,11.304347825830972 220,83.38128150642723 10,83.38128150642723Z" style="stroke: rgb(68, 68, 68); stroke-opacity: 1; fill: rgb(87, 188, 214); fill-opacity: 1; stroke-width: 0; opacity: 1;"/><path class="sankey-link" d="M10,266.64215107247657C220,266.64215107247657 220,294.56521739188037 430,294.56521739188037L430,298.80434782670824C220,298.80434782670824 220,270.88128150730444 10,270.88128150730444Z" style="stroke: rgb(68, 68, 68); stroke-opacity: 1; fill: rgb(69, 2, 86); fill-opacity: 1; stroke-width: 0; opacity: 1;"/><path class="sankey-link" d="M10,161.09867281139967C220,161.09867281139967 220,273.36956521816467 430,273.36956521816467L430,277.60869565299254C220,277.60869565299254 220,165.3378032462276 10,165.3378032462276Z" style="stroke: rgb(68, 68, 68); stroke-opacity: 1; fill: rgb(87, 188, 214); fill-opacity: 1; stroke-width: 0; opacity: 1;"/><path class="sankey-link" d="M10,270.8812815073045C220,270.8812815073045 220,298.8043478267083 430,298.8043478267083L430,307.2826086959402C220,307.2826086959402 220,279.3595423765364 10,279.3595423765364Z" style="stroke: rgb(68, 68, 68); stroke-opacity: 1; fill: rgb(69, 2, 86); fill-opacity: 1; stroke-width: 0; opacity: 1;"/><path class="sankey-link" d="M10,235.90845541997862C220,235.90845541997862 220,164.103260869332 430,164.103260869332L430,165.16304347807872C220,165.16304347807872 220,236.96823802872535 10,236.96823802872535Z" style="stroke: rgb(68, 68, 68); stroke-opacity: 1; fill: rgb(69, 2, 86); fill-opacity: 1; stroke-width: 0; opacity: 1;"/><path class="sankey-link" d="M10,228.48997715893702C220,228.48997715893702 220,120.02717391232669 430,120.02717391232669L430,121.08695652107342C220,121.08695652107342 220,229.54975976768375 10,229.54975976768375Z" style="stroke: rgb(68, 68, 68); stroke-opacity: 1; fill: rgb(69, 2, 86); fill-opacity: 1; stroke-width: 0; opacity: 1;"/><path class="sankey-link" d="M10,242.6204119419823C220,242.6204119419823 220,205.35326086983247 430,205.35326086983247L430,206.4130434785792C220,206.4130434785792 220,243.68019455072903 10,243.68019455072903Z" style="stroke: rgb(68, 68, 68); stroke-opacity: 1; fill: rgb(69, 2, 86); fill-opacity: 1; stroke-width: 0; opacity: 1;"/><path class="sankey-link" d="M10,251.45193368134696C220,251.45193368134696 220,241.65760869626695 430,241.65760869626695L430,242.71739130501368C220,242.71739130501368 220,252.5117162900937 10,252.5117162900937Z" style="stroke: rgb(68, 68, 68); stroke-opacity: 1; fill: rgb(69, 2, 86); fill-opacity: 1; stroke-width: 0; opacity: 1;"/><path class="sankey-link" d="M10,136.0171510716405C220,136.0171510716405 220,155.27173912996733 430,155.27173912996733L430,156.33152173871406C220,156.33152173871406 220,137.07693368038724 10,137.07693368038724Z" style="stroke: rgb(68, 68, 68); stroke-opacity: 1; fill: rgb(87, 188, 214); fill-opacity: 1; stroke-width: 0; opacity: 1;"/><path class="sankey-link" d="M10,120.82693368003986C220,120.82693368003986 220,107.6630434773251 430,107.6630434773251L430,108.72282608607183C220,108.72282608607183 220,121.88671628878659 10,121.88671628878659Z" style="stroke: rgb(68, 68, 68); stroke-opacity: 1; fill: rgb(87, 188, 214); fill-opacity: 1; stroke-width: 0; opacity: 1;"/><path class="sankey-link" d="M10,144.84867281100517C220,144.84867281100517 220,195.8152173913357 430,195.8152173913357L430,196.87500000008242C220,196.87500000008242 220,145.9084554197519 10,145.9084554197519Z" style="stroke: rgb(68, 68, 68); stroke-opacity: 1; fill: rgb(87, 188, 214); fill-opacity: 1; stroke-width: 0; opacity: 1;"/><path class="sankey-link" d="M10,154.38671628950195C220,154.38671628950195 220,239.18478260919716 430,239.18478260919716L430,240.2445652179439C220,240.2445652179439 220,155.44649889824868 10,155.44649889824868Z" style="stroke: rgb(68, 68, 68); stroke-opacity: 1; fill: rgb(87, 188, 214); fill-opacity: 1; stroke-width: 0; opacity: 1;"/><path class="sankey-link" d="M10,83.38128150642723C220,83.38128150642723 220,11.30434782583097 430,11.30434782583097L430,15.54347826065889C220,15.54347826065889 220,87.62041194125516 10,87.62041194125516Z" style="stroke: rgb(68, 68, 68); stroke-opacity: 1; fill: rgb(87, 188, 214); fill-opacity: 1; stroke-width: 0; opacity: 1;"/><path class="sankey-link" d="M10,121.88671628878657C220,121.88671628878657 220,108.72282608607182 430,108.72282608607182L430,112.96195652089975C220,112.96195652089975 220,126.1258467236145 10,126.1258467236145Z" style="stroke: rgb(68, 68, 68); stroke-opacity: 1; fill: rgb(87, 188, 214); fill-opacity: 1; stroke-width: 0; opacity: 1;"/><path class="sankey-link" d="M10,87.62041194125514C220,87.62041194125514 220,15.54347826065889 430,15.54347826065889L430,19.78260869548681C220,19.78260869548681 220,91.85954237608307 10,91.85954237608307Z" style="stroke: rgb(68, 68, 68); stroke-opacity: 1; fill: rgb(87, 188, 214); fill-opacity: 1; stroke-width: 0; opacity: 1;"/><path class="sankey-link" d="M10,126.12584672361447C220,126.12584672361447 220,112.96195652089973 430,112.96195652089973L430,117.20108695572766C220,117.20108695572766 220,130.3649771584424 10,130.3649771584424Z" style="stroke: rgb(68, 68, 68); stroke-opacity: 1; fill: rgb(87, 188, 214); fill-opacity: 1; stroke-width: 0; opacity: 1;"/><path class="sankey-link" d="M10,194.57693368105552C220,194.57693368105552 220,45.923913042844575 430,45.923913042844575L430,48.04347826031152C220,48.04347826031152 220,196.6964988985225 10,196.6964988985225Z" style="stroke: rgb(68, 68, 68); stroke-opacity: 1; fill: rgb(69, 2, 86); fill-opacity: 1; stroke-width: 0; opacity: 1;"/><path class="sankey-link" d="M10,236.96823802872535C220,236.96823802872535 220,165.16304347807872 430,165.16304347807872L430,167.2826086955457C220,167.2826086955457 220,239.08780324619232 10,239.08780324619232Z" style="stroke: rgb(68, 68, 68); stroke-opacity: 1; fill: rgb(69, 2, 86); fill-opacity: 1; stroke-width: 0; opacity: 1;"/><path class="sankey-link" d="M10,91.85954237608306C220,91.85954237608306 220,19.782608695486807 430,19.782608695486807L430,21.902173912953756C220,21.902173912953756 220,93.97910759355 10,93.97910759355Z" style="stroke: rgb(68, 68, 68); stroke-opacity: 1; fill: rgb(87, 188, 214); fill-opacity: 1; stroke-width: 0; opacity: 1;"/><path class="sankey-link" d="M10,137.07693368038724C220,137.07693368038724 220,156.33152173871406 430,156.33152173871406L430,158.45108695618103C220,158.45108695618103 220,139.1964988978542 10,139.1964988978542Z" style="stroke: rgb(68, 68, 68); stroke-opacity: 1; fill: rgb(87, 188, 214); fill-opacity: 1; stroke-width: 0; opacity: 1;"/><path class="sankey-link" d="M10,196.69649889852246C220,196.69649889852246 220,48.043478260311524 430,48.043478260311524L430,52.28260869513944C220,52.28260869513944 220,200.9356293333504 10,200.9356293333504Z" style="stroke: rgb(68, 68, 68); stroke-opacity: 1; fill: rgb(69, 2, 86); fill-opacity: 1; stroke-width: 0; opacity: 1;"/><path class="sankey-link" d="M10,93.97910759355C220,93.97910759355 220,21.902173912953756 430,21.902173912953756L430,26.141304347781677C220,26.141304347781677 220,98.21823802837793 10,98.21823802837793Z" style="stroke: rgb(68, 68, 68); stroke-opacity: 1; fill: rgb(87, 188, 214); fill-opacity: 1; stroke-width: 0; opacity: 1;"/><path class="sankey-link" d="M10,98.21823802837791C220,98.21823802837791 220,26.141304347781677 430,26.141304347781677L430,34.6195652170136C220,34.6195652170136 220,106.69649889760983 10,106.69649889760983Z" style="stroke: rgb(68, 68, 68); stroke-opacity: 1; fill: rgb(87, 188, 214); fill-opacity: 1; stroke-width: 0; opacity: 1;"/><path class="sankey-link" d="M10,106.69649889760984C220,106.69649889760984 220,34.6195652170136 430,34.6195652170136L430,37.44565217361264C220,37.44565217361264 220,109.5225858542089 10,109.5225858542089Z" style="stroke: rgb(68, 68, 68); stroke-opacity: 1; fill: rgb(87, 188, 214); fill-opacity: 1; stroke-width: 0; opacity: 1;"/><path class="sankey-link" d="M10,130.3649771584424C220,130.3649771584424 220,117.20108695572765 430,117.20108695572765L430,120.0271739123267C220,120.0271739123267 220,133.19106411504146 10,133.19106411504146Z" style="stroke: rgb(68, 68, 68); stroke-opacity: 1; fill: rgb(87, 188, 214); fill-opacity: 1; stroke-width: 0; opacity: 1;"/><path class="sankey-link" d="M10,145.9084554197519C220,145.9084554197519 220,196.87500000008242 430,196.87500000008242L430,199.70108695668148C220,199.70108695668148 220,148.73454237635096 10,148.73454237635096Z" style="stroke: rgb(68, 68, 68); stroke-opacity: 1; fill: rgb(87, 188, 214); fill-opacity: 1; stroke-width: 0; opacity: 1;"/><path class="sankey-link" d="M10,139.19649889785418C220,139.19649889785418 220,158.451086956181 430,158.451086956181L430,162.69021739100893C220,162.69021739100893 220,143.4356293326821 10,143.4356293326821Z" style="stroke: rgb(68, 68, 68); stroke-opacity: 1; fill: rgb(87, 188, 214); fill-opacity: 1; stroke-width: 0; opacity: 1;"/><path class="sankey-link" d="M10,148.73454237635096C220,148.73454237635096 220,199.70108695668148 430,199.70108695668148L430,203.9402173915094C220,203.9402173915094 220,152.9736728111789 10,152.9736728111789Z" style="stroke: rgb(68, 68, 68); stroke-opacity: 1; fill: rgb(87, 188, 214); fill-opacity: 1; stroke-width: 0; opacity: 1;"/><path class="sankey-link" d="M10,279.3595423765364C220,279.3595423765364 220,307.2826086959402 430,307.2826086959402L430,311.5217391307681C220,311.5217391307681 220,283.5986728113643 10,283.5986728113643Z" style="stroke: rgb(68, 68, 68); stroke-opacity: 1; fill: rgb(69, 2, 86); fill-opacity: 1; stroke-width: 0; opacity: 1;"/><path class="sankey-link" d="M10,165.3378032462276C220,165.3378032462276 220,277.6086956529926 430,277.6086956529926L430,281.84782608782047C220,281.84782608782047 220,169.57693368105552 10,169.57693368105552Z" style="stroke: rgb(68, 68, 68); stroke-opacity: 1; fill: rgb(87, 188, 214); fill-opacity: 1; stroke-width: 0; opacity: 1;"/><path class="sankey-link" d="M10,200.9356293333504C220,200.9356293333504 220,52.282608695139444 430,52.282608695139444L430,60.76086956437136C220,60.76086956437136 220,209.4138902025823 10,209.4138902025823Z" style="stroke: rgb(68, 68, 68); stroke-opacity: 1; fill: rgb(69, 2, 86); fill-opacity: 1; stroke-width: 0; opacity: 1;"/><path class="sankey-link" d="M10,209.4138902025823C220,209.4138902025823 220,60.76086956437137 430,60.76086956437137L430,64.99999999919929C220,64.99999999919929 220,213.65302063741024 10,213.65302063741024Z" style="stroke: rgb(68, 68, 68); stroke-opacity: 1; fill: rgb(69, 2, 86); fill-opacity: 1; stroke-width: 0; opacity: 1;"/><path class="sankey-link" d="M10,229.54975976768375C220,229.54975976768375 220,121.0869565210734 430,121.0869565210734L430,125.32608695590133C220,125.32608695590133 220,233.78889020251168 10,233.78889020251168Z" style="stroke: rgb(68, 68, 68); stroke-opacity: 1; fill: rgb(69, 2, 86); fill-opacity: 1; stroke-width: 0; opacity: 1;"/><path class="sankey-link" d="M10,213.65302063741024C220,213.65302063741024 220,64.99999999919929 430,64.99999999919929L430,73.4782608684312C220,73.4782608684312 220,222.13128150664215 10,222.13128150664215Z" style="stroke: rgb(68, 68, 68); stroke-opacity: 1; fill: rgb(69, 2, 86); fill-opacity: 1; stroke-width: 0; opacity: 1;"/><path class="sankey-link" d="M10,109.52258585420888C220,109.52258585420888 220,37.44565217361266 430,37.44565217361266L430,45.923913042844575C220,45.923913042844575 220,118.0008467234408 10,118.0008467234408Z" style="stroke: rgb(68, 68, 68); stroke-opacity: 1; fill: rgb(87, 188, 214); fill-opacity: 1; stroke-width: 0; opacity: 1;"/><path class="sankey-link" d="M10,222.13128150664215C220,222.13128150664215 220,73.47826086843122 430,73.47826086843122L430,77.71739130325915C220,77.71739130325915 220,226.37041194147008 10,226.37041194147008Z" style="stroke: rgb(68, 68, 68); stroke-opacity: 1; fill: rgb(69, 2, 86); fill-opacity: 1; stroke-width: 0; opacity: 1;"/><path class="sankey-link" d="M10,243.68019455072903C220,243.68019455072903 220,206.4130434785792 430,206.4130434785792L430,210.65217391340713C220,210.65217391340713 220,247.91932498555695 10,247.91932498555695Z" style="stroke: rgb(68, 68, 68); stroke-opacity: 1; fill: rgb(69, 2, 86); fill-opacity: 1; stroke-width: 0; opacity: 1;"/><path class="sankey-link" d="M10,226.37041194147008C220,226.37041194147008 220,77.71739130325913 430,77.71739130325913L430,79.83695652072608C220,79.83695652072608 220,228.48997715893705 10,228.48997715893705Z" style="stroke: rgb(68, 68, 68); stroke-opacity: 1; fill: rgb(69, 2, 86); fill-opacity: 1; stroke-width: 0; opacity: 1;"/><path class="sankey-link" d="M10,239.0878032461923C220,239.0878032461923 220,167.28260869554566 430,167.28260869554566L430,169.40217391301263C220,169.40217391301263 220,241.20736846365926 10,241.20736846365926Z" style="stroke: rgb(68, 68, 68); stroke-opacity: 1; fill: rgb(69, 2, 86); fill-opacity: 1; stroke-width: 0; opacity: 1;"/><path class="sankey-link" d="M10,233.78889020251168C220,233.78889020251168 220,125.32608695590132 430,125.32608695590132L430,127.44565217336826C220,127.44565217336826 220,235.90845541997865 10,235.90845541997865Z" style="stroke: rgb(68, 68, 68); stroke-opacity: 1; fill: rgb(69, 2, 86); fill-opacity: 1; stroke-width: 0; opacity: 1;"/><path class="sankey-link" d="M10,247.91932498555695C220,247.91932498555695 220,210.65217391340713 430,210.65217391340713L430,212.7717391308741C220,212.7717391308741 220,250.03889020302393 10,250.03889020302393Z" style="stroke: rgb(68, 68, 68); stroke-opacity: 1; fill: rgb(69, 2, 86); fill-opacity: 1; stroke-width: 0; opacity: 1;"/><path class="sankey-link" d="M10,283.59867281136434C220,283.59867281136434 220,311.52173913076814 430,311.52173913076814L430,320.00000000000006C220,320.00000000000006 220,292.07693368059626 10,292.07693368059626Z" style="stroke: rgb(68, 68, 68); stroke-opacity: 1; fill: rgb(69, 2, 86); fill-opacity: 1; stroke-width: 0; opacity: 1;"/><path class="sankey-link" d="M10,241.20736846365924C220,241.20736846365924 220,169.4021739130126 430,169.4021739130126L430,170.81521739133566C220,170.81521739133566 220,242.6204119419823 10,242.6204119419823Z" style="stroke: rgb(68, 68, 68); stroke-opacity: 1; fill: rgb(69, 2, 86); fill-opacity: 1; stroke-width: 0; opacity: 1;"/><path class="sankey-link" d="M10,250.0388902030239C220,250.0388902030239 220,212.77173913087407 430,212.77173913087407L430,214.18478260919713C220,214.18478260919713 220,251.45193368134696 10,251.45193368134696Z" style="stroke: rgb(68, 68, 68); stroke-opacity: 1; fill: rgb(69, 2, 86); fill-opacity: 1; stroke-width: 0; opacity: 1;"/><path class="sankey-link" d="M10,252.5117162900937C220,252.5117162900937 220,242.71739130501368 430,242.71739130501368L430,244.13043478333674C220,244.13043478333674 220,253.92475976841675 10,253.92475976841675Z" style="stroke: rgb(68, 68, 68); stroke-opacity: 1; fill: rgb(69, 2, 86); fill-opacity: 1; stroke-width: 0; opacity: 1;"/><path class="sankey-link" d="M10,143.4356293326821C220,143.4356293326821 220,162.69021739100893 430,162.69021739100893L430,164.103260869332C220,164.103260869332 220,144.84867281100517 10,144.84867281100517Z" style="stroke: rgb(68, 68, 68); stroke-opacity: 1; fill: rgb(87, 188, 214); fill-opacity: 1; stroke-width: 0; opacity: 1;"/><path class="sankey-link" d="M10,152.9736728111789C220,152.9736728111789 220,203.9402173915094 430,203.9402173915094L430,205.35326086983247C220,205.35326086983247 220,154.38671628950195 10,154.38671628950195Z" style="stroke: rgb(68, 68, 68); stroke-opacity: 1; fill: rgb(87, 188, 214); fill-opacity: 1; stroke-width: 0; opacity: 1;"/><path class="sankey-link" d="M10,155.44649889824868C220,155.44649889824868 220,240.2445652179439 430,240.2445652179439L430,241.65760869626695C220,241.65760869626695 220,156.85954237657174 10,156.85954237657174Z" style="stroke: rgb(68, 68, 68); stroke-opacity: 1; fill: rgb(87, 188, 214); fill-opacity: 1; stroke-width: 0; opacity: 1;"/></g><g class="sankey-node-set" style="cursor: move;"><g class="sankey-node" transform="translate(0.000,194.577)" style="opacity: 1;"><rect class="node-rect" width="10" height="97.49999999954068" style="stroke-width: 0.5; stroke: rgb(68, 68, 68); stroke-opacity: 1; fill: rgb(51, 51, 51); fill-opacity: 1;"/><text class="node-label" data-notex="1" x="0" y="0" text-anchor="start" transform="translate(13.25,53.299999999770336)" style="cursor: default; font-family: Arial; font-size: 13px; fill: rgb(51, 51, 51); fill-opacity: 1; white-space: pre; text-shadow: white 1px 1px 1px, white -1px -1px 1px, white 1px -1px 1px, white -1px 1px 1px;">Linguistic Structure</text></g><g class="sankey-node" transform="translate(0.000,72.077)" style="opacity: 1;"><rect class="node-rect" width="10" height="97.50000000045925" style="stroke-width: 0.5; stroke: rgb(68, 68, 68); stroke-opacity: 1; fill: rgb(51, 51, 51); fill-opacity: 1;"/><text class="node-label" data-notex="1" x="0" y="0" text-anchor="start" transform="translate(13.25,53.30000000022962)" style="cursor: default; font-family: Arial; font-size: 13px; fill: rgb(51, 51, 51); fill-opacity: 1; white-space: pre; text-shadow: white 1px 1px 1px, white -1px -1px 1px, white 1px -1px 1px, white -1px 1px 1px;">Relational Structure</text></g><g class="sankey-node" transform="translate(430.000,0.000)" style="opacity: 1;"><rect class="node-rect" width="10" height="79.83695652072606" style="stroke-width: 0.5; stroke: rgb(68, 68, 68); stroke-opacity: 1; fill: rgb(51, 51, 51); fill-opacity: 1;"/><text class="node-label" data-notex="1" x="0" y="0" text-anchor="end" transform="translate(-3.25,44.46847826036303)" style="cursor: default; font-family: Arial; font-size: 13px; fill: rgb(51, 51, 51); fill-opacity: 1; white-space: pre; text-shadow: white 1px 1px 1px, white -1px -1px 1px, white 1px -1px 1px, white -1px 1px 1px;">Reasoning</text></g><g class="sankey-node" transform="translate(430.000,152.446)" style="opacity: 1;"><rect class="node-rect" width="10" height="18.36956521796742" style="stroke-width: 0.5; stroke: rgb(68, 68, 68); stroke-opacity: 1; fill: rgb(51, 51, 51); fill-opacity: 1;"/><text class="node-label" data-notex="1" x="0" y="0" text-anchor="end" transform="translate(-3.25,13.73478260898371)" style="cursor: default; font-family: Arial; font-size: 13px; fill: rgb(51, 51, 51); fill-opacity: 1; white-space: pre; text-shadow: white 1px 1px 1px, white -1px -1px 1px, white 1px -1px 1px, white -1px 1px 1px;">OOD Generalization</text></g><g class="sankey-node" transform="translate(430.000,104.837)" style="opacity: 1;"><rect class="node-rect" width="10" height="22.60869565264221" style="stroke-width: 0.5; stroke: rgb(68, 68, 68); stroke-opacity: 1; fill: rgb(51, 51, 51); fill-opacity: 1;"/><text class="node-label" data-notex="1" x="0" y="0" text-anchor="end" transform="translate(-3.25,15.854347826321106)" style="cursor: default; font-family: Arial; font-size: 13px; fill: rgb(51, 51, 51); fill-opacity: 1; white-space: pre; text-shadow: white 1px 1px 1px, white -1px -1px 1px, white 1px -1px 1px, white -1px 1px 1px;">Interpretability</text></g><g class="sankey-node" transform="translate(430.000,195.815)" style="opacity: 1;"><rect class="node-rect" width="10" height="18.369565217861464" style="stroke-width: 0.5; stroke: rgb(68, 68, 68); stroke-opacity: 1; fill: rgb(51, 51, 51); fill-opacity: 1;"/><text class="node-label" data-notex="1" x="0" y="0" text-anchor="end" transform="translate(-3.25,13.734782608930733)" style="cursor: default; font-family: Arial; font-size: 13px; fill: rgb(51, 51, 51); fill-opacity: 1; white-space: pre; text-shadow: white 1px 1px 1px, white -1px -1px 1px, white 1px -1px 1px, white -1px 1px 1px;">Reduced Data</text></g><g class="sankey-node" transform="translate(430.000,239.185)" style="opacity: 1;"><rect class="node-rect" width="10" height="4.945652174139582" style="stroke-width: 0.5; stroke: rgb(68, 68, 68); stroke-opacity: 1; fill: rgb(51, 51, 51); fill-opacity: 1;"/><text class="node-label" data-notex="1" x="0" y="0" text-anchor="end" transform="translate(-3.25,7.022826087069791)" style="cursor: default; font-family: Arial; font-size: 13px; fill: rgb(51, 51, 51); fill-opacity: 1; white-space: pre; text-shadow: white 1px 1px 1px, white -1px -1px 1px, white 1px -1px 1px, white -1px 1px 1px;">Transferability</text></g><g class="sankey-node" transform="translate(430.000,269.130)" style="opacity: 1;"><rect class="node-rect" width="10" height="50.86956521666326" style="stroke-width: 0.5; stroke: rgb(68, 68, 68); stroke-opacity: 1; fill: rgb(51, 51, 51); fill-opacity: 1;"/><text class="node-label" data-notex="1" x="0" y="0" text-anchor="end" transform="translate(-3.25,29.98478260833163)" style="cursor: default; font-family: Arial; font-size: 13px; fill: rgb(51, 51, 51); fill-opacity: 1; white-space: pre; text-shadow: white 1px 1px 1px, white -1px -1px 1px, white 1px -1px 1px, white -1px 1px 1px;">NONE</text></g></g></g><defs id="topdefs-17ce4c"><g class="clips"/></defs><g class="layer-above"><g class="imagelayer"/><g class="shapelayer"/></g><g class="infolayer"><g class="g-gtitle"/><g class="first-render"/></g></svg>