<svg class="main-svg" xmlns="http://www.w3.org/2000/svg" xmlns:xlink="http://www.w3.org/1999/xlink" width="600" height="500" style="" viewBox="0 0 600 500"><rect x="0" y="0" width="600" height="500" style="fill: rgb(255, 255, 255); fill-opacity: 1;"/><defs id="defs-10868e"><g class="clips"/><g class="gradients"/><g class="patterns"/></defs><g class="bglayer"/><g class="layer-below"><g class="imagelayer"/><g class="shapelayer"/></g><g class="cartesianlayer"/><g class="polarlayer"/><g class="smithlayer"/><g class="ternarylayer"/><g class="geolayer"/><g class="funnelarealayer"/><g class="pielayer"/><g class="iciclelayer"/><g class="treemaplayer"/><g class="sunburstlayer"/><g class="glimages"/><g class="sankey" transform="translate(80,100)matrix(1 0 0 1 0 0)" style="box-sizing: content-box; position: absolute; left: 0px; shape-rendering: geometricprecision; pointer-events: auto;"><g class="sankey-links" style="fill: none;"><path class="sankey-link" d="M10,49.99999999999967C220,49.99999999999967 220,1.7053025658242404e-13 430,1.7053025658242404e-13L430,5.326086956707165C220,5.326086956707165 220,55.326086956706675 10,55.326086956706675Z" style="stroke: rgb(68, 68, 68); stroke-opacity: 1; fill: rgb(69, 2, 86); fill-opacity: 1; stroke-width: 0; opacity: 1;"/><path class="sankey-link" d="M10,197.49999999999974C220,197.49999999999974 220,69.23913043452805 430,69.23913043452805L430,74.56521739123505C220,74.56521739123505 220,202.82608695670675 10,202.82608695670675Z" style="stroke: rgb(68, 68, 68); stroke-opacity: 1; fill: rgb(87, 188, 214); fill-opacity: 1; stroke-width: 0; opacity: 1;"/><path class="sankey-link" d="M10,145.86956521752995C220,145.86956521752995 220,209.78260869641645 430,209.78260869641645L430,220.43478260929783C220,220.43478260929783 220,156.52173913041133 10,156.52173913041133Z" style="stroke: rgb(68, 68, 68); stroke-opacity: 1; fill: rgb(69, 2, 86); fill-opacity: 1; stroke-width: 0; opacity: 1;"/><path class="sankey-link" d="M10,261.4130434788859C220,261.4130434788859 220,225.76086956600483 430,225.76086956600483L430,236.4130434788862C220,236.4130434788862 220,272.0652173917673 10,272.0652173917673Z" style="stroke: rgb(68, 68, 68); stroke-opacity: 1; fill: rgb(87, 188, 214); fill-opacity: 1; stroke-width: 0; opacity: 1;"/><path class="sankey-link" d="M10,272.0652173917673C220,272.0652173917673 220,236.4130434788862 430,236.4130434788862L430,247.0652173917676C220,247.0652173917676 220,282.7173913046487 10,282.7173913046487Z" style="stroke: rgb(68, 68, 68); stroke-opacity: 1; fill: rgb(87, 188, 214); fill-opacity: 1; stroke-width: 0; opacity: 1;"/><path class="sankey-link" d="M10,156.52173913041133C220,156.52173913041133 220,220.43478260929783 430,220.43478260929783L430,225.76086956600483C220,225.76086956600483 220,161.84782608711834 10,161.84782608711834Z" style="stroke: rgb(68, 68, 68); stroke-opacity: 1; fill: rgb(69, 2, 86); fill-opacity: 1; stroke-width: 0; opacity: 1;"/><path class="sankey-link" d="M10,282.7173913046487C220,282.7173913046487 220,247.0652173917676 430,247.0652173917676L430,252.3913043484746C220,252.3913043484746 220,288.04347826135563 10,288.04347826135563Z" style="stroke: rgb(68, 68, 68); stroke-opacity: 1; fill: rgb(87, 188, 214); fill-opacity: 1; stroke-width: 0; opacity: 1;"/><path class="sankey-link" d="M10,55.32608695670667C220,55.32608695670667 220,5.326086956707165 430,5.326086956707165L430,15.978260869588546C220,15.978260869588546 220,65.97826086958804 10,65.97826086958804Z" style="stroke: rgb(68, 68, 68); stroke-opacity: 1; fill: rgb(69, 2, 86); fill-opacity: 1; stroke-width: 0; opacity: 1;"/><path class="sankey-link" d="M10,119.23913043452757C220,119.23913043452757 220,120.86956521753052 430,120.86956521753052L430,126.19565217423752C220,126.19565217423752 220,124.56521739123457 10,124.56521739123457Z" style="stroke: rgb(68, 68, 68); stroke-opacity: 1; fill: rgb(69, 2, 86); fill-opacity: 1; stroke-width: 0; opacity: 1;"/><path class="sankey-link" d="M10,224.13043478300213C220,224.13043478300213 220,147.5000000005329 430,147.5000000005329L430,152.8260869572399C220,152.8260869572399 220,229.45652173970913 10,229.45652173970913Z" style="stroke: rgb(68, 68, 68); stroke-opacity: 1; fill: rgb(87, 188, 214); fill-opacity: 1; stroke-width: 0; opacity: 1;"/><path class="sankey-link" d="M10,288.0434782613557C220,288.0434782613557 220,288.043478261356 430,288.043478261356L430,298.69565217423735C220,298.69565217423735 220,298.69565217423707 10,298.69565217423707Z" style="stroke: rgb(68, 68, 68); stroke-opacity: 1; fill: rgb(87, 188, 214); fill-opacity: 1; stroke-width: 0; opacity: 1;"/><path class="sankey-link" d="M10,298.69565217423707C220,298.69565217423707 220,298.69565217423735 430,298.69565217423735L430,309.34782608711873C220,309.34782608711873 220,309.34782608711845 10,309.34782608711845Z" style="stroke: rgb(68, 68, 68); stroke-opacity: 1; fill: rgb(87, 188, 214); fill-opacity: 1; stroke-width: 0; opacity: 1;"/><path class="sankey-link" d="M10,65.97826086958804C220,65.97826086958804 220,15.978260869588546 430,15.978260869588546L430,21.30434782629554C220,21.30434782629554 220,71.30434782629504 10,71.30434782629504Z" style="stroke: rgb(68, 68, 68); stroke-opacity: 1; fill: rgb(69, 2, 86); fill-opacity: 1; stroke-width: 0; opacity: 1;"/><path class="sankey-link" d="M10,202.82608695670675C220,202.82608695670675 220,74.56521739123505 430,74.56521739123505L430,79.89130434794205C220,79.89130434794205 220,208.15217391341375 10,208.15217391341375Z" style="stroke: rgb(68, 68, 68); stroke-opacity: 1; fill: rgb(87, 188, 214); fill-opacity: 1; stroke-width: 0; opacity: 1;"/><path class="sankey-link" d="M10,124.56521739123457C220,124.56521739123457 220,126.19565217423752 430,126.19565217423752L430,131.52173913094452C220,131.52173913094452 220,129.89130434794157 10,129.89130434794157Z" style="stroke: rgb(68, 68, 68); stroke-opacity: 1; fill: rgb(69, 2, 86); fill-opacity: 1; stroke-width: 0; opacity: 1;"/><path class="sankey-link" d="M10,229.45652173970913C220,229.45652173970913 220,152.8260869572399 430,152.8260869572399L430,158.1521739139469C220,158.1521739139469 220,234.78260869641613 10,234.78260869641613Z" style="stroke: rgb(68, 68, 68); stroke-opacity: 1; fill: rgb(87, 188, 214); fill-opacity: 1; stroke-width: 0; opacity: 1;"/><path class="sankey-link" d="M10,234.78260869641613C220,234.78260869641613 220,158.1521739139469 430,158.1521739139469L430,168.8043478268283C220,168.8043478268283 220,245.4347826092975 10,245.4347826092975Z" style="stroke: rgb(68, 68, 68); stroke-opacity: 1; fill: rgb(87, 188, 214); fill-opacity: 1; stroke-width: 0; opacity: 1;"/><path class="sankey-link" d="M10,208.15217391341375C220,208.15217391341375 220,79.89130434794205 430,79.89130434794205L430,90.54347826082343C220,90.54347826082343 220,218.80434782629513 10,218.80434782629513Z" style="stroke: rgb(68, 68, 68); stroke-opacity: 1; fill: rgb(87, 188, 214); fill-opacity: 1; stroke-width: 0; opacity: 1;"/><path class="sankey-link" d="M10,309.34782608711845C220,309.34782608711845 220,309.34782608711873 430,309.34782608711873L430,320.0000000000001C220,320.0000000000001 220,319.99999999999983 10,319.99999999999983Z" style="stroke: rgb(68, 68, 68); stroke-opacity: 1; fill: rgb(87, 188, 214); fill-opacity: 1; stroke-width: 0; opacity: 1;"/><path class="sankey-link" d="M10,129.89130434794157C220,129.89130434794157 220,131.52173913094452 430,131.52173913094452L430,136.84782608765153C220,136.84782608765153 220,135.21739130464857 10,135.21739130464857Z" style="stroke: rgb(68, 68, 68); stroke-opacity: 1; fill: rgb(69, 2, 86); fill-opacity: 1; stroke-width: 0; opacity: 1;"/><path class="sankey-link" d="M10,245.4347826092975C220,245.4347826092975 220,168.8043478268283 430,168.8043478268283L430,174.1304347835353C220,174.1304347835353 220,250.76086956600452 10,250.76086956600452Z" style="stroke: rgb(68, 68, 68); stroke-opacity: 1; fill: rgb(87, 188, 214); fill-opacity: 1; stroke-width: 0; opacity: 1;"/><path class="sankey-link" d="M10,161.84782608711834C220,161.84782608711834 220,277.3913043484746 430,277.3913043484746L430,288.043478261356C220,288.043478261356 220,172.49999999999972 10,172.49999999999972Z" style="stroke: rgb(68, 68, 68); stroke-opacity: 1; fill: rgb(69, 2, 86); fill-opacity: 1; stroke-width: 0; opacity: 1;"/><path class="sankey-link" d="M10,71.30434782629504C220,71.30434782629504 220,21.30434782629554 430,21.30434782629554L430,31.95652173917692C220,31.95652173917692 220,81.95652173917642 10,81.95652173917642Z" style="stroke: rgb(68, 68, 68); stroke-opacity: 1; fill: rgb(69, 2, 86); fill-opacity: 1; stroke-width: 0; opacity: 1;"/><path class="sankey-link" d="M10,81.95652173917642C220,81.95652173917642 220,31.95652173917692 430,31.95652173917692L430,42.6086956520583C220,42.6086956520583 220,92.6086956520578 10,92.6086956520578Z" style="stroke: rgb(68, 68, 68); stroke-opacity: 1; fill: rgb(69, 2, 86); fill-opacity: 1; stroke-width: 0; opacity: 1;"/><path class="sankey-link" d="M10,250.76086956600454C220,250.76086956600454 220,174.1304347835353 430,174.1304347835353L430,184.78260869641667C220,184.78260869641667 220,261.4130434788859 10,261.4130434788859Z" style="stroke: rgb(68, 68, 68); stroke-opacity: 1; fill: rgb(87, 188, 214); fill-opacity: 1; stroke-width: 0; opacity: 1;"/><path class="sankey-link" d="M10,135.21739130464857C220,135.21739130464857 220,136.84782608765153 430,136.84782608765153L430,147.5000000005329C220,147.5000000005329 220,145.86956521752995 10,145.86956521752995Z" style="stroke: rgb(68, 68, 68); stroke-opacity: 1; fill: rgb(69, 2, 86); fill-opacity: 1; stroke-width: 0; opacity: 1;"/><path class="sankey-link" d="M10,92.6086956520578C220,92.6086956520578 220,42.6086956520583 430,42.6086956520583L430,53.26086956493968C220,53.26086956493968 220,103.26086956493918 10,103.26086956493918Z" style="stroke: rgb(68, 68, 68); stroke-opacity: 1; fill: rgb(69, 2, 86); fill-opacity: 1; stroke-width: 0; opacity: 1;"/><path class="sankey-link" d="M10,103.26086956493918C220,103.26086956493918 220,53.26086956493968 430,53.26086956493968L430,63.91304347782106C220,63.91304347782106 220,113.91304347782057 10,113.91304347782057Z" style="stroke: rgb(68, 68, 68); stroke-opacity: 1; fill: rgb(69, 2, 86); fill-opacity: 1; stroke-width: 0; opacity: 1;"/><path class="sankey-link" d="M10,113.91304347782057C220,113.91304347782057 220,63.91304347782106 430,63.91304347782106L430,69.23913043452806C220,69.23913043452806 220,119.23913043452757 10,119.23913043452757Z" style="stroke: rgb(68, 68, 68); stroke-opacity: 1; fill: rgb(69, 2, 86); fill-opacity: 1; stroke-width: 0; opacity: 1;"/><path class="sankey-link" d="M10,218.80434782629513C220,218.80434782629513 220,90.54347826082343 430,90.54347826082343L430,95.86956521753044C220,95.86956521753044 220,224.13043478300213 10,224.13043478300213Z" style="stroke: rgb(68, 68, 68); stroke-opacity: 1; fill: rgb(87, 188, 214); fill-opacity: 1; stroke-width: 0; opacity: 1;"/></g><g class="sankey-node-set" style="cursor: move;"><g class="sankey-node" transform="translate(0.000,50.000)" style="opacity: 1;"><rect class="node-rect" width="10" height="122.50000000000007" style="stroke-width: 0.5; stroke: rgb(68, 68, 68); stroke-opacity: 1; fill: rgb(51, 51, 51); fill-opacity: 1;"/><text class="node-label" data-notex="1" x="0" y="0" text-anchor="start" transform="translate(13.25,65.80000000000004)" style="cursor: default; font-family: Arial; font-size: 13px; fill: rgb(51, 51, 51); fill-opacity: 1; white-space: pre; text-shadow: white 1px 1px 1px, white -1px -1px 1px, white 1px -1px 1px, white -1px 1px 1px;">Linguistic Structure</text></g><g class="sankey-node" transform="translate(0.000,197.500)" style="opacity: 1;"><rect class="node-rect" width="10" height="122.50000000000026" style="stroke-width: 0.5; stroke: rgb(68, 68, 68); stroke-opacity: 1; fill: rgb(51, 51, 51); fill-opacity: 1;"/><text class="node-label" data-notex="1" x="0" y="0" text-anchor="start" transform="translate(13.25,65.80000000000013)" style="cursor: default; font-family: Arial; font-size: 13px; fill: rgb(51, 51, 51); fill-opacity: 1; white-space: pre; text-shadow: white 1px 1px 1px, white -1px -1px 1px, white 1px -1px 1px, white -1px 1px 1px;">Relational Structure</text></g><g class="sankey-node" transform="translate(430.000,0.000)" style="opacity: 1;"><rect class="node-rect" width="10" height="95.86956521753035" style="stroke-width: 0.5; stroke: rgb(68, 68, 68); stroke-opacity: 1; fill: rgb(51, 51, 51); fill-opacity: 1;"/><text class="node-label" data-notex="1" x="0" y="0" text-anchor="end" transform="translate(-3.25,52.48478260876517)" style="cursor: default; font-family: Arial; font-size: 13px; fill: rgb(51, 51, 51); fill-opacity: 1; white-space: pre; text-shadow: white 1px 1px 1px, white -1px -1px 1px, white 1px -1px 1px, white -1px 1px 1px;">Rules</text></g><g class="sankey-node" transform="translate(430.000,277.391)" style="opacity: 1;"><rect class="node-rect" width="10" height="42.60869565152541" style="stroke-width: 0.5; stroke: rgb(68, 68, 68); stroke-opacity: 1; fill: rgb(51, 51, 51); fill-opacity: 1;"/><text class="node-label" data-notex="1" x="0" y="0" text-anchor="end" transform="translate(-3.25,25.854347825762705)" style="cursor: default; font-family: Arial; font-size: 13px; fill: rgb(51, 51, 51); fill-opacity: 1; white-space: pre; text-shadow: white 1px 1px 1px, white -1px -1px 1px, white 1px -1px 1px, white -1px 1px 1px;">Logic</text></g><g class="sankey-node" transform="translate(430.000,209.783)" style="opacity: 1;"><rect class="node-rect" width="10" height="42.608695652058145" style="stroke-width: 0.5; stroke: rgb(68, 68, 68); stroke-opacity: 1; fill: rgb(51, 51, 51); fill-opacity: 1;"/><text class="node-label" data-notex="1" x="0" y="0" text-anchor="end" transform="translate(-3.25,25.854347826029073)" style="cursor: default; font-family: Arial; font-size: 13px; fill: rgb(51, 51, 51); fill-opacity: 1; white-space: pre; text-shadow: white 1px 1px 1px, white -1px -1px 1px, white 1px -1px 1px, white -1px 1px 1px;">Frames</text></g><g class="sankey-node" transform="translate(430.000,120.870)" style="opacity: 1;"><rect class="node-rect" width="10" height="63.913043478885925" style="stroke-width: 0.5; stroke: rgb(68, 68, 68); stroke-opacity: 1; fill: rgb(51, 51, 51); fill-opacity: 1;"/><text class="node-label" data-notex="1" x="0" y="0" text-anchor="end" transform="translate(-3.25,36.50652173944296)" style="cursor: default; font-family: Arial; font-size: 13px; fill: rgb(51, 51, 51); fill-opacity: 1; white-space: pre; text-shadow: white 1px 1px 1px, white -1px -1px 1px, white 1px -1px 1px, white -1px 1px 1px;">Semantic Net</text></g></g></g><defs id="topdefs-10868e"><g class="clips"/></defs><g class="layer-above"><g class="imagelayer"/><g class="shapelayer"/></g><g class="infolayer"><g class="g-gtitle"/><g class="first-render"/></g></svg>