<svg class="main-svg" xmlns="http://www.w3.org/2000/svg" xmlns:xlink="http://www.w3.org/1999/xlink" width="600" height="500" style="" viewBox="0 0 600 500"><rect x="0" y="0" width="600" height="500" style="fill: rgb(255, 255, 255); fill-opacity: 1;"/><defs id="defs-11ab24"><g class="clips"/><g class="gradients"/><g class="patterns"/></defs><g class="bglayer"/><g class="layer-below"><g class="imagelayer"/><g class="shapelayer"/></g><g class="cartesianlayer"/><g class="polarlayer"/><g class="smithlayer"/><g class="ternarylayer"/><g class="geolayer"/><g class="funnelarealayer"/><g class="pielayer"/><g class="iciclelayer"/><g class="treemaplayer"/><g class="sunburstlayer"/><g class="glimages"/><g class="sankey" transform="translate(80,100)matrix(1 0 0 1 0 0)" style="box-sizing: content-box; position: absolute; left: 0px; shape-rendering: geometricprecision; pointer-events: auto;"><g class="sankey-links" style="fill: none;"><path class="sankey-link" d="M10,192.57352941230363C112.5,192.57352941230363 112.5,129.4852941171618 215,129.4852941171618L215,132.35294117605036C112.5,132.35294117605036 112.5,195.4411764711922 10,195.4411764711922Z" style="stroke: rgb(68, 68, 68); stroke-opacity: 1; fill: rgb(69, 2, 86); fill-opacity: 1; stroke-width: 0; opacity: 1;"/><path class="sankey-link" d="M10,101.61764706016125C112.5,101.61764706016125 112.5,86.47058823526747 215,86.47058823526747L215,89.33823529415601C112.5,89.33823529415601 112.5,104.48529411904978 10,104.48529411904978Z" style="stroke: rgb(68, 68, 68); stroke-opacity: 1; fill: rgb(87, 188, 214); fill-opacity: 1; stroke-width: 0; opacity: 1;"/><path class="sankey-link" d="M225,161.02941176387836C327.5,161.02941176387836 327.5,151.80147058829698 430,151.80147058829698L430,157.53676470578728C327.5,157.53676470578728 327.5,166.76470588136866 225,166.76470588136866Z" style="stroke: rgb(68, 68, 68); stroke-opacity: 1; fill: rgb(87, 188, 214); fill-opacity: 1; stroke-width: 0; opacity: 1;"/><path class="sankey-link" d="M10,195.44117647119216C112.5,195.44117647119216 112.5,132.35294117605034 215,132.35294117605034L215,138.08823529354063C112.5,138.08823529354063 112.5,201.17647058868246 10,201.17647058868246Z" style="stroke: rgb(68, 68, 68); stroke-opacity: 1; fill: rgb(69, 2, 86); fill-opacity: 1; stroke-width: 0; opacity: 1;"/><path class="sankey-link" d="M225,166.76470588136868C327.5,166.76470588136868 327.5,157.5367647057873 430,157.5367647057873L430,163.2720588232776C327.5,163.2720588232776 327.5,172.49999999885898 225,172.49999999885898Z" style="stroke: rgb(68, 68, 68); stroke-opacity: 1; fill: rgb(69, 2, 86); fill-opacity: 1; stroke-width: 0; opacity: 1;"/><path class="sankey-link" d="M225,172.499999998859C327.5,172.499999998859 327.5,163.27205882327763 430,163.27205882327763L430,169.00735294076793C327.5,169.00735294076793 327.5,178.2352941163493 225,178.2352941163493Z" style="stroke: rgb(68, 68, 68); stroke-opacity: 1; fill: rgb(69, 2, 86); fill-opacity: 1; stroke-width: 0; opacity: 1;"/><path class="sankey-link" d="M10,144.63235294205558C112.5,144.63235294205558 112.5,246.2499999986917 215,246.2499999986917L215,251.985294116182C112.5,251.985294116182 112.5,150.36764705954587 10,150.36764705954587Z" style="stroke: rgb(68, 68, 68); stroke-opacity: 1; fill: rgb(87, 188, 214); fill-opacity: 1; stroke-width: 0; opacity: 1;"/><path class="sankey-link" d="M225,246.2499999986917C327.5,246.2499999986917 327.5,66.67279411660454 430,66.67279411660454L430,68.58455882256209C327.5,68.58455882256209 327.5,248.16176470464927 225,248.16176470464927Z" style="stroke: rgb(68, 68, 68); stroke-opacity: 1; fill: rgb(87, 188, 214); fill-opacity: 1; stroke-width: 0; opacity: 1;"/><path class="sankey-link" d="M225,261.066176469797C327.5,261.066176469797 327.5,227.70220588133728 430,227.70220588133728L430,229.61397058729486C327.5,229.61397058729486 327.5,262.9779411757546 225,262.9779411757546Z" style="stroke: rgb(68, 68, 68); stroke-opacity: 1; fill: rgb(87, 188, 214); fill-opacity: 1; stroke-width: 0; opacity: 1;"/><path class="sankey-link" d="M225,253.65808823424436C327.5,253.65808823424436 327.5,117.48161764678666 430,117.48161764678666L430,119.39338235274421C327.5,119.39338235274421 327.5,255.56985294020194 225,255.56985294020194Z" style="stroke: rgb(68, 68, 68); stroke-opacity: 1; fill: rgb(87, 188, 214); fill-opacity: 1; stroke-width: 0; opacity: 1;"/><path class="sankey-link" d="M10,104.4852941190498C112.5,104.4852941190498 112.5,89.33823529415602 215,89.33823529415602L215,95.07352941164635C112.5,95.07352941164635 112.5,110.22058823654012 10,110.22058823654012Z" style="stroke: rgb(68, 68, 68); stroke-opacity: 1; fill: rgb(87, 188, 214); fill-opacity: 1; stroke-width: 0; opacity: 1;"/><path class="sankey-link" d="M225,86.47058823526747C327.5,86.47058823526747 327.5,-9.947598300641403e-14 430,-9.947598300641403e-14L430,5.7352941174902226C327.5,5.7352941174902226 327.5,92.2058823527578 225,92.2058823527578Z" style="stroke: rgb(68, 68, 68); stroke-opacity: 1; fill: rgb(87, 188, 214); fill-opacity: 1; stroke-width: 0; opacity: 1;"/><path class="sankey-link" d="M10,201.1764705886825C112.5,201.1764705886825 112.5,138.08823529354066 215,138.08823529354066L215,140.95588235242923C112.5,140.95588235242923 112.5,204.04411764757106 10,204.04411764757106Z" style="stroke: rgb(68, 68, 68); stroke-opacity: 1; fill: rgb(69, 2, 86); fill-opacity: 1; stroke-width: 0; opacity: 1;"/><path class="sankey-link" d="M10,110.22058823654012C112.5,110.22058823654012 112.5,95.07352941164635 215,95.07352941164635L215,97.94117647053488C112.5,97.94117647053488 112.5,113.08823529542866 10,113.08823529542866Z" style="stroke: rgb(68, 68, 68); stroke-opacity: 1; fill: rgb(87, 188, 214); fill-opacity: 1; stroke-width: 0; opacity: 1;"/><path class="sankey-link" d="M225,178.23529411634934C327.5,178.23529411634934 327.5,169.00735294076796 430,169.00735294076796L430,174.74264705825826C327.5,174.74264705825826 327.5,183.97058823383963 225,183.97058823383963Z" style="stroke: rgb(68, 68, 68); stroke-opacity: 1; fill: rgb(87, 188, 214); fill-opacity: 1; stroke-width: 0; opacity: 1;"/><path class="sankey-link" d="M10,204.04411764757103C112.5,204.04411764757103 112.5,140.9558823524292 215,140.9558823524292L215,146.6911764699195C112.5,146.6911764699195 112.5,209.77941176506133 10,209.77941176506133Z" style="stroke: rgb(68, 68, 68); stroke-opacity: 1; fill: rgb(69, 2, 86); fill-opacity: 1; stroke-width: 0; opacity: 1;"/><path class="sankey-link" d="M225,183.97058823383966C327.5,183.97058823383966 327.5,174.74264705825829 430,174.74264705825829L430,180.47794117574858C327.5,180.47794117574858 327.5,189.70588235132996 225,189.70588235132996Z" style="stroke: rgb(68, 68, 68); stroke-opacity: 1; fill: rgb(69, 2, 86); fill-opacity: 1; stroke-width: 0; opacity: 1;"/><path class="sankey-link" d="M10,209.77941176506135C112.5,209.77941176506135 112.5,146.69117646991953 215,146.69117646991953L215,149.5588235288081C112.5,149.5588235288081 112.5,212.64705882394992 10,212.64705882394992Z" style="stroke: rgb(68, 68, 68); stroke-opacity: 1; fill: rgb(69, 2, 86); fill-opacity: 1; stroke-width: 0; opacity: 1;"/><path class="sankey-link" d="M10,113.08823529542866C112.5,113.08823529542866 112.5,97.94117647053488 215,97.94117647053488L215,100.80882352942342C112.5,100.80882352942342 112.5,115.9558823543172 10,115.9558823543172Z" style="stroke: rgb(68, 68, 68); stroke-opacity: 1; fill: rgb(87, 188, 214); fill-opacity: 1; stroke-width: 0; opacity: 1;"/><path class="sankey-link" d="M225,201.17647058631064C327.5,201.17647058631064 327.5,222.6838235282196 430,222.6838235282196L430,224.11764705769968C327.5,224.11764705769968 327.5,202.61029411579074 225,202.61029411579074Z" style="stroke: rgb(68, 68, 68); stroke-opacity: 1; fill: rgb(87, 188, 214); fill-opacity: 1; stroke-width: 0; opacity: 1;"/><path class="sankey-link" d="M225,153.14338235187213C327.5,153.14338235187213 327.5,109.59558823478045 430,109.59558823478045L430,111.02941176426057C327.5,111.02941176426057 327.5,154.57720588135223 225,154.57720588135223Z" style="stroke: rgb(68, 68, 68); stroke-opacity: 1; fill: rgb(87, 188, 214); fill-opacity: 1; stroke-width: 0; opacity: 1;"/><path class="sankey-link" d="M225,210.496323527797C327.5,210.496323527797 327.5,296.1029411760623 430,296.1029411760623L430,297.53676470554245C327.5,297.53676470554245 327.5,211.93014705727708 225,211.93014705727708Z" style="stroke: rgb(68, 68, 68); stroke-opacity: 1; fill: rgb(87, 188, 214); fill-opacity: 1; stroke-width: 0; opacity: 1;"/><path class="sankey-link" d="M225,206.19485293942833C327.5,206.19485293942833 327.5,262.97794117577854 430,262.97794117577854L430,264.4117647052587C327.5,264.4117647052587 327.5,207.62867646890842 225,207.62867646890842Z" style="stroke: rgb(68, 68, 68); stroke-opacity: 1; fill: rgb(87, 188, 214); fill-opacity: 1; stroke-width: 0; opacity: 1;"/><path class="sankey-link" d="M10,150.3676470595459C112.5,150.3676470595459 112.5,251.98529411618202 215,251.98529411618202L215,257.72058823367234C112.5,257.72058823367234 112.5,156.1029411770362 10,156.1029411770362Z" style="stroke: rgb(68, 68, 68); stroke-opacity: 1; fill: rgb(87, 188, 214); fill-opacity: 1; stroke-width: 0; opacity: 1;"/><path class="sankey-link" d="M225,248.16176470464924C327.5,248.16176470464924 327.5,68.58455882256209 430,68.58455882256209L430,71.45220588145062C327.5,71.45220588145062 327.5,251.0294117635378 225,251.0294117635378Z" style="stroke: rgb(68, 68, 68); stroke-opacity: 1; fill: rgb(87, 188, 214); fill-opacity: 1; stroke-width: 0; opacity: 1;"/><path class="sankey-link" d="M225,255.56985294020188C327.5,255.56985294020188 327.5,119.39338235274421 430,119.39338235274421L430,122.26102941163275C327.5,122.26102941163275 327.5,258.43749999909045 225,258.43749999909045Z" style="stroke: rgb(68, 68, 68); stroke-opacity: 1; fill: rgb(87, 188, 214); fill-opacity: 1; stroke-width: 0; opacity: 1;"/><path class="sankey-link" d="M225,92.2058823527578C327.5,92.2058823527578 327.5,5.7352941174902226 430,5.7352941174902226L430,8.602941176378767C327.5,8.602941176378767 327.5,95.07352941164633 225,95.07352941164633Z" style="stroke: rgb(68, 68, 68); stroke-opacity: 1; fill: rgb(87, 188, 214); fill-opacity: 1; stroke-width: 0; opacity: 1;"/><path class="sankey-link" d="M225,211.9301470572771C327.5,211.9301470572771 327.5,297.5367647055424 430,297.5367647055424L430,300.40441176443096C327.5,300.40441176443096 327.5,214.79779411616568 225,214.79779411616568Z" style="stroke: rgb(68, 68, 68); stroke-opacity: 1; fill: rgb(87, 188, 214); fill-opacity: 1; stroke-width: 0; opacity: 1;"/><path class="sankey-link" d="M10,115.9558823543172C112.5,115.9558823543172 112.5,100.80882352942342 215,100.80882352942342L215,106.54411764691375C112.5,106.54411764691375 112.5,121.69117647180752 10,121.69117647180752Z" style="stroke: rgb(68, 68, 68); stroke-opacity: 1; fill: rgb(87, 188, 214); fill-opacity: 1; stroke-width: 0; opacity: 1;"/><path class="sankey-link" d="M225,95.07352941164635C327.5,95.07352941164635 327.5,8.602941176378767 430,8.602941176378767L430,11.47058823526731C327.5,11.47058823526731 327.5,97.94117647053488 225,97.94117647053488Z" style="stroke: rgb(68, 68, 68); stroke-opacity: 1; fill: rgb(87, 188, 214); fill-opacity: 1; stroke-width: 0; opacity: 1;"/><path class="sankey-link" d="M225,154.57720588135226C327.5,154.57720588135226 327.5,111.02941176426057 430,111.02941176426057L430,113.89705882314911C327.5,113.89705882314911 327.5,157.44485294024082 225,157.44485294024082Z" style="stroke: rgb(68, 68, 68); stroke-opacity: 1; fill: rgb(87, 188, 214); fill-opacity: 1; stroke-width: 0; opacity: 1;"/><path class="sankey-link" d="M10,247.05882352946534C112.5,247.05882352946534 112.5,297.0588235289873 215,297.0588235289873L215,299.9264705878759C112.5,299.9264705878759 112.5,249.9264705883539 10,249.9264705883539Z" style="stroke: rgb(68, 68, 68); stroke-opacity: 1; fill: rgb(69, 2, 86); fill-opacity: 1; stroke-width: 0; opacity: 1;"/><path class="sankey-link" d="M10,161.83823529452656C112.5,161.83823529452656 112.5,291.3235294112102 215,291.3235294112102L215,294.19117647009875C112.5,294.19117647009875 112.5,164.70588235341512 10,164.70588235341512Z" style="stroke: rgb(68, 68, 68); stroke-opacity: 1; fill: rgb(87, 188, 214); fill-opacity: 1; stroke-width: 0; opacity: 1;"/><path class="sankey-link" d="M225,291.3235294112102C327.5,291.3235294112102 327.5,76.94852941104574 430,76.94852941104574L430,79.81617646993428C327.5,79.81617646993428 327.5,294.19117647009875 225,294.19117647009875Z" style="stroke: rgb(68, 68, 68); stroke-opacity: 1; fill: rgb(87, 188, 214); fill-opacity: 1; stroke-width: 0; opacity: 1;"/><path class="sankey-link" d="M225,306.6176470583928C327.5,306.6176470583928 327.5,230.33088235204386 430,230.33088235204386L430,233.19852941093242C327.5,233.19852941093242 327.5,309.48529411728134 225,309.48529411728134Z" style="stroke: rgb(68, 68, 68); stroke-opacity: 1; fill: rgb(87, 188, 214); fill-opacity: 1; stroke-width: 0; opacity: 1;"/><path class="sankey-link" d="M10,212.6470588239499C112.5,212.6470588239499 112.5,149.55882352880806 215,149.55882352880806L215,152.42647058769663C112.5,152.42647058769663 112.5,215.51470588283846 10,215.51470588283846Z" style="stroke: rgb(68, 68, 68); stroke-opacity: 1; fill: rgb(69, 2, 86); fill-opacity: 1; stroke-width: 0; opacity: 1;"/><path class="sankey-link" d="M10,121.69117647180752C112.5,121.69117647180752 112.5,106.54411764691375 215,106.54411764691375L215,109.41176470580228C112.5,109.41176470580228 112.5,124.55882353069606 10,124.55882353069606Z" style="stroke: rgb(68, 68, 68); stroke-opacity: 1; fill: rgb(87, 188, 214); fill-opacity: 1; stroke-width: 0; opacity: 1;"/><path class="sankey-link" d="M225,97.94117647053488C327.5,97.94117647053488 327.5,11.47058823526731 430,11.47058823526731L430,17.205882352757634C327.5,17.205882352757634 327.5,103.67647058802521 225,103.67647058802521Z" style="stroke: rgb(68, 68, 68); stroke-opacity: 1; fill: rgb(87, 188, 214); fill-opacity: 1; stroke-width: 0; opacity: 1;"/><path class="sankey-link" d="M10,124.55882353069606C112.5,124.55882353069606 112.5,109.41176470580228 215,109.41176470580228L215,115.14705882329261C112.5,115.14705882329261 112.5,130.2941176481864 10,130.2941176481864Z" style="stroke: rgb(68, 68, 68); stroke-opacity: 1; fill: rgb(87, 188, 214); fill-opacity: 1; stroke-width: 0; opacity: 1;"/><path class="sankey-link" d="M225,103.67647058802521C327.5,103.67647058802521 327.5,17.205882352757634 430,17.205882352757634L430,22.941176470247953C327.5,22.941176470247953 327.5,109.41176470551554 225,109.41176470551554Z" style="stroke: rgb(68, 68, 68); stroke-opacity: 1; fill: rgb(87, 188, 214); fill-opacity: 1; stroke-width: 0; opacity: 1;"/><path class="sankey-link" d="M10,156.10294117703623C112.5,156.10294117703623 112.5,257.72058823367234 215,257.72058823367234L215,263.45588235116264C112.5,263.45588235116264 112.5,161.83823529452653 10,161.83823529452653Z" style="stroke: rgb(68, 68, 68); stroke-opacity: 1; fill: rgb(87, 188, 214); fill-opacity: 1; stroke-width: 0; opacity: 1;"/><path class="sankey-link" d="M225,251.02941176353778C327.5,251.02941176353778 327.5,71.45220588145062 430,71.45220588145062L430,73.36397058740818C327.5,73.36397058740818 327.5,252.94117646949536 225,252.94117646949536Z" style="stroke: rgb(68, 68, 68); stroke-opacity: 1; fill: rgb(87, 188, 214); fill-opacity: 1; stroke-width: 0; opacity: 1;"/><path class="sankey-link" d="M225,258.43749999909045C327.5,258.43749999909045 327.5,122.26102941163276 430,122.26102941163276L430,124.17279411759031C327.5,124.17279411759031 327.5,260.34926470504803 225,260.34926470504803Z" style="stroke: rgb(68, 68, 68); stroke-opacity: 1; fill: rgb(87, 188, 214); fill-opacity: 1; stroke-width: 0; opacity: 1;"/><path class="sankey-link" d="M225,263.6948529405036C327.5,263.6948529405036 327.5,306.8566176469571 430,306.8566176469571L430,308.76838235291467C327.5,308.76838235291467 327.5,265.6066176464612 225,265.6066176464612Z" style="stroke: rgb(68, 68, 68); stroke-opacity: 1; fill: rgb(87, 188, 214); fill-opacity: 1; stroke-width: 0; opacity: 1;"/><path class="sankey-link" d="M225,109.41176470551554C327.5,109.41176470551554 327.5,22.941176470247957 430,22.941176470247957L430,25.8088235291365C327.5,25.8088235291365 327.5,112.27941176440407 225,112.27941176440407Z" style="stroke: rgb(68, 68, 68); stroke-opacity: 1; fill: rgb(87, 188, 214); fill-opacity: 1; stroke-width: 0; opacity: 1;"/><path class="sankey-link" d="M225,207.62867646890845C327.5,207.62867646890845 327.5,264.41176470525863 430,264.41176470525863L430,267.2794117641472C327.5,267.2794117641472 327.5,210.49632352779702 225,210.49632352779702Z" style="stroke: rgb(68, 68, 68); stroke-opacity: 1; fill: rgb(87, 188, 214); fill-opacity: 1; stroke-width: 0; opacity: 1;"/><path class="sankey-link" d="M225,112.27941176440407C327.5,112.27941176440407 327.5,25.8088235291365 430,25.8088235291365L430,31.54411764662682C327.5,31.54411764662682 327.5,118.0147058818944 225,118.0147058818944Z" style="stroke: rgb(68, 68, 68); stroke-opacity: 1; fill: rgb(87, 188, 214); fill-opacity: 1; stroke-width: 0; opacity: 1;"/><path class="sankey-link" d="M10,130.2941176481864C112.5,130.2941176481864 112.5,115.14705882329261 215,115.14705882329261L215,120.88235294078294C112.5,120.88235294078294 112.5,136.02941176567668 10,136.02941176567668Z" style="stroke: rgb(68, 68, 68); stroke-opacity: 1; fill: rgb(87, 188, 214); fill-opacity: 1; stroke-width: 0; opacity: 1;"/><path class="sankey-link" d="M225,202.61029411579077C327.5,202.61029411579077 327.5,224.1176470576997 430,224.1176470576997L430,226.98529411658828C327.5,226.98529411658828 327.5,205.47794117467933 225,205.47794117467933Z" style="stroke: rgb(68, 68, 68); stroke-opacity: 1; fill: rgb(87, 188, 214); fill-opacity: 1; stroke-width: 0; opacity: 1;"/><path class="sankey-link" d="M225,214.79779411616565C327.5,214.79779411616565 327.5,300.40441176443096 430,300.40441176443096L430,303.2720588233195C327.5,303.2720588233195 327.5,217.6654411750542 225,217.6654411750542Z" style="stroke: rgb(68, 68, 68); stroke-opacity: 1; fill: rgb(87, 188, 214); fill-opacity: 1; stroke-width: 0; opacity: 1;"/><path class="sankey-link" d="M10,215.51470588283843C112.5,215.51470588283843 112.5,152.4264705876966 215,152.4264705876966L215,155.29411764658516C112.5,155.29411764658516 112.5,218.382352941727 10,218.382352941727Z" style="stroke: rgb(68, 68, 68); stroke-opacity: 1; fill: rgb(69, 2, 86); fill-opacity: 1; stroke-width: 0; opacity: 1;"/><path class="sankey-link" d="M10,136.0294117656767C112.5,136.0294117656767 112.5,120.88235294078294 215,120.88235294078294L215,123.74999999967147C112.5,123.74999999967147 112.5,138.89705882456528 10,138.89705882456528Z" style="stroke: rgb(68, 68, 68); stroke-opacity: 1; fill: rgb(87, 188, 214); fill-opacity: 1; stroke-width: 0; opacity: 1;"/><path class="sankey-link" d="M225,189.70588235133C327.5,189.70588235133 327.5,180.4779411757486 430,180.4779411757486L430,186.2132352932389C327.5,186.2132352932389 327.5,195.4411764688203 225,195.4411764688203Z" style="stroke: rgb(68, 68, 68); stroke-opacity: 1; fill: rgb(87, 188, 214); fill-opacity: 1; stroke-width: 0; opacity: 1;"/><path class="sankey-link" d="M10,218.38235294172696C112.5,218.38235294172696 112.5,155.29411764658514 215,155.29411764658514L215,161.02941176407543C112.5,161.02941176407543 112.5,224.11764705921726 10,224.11764705921726Z" style="stroke: rgb(68, 68, 68); stroke-opacity: 1; fill: rgb(69, 2, 86); fill-opacity: 1; stroke-width: 0; opacity: 1;"/><path class="sankey-link" d="M225,118.0147058818944C327.5,118.0147058818944 327.5,31.544117646626827 430,31.544117646626827L430,37.27941176411715C327.5,37.27941176411715 327.5,123.74999999938473 225,123.74999999938473Z" style="stroke: rgb(68, 68, 68); stroke-opacity: 1; fill: rgb(69, 2, 86); fill-opacity: 1; stroke-width: 0; opacity: 1;"/><path class="sankey-link" d="M10,283.52941176473263C220,283.52941176473263 220,74.08088235215719 430,74.08088235215719L430,76.94852941104573C220,76.94852941104573 220,286.3970588236212 10,286.3970588236212Z" style="stroke: rgb(68, 68, 68); stroke-opacity: 1; fill: rgb(69, 2, 86); fill-opacity: 1; stroke-width: 0; opacity: 1;"/><path class="sankey-link" d="M10,286.3970588236212C220,286.3970588236212 220,309.48529411766367 430,309.48529411766367L430,312.35294117655224C220,312.35294117655224 220,289.26470588250976 10,289.26470588250976Z" style="stroke: rgb(68, 68, 68); stroke-opacity: 1; fill: rgb(69, 2, 86); fill-opacity: 1; stroke-width: 0; opacity: 1;"/><path class="sankey-link" d="M10,224.1176470592173C112.5,224.1176470592173 112.5,161.02941176407546 215,161.02941176407546L215,166.76470588156576C112.5,166.76470588156576 112.5,229.8529411767076 10,229.8529411767076Z" style="stroke: rgb(68, 68, 68); stroke-opacity: 1; fill: rgb(69, 2, 86); fill-opacity: 1; stroke-width: 0; opacity: 1;"/><path class="sankey-link" d="M225,123.74999999938473C327.5,123.74999999938473 327.5,37.27941176411714 430,37.27941176411714L430,40.14705882300568C327.5,40.14705882300568 327.5,126.61764705827326 225,126.61764705827326Z" style="stroke: rgb(68, 68, 68); stroke-opacity: 1; fill: rgb(69, 2, 86); fill-opacity: 1; stroke-width: 0; opacity: 1;"/><path class="sankey-link" d="M225,157.4448529402408C327.5,157.4448529402408 327.5,113.89705882314911 430,113.89705882314911L430,116.76470588203765C327.5,116.76470588203765 327.5,160.31249999912936 225,160.31249999912936Z" style="stroke: rgb(68, 68, 68); stroke-opacity: 1; fill: rgb(69, 2, 86); fill-opacity: 1; stroke-width: 0; opacity: 1;"/><path class="sankey-link" d="M10,229.85294117670762C112.5,229.85294117670762 112.5,166.7647058815658 215,166.7647058815658L215,172.4999999990561C112.5,172.4999999990561 112.5,235.58823529419791 10,235.58823529419791Z" style="stroke: rgb(68, 68, 68); stroke-opacity: 1; fill: rgb(69, 2, 86); fill-opacity: 1; stroke-width: 0; opacity: 1;"/><path class="sankey-link" d="M225,126.61764705827325C327.5,126.61764705827325 327.5,40.147058823005686 430,40.147058823005686L430,45.88235294049601C327.5,45.88235294049601 327.5,132.35294117576356 225,132.35294117576356Z" style="stroke: rgb(68, 68, 68); stroke-opacity: 1; fill: rgb(69, 2, 86); fill-opacity: 1; stroke-width: 0; opacity: 1;"/><path class="sankey-link" d="M10,138.89705882456525C112.5,138.89705882456525 112.5,123.74999999967147 215,123.74999999967147L215,129.4852941171618C112.5,129.4852941171618 112.5,144.63235294205555 10,144.63235294205555Z" style="stroke: rgb(68, 68, 68); stroke-opacity: 1; fill: rgb(87, 188, 214); fill-opacity: 1; stroke-width: 0; opacity: 1;"/><path class="sankey-link" d="M225,132.3529411757636C327.5,132.3529411757636 327.5,45.882352940496006 430,45.882352940496006L430,51.61764705798633C327.5,51.61764705798633 327.5,138.0882352932539 225,138.0882352932539Z" style="stroke: rgb(68, 68, 68); stroke-opacity: 1; fill: rgb(87, 188, 214); fill-opacity: 1; stroke-width: 0; opacity: 1;"/><path class="sankey-link" d="M10,235.58823529419794C112.5,235.58823529419794 112.5,172.49999999905612 215,172.49999999905612L215,178.2352941165464C112.5,178.2352941165464 112.5,241.32352941168824 10,241.32352941168824Z" style="stroke: rgb(68, 68, 68); stroke-opacity: 1; fill: rgb(69, 2, 86); fill-opacity: 1; stroke-width: 0; opacity: 1;"/><path class="sankey-link" d="M225,138.08823529325392C327.5,138.08823529325392 327.5,51.61764705798633 430,51.61764705798633L430,54.48529411687487C327.5,54.48529411687487 327.5,140.95588235214248 225,140.95588235214248Z" style="stroke: rgb(68, 68, 68); stroke-opacity: 1; fill: rgb(69, 2, 86); fill-opacity: 1; stroke-width: 0; opacity: 1;"/><path class="sankey-link" d="M225,217.66544117505418C327.5,217.66544117505418 327.5,303.2720588233195 430,303.2720588233195L430,306.1397058822081C327.5,306.1397058822081 327.5,220.53308823394275 225,220.53308823394275Z" style="stroke: rgb(68, 68, 68); stroke-opacity: 1; fill: rgb(69, 2, 86); fill-opacity: 1; stroke-width: 0; opacity: 1;"/><path class="sankey-link" d="M10,314.2647058825097C220,314.2647058825097 220,314.2647058825098 430,314.2647058825098L430,320.0000000000001C220,320.0000000000001 220,320 10,320Z" style="stroke: rgb(68, 68, 68); stroke-opacity: 1; fill: rgb(69, 2, 86); fill-opacity: 1; stroke-width: 0; opacity: 1;"/><path class="sankey-link" d="M225,140.95588235214245C327.5,140.95588235214245 327.5,54.48529411687487 430,54.48529411687487L430,60.220588234365195C327.5,60.220588234365195 327.5,146.69117646963275 225,146.69117646963275Z" style="stroke: rgb(68, 68, 68); stroke-opacity: 1; fill: rgb(69, 2, 86); fill-opacity: 1; stroke-width: 0; opacity: 1;"/><path class="sankey-link" d="M10,241.32352941168827C112.5,241.32352941168827 112.5,178.23529411654644 215,178.23529411654644L215,181.102941175435C112.5,181.102941175435 112.5,244.19117647057683 10,244.19117647057683Z" style="stroke: rgb(68, 68, 68); stroke-opacity: 1; fill: rgb(69, 2, 86); fill-opacity: 1; stroke-width: 0; opacity: 1;"/><path class="sankey-link" d="M10,244.1911764705768C112.5,244.1911764705768 112.5,263.45588235116264 215,263.45588235116264L215,266.3235294100512C112.5,266.3235294100512 112.5,247.05882352946537 10,247.05882352946537Z" style="stroke: rgb(68, 68, 68); stroke-opacity: 1; fill: rgb(69, 2, 86); fill-opacity: 1; stroke-width: 0; opacity: 1;"/><path class="sankey-link" d="M225,146.69117646963278C327.5,146.69117646963278 327.5,60.22058823436519 430,60.22058823436519L430,60.9374999991142C327.5,60.9374999991142 327.5,147.40808823438178 225,147.40808823438178Z" style="stroke: rgb(69, 2, 86); stroke-opacity: 1; fill: rgb(69, 2, 86); fill-opacity: 1; stroke-width: 1; opacity: 1;"/><path class="sankey-link" d="M225,205.4779411746793C327.5,205.4779411746793 327.5,226.98529411658825 430,226.98529411658825L430,227.70220588133725C327.5,227.70220588133725 327.5,206.1948529394283 225,206.1948529394283Z" style="stroke: rgb(69, 2, 86); stroke-opacity: 1; fill: rgb(69, 2, 86); fill-opacity: 1; stroke-width: 1; opacity: 1;"/><path class="sankey-link" d="M225,160.31249999912933C327.5,160.31249999912933 327.5,116.76470588203765 430,116.76470588203765L430,117.48161764678667C327.5,117.48161764678667 327.5,161.02941176387833 225,161.02941176387833Z" style="stroke: rgb(69, 2, 86); stroke-opacity: 1; fill: rgb(69, 2, 86); fill-opacity: 1; stroke-width: 1; opacity: 1;"/><path class="sankey-link" d="M225,220.53308823394272C327.5,220.53308823394272 327.5,306.1397058822081 430,306.1397058822081L430,306.85661764695715C327.5,306.85661764695715 327.5,221.24999999869172 225,221.24999999869172Z" style="stroke: rgb(69, 2, 86); stroke-opacity: 1; fill: rgb(69, 2, 86); fill-opacity: 1; stroke-width: 1; opacity: 1;"/><path class="sankey-link" d="M225,252.94117646949533C327.5,252.94117646949533 327.5,73.36397058740818 430,73.36397058740818L430,74.0808823521572C327.5,74.0808823521572 327.5,253.65808823424433 225,253.65808823424433Z" style="stroke: rgb(69, 2, 86); stroke-opacity: 1; fill: rgb(69, 2, 86); fill-opacity: 1; stroke-width: 1; opacity: 1;"/><path class="sankey-link" d="M225,262.9779411757546C327.5,262.9779411757546 327.5,229.61397058729483 430,229.61397058729483L430,230.33088235204383C327.5,230.33088235204383 327.5,263.69485294050367 225,263.69485294050367Z" style="stroke: rgb(69, 2, 86); stroke-opacity: 1; fill: rgb(69, 2, 86); fill-opacity: 1; stroke-width: 1; opacity: 1;"/><path class="sankey-link" d="M225,260.34926470504803C327.5,260.34926470504803 327.5,124.17279411759031 430,124.17279411759031L430,124.88970588233934C327.5,124.88970588233934 327.5,261.0661764697971 225,261.0661764697971Z" style="stroke: rgb(69, 2, 86); stroke-opacity: 1; fill: rgb(69, 2, 86); fill-opacity: 1; stroke-width: 1; opacity: 1;"/><path class="sankey-link" d="M225,265.6066176464612C327.5,265.6066176464612 327.5,308.76838235291467 430,308.76838235291467L430,309.4852941176637C327.5,309.4852941176637 327.5,266.32352941121025 225,266.32352941121025Z" style="stroke: rgb(69, 2, 86); stroke-opacity: 1; fill: rgb(69, 2, 86); fill-opacity: 1; stroke-width: 1; opacity: 1;"/><path class="sankey-link" d="M225,147.4080882343818C327.5,147.4080882343818 327.5,60.93749999911421 430,60.93749999911421L430,66.67279411660454C327.5,66.67279411660454 327.5,153.1433823518721 225,153.1433823518721Z" style="stroke: rgb(68, 68, 68); stroke-opacity: 1; fill: rgb(69, 2, 86); fill-opacity: 1; stroke-width: 0; opacity: 1;"/><path class="sankey-link" d="M10,249.92647058835388C112.5,249.92647058835388 112.5,299.9264705878759 215,299.9264705878759L215,305.6617647053662C112.5,305.6617647053662 112.5,255.66176470584418 10,255.66176470584418Z" style="stroke: rgb(68, 68, 68); stroke-opacity: 1; fill: rgb(69, 2, 86); fill-opacity: 1; stroke-width: 0; opacity: 1;"/><path class="sankey-link" d="M225,300.8823529409025C327.5,300.8823529409025 327.5,191.94852941072926 430,191.94852941072926L430,197.68382352821956C327.5,197.68382352821956 327.5,306.6176470583928 225,306.6176470583928Z" style="stroke: rgb(68, 68, 68); stroke-opacity: 1; fill: rgb(69, 2, 86); fill-opacity: 1; stroke-width: 0; opacity: 1;"/><path class="sankey-link" d="M225,195.44117646882032C327.5,195.44117646882032 327.5,186.21323529323894 430,186.21323529323894L430,191.94852941072924C327.5,191.94852941072924 327.5,201.17647058631061 225,201.17647058631061Z" style="stroke: rgb(68, 68, 68); stroke-opacity: 1; fill: rgb(69, 2, 86); fill-opacity: 1; stroke-width: 0; opacity: 1;"/><path class="sankey-link" d="M10,255.66176470584418C112.5,255.66176470584418 112.5,305.6617647053662 215,305.6617647053662L215,308.52941176425475C112.5,308.52941176425475 112.5,258.52941176473274 10,258.52941176473274Z" style="stroke: rgb(68, 68, 68); stroke-opacity: 1; fill: rgb(69, 2, 86); fill-opacity: 1; stroke-width: 0; opacity: 1;"/><path class="sankey-link" d="M10,164.7058823534151C112.5,164.7058823534151 112.5,294.19117647009875 215,294.19117647009875L215,297.0588235289873C112.5,297.0588235289873 112.5,167.57352941230366 10,167.57352941230366Z" style="stroke: rgb(68, 68, 68); stroke-opacity: 1; fill: rgb(87, 188, 214); fill-opacity: 1; stroke-width: 0; opacity: 1;"/><path class="sankey-link" d="M225,309.48529411728134C327.5,309.48529411728134 327.5,233.1985294109324 430,233.1985294109324L430,235.11029411688997C327.5,235.11029411688997 327.5,311.3970588232389 225,311.3970588232389Z" style="stroke: rgb(68, 68, 68); stroke-opacity: 1; fill: rgb(87, 188, 214); fill-opacity: 1; stroke-width: 0; opacity: 1;"/><path class="sankey-link" d="M225,318.08823529404265C327.5,318.08823529404265 327.5,312.35294117655224 430,312.35294117655224L430,314.2647058825098C327.5,314.2647058825098 327.5,320.0000000000002 225,320.0000000000002Z" style="stroke: rgb(68, 68, 68); stroke-opacity: 1; fill: rgb(87, 188, 214); fill-opacity: 1; stroke-width: 0; opacity: 1;"/><path class="sankey-link" d="M225,314.2647058821275C327.5,314.2647058821275 327.5,267.2794117641472 430,267.2794117641472L430,269.1911764701048C327.5,269.1911764701048 327.5,316.17647058808507 225,316.17647058808507Z" style="stroke: rgb(68, 68, 68); stroke-opacity: 1; fill: rgb(87, 188, 214); fill-opacity: 1; stroke-width: 0; opacity: 1;"/><path class="sankey-link" d="M225,294.19117647009875C327.5,294.19117647009875 327.5,79.81617646993428 430,79.81617646993428L430,81.72794117589183C327.5,81.72794117589183 327.5,296.10294117605633 225,296.10294117605633Z" style="stroke: rgb(68, 68, 68); stroke-opacity: 1; fill: rgb(87, 188, 214); fill-opacity: 1; stroke-width: 0; opacity: 1;"/><path class="sankey-link" d="M225,298.9705882349449C327.5,298.9705882349449 327.5,124.88970588233933 430,124.88970588233933L430,126.80147058829688C327.5,126.80147058829688 327.5,300.8823529409025 225,300.8823529409025Z" style="stroke: rgb(68, 68, 68); stroke-opacity: 1; fill: rgb(87, 188, 214); fill-opacity: 1; stroke-width: 0; opacity: 1;"/><path class="sankey-link" d="M225,316.17647058808507C327.5,316.17647058808507 327.5,269.1911764701048 430,269.1911764701048L430,271.10294117606236C327.5,271.10294117606236 327.5,318.08823529404265 225,318.08823529404265Z" style="stroke: rgb(68, 68, 68); stroke-opacity: 1; fill: rgb(87, 188, 214); fill-opacity: 1; stroke-width: 0; opacity: 1;"/><path class="sankey-link" d="M225,296.10294117605633C327.5,296.10294117605633 327.5,81.72794117589183 430,81.72794117589183L430,84.59558823478037C327.5,84.59558823478037 327.5,298.9705882349449 225,298.9705882349449Z" style="stroke: rgb(68, 68, 68); stroke-opacity: 1; fill: rgb(87, 188, 214); fill-opacity: 1; stroke-width: 0; opacity: 1;"/><path class="sankey-link" d="M225,311.3970588232389C327.5,311.3970588232389 327.5,235.11029411688995 430,235.11029411688995L430,237.9779411757785C327.5,237.9779411757785 327.5,314.2647058821275 225,314.2647058821275Z" style="stroke: rgb(68, 68, 68); stroke-opacity: 1; fill: rgb(87, 188, 214); fill-opacity: 1; stroke-width: 0; opacity: 1;"/></g><g class="sankey-node-set" style="cursor: move;"><g class="sankey-node" transform="translate(0.000,192.574)" style="opacity: 1;"><rect class="node-rect" width="10" height="65.955882352429" style="stroke-width: 0.5; stroke: rgb(68, 68, 68); stroke-opacity: 1; fill: rgb(51, 51, 51); fill-opacity: 1;"/><text class="node-label" data-notex="1" x="0" y="0" text-anchor="start" transform="translate(13.25,37.5279411762145)" style="cursor: default; font-family: Arial; font-size: 13px; fill: rgb(51, 51, 51); fill-opacity: 1; white-space: pre; text-shadow: white 1px 1px 1px, white -1px -1px 1px, white 1px -1px 1px, white -1px 1px 1px;">Linguistic Structure</text></g><g class="sankey-node" transform="translate(0.000,101.618)" style="opacity: 1;"><rect class="node-rect" width="10" height="65.95588235214238" style="stroke-width: 0.5; stroke: rgb(68, 68, 68); stroke-opacity: 1; fill: rgb(51, 51, 51); fill-opacity: 1;"/><text class="node-label" data-notex="1" x="0" y="0" text-anchor="start" transform="translate(13.25,37.52794117607119)" style="cursor: default; font-family: Arial; font-size: 13px; fill: rgb(51, 51, 51); fill-opacity: 1; white-space: pre; text-shadow: white 1px 1px 1px, white -1px -1px 1px, white 1px -1px 1px, white -1px 1px 1px;">Relational Structure</text></g><g class="sankey-node" transform="translate(430.000,-0.000)" style="opacity: 1;"><rect class="node-rect" width="10" height="84.59558823478055" style="stroke-width: 0.5; stroke: rgb(68, 68, 68); stroke-opacity: 1; fill: rgb(51, 51, 51); fill-opacity: 1;"/><text class="node-label" data-notex="1" x="0" y="0" text-anchor="end" transform="translate(-3.25,46.84779411739027)" style="cursor: default; font-family: Arial; font-size: 13px; fill: rgb(51, 51, 51); fill-opacity: 1; white-space: pre; text-shadow: white 1px 1px 1px, white -1px -1px 1px, white 1px -1px 1px, white -1px 1px 1px;">Reasoning</text></g><g class="sankey-node" transform="translate(430.000,222.684)" style="opacity: 1;"><rect class="node-rect" width="10" height="15.294117647558949" style="stroke-width: 0.5; stroke: rgb(68, 68, 68); stroke-opacity: 1; fill: rgb(51, 51, 51); fill-opacity: 1;"/><text class="node-label" data-notex="1" x="0" y="0" text-anchor="end" transform="translate(-3.25,12.197058823779475)" style="cursor: default; font-family: Arial; font-size: 13px; fill: rgb(51, 51, 51); fill-opacity: 1; white-space: pre; text-shadow: white 1px 1px 1px, white -1px -1px 1px, white 1px -1px 1px, white -1px 1px 1px;">OOD Generalization</text></g><g class="sankey-node" transform="translate(430.000,109.596)" style="opacity: 1;"><rect class="node-rect" width="10" height="17.20588235351653" style="stroke-width: 0.5; stroke: rgb(68, 68, 68); stroke-opacity: 1; fill: rgb(51, 51, 51); fill-opacity: 1;"/><text class="node-label" data-notex="1" x="0" y="0" text-anchor="end" transform="translate(-3.25,13.152941176758265)" style="cursor: default; font-family: Arial; font-size: 13px; fill: rgb(51, 51, 51); fill-opacity: 1; white-space: pre; text-shadow: white 1px 1px 1px, white -1px -1px 1px, white 1px -1px 1px, white -1px 1px 1px;">Interpretability</text></g><g class="sankey-node" transform="translate(430.000,296.103)" style="opacity: 1;"><rect class="node-rect" width="10" height="23.897058823937698" style="stroke-width: 0.5; stroke: rgb(68, 68, 68); stroke-opacity: 1; fill: rgb(51, 51, 51); fill-opacity: 1;"/><text class="node-label" data-notex="1" x="0" y="0" text-anchor="end" transform="translate(-3.25,16.49852941196885)" style="cursor: default; font-family: Arial; font-size: 13px; fill: rgb(51, 51, 51); fill-opacity: 1; white-space: pre; text-shadow: white 1px 1px 1px, white -1px -1px 1px, white 1px -1px 1px, white -1px 1px 1px;">Reduced Data</text></g><g class="sankey-node" transform="translate(430.000,262.978)" style="opacity: 1;"><rect class="node-rect" width="10" height="8.125000000283762" style="stroke-width: 0.5; stroke: rgb(68, 68, 68); stroke-opacity: 1; fill: rgb(51, 51, 51); fill-opacity: 1;"/><text class="node-label" data-notex="1" x="0" y="0" text-anchor="end" transform="translate(-3.25,8.612500000141882)" style="cursor: default; font-family: Arial; font-size: 13px; fill: rgb(51, 51, 51); fill-opacity: 1; white-space: pre; text-shadow: white 1px 1px 1px, white -1px -1px 1px, white 1px -1px 1px, white -1px 1px 1px;">Transferability</text></g><g class="sankey-node" transform="translate(0.000,314.265)" style="opacity: 1;"><rect class="node-rect" width="10" height="5.735294117490298" style="stroke-width: 0.5; stroke: rgb(68, 68, 68); stroke-opacity: 1; fill: rgb(51, 51, 51); fill-opacity: 1;"/><text class="node-label" data-notex="1" x="0" y="0" text-anchor="start" transform="translate(13.25,7.417647058745149)" style="cursor: default; font-family: Arial; font-size: 13px; fill: rgb(51, 51, 51); fill-opacity: 1; white-space: pre; text-shadow: white 1px 1px 1px, white -1px -1px 1px, white 1px -1px 1px, white -1px 1px 1px;">Information Extraction</text></g><g class="sankey-node" transform="translate(0.000,283.529)" style="opacity: 1;"><rect class="node-rect" width="10" height="5.735294117777073" style="stroke-width: 0.5; stroke: rgb(68, 68, 68); stroke-opacity: 1; fill: rgb(51, 51, 51); fill-opacity: 1;"/><text class="node-label" data-notex="1" x="0" y="0" text-anchor="start" transform="translate(13.25,7.417647058888536)" style="cursor: default; font-family: Arial; font-size: 13px; fill: rgb(51, 51, 51); fill-opacity: 1; white-space: pre; text-shadow: white 1px 1px 1px, white -1px -1px 1px, white 1px -1px 1px, white -1px 1px 1px;">Recommendation</text></g><g class="sankey-node" transform="translate(215.000,86.471)" style="opacity: 1;"><rect class="node-rect" width="10" height="134.7794117634242" style="stroke-width: 0.5; stroke: rgb(68, 68, 68); stroke-opacity: 1; fill: rgb(51, 51, 51); fill-opacity: 1;"/><text class="node-label" data-notex="1" x="0" y="0" text-anchor="start" transform="translate(13.25,71.9397058817121)" style="cursor: default; font-family: Arial; font-size: 13px; fill: rgb(51, 51, 51); fill-opacity: 1; white-space: pre; text-shadow: white 1px 1px 1px, white -1px -1px 1px, white 1px -1px 1px, white -1px 1px 1px;">Classification</text></g><g class="sankey-node" transform="translate(215.000,246.250)" style="opacity: 1;"><rect class="node-rect" width="10" height="20.073529412518496" style="stroke-width: 0.5; stroke: rgb(68, 68, 68); stroke-opacity: 1; fill: rgb(51, 51, 51); fill-opacity: 1;"/><text class="node-label" data-notex="1" x="0" y="0" text-anchor="start" transform="translate(13.25,14.586764706259249)" style="cursor: default; font-family: Arial; font-size: 13px; fill: rgb(51, 51, 51); fill-opacity: 1; white-space: pre; text-shadow: white 1px 1px 1px, white -1px -1px 1px, white 1px -1px 1px, white -1px 1px 1px;">Inference</text></g><g class="sankey-node" transform="translate(215.000,291.324)" style="opacity: 1;"><rect class="node-rect" width="10" height="28.67647058878981" style="stroke-width: 0.5; stroke: rgb(68, 68, 68); stroke-opacity: 1; fill: rgb(51, 51, 51); fill-opacity: 1;"/><text class="node-label" data-notex="1" x="0" y="0" text-anchor="start" transform="translate(13.25,18.888235294394907)" style="cursor: default; font-family: Arial; font-size: 13px; fill: rgb(51, 51, 51); fill-opacity: 1; white-space: pre; text-shadow: white 1px 1px 1px, white -1px -1px 1px, white 1px -1px 1px, white -1px 1px 1px;">Generative</text></g><g class="sankey-node" transform="translate(430.000,151.801)" style="opacity: 1;"><rect class="node-rect" width="10" height="45.88235293992261" style="stroke-width: 0.5; stroke: rgb(68, 68, 68); stroke-opacity: 1; fill: rgb(51, 51, 51); fill-opacity: 1;"/><text class="node-label" data-notex="1" x="0" y="0" text-anchor="end" transform="translate(-3.25,27.491176469961307)" style="cursor: default; font-family: Arial; font-size: 13px; fill: rgb(51, 51, 51); fill-opacity: 1; white-space: pre; text-shadow: white 1px 1px 1px, white -1px -1px 1px, white 1px -1px 1px, white -1px 1px 1px;">NONE</text></g></g></g><defs id="topdefs-11ab24"><g class="clips"/></defs><g class="layer-above"><g class="imagelayer"/><g class="shapelayer"/></g><g class="infolayer"><g class="g-gtitle"/><g class="first-render"/></g></svg>