<svg class="main-svg" xmlns="http://www.w3.org/2000/svg" xmlns:xlink="http://www.w3.org/1999/xlink" width="600" height="500" style="" viewBox="0 0 600 500"><rect x="0" y="0" width="600" height="500" style="fill: rgb(255, 255, 255); fill-opacity: 1;"/><defs id="defs-cdfa67"><g class="clips"/><g class="gradients"/><g class="patterns"/></defs><g class="bglayer"/><g class="layer-below"><g class="imagelayer"/><g class="shapelayer"/></g><g class="cartesianlayer"/><g class="polarlayer"/><g class="smithlayer"/><g class="ternarylayer"/><g class="geolayer"/><g class="funnelarealayer"/><g class="pielayer"/><g class="iciclelayer"/><g class="treemaplayer"/><g class="sunburstlayer"/><g class="glimages"/><g class="sankey" transform="translate(80,100)matrix(1 0 0 1 0 0)" style="box-sizing: content-box; position: absolute; left: 0px; shape-rendering: geometricprecision; pointer-events: auto;"><g class="sankey-links" style="fill: none;"><path class="sankey-link" d="M10,126.27599243927774C220,126.27599243927774 220,202.51207729439847 430,202.51207729439847L430,204.83091787418675C220,204.83091787418675 220,128.59483301906602 10,128.59483301906602Z" style="stroke: rgb(68, 68, 68); stroke-opacity: 1; fill: rgb(69, 2, 86); fill-opacity: 1; stroke-width: 0; opacity: 1;"/><path class="sankey-link" d="M10,207.63705103925855C220,207.63705103925855 220,210.62801932368646 430,210.62801932368646L430,212.94685990347475C220,212.94685990347475 220,209.95589161904684 10,209.95589161904684Z" style="stroke: rgb(68, 68, 68); stroke-opacity: 1; fill: rgb(87, 188, 214); fill-opacity: 1; stroke-width: 0; opacity: 1;"/><path class="sankey-link" d="M10,96.13106490318948C220,96.13106490318948 220,67.24637681136724 430,67.24637681136724L430,71.88405797071192C220,71.88405797071192 220,100.76874606253416 10,100.76874606253416Z" style="stroke: rgb(68, 68, 68); stroke-opacity: 1; fill: rgb(69, 2, 86); fill-opacity: 1; stroke-width: 0; opacity: 1;"/><path class="sankey-link" d="M10,220.39067422789122C220,220.39067422789122 220,242.31884058002 430,242.31884058002L430,246.95652173936466C220,246.95652173936466 220,225.02835538723588 10,225.02835538723588Z" style="stroke: rgb(68, 68, 68); stroke-opacity: 1; fill: rgb(87, 188, 214); fill-opacity: 1; stroke-width: 0; opacity: 1;"/><path class="sankey-link" d="M10,225.0283553872359C220,225.0283553872359 220,246.9565217393647 430,246.9565217393647L430,251.59420289870934C220,251.59420289870934 220,229.66603654658056 10,229.66603654658056Z" style="stroke: rgb(68, 68, 68); stroke-opacity: 1; fill: rgb(87, 188, 214); fill-opacity: 1; stroke-width: 0; opacity: 1;"/><path class="sankey-link" d="M10,128.59483301906602C220,128.59483301906602 220,204.83091787418675 430,204.83091787418675L430,205.99033816410986C220,205.99033816410986 220,129.75425330898912 10,129.75425330898912Z" style="stroke: rgb(68, 68, 68); stroke-opacity: 1; fill: rgb(69, 2, 86); fill-opacity: 1; stroke-width: 0; opacity: 1;"/><path class="sankey-link" d="M10,134.39193446856572C220,134.39193446856572 220,241.15942029009688 430,241.15942029009688L430,242.31884058001998C220,242.31884058001998 220,135.55135475848883 10,135.55135475848883Z" style="stroke: rgb(68, 68, 68); stroke-opacity: 1; fill: rgb(69, 2, 86); fill-opacity: 1; stroke-width: 0; opacity: 1;"/><path class="sankey-link" d="M10,209.95589161904684C220,209.95589161904684 220,212.94685990347475 430,212.94685990347475L430,214.10628019339785C220,214.10628019339785 220,211.11531190896994 10,211.11531190896994Z" style="stroke: rgb(68, 68, 68); stroke-opacity: 1; fill: rgb(87, 188, 214); fill-opacity: 1; stroke-width: 0; opacity: 1;"/><path class="sankey-link" d="M10,229.66603654658059C220,229.66603654658059 220,251.59420289870937 430,251.59420289870937L430,252.75362318863247C220,252.75362318863247 220,230.8254568365037 10,230.8254568365037Z" style="stroke: rgb(68, 68, 68); stroke-opacity: 1; fill: rgb(87, 188, 214); fill-opacity: 1; stroke-width: 0; opacity: 1;"/><path class="sankey-link" d="M10,112.36294896101181C220,112.36294896101181 220,121.35265700453328 430,121.35265700453328L430,125.99033816387796C220,125.99033816387796 220,117.00063012035649 10,117.00063012035649Z" style="stroke: rgb(68, 68, 68); stroke-opacity: 1; fill: rgb(69, 2, 86); fill-opacity: 1; stroke-width: 0; opacity: 1;"/><path class="sankey-link" d="M10,129.75425330898915C220,129.75425330898915 220,205.9903381641099 430,205.9903381641099L430,208.30917874389817C220,208.30917874389817 220,132.07309388877744 10,132.07309388877744Z" style="stroke: rgb(68, 68, 68); stroke-opacity: 1; fill: rgb(69, 2, 86); fill-opacity: 1; stroke-width: 0; opacity: 1;"/><path class="sankey-link" d="M10,211.11531190896997C220,211.11531190896997 220,214.10628019339788 430,214.10628019339788L430,216.42512077318617C220,216.42512077318617 220,213.43415248875826 10,213.43415248875826Z" style="stroke: rgb(68, 68, 68); stroke-opacity: 1; fill: rgb(87, 188, 214); fill-opacity: 1; stroke-width: 0; opacity: 1;"/><path class="sankey-link" d="M10,193.72400756099262C220,193.72400756099262 220,130.62801932322265 430,130.62801932322265L430,135.2657004825673C220,135.2657004825673 220,198.36168872033727 10,198.36168872033727Z" style="stroke: rgb(68, 68, 68); stroke-opacity: 1; fill: rgb(87, 188, 214); fill-opacity: 1; stroke-width: 0; opacity: 1;"/><path class="sankey-link" d="M10,240.10081915519308C220,240.10081915519308 220,315.36231884065523 430,315.36231884065523L430,319.9999999999999C220,319.9999999999999 220,244.73850031453773 10,244.73850031453773Z" style="stroke: rgb(68, 68, 68); stroke-opacity: 1; fill: rgb(87, 188, 214); fill-opacity: 1; stroke-width: 0; opacity: 1;"/><path class="sankey-link" d="M10,123.95715185948946C220,123.95715185948946 220,180.09661835704418 430,180.09661835704418L430,182.41545893683247C220,182.41545893683247 220,126.27599243927774 10,126.27599243927774Z" style="stroke: rgb(68, 68, 68); stroke-opacity: 1; fill: rgb(69, 2, 86); fill-opacity: 1; stroke-width: 0; opacity: 1;"/><path class="sankey-link" d="M10,205.31821045947027C220,205.31821045947027 220,182.41545893683247 430,182.41545893683247L430,184.73429951662075C220,184.73429951662075 220,207.63705103925855 10,207.63705103925855Z" style="stroke: rgb(68, 68, 68); stroke-opacity: 1; fill: rgb(87, 188, 214); fill-opacity: 1; stroke-width: 0; opacity: 1;"/><path class="sankey-link" d="M10,100.76874606253416C220,100.76874606253416 220,89.66183574848966 430,89.66183574848966L430,91.98067632827795C220,91.98067632827795 220,103.08758664232245 10,103.08758664232245Z" style="stroke: rgb(68, 68, 68); stroke-opacity: 1; fill: rgb(69, 2, 86); fill-opacity: 1; stroke-width: 0; opacity: 1;"/><path class="sankey-link" d="M10,191.40516698120433C220,191.40516698120433 220,101.25603864696731 430,101.25603864696731L430,103.5748792267556C220,103.5748792267556 220,193.72400756099262 10,193.72400756099262Z" style="stroke: rgb(68, 68, 68); stroke-opacity: 1; fill: rgb(87, 188, 214); fill-opacity: 1; stroke-width: 0; opacity: 1;"/><path class="sankey-link" d="M10,230.82545683650372C220,230.82545683650372 220,270.5314009664103 430,270.5314009664103L430,275.1690821257549C220,275.1690821257549 220,235.46313799584837 10,235.46313799584837Z" style="stroke: rgb(68, 68, 68); stroke-opacity: 1; fill: rgb(87, 188, 214); fill-opacity: 1; stroke-width: 0; opacity: 1;"/><path class="sankey-link" d="M10,198.3616887203373C220,198.3616887203373 220,135.26570048256733 430,135.26570048256733L430,139.90338164191198C220,139.90338164191198 220,202.99936987968195 10,202.99936987968195Z" style="stroke: rgb(68, 68, 68); stroke-opacity: 1; fill: rgb(87, 188, 214); fill-opacity: 1; stroke-width: 0; opacity: 1;"/><path class="sankey-link" d="M10,213.43415248875826C220,213.43415248875826 220,216.42512077318617 430,216.42512077318617L430,221.06280193253082C220,221.06280193253082 220,218.0718336481029 10,218.0718336481029Z" style="stroke: rgb(68, 68, 68); stroke-opacity: 1; fill: rgb(87, 188, 214); fill-opacity: 1; stroke-width: 0; opacity: 1;"/><path class="sankey-link" d="M10,132.07309388877744C220,132.07309388877744 220,208.30917874389817 430,208.30917874389817L430,210.62801932368646C220,210.62801932368646 220,134.39193446856572 10,134.39193446856572Z" style="stroke: rgb(68, 68, 68); stroke-opacity: 1; fill: rgb(69, 2, 86); fill-opacity: 1; stroke-width: 0; opacity: 1;"/><path class="sankey-link" d="M10,218.07183364810294C220,218.07183364810294 220,221.06280193253085 430,221.06280193253085L430,223.38164251231913C220,223.38164251231913 220,220.39067422789122 10,220.39067422789122Z" style="stroke: rgb(68, 68, 68); stroke-opacity: 1; fill: rgb(87, 188, 214); fill-opacity: 1; stroke-width: 0; opacity: 1;"/><path class="sankey-link" d="M10,103.08758664232245C220,103.08758664232245 220,91.98067632827795 430,91.98067632827795L430,96.61835748762263C220,96.61835748762263 220,107.72526780166713 10,107.72526780166713Z" style="stroke: rgb(68, 68, 68); stroke-opacity: 1; fill: rgb(69, 2, 86); fill-opacity: 1; stroke-width: 0; opacity: 1;"/><path class="sankey-link" d="M10,107.72526780166713C220,107.72526780166713 220,96.61835748762263 430,96.61835748762263L430,101.25603864696731C220,101.25603864696731 220,112.36294896101181 10,112.36294896101181Z" style="stroke: rgb(68, 68, 68); stroke-opacity: 1; fill: rgb(69, 2, 86); fill-opacity: 1; stroke-width: 0; opacity: 1;"/><path class="sankey-link" d="M10,86.85570258450012C220,86.85570258450012 220,22.415458937122295 430,22.415458937122295L430,27.053140096466976C220,27.053140096466976 220,91.4933837438448 10,91.4933837438448Z" style="stroke: rgb(68, 68, 68); stroke-opacity: 1; fill: rgb(69, 2, 86); fill-opacity: 1; stroke-width: 0; opacity: 1;"/><path class="sankey-link" d="M10,235.4631379958484C220,235.4631379958484 220,292.94685990353275 430,292.94685990353275L430,297.5845410628774C220,297.5845410628774 220,240.10081915519305 10,240.10081915519305Z" style="stroke: rgb(68, 68, 68); stroke-opacity: 1; fill: rgb(87, 188, 214); fill-opacity: 1; stroke-width: 0; opacity: 1;"/><path class="sankey-link" d="M10,82.21802142515544C220,82.21802142515544 220,-1.2789769243681803e-13 430,-1.2789769243681803e-13L430,4.637681159344549C220,4.637681159344549 220,86.85570258450012 10,86.85570258450012Z" style="stroke: rgb(68, 68, 68); stroke-opacity: 1; fill: rgb(69, 2, 86); fill-opacity: 1; stroke-width: 0; opacity: 1;"/><path class="sankey-link" d="M10,117.00063012035649C220,117.00063012035649 220,125.99033816387795 430,125.99033816387795L430,130.62801932322262C220,130.62801932322262 220,121.63831127970117 10,121.63831127970117Z" style="stroke: rgb(68, 68, 68); stroke-opacity: 1; fill: rgb(69, 2, 86); fill-opacity: 1; stroke-width: 0; opacity: 1;"/><path class="sankey-link" d="M10,91.4933837438448C220,91.4933837438448 220,44.83091787424476 430,44.83091787424476L430,49.46859903358944C220,49.46859903358944 220,96.13106490318948 10,96.13106490318948Z" style="stroke: rgb(68, 68, 68); stroke-opacity: 1; fill: rgb(69, 2, 86); fill-opacity: 1; stroke-width: 0; opacity: 1;"/><path class="sankey-link" d="M10,121.63831127970117C220,121.63831127970117 220,157.68115941968983 430,157.68115941968983L430,159.99999999947812C220,159.99999999947812 220,123.95715185948946 10,123.95715185948946Z" style="stroke: rgb(68, 68, 68); stroke-opacity: 1; fill: rgb(69, 2, 86); fill-opacity: 1; stroke-width: 0; opacity: 1;"/><path class="sankey-link" d="M10,202.99936987968198C220,202.99936987968198 220,159.99999999947812 430,159.99999999947812L430,162.3188405792664C220,162.3188405792664 220,205.31821045947027 10,205.31821045947027Z" style="stroke: rgb(68, 68, 68); stroke-opacity: 1; fill: rgb(87, 188, 214); fill-opacity: 1; stroke-width: 0; opacity: 1;"/></g><g class="sankey-node-set" style="cursor: move;"><g class="sankey-node" transform="translate(0.000,82.218)" style="opacity: 1;"><rect class="node-rect" width="10" height="53.3333333333333" style="stroke-width: 0.5; stroke: rgb(68, 68, 68); stroke-opacity: 1; fill: rgb(51, 51, 51); fill-opacity: 1;"/><text class="node-label" data-notex="1" x="0" y="0" text-anchor="start" transform="translate(13.25,31.21666666666665)" style="cursor: default; font-family: Arial; font-size: 13px; fill: rgb(51, 51, 51); fill-opacity: 1; white-space: pre; text-shadow: white 1px 1px 1px, white -1px -1px 1px, white 1px -1px 1px, white -1px 1px 1px;">Linguistic Structure</text></g><g class="sankey-node" transform="translate(0.000,191.405)" style="opacity: 1;"><rect class="node-rect" width="10" height="53.33333333333334" style="stroke-width: 0.5; stroke: rgb(68, 68, 68); stroke-opacity: 1; fill: rgb(51, 51, 51); fill-opacity: 1;"/><text class="node-label" data-notex="1" x="0" y="0" text-anchor="start" transform="translate(13.25,31.216666666666672)" style="cursor: default; font-family: Arial; font-size: 13px; fill: rgb(51, 51, 51); fill-opacity: 1; white-space: pre; text-shadow: white 1px 1px 1px, white -1px -1px 1px, white 1px -1px 1px, white -1px 1px 1px;">Relational Structure</text></g><g class="sankey-node" transform="translate(430.000,89.662)" style="opacity: 1;"><rect class="node-rect" width="10" height="13.913043478265848" style="stroke-width: 0.5; stroke: rgb(68, 68, 68); stroke-opacity: 1; fill: rgb(51, 51, 51); fill-opacity: 1;"/><text class="node-label" data-notex="1" x="0" y="0" text-anchor="end" transform="translate(-3.25,11.506521739132925)" style="cursor: default; font-family: Arial; font-size: 13px; fill: rgb(51, 51, 51); fill-opacity: 1; white-space: pre; text-shadow: white 1px 1px 1px, white -1px -1px 1px, white 1px -1px 1px, white -1px 1px 1px;">Sentiment Analysis</text></g><g class="sankey-node" transform="translate(430.000,157.681)" style="opacity: 1;"><rect class="node-rect" width="10" height="4.637681159576573" style="stroke-width: 0.5; stroke: rgb(68, 68, 68); stroke-opacity: 1; fill: rgb(51, 51, 51); fill-opacity: 1;"/><text class="node-label" data-notex="1" x="0" y="0" text-anchor="end" transform="translate(-3.25,6.868840579788286)" style="cursor: default; font-family: Arial; font-size: 13px; fill: rgb(51, 51, 51); fill-opacity: 1; white-space: pre; text-shadow: white 1px 1px 1px, white -1px -1px 1px, white 1px -1px 1px, white -1px 1px 1px;">Translation</text></g><g class="sankey-node" transform="translate(430.000,270.531)" style="opacity: 1;"><rect class="node-rect" width="10" height="4.637681159344709" style="stroke-width: 0.5; stroke: rgb(68, 68, 68); stroke-opacity: 1; fill: rgb(51, 51, 51); fill-opacity: 1;"/><text class="node-label" data-notex="1" x="0" y="0" text-anchor="end" transform="translate(-3.25,6.868840579672354)" style="cursor: default; font-family: Arial; font-size: 13px; fill: rgb(51, 51, 51); fill-opacity: 1; white-space: pre; text-shadow: white 1px 1px 1px, white -1px -1px 1px, white 1px -1px 1px, white -1px 1px 1px;">Dialog System</text></g><g class="sankey-node" transform="translate(430.000,-0.000)" style="opacity: 1;"><rect class="node-rect" width="10" height="4.637681159344652" style="stroke-width: 0.5; stroke: rgb(68, 68, 68); stroke-opacity: 1; fill: rgb(51, 51, 51); fill-opacity: 1;"/><text class="node-label" data-notex="1" x="0" y="0" text-anchor="end" transform="translate(-3.25,6.868840579672326)" style="cursor: default; font-family: Arial; font-size: 13px; fill: rgb(51, 51, 51); fill-opacity: 1; white-space: pre; text-shadow: white 1px 1px 1px, white -1px -1px 1px, white 1px -1px 1px, white -1px 1px 1px;">Annotation</text></g><g class="sankey-node" transform="translate(430.000,22.415)" style="opacity: 1;"><rect class="node-rect" width="10" height="4.6376811593446945" style="stroke-width: 0.5; stroke: rgb(68, 68, 68); stroke-opacity: 1; fill: rgb(51, 51, 51); fill-opacity: 1;"/><text class="node-label" data-notex="1" x="0" y="0" text-anchor="end" transform="translate(-3.25,6.868840579672347)" style="cursor: default; font-family: Arial; font-size: 13px; fill: rgb(51, 51, 51); fill-opacity: 1; white-space: pre; text-shadow: white 1px 1px 1px, white -1px -1px 1px, white 1px -1px 1px, white -1px 1px 1px;">Cause-Effect Identification</text></g><g class="sankey-node" transform="translate(430.000,202.512)" style="opacity: 1;"><rect class="node-rect" width="10" height="20.869565217920638" style="stroke-width: 0.5; stroke: rgb(68, 68, 68); stroke-opacity: 1; fill: rgb(51, 51, 51); fill-opacity: 1;"/><text class="node-label" data-notex="1" x="0" y="0" text-anchor="end" transform="translate(-3.25,14.98478260896032)" style="cursor: default; font-family: Arial; font-size: 13px; fill: rgb(51, 51, 51); fill-opacity: 1; white-space: pre; text-shadow: white 1px 1px 1px, white -1px -1px 1px, white 1px -1px 1px, white -1px 1px 1px;">Text Classification</text></g><g class="sankey-node" transform="translate(430.000,241.159)" style="opacity: 1;"><rect class="node-rect" width="10" height="11.594202898535627" style="stroke-width: 0.5; stroke: rgb(68, 68, 68); stroke-opacity: 1; fill: rgb(51, 51, 51); fill-opacity: 1;"/><text class="node-label" data-notex="1" x="0" y="0" text-anchor="end" transform="translate(-3.25,10.347101449267814)" style="cursor: default; font-family: Arial; font-size: 13px; fill: rgb(51, 51, 51); fill-opacity: 1; white-space: pre; text-shadow: white 1px 1px 1px, white -1px -1px 1px, white 1px -1px 1px, white -1px 1px 1px;">KG Completion / Link Prediction</text></g><g class="sankey-node" transform="translate(430.000,180.097)" style="opacity: 1;"><rect class="node-rect" width="10" height="4.637681159576516" style="stroke-width: 0.5; stroke: rgb(68, 68, 68); stroke-opacity: 1; fill: rgb(51, 51, 51); fill-opacity: 1;"/><text class="node-label" data-notex="1" x="0" y="0" text-anchor="end" transform="translate(-3.25,6.868840579788258)" style="cursor: default; font-family: Arial; font-size: 13px; fill: rgb(51, 51, 51); fill-opacity: 1; white-space: pre; text-shadow: white 1px 1px 1px, white -1px -1px 1px, white 1px -1px 1px, white -1px 1px 1px;">Text Summarization</text></g><g class="sankey-node" transform="translate(430.000,292.947)" style="opacity: 1;"><rect class="node-rect" width="10" height="4.637681159344709" style="stroke-width: 0.5; stroke: rgb(68, 68, 68); stroke-opacity: 1; fill: rgb(51, 51, 51); fill-opacity: 1;"/><text class="node-label" data-notex="1" x="0" y="0" text-anchor="end" transform="translate(-3.25,6.868840579672354)" style="cursor: default; font-family: Arial; font-size: 13px; fill: rgb(51, 51, 51); fill-opacity: 1; white-space: pre; text-shadow: white 1px 1px 1px, white -1px -1px 1px, white 1px -1px 1px, white -1px 1px 1px;">Relation Extraction</text></g><g class="sankey-node" transform="translate(430.000,44.831)" style="opacity: 1;"><rect class="node-rect" width="10" height="4.637681159344709" style="stroke-width: 0.5; stroke: rgb(68, 68, 68); stroke-opacity: 1; fill: rgb(51, 51, 51); fill-opacity: 1;"/><text class="node-label" data-notex="1" x="0" y="0" text-anchor="end" transform="translate(-3.25,6.868840579672354)" style="cursor: default; font-family: Arial; font-size: 13px; fill: rgb(51, 51, 51); fill-opacity: 1; white-space: pre; text-shadow: white 1px 1px 1px, white -1px -1px 1px, white 1px -1px 1px, white -1px 1px 1px;">Image Captioning</text></g><g class="sankey-node" transform="translate(430.000,315.362)" style="opacity: 1;"><rect class="node-rect" width="10" height="4.6376811593447655" style="stroke-width: 0.5; stroke: rgb(68, 68, 68); stroke-opacity: 1; fill: rgb(51, 51, 51); fill-opacity: 1;"/><text class="node-label" data-notex="1" x="0" y="0" text-anchor="end" transform="translate(-3.25,6.868840579672383)" style="cursor: default; font-family: Arial; font-size: 13px; fill: rgb(51, 51, 51); fill-opacity: 1; white-space: pre; text-shadow: white 1px 1px 1px, white -1px -1px 1px, white 1px -1px 1px, white -1px 1px 1px;">Decision Making</text></g><g class="sankey-node" transform="translate(430.000,121.353)" style="opacity: 1;"><rect class="node-rect" width="10" height="18.550724637378778" style="stroke-width: 0.5; stroke: rgb(68, 68, 68); stroke-opacity: 1; fill: rgb(51, 51, 51); fill-opacity: 1;"/><text class="node-label" data-notex="1" x="0" y="0" text-anchor="end" transform="translate(-3.25,13.82536231868939)" style="cursor: default; font-family: Arial; font-size: 13px; fill: rgb(51, 51, 51); fill-opacity: 1; white-space: pre; text-shadow: white 1px 1px 1px, white -1px -1px 1px, white 1px -1px 1px, white -1px 1px 1px;">Question Answering</text></g><g class="sankey-node" transform="translate(430.000,67.246)" style="opacity: 1;"><rect class="node-rect" width="10" height="4.637681159344652" style="stroke-width: 0.5; stroke: rgb(68, 68, 68); stroke-opacity: 1; fill: rgb(51, 51, 51); fill-opacity: 1;"/><text class="node-label" data-notex="1" x="0" y="0" text-anchor="end" transform="translate(-3.25,6.868840579672326)" style="cursor: default; font-family: Arial; font-size: 13px; fill: rgb(51, 51, 51); fill-opacity: 1; white-space: pre; text-shadow: white 1px 1px 1px, white -1px -1px 1px, white 1px -1px 1px, white -1px 1px 1px;">Fact Verification</text></g></g></g><defs id="topdefs-cdfa67"><g class="clips"/></defs><g class="layer-above"><g class="imagelayer"/><g class="shapelayer"/></g><g class="infolayer"><g class="g-gtitle"/><g class="first-render"/></g></svg>