<?xml version="1.0" encoding="utf-8"?>
<!-- Generator: Adobe Illustrator 26.0.2, SVG Export Plug-In . SVG Version: 6.00 Build 0)  -->
<svg version="1.1" id="Layer_1" xmlns="http://www.w3.org/2000/svg" xmlns:xlink="http://www.w3.org/1999/xlink" x="0px" y="0px"
	 viewBox="0 0 880 500" style="enable-background:new 0 0 880 500;" xml:space="preserve">
<style type="text/css">
	.st0{fill:#89B79F;}
	.st1{opacity:0.3;fill:#89B79F;}
	.st2{fill:#450256;}
	.st3{opacity:0.3;fill:#450256;}
	.st4{fill:#57BCD6;}
	.st5{opacity:0.3;fill:#57BCD6;}
	.st6{fill:#9C4397;}
	.st7{fill:#333333;stroke:#444444;stroke-width:0.5;}
	.st8{enable-background:new    ;}
	.st9{fill:#333333;}
	.st10{opacity:0.3;fill:#333333;stroke:#444444;stroke-width:0.5;}
</style>
<path class="st0" d="M115,295.4c127.5,0,127.5,2,255,2v5.7c-127.5,0-127.5-2-255-2V295.4z"/>
<path class="st1" d="M380,297.4c127.5,0,127.5-168.5,255-168.5v5.7c-127.5,0-127.5,168.5-255,168.5V297.4z"/>
<path class="st2" d="M115,148c127.5,0,127.5-23,255-23v5.7c-127.5,0-127.5,23-255,23V148z"/>
<path class="st3" d="M380,125c127.5,0,127.5-25,255-25v5.7c-127.5,0-127.5,25-255,25V125z"/>
<path class="st4" d="M115,405.9c127.5,0,127.5,0.3,255,0.3v5.7c-127.5,0-127.5-0.3-255-0.3V405.9z"/>
<path class="st5" d="M380,406.2c127.5,0,127.5-271.7,255-271.7v5.7c-127.5,0-127.5,271.7-255,271.7V406.2z"/>
<path class="st4" d="M115,411.6c127.5,0,127.5,0.3,255,0.3v5.7c-127.5,0-127.5-0.3-255-0.3V411.6z"/>
<path class="st4" d="M380,436.7c127.5,0,127.5-51.7,255-51.7v1.9c-127.5,0-127.5,51.7-255,51.7V436.7z"/>
<path class="st4" d="M380,430.1c127.5,0,127.5-136.2,255-136.2v1.9C507.5,295.8,507.5,432,380,432V430.1z"/>
<path class="st0" d="M115,301.2c127.5,0,127.5,2,255,2v5.7c-127.5,0-127.5-2-255-2V301.2z"/>
<path class="st0" d="M380,303.1c127.3,0,127.5-85.9,254.3-86.2c0.4,0,0.7,0.3,0.7,0.7v4.3c0,0.4-0.3,0.7-0.7,0.7
	c-126.8,0.3-127,86.2-254.3,86.2V303.1z"/>
<path class="st2" d="M115,153.8c127.5,0,127.5-23,255-23v5.7c-127.5,0-127.5,23-255,23V153.8z"/>
<path class="st3" d="M380,130.7c127.5,0,127.5-25,255-25v5.7c-127.5,0-127.5,25-255,25V130.7z"/>
<path class="st2" d="M115,159.5c127.5,0,127.5-23,255-23v5.7c-127.5,0-127.5,23-255,23V159.5z"/>
<path class="st3" d="M380,136.5c127.5,0,127.5-25,255-25v5.7c-127.5,0-127.5,25-255,25V136.5z"/>
<path class="st0" d="M115,306.9c127.5,0,127.5,2,255,2v5.7c-127.5,0-127.5-2-255-2V306.9z"/>
<path class="st0" d="M380,327.5c127.5,0,127.5,50,255,50v1.4c-127.5,0-127.5-50-255-50V327.5z"/>
<path class="st0" d="M380,317.9c127.5,0,127.5-31.7,255-31.7v1.4c-127.5,0-127.5,31.7-255,31.7V317.9z"/>
<path class="st0" d="M380,322.7c127.5,0,127.5,14.3,255,14.3v1.4c-127.5,0-127.5-14.3-255-14.3V322.7z"/>
<path class="st0" d="M380,330.4c127.5,0,127.5,84.2,255,84.2v1.4c-127.5,0-127.5-84.2-255-84.2V330.4z"/>
<path class="st2" d="M115,165.2c127.5,0,127.5-23,255-23v5.7c-127.5,0-127.5,23-255,23V165.2z"/>
<path class="st2" d="M380,153.7c127.5,0,127.5,17.2,255,17.2v2.9c-127.5,0-127.5-17.2-255-17.2V153.7z"/>
<path class="st2" d="M380,193.8c127.5,0,127.5,86.7,255,86.7v2.9c-127.5,0-127.5-86.7-255-86.7V193.8z"/>
<path class="st4" d="M115,417.3c127.5,0,127.5,0.3,255,0.3v5.7c-127.5,0-127.5-0.3-255-0.3V417.3z"/>
<path class="st4" d="M380,433.9c127.5,0,127.5-90.1,255-90.1v2.9c-127.5,0-127.5,90.1-255,90.1V433.9z"/>
<path class="st4" d="M115,382.7c127.2,0,127.5-27.7,254-27.6c0.5,0,1,0.4,1,1v3.8c0,0.5-0.4,1-1,1c-126.5,0-126.9,27.6-254,27.6
	V382.7z"/>
<path class="st4" d="M381,366.5c126.5-0.7,126.9-75.5,254-75.5v2.9c-127.2,0-127.5,74.8-254,75.5c-0.5,0-1-0.4-1-1v-1
	C380,367,380.4,366.5,381,366.5z"/>
<path class="st6" d="M115,249.8c127.5,0,127.5,2,255,2v5.7c-127.5,0-127.5-2-255-2V249.8z"/>
<path class="st6" d="M380,251.8c127.5,0,130.8-40.6,258.3-40.6v2.9c-127.5,0-130.8,40.6-258.3,40.6V251.8z"/>
<path class="st6" d="M380,263.4c127.5,0,127.5,111.1,255,111.1v2.9c-127.5,0-127.5-111.1-255-111.1V263.4z"/>
<path class="st4" d="M115,423.1c127.5,0,127.5,0.3,255,0.3v5.7c-127.5,0-127.5-0.3-255-0.3V423.1z"/>
<path class="st4" d="M115,388.4c127.2,0,127.5-27.7,254-27.6c0.5,0,1,0.4,1,1v3.8c0,0.5-0.4,1-1,1c-126.5,0-126.9,27.6-254,27.6
	V388.4z"/>
<path class="st0" d="M115,312.6c127.5,0,127.5,2,255,2v5.7c-127.5,0-127.5-2-255-2V312.6z"/>
<path class="st0" d="M380,308.9c127.3,0,127.5-85.9,254.3-86.2c0.4,0,0.7,0.3,0.7,0.7v0.5c0,0.4-0.3,0.7-0.7,0.7
	c-126.8,0.3-127,86.2-254.3,86.2V308.9z"/>
<path class="st0" d="M380,319.4c127.5,0,127.5-31.7,255-31.7v1.9c-127.5,0-127.5,31.7-255,31.7V319.4z"/>
<path class="st0" d="M380,324.1c127.5,0,127.5,14.3,255,14.3v1.9c-127.5,0-127.5-14.3-255-14.3V324.1z"/>
<path class="st6" d="M115,255.6c127.5,0,127.5,2,255,2v5.7c-127.5,0-127.5-2-255-2V255.6z"/>
<path class="st6" d="M380,254.7c127.5,0,130.8-40.6,258.3-40.6v2.9c-127.5,0-130.8,40.6-258.3,40.6V254.7z"/>
<path class="st6" d="M380,266.3c127.5,0,127.5,145.3,255,145.3v2.9c-127.5,0-127.5-145.3-255-145.3V266.3z"/>
<path class="st2" d="M115,171c127.5,0,127.5-23,255-23v5.7c-127.5,0-127.5,23-255,23V171z"/>
<path class="st2" d="M380,156.5c127.5,0,127.5,17.2,255,17.2v5.7c-127.5,0-127.5-17.2-255-17.2V156.5z"/>
<path class="st2" d="M115,176.7c127.5,0,127.5-23,255-23v5.7c-127.5,0-127.5,23-255,23V176.7z"/>
<path class="st2" d="M380,208.2c127.5,0,127.5,163.4,255,163.4v2.9C507.5,374.4,507.5,211,380,211V208.2z"/>
<path class="st2" d="M380,199.6c127.5,0,127.5,123.1,255,123.1v2.9c-127.5,0-127.5-123.1-255-123.1V199.6z"/>
<path class="st2" d="M115,182.4c127.5,0,127.5-23,255-23v5.7c-127.5,0-127.5,23-255,23V182.4z"/>
<path class="st3" d="M380,142.2c127.5,0,127.5-25,255-25v5.7c-127.5,0-127.5,25-255,25V142.2z"/>
<path class="st2" d="M115,188.2c127.5,0,127.5-23,255-23v5.7c-127.5,0-127.5,23-255,23V188.2z"/>
<path class="st2" d="M380,162.3c127.5,0,127.5,17.2,255,17.2v5.7c-127.5,0-127.5-17.2-255-17.2V162.3z"/>
<path class="st2" d="M115,193.9c127.5,0,127.5-23,255-23v5.7c-127.5,0-127.5,23-255,23V193.9z"/>
<path class="st2" d="M380,168c127.5,0,127.5,17.2,255,17.2v2.9c-127.5,0-127.5-17.2-255-17.2V168z"/>
<path class="st2" d="M380,202.4c127.5,0,127.5,123.1,255,123.1v2.9c-127.5,0-127.5-123.1-255-123.1V202.4z"/>
<path class="st2" d="M115,199.7c127.5,0,127.5-23,255-23v5.7c-127.5,0-127.5,23-255,23V199.7z"/>
<path class="st2" d="M380,170.9c127.5,0,127.5,17.2,255,17.2v2.9c-127.5,0-127.5-17.2-255-17.2V170.9z"/>
<path class="st2" d="M380,196.7c127.5,0,127.5,86.7,255,86.7v2.9c-127.5,0-127.5-86.7-255-86.7V196.7z"/>
<path class="st2" d="M115,205.4c127.5,0,127.5-23,255-23v5.7c-127.5,0-127.5,23-255,23V205.4z"/>
<path class="st2" d="M380,173.8c127.5,0,127.5,17.2,255,17.2v5.7c-127.5,0-127.5-17.2-255-17.2V173.8z"/>
<path class="st0" d="M115,318.4c127.5,0,127.5,2,255,2v5.7c-127.5,0-127.5-2-255-2V318.4z"/>
<path class="st0" d="M380,310.8c127.3,0,127.5-85.9,254.3-86.2c0.4,0,0.7,0.3,0.7,0.7v4.3c0,0.4-0.3,0.7-0.7,0.7
	c-126.8,0.3-127,86.2-254.3,86.2V310.8z"/>
<path class="st2" d="M115,211.1c127.5,0,127.5-23,255-23v5.7c-127.5,0-127.5,23-255,23V211.1z"/>
<path class="st2" d="M380,179.5c127.5,0,127.5,17.2,255,17.2v2.9c-127.5,0-127.5-17.2-255-17.2V179.5z"/>
<path class="st2" d="M380,205.3c127.5,0,127.5,123.1,255,123.1v2.9c-127.5,0-127.5-123.1-255-123.1V205.3z"/>
<path class="st6" d="M115,261.3c127.5,0,127.5,2,255,2v5.7c-127.5,0-127.5-2-255-2V261.3z"/>
<path class="st6" d="M380,257.5c127.5,0,127.5,73.7,255,73.7v5.7c-127.5,0-127.5-73.7-255-73.7V257.5z"/>
<path class="st2" d="M115,216.9c127.5,0,127.5-23,255-23v5.7c-127.5,0-127.5,23-255,23V216.9z"/>
<path class="st2" d="M380,182.4c127.5,0,127.5,17.2,255,17.2v5.7c-127.5,0-127.5-17.2-255-17.2V182.4z"/>
<path class="st0" d="M115,324.1c127.5,0,127.5,2,255,2v5.7c-127.5,0-127.5-2-255-2V324.1z"/>
<path class="st0" d="M380,316.5c127.3,0,127.5-85.9,254.3-86.2c0.4,0,0.7,0.3,0.7,0.7l0,0c0,0.4-0.3,0.7-0.7,0.7
	c-126.8,0.3-127,86.2-254.3,86.2V316.5z"/>
<path class="st0" d="M380,328.9c127.5,0,127.5,50,255,50v1.4c-127.5,0-127.5-50-255-50V328.9z"/>
<path class="st0" d="M380,321.3c127.5,0,127.5-31.7,255-31.7v1.4c-127.5,0-127.5,31.7-255,31.7V321.3z"/>
<path class="st0" d="M380,326.1c127.5,0,127.5,14.3,255,14.3v1.4c-127.5,0-127.5-14.3-255-14.3V326.1z"/>
<path class="st2" d="M115,222.6c127.5,0,127.5-23,255-23v5.7c-127.5,0-127.5,23-255,23V222.6z"/>
<path class="st2" d="M380,188.1c127.5,0,127.5,17.2,255,17.2v5.7c-127.5,0-127.5-17.2-255-17.2V188.1z"/>
<path class="st4" d="M115,428.8c127.5,0,127.5,0.3,255,0.3v5.7c-127.5,0-127.5-0.3-255-0.3V428.8z"/>
<path class="st5" d="M380,411.9c127.5,0,127.5-271.7,255-271.7v5.7c-127.5,0-127.5,271.7-255,271.7V411.9z"/>
<path class="st2" d="M115,228.3c127.5,0,127.5-23,255-23v5.7c-127.5,0-127.5,23-255,23V228.3z"/>
<path class="st3" d="M380,147.9c127.5,0,127.5-25,255-25v5.7c-127.5,0-127.5,25-255,25V147.9z"/>
<path class="st4" d="M115,394.2c127.2,0,127.5-27.7,254-27.6c0.5,0,1,0.4,1,1v3.8c0,0.5-0.4,1-1,1c-126.5,0-126.9,27.6-254,27.6
	V394.2z"/>
<path class="st4" d="M381,371.3c126.5-0.3,126.9,9,254,9v1.9c-127.2,0-127.5-9.3-254-9c-0.5,0-1-0.4-1-1v0
	C380,371.7,380.4,371.3,381,371.3z"/>
<path class="st4" d="M381,369.4c126.5-0.5,126.9-27.6,254-27.6v1.9c-127.2,0-127.5,27.1-254,27.6c-0.5,0-1-0.4-1-1l0,0
	C380,369.8,380.4,369.4,381,369.4z"/>
<path class="st4" d="M381,376.1c126.5-0.1,127,40,254.2,40v1.9c-127.2,0-127.6-40.1-254.2-40c-0.5,0-1-0.4-1-1v0
	C380,376.5,380.4,376.1,381,376.1z"/>
<path class="st4" d="M115,434.5c127.5,0,127.5,0.3,255,0.3v5.7c-127.5,0-127.5-0.3-255-0.3V434.5z"/>
<path class="st4" d="M380,432c127.5,0,127.5-136.2,255-136.2v1.9c-127.5,0-127.5,136.2-255,136.2V432z"/>
<path class="st4" d="M380,438.7c127.5,0,127.6-20.5,255.1-20.5v1.9c-127.5,0-127.6,20.5-255.1,20.5V438.7z"/>
<path class="st4" d="M115,399.9c127.2,0,127.5-27.7,254-27.6c0.5,0,1,0.4,1,1v3.8c0,0.5-0.4,1-1,1c-126.5,0-126.9,27.6-254,27.6
	V399.9z"/>
<path class="st4" d="M381,373.2c126.5-0.3,126.9,9,254,9v2.9c-127.2,0-127.5-9.3-254-9c-0.5,0-1-0.4-1-1v-1
	C380,373.6,380.4,373.2,381,373.2z"/>
<rect x="105" y="148" class="st7" width="10" height="86"/>
<g class="st8">
	<path class="st9" d="M36.4,192.6l1.2-0.1c0.1,0.5,0.2,0.8,0.4,1.1c0.2,0.3,0.5,0.5,0.9,0.7c0.4,0.2,0.9,0.3,1.4,0.3
		c0.5,0,0.9-0.1,1.2-0.2s0.6-0.3,0.8-0.6c0.2-0.2,0.3-0.5,0.3-0.8c0-0.3-0.1-0.5-0.3-0.8s-0.4-0.4-0.8-0.5c-0.2-0.1-0.8-0.2-1.7-0.5
		s-1.5-0.4-1.8-0.6c-0.4-0.2-0.8-0.5-1-0.9c-0.2-0.3-0.3-0.7-0.3-1.2c0-0.5,0.1-0.9,0.4-1.3s0.7-0.7,1.2-0.9
		c0.5-0.2,1.1-0.3,1.7-0.3c0.7,0,1.3,0.1,1.8,0.3c0.5,0.2,0.9,0.5,1.2,1s0.4,0.9,0.5,1.5l-1.2,0.1c-0.1-0.6-0.3-1-0.6-1.3
		c-0.4-0.3-0.9-0.5-1.6-0.5c-0.7,0-1.3,0.1-1.6,0.4c-0.3,0.3-0.5,0.6-0.5,1c0,0.3,0.1,0.6,0.4,0.8c0.2,0.2,0.9,0.4,1.9,0.7
		c1,0.2,1.7,0.4,2.1,0.6c0.5,0.2,0.9,0.6,1.2,0.9s0.4,0.8,0.4,1.3c0,0.5-0.1,1-0.4,1.4c-0.3,0.4-0.7,0.8-1.2,1
		c-0.5,0.2-1.1,0.4-1.8,0.4c-0.8,0-1.5-0.1-2.1-0.4c-0.6-0.2-1-0.6-1.3-1.1C36.6,193.8,36.4,193.2,36.4,192.6z"/>
	<path class="st9" d="M50,193.4l1.2,0.1c-0.2,0.7-0.5,1.2-1,1.6s-1.1,0.6-1.9,0.6c-1,0-1.8-0.3-2.3-0.9c-0.6-0.6-0.9-1.5-0.9-2.6
		c0-1.1,0.3-2,0.9-2.6s1.3-0.9,2.3-0.9c0.9,0,1.6,0.3,2.2,0.9c0.6,0.6,0.9,1.5,0.9,2.6c0,0.1,0,0.2,0,0.3h-5c0,0.7,0.3,1.3,0.6,1.7
		c0.4,0.4,0.8,0.6,1.4,0.6c0.4,0,0.8-0.1,1.1-0.3S49.8,193.9,50,193.4z M46.2,191.6H50c-0.1-0.6-0.2-1-0.4-1.3
		c-0.4-0.4-0.8-0.7-1.4-0.7c-0.5,0-1,0.2-1.3,0.5C46.4,190.5,46.2,191,46.2,191.6z"/>
	<path class="st9" d="M56.9,198.2v-3.3c-0.2,0.2-0.4,0.5-0.7,0.6c-0.3,0.2-0.7,0.2-1,0.2c-0.8,0-1.5-0.3-2.1-1
		c-0.6-0.6-0.9-1.5-0.9-2.6c0-0.7,0.1-1.3,0.4-1.8c0.2-0.5,0.6-0.9,1-1.2c0.4-0.3,0.9-0.4,1.5-0.4c0.8,0,1.5,0.4,2,1.1v-0.9h1v9.3
		H56.9z M53.3,192.2c0,0.9,0.2,1.5,0.5,2s0.8,0.7,1.3,0.7c0.5,0,0.9-0.2,1.3-0.6c0.4-0.4,0.5-1,0.5-1.9c0-0.9-0.2-1.6-0.6-2
		c-0.4-0.5-0.8-0.7-1.3-0.7c-0.5,0-0.9,0.2-1.3,0.6C53.5,190.7,53.3,191.3,53.3,192.2z"/>
	<path class="st9" d="M64.2,195.6v-1c-0.5,0.8-1.2,1.1-2.1,1.1c-0.4,0-0.8-0.1-1.1-0.2c-0.3-0.2-0.6-0.3-0.8-0.6
		c-0.2-0.2-0.3-0.5-0.4-0.8c0-0.2-0.1-0.6-0.1-1.1v-4.2h1.1v3.7c0,0.6,0,1,0.1,1.2c0.1,0.3,0.2,0.5,0.5,0.7c0.2,0.2,0.5,0.3,0.9,0.3
		s0.7-0.1,1-0.3s0.5-0.4,0.6-0.7c0.1-0.3,0.2-0.7,0.2-1.3v-3.6h1.1v6.7H64.2z"/>
	<path class="st9" d="M71.6,193.4l1.2,0.1c-0.2,0.7-0.5,1.2-1,1.6s-1.1,0.6-1.9,0.6c-1,0-1.8-0.3-2.3-0.9c-0.6-0.6-0.9-1.5-0.9-2.6
		c0-1.1,0.3-2,0.9-2.6s1.3-0.9,2.3-0.9c0.9,0,1.6,0.3,2.2,0.9c0.6,0.6,0.9,1.5,0.9,2.6c0,0.1,0,0.2,0,0.3h-5c0,0.7,0.3,1.3,0.6,1.7
		c0.4,0.4,0.8,0.6,1.4,0.6c0.4,0,0.8-0.1,1.1-0.3S71.5,193.9,71.6,193.4z M67.9,191.6h3.8c-0.1-0.6-0.2-1-0.4-1.3
		c-0.4-0.4-0.8-0.7-1.4-0.7c-0.5,0-1,0.2-1.3,0.5C68.1,190.5,67.9,191,67.9,191.6z"/>
	<path class="st9" d="M74.3,195.6v-6.7h1v1c0.5-0.7,1.2-1.1,2.1-1.1c0.4,0,0.8,0.1,1.1,0.2c0.3,0.1,0.6,0.3,0.8,0.6
		c0.2,0.2,0.3,0.5,0.4,0.8c0,0.2,0.1,0.6,0.1,1.1v4.1h-1.1v-4.1c0-0.5,0-0.8-0.1-1s-0.2-0.4-0.5-0.6c-0.2-0.1-0.5-0.2-0.8-0.2
		c-0.5,0-0.9,0.2-1.3,0.5c-0.4,0.3-0.5,0.9-0.5,1.8v3.7H74.3z"/>
	<path class="st9" d="M84,194.6l0.2,1c-0.3,0.1-0.6,0.1-0.9,0.1c-0.4,0-0.7-0.1-1-0.2c-0.2-0.1-0.4-0.3-0.5-0.5s-0.1-0.7-0.1-1.3
		v-3.9h-0.8v-0.9h0.8v-1.7l1.1-0.7v2.4H84v0.9h-1.1v3.9c0,0.3,0,0.5,0.1,0.6c0,0.1,0.1,0.2,0.2,0.2c0.1,0.1,0.2,0.1,0.4,0.1
		C83.6,194.6,83.8,194.6,84,194.6z"/>
	<path class="st9" d="M85.1,187.6v-1.3h1.1v1.3H85.1z M85.1,195.6v-6.7h1.1v6.7H85.1z"/>
	<path class="st9" d="M92.4,194.8c-0.4,0.4-0.8,0.6-1.2,0.8c-0.4,0.1-0.8,0.2-1.3,0.2c-0.7,0-1.3-0.2-1.7-0.5
		c-0.4-0.4-0.6-0.8-0.6-1.4c0-0.3,0.1-0.6,0.2-0.9c0.1-0.3,0.3-0.5,0.6-0.7c0.2-0.2,0.5-0.3,0.8-0.4c0.2-0.1,0.6-0.1,1-0.2
		c0.9-0.1,1.6-0.2,2-0.4c0-0.2,0-0.3,0-0.3c0-0.5-0.1-0.8-0.3-1c-0.3-0.3-0.7-0.4-1.3-0.4c-0.5,0-0.9,0.1-1.2,0.3
		c-0.3,0.2-0.4,0.5-0.6,1l-1.1-0.2c0.1-0.5,0.3-0.9,0.5-1.2s0.6-0.5,1-0.7c0.4-0.2,1-0.2,1.5-0.2c0.6,0,1,0.1,1.4,0.2
		s0.6,0.3,0.8,0.5s0.3,0.5,0.4,0.8c0,0.2,0.1,0.5,0.1,1.1v1.5c0,1.1,0,1.7,0.1,2c0,0.3,0.1,0.6,0.3,0.8h-1.2
		C92.5,195.4,92.4,195.1,92.4,194.8z M92.3,192.2c-0.4,0.2-1,0.3-1.9,0.4c-0.5,0.1-0.8,0.1-1,0.2c-0.2,0.1-0.3,0.2-0.5,0.4
		s-0.2,0.3-0.2,0.5c0,0.3,0.1,0.6,0.3,0.8c0.2,0.2,0.6,0.3,1,0.3c0.4,0,0.8-0.1,1.2-0.3s0.6-0.5,0.8-0.8c0.1-0.3,0.2-0.6,0.2-1.1
		V192.2z"/>
	<path class="st9" d="M95.2,195.6v-9.3h1.1v9.3H95.2z"/>
</g>
<rect x="105" y="382.7" class="st7" width="10" height="57.4"/>
<g class="st8">
	<path class="st9" d="M50,412.6l1.2,0.3c-0.3,1-0.7,1.8-1.4,2.3c-0.7,0.5-1.5,0.8-2.5,0.8c-1,0-1.8-0.2-2.4-0.6
		c-0.6-0.4-1.1-1-1.4-1.8c-0.3-0.8-0.5-1.6-0.5-2.5c0-1,0.2-1.8,0.6-2.5c0.4-0.7,0.9-1.3,1.6-1.6c0.7-0.4,1.4-0.6,2.3-0.6
		c0.9,0,1.7,0.2,2.3,0.7c0.6,0.5,1.1,1.1,1.3,2l-1.2,0.3c-0.2-0.7-0.5-1.2-0.9-1.5s-0.9-0.5-1.5-0.5c-0.7,0-1.3,0.2-1.8,0.5
		c-0.5,0.3-0.8,0.8-1,1.4c-0.2,0.6-0.3,1.2-0.3,1.8c0,0.8,0.1,1.5,0.3,2.1c0.2,0.6,0.6,1,1.1,1.3s1,0.4,1.6,0.4
		c0.7,0,1.3-0.2,1.8-0.6C49.5,414,49.8,413.4,50,412.6z"/>
	<path class="st9" d="M52.2,412.5c0-1.2,0.3-2.2,1-2.8c0.6-0.5,1.3-0.7,2.1-0.7c0.9,0,1.7,0.3,2.3,0.9s0.9,1.4,0.9,2.5
		c0,0.9-0.1,1.5-0.4,2c-0.3,0.5-0.6,0.9-1.1,1.2c-0.5,0.3-1,0.4-1.6,0.4c-0.9,0-1.7-0.3-2.3-0.9C52.4,414.5,52.2,413.7,52.2,412.5z
		 M53.3,412.5c0,0.9,0.2,1.5,0.6,1.9s0.9,0.6,1.4,0.6c0.6,0,1-0.2,1.4-0.6s0.6-1.1,0.6-2c0-0.8-0.2-1.5-0.6-1.9
		c-0.4-0.4-0.8-0.6-1.4-0.6c-0.6,0-1,0.2-1.4,0.6S53.3,411.7,53.3,412.5z"/>
	<path class="st9" d="M59.8,415.9v-6.7h1v0.9c0.2-0.3,0.5-0.6,0.8-0.8s0.8-0.3,1.2-0.3c0.5,0,0.9,0.1,1.2,0.3
		c0.3,0.2,0.5,0.5,0.7,0.9c0.5-0.8,1.2-1.2,2.1-1.2c0.7,0,1.2,0.2,1.5,0.6s0.5,0.9,0.5,1.7v4.6h-1.1v-4.2c0-0.5,0-0.8-0.1-1
		c-0.1-0.2-0.2-0.4-0.4-0.5c-0.2-0.1-0.4-0.2-0.7-0.2c-0.5,0-0.9,0.2-1.2,0.5S65,411.3,65,412v3.9h-1.1v-4.4c0-0.5-0.1-0.9-0.3-1.1
		S63,410,62.6,410c-0.3,0-0.6,0.1-0.9,0.3c-0.3,0.2-0.5,0.4-0.6,0.7c-0.1,0.3-0.2,0.8-0.2,1.4v3.5H59.8z"/>
	<path class="st9" d="M70.6,418.5v-9.3h1v0.9c0.2-0.3,0.5-0.6,0.8-0.8c0.3-0.2,0.7-0.3,1.1-0.3c0.6,0,1.1,0.1,1.5,0.4s0.8,0.7,1,1.3
		c0.2,0.5,0.3,1.1,0.3,1.8c0,0.7-0.1,1.3-0.4,1.9c-0.2,0.6-0.6,1-1.1,1.3c-0.5,0.3-1,0.4-1.5,0.4c-0.4,0-0.7-0.1-1-0.2
		c-0.3-0.2-0.6-0.4-0.7-0.6v3.3H70.6z M71.7,412.6c0,0.9,0.2,1.5,0.5,1.9s0.8,0.6,1.3,0.6c0.5,0,0.9-0.2,1.3-0.6
		c0.4-0.4,0.5-1.1,0.5-2c0-0.9-0.2-1.5-0.5-1.9c-0.4-0.4-0.8-0.6-1.3-0.6c-0.5,0-0.9,0.2-1.3,0.7C71.9,411,71.7,411.7,71.7,412.6z"
		/>
	<path class="st9" d="M77.9,407.9v-1.3H79v1.3H77.9z M77.9,415.9v-6.7H79v6.7H77.9z"/>
	<path class="st9" d="M80.7,415.9v-9.3h1.1v9.3H80.7z"/>
	<path class="st9" d="M88.3,413.7l1.2,0.1c-0.2,0.7-0.5,1.2-1,1.6s-1.1,0.6-1.9,0.6c-1,0-1.8-0.3-2.3-0.9c-0.6-0.6-0.9-1.5-0.9-2.6
		c0-1.1,0.3-2,0.9-2.6s1.3-0.9,2.3-0.9c0.9,0,1.6,0.3,2.2,0.9c0.6,0.6,0.9,1.5,0.9,2.6c0,0.1,0,0.2,0,0.3h-5c0,0.7,0.3,1.3,0.6,1.7
		c0.4,0.4,0.8,0.6,1.4,0.6c0.4,0,0.8-0.1,1.1-0.3S88.1,414.2,88.3,413.7z M84.5,411.9h3.8c-0.1-0.6-0.2-1-0.4-1.3
		c-0.4-0.4-0.8-0.7-1.4-0.7c-0.5,0-1,0.2-1.3,0.5C84.7,410.8,84.5,411.3,84.5,411.9z"/>
	<path class="st9" d="M95.3,415.9v-0.9c-0.4,0.7-1.1,1-1.9,1c-0.5,0-1-0.1-1.5-0.4c-0.5-0.3-0.8-0.7-1-1.2c-0.2-0.5-0.4-1.1-0.4-1.8
		c0-0.7,0.1-1.3,0.3-1.8s0.6-1,1-1.3c0.4-0.3,1-0.4,1.5-0.4c0.4,0,0.8,0.1,1.1,0.3c0.3,0.2,0.6,0.4,0.8,0.7v-3.3h1.1v9.3H95.3z
		 M91.6,412.5c0,0.9,0.2,1.5,0.5,1.9c0.4,0.4,0.8,0.6,1.3,0.6c0.5,0,0.9-0.2,1.3-0.6c0.3-0.4,0.5-1,0.5-1.9c0-0.9-0.2-1.6-0.5-2
		s-0.8-0.6-1.3-0.6c-0.5,0-0.9,0.2-1.3,0.6C91.8,411,91.6,411.7,91.6,412.5z"/>
</g>
<rect x="105" y="295.4" class="st7" width="10" height="34.4"/>
<g class="st8">
	<path class="st9" d="M34.8,313.9l1.2,0.3c-0.3,1-0.7,1.8-1.4,2.3c-0.7,0.5-1.5,0.8-2.5,0.8c-1,0-1.8-0.2-2.4-0.6
		c-0.6-0.4-1.1-1-1.4-1.8c-0.3-0.8-0.5-1.6-0.5-2.5c0-1,0.2-1.8,0.6-2.5c0.4-0.7,0.9-1.3,1.6-1.6c0.7-0.4,1.4-0.6,2.3-0.6
		c0.9,0,1.7,0.2,2.3,0.7c0.6,0.5,1.1,1.1,1.3,2l-1.2,0.3c-0.2-0.7-0.5-1.2-0.9-1.5s-0.9-0.5-1.5-0.5c-0.7,0-1.3,0.2-1.8,0.5
		c-0.5,0.3-0.8,0.8-1,1.4c-0.2,0.6-0.3,1.2-0.3,1.8c0,0.8,0.1,1.5,0.3,2.1c0.2,0.6,0.6,1,1.1,1.3s1,0.4,1.6,0.4
		c0.7,0,1.3-0.2,1.8-0.6C34.3,315.3,34.6,314.7,34.8,313.9z"/>
	<path class="st9" d="M37,313.8c0-1.2,0.3-2.2,1-2.8c0.6-0.5,1.3-0.7,2.1-0.7c0.9,0,1.7,0.3,2.3,0.9s0.9,1.4,0.9,2.5
		c0,0.9-0.1,1.5-0.4,2c-0.3,0.5-0.6,0.9-1.1,1.2c-0.5,0.3-1,0.4-1.6,0.4c-0.9,0-1.7-0.3-2.3-0.9C37.3,315.8,37,314.9,37,313.8z
		 M38.1,313.8c0,0.9,0.2,1.5,0.6,1.9s0.9,0.6,1.4,0.6c0.6,0,1-0.2,1.4-0.6s0.6-1.1,0.6-2c0-0.8-0.2-1.5-0.6-1.9
		c-0.4-0.4-0.8-0.6-1.4-0.6c-0.6,0-1,0.2-1.4,0.6S38.1,312.9,38.1,313.8z"/>
	<path class="st9" d="M44.2,313.8c0-1.2,0.3-2.2,1-2.8c0.6-0.5,1.3-0.7,2.1-0.7c0.9,0,1.7,0.3,2.3,0.9s0.9,1.4,0.9,2.5
		c0,0.9-0.1,1.5-0.4,2c-0.3,0.5-0.6,0.9-1.1,1.2c-0.5,0.3-1,0.4-1.6,0.4c-0.9,0-1.7-0.3-2.3-0.9C44.5,315.8,44.2,314.9,44.2,313.8z
		 M45.4,313.8c0,0.9,0.2,1.5,0.6,1.9s0.9,0.6,1.4,0.6c0.6,0,1-0.2,1.4-0.6s0.6-1.1,0.6-2c0-0.8-0.2-1.5-0.6-1.9
		c-0.4-0.4-0.8-0.6-1.4-0.6c-0.6,0-1,0.2-1.4,0.6S45.4,312.9,45.4,313.8z"/>
	<path class="st9" d="M51.9,319.8v-9.3h1v0.9c0.2-0.3,0.5-0.6,0.8-0.8c0.3-0.2,0.7-0.3,1.1-0.3c0.6,0,1.1,0.1,1.5,0.4s0.8,0.7,1,1.3
		c0.2,0.5,0.3,1.1,0.3,1.8c0,0.7-0.1,1.3-0.4,1.9c-0.2,0.6-0.6,1-1.1,1.3c-0.5,0.3-1,0.4-1.5,0.4c-0.4,0-0.7-0.1-1-0.2
		c-0.3-0.2-0.6-0.4-0.7-0.6v3.3H51.9z M52.9,313.8c0,0.9,0.2,1.5,0.5,1.9s0.8,0.6,1.3,0.6c0.5,0,0.9-0.2,1.3-0.6
		c0.4-0.4,0.5-1.1,0.5-2c0-0.9-0.2-1.5-0.5-1.9c-0.4-0.4-0.8-0.6-1.3-0.6c-0.5,0-0.9,0.2-1.3,0.7C53.1,312.3,52.9,313,52.9,313.8z"
		/>
	<path class="st9" d="M63.7,315l1.2,0.1c-0.2,0.7-0.5,1.2-1,1.6s-1.1,0.6-1.9,0.6c-1,0-1.8-0.3-2.3-0.9c-0.6-0.6-0.9-1.5-0.9-2.6
		c0-1.1,0.3-2,0.9-2.6s1.3-0.9,2.3-0.9c0.9,0,1.6,0.3,2.2,0.9c0.6,0.6,0.9,1.5,0.9,2.6c0,0.1,0,0.2,0,0.3h-5c0,0.7,0.3,1.3,0.6,1.7
		c0.4,0.4,0.8,0.6,1.4,0.6c0.4,0,0.8-0.1,1.1-0.3S63.5,315.5,63.7,315z M60,313.2h3.8c-0.1-0.6-0.2-1-0.4-1.3
		c-0.4-0.4-0.8-0.7-1.4-0.7c-0.5,0-1,0.2-1.3,0.5C60.2,312.1,60,312.6,60,313.2z"/>
	<path class="st9" d="M66.3,317.2v-6.7h1v1c0.3-0.5,0.5-0.8,0.7-0.9c0.2-0.2,0.5-0.2,0.7-0.2c0.4,0,0.8,0.1,1.2,0.4l-0.4,1.1
		c-0.3-0.2-0.6-0.2-0.8-0.2c-0.2,0-0.5,0.1-0.7,0.2s-0.3,0.4-0.4,0.6c-0.1,0.4-0.2,0.9-0.2,1.3v3.5H66.3z"/>
	<path class="st9" d="M75,316.3c-0.4,0.4-0.8,0.6-1.2,0.8c-0.4,0.1-0.8,0.2-1.3,0.2c-0.7,0-1.3-0.2-1.7-0.5
		c-0.4-0.4-0.6-0.8-0.6-1.4c0-0.3,0.1-0.6,0.2-0.9c0.1-0.3,0.3-0.5,0.6-0.7c0.2-0.2,0.5-0.3,0.8-0.4c0.2-0.1,0.6-0.1,1-0.2
		c0.9-0.1,1.6-0.2,2-0.4c0-0.2,0-0.3,0-0.3c0-0.5-0.1-0.8-0.3-1c-0.3-0.3-0.7-0.4-1.3-0.4c-0.5,0-0.9,0.1-1.2,0.3
		c-0.3,0.2-0.4,0.5-0.6,1l-1.1-0.2c0.1-0.5,0.3-0.9,0.5-1.2s0.6-0.5,1-0.7c0.4-0.2,1-0.2,1.5-0.2c0.6,0,1,0.1,1.4,0.2
		s0.6,0.3,0.8,0.5s0.3,0.5,0.4,0.8c0,0.2,0.1,0.5,0.1,1.1v1.5c0,1.1,0,1.7,0.1,2c0,0.3,0.1,0.6,0.3,0.8h-1.2
		C75.2,316.9,75.1,316.7,75,316.3z M75,313.8c-0.4,0.2-1,0.3-1.9,0.4c-0.5,0.1-0.8,0.1-1,0.2c-0.2,0.1-0.3,0.2-0.5,0.4
		s-0.2,0.3-0.2,0.5c0,0.3,0.1,0.6,0.3,0.8c0.2,0.2,0.6,0.3,1,0.3c0.4,0,0.8-0.1,1.2-0.3s0.6-0.5,0.8-0.8c0.1-0.3,0.2-0.6,0.2-1.1
		V313.8z"/>
	<path class="st9" d="M80.4,316.2l0.2,1c-0.3,0.1-0.6,0.1-0.9,0.1c-0.4,0-0.7-0.1-1-0.2c-0.2-0.1-0.4-0.3-0.5-0.5s-0.1-0.7-0.1-1.3
		v-3.9h-0.8v-0.9h0.8v-1.7l1.1-0.7v2.4h1.1v0.9h-1.1v3.9c0,0.3,0,0.5,0.1,0.6c0,0.1,0.1,0.2,0.2,0.2c0.1,0.1,0.2,0.1,0.4,0.1
		C80,316.2,80.2,316.2,80.4,316.2z"/>
	<path class="st9" d="M81.5,309.2v-1.3h1.1v1.3H81.5z M81.5,317.2v-6.7h1.1v6.7H81.5z"/>
	<path class="st9" d="M86.2,317.2l-2.6-6.7h1.2l1.4,4c0.2,0.4,0.3,0.9,0.4,1.4c0.1-0.4,0.2-0.8,0.4-1.3l1.5-4.1h1.2l-2.6,6.7H86.2z"
		/>
	<path class="st9" d="M95.5,315l1.2,0.1c-0.2,0.7-0.5,1.2-1,1.6s-1.1,0.6-1.9,0.6c-1,0-1.8-0.3-2.3-0.9c-0.6-0.6-0.9-1.5-0.9-2.6
		c0-1.1,0.3-2,0.9-2.6s1.3-0.9,2.3-0.9c0.9,0,1.6,0.3,2.2,0.9c0.6,0.6,0.9,1.5,0.9,2.6c0,0.1,0,0.2,0,0.3h-5c0,0.7,0.3,1.3,0.6,1.7
		c0.4,0.4,0.8,0.6,1.4,0.6c0.4,0,0.8-0.1,1.1-0.3S95.3,315.5,95.5,315z M91.7,313.2h3.8c-0.1-0.6-0.2-1-0.4-1.3
		c-0.4-0.4-0.8-0.7-1.4-0.7c-0.5,0-1,0.2-1.3,0.5C92,312.1,91.8,312.6,91.7,313.2z"/>
</g>
<rect x="105" y="249.8" class="st7" width="10" height="17.2"/>
<g class="st8">
	<path class="st9" d="M57.1,263v-9.3h1.3l4.9,7.3v-7.3h1.2v9.3h-1.3l-4.9-7.3v7.3H57.1z"/>
	<path class="st9" d="M70.9,260.8l1.2,0.1c-0.2,0.7-0.5,1.2-1,1.6s-1.1,0.6-1.9,0.6c-1,0-1.8-0.3-2.3-0.9c-0.6-0.6-0.9-1.5-0.9-2.6
		c0-1.1,0.3-2,0.9-2.6c0.6-0.6,1.3-0.9,2.3-0.9c0.9,0,1.6,0.3,2.2,0.9s0.9,1.5,0.9,2.6c0,0.1,0,0.2,0,0.3h-5c0,0.7,0.3,1.3,0.6,1.7
		c0.4,0.4,0.8,0.6,1.4,0.6c0.4,0,0.8-0.1,1.1-0.3C70.5,261.6,70.7,261.3,70.9,260.8z M67.2,259h3.8c-0.1-0.6-0.2-1-0.4-1.3
		c-0.4-0.4-0.8-0.7-1.4-0.7c-0.5,0-1,0.2-1.3,0.5C67.4,257.9,67.2,258.4,67.2,259z"/>
	<path class="st9" d="M73.1,261l1.1-0.2c0.1,0.5,0.2,0.8,0.5,1c0.3,0.2,0.7,0.4,1.2,0.4c0.5,0,0.9-0.1,1.2-0.3
		c0.3-0.2,0.4-0.5,0.4-0.8c0-0.3-0.1-0.5-0.3-0.6c-0.2-0.1-0.5-0.2-1.2-0.4c-0.8-0.2-1.4-0.4-1.7-0.5c-0.3-0.2-0.6-0.4-0.7-0.6
		c-0.2-0.3-0.3-0.6-0.3-0.9c0-0.3,0.1-0.6,0.2-0.8c0.1-0.3,0.3-0.5,0.6-0.6c0.2-0.1,0.4-0.2,0.7-0.3c0.3-0.1,0.6-0.1,1-0.1
		c0.5,0,1,0.1,1.4,0.2c0.4,0.2,0.7,0.4,0.9,0.6c0.2,0.3,0.3,0.6,0.4,1l-1.1,0.2c-0.1-0.3-0.2-0.6-0.4-0.8c-0.2-0.2-0.6-0.3-1-0.3
		c-0.5,0-0.9,0.1-1.1,0.3s-0.3,0.4-0.3,0.6c0,0.1,0,0.3,0.1,0.4c0.1,0.1,0.2,0.2,0.4,0.3c0.1,0,0.5,0.1,1,0.3
		c0.8,0.2,1.4,0.4,1.7,0.5c0.3,0.1,0.6,0.3,0.8,0.6c0.2,0.3,0.3,0.6,0.3,1c0,0.4-0.1,0.7-0.3,1.1c-0.2,0.3-0.5,0.6-1,0.8
		s-0.9,0.3-1.4,0.3c-0.9,0-1.5-0.2-2-0.5C73.5,262.2,73.2,261.7,73.1,261z"/>
	<path class="st9" d="M82.5,262l0.2,1c-0.3,0.1-0.6,0.1-0.9,0.1c-0.4,0-0.7-0.1-1-0.2s-0.4-0.3-0.5-0.5c-0.1-0.2-0.1-0.7-0.1-1.3
		v-3.9h-0.8v-0.9h0.8v-1.7l1.1-0.7v2.4h1.1v0.9h-1.1v3.9c0,0.3,0,0.5,0.1,0.6c0,0.1,0.1,0.2,0.2,0.2c0.1,0.1,0.2,0.1,0.4,0.1
		C82.2,262,82.3,262,82.5,262z"/>
	<path class="st9" d="M88.3,260.8l1.2,0.1c-0.2,0.7-0.5,1.2-1,1.6s-1.1,0.6-1.9,0.6c-1,0-1.8-0.3-2.3-0.9c-0.6-0.6-0.9-1.5-0.9-2.6
		c0-1.1,0.3-2,0.9-2.6c0.6-0.6,1.3-0.9,2.3-0.9c0.9,0,1.6,0.3,2.2,0.9s0.9,1.5,0.9,2.6c0,0.1,0,0.2,0,0.3h-5c0,0.7,0.3,1.3,0.6,1.7
		c0.4,0.4,0.8,0.6,1.4,0.6c0.4,0,0.8-0.1,1.1-0.3C87.9,261.6,88.1,261.3,88.3,260.8z M84.5,259h3.8c-0.1-0.6-0.2-1-0.4-1.3
		c-0.4-0.4-0.8-0.7-1.4-0.7c-0.5,0-1,0.2-1.3,0.5C84.7,257.9,84.5,258.4,84.5,259z"/>
	<path class="st9" d="M95.3,263v-0.8c-0.4,0.7-1.1,1-1.9,1c-0.5,0-1-0.1-1.5-0.4c-0.5-0.3-0.8-0.7-1-1.2c-0.2-0.5-0.4-1.1-0.4-1.8
		c0-0.7,0.1-1.3,0.3-1.8c0.2-0.5,0.6-1,1-1.3c0.4-0.3,1-0.4,1.5-0.4c0.4,0,0.8,0.1,1.1,0.3c0.3,0.2,0.6,0.4,0.8,0.7v-3.3h1.1v9.3
		H95.3z M91.6,259.6c0,0.9,0.2,1.5,0.5,1.9s0.8,0.6,1.3,0.6c0.5,0,0.9-0.2,1.3-0.6c0.3-0.4,0.5-1,0.5-1.9c0-0.9-0.2-1.6-0.5-2
		s-0.8-0.6-1.3-0.6c-0.5,0-0.9,0.2-1.3,0.6C91.8,258.1,91.6,258.7,91.6,259.6z"/>
</g>
<g class="st8">
	<path class="st9" d="M654.7,217.7v-9.3h4.1c0.8,0,1.5,0.1,1.9,0.3s0.8,0.5,1,0.9c0.3,0.4,0.4,0.9,0.4,1.4c0,0.7-0.2,1.2-0.6,1.7
		c-0.4,0.5-1.1,0.7-2,0.9c0.3,0.2,0.6,0.3,0.7,0.5c0.4,0.3,0.7,0.7,1,1.2l1.6,2.5h-1.5l-1.2-1.9c-0.4-0.6-0.7-1-0.9-1.3
		c-0.2-0.3-0.4-0.5-0.6-0.6c-0.2-0.1-0.4-0.2-0.6-0.2c-0.1,0-0.4,0-0.7,0h-1.4v4.1H654.7z M655.9,212.5h2.6c0.6,0,1-0.1,1.3-0.2
		s0.6-0.3,0.7-0.6s0.2-0.5,0.2-0.8c0-0.4-0.2-0.8-0.5-1.1c-0.3-0.3-0.8-0.4-1.5-0.4h-2.9V212.5z"/>
	<path class="st9" d="M668.5,215.6l1.2,0.1c-0.2,0.7-0.5,1.2-1,1.6s-1.1,0.6-1.9,0.6c-1,0-1.8-0.3-2.3-0.9s-0.9-1.5-0.9-2.6
		c0-1.1,0.3-2,0.9-2.6s1.3-0.9,2.3-0.9c0.9,0,1.6,0.3,2.2,0.9c0.6,0.6,0.9,1.5,0.9,2.6c0,0.1,0,0.2,0,0.3h-5c0,0.7,0.3,1.3,0.6,1.7
		c0.4,0.4,0.8,0.6,1.4,0.6c0.4,0,0.8-0.1,1.1-0.3S668.3,216,668.5,215.6z M664.7,213.7h3.8c-0.1-0.6-0.2-1-0.4-1.3
		c-0.4-0.4-0.8-0.7-1.4-0.7c-0.5,0-1,0.2-1.3,0.5C665,212.7,664.8,213.1,664.7,213.7z"/>
	<path class="st9" d="M675.5,216.9c-0.4,0.4-0.8,0.6-1.2,0.8c-0.4,0.1-0.8,0.2-1.3,0.2c-0.7,0-1.3-0.2-1.7-0.5
		c-0.4-0.4-0.6-0.8-0.6-1.4c0-0.3,0.1-0.6,0.2-0.9c0.1-0.3,0.3-0.5,0.6-0.7s0.5-0.3,0.8-0.4c0.2-0.1,0.6-0.1,1-0.2
		c0.9-0.1,1.6-0.2,2-0.4c0-0.2,0-0.3,0-0.3c0-0.5-0.1-0.8-0.3-1c-0.3-0.3-0.7-0.4-1.3-0.4c-0.5,0-0.9,0.1-1.2,0.3
		c-0.3,0.2-0.4,0.5-0.6,1l-1.1-0.2c0.1-0.5,0.3-0.9,0.5-1.2s0.6-0.5,1-0.7c0.4-0.2,1-0.2,1.5-0.2c0.6,0,1,0.1,1.4,0.2
		c0.4,0.1,0.6,0.3,0.8,0.5s0.3,0.5,0.4,0.8c0,0.2,0.1,0.5,0.1,1.1v1.5c0,1.1,0,1.7,0.1,2c0,0.3,0.1,0.6,0.3,0.8h-1.2
		C675.6,217.5,675.5,217.2,675.5,216.9z M675.4,214.3c-0.4,0.2-1,0.3-1.9,0.4c-0.5,0.1-0.8,0.1-1,0.2c-0.2,0.1-0.3,0.2-0.5,0.4
		c-0.1,0.2-0.2,0.3-0.2,0.5c0,0.3,0.1,0.6,0.3,0.8s0.6,0.3,1,0.3c0.4,0,0.8-0.1,1.2-0.3c0.3-0.2,0.6-0.5,0.8-0.8
		c0.1-0.3,0.2-0.6,0.2-1.1V214.3z"/>
	<path class="st9" d="M677.9,215.7l1.1-0.2c0.1,0.5,0.2,0.8,0.5,1c0.3,0.2,0.7,0.4,1.2,0.4c0.5,0,0.9-0.1,1.2-0.3s0.4-0.5,0.4-0.8
		c0-0.3-0.1-0.5-0.3-0.6c-0.2-0.1-0.5-0.2-1.2-0.4c-0.8-0.2-1.4-0.4-1.7-0.5s-0.6-0.4-0.7-0.6c-0.2-0.3-0.3-0.6-0.3-0.9
		c0-0.3,0.1-0.6,0.2-0.8c0.1-0.3,0.3-0.5,0.6-0.6c0.2-0.1,0.4-0.2,0.7-0.3s0.6-0.1,1-0.1c0.5,0,1,0.1,1.4,0.2
		c0.4,0.2,0.7,0.4,0.9,0.6c0.2,0.3,0.3,0.6,0.4,1l-1.1,0.2c-0.1-0.3-0.2-0.6-0.4-0.8c-0.2-0.2-0.6-0.3-1-0.3c-0.5,0-0.9,0.1-1.1,0.3
		c-0.2,0.2-0.3,0.4-0.3,0.6c0,0.1,0,0.3,0.1,0.4c0.1,0.1,0.2,0.2,0.4,0.3c0.1,0,0.5,0.1,1,0.3c0.8,0.2,1.4,0.4,1.7,0.5
		c0.3,0.1,0.6,0.3,0.8,0.6c0.2,0.3,0.3,0.6,0.3,1c0,0.4-0.1,0.7-0.3,1.1c-0.2,0.3-0.5,0.6-1,0.8c-0.4,0.2-0.9,0.3-1.4,0.3
		c-0.9,0-1.5-0.2-2-0.5S678,216.4,677.9,215.7z"/>
	<path class="st9" d="M684.4,214.4c0-1.2,0.3-2.2,1-2.8c0.6-0.5,1.3-0.7,2.1-0.7c0.9,0,1.7,0.3,2.3,0.9c0.6,0.6,0.9,1.4,0.9,2.5
		c0,0.9-0.1,1.5-0.4,2s-0.6,0.9-1.1,1.2c-0.5,0.3-1,0.4-1.6,0.4c-0.9,0-1.7-0.3-2.3-0.9C684.7,216.4,684.4,215.5,684.4,214.4z
		 M685.6,214.4c0,0.9,0.2,1.5,0.6,1.9c0.4,0.4,0.8,0.6,1.4,0.6c0.6,0,1-0.2,1.4-0.6s0.6-1.1,0.6-2c0-0.8-0.2-1.5-0.6-1.9
		s-0.8-0.6-1.4-0.6c-0.6,0-1,0.2-1.4,0.6C685.8,212.9,685.6,213.5,685.6,214.4z"/>
	<path class="st9" d="M692.1,217.7V211h1v1c0.5-0.7,1.2-1.1,2.1-1.1c0.4,0,0.8,0.1,1.1,0.2c0.3,0.1,0.6,0.3,0.8,0.6
		c0.2,0.2,0.3,0.5,0.4,0.8c0,0.2,0.1,0.6,0.1,1.1v4.1h-1.1v-4.1c0-0.5,0-0.8-0.1-1c-0.1-0.2-0.2-0.4-0.5-0.6s-0.5-0.2-0.8-0.2
		c-0.5,0-0.9,0.2-1.3,0.5c-0.4,0.3-0.5,0.9-0.5,1.8v3.7H692.1z"/>
	<path class="st9" d="M699.3,209.7v-1.3h1.1v1.3H699.3z M699.3,217.7V211h1.1v6.7H699.3z"/>
	<path class="st9" d="M702.2,217.7V211h1v1c0.5-0.7,1.2-1.1,2.1-1.1c0.4,0,0.8,0.1,1.1,0.2c0.3,0.1,0.6,0.3,0.8,0.6
		c0.2,0.2,0.3,0.5,0.4,0.8c0,0.2,0.1,0.6,0.1,1.1v4.1h-1.1v-4.1c0-0.5,0-0.8-0.1-1c-0.1-0.2-0.2-0.4-0.5-0.6
		c-0.2-0.1-0.5-0.2-0.8-0.2c-0.5,0-0.9,0.2-1.3,0.5c-0.4,0.3-0.5,0.9-0.5,1.8v3.7H702.2z"/>
	<path class="st9" d="M709.2,218.3l1.1,0.2c0,0.3,0.2,0.6,0.4,0.7c0.3,0.2,0.7,0.3,1.2,0.3c0.5,0,0.9-0.1,1.2-0.3
		c0.3-0.2,0.5-0.5,0.6-0.9c0.1-0.2,0.1-0.7,0.1-1.5c-0.5,0.6-1.1,0.9-1.9,0.9c-0.9,0-1.6-0.3-2.2-1s-0.8-1.5-0.8-2.4
		c0-0.6,0.1-1.2,0.3-1.8s0.6-1,1-1.3c0.4-0.3,1-0.4,1.6-0.4c0.8,0,1.5,0.3,2,1V211h1.1v5.8c0,1-0.1,1.8-0.3,2.2
		c-0.2,0.4-0.6,0.8-1,1c-0.5,0.3-1,0.4-1.7,0.4c-0.8,0-1.5-0.2-1.9-0.5C709.4,219.6,709.2,219,709.2,218.3z M710.2,214.2
		c0,0.9,0.2,1.5,0.5,1.9c0.4,0.4,0.8,0.6,1.3,0.6c0.5,0,1-0.2,1.3-0.6s0.5-1,0.5-1.9c0-0.8-0.2-1.4-0.5-1.9
		c-0.4-0.4-0.8-0.6-1.3-0.6c-0.5,0-0.9,0.2-1.3,0.6C710.3,212.8,710.2,213.4,710.2,214.2z"/>
</g>
<rect x="635" y="371.6" class="st7" width="10" height="15.3"/>
<g class="st8">
	<path class="st9" d="M654.3,379.2c0-1.5,0.4-2.8,1.2-3.6s1.9-1.3,3.2-1.3c0.9,0,1.6,0.2,2.3,0.6c0.7,0.4,1.2,1,1.6,1.7
		s0.5,1.6,0.5,2.5c0,0.9-0.2,1.8-0.6,2.5s-0.9,1.3-1.6,1.7c-0.7,0.4-1.5,0.6-2.3,0.6c-0.9,0-1.7-0.2-2.3-0.6c-0.7-0.4-1.2-1-1.6-1.7
		S654.3,380.1,654.3,379.2z M655.5,379.3c0,1.1,0.3,2,0.9,2.7c0.6,0.6,1.4,1,2.3,1c0.9,0,1.7-0.3,2.3-1c0.6-0.7,0.9-1.6,0.9-2.8
		c0-0.8-0.1-1.4-0.4-2c-0.3-0.6-0.6-1-1.1-1.3c-0.5-0.3-1-0.5-1.7-0.5c-0.9,0-1.6,0.3-2.2,0.9S655.5,377.9,655.5,379.3z"/>
	<path class="st9" d="M664.4,379.2c0-1.5,0.4-2.8,1.2-3.6c0.8-0.9,1.9-1.3,3.2-1.3c0.9,0,1.6,0.2,2.3,0.6c0.7,0.4,1.2,1,1.6,1.7
		c0.4,0.7,0.5,1.6,0.5,2.5c0,0.9-0.2,1.8-0.6,2.5s-0.9,1.3-1.6,1.7s-1.5,0.6-2.3,0.6c-0.9,0-1.7-0.2-2.3-0.6c-0.7-0.4-1.2-1-1.6-1.7
		S664.4,380.1,664.4,379.2z M665.7,379.3c0,1.1,0.3,2,0.9,2.7c0.6,0.6,1.4,1,2.3,1c0.9,0,1.7-0.3,2.3-1c0.6-0.7,0.9-1.6,0.9-2.8
		c0-0.8-0.1-1.4-0.4-2c-0.3-0.6-0.6-1-1.1-1.3c-0.5-0.3-1-0.5-1.7-0.5c-0.9,0-1.6,0.3-2.2,0.9C666,376.9,665.7,377.9,665.7,379.3z"
		/>
	<path class="st9" d="M674.9,383.8v-9.3h3.2c0.7,0,1.3,0,1.7,0.1c0.5,0.1,1,0.3,1.4,0.7c0.5,0.4,0.9,0.9,1.1,1.6
		c0.2,0.6,0.4,1.4,0.4,2.2c0,0.7-0.1,1.3-0.2,1.9c-0.2,0.5-0.4,1-0.6,1.4s-0.5,0.6-0.8,0.8s-0.7,0.4-1.1,0.5
		c-0.4,0.1-0.9,0.2-1.5,0.2H674.9z M676.1,382.7h2c0.6,0,1.1-0.1,1.4-0.2s0.6-0.3,0.8-0.5c0.3-0.3,0.5-0.7,0.7-1.2
		c0.2-0.5,0.2-1.1,0.2-1.8c0-1-0.2-1.7-0.5-2.2c-0.3-0.5-0.7-0.9-1.2-1.1c-0.3-0.1-0.9-0.2-1.6-0.2h-2V382.7z"/>
</g>
<rect x="635" y="280.5" class="st7" width="10" height="17.2"/>
<g class="st8">
	<path class="st9" d="M654.9,293.6v-9.3h1.2v9.3H654.9z"/>
	<path class="st9" d="M658.1,293.6v-6.7h1v1c0.5-0.7,1.2-1.1,2.1-1.1c0.4,0,0.8,0.1,1.1,0.2c0.3,0.1,0.6,0.3,0.8,0.6
		c0.2,0.2,0.3,0.5,0.4,0.8c0,0.2,0.1,0.6,0.1,1.1v4.1h-1.1v-4.1c0-0.5,0-0.8-0.1-1c-0.1-0.2-0.2-0.4-0.5-0.6
		c-0.2-0.1-0.5-0.2-0.8-0.2c-0.5,0-0.9,0.2-1.3,0.5c-0.4,0.3-0.5,0.9-0.5,1.8v3.7H658.1z"/>
	<path class="st9" d="M667.8,292.6l0.2,1c-0.3,0.1-0.6,0.1-0.9,0.1c-0.4,0-0.7-0.1-1-0.2c-0.2-0.1-0.4-0.3-0.5-0.5
		c-0.1-0.2-0.1-0.7-0.1-1.3v-3.9h-0.8v-0.9h0.8v-1.7l1.1-0.7v2.4h1.1v0.9h-1.1v3.9c0,0.3,0,0.5,0.1,0.6c0,0.1,0.1,0.2,0.2,0.2
		c0.1,0.1,0.2,0.1,0.4,0.1C667.5,292.7,667.6,292.6,667.8,292.6z"/>
	<path class="st9" d="M673.6,291.5l1.2,0.1c-0.2,0.7-0.5,1.2-1,1.6c-0.5,0.4-1.1,0.6-1.9,0.6c-1,0-1.8-0.3-2.3-0.9
		c-0.6-0.6-0.9-1.5-0.9-2.6c0-1.1,0.3-2,0.9-2.6s1.3-0.9,2.3-0.9c0.9,0,1.6,0.3,2.2,0.9c0.6,0.6,0.9,1.5,0.9,2.6c0,0.1,0,0.2,0,0.3
		h-5c0,0.7,0.3,1.3,0.6,1.7c0.4,0.4,0.8,0.6,1.4,0.6c0.4,0,0.8-0.1,1.1-0.3C673.2,292.3,673.4,291.9,673.6,291.5z M669.8,289.6h3.8
		c-0.1-0.6-0.2-1-0.4-1.3c-0.4-0.4-0.8-0.7-1.4-0.7c-0.5,0-1,0.2-1.3,0.5C670.1,288.6,669.9,289,669.8,289.6z"/>
	<path class="st9" d="M676.2,293.6v-6.7h1v1c0.3-0.5,0.5-0.8,0.7-0.9s0.5-0.2,0.7-0.2c0.4,0,0.8,0.1,1.2,0.4l-0.4,1.1
		c-0.3-0.2-0.6-0.2-0.8-0.2c-0.2,0-0.5,0.1-0.7,0.2c-0.2,0.2-0.3,0.4-0.4,0.6c-0.1,0.4-0.2,0.9-0.2,1.3v3.5H676.2z"/>
	<path class="st9" d="M680.5,296.2v-9.3h1v0.9c0.2-0.3,0.5-0.6,0.8-0.8c0.3-0.2,0.7-0.3,1.1-0.3c0.6,0,1.1,0.1,1.5,0.4
		s0.8,0.7,1,1.3c0.2,0.5,0.3,1.1,0.3,1.8c0,0.7-0.1,1.3-0.4,1.9c-0.2,0.6-0.6,1-1.1,1.3c-0.5,0.3-1,0.4-1.5,0.4
		c-0.4,0-0.7-0.1-1-0.2c-0.3-0.2-0.6-0.4-0.7-0.6v3.3H680.5z M681.5,290.3c0,0.9,0.2,1.5,0.5,1.9s0.8,0.6,1.3,0.6
		c0.5,0,0.9-0.2,1.3-0.6s0.5-1.1,0.5-2c0-0.9-0.2-1.5-0.5-1.9c-0.4-0.4-0.8-0.6-1.3-0.6c-0.5,0-0.9,0.2-1.3,0.7
		S681.5,289.4,681.5,290.3z"/>
	<path class="st9" d="M687.7,293.6v-6.7h1v1c0.3-0.5,0.5-0.8,0.7-0.9c0.2-0.2,0.5-0.2,0.7-0.2c0.4,0,0.8,0.1,1.2,0.4l-0.4,1.1
		c-0.3-0.2-0.6-0.2-0.8-0.2c-0.2,0-0.5,0.1-0.7,0.2s-0.3,0.4-0.4,0.6c-0.1,0.4-0.2,0.9-0.2,1.3v3.5H687.7z"/>
	<path class="st9" d="M696.7,291.5l1.2,0.1c-0.2,0.7-0.5,1.2-1,1.6c-0.5,0.4-1.1,0.6-1.9,0.6c-1,0-1.8-0.3-2.3-0.9
		c-0.6-0.6-0.9-1.5-0.9-2.6c0-1.1,0.3-2,0.9-2.6s1.3-0.9,2.3-0.9c0.9,0,1.6,0.3,2.2,0.9c0.6,0.6,0.9,1.5,0.9,2.6c0,0.1,0,0.2,0,0.3
		h-5c0,0.7,0.3,1.3,0.6,1.7c0.4,0.4,0.8,0.6,1.4,0.6c0.4,0,0.8-0.1,1.1-0.3C696.3,292.3,696.5,291.9,696.7,291.5z M692.9,289.6h3.8
		c-0.1-0.6-0.2-1-0.4-1.3c-0.4-0.4-0.8-0.7-1.4-0.7c-0.5,0-1,0.2-1.3,0.5C693.2,288.6,693,289,692.9,289.6z"/>
	<path class="st9" d="M701.8,292.6l0.2,1c-0.3,0.1-0.6,0.1-0.9,0.1c-0.4,0-0.7-0.1-1-0.2c-0.2-0.1-0.4-0.3-0.5-0.5
		c-0.1-0.2-0.1-0.7-0.1-1.3v-3.9h-0.8v-0.9h0.8v-1.7l1.1-0.7v2.4h1.1v0.9h-1.1v3.9c0,0.3,0,0.5,0.1,0.6c0,0.1,0.1,0.2,0.2,0.2
		c0.1,0.1,0.2,0.1,0.4,0.1C701.4,292.7,701.6,292.6,701.8,292.6z"/>
	<path class="st9" d="M707.3,292.8c-0.4,0.4-0.8,0.6-1.2,0.8c-0.4,0.1-0.8,0.2-1.3,0.2c-0.7,0-1.3-0.2-1.7-0.5
		c-0.4-0.4-0.6-0.8-0.6-1.4c0-0.3,0.1-0.6,0.2-0.9c0.2-0.3,0.3-0.5,0.6-0.7c0.2-0.2,0.5-0.3,0.8-0.4c0.2-0.1,0.6-0.1,1-0.2
		c0.9-0.1,1.6-0.2,2-0.4c0-0.2,0-0.3,0-0.3c0-0.5-0.1-0.8-0.3-1c-0.3-0.3-0.7-0.4-1.3-0.4c-0.5,0-0.9,0.1-1.2,0.3s-0.4,0.5-0.6,1
		l-1.1-0.2c0.1-0.5,0.3-0.9,0.5-1.2s0.6-0.5,1-0.7c0.4-0.2,0.9-0.2,1.5-0.2c0.6,0,1,0.1,1.4,0.2c0.4,0.1,0.6,0.3,0.8,0.5
		s0.3,0.5,0.4,0.8c0,0.2,0.1,0.5,0.1,1.1v1.5c0,1.1,0,1.7,0.1,2s0.1,0.6,0.3,0.8h-1.2C707.4,293.4,707.3,293.1,707.3,292.8z
		 M707.2,290.2c-0.4,0.2-1,0.3-1.9,0.4c-0.5,0.1-0.8,0.1-1,0.2c-0.2,0.1-0.3,0.2-0.5,0.4c-0.1,0.2-0.2,0.3-0.2,0.5
		c0,0.3,0.1,0.6,0.3,0.8c0.2,0.2,0.6,0.3,1,0.3c0.4,0,0.8-0.1,1.2-0.3c0.3-0.2,0.6-0.5,0.8-0.8c0.1-0.3,0.2-0.6,0.2-1.1V290.2z"/>
	<path class="st9" d="M711.2,293.6h-1.1v-9.3h1.1v3.3c0.5-0.6,1.1-0.9,1.8-0.9c0.4,0,0.8,0.1,1.2,0.3c0.4,0.2,0.7,0.4,0.9,0.7
		c0.2,0.3,0.4,0.7,0.6,1.1c0.1,0.4,0.2,0.9,0.2,1.4c0,1.2-0.3,2-0.9,2.7c-0.6,0.6-1.3,0.9-2.1,0.9c-0.8,0-1.4-0.3-1.9-1V293.6z
		 M711.2,290.2c0,0.8,0.1,1.4,0.3,1.8c0.4,0.6,0.8,0.9,1.5,0.9c0.5,0,0.9-0.2,1.3-0.7s0.5-1.1,0.5-1.9c0-0.9-0.2-1.5-0.5-1.9
		c-0.3-0.4-0.8-0.6-1.3-0.6c-0.5,0-0.9,0.2-1.3,0.7S711.2,289.4,711.2,290.2z"/>
	<path class="st9" d="M717.4,285.6v-1.3h1.1v1.3H717.4z M717.4,293.6v-6.7h1.1v6.7H717.4z"/>
	<path class="st9" d="M720.2,293.6v-9.3h1.1v9.3H720.2z"/>
	<path class="st9" d="M723.2,285.6v-1.3h1.1v1.3H723.2z M723.2,293.6v-6.7h1.1v6.7H723.2z"/>
	<path class="st9" d="M728.5,292.6l0.2,1c-0.3,0.1-0.6,0.1-0.9,0.1c-0.4,0-0.7-0.1-1-0.2c-0.2-0.1-0.4-0.3-0.5-0.5
		c-0.1-0.2-0.1-0.7-0.1-1.3v-3.9h-0.8v-0.9h0.8v-1.7l1.1-0.7v2.4h1.1v0.9h-1.1v3.9c0,0.3,0,0.5,0.1,0.6c0,0.1,0.1,0.2,0.2,0.2
		c0.1,0.1,0.2,0.1,0.4,0.1C728.2,292.7,728.3,292.6,728.5,292.6z"/>
	<path class="st9" d="M729.6,296.2l-0.1-1.1c0.2,0.1,0.5,0.1,0.7,0.1c0.3,0,0.5,0,0.6-0.1s0.3-0.2,0.4-0.4c0.1-0.1,0.2-0.4,0.3-0.9
		c0-0.1,0.1-0.2,0.1-0.3l-2.6-6.8h1.2l1.4,3.9c0.2,0.5,0.3,1,0.5,1.6c0.1-0.5,0.3-1,0.5-1.5l1.4-3.9h1.1l-2.6,6.9
		c-0.3,0.7-0.5,1.3-0.6,1.5c-0.2,0.4-0.4,0.7-0.7,0.8c-0.3,0.2-0.6,0.3-0.9,0.3C730.1,296.4,729.9,296.3,729.6,296.2z"/>
</g>
<rect x="635" y="322.7" class="st7" width="10" height="23.9"/>
<g class="st8">
	<path class="st9" d="M654.7,339.2v-9.3h4.1c0.8,0,1.5,0.1,1.9,0.3s0.8,0.5,1,0.9c0.3,0.4,0.4,0.9,0.4,1.4c0,0.7-0.2,1.2-0.6,1.7
		c-0.4,0.5-1.1,0.7-2,0.9c0.3,0.2,0.6,0.3,0.7,0.5c0.4,0.3,0.7,0.7,1,1.2l1.6,2.5h-1.5l-1.2-1.9c-0.4-0.6-0.7-1-0.9-1.3
		c-0.2-0.3-0.4-0.5-0.6-0.6c-0.2-0.1-0.4-0.2-0.6-0.2c-0.1,0-0.4,0-0.7,0h-1.4v4.1H654.7z M655.9,334h2.6c0.6,0,1-0.1,1.3-0.2
		c0.3-0.1,0.6-0.3,0.7-0.6c0.2-0.3,0.2-0.5,0.2-0.8c0-0.4-0.2-0.8-0.5-1.1c-0.3-0.3-0.8-0.4-1.5-0.4h-2.9V334z"/>
	<path class="st9" d="M668.5,337l1.2,0.1c-0.2,0.7-0.5,1.2-1,1.6c-0.5,0.4-1.1,0.6-1.9,0.6c-1,0-1.8-0.3-2.3-0.9
		c-0.6-0.6-0.9-1.5-0.9-2.6c0-1.1,0.3-2,0.9-2.6s1.3-0.9,2.3-0.9c0.9,0,1.6,0.3,2.2,0.9c0.6,0.6,0.9,1.5,0.9,2.6c0,0.1,0,0.2,0,0.3
		h-5c0,0.7,0.3,1.3,0.6,1.7c0.4,0.4,0.8,0.6,1.4,0.6c0.4,0,0.8-0.1,1.1-0.3C668.1,337.8,668.3,337.5,668.5,337z M664.7,335.2h3.8
		c-0.1-0.6-0.2-1-0.4-1.3c-0.4-0.4-0.8-0.7-1.4-0.7c-0.5,0-1,0.2-1.3,0.5C665,334.1,664.8,334.6,664.7,335.2z"/>
	<path class="st9" d="M675.5,339.2v-0.9c-0.4,0.7-1.1,1-1.9,1c-0.5,0-1-0.1-1.5-0.4s-0.8-0.7-1-1.2s-0.4-1.1-0.4-1.8
		c0-0.7,0.1-1.3,0.3-1.8s0.6-1,1-1.3c0.4-0.3,0.9-0.4,1.5-0.4c0.4,0,0.8,0.1,1.1,0.3c0.3,0.2,0.6,0.4,0.8,0.7v-3.3h1.1v9.3H675.5z
		 M671.9,335.8c0,0.9,0.2,1.5,0.5,1.9c0.4,0.4,0.8,0.6,1.3,0.6c0.5,0,0.9-0.2,1.3-0.6s0.5-1,0.5-1.9c0-0.9-0.2-1.6-0.5-2
		s-0.8-0.6-1.3-0.6c-0.5,0-0.9,0.2-1.3,0.6C672,334.3,671.9,334.9,671.9,335.8z"/>
	<path class="st9" d="M682.8,339.2v-1c-0.5,0.8-1.2,1.1-2.1,1.1c-0.4,0-0.8-0.1-1.1-0.2c-0.3-0.2-0.6-0.3-0.8-0.6
		c-0.2-0.2-0.3-0.5-0.4-0.8c0-0.2-0.1-0.6-0.1-1.1v-4.2h1.1v3.7c0,0.6,0,1,0.1,1.2c0.1,0.3,0.2,0.5,0.5,0.7c0.2,0.2,0.5,0.3,0.9,0.3
		s0.7-0.1,1-0.3s0.5-0.4,0.6-0.7s0.2-0.7,0.2-1.3v-3.6h1.1v6.7H682.8z"/>
	<path class="st9" d="M690,336.7l1.1,0.1c-0.1,0.8-0.4,1.4-0.9,1.8c-0.5,0.4-1.1,0.7-1.9,0.7c-0.9,0-1.7-0.3-2.2-0.9
		c-0.6-0.6-0.8-1.5-0.8-2.6c0-0.7,0.1-1.4,0.4-1.9s0.6-1,1.1-1.2c0.5-0.3,1-0.4,1.6-0.4c0.7,0,1.3,0.2,1.8,0.6s0.8,0.9,0.9,1.6
		l-1.1,0.2c-0.1-0.5-0.3-0.8-0.6-1c-0.3-0.2-0.6-0.3-1-0.3c-0.6,0-1,0.2-1.4,0.6c-0.4,0.4-0.5,1.1-0.5,2c0,0.9,0.2,1.6,0.5,2
		c0.3,0.4,0.8,0.6,1.4,0.6c0.4,0,0.8-0.1,1.1-0.4C689.7,337.7,689.9,337.3,690,336.7z"/>
	<path class="st9" d="M696.7,337l1.2,0.1c-0.2,0.7-0.5,1.2-1,1.6s-1.1,0.6-1.9,0.6c-1,0-1.8-0.3-2.3-0.9s-0.9-1.5-0.9-2.6
		c0-1.1,0.3-2,0.9-2.6s1.3-0.9,2.3-0.9c0.9,0,1.6,0.3,2.2,0.9c0.6,0.6,0.9,1.5,0.9,2.6c0,0.1,0,0.2,0,0.3h-5c0,0.7,0.3,1.3,0.6,1.7
		c0.4,0.4,0.8,0.6,1.4,0.6c0.4,0,0.8-0.1,1.1-0.3S696.5,337.5,696.7,337z M692.9,335.2h3.8c-0.1-0.6-0.2-1-0.4-1.3
		c-0.4-0.4-0.8-0.7-1.4-0.7c-0.5,0-1,0.2-1.3,0.5C693.2,334.1,693,334.6,692.9,335.2z"/>
	<path class="st9" d="M703.7,339.2v-0.9c-0.4,0.7-1.1,1-1.9,1c-0.5,0-1-0.1-1.5-0.4c-0.5-0.3-0.8-0.7-1-1.2
		c-0.2-0.5-0.4-1.1-0.4-1.8c0-0.7,0.1-1.3,0.3-1.8c0.2-0.5,0.6-1,1-1.3c0.4-0.3,1-0.4,1.5-0.4c0.4,0,0.8,0.1,1.1,0.3
		c0.3,0.2,0.6,0.4,0.8,0.7v-3.3h1.1v9.3H703.7z M700.1,335.8c0,0.9,0.2,1.5,0.5,1.9c0.4,0.4,0.8,0.6,1.3,0.6c0.5,0,0.9-0.2,1.3-0.6
		c0.3-0.4,0.5-1,0.5-1.9c0-0.9-0.2-1.6-0.5-2s-0.8-0.6-1.3-0.6c-0.5,0-0.9,0.2-1.3,0.6C700.2,334.3,700.1,334.9,700.1,335.8z"/>
	<path class="st9" d="M710.3,339.2v-9.3h3.2c0.7,0,1.3,0,1.7,0.1c0.5,0.1,1,0.3,1.4,0.7c0.5,0.4,0.9,0.9,1.1,1.6
		c0.2,0.6,0.4,1.4,0.4,2.2c0,0.7-0.1,1.3-0.2,1.9c-0.2,0.5-0.4,1-0.6,1.4c-0.3,0.4-0.5,0.6-0.8,0.8c-0.3,0.2-0.7,0.4-1.1,0.5
		c-0.4,0.1-0.9,0.2-1.5,0.2H710.3z M711.5,338.1h2c0.6,0,1.1-0.1,1.4-0.2c0.3-0.1,0.6-0.3,0.8-0.5c0.3-0.3,0.5-0.7,0.7-1.2
		c0.2-0.5,0.2-1.1,0.2-1.8c0-1-0.2-1.7-0.5-2.2s-0.7-0.9-1.2-1.1c-0.3-0.1-0.9-0.2-1.6-0.2h-2V338.1z"/>
	<path class="st9" d="M723.9,338.4c-0.4,0.4-0.8,0.6-1.2,0.8c-0.4,0.1-0.8,0.2-1.3,0.2c-0.7,0-1.3-0.2-1.7-0.5
		c-0.4-0.4-0.6-0.8-0.6-1.4c0-0.3,0.1-0.6,0.2-0.9c0.2-0.3,0.3-0.5,0.6-0.7c0.2-0.2,0.5-0.3,0.8-0.4c0.2-0.1,0.6-0.1,1-0.2
		c0.9-0.1,1.6-0.2,2-0.4c0-0.2,0-0.3,0-0.3c0-0.5-0.1-0.8-0.3-1c-0.3-0.3-0.7-0.4-1.3-0.4c-0.5,0-0.9,0.1-1.2,0.3
		c-0.3,0.2-0.4,0.5-0.6,1l-1.1-0.2c0.1-0.5,0.3-0.9,0.5-1.2c0.2-0.3,0.6-0.5,1-0.7c0.4-0.2,1-0.2,1.5-0.2c0.6,0,1,0.1,1.4,0.2
		s0.6,0.3,0.8,0.5c0.2,0.2,0.3,0.5,0.4,0.8c0,0.2,0.1,0.5,0.1,1.1v1.5c0,1.1,0,1.7,0.1,2c0,0.3,0.1,0.6,0.3,0.8h-1.2
		C724,338.9,724,338.7,723.9,338.4z M723.8,335.8c-0.4,0.2-1,0.3-1.9,0.4c-0.5,0.1-0.8,0.1-1,0.2c-0.2,0.1-0.3,0.2-0.5,0.4
		s-0.2,0.3-0.2,0.5c0,0.3,0.1,0.6,0.3,0.8s0.6,0.3,1,0.3c0.4,0,0.8-0.1,1.2-0.3s0.6-0.5,0.8-0.8c0.1-0.3,0.2-0.6,0.2-1.1V335.8z"/>
	<path class="st9" d="M729.3,338.2l0.2,1c-0.3,0.1-0.6,0.1-0.9,0.1c-0.4,0-0.7-0.1-1-0.2c-0.2-0.1-0.4-0.3-0.5-0.5s-0.1-0.7-0.1-1.3
		v-3.9h-0.8v-0.9h0.8v-1.7l1.1-0.7v2.4h1.1v0.9h-1.1v3.9c0,0.3,0,0.5,0.1,0.6s0.1,0.2,0.2,0.2c0.1,0.1,0.2,0.1,0.4,0.1
		C728.9,338.2,729.1,338.2,729.3,338.2z"/>
	<path class="st9" d="M734.8,338.4c-0.4,0.4-0.8,0.6-1.2,0.8c-0.4,0.1-0.8,0.2-1.3,0.2c-0.7,0-1.3-0.2-1.7-0.5
		c-0.4-0.4-0.6-0.8-0.6-1.4c0-0.3,0.1-0.6,0.2-0.9c0.2-0.3,0.3-0.5,0.6-0.7c0.2-0.2,0.5-0.3,0.8-0.4c0.2-0.1,0.6-0.1,1-0.2
		c0.9-0.1,1.6-0.2,2-0.4c0-0.2,0-0.3,0-0.3c0-0.5-0.1-0.8-0.3-1c-0.3-0.3-0.7-0.4-1.3-0.4c-0.5,0-0.9,0.1-1.2,0.3
		c-0.3,0.2-0.4,0.5-0.6,1l-1.1-0.2c0.1-0.5,0.3-0.9,0.5-1.2c0.2-0.3,0.6-0.5,1-0.7c0.4-0.2,1-0.2,1.5-0.2c0.6,0,1,0.1,1.4,0.2
		s0.6,0.3,0.8,0.5c0.2,0.2,0.3,0.5,0.4,0.8c0,0.2,0.1,0.5,0.1,1.1v1.5c0,1.1,0,1.7,0.1,2c0,0.3,0.1,0.6,0.3,0.8H735
		C734.9,338.9,734.8,338.7,734.8,338.4z M734.7,335.8c-0.4,0.2-1,0.3-1.9,0.4c-0.5,0.1-0.8,0.1-1,0.2c-0.2,0.1-0.3,0.2-0.5,0.4
		s-0.2,0.3-0.2,0.5c0,0.3,0.1,0.6,0.3,0.8s0.6,0.3,1,0.3c0.4,0,0.8-0.1,1.2-0.3s0.6-0.5,0.8-0.8c0.1-0.3,0.2-0.6,0.2-1.1V335.8z"/>
</g>
<rect x="635" y="411.9" class="st7" width="10" height="8.1"/>
<g class="st8">
	<path class="st9" d="M657,420.5v-8.2h-3.1v-1.1h7.4v1.1h-3.1v8.2H657z"/>
	<path class="st9" d="M661.9,420.5v-6.7h1v1c0.3-0.5,0.5-0.8,0.7-0.9c0.2-0.2,0.5-0.2,0.7-0.2c0.4,0,0.8,0.1,1.2,0.4l-0.4,1.1
		c-0.3-0.2-0.6-0.2-0.8-0.2c-0.2,0-0.5,0.1-0.7,0.2s-0.3,0.4-0.4,0.6c-0.1,0.4-0.2,0.9-0.2,1.3v3.5H661.9z"/>
	<path class="st9" d="M670.7,419.7c-0.4,0.4-0.8,0.6-1.2,0.8c-0.4,0.1-0.8,0.2-1.3,0.2c-0.7,0-1.3-0.2-1.7-0.5
		c-0.4-0.4-0.6-0.8-0.6-1.4c0-0.3,0.1-0.6,0.2-0.9c0.2-0.3,0.3-0.5,0.6-0.7c0.2-0.2,0.5-0.3,0.8-0.4c0.2-0.1,0.6-0.1,1-0.2
		c0.9-0.1,1.6-0.2,2-0.4c0-0.2,0-0.3,0-0.3c0-0.5-0.1-0.8-0.3-1c-0.3-0.3-0.7-0.4-1.3-0.4c-0.5,0-0.9,0.1-1.2,0.3s-0.4,0.5-0.6,1
		l-1.1-0.2c0.1-0.5,0.3-0.9,0.5-1.2s0.6-0.5,1-0.7c0.4-0.2,0.9-0.2,1.5-0.2c0.6,0,1,0.1,1.4,0.2c0.4,0.1,0.6,0.3,0.8,0.5
		s0.3,0.5,0.4,0.8c0,0.2,0.1,0.5,0.1,1.1v1.5c0,1.1,0,1.7,0.1,2s0.1,0.6,0.3,0.8h-1.2C670.8,420.2,670.7,420,670.7,419.7z
		 M670.6,417.1c-0.4,0.2-1,0.3-1.9,0.4c-0.5,0.1-0.8,0.1-1,0.2c-0.2,0.1-0.3,0.2-0.5,0.4c-0.1,0.2-0.2,0.3-0.2,0.5
		c0,0.3,0.1,0.6,0.3,0.8c0.2,0.2,0.6,0.3,1,0.3c0.4,0,0.8-0.1,1.2-0.3c0.3-0.2,0.6-0.5,0.8-0.8c0.1-0.3,0.2-0.6,0.2-1.1V417.1z"/>
	<path class="st9" d="M673.5,420.5v-6.7h1v1c0.5-0.7,1.2-1.1,2.1-1.1c0.4,0,0.8,0.1,1.1,0.2c0.3,0.1,0.6,0.3,0.8,0.6
		c0.2,0.2,0.3,0.5,0.4,0.8c0,0.2,0.1,0.6,0.1,1.1v4.1h-1.1v-4.1c0-0.5,0-0.8-0.1-1s-0.2-0.4-0.5-0.6s-0.5-0.2-0.8-0.2
		c-0.5,0-0.9,0.2-1.3,0.5c-0.4,0.3-0.5,0.9-0.5,1.8v3.7H673.5z"/>
	<path class="st9" d="M680.3,418.5l1.1-0.2c0.1,0.5,0.2,0.8,0.5,1c0.3,0.2,0.7,0.4,1.2,0.4c0.5,0,0.9-0.1,1.2-0.3s0.4-0.5,0.4-0.8
		c0-0.3-0.1-0.5-0.3-0.6c-0.2-0.1-0.5-0.2-1.2-0.4c-0.8-0.2-1.4-0.4-1.7-0.5c-0.3-0.2-0.6-0.4-0.7-0.6c-0.2-0.3-0.2-0.6-0.2-0.9
		c0-0.3,0.1-0.6,0.2-0.8s0.3-0.5,0.6-0.6c0.2-0.1,0.4-0.2,0.7-0.3s0.6-0.1,1-0.1c0.5,0,1,0.1,1.4,0.2c0.4,0.2,0.7,0.4,0.9,0.6
		c0.2,0.3,0.3,0.6,0.4,1l-1.1,0.2c-0.1-0.3-0.2-0.6-0.4-0.8c-0.2-0.2-0.6-0.3-1-0.3c-0.5,0-0.9,0.1-1.1,0.3
		c-0.2,0.2-0.3,0.4-0.3,0.6c0,0.1,0,0.3,0.1,0.4c0.1,0.1,0.2,0.2,0.4,0.3c0.1,0,0.5,0.1,1,0.3c0.8,0.2,1.4,0.4,1.7,0.5
		c0.3,0.1,0.6,0.3,0.8,0.6s0.3,0.6,0.3,1c0,0.4-0.1,0.7-0.3,1.1c-0.2,0.3-0.5,0.6-1,0.8c-0.4,0.2-0.9,0.3-1.4,0.3
		c-0.9,0-1.5-0.2-2-0.5C680.7,419.7,680.4,419.2,680.3,418.5z"/>
	<path class="st9" d="M687.5,420.5v-5.9h-1v-0.9h1V413c0-0.5,0-0.8,0.1-1c0.1-0.3,0.3-0.5,0.6-0.7c0.3-0.2,0.7-0.3,1.2-0.3
		c0.3,0,0.7,0,1.1,0.1l-0.2,1c-0.2,0-0.5-0.1-0.7-0.1c-0.3,0-0.6,0.1-0.7,0.2c-0.1,0.1-0.2,0.4-0.2,0.8v0.6h1.3v0.9h-1.3v5.9H687.5z
		"/>
	<path class="st9" d="M695.5,418.3l1.2,0.1c-0.2,0.7-0.5,1.2-1,1.6s-1.1,0.6-1.9,0.6c-1,0-1.8-0.3-2.3-0.9s-0.9-1.5-0.9-2.6
		c0-1.1,0.3-2,0.9-2.6s1.3-0.9,2.3-0.9c0.9,0,1.6,0.3,2.2,0.9c0.6,0.6,0.9,1.5,0.9,2.6c0,0.1,0,0.2,0,0.3h-5c0,0.7,0.3,1.3,0.6,1.7
		c0.4,0.4,0.8,0.6,1.4,0.6c0.4,0,0.8-0.1,1.1-0.3S695.3,418.8,695.5,418.3z M691.7,416.5h3.8c-0.1-0.6-0.2-1-0.4-1.3
		c-0.4-0.4-0.8-0.7-1.4-0.7c-0.5,0-1,0.2-1.3,0.5C692,415.4,691.8,415.9,691.7,416.5z"/>
	<path class="st9" d="M698.1,420.5v-6.7h1v1c0.3-0.5,0.5-0.8,0.7-0.9c0.2-0.2,0.5-0.2,0.7-0.2c0.4,0,0.8,0.1,1.2,0.4l-0.4,1.1
		c-0.3-0.2-0.6-0.2-0.8-0.2c-0.2,0-0.5,0.1-0.7,0.2s-0.3,0.4-0.4,0.6c-0.1,0.4-0.2,0.9-0.2,1.3v3.5H698.1z"/>
	<path class="st9" d="M706.8,419.7c-0.4,0.4-0.8,0.6-1.2,0.8c-0.4,0.1-0.8,0.2-1.3,0.2c-0.7,0-1.3-0.2-1.7-0.5
		c-0.4-0.4-0.6-0.8-0.6-1.4c0-0.3,0.1-0.6,0.2-0.9c0.2-0.3,0.3-0.5,0.6-0.7c0.2-0.2,0.5-0.3,0.8-0.4c0.2-0.1,0.6-0.1,1-0.2
		c0.9-0.1,1.6-0.2,2-0.4c0-0.2,0-0.3,0-0.3c0-0.5-0.1-0.8-0.3-1c-0.3-0.3-0.7-0.4-1.3-0.4c-0.5,0-0.9,0.1-1.2,0.3s-0.4,0.5-0.6,1
		l-1.1-0.2c0.1-0.5,0.3-0.9,0.5-1.2s0.6-0.5,1-0.7c0.4-0.2,0.9-0.2,1.5-0.2c0.6,0,1,0.1,1.4,0.2c0.4,0.1,0.6,0.3,0.8,0.5
		s0.3,0.5,0.4,0.8c0,0.2,0.1,0.5,0.1,1.1v1.5c0,1.1,0,1.7,0.1,2s0.1,0.6,0.3,0.8H707C706.9,420.2,706.8,420,706.8,419.7z
		 M706.7,417.1c-0.4,0.2-1,0.3-1.9,0.4c-0.5,0.1-0.8,0.1-1,0.2c-0.2,0.1-0.3,0.2-0.5,0.4c-0.1,0.2-0.2,0.3-0.2,0.5
		c0,0.3,0.1,0.6,0.3,0.8c0.2,0.2,0.6,0.3,1,0.3c0.4,0,0.8-0.1,1.2-0.3c0.3-0.2,0.6-0.5,0.8-0.8c0.1-0.3,0.2-0.6,0.2-1.1V417.1z"/>
	<path class="st9" d="M710.7,420.5h-1.1v-9.3h1.1v3.3c0.5-0.6,1.1-0.9,1.8-0.9c0.4,0,0.8,0.1,1.2,0.3c0.4,0.2,0.7,0.4,0.9,0.7
		c0.2,0.3,0.4,0.7,0.6,1.1c0.1,0.4,0.2,0.9,0.2,1.4c0,1.2-0.3,2-0.9,2.7c-0.6,0.6-1.3,0.9-2.1,0.9c-0.8,0-1.4-0.3-1.9-1V420.5z
		 M710.7,417.1c0,0.8,0.1,1.4,0.3,1.8c0.4,0.6,0.8,0.9,1.5,0.9c0.5,0,0.9-0.2,1.3-0.7s0.5-1.1,0.5-1.9c0-0.9-0.2-1.5-0.5-1.9
		c-0.3-0.4-0.8-0.6-1.3-0.6c-0.5,0-0.9,0.2-1.3,0.7S710.7,416.2,710.7,417.1z"/>
	<path class="st9" d="M716.9,412.5v-1.3h1.1v1.3H716.9z M716.9,420.5v-6.7h1.1v6.7H716.9z"/>
	<path class="st9" d="M719.7,420.5v-9.3h1.1v9.3H719.7z"/>
	<path class="st9" d="M722.7,412.5v-1.3h1.1v1.3H722.7z M722.7,420.5v-6.7h1.1v6.7H722.7z"/>
	<path class="st9" d="M728,419.5l0.2,1c-0.3,0.1-0.6,0.1-0.9,0.1c-0.4,0-0.7-0.1-1-0.2c-0.2-0.1-0.4-0.3-0.5-0.5
		c-0.1-0.2-0.1-0.7-0.1-1.3v-3.9h-0.8v-0.9h0.8v-1.7l1.1-0.7v2.4h1.1v0.9h-1.1v3.9c0,0.3,0,0.5,0.1,0.6c0,0.1,0.1,0.2,0.2,0.2
		c0.1,0.1,0.2,0.1,0.4,0.1C727.7,419.5,727.8,419.5,728,419.5z"/>
	<path class="st9" d="M729.1,423.1L729,422c0.2,0.1,0.5,0.1,0.7,0.1c0.3,0,0.5,0,0.6-0.1s0.3-0.2,0.4-0.4c0.1-0.1,0.2-0.4,0.3-0.9
		c0-0.1,0.1-0.2,0.1-0.3l-2.6-6.8h1.2l1.4,3.9c0.2,0.5,0.3,1,0.5,1.6c0.1-0.5,0.3-1,0.5-1.5l1.4-3.9h1.1l-2.6,6.9
		c-0.3,0.7-0.5,1.3-0.6,1.5c-0.2,0.4-0.4,0.7-0.7,0.8c-0.3,0.2-0.6,0.3-0.9,0.3C729.6,423.2,729.4,423.2,729.1,423.1z"/>
</g>
<rect x="370" y="297.4" class="st7" width="10" height="34.4"/>
<g class="st8">
	<path class="st9" d="M272.3,289.6l1.1-0.2c0.1,0.6,0.4,1.1,0.7,1.4c0.3,0.3,0.7,0.4,1.2,0.4c0.5,0,1-0.2,1.4-0.6
		c0.4-0.4,0.6-0.8,0.6-1.4c0-0.5-0.2-1-0.5-1.3s-0.8-0.5-1.3-0.5c-0.2,0-0.5,0-0.8,0.1l0.1-1c0.1,0,0.1,0,0.2,0
		c0.5,0,0.9-0.1,1.3-0.4s0.6-0.6,0.6-1.2c0-0.4-0.1-0.8-0.4-1c-0.3-0.3-0.6-0.4-1.1-0.4c-0.4,0-0.8,0.1-1.1,0.4s-0.5,0.7-0.6,1.3
		l-1.1-0.2c0.1-0.8,0.5-1.4,1-1.8s1.1-0.6,1.8-0.6c0.5,0,1,0.1,1.4,0.3s0.8,0.5,1,0.9c0.2,0.4,0.3,0.8,0.3,1.2
		c0,0.4-0.1,0.8-0.3,1.1s-0.5,0.6-1,0.8c0.6,0.1,1,0.4,1.3,0.8c0.3,0.4,0.5,0.9,0.5,1.5c0,0.8-0.3,1.5-0.9,2.1
		c-0.6,0.6-1.3,0.8-2.2,0.8c-0.8,0-1.5-0.2-2-0.7C272.7,291,272.4,290.4,272.3,289.6z"/>
	<path class="st9" d="M280.1,292.1v-1.3h1.3v1.3H280.1z"/>
	<path class="st9" d="M287.2,292.1v-9.3h1.3l4.9,7.3v-7.3h1.2v9.3h-1.3l-4.9-7.3v7.3H287.2z"/>
	<path class="st9" d="M301,289.9l1.2,0.1c-0.2,0.7-0.5,1.2-1,1.6s-1.1,0.6-1.9,0.6c-1,0-1.8-0.3-2.3-0.9c-0.6-0.6-0.9-1.5-0.9-2.6
		c0-1.1,0.3-2,0.9-2.6s1.3-0.9,2.3-0.9c0.9,0,1.6,0.3,2.2,0.9c0.6,0.6,0.9,1.5,0.9,2.6c0,0.1,0,0.2,0,0.3h-5c0,0.7,0.3,1.3,0.6,1.7
		c0.4,0.4,0.8,0.6,1.4,0.6c0.4,0,0.8-0.1,1.1-0.3S300.9,290.4,301,289.9z M297.3,288h3.8c-0.1-0.6-0.2-1-0.4-1.3
		c-0.4-0.4-0.8-0.7-1.4-0.7c-0.5,0-1,0.2-1.3,0.5C297.5,287,297.3,287.5,297.3,288z"/>
	<path class="st9" d="M308.1,292.1v-1c-0.5,0.8-1.2,1.1-2.1,1.1c-0.4,0-0.8-0.1-1.1-0.2c-0.3-0.2-0.6-0.3-0.8-0.6
		c-0.2-0.2-0.3-0.5-0.4-0.8c0-0.2-0.1-0.6-0.1-1.1v-4.2h1.1v3.7c0,0.6,0,1,0.1,1.2c0.1,0.3,0.2,0.5,0.5,0.7c0.2,0.2,0.5,0.3,0.9,0.3
		s0.7-0.1,1-0.3s0.5-0.4,0.6-0.7c0.1-0.3,0.2-0.7,0.2-1.3v-3.6h1.1v6.7H308.1z"/>
	<path class="st9" d="M310.9,292.1v-6.7h1v1c0.3-0.5,0.5-0.8,0.7-0.9c0.2-0.2,0.5-0.2,0.7-0.2c0.4,0,0.8,0.1,1.2,0.4l-0.4,1.1
		c-0.3-0.2-0.6-0.2-0.8-0.2c-0.2,0-0.5,0.1-0.7,0.2s-0.3,0.4-0.4,0.6c-0.1,0.4-0.2,0.9-0.2,1.3v3.5H310.9z"/>
	<path class="st9" d="M314.8,288.7c0-1.2,0.3-2.2,1-2.8c0.6-0.5,1.3-0.7,2.1-0.7c0.9,0,1.7,0.3,2.3,0.9s0.9,1.4,0.9,2.5
		c0,0.9-0.1,1.5-0.4,2c-0.3,0.5-0.6,0.9-1.1,1.2c-0.5,0.3-1,0.4-1.6,0.4c-0.9,0-1.7-0.3-2.3-0.9
		C315.1,290.7,314.8,289.8,314.8,288.7z M316,288.7c0,0.9,0.2,1.5,0.6,1.9s0.9,0.6,1.4,0.6c0.6,0,1-0.2,1.4-0.6s0.6-1.1,0.6-2
		c0-0.8-0.2-1.5-0.6-1.9c-0.4-0.4-0.8-0.6-1.4-0.6c-0.6,0-1,0.2-1.4,0.6S316,287.8,316,288.7z"/>
	<path class="st9" d="M322.7,292.1v-1.3h1.3v1.3c0,0.5-0.1,0.9-0.3,1.2s-0.4,0.5-0.8,0.7l-0.3-0.5c0.2-0.1,0.4-0.3,0.5-0.5
		s0.2-0.5,0.2-0.9H322.7z M322.7,286.6v-1.3h1.3v1.3H322.7z"/>
	<path class="st9" d="M329.4,289.1l1.2-0.1c0.1,0.5,0.2,0.8,0.4,1.1c0.2,0.3,0.5,0.5,0.9,0.7c0.4,0.2,0.9,0.3,1.4,0.3
		c0.5,0,0.9-0.1,1.2-0.2s0.6-0.3,0.8-0.6c0.2-0.2,0.3-0.5,0.3-0.8c0-0.3-0.1-0.5-0.3-0.8s-0.4-0.4-0.8-0.5c-0.2-0.1-0.8-0.2-1.7-0.5
		s-1.5-0.4-1.8-0.6c-0.4-0.2-0.8-0.5-1-0.9c-0.2-0.3-0.3-0.7-0.3-1.2c0-0.5,0.1-0.9,0.4-1.3s0.7-0.7,1.2-0.9
		c0.5-0.2,1.1-0.3,1.7-0.3c0.7,0,1.3,0.1,1.8,0.3c0.5,0.2,0.9,0.5,1.2,1s0.4,0.9,0.5,1.5l-1.2,0.1c-0.1-0.6-0.3-1-0.6-1.3
		c-0.4-0.3-0.9-0.5-1.6-0.5c-0.7,0-1.3,0.1-1.6,0.4c-0.3,0.3-0.5,0.6-0.5,1c0,0.3,0.1,0.6,0.4,0.8c0.2,0.2,0.9,0.4,1.9,0.7
		c1,0.2,1.7,0.4,2.1,0.6c0.5,0.2,0.9,0.6,1.2,0.9s0.4,0.8,0.4,1.3c0,0.5-0.1,1-0.4,1.4c-0.3,0.4-0.7,0.8-1.2,1
		c-0.5,0.2-1.1,0.4-1.8,0.4c-0.8,0-1.5-0.1-2.1-0.4c-0.6-0.2-1-0.6-1.3-1.1C329.6,290.3,329.4,289.7,329.4,289.1z"/>
	<path class="st9" d="M338.3,294.7l-0.1-1.1c0.2,0.1,0.5,0.1,0.7,0.1c0.3,0,0.5,0,0.6-0.1s0.3-0.2,0.4-0.4c0.1-0.1,0.2-0.4,0.3-0.9
		c0-0.1,0.1-0.2,0.1-0.3l-2.6-6.8h1.2l1.4,3.9c0.2,0.5,0.3,1,0.5,1.6c0.1-0.5,0.3-1,0.5-1.5l1.4-3.9h1.1l-2.6,6.9
		c-0.3,0.7-0.5,1.3-0.6,1.5c-0.2,0.4-0.4,0.7-0.7,0.8s-0.6,0.3-0.9,0.3C338.8,294.8,338.6,294.8,338.3,294.7z"/>
	<path class="st9" d="M344.8,292.1v-6.7h1v0.9c0.2-0.3,0.5-0.6,0.8-0.8s0.8-0.3,1.2-0.3c0.5,0,0.9,0.1,1.2,0.3
		c0.3,0.2,0.5,0.5,0.7,0.9c0.5-0.8,1.2-1.2,2.1-1.2c0.7,0,1.2,0.2,1.5,0.6s0.5,0.9,0.5,1.7v4.6h-1.1v-4.2c0-0.5,0-0.8-0.1-1
		c-0.1-0.2-0.2-0.4-0.4-0.5c-0.2-0.1-0.4-0.2-0.7-0.2c-0.5,0-0.9,0.2-1.2,0.5s-0.5,0.8-0.5,1.5v3.9h-1.1v-4.4c0-0.5-0.1-0.9-0.3-1.1
		s-0.5-0.4-0.9-0.4c-0.3,0-0.6,0.1-0.9,0.3c-0.3,0.2-0.5,0.4-0.6,0.7c-0.1,0.3-0.2,0.8-0.2,1.4v3.5H344.8z"/>
	<path class="st9" d="M356.7,292.1h-1.1v-9.3h1.1v3.3c0.5-0.6,1.1-0.9,1.8-0.9c0.4,0,0.8,0.1,1.2,0.3c0.4,0.2,0.7,0.4,0.9,0.7
		c0.2,0.3,0.4,0.7,0.6,1.1c0.1,0.4,0.2,0.9,0.2,1.4c0,1.2-0.3,2-0.9,2.7c-0.6,0.6-1.3,0.9-2.1,0.9c-0.8,0-1.4-0.3-1.9-1V292.1z
		 M356.7,288.6c0,0.8,0.1,1.4,0.3,1.8c0.4,0.6,0.8,0.9,1.5,0.9c0.5,0,0.9-0.2,1.3-0.7s0.5-1.1,0.5-1.9c0-0.9-0.2-1.5-0.5-1.9
		c-0.3-0.4-0.8-0.6-1.3-0.6c-0.5,0-0.9,0.2-1.3,0.7S356.7,287.8,356.7,288.6z"/>
	<path class="st9" d="M362.5,288.7c0-1.2,0.3-2.2,1-2.8c0.6-0.5,1.3-0.7,2.1-0.7c0.9,0,1.7,0.3,2.3,0.9s0.9,1.4,0.9,2.5
		c0,0.9-0.1,1.5-0.4,2c-0.3,0.5-0.6,0.9-1.1,1.2c-0.5,0.3-1,0.4-1.6,0.4c-0.9,0-1.7-0.3-2.3-0.9
		C362.8,290.7,362.5,289.8,362.5,288.7z M363.6,288.7c0,0.9,0.2,1.5,0.6,1.9s0.9,0.6,1.4,0.6c0.6,0,1-0.2,1.4-0.6s0.6-1.1,0.6-2
		c0-0.8-0.2-1.5-0.6-1.9c-0.4-0.4-0.8-0.6-1.4-0.6c-0.6,0-1,0.2-1.4,0.6S363.6,287.8,363.6,288.7z"/>
	<path class="st9" d="M370.1,292.1v-9.3h1.1v9.3H370.1z"/>
	<path class="st9" d="M373,284.1v-1.3h1.1v1.3H373z M373,292.1v-6.7h1.1v6.7H373z"/>
	<path class="st9" d="M380.3,289.6l1.1,0.1c-0.1,0.8-0.4,1.4-0.9,1.8c-0.5,0.4-1.1,0.7-1.9,0.7c-0.9,0-1.7-0.3-2.2-0.9
		c-0.6-0.6-0.8-1.5-0.8-2.6c0-0.7,0.1-1.4,0.4-1.9c0.2-0.5,0.6-1,1.1-1.2c0.5-0.3,1-0.4,1.6-0.4c0.7,0,1.3,0.2,1.8,0.6
		c0.5,0.4,0.8,0.9,0.9,1.6l-1.1,0.2c-0.1-0.5-0.3-0.8-0.6-1s-0.6-0.3-1-0.3c-0.6,0-1,0.2-1.4,0.6c-0.4,0.4-0.5,1.1-0.5,2
		c0,0.9,0.2,1.6,0.5,2c0.3,0.4,0.8,0.6,1.4,0.6c0.4,0,0.8-0.1,1.1-0.4C380,290.6,380.2,290.2,380.3,289.6z"/>
</g>
<g class="st8">
	<path class="st9" d="M220.3,349.7v-2.2h-4v-1l4.2-6h0.9v6h1.3v1h-1.3v2.2H220.3z M220.3,346.5v-4.2l-2.9,4.2H220.3z"/>
	<path class="st9" d="M224.5,349.7v-1.3h1.3v1.3H224.5z"/>
	<path class="st9" d="M231.5,349.7v-9.3h1.3l4.9,7.3v-7.3h1.2v9.3h-1.3l-4.9-7.3v7.3H231.5z"/>
	<path class="st9" d="M245.4,347.6l1.2,0.1c-0.2,0.7-0.5,1.2-1,1.6s-1.1,0.6-1.9,0.6c-1,0-1.8-0.3-2.3-0.9c-0.6-0.6-0.9-1.5-0.9-2.6
		c0-1.1,0.3-2,0.9-2.6s1.3-0.9,2.3-0.9c0.9,0,1.6,0.3,2.2,0.9c0.6,0.6,0.9,1.5,0.9,2.6c0,0.1,0,0.2,0,0.3h-5c0,0.7,0.3,1.3,0.6,1.7
		c0.4,0.4,0.8,0.6,1.4,0.6c0.4,0,0.8-0.1,1.1-0.3S245.2,348.1,245.4,347.6z M241.7,345.7h3.8c-0.1-0.6-0.2-1-0.4-1.3
		c-0.4-0.4-0.8-0.7-1.4-0.7c-0.5,0-1,0.2-1.3,0.5C241.9,344.7,241.7,345.1,241.7,345.7z"/>
	<path class="st9" d="M252.4,349.7v-1c-0.5,0.8-1.2,1.1-2.1,1.1c-0.4,0-0.8-0.1-1.1-0.2c-0.3-0.2-0.6-0.3-0.8-0.6
		c-0.2-0.2-0.3-0.5-0.4-0.8c0-0.2-0.1-0.6-0.1-1.1V343h1.1v3.7c0,0.6,0,1,0.1,1.2c0.1,0.3,0.2,0.5,0.5,0.7c0.2,0.2,0.5,0.3,0.9,0.3
		s0.7-0.1,1-0.3s0.5-0.4,0.6-0.7c0.1-0.3,0.2-0.7,0.2-1.3V343h1.1v6.7H252.4z"/>
	<path class="st9" d="M255.2,349.7V343h1v1c0.3-0.5,0.5-0.8,0.7-0.9c0.2-0.2,0.5-0.2,0.7-0.2c0.4,0,0.8,0.1,1.2,0.4l-0.4,1.1
		c-0.3-0.2-0.6-0.2-0.8-0.2c-0.2,0-0.5,0.1-0.7,0.2s-0.3,0.4-0.4,0.6c-0.1,0.4-0.2,0.9-0.2,1.3v3.5H255.2z"/>
	<path class="st9" d="M259.2,346.4c0-1.2,0.3-2.2,1-2.8c0.6-0.5,1.3-0.7,2.1-0.7c0.9,0,1.7,0.3,2.3,0.9s0.9,1.4,0.9,2.5
		c0,0.9-0.1,1.5-0.4,2c-0.3,0.5-0.6,0.9-1.1,1.2c-0.5,0.3-1,0.4-1.6,0.4c-0.9,0-1.7-0.3-2.3-0.9
		C259.5,348.4,259.2,347.5,259.2,346.4z M260.3,346.4c0,0.9,0.2,1.5,0.6,1.9s0.9,0.6,1.4,0.6c0.6,0,1-0.2,1.4-0.6s0.6-1.1,0.6-2
		c0-0.8-0.2-1.5-0.6-1.9c-0.4-0.4-0.8-0.6-1.4-0.6c-0.6,0-1,0.2-1.4,0.6S260.3,345.5,260.3,346.4z"/>
	<path class="st9" d="M267.1,344.3V343h1.3v1.3H267.1z M267.1,349.7v-1.3h1.3v1.3H267.1z"/>
	<path class="st9" d="M273.8,346.8l1.2-0.1c0.1,0.5,0.2,0.8,0.4,1.1c0.2,0.3,0.5,0.5,0.9,0.7c0.4,0.2,0.9,0.3,1.4,0.3
		c0.5,0,0.9-0.1,1.2-0.2s0.6-0.3,0.8-0.6c0.2-0.2,0.3-0.5,0.3-0.8c0-0.3-0.1-0.5-0.3-0.8s-0.4-0.4-0.8-0.5c-0.2-0.1-0.8-0.2-1.7-0.5
		s-1.5-0.4-1.8-0.6c-0.4-0.2-0.8-0.5-1-0.9c-0.2-0.3-0.3-0.7-0.3-1.2c0-0.5,0.1-0.9,0.4-1.3s0.7-0.7,1.2-0.9
		c0.5-0.2,1.1-0.3,1.7-0.3c0.7,0,1.3,0.1,1.8,0.3c0.5,0.2,0.9,0.5,1.2,1s0.4,0.9,0.5,1.5l-1.2,0.1c-0.1-0.6-0.3-1-0.6-1.3
		c-0.4-0.3-0.9-0.5-1.6-0.5c-0.7,0-1.3,0.1-1.6,0.4c-0.3,0.3-0.5,0.6-0.5,1c0,0.3,0.1,0.6,0.4,0.8c0.2,0.2,0.9,0.4,1.9,0.7
		c1,0.2,1.7,0.4,2.1,0.6c0.5,0.2,0.9,0.6,1.2,0.9s0.4,0.8,0.4,1.3c0,0.5-0.1,1-0.4,1.4c-0.3,0.4-0.7,0.8-1.2,1
		c-0.5,0.2-1.1,0.4-1.8,0.4c-0.8,0-1.5-0.1-2.1-0.4c-0.6-0.2-1-0.6-1.3-1.1C274,347.9,273.8,347.4,273.8,346.8z"/>
	<path class="st9" d="M282.7,352.3l-0.1-1.1c0.2,0.1,0.5,0.1,0.7,0.1c0.3,0,0.5,0,0.6-0.1s0.3-0.2,0.4-0.4c0.1-0.1,0.2-0.4,0.3-0.9
		c0-0.1,0.1-0.2,0.1-0.3l-2.6-6.8h1.2l1.4,3.9c0.2,0.5,0.3,1,0.5,1.6c0.1-0.5,0.3-1,0.5-1.5l1.4-3.9h1.1l-2.6,6.9
		c-0.3,0.7-0.5,1.3-0.6,1.5c-0.2,0.4-0.4,0.7-0.7,0.8s-0.6,0.3-0.9,0.3C283.2,352.5,282.9,352.4,282.7,352.3z"/>
	<path class="st9" d="M289.2,349.7V343h1v0.9c0.2-0.3,0.5-0.6,0.8-0.8s0.8-0.3,1.2-0.3c0.5,0,0.9,0.1,1.2,0.3
		c0.3,0.2,0.5,0.5,0.7,0.9c0.5-0.8,1.2-1.2,2.1-1.2c0.7,0,1.2,0.2,1.5,0.6s0.5,0.9,0.5,1.7v4.6h-1.1v-4.2c0-0.5,0-0.8-0.1-1
		c-0.1-0.2-0.2-0.4-0.4-0.5c-0.2-0.1-0.4-0.2-0.7-0.2c-0.5,0-0.9,0.2-1.2,0.5s-0.5,0.8-0.5,1.5v3.9h-1.1v-4.4c0-0.5-0.1-0.9-0.3-1.1
		s-0.5-0.4-0.9-0.4c-0.3,0-0.6,0.1-0.9,0.3c-0.3,0.2-0.5,0.4-0.6,0.7c-0.1,0.3-0.2,0.8-0.2,1.4v3.5H289.2z"/>
	<path class="st9" d="M301.1,349.7H300v-9.3h1.1v3.3c0.5-0.6,1.1-0.9,1.8-0.9c0.4,0,0.8,0.1,1.2,0.3c0.4,0.2,0.7,0.4,0.9,0.7
		c0.2,0.3,0.4,0.7,0.6,1.1c0.1,0.4,0.2,0.9,0.2,1.4c0,1.2-0.3,2-0.9,2.7c-0.6,0.6-1.3,0.9-2.1,0.9c-0.8,0-1.4-0.3-1.9-1V349.7z
		 M301.1,346.3c0,0.8,0.1,1.4,0.3,1.8c0.4,0.6,0.8,0.9,1.5,0.9c0.5,0,0.9-0.2,1.3-0.7s0.5-1.1,0.5-1.9c0-0.9-0.2-1.5-0.5-1.9
		c-0.3-0.4-0.8-0.6-1.3-0.6c-0.5,0-0.9,0.2-1.3,0.7S301.1,345.5,301.1,346.3z"/>
	<path class="st9" d="M306.8,346.4c0-1.2,0.3-2.2,1-2.8c0.6-0.5,1.3-0.7,2.1-0.7c0.9,0,1.7,0.3,2.3,0.9s0.9,1.4,0.9,2.5
		c0,0.9-0.1,1.5-0.4,2c-0.3,0.5-0.6,0.9-1.1,1.2c-0.5,0.3-1,0.4-1.6,0.4c-0.9,0-1.7-0.3-2.3-0.9
		C307.1,348.4,306.8,347.5,306.8,346.4z M308,346.4c0,0.9,0.2,1.5,0.6,1.9s0.9,0.6,1.4,0.6c0.6,0,1-0.2,1.4-0.6s0.6-1.1,0.6-2
		c0-0.8-0.2-1.5-0.6-1.9c-0.4-0.4-0.8-0.6-1.4-0.6c-0.6,0-1,0.2-1.4,0.6S308,345.5,308,346.4z"/>
	<path class="st9" d="M314.5,349.7v-9.3h1.1v9.3H314.5z"/>
	<path class="st9" d="M317.4,341.7v-1.3h1.1v1.3H317.4z M317.4,349.7V343h1.1v6.7H317.4z"/>
	<path class="st9" d="M324.7,347.3l1.1,0.1c-0.1,0.8-0.4,1.4-0.9,1.8c-0.5,0.4-1.1,0.7-1.9,0.7c-0.9,0-1.7-0.3-2.2-0.9
		c-0.6-0.6-0.8-1.5-0.8-2.6c0-0.7,0.1-1.4,0.4-1.9s0.6-1,1.1-1.2c0.5-0.3,1-0.4,1.6-0.4c0.7,0,1.3,0.2,1.8,0.6s0.8,0.9,0.9,1.6
		l-1.1,0.2c-0.1-0.5-0.3-0.8-0.6-1c-0.3-0.2-0.6-0.3-1-0.3c-0.6,0-1,0.2-1.4,0.6c-0.4,0.4-0.5,1.1-0.5,2c0,0.9,0.2,1.6,0.5,2
		c0.3,0.4,0.8,0.6,1.4,0.6c0.4,0,0.8-0.1,1.1-0.4C324.4,348.3,324.6,347.8,324.7,347.3z"/>
	<path class="st9" d="M339.4,344.2c0.6,0.6,1,1.1,1.5,1.4s0.8,0.6,1.2,0.7v0.3c-0.4,0.2-0.8,0.5-1.2,0.8s-0.9,0.8-1.4,1.4h-0.5
		c0.4-0.9,0.8-1.5,1.3-2H330v-0.6h10.1c-0.3-0.4-0.5-0.7-0.7-0.9c-0.1-0.2-0.3-0.5-0.6-1H339.4z"/>
	<path class="st9" d="M347.1,349.7v-9.3h1.3l4.9,7.3v-7.3h1.2v9.3h-1.3l-4.9-7.3v7.3H347.1z"/>
	<path class="st9" d="M361,347.6l1.2,0.1c-0.2,0.7-0.5,1.2-1,1.6s-1.1,0.6-1.9,0.6c-1,0-1.8-0.3-2.3-0.9c-0.6-0.6-0.9-1.5-0.9-2.6
		c0-1.1,0.3-2,0.9-2.6s1.3-0.9,2.3-0.9c0.9,0,1.6,0.3,2.2,0.9c0.6,0.6,0.9,1.5,0.9,2.6c0,0.1,0,0.2,0,0.3h-5c0,0.7,0.3,1.3,0.6,1.7
		c0.4,0.4,0.8,0.6,1.4,0.6c0.4,0,0.8-0.1,1.1-0.3S360.8,348.1,361,347.6z M357.2,345.7h3.8c-0.1-0.6-0.2-1-0.4-1.3
		c-0.4-0.4-0.8-0.7-1.4-0.7c-0.5,0-1,0.2-1.3,0.5C357.5,344.7,357.3,345.1,357.2,345.7z"/>
	<path class="st9" d="M368,349.7v-1c-0.5,0.8-1.2,1.1-2.1,1.1c-0.4,0-0.8-0.1-1.1-0.2c-0.3-0.2-0.6-0.3-0.8-0.6
		c-0.2-0.2-0.3-0.5-0.4-0.8c0-0.2-0.1-0.6-0.1-1.1V343h1.1v3.7c0,0.6,0,1,0.1,1.2c0.1,0.3,0.2,0.5,0.5,0.7c0.2,0.2,0.5,0.3,0.9,0.3
		s0.7-0.1,1-0.3s0.5-0.4,0.6-0.7c0.1-0.3,0.2-0.7,0.2-1.3V343h1.1v6.7H368z"/>
	<path class="st9" d="M370.8,349.7V343h1v1c0.3-0.5,0.5-0.8,0.7-0.9c0.2-0.2,0.5-0.2,0.7-0.2c0.4,0,0.8,0.1,1.2,0.4l-0.4,1.1
		c-0.3-0.2-0.6-0.2-0.8-0.2c-0.2,0-0.5,0.1-0.7,0.2s-0.3,0.4-0.4,0.6c-0.1,0.4-0.2,0.9-0.2,1.3v3.5H370.8z"/>
	<path class="st9" d="M374.8,346.4c0-1.2,0.3-2.2,1-2.8c0.6-0.5,1.3-0.7,2.1-0.7c0.9,0,1.7,0.3,2.3,0.9c0.6,0.6,0.9,1.4,0.9,2.5
		c0,0.9-0.1,1.5-0.4,2s-0.6,0.9-1.1,1.2c-0.5,0.3-1,0.4-1.6,0.4c-0.9,0-1.7-0.3-2.3-0.9C375,348.4,374.8,347.5,374.8,346.4z
		 M375.9,346.4c0,0.9,0.2,1.5,0.6,1.9c0.4,0.4,0.8,0.6,1.4,0.6c0.6,0,1-0.2,1.4-0.6s0.6-1.1,0.6-2c0-0.8-0.2-1.5-0.6-1.9
		s-0.8-0.6-1.4-0.6c-0.6,0-1,0.2-1.4,0.6C376.1,344.9,375.9,345.5,375.9,346.4z"/>
</g>
<rect x="370" y="251.8" class="st7" width="10" height="17.2"/>
<g class="st8">
	<path class="st9" d="M278.3,245.2v1.1h-6.2c0-0.3,0-0.5,0.1-0.8c0.2-0.4,0.4-0.8,0.8-1.2c0.3-0.4,0.8-0.9,1.5-1.4
		c1-0.8,1.7-1.5,2.1-2s0.5-0.9,0.5-1.4c0-0.5-0.2-0.8-0.5-1.1c-0.3-0.3-0.7-0.5-1.3-0.5c-0.6,0-1,0.2-1.3,0.5s-0.5,0.8-0.5,1.4
		l-1.2-0.1c0.1-0.9,0.4-1.5,0.9-2s1.2-0.7,2.1-0.7c0.9,0,1.6,0.2,2.1,0.7c0.5,0.5,0.8,1.1,0.8,1.8c0,0.4-0.1,0.7-0.2,1.1
		s-0.4,0.7-0.8,1.1c-0.4,0.4-0.9,0.9-1.8,1.6c-0.7,0.6-1.1,1-1.3,1.2s-0.4,0.4-0.5,0.6H278.3z"/>
	<path class="st9" d="M280.1,246.3V245h1.3v1.3H280.1z"/>
	<path class="st9" d="M286.8,243.3l1.2-0.1c0.1,0.5,0.2,0.8,0.4,1.1c0.2,0.3,0.5,0.5,0.9,0.7c0.4,0.2,0.9,0.3,1.4,0.3
		c0.5,0,0.9-0.1,1.2-0.2s0.6-0.3,0.8-0.6c0.2-0.2,0.3-0.5,0.3-0.8c0-0.3-0.1-0.5-0.3-0.8s-0.4-0.4-0.8-0.5c-0.2-0.1-0.8-0.2-1.7-0.5
		s-1.5-0.4-1.8-0.6c-0.4-0.2-0.8-0.5-1-0.9c-0.2-0.3-0.3-0.7-0.3-1.2c0-0.5,0.1-0.9,0.4-1.3s0.7-0.7,1.2-0.9
		c0.5-0.2,1.1-0.3,1.7-0.3c0.7,0,1.3,0.1,1.8,0.3c0.5,0.2,0.9,0.5,1.2,1s0.4,0.9,0.5,1.5l-1.2,0.1c-0.1-0.6-0.3-1-0.6-1.3
		c-0.4-0.3-0.9-0.5-1.6-0.5c-0.7,0-1.3,0.1-1.6,0.4c-0.3,0.3-0.5,0.6-0.5,1c0,0.3,0.1,0.6,0.4,0.8c0.2,0.2,0.9,0.4,1.9,0.7
		c1,0.2,1.7,0.4,2.1,0.6c0.5,0.2,0.9,0.6,1.2,0.9s0.4,0.8,0.4,1.3c0,0.5-0.1,1-0.4,1.4c-0.3,0.4-0.7,0.8-1.2,1
		c-0.5,0.2-1.1,0.4-1.8,0.4c-0.8,0-1.5-0.1-2.1-0.4c-0.6-0.2-1-0.6-1.3-1.1C287,244.5,286.8,243.9,286.8,243.3z"/>
	<path class="st9" d="M295.7,248.9l-0.1-1.1c0.2,0.1,0.5,0.1,0.7,0.1c0.3,0,0.5,0,0.6-0.1s0.3-0.2,0.4-0.4c0.1-0.1,0.2-0.4,0.3-0.9
		c0-0.1,0.1-0.2,0.1-0.3l-2.6-6.8h1.2l1.4,3.9c0.2,0.5,0.3,1,0.5,1.6c0.1-0.5,0.3-1,0.5-1.5l1.4-3.9h1.1l-2.6,6.9
		c-0.3,0.7-0.5,1.3-0.6,1.5c-0.2,0.4-0.4,0.7-0.7,0.8s-0.6,0.3-0.9,0.3C296.2,249,295.9,249,295.7,248.9z"/>
	<path class="st9" d="M302.2,246.3v-6.7h1v0.9c0.2-0.3,0.5-0.6,0.8-0.8s0.8-0.3,1.2-0.3c0.5,0,0.9,0.1,1.2,0.3
		c0.3,0.2,0.5,0.5,0.7,0.9c0.5-0.8,1.2-1.2,2.1-1.2c0.7,0,1.2,0.2,1.5,0.6s0.5,0.9,0.5,1.7v4.6h-1.1v-4.2c0-0.5,0-0.8-0.1-1
		c-0.1-0.2-0.2-0.4-0.4-0.5c-0.2-0.1-0.4-0.2-0.7-0.2c-0.5,0-0.9,0.2-1.2,0.5s-0.5,0.8-0.5,1.5v3.9h-1.1v-4.4c0-0.5-0.1-0.9-0.3-1.1
		s-0.5-0.4-0.9-0.4c-0.3,0-0.6,0.1-0.9,0.3c-0.3,0.2-0.5,0.4-0.6,0.7c-0.1,0.3-0.2,0.8-0.2,1.4v3.5H302.2z"/>
	<path class="st9" d="M314.1,246.3H313V237h1.1v3.3c0.5-0.6,1.1-0.9,1.8-0.9c0.4,0,0.8,0.1,1.2,0.3c0.4,0.2,0.7,0.4,0.9,0.7
		c0.2,0.3,0.4,0.7,0.6,1.1c0.1,0.4,0.2,0.9,0.2,1.4c0,1.2-0.3,2-0.9,2.7c-0.6,0.6-1.3,0.9-2.1,0.9c-0.8,0-1.4-0.3-1.9-1V246.3z
		 M314.1,242.9c0,0.8,0.1,1.4,0.3,1.8c0.4,0.6,0.8,0.9,1.5,0.9c0.5,0,0.9-0.2,1.3-0.7s0.5-1.1,0.5-1.9c0-0.9-0.2-1.5-0.5-1.9
		c-0.3-0.4-0.8-0.6-1.3-0.6c-0.5,0-0.9,0.2-1.3,0.7S314.1,242.1,314.1,242.9z"/>
	<path class="st9" d="M319.8,242.9c0-1.2,0.3-2.2,1-2.8c0.6-0.5,1.3-0.7,2.1-0.7c0.9,0,1.7,0.3,2.3,0.9s0.9,1.4,0.9,2.5
		c0,0.9-0.1,1.5-0.4,2c-0.3,0.5-0.6,0.9-1.1,1.2c-0.5,0.3-1,0.4-1.6,0.4c-0.9,0-1.7-0.3-2.3-0.9C320.1,245,319.8,244.1,319.8,242.9z
		 M321,242.9c0,0.9,0.2,1.5,0.6,1.9s0.9,0.6,1.4,0.6c0.6,0,1-0.2,1.4-0.6s0.6-1.1,0.6-2c0-0.8-0.2-1.5-0.6-1.9
		c-0.4-0.4-0.8-0.6-1.4-0.6c-0.6,0-1,0.2-1.4,0.6S321,242.1,321,242.9z"/>
	<path class="st9" d="M327.5,246.3V237h1.1v9.3H327.5z"/>
	<path class="st9" d="M330.4,238.3V237h1.1v1.3H330.4z M330.4,246.3v-6.7h1.1v6.7H330.4z"/>
	<path class="st9" d="M337.7,243.8l1.1,0.1c-0.1,0.8-0.4,1.4-0.9,1.8c-0.5,0.4-1.1,0.7-1.9,0.7c-0.9,0-1.7-0.3-2.2-0.9
		c-0.6-0.6-0.8-1.5-0.8-2.6c0-0.7,0.1-1.4,0.4-1.9s0.6-1,1.1-1.2c0.5-0.3,1-0.4,1.6-0.4c0.7,0,1.3,0.2,1.8,0.6s0.8,0.9,0.9,1.6
		l-1.1,0.2c-0.1-0.5-0.3-0.8-0.6-1c-0.3-0.2-0.6-0.3-1-0.3c-0.6,0-1,0.2-1.4,0.6c-0.4,0.4-0.5,1.1-0.5,2c0,0.9,0.2,1.6,0.5,2
		c0.3,0.4,0.8,0.6,1.4,0.6c0.4,0,0.8-0.1,1.1-0.4C337.4,244.8,337.6,244.4,337.7,243.8z"/>
	<path class="st9" d="M339.8,248.9V237h2.5v0.9h-1.4v10h1.4v0.9H339.8z"/>
	<path class="st9" d="M343.5,246.3V237h1.3l4.9,7.3V237h1.2v9.3h-1.3l-4.9-7.3v7.3H343.5z"/>
	<path class="st9" d="M357.4,244.1l1.2,0.1c-0.2,0.7-0.5,1.2-1,1.6s-1.1,0.6-1.9,0.6c-1,0-1.8-0.3-2.3-0.9c-0.6-0.6-0.9-1.5-0.9-2.6
		c0-1.1,0.3-2,0.9-2.6s1.3-0.9,2.3-0.9c0.9,0,1.6,0.3,2.2,0.9c0.6,0.6,0.9,1.5,0.9,2.6c0,0.1,0,0.2,0,0.3h-5c0,0.7,0.3,1.3,0.6,1.7
		c0.4,0.4,0.8,0.6,1.4,0.6c0.4,0,0.8-0.1,1.1-0.3S357.2,244.6,357.4,244.1z M353.6,242.3h3.8c-0.1-0.6-0.2-1-0.4-1.3
		c-0.4-0.4-0.8-0.7-1.4-0.7c-0.5,0-1,0.2-1.3,0.5C353.9,241.2,353.7,241.7,353.6,242.3z"/>
	<path class="st9" d="M364.4,246.3v-1c-0.5,0.8-1.2,1.1-2.1,1.1c-0.4,0-0.8-0.1-1.1-0.2c-0.3-0.2-0.6-0.3-0.8-0.6
		c-0.2-0.2-0.3-0.5-0.4-0.8c0-0.2-0.1-0.6-0.1-1.1v-4.2h1.1v3.7c0,0.6,0,1,0.1,1.2c0.1,0.3,0.2,0.5,0.5,0.7c0.2,0.2,0.5,0.3,0.9,0.3
		s0.7-0.1,1-0.3s0.5-0.4,0.6-0.7c0.1-0.3,0.2-0.7,0.2-1.3v-3.6h1.1v6.7H364.4z"/>
	<path class="st9" d="M367.2,246.3v-6.7h1v1c0.3-0.5,0.5-0.8,0.7-0.9c0.2-0.2,0.5-0.2,0.7-0.2c0.4,0,0.8,0.1,1.2,0.4l-0.4,1.1
		c-0.3-0.2-0.6-0.2-0.8-0.2c-0.2,0-0.5,0.1-0.7,0.2s-0.3,0.4-0.4,0.6c-0.1,0.4-0.2,0.9-0.2,1.3v3.5H367.2z"/>
	<path class="st9" d="M371.1,242.9c0-1.2,0.3-2.2,1-2.8c0.6-0.5,1.3-0.7,2.1-0.7c0.9,0,1.7,0.3,2.3,0.9c0.6,0.6,0.9,1.4,0.9,2.5
		c0,0.9-0.1,1.5-0.4,2c-0.3,0.5-0.6,0.9-1.1,1.2c-0.5,0.3-1,0.4-1.6,0.4c-0.9,0-1.7-0.3-2.3-0.9C371.4,245,371.1,244.1,371.1,242.9z
		 M372.3,242.9c0,0.9,0.2,1.5,0.6,1.9s0.9,0.6,1.4,0.6c0.6,0,1-0.2,1.4-0.6c0.4-0.4,0.6-1.1,0.6-2c0-0.8-0.2-1.5-0.6-1.9
		s-0.8-0.6-1.4-0.6c-0.6,0-1,0.2-1.4,0.6S372.3,242.1,372.3,242.9z"/>
	<path class="st9" d="M380.7,248.9h-2.5V248h1.4v-10h-1.4V237h2.5V248.9z"/>
</g>
<rect x="370" y="125" class="st7" width="10" height="86"/>
<g class="st8">
	<path class="st9" d="M223.8,119.4h-1.1v-7.3c-0.3,0.3-0.6,0.5-1.1,0.8c-0.4,0.3-0.8,0.5-1.2,0.6v-1.1c0.6-0.3,1.2-0.7,1.7-1.1
		s0.8-0.8,1-1.2h0.7V119.4z"/>
	<path class="st9" d="M227.4,119.4v-1.3h1.3v1.3H227.4z"/>
	<path class="st9" d="M234,116.4l1.2-0.1c0.1,0.5,0.2,0.8,0.4,1.1c0.2,0.3,0.5,0.5,0.9,0.7c0.4,0.2,0.9,0.3,1.4,0.3
		c0.5,0,0.9-0.1,1.2-0.2s0.6-0.3,0.8-0.6c0.2-0.2,0.3-0.5,0.3-0.8c0-0.3-0.1-0.5-0.3-0.8s-0.4-0.4-0.8-0.5c-0.2-0.1-0.8-0.2-1.7-0.5
		s-1.5-0.4-1.8-0.6c-0.4-0.2-0.8-0.5-1-0.9c-0.2-0.3-0.3-0.7-0.3-1.2c0-0.5,0.1-0.9,0.4-1.3s0.7-0.7,1.2-0.9
		c0.5-0.2,1.1-0.3,1.7-0.3c0.7,0,1.3,0.1,1.8,0.3c0.5,0.2,0.9,0.5,1.2,1s0.4,0.9,0.5,1.5l-1.2,0.1c-0.1-0.6-0.3-1-0.6-1.3
		c-0.4-0.3-0.9-0.5-1.6-0.5c-0.7,0-1.3,0.1-1.6,0.4c-0.3,0.3-0.5,0.6-0.5,1c0,0.3,0.1,0.6,0.4,0.8c0.2,0.2,0.9,0.4,1.9,0.7
		c1,0.2,1.7,0.4,2.1,0.6c0.5,0.2,0.9,0.6,1.2,0.9s0.4,0.8,0.4,1.3c0,0.5-0.1,1-0.4,1.4c-0.3,0.4-0.7,0.8-1.2,1
		c-0.5,0.2-1.1,0.4-1.8,0.4c-0.8,0-1.5-0.1-2.1-0.4c-0.6-0.2-1-0.6-1.3-1.1C234.2,117.6,234,117.1,234,116.4z"/>
	<path class="st9" d="M242.9,122l-0.1-1.1c0.2,0.1,0.5,0.1,0.7,0.1c0.3,0,0.5,0,0.6-0.1s0.3-0.2,0.4-0.4c0.1-0.1,0.2-0.4,0.3-0.9
		c0-0.1,0.1-0.2,0.1-0.3l-2.6-6.8h1.2l1.4,3.9c0.2,0.5,0.3,1,0.5,1.6c0.1-0.5,0.3-1,0.5-1.5l1.4-3.9h1.1l-2.6,6.9
		c-0.3,0.7-0.5,1.3-0.6,1.5c-0.2,0.4-0.4,0.7-0.7,0.8s-0.6,0.3-0.9,0.3C243.4,122.2,243.2,122.1,242.9,122z"/>
	<path class="st9" d="M249.5,119.4v-6.7h1v0.9c0.2-0.3,0.5-0.6,0.8-0.8s0.8-0.3,1.2-0.3c0.5,0,0.9,0.1,1.2,0.3
		c0.3,0.2,0.5,0.5,0.7,0.9c0.5-0.8,1.2-1.2,2.1-1.2c0.7,0,1.2,0.2,1.5,0.6s0.5,0.9,0.5,1.7v4.6h-1.1v-4.2c0-0.5,0-0.8-0.1-1
		c-0.1-0.2-0.2-0.4-0.4-0.5c-0.2-0.1-0.4-0.2-0.7-0.2c-0.5,0-0.9,0.2-1.2,0.5s-0.5,0.8-0.5,1.5v3.9h-1.1v-4.4c0-0.5-0.1-0.9-0.3-1.1
		s-0.5-0.4-0.9-0.4c-0.3,0-0.6,0.1-0.9,0.3c-0.3,0.2-0.5,0.4-0.6,0.7c-0.1,0.3-0.2,0.8-0.2,1.4v3.5H249.5z"/>
	<path class="st9" d="M261.4,119.4h-1.1v-9.3h1.1v3.3c0.5-0.6,1.1-0.9,1.8-0.9c0.4,0,0.8,0.1,1.2,0.3c0.4,0.2,0.7,0.4,0.9,0.7
		c0.2,0.3,0.4,0.7,0.6,1.1c0.1,0.4,0.2,0.9,0.2,1.4c0,1.2-0.3,2-0.9,2.7c-0.6,0.6-1.3,0.9-2.1,0.9c-0.8,0-1.4-0.3-1.9-1V119.4z
		 M261.3,116c0,0.8,0.1,1.4,0.3,1.8c0.4,0.6,0.8,0.9,1.5,0.9c0.5,0,0.9-0.2,1.3-0.7s0.5-1.1,0.5-1.9c0-0.9-0.2-1.5-0.5-1.9
		c-0.3-0.4-0.8-0.6-1.3-0.6c-0.5,0-0.9,0.2-1.3,0.7S261.3,115.2,261.3,116z"/>
	<path class="st9" d="M267.1,116.1c0-1.2,0.3-2.2,1-2.8c0.6-0.5,1.3-0.7,2.1-0.7c0.9,0,1.7,0.3,2.3,0.9s0.9,1.4,0.9,2.5
		c0,0.9-0.1,1.5-0.4,2c-0.3,0.5-0.6,0.9-1.1,1.2c-0.5,0.3-1,0.4-1.6,0.4c-0.9,0-1.7-0.3-2.3-0.9
		C267.4,118.1,267.1,117.2,267.1,116.1z M268.3,116.1c0,0.9,0.2,1.5,0.6,1.9s0.9,0.6,1.4,0.6c0.6,0,1-0.2,1.4-0.6s0.6-1.1,0.6-2
		c0-0.8-0.2-1.5-0.6-1.9c-0.4-0.4-0.8-0.6-1.4-0.6c-0.6,0-1,0.2-1.4,0.6S268.3,115.2,268.3,116.1z"/>
	<path class="st9" d="M274.7,119.4v-9.3h1.1v9.3H274.7z"/>
	<path class="st9" d="M277.7,111.4v-1.3h1.1v1.3H277.7z M277.7,119.4v-6.7h1.1v6.7H277.7z"/>
	<path class="st9" d="M284.9,117l1.1,0.1c-0.1,0.8-0.4,1.4-0.9,1.8c-0.5,0.4-1.1,0.7-1.9,0.7c-0.9,0-1.7-0.3-2.2-0.9
		c-0.6-0.6-0.8-1.5-0.8-2.6c0-0.7,0.1-1.4,0.4-1.9s0.6-1,1.1-1.2c0.5-0.3,1-0.4,1.6-0.4c0.7,0,1.3,0.2,1.8,0.6s0.8,0.9,0.9,1.6
		l-1.1,0.2c-0.1-0.5-0.3-0.8-0.6-1c-0.3-0.2-0.6-0.3-1-0.3c-0.6,0-1,0.2-1.4,0.6c-0.4,0.4-0.5,1.1-0.5,2c0,0.9,0.2,1.6,0.5,2
		c0.3,0.4,0.8,0.6,1.4,0.6c0.4,0,0.8-0.1,1.1-0.4C284.7,118,284.9,117.5,284.9,117z"/>
	<path class="st9" d="M290.8,119.4v-9.3h1.3l4.9,7.3v-7.3h1.2v9.3h-1.3l-4.9-7.3v7.3H290.8z"/>
	<path class="st9" d="M304.7,117.3l1.2,0.1c-0.2,0.7-0.5,1.2-1,1.6s-1.1,0.6-1.9,0.6c-1,0-1.8-0.3-2.3-0.9c-0.6-0.6-0.9-1.5-0.9-2.6
		c0-1.1,0.3-2,0.9-2.6s1.3-0.9,2.3-0.9c0.9,0,1.6,0.3,2.2,0.9c0.6,0.6,0.9,1.5,0.9,2.6c0,0.1,0,0.2,0,0.3h-5c0,0.7,0.3,1.3,0.6,1.7
		c0.4,0.4,0.8,0.6,1.4,0.6c0.4,0,0.8-0.1,1.1-0.3S304.5,117.8,304.7,117.3z M300.9,115.4h3.8c-0.1-0.6-0.2-1-0.4-1.3
		c-0.4-0.4-0.8-0.7-1.4-0.7c-0.5,0-1,0.2-1.3,0.5C301.1,114.4,300.9,114.8,300.9,115.4z"/>
	<path class="st9" d="M311.7,119.4v-1c-0.5,0.8-1.2,1.1-2.1,1.1c-0.4,0-0.8-0.1-1.1-0.2c-0.3-0.2-0.6-0.3-0.8-0.6
		c-0.2-0.2-0.3-0.5-0.4-0.8c0-0.2-0.1-0.6-0.1-1.1v-4.2h1.1v3.7c0,0.6,0,1,0.1,1.2c0.1,0.3,0.2,0.5,0.5,0.7c0.2,0.2,0.5,0.3,0.9,0.3
		s0.7-0.1,1-0.3s0.5-0.4,0.6-0.7c0.1-0.3,0.2-0.7,0.2-1.3v-3.6h1.1v6.7H311.7z"/>
	<path class="st9" d="M314.5,119.4v-6.7h1v1c0.3-0.5,0.5-0.8,0.7-0.9c0.2-0.2,0.5-0.2,0.7-0.2c0.4,0,0.8,0.1,1.2,0.4l-0.4,1.1
		c-0.3-0.2-0.6-0.2-0.8-0.2c-0.2,0-0.5,0.1-0.7,0.2s-0.3,0.4-0.4,0.6c-0.1,0.4-0.2,0.9-0.2,1.3v3.5H314.5z"/>
	<path class="st9" d="M318.4,116.1c0-1.2,0.3-2.2,1-2.8c0.6-0.5,1.3-0.7,2.1-0.7c0.9,0,1.7,0.3,2.3,0.9s0.9,1.4,0.9,2.5
		c0,0.9-0.1,1.5-0.4,2c-0.3,0.5-0.6,0.9-1.1,1.2c-0.5,0.3-1,0.4-1.6,0.4c-0.9,0-1.7-0.3-2.3-0.9
		C318.7,118.1,318.4,117.2,318.4,116.1z M319.6,116.1c0,0.9,0.2,1.5,0.6,1.9s0.9,0.6,1.4,0.6c0.6,0,1-0.2,1.4-0.6s0.6-1.1,0.6-2
		c0-0.8-0.2-1.5-0.6-1.9c-0.4-0.4-0.8-0.6-1.4-0.6c-0.6,0-1,0.2-1.4,0.6S319.6,115.2,319.6,116.1z"/>
	<path class="st9" d="M329.4,116.4l1.2-0.1c0.1,0.5,0.2,0.8,0.4,1.1c0.2,0.3,0.5,0.5,0.9,0.7c0.4,0.2,0.9,0.3,1.4,0.3
		c0.5,0,0.9-0.1,1.2-0.2s0.6-0.3,0.8-0.6c0.2-0.2,0.3-0.5,0.3-0.8c0-0.3-0.1-0.5-0.3-0.8s-0.4-0.4-0.8-0.5c-0.2-0.1-0.8-0.2-1.7-0.5
		s-1.5-0.4-1.8-0.6c-0.4-0.2-0.8-0.5-1-0.9c-0.2-0.3-0.3-0.7-0.3-1.2c0-0.5,0.1-0.9,0.4-1.3s0.7-0.7,1.2-0.9
		c0.5-0.2,1.1-0.3,1.7-0.3c0.7,0,1.3,0.1,1.8,0.3c0.5,0.2,0.9,0.5,1.2,1s0.4,0.9,0.5,1.5l-1.2,0.1c-0.1-0.6-0.3-1-0.6-1.3
		c-0.4-0.3-0.9-0.5-1.6-0.5c-0.7,0-1.3,0.1-1.6,0.4c-0.3,0.3-0.5,0.6-0.5,1c0,0.3,0.1,0.6,0.4,0.8c0.2,0.2,0.9,0.4,1.9,0.7
		c1,0.2,1.7,0.4,2.1,0.6c0.5,0.2,0.9,0.6,1.2,0.9s0.4,0.8,0.4,1.3c0,0.5-0.1,1-0.4,1.4c-0.3,0.4-0.7,0.8-1.2,1
		c-0.5,0.2-1.1,0.4-1.8,0.4c-0.8,0-1.5-0.1-2.1-0.4c-0.6-0.2-1-0.6-1.3-1.1C329.6,117.6,329.4,117.1,329.4,116.4z"/>
	<path class="st9" d="M338.3,122l-0.1-1.1c0.2,0.1,0.5,0.1,0.7,0.1c0.3,0,0.5,0,0.6-0.1s0.3-0.2,0.4-0.4c0.1-0.1,0.2-0.4,0.3-0.9
		c0-0.1,0.1-0.2,0.1-0.3l-2.6-6.8h1.2l1.4,3.9c0.2,0.5,0.3,1,0.5,1.6c0.1-0.5,0.3-1,0.5-1.5l1.4-3.9h1.1l-2.6,6.9
		c-0.3,0.7-0.5,1.3-0.6,1.5c-0.2,0.4-0.4,0.7-0.7,0.8s-0.6,0.3-0.9,0.3C338.8,122.2,338.6,122.1,338.3,122z"/>
	<path class="st9" d="M344.8,119.4v-6.7h1v0.9c0.2-0.3,0.5-0.6,0.8-0.8s0.8-0.3,1.2-0.3c0.5,0,0.9,0.1,1.2,0.3
		c0.3,0.2,0.5,0.5,0.7,0.9c0.5-0.8,1.2-1.2,2.1-1.2c0.7,0,1.2,0.2,1.5,0.6s0.5,0.9,0.5,1.7v4.6h-1.1v-4.2c0-0.5,0-0.8-0.1-1
		c-0.1-0.2-0.2-0.4-0.4-0.5c-0.2-0.1-0.4-0.2-0.7-0.2c-0.5,0-0.9,0.2-1.2,0.5s-0.5,0.8-0.5,1.5v3.9h-1.1v-4.4c0-0.5-0.1-0.9-0.3-1.1
		s-0.5-0.4-0.9-0.4c-0.3,0-0.6,0.1-0.9,0.3c-0.3,0.2-0.5,0.4-0.6,0.7c-0.1,0.3-0.2,0.8-0.2,1.4v3.5H344.8z"/>
	<path class="st9" d="M356.7,119.4h-1.1v-9.3h1.1v3.3c0.5-0.6,1.1-0.9,1.8-0.9c0.4,0,0.8,0.1,1.2,0.3c0.4,0.2,0.7,0.4,0.9,0.7
		c0.2,0.3,0.4,0.7,0.6,1.1c0.1,0.4,0.2,0.9,0.2,1.4c0,1.2-0.3,2-0.9,2.7c-0.6,0.6-1.3,0.9-2.1,0.9c-0.8,0-1.4-0.3-1.9-1V119.4z
		 M356.7,116c0,0.8,0.1,1.4,0.3,1.8c0.4,0.6,0.8,0.9,1.5,0.9c0.5,0,0.9-0.2,1.3-0.7s0.5-1.1,0.5-1.9c0-0.9-0.2-1.5-0.5-1.9
		c-0.3-0.4-0.8-0.6-1.3-0.6c-0.5,0-0.9,0.2-1.3,0.7S356.7,115.2,356.7,116z"/>
	<path class="st9" d="M362.5,116.1c0-1.2,0.3-2.2,1-2.8c0.6-0.5,1.3-0.7,2.1-0.7c0.9,0,1.7,0.3,2.3,0.9s0.9,1.4,0.9,2.5
		c0,0.9-0.1,1.5-0.4,2c-0.3,0.5-0.6,0.9-1.1,1.2c-0.5,0.3-1,0.4-1.6,0.4c-0.9,0-1.7-0.3-2.3-0.9
		C362.8,118.1,362.5,117.2,362.5,116.1z M363.6,116.1c0,0.9,0.2,1.5,0.6,1.9s0.9,0.6,1.4,0.6c0.6,0,1-0.2,1.4-0.6s0.6-1.1,0.6-2
		c0-0.8-0.2-1.5-0.6-1.9c-0.4-0.4-0.8-0.6-1.4-0.6c-0.6,0-1,0.2-1.4,0.6S363.6,115.2,363.6,116.1z"/>
	<path class="st9" d="M370.1,119.4v-9.3h1.1v9.3H370.1z"/>
	<path class="st9" d="M373,111.4v-1.3h1.1v1.3H373z M373,119.4v-6.7h1.1v6.7H373z"/>
	<path class="st9" d="M380.3,117l1.1,0.1c-0.1,0.8-0.4,1.4-0.9,1.8c-0.5,0.4-1.1,0.7-1.9,0.7c-0.9,0-1.7-0.3-2.2-0.9
		c-0.6-0.6-0.8-1.5-0.8-2.6c0-0.7,0.1-1.4,0.4-1.9c0.2-0.5,0.6-1,1.1-1.2c0.5-0.3,1-0.4,1.6-0.4c0.7,0,1.3,0.2,1.8,0.6
		c0.5,0.4,0.8,0.9,0.9,1.6l-1.1,0.2c-0.1-0.5-0.3-0.8-0.6-1c-0.3-0.2-0.6-0.3-1-0.3c-0.6,0-1,0.2-1.4,0.6c-0.4,0.4-0.5,1.1-0.5,2
		c0,0.9,0.2,1.6,0.5,2c0.3,0.4,0.8,0.6,1.4,0.6c0.4,0,0.8-0.1,1.1-0.4C380,118,380.2,117.5,380.3,117z"/>
</g>
<g class="st8">
	<path class="st9" d="M272.3,397.7l1.2-0.1c0.1,0.6,0.3,1,0.6,1.3c0.3,0.3,0.7,0.4,1.2,0.4c0.6,0,1-0.2,1.4-0.6
		c0.4-0.4,0.6-1,0.6-1.7c0-0.7-0.2-1.2-0.5-1.5c-0.4-0.4-0.8-0.6-1.4-0.6c-0.4,0-0.7,0.1-1,0.2s-0.5,0.4-0.7,0.7l-1.1-0.1l0.9-4.8
		h4.6v1.1h-3.7l-0.5,2.5c0.6-0.4,1.1-0.6,1.8-0.6c0.8,0,1.5,0.3,2.1,0.8c0.6,0.6,0.8,1.3,0.8,2.2c0,0.8-0.2,1.6-0.7,2.2
		c-0.6,0.8-1.4,1.1-2.4,1.1c-0.8,0-1.5-0.2-2.1-0.7C272.6,399.1,272.3,398.4,272.3,397.7z"/>
	<path class="st9" d="M280.1,400.1v-1.3h1.3v1.3H280.1z"/>
	<path class="st9" d="M287.2,400.1v-9.3h1.3l4.9,7.3v-7.3h1.2v9.3h-1.3l-4.9-7.3v7.3H287.2z"/>
	<path class="st9" d="M301,397.9l1.2,0.1c-0.2,0.7-0.5,1.2-1,1.6s-1.1,0.6-1.9,0.6c-1,0-1.8-0.3-2.3-0.9c-0.6-0.6-0.9-1.5-0.9-2.6
		c0-1.1,0.3-2,0.9-2.6s1.3-0.9,2.3-0.9c0.9,0,1.6,0.3,2.2,0.9c0.6,0.6,0.9,1.5,0.9,2.6c0,0.1,0,0.2,0,0.3h-5c0,0.7,0.3,1.3,0.6,1.7
		c0.4,0.4,0.8,0.6,1.4,0.6c0.4,0,0.8-0.1,1.1-0.3S300.9,398.4,301,397.9z M297.3,396.1h3.8c-0.1-0.6-0.2-1-0.4-1.3
		c-0.4-0.4-0.8-0.7-1.4-0.7c-0.5,0-1,0.2-1.3,0.5C297.5,395,297.3,395.5,297.3,396.1z"/>
	<path class="st9" d="M308.1,400.1v-1c-0.5,0.8-1.2,1.1-2.1,1.1c-0.4,0-0.8-0.1-1.1-0.2c-0.3-0.2-0.6-0.3-0.8-0.6
		c-0.2-0.2-0.3-0.5-0.4-0.8c0-0.2-0.1-0.6-0.1-1.1v-4.2h1.1v3.7c0,0.6,0,1,0.1,1.2c0.1,0.3,0.2,0.5,0.5,0.7c0.2,0.2,0.5,0.3,0.9,0.3
		s0.7-0.1,1-0.3s0.5-0.4,0.6-0.7c0.1-0.3,0.2-0.7,0.2-1.3v-3.6h1.1v6.7H308.1z"/>
	<path class="st9" d="M310.9,400.1v-6.7h1v1c0.3-0.5,0.5-0.8,0.7-0.9c0.2-0.2,0.5-0.2,0.7-0.2c0.4,0,0.8,0.1,1.2,0.4l-0.4,1.1
		c-0.3-0.2-0.6-0.2-0.8-0.2c-0.2,0-0.5,0.1-0.7,0.2s-0.3,0.4-0.4,0.6c-0.1,0.4-0.2,0.9-0.2,1.3v3.5H310.9z"/>
	<path class="st9" d="M314.8,396.7c0-1.2,0.3-2.2,1-2.8c0.6-0.5,1.3-0.7,2.1-0.7c0.9,0,1.7,0.3,2.3,0.9s0.9,1.4,0.9,2.5
		c0,0.9-0.1,1.5-0.4,2c-0.3,0.5-0.6,0.9-1.1,1.2c-0.5,0.3-1,0.4-1.6,0.4c-0.9,0-1.7-0.3-2.3-0.9
		C315.1,398.7,314.8,397.9,314.8,396.7z M316,396.7c0,0.9,0.2,1.5,0.6,1.9s0.9,0.6,1.4,0.6c0.6,0,1-0.2,1.4-0.6s0.6-1.1,0.6-2
		c0-0.8-0.2-1.5-0.6-1.9c-0.4-0.4-0.8-0.6-1.4-0.6c-0.6,0-1,0.2-1.4,0.6S316,395.9,316,396.7z"/>
	<path class="st9" d="M321.4,402.7v-0.8h7.6v0.8H321.4z"/>
	<path class="st9" d="M329.4,397.1l1.2-0.1c0.1,0.5,0.2,0.8,0.4,1.1c0.2,0.3,0.5,0.5,0.9,0.7c0.4,0.2,0.9,0.3,1.4,0.3
		c0.5,0,0.9-0.1,1.2-0.2s0.6-0.3,0.8-0.6c0.2-0.2,0.3-0.5,0.3-0.8c0-0.3-0.1-0.5-0.3-0.8s-0.4-0.4-0.8-0.5c-0.2-0.1-0.8-0.2-1.7-0.5
		s-1.5-0.4-1.8-0.6c-0.4-0.2-0.8-0.5-1-0.9c-0.2-0.3-0.3-0.7-0.3-1.2c0-0.5,0.1-0.9,0.4-1.3s0.7-0.7,1.2-0.9
		c0.5-0.2,1.1-0.3,1.7-0.3c0.7,0,1.3,0.1,1.8,0.3c0.5,0.2,0.9,0.5,1.2,1s0.4,0.9,0.5,1.5l-1.2,0.1c-0.1-0.6-0.3-1-0.6-1.3
		c-0.4-0.3-0.9-0.5-1.6-0.5c-0.7,0-1.3,0.1-1.6,0.4c-0.3,0.3-0.5,0.6-0.5,1c0,0.3,0.1,0.6,0.4,0.8c0.2,0.2,0.9,0.4,1.9,0.7
		c1,0.2,1.7,0.4,2.1,0.6c0.5,0.2,0.9,0.6,1.2,0.9s0.4,0.8,0.4,1.3c0,0.5-0.1,1-0.4,1.4c-0.3,0.4-0.7,0.8-1.2,1
		c-0.5,0.2-1.1,0.4-1.8,0.4c-0.8,0-1.5-0.1-2.1-0.4c-0.6-0.2-1-0.6-1.3-1.1C329.6,398.3,329.4,397.7,329.4,397.1z"/>
	<path class="st9" d="M338.3,402.7l-0.1-1.1c0.2,0.1,0.5,0.1,0.7,0.1c0.3,0,0.5,0,0.6-0.1s0.3-0.2,0.4-0.4c0.1-0.1,0.2-0.4,0.3-0.9
		c0-0.1,0.1-0.2,0.1-0.3l-2.6-6.8h1.2l1.4,3.9c0.2,0.5,0.3,1,0.5,1.6c0.1-0.5,0.3-1,0.5-1.5l1.4-3.9h1.1l-2.6,6.9
		c-0.3,0.7-0.5,1.3-0.6,1.5c-0.2,0.4-0.4,0.7-0.7,0.8s-0.6,0.3-0.9,0.3C338.8,402.8,338.6,402.8,338.3,402.7z"/>
	<path class="st9" d="M344.8,400.1v-6.7h1v0.9c0.2-0.3,0.5-0.6,0.8-0.8s0.8-0.3,1.2-0.3c0.5,0,0.9,0.1,1.2,0.3
		c0.3,0.2,0.5,0.5,0.7,0.9c0.5-0.8,1.2-1.2,2.1-1.2c0.7,0,1.2,0.2,1.5,0.6s0.5,0.9,0.5,1.7v4.6h-1.1v-4.2c0-0.5,0-0.8-0.1-1
		c-0.1-0.2-0.2-0.4-0.4-0.5c-0.2-0.1-0.4-0.2-0.7-0.2c-0.5,0-0.9,0.2-1.2,0.5s-0.5,0.8-0.5,1.5v3.9h-1.1v-4.4c0-0.5-0.1-0.9-0.3-1.1
		s-0.5-0.4-0.9-0.4c-0.3,0-0.6,0.1-0.9,0.3c-0.3,0.2-0.5,0.4-0.6,0.7c-0.1,0.3-0.2,0.8-0.2,1.4v3.5H344.8z"/>
	<path class="st9" d="M356.7,400.1h-1.1v-9.3h1.1v3.3c0.5-0.6,1.1-0.9,1.8-0.9c0.4,0,0.8,0.1,1.2,0.3c0.4,0.2,0.7,0.4,0.9,0.7
		c0.2,0.3,0.4,0.7,0.6,1.1c0.1,0.4,0.2,0.9,0.2,1.4c0,1.2-0.3,2-0.9,2.7c-0.6,0.6-1.3,0.9-2.1,0.9c-0.8,0-1.4-0.3-1.9-1V400.1z
		 M356.7,396.7c0,0.8,0.1,1.4,0.3,1.8c0.4,0.6,0.8,0.9,1.5,0.9c0.5,0,0.9-0.2,1.3-0.7s0.5-1.1,0.5-1.9c0-0.9-0.2-1.5-0.5-1.9
		c-0.3-0.4-0.8-0.6-1.3-0.6c-0.5,0-0.9,0.2-1.3,0.7S356.7,395.9,356.7,396.7z"/>
	<path class="st9" d="M362.5,396.7c0-1.2,0.3-2.2,1-2.8c0.6-0.5,1.3-0.7,2.1-0.7c0.9,0,1.7,0.3,2.3,0.9s0.9,1.4,0.9,2.5
		c0,0.9-0.1,1.5-0.4,2c-0.3,0.5-0.6,0.9-1.1,1.2c-0.5,0.3-1,0.4-1.6,0.4c-0.9,0-1.7-0.3-2.3-0.9
		C362.8,398.7,362.5,397.9,362.5,396.7z M363.6,396.7c0,0.9,0.2,1.5,0.6,1.9s0.9,0.6,1.4,0.6c0.6,0,1-0.2,1.4-0.6s0.6-1.1,0.6-2
		c0-0.8-0.2-1.5-0.6-1.9c-0.4-0.4-0.8-0.6-1.4-0.6c-0.6,0-1,0.2-1.4,0.6S363.6,395.9,363.6,396.7z"/>
	<path class="st9" d="M370.1,400.1v-9.3h1.1v9.3H370.1z"/>
	<path class="st9" d="M373,392.1v-1.3h1.1v1.3H373z M373,400.1v-6.7h1.1v6.7H373z"/>
	<path class="st9" d="M380.3,397.6l1.1,0.1c-0.1,0.8-0.4,1.4-0.9,1.8c-0.5,0.4-1.1,0.7-1.9,0.7c-0.9,0-1.7-0.3-2.2-0.9
		c-0.6-0.6-0.8-1.5-0.8-2.6c0-0.7,0.1-1.4,0.4-1.9c0.2-0.5,0.6-1,1.1-1.2c0.5-0.3,1-0.4,1.6-0.4c0.7,0,1.3,0.2,1.8,0.6
		c0.5,0.4,0.8,0.9,0.9,1.6l-1.1,0.2c-0.1-0.5-0.3-0.8-0.6-1c-0.3-0.2-0.6-0.3-1-0.3c-0.6,0-1,0.2-1.4,0.6c-0.4,0.4-0.5,1.1-0.5,2
		c0,0.9,0.2,1.6,0.5,2c0.3,0.4,0.8,0.6,1.4,0.6c0.4,0,0.8-0.1,1.1-0.4C380,398.6,380.2,398.2,380.3,397.6z"/>
</g>
<rect x="635" y="100" class="st10" width="10" height="45.9"/>
<g class="st8">
	<path class="st9" d="M654.6,127.5v-9.3h1.3l4.9,7.3v-7.3h1.2v9.3h-1.3l-4.9-7.3v7.3H654.6z"/>
	<path class="st9" d="M663.7,123c0-1.5,0.4-2.8,1.2-3.6s1.9-1.3,3.2-1.3c0.9,0,1.6,0.2,2.3,0.6c0.7,0.4,1.2,1,1.6,1.7
		s0.5,1.6,0.5,2.5c0,0.9-0.2,1.8-0.6,2.5s-0.9,1.3-1.6,1.7c-0.7,0.4-1.5,0.6-2.3,0.6c-0.9,0-1.7-0.2-2.3-0.6c-0.7-0.4-1.2-1-1.6-1.7
		S663.7,123.8,663.7,123z M664.9,123c0,1.1,0.3,2,0.9,2.7c0.6,0.6,1.4,1,2.3,1c0.9,0,1.7-0.3,2.3-1c0.6-0.7,0.9-1.6,0.9-2.8
		c0-0.8-0.1-1.4-0.4-2c-0.3-0.6-0.6-1-1.1-1.3c-0.5-0.3-1-0.5-1.7-0.5c-0.9,0-1.6,0.3-2.2,0.9S664.9,121.6,664.9,123z"/>
	<path class="st9" d="M674.1,127.5v-9.3h1.3l4.9,7.3v-7.3h1.2v9.3h-1.3l-4.9-7.3v7.3H674.1z"/>
	<path class="st9" d="M683.6,127.5v-9.3h6.7v1.1h-5.5v2.8h5.1v1.1h-5.1v3.2h5.7v1.1H683.6z"/>
</g>
<path class="st4" d="M380,417.7c127.5,0,127.5-174.7,255-174.7v1.9c-127.5,0-127.5,174.7-255,174.7V417.7z"/>
<path class="st4" d="M380,419.6c127.5,0,127.5-174.7,255-174.7v2.9c-127.5,0-127.5,174.7-255,174.7V419.6z"/>
<path class="st4" d="M380,422.4c127.5,0,127.5-174.7,255-174.7v5.7c-127.5,0-127.5,174.7-255,174.7V422.4z"/>
<path class="st4" d="M380,428.2c127.5,0,127.5-174.7,255-174.7v1.9c-127.5,0-127.5,174.7-255,174.7V428.2z"/>
<path class="st4" d="M380.9,355.1c126.6-1,126.9-123.4,254.1-123.4v2.9c-127.2,0-127.5,122.4-254,123.4c-0.5,0-1-0.4-1-1v-1
	C380,355.5,380.4,355.1,380.9,355.1z"/>
<path class="st4" d="M380.9,357.9c126.6-1,126.9-123.4,254.1-123.4v5.7c-127.2,0-127.5,122.4-254,123.4c-0.5,0-1-0.4-1-1v-3.8
	C380,358.3,380.4,357.9,380.9,357.9z"/>
<path class="st4" d="M380.9,363.7c126.6-1,126.9-123.4,254.1-123.4v2.9c-127.2,0-127.5,122.4-254,123.4c-0.5,0-1-0.4-1-1v-1
	C380,364.1,380.4,363.7,380.9,363.7z"/>
<rect x="635" y="170.9" class="st7" width="10" height="84.6"/>
<path class="st7" d="M371,355.1h8.1c0.5,0,1,0.4,1,1v21c0,0.5-0.4,1-1,1H371c-0.5,0-1-0.4-1-1v-21C370,355.5,370.4,355.1,371,355.1z
	"/>
<rect x="370" y="406.2" class="st7" width="10" height="34.4"/>
</svg>
