<svg class="main-svg" xmlns="http://www.w3.org/2000/svg" xmlns:xlink="http://www.w3.org/1999/xlink" width="700" height="500" style="" viewBox="0 0 700 500"><rect x="0" y="0" width="700" height="500" style="fill: rgb(255, 255, 255); fill-opacity: 1;"/><defs id="defs-563fcc"><g class="clips"/><g class="gradients"/><g class="patterns"/></defs><g class="bglayer"/><g class="layer-below"><g class="imagelayer"/><g class="shapelayer"/></g><g class="cartesianlayer"/><g class="polarlayer"/><g class="smithlayer"/><g class="ternarylayer"/><g class="geolayer"/><g class="funnelarealayer"/><g class="pielayer"/><g class="iciclelayer"/><g class="treemaplayer"/><g class="sunburstlayer"/><g class="glimages"/><g class="sankey" transform="translate(80,100)matrix(1 0 0 1 0 0)" style="box-sizing: content-box; position: absolute; left: 0px; shape-rendering: geometricprecision; pointer-events: auto;"><g class="sankey-links" style="fill: none;"><path class="sankey-link" d="M10,79.16666666655958C270,79.16666666655958 270,94.16666666667706 530,94.16666666667706L530,99.16666666661823C270,99.16666666661823 270,84.16666666650075 10,84.16666666650075Z" style="stroke: rgb(68, 68, 68); stroke-opacity: 1; fill: rgb(156, 67, 151); fill-opacity: 1; stroke-width: 0; opacity: 1;"/><path class="sankey-link" d="M10,138.3333333330163C270,138.3333333330163 270,290.0000000000196 530,290.0000000000196L530,294.99999999996083C270,294.99999999996083 270,143.33333333295747 10,143.33333333295747Z" style="stroke: rgb(68, 68, 68); stroke-opacity: 1; fill: rgb(156, 67, 151); fill-opacity: 1; stroke-width: 0; opacity: 1;"/><path class="sankey-link" d="M10,106.66666666636107C270,106.66666666636107 270,169.99999999975967 530,169.99999999975967L530,174.99999999970083C270,174.99999999970083 270,111.66666666630223 10,111.66666666630223Z" style="stroke: rgb(68, 68, 68); stroke-opacity: 1; fill: rgb(156, 67, 151); fill-opacity: 1; stroke-width: 0; opacity: 1;"/><path class="sankey-link" d="M10,315.0000000000588C270,315.0000000000588 270,315.0000000000587 530,315.0000000000587L530,319.99999999999994C270,319.99999999999994 270,320 10,320Z" style="stroke: rgb(68, 68, 68); stroke-opacity: 1; fill: rgb(175, 233, 121); fill-opacity: 1; stroke-width: 0; opacity: 1;"/><path class="sankey-link" d="M10,241.66666666652765C270,241.66666666652765 270,308.3333333333594 530,308.3333333333594L530,313.33333333330063C270,313.33333333330063 270,246.6666666664688 10,246.6666666664688Z" style="stroke: rgb(68, 68, 68); stroke-opacity: 1; fill: rgb(255, 47, 109); fill-opacity: 1; stroke-width: 0; opacity: 1;"/><path class="sankey-link" d="M10,200.83333333303344C270,200.83333333303344 270,301.6666666666601 530,301.6666666666601L530,306.6666666666013C270,306.6666666666013 270,205.8333333329746 10,205.8333333329746Z" style="stroke: rgb(68, 68, 68); stroke-opacity: 1; fill: rgb(137, 183, 159); fill-opacity: 1; stroke-width: 0; opacity: 1;"/><path class="sankey-link" d="M10,29.1666666668537C270,29.1666666668537 270,79.16666666685352 530,79.16666666685352L530,84.16666666679468C270,84.16666666679468 270,34.166666666794875 10,34.166666666794875Z" style="stroke: rgb(68, 68, 68); stroke-opacity: 1; fill: rgb(69, 2, 86); fill-opacity: 1; stroke-width: 0; opacity: 1;"/><path class="sankey-link" d="M10,278.3333333331682C270,278.3333333331682 270,257.4999999999827 530,257.4999999999827L530,262.49999999992394C270,262.49999999992394 270,283.3333333331094 10,283.3333333331094Z" style="stroke: rgb(68, 68, 68); stroke-opacity: 1; fill: rgb(42, 145, 167); fill-opacity: 1; stroke-width: 0; opacity: 1;"/><path class="sankey-link" d="M10,111.66666666630225C270,111.66666666630225 270,174.99999999970083 530,174.99999999970083L530,179.999999999642C270,179.999999999642 270,116.66666666624342 10,116.66666666624342Z" style="stroke: rgb(68, 68, 68); stroke-opacity: 1; fill: rgb(156, 67, 151); fill-opacity: 1; stroke-width: 0; opacity: 1;"/><path class="sankey-link" d="M10,44.16666666667722C270,44.16666666667722 270,164.9999999998185 530,164.9999999998185L530,169.99999999975967C270,169.99999999975967 270,49.166666666618404 10,49.166666666618404Z" style="stroke: rgb(68, 68, 68); stroke-opacity: 1; fill: rgb(69, 2, 86); fill-opacity: 1; stroke-width: 0; opacity: 1;"/><path class="sankey-link" d="M10,116.66666666624343C270,116.66666666624343 270,179.999999999642 530,179.999999999642L530,182.4999999997376C270,182.4999999997376 270,119.16666666633901 10,119.16666666633901Z" style="stroke: rgb(68, 68, 68); stroke-opacity: 1; fill: rgb(156, 67, 151); fill-opacity: 1; stroke-width: 0; opacity: 1;"/><path class="sankey-link" d="M10,312.49999999996317C270,312.49999999996317 270,207.49999999977678 530,207.49999999977678L530,209.9999999998724C270,209.9999999998724 270,315.0000000000588 10,315.0000000000588Z" style="stroke: rgb(68, 68, 68); stroke-opacity: 1; fill: rgb(175, 233, 121); fill-opacity: 1; stroke-width: 0; opacity: 1;"/><path class="sankey-link" d="M10,34.166666666794875C270,34.166666666794875 270,84.1666666667947 530,84.1666666667947L530,89.16666666673586C270,89.16666666673586 270,39.166666666736056 10,39.166666666736056Z" style="stroke: rgb(68, 68, 68); stroke-opacity: 1; fill: rgb(69, 2, 86); fill-opacity: 1; stroke-width: 0; opacity: 1;"/><path class="sankey-link" d="M10,49.1666666666184C270,49.1666666666184 270,234.99999999987244 530,234.99999999987244L530,239.9999999998136C270,239.9999999998136 270,54.16666666655958 10,54.16666666655958Z" style="stroke: rgb(68, 68, 68); stroke-opacity: 1; fill: rgb(69, 2, 86); fill-opacity: 1; stroke-width: 0; opacity: 1;"/><path class="sankey-link" d="M10,125.83333333303838C270,125.83333333303838 270,239.9999999998136 530,239.9999999998136L530,244.99999999975478C270,244.99999999975478 270,130.83333333297955 10,130.83333333297955Z" style="stroke: rgb(68, 68, 68); stroke-opacity: 1; fill: rgb(156, 67, 151); fill-opacity: 1; stroke-width: 0; opacity: 1;"/><path class="sankey-link" d="M10,-5.684341886080802e-14C270,-5.684341886080802e-14 270,74.99999999999976 530,74.99999999999976L530,76.66666666675793C270,76.66666666675793 270,1.6666666667581131 10,1.6666666667581131Z" style="stroke: rgb(68, 68, 68); stroke-opacity: 1; fill: rgb(87, 188, 214); fill-opacity: 1; stroke-width: 0; opacity: 1;"/><path class="sankey-link" d="M10,271.66666666646887C270,271.66666666646887 270,138.33333333306024 530,138.33333333306024L530,139.99999999981839C270,139.99999999981839 270,273.333333333227 10,273.333333333227Z" style="stroke: rgb(68, 68, 68); stroke-opacity: 1; fill: rgb(42, 145, 167); fill-opacity: 1; stroke-width: 0; opacity: 1;"/><path class="sankey-link" d="M10,174.99999999965684C270,174.99999999965684 270,121.66666666647855 530,121.66666666647855L530,123.33333333323672C270,123.33333333323672 270,176.66666666641498 10,176.66666666641498Z" style="stroke: rgb(68, 68, 68); stroke-opacity: 1; fill: rgb(137, 183, 159); fill-opacity: 1; stroke-width: 0; opacity: 1;"/><path class="sankey-link" d="M10,186.66666666629735C270,186.66666666629735 270,189.16666666643692 530,189.16666666643692L530,190.83333333319507C270,190.83333333319507 270,188.3333333330555 10,188.3333333330555Z" style="stroke: rgb(68, 68, 68); stroke-opacity: 1; fill: rgb(137, 183, 159); fill-opacity: 1; stroke-width: 0; opacity: 1;"/><path class="sankey-link" d="M10,119.16666666633901C270,119.16666666633901 270,182.49999999973758 530,182.49999999973758L530,184.16666666649573C270,184.16666666649573 270,120.83333333309719 10,120.83333333309719Z" style="stroke: rgb(68, 68, 68); stroke-opacity: 1; fill: rgb(156, 67, 151); fill-opacity: 1; stroke-width: 0; opacity: 1;"/><path class="sankey-link" d="M10,237.4999999996739C270,237.4999999996739 270,200.83333333307743 530,200.83333333307743L530,202.49999999983558C270,202.49999999983558 270,239.16666666643204 10,239.16666666643204Z" style="stroke: rgb(68, 68, 68); stroke-opacity: 1; fill: rgb(255, 47, 109); fill-opacity: 1; stroke-width: 0; opacity: 1;"/><path class="sankey-link" d="M10,188.33333333305552C270,188.33333333305552 270,190.8333333331951 530,190.8333333331951L530,195.83333333313627C270,195.83333333313627 270,193.3333333329967 10,193.3333333329967Z" style="stroke: rgb(68, 68, 68); stroke-opacity: 1; fill: rgb(137, 183, 159); fill-opacity: 1; stroke-width: 0; opacity: 1;"/><path class="sankey-link" d="M10,273.333333333227C270,273.333333333227 270,202.4999999998356 530,202.4999999998356L530,207.49999999977678C270,207.49999999977678 270,278.33333333316824 10,278.33333333316824Z" style="stroke: rgb(68, 68, 68); stroke-opacity: 1; fill: rgb(42, 145, 167); fill-opacity: 1; stroke-width: 0; opacity: 1;"/><path class="sankey-link" d="M10,198.33333333293785C270,198.33333333293785 270,252.49999999979153 530,252.49999999979153L530,254.99999999988714C270,254.99999999988714 270,200.83333333303347 10,200.83333333303347Z" style="stroke: rgb(68, 68, 68); stroke-opacity: 1; fill: rgb(137, 183, 159); fill-opacity: 1; stroke-width: 0; opacity: 1;"/><path class="sankey-link" d="M10,130.83333333297955C270,130.83333333297955 270,244.99999999975478 530,244.99999999975478L530,247.4999999998504C270,247.4999999998504 270,133.33333333307516 10,133.33333333307516Z" style="stroke: rgb(68, 68, 68); stroke-opacity: 1; fill: rgb(156, 67, 151); fill-opacity: 1; stroke-width: 0; opacity: 1;"/><path class="sankey-link" d="M10,193.3333333329967C270,193.3333333329967 270,195.83333333313627 530,195.83333333313627L530,200.83333333307743C270,200.83333333307743 270,198.33333333293785 10,198.33333333293785Z" style="stroke: rgb(68, 68, 68); stroke-opacity: 1; fill: rgb(137, 183, 159); fill-opacity: 1; stroke-width: 0; opacity: 1;"/><path class="sankey-link" d="M10,84.16666666650076C270,84.16666666650076 270,99.16666666661824 530,99.16666666661824L530,104.16666666655941C270,104.16666666655941 270,89.16666666644193 10,89.16666666644193Z" style="stroke: rgb(68, 68, 68); stroke-opacity: 1; fill: rgb(156, 67, 151); fill-opacity: 1; stroke-width: 0; opacity: 1;"/><path class="sankey-link" d="M10,89.16666666644194C270,89.16666666644194 270,104.16666666655942 530,104.16666666655942L530,109.16666666650059C270,109.16666666650059 270,94.16666666638311 10,94.16666666638311Z" style="stroke: rgb(68, 68, 68); stroke-opacity: 1; fill: rgb(156, 67, 151); fill-opacity: 1; stroke-width: 0; opacity: 1;"/><path class="sankey-link" d="M10,176.666666666415C270,176.666666666415 270,123.33333333323672 530,123.33333333323672L530,128.3333333331779C270,128.3333333331779 270,181.66666666635618 10,181.66666666635618Z" style="stroke: rgb(68, 68, 68); stroke-opacity: 1; fill: rgb(137, 183, 159); fill-opacity: 1; stroke-width: 0; opacity: 1;"/><path class="sankey-link" d="M10,283.33333333310935C270,283.33333333310935 270,262.4999999999239 530,262.4999999999239L530,265.0000000000195C270,265.0000000000195 270,285.83333333320496 10,285.83333333320496Z" style="stroke: rgb(68, 68, 68); stroke-opacity: 1; fill: rgb(42, 145, 167); fill-opacity: 1; stroke-width: 0; opacity: 1;"/><path class="sankey-link" d="M10,239.16666666643206C270,239.16666666643206 270,254.9999999998871 530,254.9999999998871L530,257.4999999999827C270,257.4999999999827 270,241.66666666652768 10,241.66666666652768Z" style="stroke: rgb(68, 68, 68); stroke-opacity: 1; fill: rgb(255, 47, 109); fill-opacity: 1; stroke-width: 0; opacity: 1;"/><path class="sankey-link" d="M10,133.33333333307513C270,133.33333333307513 270,247.49999999985036 530,247.49999999985036L530,252.49999999979153C270,252.49999999979153 270,138.3333333330163 10,138.3333333330163Z" style="stroke: rgb(68, 68, 68); stroke-opacity: 1; fill: rgb(156, 67, 151); fill-opacity: 1; stroke-width: 0; opacity: 1;"/><path class="sankey-link" d="M10,181.66666666635618C270,181.66666666635618 270,128.3333333331779 530,128.3333333331779L530,133.33333333311907C270,133.33333333311907 270,186.66666666629735 10,186.66666666629735Z" style="stroke: rgb(68, 68, 68); stroke-opacity: 1; fill: rgb(137, 183, 159); fill-opacity: 1; stroke-width: 0; opacity: 1;"/><path class="sankey-link" d="M10,120.83333333309719C270,120.83333333309719 270,184.16666666649576 530,184.16666666649576L530,189.16666666643692C270,189.16666666643692 270,125.83333333303835 10,125.83333333303835Z" style="stroke: rgb(68, 68, 68); stroke-opacity: 1; fill: rgb(156, 67, 151); fill-opacity: 1; stroke-width: 0; opacity: 1;"/><path class="sankey-link" d="M10,94.16666666638312C270,94.16666666638312 270,109.1666666665006 530,109.1666666665006L530,111.66666666659619C270,111.66666666659619 270,96.6666666664787 10,96.6666666664787Z" style="stroke: rgb(68, 68, 68); stroke-opacity: 1; fill: rgb(156, 67, 151); fill-opacity: 1; stroke-width: 0; opacity: 1;"/><path class="sankey-link" d="M10,1.6666666667581134C270,1.6666666667581134 270,76.66666666675793 530,76.66666666675793L530,79.16666666685352C270,79.16666666685352 270,4.166666666853702 10,4.166666666853702Z" style="stroke: rgb(68, 68, 68); stroke-opacity: 1; fill: rgb(87, 188, 214); fill-opacity: 1; stroke-width: 0; opacity: 1;"/><path class="sankey-link" d="M10,39.16666666673605C270,39.16666666673605 270,89.16666666673588 530,89.16666666673588L530,94.16666666667705C270,94.16666666667705 270,44.16666666667723 10,44.16666666667723Z" style="stroke: rgb(68, 68, 68); stroke-opacity: 1; fill: rgb(69, 2, 86); fill-opacity: 1; stroke-width: 0; opacity: 1;"/><path class="sankey-link" d="M10,96.6666666664787C270,96.6666666664787 270,111.66666666659619 530,111.66666666659619L530,116.66666666653735C270,116.66666666653735 270,101.66666666641987 10,101.66666666641987Z" style="stroke: rgb(68, 68, 68); stroke-opacity: 1; fill: rgb(156, 67, 151); fill-opacity: 1; stroke-width: 0; opacity: 1;"/><path class="sankey-link" d="M10,143.33333333295747C270,143.33333333295747 270,294.9999999999608 530,294.9999999999608L530,296.6666666667189C270,296.6666666667189 270,144.9999999997156 10,144.9999999997156Z" style="stroke: rgb(68, 68, 68); stroke-opacity: 1; fill: rgb(156, 67, 151); fill-opacity: 1; stroke-width: 0; opacity: 1;"/><path class="sankey-link" d="M10,205.8333333329746C270,205.8333333329746 270,306.66666666660126 530,306.66666666660126L530,308.3333333333594C270,308.3333333333594 270,207.49999999973275 10,207.49999999973275Z" style="stroke: rgb(68, 68, 68); stroke-opacity: 1; fill: rgb(137, 183, 159); fill-opacity: 1; stroke-width: 0; opacity: 1;"/><path class="sankey-link" d="M10,285.83333333320496C270,285.83333333320496 270,313.3333333333006 530,313.3333333333006L530,315.0000000000587C270,315.0000000000587 270,287.4999999999631 10,287.4999999999631Z" style="stroke: rgb(68, 68, 68); stroke-opacity: 1; fill: rgb(42, 145, 167); fill-opacity: 1; stroke-width: 0; opacity: 1;"/><path class="sankey-link" d="M10,232.49999999973272C270,232.49999999973272 270,133.33333333311907 530,133.33333333311907L530,138.33333333306024C270,138.33333333306024 270,237.4999999996739 10,237.4999999996739Z" style="stroke: rgb(68, 68, 68); stroke-opacity: 1; fill: rgb(255, 47, 109); fill-opacity: 1; stroke-width: 0; opacity: 1;"/><path class="sankey-link" d="M10,144.99999999971564C270,144.99999999971564 270,296.6666666667189 530,296.6666666667189L530,301.66666666666015C270,301.66666666666015 270,149.9999999996568 10,149.9999999996568Z" style="stroke: rgb(68, 68, 68); stroke-opacity: 1; fill: rgb(156, 67, 151); fill-opacity: 1; stroke-width: 0; opacity: 1;"/><path class="sankey-link" d="M10,101.66666666641989C270,101.66666666641989 270,116.66666666653737 530,116.66666666653737L530,121.66666666647853C270,121.66666666647853 270,106.66666666636105 10,106.66666666636105Z" style="stroke: rgb(68, 68, 68); stroke-opacity: 1; fill: rgb(156, 67, 151); fill-opacity: 1; stroke-width: 0; opacity: 1;"/></g><g class="sankey-node-set" style="cursor: move;"><g class="sankey-node" transform="translate(530.000,75.000)" style="opacity: 1;"><rect class="node-rect" width="10" height="64.99999999981874" style="stroke-width: 0.5; stroke: rgb(68, 68, 68); stroke-opacity: 1; fill: rgb(51, 51, 51); fill-opacity: 1;"/><text class="node-label" data-notex="1" x="0" y="0" text-anchor="end" transform="translate(-3.25,37.04999999990937)" style="cursor: default; font-family: Arial; font-size: 13px; fill: rgb(51, 51, 51); fill-opacity: 1; white-space: pre; text-shadow: white 1px 1px 1px, white -1px -1px 1px, white 1px -1px 1px, white -1px 1px 1px;">Rules</text></g><g class="sankey-node" transform="translate(530.000,290.000)" style="opacity: 1;"><rect class="node-rect" width="10" height="29.99999999998039" style="stroke-width: 0.5; stroke: rgb(68, 68, 68); stroke-opacity: 1; fill: rgb(51, 51, 51); fill-opacity: 1;"/><text class="node-label" data-notex="1" x="0" y="0" text-anchor="end" transform="translate(-3.25,19.549999999990195)" style="cursor: default; font-family: Arial; font-size: 13px; fill: rgb(51, 51, 51); fill-opacity: 1; white-space: pre; text-shadow: white 1px 1px 1px, white -1px -1px 1px, white 1px -1px 1px, white -1px 1px 1px;">Frames</text></g><g class="sankey-node" transform="translate(530.000,235.000)" style="opacity: 1;"><rect class="node-rect" width="10" height="30.000000000147168" style="stroke-width: 0.5; stroke: rgb(68, 68, 68); stroke-opacity: 1; fill: rgb(51, 51, 51); fill-opacity: 1;"/><text class="node-label" data-notex="1" x="0" y="0" text-anchor="end" transform="translate(-3.25,19.550000000073585)" style="cursor: default; font-family: Arial; font-size: 13px; fill: rgb(51, 51, 51); fill-opacity: 1; white-space: pre; text-shadow: white 1px 1px 1px, white -1px -1px 1px, white 1px -1px 1px, white -1px 1px 1px;">Semantic Network</text></g><g class="sankey-node" transform="translate(530.000,165.000)" style="opacity: 1;"><rect class="node-rect" width="10" height="45.000000000053944" style="stroke-width: 0.5; stroke: rgb(68, 68, 68); stroke-opacity: 1; fill: rgb(51, 51, 51); fill-opacity: 1;"/><text class="node-label" data-notex="1" x="0" y="0" text-anchor="end" transform="translate(-3.25,27.050000000026973)" style="cursor: default; font-family: Arial; font-size: 13px; fill: rgb(51, 51, 51); fill-opacity: 1; white-space: pre; text-shadow: white 1px 1px 1px, white -1px -1px 1px, white 1px -1px 1px, white -1px 1px 1px;">Logic</text></g><g class="sankey-node" transform="translate(0.000,175.000)" style="opacity: 1;"><rect class="node-rect" width="10" height="32.500000000075886" style="stroke-width: 0.5; stroke: rgb(68, 68, 68); stroke-opacity: 1; fill: rgb(51, 51, 51); fill-opacity: 1;"/><text class="node-label" data-notex="1" x="0" y="0" text-anchor="start" transform="translate(13.25,20.800000000037944)" style="cursor: default; font-family: Arial; font-size: 13px; fill: rgb(51, 51, 51); fill-opacity: 1; white-space: pre; text-shadow: white 1px 1px 1px, white -1px -1px 1px, white 1px -1px 1px, white -1px 1px 1px;">Early Generations</text></g><g class="sankey-node" transform="translate(0.000,79.167)" style="opacity: 1;"><rect class="node-rect" width="10" height="70.83333333309726" style="stroke-width: 0.5; stroke: rgb(68, 68, 68); stroke-opacity: 1; fill: rgb(51, 51, 51); fill-opacity: 1;"/><text class="node-label" data-notex="1" x="0" y="0" text-anchor="start" transform="translate(13.25,39.966666666548626)" style="cursor: default; font-family: Arial; font-size: 13px; fill: rgb(51, 51, 51); fill-opacity: 1; white-space: pre; text-shadow: white 1px 1px 1px, white -1px -1px 1px, white 1px -1px 1px, white -1px 1px 1px;">Sequence-To-Sequence</text></g><g class="sankey-node" transform="translate(0.000,232.500)" style="opacity: 1;"><rect class="node-rect" width="10" height="14.166666666736148" style="stroke-width: 0.5; stroke: rgb(68, 68, 68); stroke-opacity: 1; fill: rgb(51, 51, 51); fill-opacity: 1;"/><text class="node-label" data-notex="1" x="0" y="0" text-anchor="start" transform="translate(13.25,11.633333333368075)" style="cursor: default; font-family: Arial; font-size: 13px; fill: rgb(51, 51, 51); fill-opacity: 1; white-space: pre; text-shadow: white 1px 1px 1px, white -1px -1px 1px, white 1px -1px 1px, white -1px 1px 1px;">Graphical Models</text></g><g class="sankey-node" transform="translate(0.000,271.667)" style="opacity: 1;"><rect class="node-rect" width="10" height="15.833333333494295" style="stroke-width: 0.5; stroke: rgb(68, 68, 68); stroke-opacity: 1; fill: rgb(51, 51, 51); fill-opacity: 1;"/><text class="node-label" data-notex="1" x="0" y="0" text-anchor="start" transform="translate(13.25,12.466666666747148)" style="cursor: default; font-family: Arial; font-size: 13px; fill: rgb(51, 51, 51); fill-opacity: 1; white-space: pre; text-shadow: white 1px 1px 1px, white -1px -1px 1px, white 1px -1px 1px, white -1px 1px 1px;">Memory/Attention</text></g><g class="sankey-node" transform="translate(0.000,312.500)" style="opacity: 1;"><rect class="node-rect" width="10" height="7.5000000000368345" style="stroke-width: 0.5; stroke: rgb(68, 68, 68); stroke-opacity: 1; fill: rgb(51, 51, 51); fill-opacity: 1;"/><text class="node-label" data-notex="1" x="0" y="0" text-anchor="start" transform="translate(13.25,8.300000000018418)" style="cursor: default; font-family: Arial; font-size: 13px; fill: rgb(51, 51, 51); fill-opacity: 1; white-space: pre; text-shadow: white 1px 1px 1px, white -1px -1px 1px, white 1px -1px 1px, white -1px 1px 1px;">Nesy</text></g><g class="sankey-node" transform="translate(0.000,29.167)" style="opacity: 1;"><rect class="node-rect" width="10" height="24.999999999705878" style="stroke-width: 0.5; stroke: rgb(68, 68, 68); stroke-opacity: 1; fill: rgb(51, 51, 51); fill-opacity: 1;"/><text class="node-label" data-notex="1" x="0" y="0" text-anchor="start" transform="translate(13.25,17.04999999985294)" style="cursor: default; font-family: Arial; font-size: 13px; fill: rgb(51, 51, 51); fill-opacity: 1; white-space: pre; text-shadow: white 1px 1px 1px, white -1px -1px 1px, white 1px -1px 1px, white -1px 1px 1px;">Linear Models</text></g><g class="sankey-node" transform="translate(0.000,-0.000)" style="opacity: 1;"><rect class="node-rect" width="10" height="4.166666666853757" style="stroke-width: 0.5; stroke: rgb(68, 68, 68); stroke-opacity: 1; fill: rgb(51, 51, 51); fill-opacity: 1;"/><text class="node-label" data-notex="1" x="0" y="0" text-anchor="start" transform="translate(13.25,6.6333333334268785)" style="cursor: default; font-family: Arial; font-size: 13px; fill: rgb(51, 51, 51); fill-opacity: 1; white-space: pre; text-shadow: white 1px 1px 1px, white -1px -1px 1px, white 1px -1px 1px, white -1px 1px 1px;">Rl</text></g></g></g><defs id="topdefs-563fcc"><g class="clips"/></defs><g class="layer-above"><g class="imagelayer"/><g class="shapelayer"/></g><g class="infolayer"><g class="g-gtitle"><text class="gtitle" x="35" y="50" text-anchor="start" dy="0em" style="font-family: Arial; font-size: 18px; fill: rgb(51, 51, 51); opacity: 1; font-weight: normal; white-space: pre;">Neural to Symbolic</text></g><g class="first-render"/></g></svg>