<?xml version="1.0" encoding="utf-8"?>
<!-- Generator: Adobe Illustrator 26.0.2, SVG Export Plug-In . SVG Version: 6.00 Build 0)  -->
<svg version="1.1" id="Layer_1" xmlns="http://www.w3.org/2000/svg" xmlns:xlink="http://www.w3.org/1999/xlink" x="0px" y="0px"
	 viewBox="0 0 737 288" style="enable-background:new 0 0 737 288;" xml:space="preserve">
<style type="text/css">
	.st0{fill:#450256;}
	.st1{fill:none;stroke:#333333;stroke-linecap:square;stroke-linejoin:round;}
	.st2{fill:none;stroke:#333333;stroke-linecap:square;stroke-linejoin:round;stroke-dasharray:6.0447,6.0447;}
</style>
<g id="figure_1">
	<g id="axes_1">
		<g id="patch_3">
			<g>
				<path class="st0" d="M388.1,252h55.3v-41.4h-55.3V252z"/>
			</g>
		</g>
		<g id="patch_4">
			<g>
				<path class="st0" d="M443.4,252h55.3V141.6h-55.3V252z"/>
			</g>
		</g>
		<g id="patch_5">
			<g>
				<path class="st0" d="M498.7,252h55.3V44.9h-55.3V252z"/>
			</g>
		</g>
		<g id="patch_6">
			<g>
				<path class="st0" d="M554.1,252h55.3v-82.8h-55.3V252z"/>
			</g>
		</g>
		<g id="patch_7">
			<g>
				<path class="st0" d="M609.4,252h55.3v-27.6h-55.3V252z"/>
			</g>
		</g>
		<g id="line2d_6">
			<g>
				<g>
					<line class="st1" x1="374.2" y1="235.5" x2="376.9" y2="234.1"/>
					<polyline class="st2" points="382.1,231 383.5,230.2 386.5,228.2 389.6,226 392.7,223.8 395.8,221.3 398.8,218.8 401.9,216.1 
						405,213.2 408.1,210.2 411.1,207.1 414.2,203.9 417.3,200.5 420.4,197 423.4,193.4 426.5,189.6 429.6,185.8 432.6,181.9 
						435.7,177.8 438.8,173.8 441.9,169.6 444.9,165.5 448,161.3 451.1,157.1 454.2,152.9 457.2,148.7 460.3,144.6 463.4,140.5 
						466.5,136.5 469.5,132.7 472.6,128.9 475.7,125.3 478.8,121.9 481.8,118.6 484.9,115.6 488,112.7 491.1,110.1 494.1,107.8 
						497.2,105.7 500.3,103.9 503.4,102.3 506.4,101.1 509.5,100.1 512.6,99.5 515.7,99.2 518.7,99.2 521.8,99.5 524.9,100.1 
						528,101 531,102.3 534.1,103.8 537.2,105.6 540.3,107.7 543.3,110 546.4,112.6 549.5,115.5 552.5,118.5 555.6,121.8 
						558.7,125.2 561.8,128.8 564.8,132.5 567.9,136.4 571,140.3 574.1,144.4 577.1,148.5 580.2,152.7 583.3,156.9 586.4,161.1 
						589.4,165.3 592.5,169.5 595.6,173.6 598.7,177.7 601.7,181.7 604.8,185.6 607.9,189.5 611,193.2 614,196.8 617.1,200.3 
						620.2,203.7 623.3,207 626.3,210.1 629.4,213.1 632.5,215.9 635.6,218.7 638.6,221.2 641.7,223.7 644.8,225.9 647.9,228.1 
						650.9,230.1 654,232 657.1,233.8 660.2,235.4 663.2,236.9 666.3,238.4 669.4,239.7 672.5,240.9 672.9,241 					"/>
					<line class="st1" x1="675.8" y1="242.1" x2="678.6" y2="243"/>
				</g>
			</g>
		</g>
		<g id="text_6">
			<g transform="translate(92.392256 206.410881)scale(0.1 -0.1)">
				<g>
					<path id="DejaVuSans-51" d="M3090.8,39.3c4.7-1,8.4-3.1,11-6.3c2.7-3.2,4-7.1,4-11.8c0-7.2-2.5-12.8-7.4-16.7
						c-4.9-3.9-12-5.9-21.1-5.9c-3.1,0-6.2,0.3-9.4,0.9c-3.2,0.6-6.6,1.5-10,2.7v9.5c2.7-1.6,5.7-2.8,9-3.6
						c3.3-0.8,6.7-1.2,10.2-1.2c6.2,0,10.9,1.2,14.1,3.7c3.2,2.4,4.9,6,4.9,10.6c0,4.3-1.5,7.7-4.5,10.1c-3,2.4-7.2,3.6-12.6,3.6
						h-8.5V43h8.9c4.8,0,8.6,1,11.1,2.9c2.6,1.9,3.9,4.7,3.9,8.4c0,3.7-1.3,6.6-4,8.6c-2.6,2-6.4,3-11.4,3c-2.7,0-5.6-0.3-8.7-0.9
						c-3.1-0.6-6.5-1.5-10.2-2.7v8.8c3.8,1,7.3,1.8,10.5,2.3c3.3,0.5,6.4,0.8,9.2,0.8c7.5,0,13.4-1.7,17.8-5.1
						c4.4-3.4,6.5-8,6.5-13.8c0-4-1.2-7.5-3.5-10.2S3095,40.4,3090.8,39.3z"/>
				</g>
			</g>
		</g>
		<g id="text_7">
			<g transform="translate(147.731099 137.382309)scale(0.1 -0.1)">
				<g>
					<path id="DejaVuSans-56_00000172439057062816090640000017882781831326030734_" d="M3082,34.6c-4.7,0-8.4-1.3-11.1-3.8
						c-2.7-2.5-4-6-4-10.3c0-4.4,1.3-7.8,4-10.4c2.7-2.5,6.4-3.8,11.1-3.8s8.4,1.3,11.1,3.8c2.7,2.5,4.1,6,4.1,10.3
						c0,4.4-1.3,7.8-4,10.3C3090.4,33.4,3086.7,34.6,3082,34.6z M3072.1,38.8c-4.2,1-7.5,3-9.9,5.9c-2.4,2.9-3.5,6.4-3.5,10.6
						c0,5.8,2.1,10.4,6.2,13.8c4.2,3.4,9.8,5.1,17.1,5.1c7.3,0,13-1.7,17.1-5.1c4.1-3.4,6.2-8,6.2-13.8c0-4.2-1.2-7.7-3.5-10.6
						c-2.4-2.9-5.6-4.9-9.8-5.9c4.8-1.1,8.4-3.3,11.1-6.5c2.7-3.2,4-7.2,4-11.8c0-7.1-2.2-12.5-6.5-16.3c-4.3-3.8-10.5-5.7-18.5-5.7
						c-8,0-14.2,1.9-18.5,5.7c-4.3,3.8-6.5,9.2-6.5,16.3c0,4.6,1.3,8.6,4,11.8C3063.6,35.5,3067.3,37.7,3072.1,38.8z M3068.5,54.4
						c0-3.8,1.2-6.7,3.5-8.8c2.4-2.1,5.7-3.2,9.9-3.2c4.2,0,7.6,1.1,9.9,3.2c2.4,2.1,3.6,5.1,3.6,8.8c0,3.8-1.2,6.7-3.6,8.8
						c-2.4,2.1-5.7,3.2-9.9,3.2c-4.3,0-7.6-1.1-9.9-3.2C3069.7,61.1,3068.5,58.2,3068.5,54.4z"/>
				</g>
			</g>
		</g>
		<g id="text_8">
			<g transform="translate(203.069942 40.742309)scale(0.1 -0.1)">
				<g>
					<path id="DejaVuSans-49_00000130622294993933371930000002793807105586328452_" d="M3158.5,18.3h16.1v55.6l-17.5-3.5v9l17.4,3.5
						h9.9V18.3h16.1V10h-42V18.3z"/>
				</g>
				<g>
					<path id="DejaVuSans-53" d="M3220.5,82.9h38.7v-8.3h-29.7V56.7c1.4,0.5,2.9,0.9,4.3,1.1c1.4,0.2,2.9,0.4,4.3,0.4
						c8.1,0,14.6-2.2,19.3-6.7c4.8-4.5,7.1-10.5,7.1-18.1c0-7.8-2.4-13.9-7.3-18.3c-4.9-4.3-11.8-6.5-20.7-6.5
						c-3.1,0-6.2,0.3-9.4,0.8c-3.2,0.5-6.4,1.3-9.8,2.3v9.9c2.9-1.6,6-2.8,9.1-3.6s6.4-1.2,9.9-1.2c5.6,0,10.1,1.5,13.4,4.4
						c3.3,3,4.9,7,4.9,12.1c0,5.1-1.6,9.1-4.9,12c-3.3,3-7.7,4.5-13.4,4.5c-2.6,0-5.3-0.3-7.9-0.9c-2.6-0.6-5.3-1.5-8-2.7V82.9z"/>
				</g>
			</g>
		</g>
		<g id="text_9">
			<g transform="translate(258.408785 164.993738)scale(0.1 -0.1)">
				<g>
					<path id="DejaVuSans-54_00000096758020591623344130000013530113375508071066_" d="M3083.2,40.4c-4.4,0-7.9-1.5-10.5-4.5
						c-2.6-3-3.9-7.2-3.9-12.4c0-5.2,1.3-9.4,3.9-12.4c2.6-3,6.1-4.6,10.5-4.6c4.4,0,7.9,1.5,10.5,4.6c2.6,3.1,3.9,7.2,3.9,12.4
						c0,5.3-1.3,9.4-3.9,12.4C3091.1,38.9,3087.6,40.4,3083.2,40.4z M3102.8,71.3v-9c-2.5,1.2-5,2.1-7.5,2.7c-2.5,0.6-5,0.9-7.5,0.9
						c-6.5,0-11.5-2.2-14.9-6.6c-3.4-4.4-5.4-11-5.9-19.9c1.9,2.8,4.3,5,7.2,6.5c2.9,1.5,6.1,2.3,9.6,2.3c7.3,0,13.1-2.2,17.4-6.7
						c4.2-4.4,6.4-10.5,6.4-18.1c0-7.5-2.2-13.5-6.6-18c-4.4-4.5-10.3-6.8-17.7-6.8c-8.4,0-14.9,3.2-19.3,9.7
						c-4.5,6.5-6.7,15.8-6.7,28.1c0,11.5,2.7,20.7,8.2,27.6c5.5,6.9,12.8,10.3,22,10.3c2.5,0,5-0.2,7.5-0.7
						C3097.4,73,3100,72.3,3102.8,71.3z"/>
				</g>
			</g>
		</g>
		<g id="text_10">
			<g transform="translate(313.747628 220.216595)scale(0.1 -0.1)">
				<g>
					<path id="DejaVuSans-50" d="M3069.4,8.3h34.4V0h-46.3v8.3c3.7,3.9,8.8,9.1,15.3,15.6c6.5,6.5,10.5,10.7,12.2,12.6
						c3.2,3.5,5.4,6.5,6.6,9c1.3,2.5,1.9,4.9,1.9,7.2c0,3.9-1.4,7-4.1,9.5c-2.7,2.4-6.3,3.7-10.6,3.7c-3.1,0-6.4-0.5-9.8-1.6
						c-3.4-1.1-7.1-2.7-11-4.9v10c4,1.6,7.7,2.8,11.1,3.6c3.5,0.8,6.6,1.2,9.5,1.2c7.6,0,13.6-1.9,18.1-5.7
						c4.5-3.8,6.7-8.8,6.7-15.1c0-3-0.6-5.8-1.7-8.5c-1.1-2.7-3.2-5.8-6.1-9.5c-0.8-0.9-3.4-3.7-7.8-8.2
						C3083.5,22.7,3077.3,16.4,3069.4,8.3z"/>
				</g>
			</g>
		</g>
		<g id="text_11">
			<g transform="translate(168.39125 28.56)scale(0.16 -0.16)">
				<g>
					<path id="DejaVuSans-32" d="M2195.1,0"/>
				</g>
			</g>
		</g>
	</g>
</g>
<g>
	<path d="M345.3,267.5l1.3-0.1c0.1,0.6,0.3,1.1,0.7,1.4c0.3,0.3,0.8,0.5,1.3,0.5c0.6,0,1.1-0.2,1.5-0.7s0.6-1,0.6-1.8
		c0-0.7-0.2-1.3-0.6-1.7s-0.9-0.6-1.5-0.6c-0.4,0-0.8,0.1-1.1,0.3c-0.3,0.2-0.6,0.4-0.8,0.7l-1.2-0.2l1-5.1h5v1.2h-4l-0.5,2.7
		c0.6-0.4,1.2-0.6,1.9-0.6c0.9,0,1.6,0.3,2.2,0.9s0.9,1.4,0.9,2.3c0,0.9-0.3,1.7-0.8,2.4c-0.6,0.8-1.5,1.2-2.6,1.2
		c-0.9,0-1.7-0.3-2.2-0.8S345.4,268.3,345.3,267.5z"/>
	<path d="M353.1,265.2c0-1.2,0.1-2.1,0.4-2.9c0.2-0.7,0.6-1.3,1.1-1.7s1.1-0.6,1.8-0.6c0.5,0,1,0.1,1.4,0.3c0.4,0.2,0.7,0.5,1,0.9
		c0.3,0.4,0.5,0.9,0.6,1.5c0.2,0.6,0.2,1.4,0.2,2.4c0,1.2-0.1,2.1-0.4,2.8c-0.2,0.7-0.6,1.3-1.1,1.7c-0.5,0.4-1.1,0.6-1.8,0.6
		c-1,0-1.7-0.3-2.3-1C353.4,268.4,353.1,267,353.1,265.2z M354.3,265.2c0,1.6,0.2,2.7,0.6,3.3c0.4,0.5,0.9,0.8,1.4,0.8
		s1-0.3,1.4-0.8s0.6-1.6,0.6-3.3c0-1.6-0.2-2.7-0.6-3.3s-0.9-0.8-1.4-0.8c-0.6,0-1,0.2-1.4,0.7C354.6,262.4,354.3,263.5,354.3,265.2
		z"/>
	<path d="M361.1,262.5c0-0.7,0.2-1.3,0.5-1.8s0.9-0.8,1.6-0.8c0.6,0,1.1,0.2,1.6,0.7c0.4,0.4,0.6,1.1,0.6,2c0,0.8-0.2,1.5-0.6,2
		c-0.4,0.5-0.9,0.7-1.5,0.7c-0.6,0-1.1-0.2-1.5-0.7S361.1,263.4,361.1,262.5z M363.2,260.8c-0.3,0-0.6,0.1-0.8,0.4s-0.3,0.8-0.3,1.5
		c0,0.6,0.1,1.1,0.3,1.4c0.2,0.3,0.5,0.4,0.8,0.4c0.3,0,0.6-0.1,0.8-0.4s0.3-0.7,0.3-1.4c0-0.6-0.1-1.1-0.3-1.4
		C363.8,260.9,363.5,260.8,363.2,260.8z M363.2,270.5l5.5-10.6h1l-5.5,10.6H363.2z M367.6,267.8c0-0.7,0.2-1.3,0.5-1.8
		c0.4-0.5,0.9-0.7,1.6-0.7c0.6,0,1.1,0.2,1.6,0.7c0.4,0.4,0.6,1.1,0.6,2c0,0.8-0.2,1.5-0.6,2c-0.4,0.5-0.9,0.7-1.5,0.7
		c-0.6,0-1.1-0.2-1.5-0.7C367.8,269.3,367.6,268.7,367.6,267.8z M369.7,266c-0.3,0-0.6,0.1-0.8,0.4s-0.3,0.8-0.3,1.5
		c0,0.6,0.1,1.1,0.3,1.4s0.5,0.4,0.8,0.4c0.3,0,0.6-0.1,0.8-0.4s0.3-0.7,0.3-1.4c0-0.6-0.1-1.1-0.3-1.4
		C370.3,266.2,370,266,369.7,266z"/>
</g>
<g>
	<path d="M414.1,262.5l-1.2,0.1c-0.1-0.5-0.3-0.8-0.5-1.1c-0.3-0.4-0.7-0.5-1.2-0.5c-0.4,0-0.7,0.1-1,0.3c-0.4,0.3-0.7,0.7-0.9,1.2
		s-0.3,1.3-0.3,2.3c0.3-0.5,0.7-0.8,1.1-1s0.9-0.3,1.3-0.3c0.8,0,1.5,0.3,2.1,0.9c0.6,0.6,0.9,1.4,0.9,2.3c0,0.6-0.1,1.2-0.4,1.8
		c-0.3,0.5-0.6,1-1.1,1.2s-1,0.4-1.6,0.4c-1,0-1.9-0.4-2.5-1.1c-0.6-0.8-1-2-1-3.7c0-1.9,0.4-3.3,1.1-4.2c0.6-0.8,1.5-1.1,2.5-1.1
		c0.8,0,1.4,0.2,1.9,0.7S414,261.8,414.1,262.5z M409.1,266.9c0,0.4,0.1,0.8,0.3,1.2s0.4,0.7,0.8,0.9c0.3,0.2,0.7,0.3,1,0.3
		c0.5,0,1-0.2,1.3-0.6s0.6-1,0.6-1.7c0-0.7-0.2-1.2-0.6-1.6c-0.4-0.4-0.8-0.6-1.4-0.6c-0.6,0-1,0.2-1.4,0.6
		C409.3,265.7,409.1,266.2,409.1,266.9z"/>
	<path d="M415.5,265.2c0-1.2,0.1-2.1,0.4-2.9c0.2-0.7,0.6-1.3,1.1-1.7s1.1-0.6,1.8-0.6c0.5,0,1,0.1,1.4,0.3c0.4,0.2,0.7,0.5,1,0.9
		c0.3,0.4,0.5,0.9,0.6,1.5c0.2,0.6,0.2,1.4,0.2,2.4c0,1.2-0.1,2.1-0.4,2.8c-0.2,0.7-0.6,1.3-1.1,1.7c-0.5,0.4-1.1,0.6-1.8,0.6
		c-1,0-1.7-0.3-2.3-1C415.9,268.4,415.5,267,415.5,265.2z M416.8,265.2c0,1.6,0.2,2.7,0.6,3.3c0.4,0.5,0.9,0.8,1.4,0.8
		s1-0.3,1.4-0.8s0.6-1.6,0.6-3.3c0-1.6-0.2-2.7-0.6-3.3s-0.9-0.8-1.4-0.8c-0.6,0-1,0.2-1.4,0.7C417,262.4,416.8,263.5,416.8,265.2z"
		/>
	<path d="M423.5,262.5c0-0.7,0.2-1.3,0.5-1.8s0.9-0.8,1.6-0.8c0.6,0,1.1,0.2,1.6,0.7c0.4,0.4,0.6,1.1,0.6,2c0,0.8-0.2,1.5-0.6,2
		c-0.4,0.5-0.9,0.7-1.5,0.7c-0.6,0-1.1-0.2-1.5-0.7S423.5,263.4,423.5,262.5z M425.7,260.8c-0.3,0-0.6,0.1-0.8,0.4s-0.3,0.8-0.3,1.5
		c0,0.6,0.1,1.1,0.3,1.4c0.2,0.3,0.5,0.4,0.8,0.4c0.3,0,0.6-0.1,0.8-0.4s0.3-0.7,0.3-1.4c0-0.6-0.1-1.1-0.3-1.4
		C426.2,260.9,426,260.8,425.7,260.8z M425.7,270.5l5.5-10.6h1l-5.5,10.6H425.7z M430,267.8c0-0.7,0.2-1.3,0.5-1.8
		c0.4-0.5,0.9-0.7,1.6-0.7c0.6,0,1.1,0.2,1.6,0.7c0.4,0.4,0.6,1.1,0.6,2c0,0.8-0.2,1.5-0.6,2c-0.4,0.5-0.9,0.7-1.5,0.7
		c-0.6,0-1.1-0.2-1.5-0.7C430.2,269.3,430,268.7,430,267.8z M432.2,266c-0.3,0-0.6,0.1-0.8,0.4s-0.3,0.8-0.3,1.5
		c0,0.6,0.1,1.1,0.3,1.4s0.5,0.4,0.8,0.4c0.3,0,0.6-0.1,0.8-0.4s0.3-0.7,0.3-1.4c0-0.6-0.1-1.1-0.3-1.4
		C432.7,266.2,432.5,266,432.2,266z"/>
</g>
<g>
	<path d="M470.3,261.4v-1.2h6.5v1c-0.6,0.7-1.3,1.6-1.9,2.7s-1.1,2.3-1.5,3.5c-0.2,0.8-0.4,1.8-0.5,2.8h-1.3c0-0.8,0.2-1.7,0.5-2.9
		s0.7-2.2,1.3-3.2c0.6-1,1.1-1.9,1.8-2.6H470.3z"/>
	<path d="M478,265.2c0-1.2,0.1-2.1,0.4-2.9c0.2-0.7,0.6-1.3,1.1-1.7s1.1-0.6,1.8-0.6c0.5,0,1,0.1,1.4,0.3c0.4,0.2,0.7,0.5,1,0.9
		c0.3,0.4,0.5,0.9,0.6,1.5c0.2,0.6,0.2,1.4,0.2,2.4c0,1.2-0.1,2.1-0.4,2.8c-0.2,0.7-0.6,1.3-1.1,1.7c-0.5,0.4-1.1,0.6-1.8,0.6
		c-1,0-1.7-0.3-2.3-1C478.3,268.4,478,267,478,265.2z M479.2,265.2c0,1.6,0.2,2.7,0.6,3.3c0.4,0.5,0.9,0.8,1.4,0.8s1-0.3,1.4-0.8
		s0.6-1.6,0.6-3.3c0-1.6-0.2-2.7-0.6-3.3s-0.9-0.8-1.4-0.8c-0.6,0-1,0.2-1.4,0.7C479.4,262.4,479.2,263.5,479.2,265.2z"/>
	<path d="M486,262.5c0-0.7,0.2-1.3,0.5-1.8s0.9-0.8,1.6-0.8c0.6,0,1.1,0.2,1.6,0.7c0.4,0.4,0.6,1.1,0.6,2c0,0.8-0.2,1.5-0.6,2
		c-0.4,0.5-0.9,0.7-1.5,0.7c-0.6,0-1.1-0.2-1.5-0.7S486,263.4,486,262.5z M488.1,260.8c-0.3,0-0.6,0.1-0.8,0.4s-0.3,0.8-0.3,1.5
		c0,0.6,0.1,1.1,0.3,1.4c0.2,0.3,0.5,0.4,0.8,0.4c0.3,0,0.6-0.1,0.8-0.4s0.3-0.7,0.3-1.4c0-0.6-0.1-1.1-0.3-1.4
		C488.7,260.9,488.4,260.8,488.1,260.8z M488.1,270.5l5.5-10.6h1l-5.5,10.6H488.1z M492.5,267.8c0-0.7,0.2-1.3,0.5-1.8
		c0.4-0.5,0.9-0.7,1.6-0.7c0.6,0,1.1,0.2,1.6,0.7c0.4,0.4,0.6,1.1,0.6,2c0,0.8-0.2,1.5-0.6,2c-0.4,0.5-0.9,0.7-1.5,0.7
		c-0.6,0-1.1-0.2-1.5-0.7C492.7,269.3,492.5,268.7,492.5,267.8z M494.6,266c-0.3,0-0.6,0.1-0.8,0.4s-0.3,0.8-0.3,1.5
		c0,0.6,0.1,1.1,0.3,1.4s0.5,0.4,0.8,0.4c0.3,0,0.6-0.1,0.8-0.4s0.3-0.7,0.3-1.4c0-0.6-0.1-1.1-0.3-1.4
		C495.2,266.2,494.9,266,494.6,266z"/>
</g>
<g>
	<path d="M534.5,264.7c-0.5-0.2-0.9-0.5-1.1-0.8s-0.4-0.8-0.4-1.2c0-0.7,0.3-1.3,0.8-1.8c0.5-0.5,1.2-0.7,2.1-0.7
		c0.9,0,1.6,0.3,2.1,0.8c0.5,0.5,0.8,1.1,0.8,1.9c0,0.5-0.1,0.9-0.4,1.2c-0.2,0.3-0.6,0.6-1.1,0.8c0.6,0.2,1.1,0.5,1.4,1
		s0.5,1,0.5,1.6c0,0.9-0.3,1.6-0.9,2.2c-0.6,0.6-1.4,0.9-2.4,0.9c-1,0-1.8-0.3-2.4-0.9c-0.6-0.6-0.9-1.3-0.9-2.2
		c0-0.7,0.2-1.2,0.5-1.6C533.4,265.1,533.9,264.8,534.5,264.7z M533.9,267.2c0,0.4,0.1,0.7,0.2,1c0.2,0.3,0.4,0.6,0.7,0.8
		c0.3,0.2,0.7,0.3,1.1,0.3c0.6,0,1.1-0.2,1.5-0.6s0.6-0.9,0.6-1.4c0-0.6-0.2-1.1-0.6-1.5c-0.4-0.4-0.9-0.6-1.5-0.6
		c-0.6,0-1.1,0.2-1.4,0.6C534.1,266.2,533.9,266.6,533.9,267.2z M534.3,262.6c0,0.5,0.2,0.9,0.5,1.2c0.3,0.3,0.7,0.5,1.2,0.5
		c0.5,0,0.9-0.1,1.2-0.4c0.3-0.3,0.5-0.7,0.5-1.1c0-0.5-0.2-0.8-0.5-1.1c-0.3-0.3-0.7-0.5-1.2-0.5c-0.5,0-0.9,0.2-1.2,0.5
		C534.4,261.8,534.3,262.2,534.3,262.6z"/>
	<path d="M540.4,265.2c0-1.2,0.1-2.1,0.4-2.9c0.2-0.7,0.6-1.3,1.1-1.7c0.5-0.4,1.1-0.6,1.8-0.6c0.5,0,1,0.1,1.4,0.3
		c0.4,0.2,0.7,0.5,1,0.9c0.3,0.4,0.5,0.9,0.6,1.5c0.2,0.6,0.2,1.4,0.2,2.4c0,1.2-0.1,2.1-0.4,2.8c-0.2,0.7-0.6,1.3-1.1,1.7
		c-0.5,0.4-1.1,0.6-1.8,0.6c-1,0-1.7-0.3-2.3-1C540.7,268.4,540.4,267,540.4,265.2z M541.7,265.2c0,1.6,0.2,2.7,0.6,3.3
		c0.4,0.5,0.9,0.8,1.4,0.8c0.6,0,1-0.3,1.4-0.8c0.4-0.5,0.6-1.6,0.6-3.3c0-1.6-0.2-2.7-0.6-3.3c-0.4-0.5-0.9-0.8-1.4-0.8
		c-0.6,0-1,0.2-1.4,0.7C541.9,262.4,541.7,263.5,541.7,265.2z"/>
	<path d="M548.4,262.5c0-0.7,0.2-1.3,0.5-1.8c0.4-0.5,0.9-0.8,1.6-0.8c0.6,0,1.1,0.2,1.6,0.7c0.4,0.4,0.6,1.1,0.6,2
		c0,0.8-0.2,1.5-0.6,2c-0.4,0.5-0.9,0.7-1.5,0.7c-0.6,0-1.1-0.2-1.5-0.7S548.4,263.4,548.4,262.5z M550.6,260.8
		c-0.3,0-0.6,0.1-0.8,0.4c-0.2,0.3-0.3,0.8-0.3,1.5c0,0.6,0.1,1.1,0.3,1.4c0.2,0.3,0.5,0.4,0.8,0.4c0.3,0,0.6-0.1,0.8-0.4
		c0.2-0.3,0.3-0.7,0.3-1.4c0-0.6-0.1-1.1-0.3-1.4C551.1,260.9,550.9,260.8,550.6,260.8z M550.6,270.5l5.5-10.6h1l-5.5,10.6H550.6z
		 M554.9,267.8c0-0.7,0.2-1.3,0.5-1.8c0.4-0.5,0.9-0.7,1.6-0.7c0.6,0,1.1,0.2,1.6,0.7c0.4,0.4,0.6,1.1,0.6,2c0,0.8-0.2,1.5-0.6,2
		c-0.4,0.5-0.9,0.7-1.5,0.7c-0.6,0-1.1-0.2-1.5-0.7C555.1,269.3,554.9,268.7,554.9,267.8z M557.1,266c-0.3,0-0.6,0.1-0.8,0.4
		c-0.2,0.3-0.3,0.8-0.3,1.5c0,0.6,0.1,1.1,0.3,1.4s0.5,0.4,0.8,0.4c0.3,0,0.6-0.1,0.8-0.4c0.2-0.3,0.3-0.7,0.3-1.4
		c0-0.6-0.1-1.1-0.3-1.4C557.6,266.2,557.4,266,557.1,266z"/>
</g>
<g>
	<path d="M595.3,267.8l1.2-0.1c0.1,0.6,0.3,1,0.6,1.2c0.3,0.3,0.6,0.4,1.1,0.4c0.4,0,0.7-0.1,1-0.3c0.3-0.2,0.5-0.4,0.7-0.7
		c0.2-0.3,0.3-0.7,0.5-1.2s0.2-1,0.2-1.5c0-0.1,0-0.1,0-0.2c-0.2,0.4-0.6,0.7-1,1c-0.4,0.2-0.9,0.4-1.4,0.4c-0.8,0-1.5-0.3-2.1-0.9
		s-0.9-1.4-0.9-2.4c0-1,0.3-1.8,0.9-2.5c0.6-0.6,1.3-0.9,2.3-0.9c0.7,0,1.2,0.2,1.8,0.5s1,0.9,1.2,1.5c0.3,0.6,0.4,1.6,0.4,2.8
		c0,1.3-0.1,2.3-0.4,3.1c-0.3,0.8-0.7,1.3-1.2,1.7c-0.5,0.4-1.2,0.6-1.9,0.6c-0.8,0-1.4-0.2-1.9-0.7
		C595.7,269.2,595.4,268.6,595.3,267.8z M600.3,263.4c0-0.7-0.2-1.3-0.6-1.7s-0.8-0.6-1.4-0.6c-0.5,0-1,0.2-1.4,0.7
		c-0.4,0.4-0.6,1-0.6,1.7c0,0.6,0.2,1.2,0.6,1.6c0.4,0.4,0.9,0.6,1.4,0.6c0.6,0,1-0.2,1.4-0.6C600.1,264.6,600.3,264.1,600.3,263.4z
		"/>
	<path d="M602.9,265.2c0-1.2,0.1-2.1,0.4-2.9c0.2-0.7,0.6-1.3,1.1-1.7c0.5-0.4,1.1-0.6,1.8-0.6c0.5,0,1,0.1,1.4,0.3
		c0.4,0.2,0.7,0.5,1,0.9c0.3,0.4,0.5,0.9,0.6,1.5c0.2,0.6,0.2,1.4,0.2,2.4c0,1.2-0.1,2.1-0.4,2.8c-0.2,0.7-0.6,1.3-1.1,1.7
		c-0.5,0.4-1.1,0.6-1.8,0.6c-1,0-1.7-0.3-2.3-1C603.2,268.4,602.9,267,602.9,265.2z M604.1,265.2c0,1.6,0.2,2.7,0.6,3.3
		c0.4,0.5,0.9,0.8,1.4,0.8c0.6,0,1-0.3,1.4-0.8c0.4-0.5,0.6-1.6,0.6-3.3c0-1.6-0.2-2.7-0.6-3.3c-0.4-0.5-0.9-0.8-1.4-0.8
		c-0.6,0-1,0.2-1.4,0.7C604.3,262.4,604.1,263.5,604.1,265.2z"/>
	<path d="M610.9,262.5c0-0.7,0.2-1.3,0.5-1.8c0.4-0.5,0.9-0.8,1.6-0.8c0.6,0,1.1,0.2,1.6,0.7c0.4,0.4,0.6,1.1,0.6,2
		c0,0.8-0.2,1.5-0.6,2c-0.4,0.5-0.9,0.7-1.5,0.7c-0.6,0-1.1-0.2-1.5-0.7S610.9,263.4,610.9,262.5z M613,260.8
		c-0.3,0-0.6,0.1-0.8,0.4c-0.2,0.3-0.3,0.8-0.3,1.5c0,0.6,0.1,1.1,0.3,1.4c0.2,0.3,0.5,0.4,0.8,0.4c0.3,0,0.6-0.1,0.8-0.4
		c0.2-0.3,0.3-0.7,0.3-1.4c0-0.6-0.1-1.1-0.3-1.4C613.6,260.9,613.3,260.8,613,260.8z M613,270.5l5.5-10.6h1l-5.5,10.6H613z
		 M617.4,267.8c0-0.7,0.2-1.3,0.5-1.8c0.4-0.5,0.9-0.7,1.6-0.7c0.6,0,1.1,0.2,1.6,0.7c0.4,0.4,0.6,1.1,0.6,2c0,0.8-0.2,1.5-0.6,2
		c-0.4,0.5-0.9,0.7-1.5,0.7c-0.6,0-1.1-0.2-1.5-0.7C617.6,269.3,617.4,268.7,617.4,267.8z M619.5,266c-0.3,0-0.6,0.1-0.8,0.4
		c-0.2,0.3-0.3,0.8-0.3,1.5c0,0.6,0.1,1.1,0.3,1.4s0.5,0.4,0.8,0.4c0.3,0,0.6-0.1,0.8-0.4c0.2-0.3,0.3-0.7,0.3-1.4
		c0-0.6-0.1-1.1-0.3-1.4C620.1,266.2,619.8,266,619.5,266z"/>
</g>
<g>
	<path d="M658.3,270.1H657v-7.8c-0.3,0.3-0.7,0.6-1.2,0.8c-0.5,0.3-0.9,0.5-1.3,0.6v-1.2c0.7-0.3,1.3-0.7,1.8-1.2
		c0.5-0.5,0.9-0.9,1.1-1.3h0.8V270.1z"/>
	<path d="M661.4,265.2c0-1.2,0.1-2.1,0.4-2.9c0.2-0.7,0.6-1.3,1.1-1.7c0.5-0.4,1.1-0.6,1.8-0.6c0.5,0,1,0.1,1.4,0.3
		c0.4,0.2,0.7,0.5,1,0.9c0.3,0.4,0.5,0.9,0.6,1.5c0.2,0.6,0.2,1.4,0.2,2.4c0,1.2-0.1,2.1-0.4,2.8c-0.2,0.7-0.6,1.3-1.1,1.7
		c-0.5,0.4-1.1,0.6-1.8,0.6c-1,0-1.7-0.3-2.3-1C661.7,268.4,661.4,267,661.4,265.2z M662.7,265.2c0,1.6,0.2,2.7,0.6,3.3
		c0.4,0.5,0.9,0.8,1.4,0.8c0.6,0,1-0.3,1.4-0.8c0.4-0.5,0.6-1.6,0.6-3.3c0-1.6-0.2-2.7-0.6-3.3c-0.4-0.5-0.9-0.8-1.4-0.8
		c-0.6,0-1,0.2-1.4,0.7C662.9,262.4,662.7,263.5,662.7,265.2z"/>
	<path d="M669.2,265.2c0-1.2,0.1-2.1,0.4-2.9c0.2-0.7,0.6-1.3,1.1-1.7c0.5-0.4,1.1-0.6,1.8-0.6c0.5,0,1,0.1,1.4,0.3
		c0.4,0.2,0.7,0.5,1,0.9c0.3,0.4,0.5,0.9,0.6,1.5c0.2,0.6,0.2,1.4,0.2,2.4c0,1.2-0.1,2.1-0.4,2.8c-0.2,0.7-0.6,1.3-1.1,1.7
		c-0.5,0.4-1.1,0.6-1.8,0.6c-1,0-1.7-0.3-2.3-1C669.5,268.4,669.2,267,669.2,265.2z M670.5,265.2c0,1.6,0.2,2.7,0.6,3.3
		c0.4,0.5,0.9,0.8,1.4,0.8c0.6,0,1-0.3,1.4-0.8c0.4-0.5,0.6-1.6,0.6-3.3c0-1.6-0.2-2.7-0.6-3.3c-0.4-0.5-0.9-0.8-1.4-0.8
		c-0.6,0-1,0.2-1.4,0.7C670.7,262.4,670.5,263.5,670.5,265.2z"/>
	<path d="M677.2,262.5c0-0.7,0.2-1.3,0.5-1.8c0.4-0.5,0.9-0.8,1.6-0.8c0.6,0,1.1,0.2,1.6,0.7c0.4,0.4,0.6,1.1,0.6,2
		c0,0.8-0.2,1.5-0.6,2c-0.4,0.5-0.9,0.7-1.5,0.7c-0.6,0-1.1-0.2-1.5-0.7S677.2,263.4,677.2,262.5z M679.4,260.8
		c-0.3,0-0.6,0.1-0.8,0.4c-0.2,0.3-0.3,0.8-0.3,1.5c0,0.6,0.1,1.1,0.3,1.4c0.2,0.3,0.5,0.4,0.8,0.4c0.3,0,0.6-0.1,0.8-0.4
		c0.2-0.3,0.3-0.7,0.3-1.4c0-0.6-0.1-1.1-0.3-1.4C679.9,260.9,679.7,260.8,679.4,260.8z M679.4,270.5l5.5-10.6h1l-5.5,10.6H679.4z
		 M683.7,267.8c0-0.7,0.2-1.3,0.5-1.8c0.4-0.5,0.9-0.7,1.6-0.7c0.6,0,1.1,0.2,1.6,0.7c0.4,0.4,0.6,1.1,0.6,2c0,0.8-0.2,1.5-0.6,2
		c-0.4,0.5-0.9,0.7-1.5,0.7c-0.6,0-1.1-0.2-1.5-0.7C683.9,269.3,683.7,268.7,683.7,267.8z M685.9,266c-0.3,0-0.6,0.1-0.8,0.4
		c-0.2,0.3-0.3,0.8-0.3,1.5c0,0.6,0.1,1.1,0.3,1.4s0.5,0.4,0.8,0.4c0.3,0,0.6-0.1,0.8-0.4c0.2-0.3,0.3-0.7,0.3-1.4
		c0-0.6-0.1-1.1-0.3-1.4C686.4,266.2,686.2,266,685.9,266z"/>
</g>
<g>
	<path d="M286.8,270.1v-2.4h-4.3v-1.1l4.6-6.5h1v6.5h1.4v1.1H288v2.4H286.8z M286.8,266.6v-4.5l-3.1,4.5H286.8z"/>
	<path d="M290.6,265.2c0-1.2,0.1-2.1,0.4-2.9c0.2-0.7,0.6-1.3,1.1-1.7s1.1-0.6,1.8-0.6c0.5,0,1,0.1,1.4,0.3c0.4,0.2,0.7,0.5,1,0.9
		c0.3,0.4,0.5,0.9,0.6,1.5c0.2,0.6,0.2,1.4,0.2,2.4c0,1.2-0.1,2.1-0.4,2.8c-0.2,0.7-0.6,1.3-1.1,1.7c-0.5,0.4-1.1,0.6-1.8,0.6
		c-1,0-1.7-0.3-2.3-1C291,268.4,290.6,267,290.6,265.2z M291.9,265.2c0,1.6,0.2,2.7,0.6,3.3c0.4,0.5,0.9,0.8,1.4,0.8s1-0.3,1.4-0.8
		s0.6-1.6,0.6-3.3c0-1.6-0.2-2.7-0.6-3.3s-0.9-0.8-1.4-0.8c-0.6,0-1,0.2-1.4,0.7C292.1,262.4,291.9,263.5,291.9,265.2z"/>
	<path d="M298.6,262.5c0-0.7,0.2-1.3,0.5-1.8s0.9-0.8,1.6-0.8c0.6,0,1.1,0.2,1.6,0.7c0.4,0.4,0.6,1.1,0.6,2c0,0.8-0.2,1.5-0.6,2
		c-0.4,0.5-0.9,0.7-1.5,0.7c-0.6,0-1.1-0.2-1.5-0.7S298.6,263.4,298.6,262.5z M300.8,260.8c-0.3,0-0.6,0.1-0.8,0.4s-0.3,0.8-0.3,1.5
		c0,0.6,0.1,1.1,0.3,1.4c0.2,0.3,0.5,0.4,0.8,0.4c0.3,0,0.6-0.1,0.8-0.4s0.3-0.7,0.3-1.4c0-0.6-0.1-1.1-0.3-1.4
		C301.3,260.9,301.1,260.8,300.8,260.8z M300.8,270.5l5.5-10.6h1l-5.5,10.6H300.8z M305.1,267.8c0-0.7,0.2-1.3,0.5-1.8
		c0.4-0.5,0.9-0.7,1.6-0.7c0.6,0,1.1,0.2,1.6,0.7c0.4,0.4,0.6,1.1,0.6,2c0,0.8-0.2,1.5-0.6,2c-0.4,0.5-0.9,0.7-1.5,0.7
		c-0.6,0-1.1-0.2-1.5-0.7C305.3,269.3,305.1,268.7,305.1,267.8z M307.3,266c-0.3,0-0.6,0.1-0.8,0.4s-0.3,0.8-0.3,1.5
		c0,0.6,0.1,1.1,0.3,1.4s0.5,0.4,0.8,0.4c0.3,0,0.6-0.1,0.8-0.4s0.3-0.7,0.3-1.4c0-0.6-0.1-1.1-0.3-1.4
		C307.8,266.2,307.6,266,307.3,266z"/>
</g>
<g>
	<path d="M220.4,267.5l1.2-0.2c0.1,0.7,0.4,1.2,0.7,1.5c0.3,0.3,0.8,0.5,1.2,0.5c0.6,0,1.1-0.2,1.5-0.6s0.6-0.9,0.6-1.5
		c0-0.6-0.2-1-0.6-1.4c-0.4-0.4-0.8-0.6-1.4-0.6c-0.2,0-0.5,0-0.9,0.1l0.1-1.1c0.1,0,0.1,0,0.2,0c0.5,0,1-0.1,1.4-0.4
		s0.6-0.7,0.6-1.3c0-0.5-0.2-0.8-0.5-1.1s-0.7-0.4-1.2-0.4c-0.5,0-0.9,0.2-1.2,0.5s-0.5,0.8-0.6,1.4l-1.2-0.2c0.2-0.8,0.5-1.5,1-1.9
		c0.5-0.5,1.2-0.7,2-0.7c0.5,0,1.1,0.1,1.5,0.4c0.5,0.2,0.8,0.6,1.1,1s0.4,0.8,0.4,1.3c0,0.4-0.1,0.8-0.3,1.2s-0.6,0.6-1,0.8
		c0.6,0.1,1.1,0.4,1.4,0.9c0.3,0.4,0.5,1,0.5,1.6c0,0.9-0.3,1.6-1,2.2c-0.6,0.6-1.4,0.9-2.4,0.9c-0.9,0-1.6-0.3-2.2-0.8
		S220.5,268.3,220.4,267.5z"/>
	<path d="M228.2,265.2c0-1.2,0.1-2.1,0.4-2.9c0.2-0.7,0.6-1.3,1.1-1.7s1.1-0.6,1.8-0.6c0.5,0,1,0.1,1.4,0.3c0.4,0.2,0.7,0.5,1,0.9
		c0.3,0.4,0.5,0.9,0.6,1.5c0.2,0.6,0.2,1.4,0.2,2.4c0,1.2-0.1,2.1-0.4,2.8c-0.2,0.7-0.6,1.3-1.1,1.7c-0.5,0.4-1.1,0.6-1.8,0.6
		c-1,0-1.7-0.3-2.3-1C228.5,268.4,228.2,267,228.2,265.2z M229.4,265.2c0,1.6,0.2,2.7,0.6,3.3c0.4,0.5,0.9,0.8,1.4,0.8
		s1-0.3,1.4-0.8s0.6-1.6,0.6-3.3c0-1.6-0.2-2.7-0.6-3.3s-0.9-0.8-1.4-0.8c-0.6,0-1,0.2-1.4,0.7C229.7,262.4,229.4,263.5,229.4,265.2
		z"/>
	<path d="M236.2,262.5c0-0.7,0.2-1.3,0.5-1.8s0.9-0.8,1.6-0.8c0.6,0,1.1,0.2,1.6,0.7c0.4,0.4,0.6,1.1,0.6,2c0,0.8-0.2,1.5-0.6,2
		c-0.4,0.5-0.9,0.7-1.5,0.7c-0.6,0-1.1-0.2-1.5-0.7S236.2,263.4,236.2,262.5z M238.3,260.8c-0.3,0-0.6,0.1-0.8,0.4s-0.3,0.8-0.3,1.5
		c0,0.6,0.1,1.1,0.3,1.4c0.2,0.3,0.5,0.4,0.8,0.4c0.3,0,0.6-0.1,0.8-0.4s0.3-0.7,0.3-1.4c0-0.6-0.1-1.1-0.3-1.4
		C238.9,260.9,238.6,260.8,238.3,260.8z M238.3,270.5l5.5-10.6h1l-5.5,10.6H238.3z M242.7,267.8c0-0.7,0.2-1.3,0.5-1.8
		c0.4-0.5,0.9-0.7,1.6-0.7c0.6,0,1.1,0.2,1.6,0.7c0.4,0.4,0.6,1.1,0.6,2c0,0.8-0.2,1.5-0.6,2c-0.4,0.5-0.9,0.7-1.5,0.7
		c-0.6,0-1.1-0.2-1.5-0.7C242.9,269.3,242.7,268.7,242.7,267.8z M244.8,266c-0.3,0-0.6,0.1-0.8,0.4s-0.3,0.8-0.3,1.5
		c0,0.6,0.1,1.1,0.3,1.4s0.5,0.4,0.8,0.4c0.3,0,0.6-0.1,0.8-0.4s0.3-0.7,0.3-1.4c0-0.6-0.1-1.1-0.3-1.4
		C245.4,266.2,245.1,266,244.8,266z"/>
</g>
<g>
	<path d="M164.4,268.9v1.2h-6.6c0-0.3,0-0.6,0.1-0.9c0.2-0.5,0.4-0.9,0.8-1.3s0.9-0.9,1.6-1.5c1.1-0.9,1.8-1.6,2.2-2.1
		c0.4-0.5,0.6-1,0.6-1.5c0-0.5-0.2-0.9-0.5-1.2c-0.3-0.3-0.8-0.5-1.4-0.5c-0.6,0-1.1,0.2-1.4,0.5s-0.5,0.8-0.5,1.5l-1.3-0.1
		c0.1-0.9,0.4-1.7,1-2.2c0.6-0.5,1.3-0.7,2.3-0.7c1,0,1.7,0.3,2.3,0.8s0.8,1.2,0.8,2c0,0.4-0.1,0.8-0.2,1.2s-0.4,0.8-0.8,1.2
		s-1,1-1.9,1.8c-0.7,0.6-1.2,1-1.4,1.3c-0.2,0.2-0.4,0.4-0.5,0.7H164.4z"/>
	<path d="M165.7,265.2c0-1.2,0.1-2.1,0.4-2.9c0.2-0.7,0.6-1.3,1.1-1.7s1.1-0.6,1.8-0.6c0.5,0,1,0.1,1.4,0.3c0.4,0.2,0.7,0.5,1,0.9
		c0.3,0.4,0.5,0.9,0.6,1.5c0.2,0.6,0.2,1.4,0.2,2.4c0,1.2-0.1,2.1-0.4,2.8c-0.2,0.7-0.6,1.3-1.1,1.7c-0.5,0.4-1.1,0.6-1.8,0.6
		c-1,0-1.7-0.3-2.3-1C166.1,268.4,165.7,267,165.7,265.2z M167,265.2c0,1.6,0.2,2.7,0.6,3.3c0.4,0.5,0.9,0.8,1.4,0.8s1-0.3,1.4-0.8
		s0.6-1.6,0.6-3.3c0-1.6-0.2-2.7-0.6-3.3s-0.9-0.8-1.4-0.8c-0.6,0-1,0.2-1.4,0.7C167.2,262.4,167,263.5,167,265.2z"/>
	<path d="M173.8,262.5c0-0.7,0.2-1.3,0.5-1.8s0.9-0.8,1.6-0.8c0.6,0,1.1,0.2,1.6,0.7c0.4,0.4,0.6,1.1,0.6,2c0,0.8-0.2,1.5-0.6,2
		c-0.4,0.5-0.9,0.7-1.5,0.7c-0.6,0-1.1-0.2-1.5-0.7S173.8,263.4,173.8,262.5z M175.9,260.8c-0.3,0-0.6,0.1-0.8,0.4s-0.3,0.8-0.3,1.5
		c0,0.6,0.1,1.1,0.3,1.4c0.2,0.3,0.5,0.4,0.8,0.4c0.3,0,0.6-0.1,0.8-0.4s0.3-0.7,0.3-1.4c0-0.6-0.1-1.1-0.3-1.4
		C176.5,260.9,176.2,260.8,175.9,260.8z M175.9,270.5l5.5-10.6h1l-5.5,10.6H175.9z M180.2,267.8c0-0.7,0.2-1.3,0.5-1.8
		c0.4-0.5,0.9-0.7,1.6-0.7c0.6,0,1.1,0.2,1.6,0.7c0.4,0.4,0.6,1.1,0.6,2c0,0.8-0.2,1.5-0.6,2c-0.4,0.5-0.9,0.7-1.5,0.7
		c-0.6,0-1.1-0.2-1.5-0.7C180.4,269.3,180.2,268.7,180.2,267.8z M182.4,266c-0.3,0-0.6,0.1-0.8,0.4s-0.3,0.8-0.3,1.5
		c0,0.6,0.1,1.1,0.3,1.4s0.5,0.4,0.8,0.4c0.3,0,0.6-0.1,0.8-0.4s0.3-0.7,0.3-1.4c0-0.6-0.1-1.1-0.3-1.4
		C182.9,266.2,182.7,266,182.4,266z"/>
</g>
<g>
	<path d="M100.1,270.1h-1.2v-7.8c-0.3,0.3-0.7,0.6-1.2,0.8s-0.9,0.5-1.3,0.6v-1.2c0.7-0.3,1.3-0.7,1.8-1.2s0.9-0.9,1.1-1.3h0.8
		V270.1z"/>
	<path d="M103.3,265.2c0-1.2,0.1-2.1,0.4-2.9c0.2-0.7,0.6-1.3,1.1-1.7s1.1-0.6,1.8-0.6c0.5,0,1,0.1,1.4,0.3c0.4,0.2,0.7,0.5,1,0.9
		c0.3,0.4,0.5,0.9,0.6,1.5c0.2,0.6,0.2,1.4,0.2,2.4c0,1.2-0.1,2.1-0.4,2.8c-0.2,0.7-0.6,1.3-1.1,1.7c-0.5,0.4-1.1,0.6-1.8,0.6
		c-1,0-1.7-0.3-2.3-1C103.6,268.4,103.3,267,103.3,265.2z M104.6,265.2c0,1.6,0.2,2.7,0.6,3.3c0.4,0.5,0.9,0.8,1.4,0.8
		s1-0.3,1.4-0.8s0.6-1.6,0.6-3.3c0-1.6-0.2-2.7-0.6-3.3s-0.9-0.8-1.4-0.8c-0.6,0-1,0.2-1.4,0.7C104.8,262.4,104.6,263.5,104.6,265.2
		z"/>
	<path d="M111.3,262.5c0-0.7,0.2-1.3,0.5-1.8s0.9-0.8,1.6-0.8c0.6,0,1.1,0.2,1.6,0.7c0.4,0.4,0.6,1.1,0.6,2c0,0.8-0.2,1.5-0.6,2
		c-0.4,0.5-0.9,0.7-1.5,0.7c-0.6,0-1.1-0.2-1.5-0.7S111.3,263.4,111.3,262.5z M113.4,260.8c-0.3,0-0.6,0.1-0.8,0.4s-0.3,0.8-0.3,1.5
		c0,0.6,0.1,1.1,0.3,1.4c0.2,0.3,0.5,0.4,0.8,0.4c0.3,0,0.6-0.1,0.8-0.4s0.3-0.7,0.3-1.4c0-0.6-0.1-1.1-0.3-1.4
		C114,260.9,113.7,260.8,113.4,260.8z M113.5,270.5l5.5-10.6h1l-5.5,10.6H113.5z M117.8,267.8c0-0.7,0.2-1.3,0.5-1.8
		c0.4-0.5,0.9-0.7,1.6-0.7c0.6,0,1.1,0.2,1.6,0.7c0.4,0.4,0.6,1.1,0.6,2c0,0.8-0.2,1.5-0.6,2c-0.4,0.5-0.9,0.7-1.5,0.7
		c-0.6,0-1.1-0.2-1.5-0.7C118,269.3,117.8,268.7,117.8,267.8z M119.9,266c-0.3,0-0.6,0.1-0.8,0.4s-0.3,0.8-0.3,1.5
		c0,0.6,0.1,1.1,0.3,1.4s0.5,0.4,0.8,0.4c0.3,0,0.6-0.1,0.8-0.4s0.3-0.7,0.3-1.4c0-0.6-0.1-1.1-0.3-1.4
		C120.5,266.2,120.2,266,119.9,266z"/>
</g>
<g>
	<path d="M44.8,265.2c0-1.2,0.1-2.1,0.4-2.9c0.2-0.7,0.6-1.3,1.1-1.7s1.1-0.6,1.8-0.6c0.5,0,1,0.1,1.4,0.3c0.4,0.2,0.7,0.5,1,0.9
		c0.3,0.4,0.5,0.9,0.6,1.5c0.2,0.6,0.2,1.4,0.2,2.4c0,1.2-0.1,2.1-0.4,2.8c-0.2,0.7-0.6,1.3-1.1,1.7c-0.5,0.4-1.1,0.6-1.8,0.6
		c-1,0-1.7-0.3-2.3-1C45.2,268.4,44.8,267,44.8,265.2z M46.1,265.2c0,1.6,0.2,2.7,0.6,3.3c0.4,0.5,0.9,0.8,1.4,0.8s1-0.3,1.4-0.8
		s0.6-1.6,0.6-3.3c0-1.6-0.2-2.7-0.6-3.3s-0.9-0.8-1.4-0.8c-0.6,0-1,0.2-1.4,0.7C46.3,262.4,46.1,263.5,46.1,265.2z"/>
	<path d="M52.9,262.5c0-0.7,0.2-1.3,0.5-1.8s0.9-0.8,1.6-0.8c0.6,0,1.1,0.2,1.6,0.7c0.4,0.4,0.6,1.1,0.6,2c0,0.8-0.2,1.5-0.6,2
		c-0.4,0.5-0.9,0.7-1.5,0.7c-0.6,0-1.1-0.2-1.5-0.7S52.9,263.4,52.9,262.5z M55,260.8c-0.3,0-0.6,0.1-0.8,0.4s-0.3,0.8-0.3,1.5
		c0,0.6,0.1,1.1,0.3,1.4c0.2,0.3,0.5,0.4,0.8,0.4c0.3,0,0.6-0.1,0.8-0.4s0.3-0.7,0.3-1.4c0-0.6-0.1-1.1-0.3-1.4
		C55.6,260.9,55.3,260.8,55,260.8z M55,270.5l5.5-10.6h1L56,270.5H55z M59.3,267.8c0-0.7,0.2-1.3,0.5-1.8c0.4-0.5,0.9-0.7,1.6-0.7
		c0.6,0,1.1,0.2,1.6,0.7c0.4,0.4,0.6,1.1,0.6,2c0,0.8-0.2,1.5-0.6,2c-0.4,0.5-0.9,0.7-1.5,0.7c-0.6,0-1.1-0.2-1.5-0.7
		C59.5,269.3,59.3,268.7,59.3,267.8z M61.5,266c-0.3,0-0.6,0.1-0.8,0.4s-0.3,0.8-0.3,1.5c0,0.6,0.1,1.1,0.3,1.4s0.5,0.4,0.8,0.4
		c0.3,0,0.6-0.1,0.8-0.4s0.3-0.7,0.3-1.4c0-0.6-0.1-1.1-0.3-1.4C62.1,266.2,61.8,266,61.5,266z"/>
</g>
</svg>
