<svg xmlns="http://www.w3.org/2000/svg" viewBox="0 0 776.29 321.67"><defs><style>.a,.n{fill:#333;}.a{opacity:0.25;}.b{fill:#9c4397;}.c{fill:#57bcd6;}.d{fill:#89b79f;}.e{fill:#450256;}.f{fill:#afe979;}.g{fill:#2a91a7;}.h{fill:#e26e05;}.i{fill:#008e3c;}.j{fill:#ff2f6d;}.k{fill:#301eff;}.l{fill:#930086;}.m{isolation:isolate;}</style></defs><path class="a" d="M162,302.85c260,0,260-82,520-82v5c-260,0-260,82-520,82Z" transform="translate(-60.8 -100)"/><path class="a" d="M162,177.85c260,0,260,12.15,520,12.15v5c-260,0-260-12.15-520-12.15Z" transform="translate(-60.8 -100)"/><path class="a" d="M162,235.35c260,0,260-33.68,520-33.68v5c-260,0-260,33.68-520,33.68Z" transform="translate(-60.8 -100)"/><path class="a" d="M162,166.18c260,0,260-66.18,520-66.18v5c-260,0-260,66.18-520,66.18Z" transform="translate(-60.8 -100)"/><path class="a" d="M162,189.51c260,0,260,96.32,520,96.32v5c-260,0-260-96.32-520-96.32Z" transform="translate(-60.8 -100)"/><path class="a" d="M162,171.18c260,0,260-38.68,520-38.68v5c-260,0-260,38.68-520,38.68Z" transform="translate(-60.8 -100)"/><path class="a" d="M162,335.35c260,0,260-5.35,520-5.35v5c-260,0-260,5.35-520,5.35Z" transform="translate(-60.8 -100)"/><path class="a" d="M162,403.68c260,0,260-20.35,520-20.35v5c-260,0-260,20.35-520,20.35Z" transform="translate(-60.8 -100)"/><path class="a" d="M162,240.35c260,0,260-33.68,520-33.68v5c-260,0-260,33.68-520,33.68Z" transform="translate(-60.8 -100)"/><path class="a" d="M162,256.18c260,0,260,68.82,520,68.82v5c-260,0-260-68.82-520-68.82Z" transform="translate(-60.8 -100)"/><path class="a" d="M162,245.35c260,0,260-33.68,520-33.68v2.5c-260,0-260,33.68-520,33.68Z" transform="translate(-60.8 -100)"/><path class="a" d="M162,221.18C422,221.18,422,105,682,105v2.5c-260,0-260,116.18-520,116.18Z" transform="translate(-60.8 -100)"/><path class="a" d="M162,340.35c260,0,260-5.35,520-5.35v5c-260,0-260,5.35-520,5.35Z" transform="translate(-60.8 -100)"/><path class="a" d="M162,398.68c260,0,260-53.68,520-53.68v5c-260,0-260,53.68-520,53.68Z" transform="translate(-60.8 -100)"/><path class="a" d="M162,383.68c260,0,260-135.35,520-135.35v5c-260,0-260,135.35-520,135.35Z" transform="translate(-60.8 -100)"/><path class="a" d="M162,352c260,0,260,63.82,520,63.82v1.67c-260,0-260-63.82-520-63.82Z" transform="translate(-60.8 -100)"/><path class="a" d="M162,350.35c260,0,260,31.32,520,31.32v1.66C422,383.33,422,352,162,352Z" transform="translate(-60.8 -100)"/><path class="a" d="M162,291.18c260,0,260-140.35,520-140.35v1.67c-260,0-260,140.35-520,140.35Z" transform="translate(-60.8 -100)"/><path class="a" d="M162,223.68c260,0,260-84.51,520-84.51v1.66c-260,0-260,84.52-520,84.52Z" transform="translate(-60.8 -100)"/><path class="a" d="M162,247.85c260,0,260-33.68,520-33.68v1.66c-260,0-260,33.68-520,33.68Z" transform="translate(-60.8 -100)"/><path class="a" d="M162,254.51c260,0,260,36.32,520,36.32v1.67c-260,0-260-36.32-520-36.32Z" transform="translate(-60.8 -100)"/><path class="a" d="M162,225.35c260,0,260-84.52,520-84.52v5c-260,0-260,84.52-520,84.52Z" transform="translate(-60.8 -100)"/><path class="a" d="M162,261.18c260,0,260,115.49,520,115.49v5c-260,0-260-115.49-520-115.49Z" transform="translate(-60.8 -100)"/><path class="a" d="M162,381.18c260,0,260-218.68,520-218.68V165c-260,0-260,218.68-520,218.68Z" transform="translate(-60.8 -100)"/><path class="a" d="M162,388.68c260,0,260-135.35,520-135.35v2.5c-260,0-260,135.35-520,135.35Z" transform="translate(-60.8 -100)"/><path class="a" d="M162,230.35c260,0,260-84.52,520-84.52v5c-260,0-260,84.52-520,84.52Z" transform="translate(-60.8 -100)"/><path class="a" d="M162,307.85c260,0,260-82,520-82v5c-260,0-260,82-520,82Z" transform="translate(-60.8 -100)"/><path class="a" d="M162,312.85c260,0,260-82,520-82v5c-260,0-260,82-520,82Z" transform="translate(-60.8 -100)"/><path class="a" d="M162,292.85c260,0,260-140.35,520-140.35v5c-260,0-260,140.35-520,140.35Z" transform="translate(-60.8 -100)"/><path class="a" d="M162,408.68c260,0,260-20.35,520-20.35v2.5c-260,0-260,20.35-520,20.35Z" transform="translate(-60.8 -100)"/><path class="a" d="M162,396.18c260,0,260-98.68,520-98.68V300c-260,0-260,98.68-520,98.68Z" transform="translate(-60.8 -100)"/><path class="a" d="M162,391.18c260,0,260-135.35,520-135.35v5c-260,0-260,135.35-520,135.35Z" transform="translate(-60.8 -100)"/><path class="a" d="M162,297.85c260,0,260-140.35,520-140.35v5c-260,0-260,140.35-520,140.35Z" transform="translate(-60.8 -100)"/><path class="a" d="M162,249.51c260,0,260-33.68,520-33.68v5c-260,0-260,33.68-520,33.68Z" transform="translate(-60.8 -100)"/><path class="a" d="M162,317.85c260,0,260-82,520-82v2.5c-260,0-260,82-520,82Z" transform="translate(-60.8 -100)"/><path class="a" d="M162,353.68c260,0,260,63.82,520,63.82V420c-260,0-260-63.82-520-63.82Z" transform="translate(-60.8 -100)"/><path class="a" d="M162,345.35c260,0,260-5.35,520-5.35v5c-260,0-260,5.35-520,5.35Z" transform="translate(-60.8 -100)"/><path class="a" d="M162,320.35c260,0,260-82,520-82v5c-260,0-260,82-520,82Z" transform="translate(-60.8 -100)"/><path class="a" d="M162,182.85c260,0,260,12.15,520,12.15v1.67c-260,0-260-12.16-520-12.16Z" transform="translate(-60.8 -100)"/><path class="a" d="M162,176.18c260,0,260-38.68,520-38.68v1.67c-260,0-260,38.68-520,38.68Z" transform="translate(-60.8 -100)"/><path class="a" d="M162,194.51C422,194.51,422,375,682,375v1.67c-260,0-260-180.49-520-180.49Z" transform="translate(-60.8 -100)"/><path class="a" d="M162,330.35c260,0,260-37.85,520-37.85v5c-260,0-260,37.85-520,37.85Z" transform="translate(-60.8 -100)"/><path class="a" d="M162,184.51c260,0,260,12.16,520,12.16v5c-260,0-260-12.16-520-12.16Z" transform="translate(-60.8 -100)"/><path class="a" d="M162,325.35c260,0,260-82,520-82v5c-260,0-260,82-520,82Z" transform="translate(-60.8 -100)"/><rect class="b" x="91.2" y="191.18" width="10" height="65"/><rect class="c" x="91.2" y="66.18" width="10" height="30"/><rect class="d" x="91.2" y="281.18" width="10" height="30"/><rect class="e" x="91.2" y="121.18" width="10" height="45"/><rect class="f" x="621.2" y="32.5" width="10" height="32.5"/><rect class="g" x="621.2" y="90" width="10" height="70.83"/><rect class="h" x="621.2" y="185.83" width="10" height="14.17"/><rect class="i" x="621.2" y="275" width="10" height="15.83"/><rect class="j" x="621.2" width="10" height="7.5"/><rect class="k" x="621.2" y="225" width="10" height="25"/><rect class="l" x="621.2" y="315.83" width="10" height="4.17"/><g class="m"><path class="n" d="M106,328.23v-9.31h4.12a5.66,5.66,0,0,1,1.89.25,2.13,2.13,0,0,1,1,.89,2.62,2.62,0,0,1,.39,1.4,2.33,2.33,0,0,1-.65,1.67,3.2,3.2,0,0,1-2,.86,3.38,3.38,0,0,1,.75.47,6.2,6.2,0,0,1,1,1.24l1.62,2.53h-1.55l-1.23-1.94c-.36-.56-.66-1-.89-1.28a2.76,2.76,0,0,0-.63-.62,1.86,1.86,0,0,0-.56-.25,3.75,3.75,0,0,0-.68,0h-1.43v4.13Zm1.23-5.2h2.64a4.1,4.1,0,0,0,1.32-.17,1.49,1.49,0,0,0,.73-.56,1.58,1.58,0,0,0,.25-.84,1.37,1.37,0,0,0-.48-1.08,2.23,2.23,0,0,0-1.52-.43h-2.94Z" transform="translate(-60.8 -100)"/><path class="n" d="M119.68,328.23v-1a2.48,2.48,0,0,1-2.14,1.14,2.8,2.8,0,0,1-1.12-.23,1.77,1.77,0,0,1-.76-.57,2.19,2.19,0,0,1-.36-.85,6.44,6.44,0,0,1-.07-1.07v-4.17h1.15v3.74a6.33,6.33,0,0,0,.07,1.2,1.19,1.19,0,0,0,.45.71,1.45,1.45,0,0,0,.87.26,1.84,1.84,0,0,0,1-.27,1.47,1.47,0,0,0,.64-.71,3.77,3.77,0,0,0,.19-1.32v-3.61h1.14v6.74Z" transform="translate(-60.8 -100)"/><path class="n" d="M122.46,328.23v-9.31h1.15v9.31Z" transform="translate(-60.8 -100)"/><path class="n" d="M130,326.06l1.18.14a2.87,2.87,0,0,1-1,1.61,3.14,3.14,0,0,1-1.93.57,3.08,3.08,0,0,1-2.35-.91,3.55,3.55,0,0,1-.86-2.55,3.76,3.76,0,0,1,.87-2.65,3,3,0,0,1,2.27-.94,2.86,2.86,0,0,1,2.21.93,3.65,3.65,0,0,1,.86,2.59c0,.06,0,.16,0,.3h-5a2.55,2.55,0,0,0,.63,1.7,1.86,1.86,0,0,0,1.4.59,1.78,1.78,0,0,0,1.08-.33A2.2,2.2,0,0,0,130,326.06Zm-3.75-1.85H130a2.28,2.28,0,0,0-.43-1.28,1.73,1.73,0,0,0-1.41-.66,1.83,1.83,0,0,0-1.33.53A2.12,2.12,0,0,0,126.24,324.21Z" transform="translate(-60.8 -100)"/><path class="n" d="M132.15,326.22l1.13-.18a1.56,1.56,0,0,0,.53,1,1.85,1.85,0,0,0,1.22.36,1.78,1.78,0,0,0,1.16-.32.93.93,0,0,0,.38-.75.7.7,0,0,0-.33-.61,5.31,5.31,0,0,0-1.17-.39,9.75,9.75,0,0,1-1.74-.55,1.61,1.61,0,0,1-.74-.64,1.65,1.65,0,0,1-.25-.9,1.74,1.74,0,0,1,.21-.84,1.8,1.8,0,0,1,.56-.64,2.42,2.42,0,0,1,.72-.33,3.53,3.53,0,0,1,1-.14,4,4,0,0,1,1.4.23,1.93,1.93,0,0,1,.88.62,2.4,2.4,0,0,1,.39,1.05l-1.11.15a1.21,1.21,0,0,0-.44-.81,1.61,1.61,0,0,0-1-.3,1.82,1.82,0,0,0-1.12.27.76.76,0,0,0-.34.6.63.63,0,0,0,.14.4,1,1,0,0,0,.44.31c.12,0,.45.14,1,.29a14.25,14.25,0,0,1,1.69.53,1.82,1.82,0,0,1,.76.6,1.69,1.69,0,0,1,.27,1,1.9,1.9,0,0,1-.33,1.07,2.16,2.16,0,0,1-1,.78,3.4,3.4,0,0,1-1.42.28,3.13,3.13,0,0,1-2-.55A2.53,2.53,0,0,1,132.15,326.22Z" transform="translate(-60.8 -100)"/></g><g class="m"><path class="n" d="M95.26,185.73v-9.31h6.28v1.1H96.49v2.88h4.37v1.1H96.49v4.23Z" transform="translate(-60.8 -100)"/><path class="n" d="M103,185.73V179h1v1a3,3,0,0,1,.73-.95,1.29,1.29,0,0,1,.73-.23,2.29,2.29,0,0,1,1.18.37l-.39,1.06a1.68,1.68,0,0,0-.84-.24,1.11,1.11,0,0,0-.68.22,1.24,1.24,0,0,0-.42.63,4.32,4.32,0,0,0-.19,1.33v3.53Z" transform="translate(-60.8 -100)"/><path class="n" d="M111.72,184.9a4.39,4.39,0,0,1-1.22.76,3.57,3.57,0,0,1-1.27.22,2.44,2.44,0,0,1-1.7-.54,1.79,1.79,0,0,1-.6-1.39,1.83,1.83,0,0,1,.23-.9,1.72,1.72,0,0,1,.59-.66,2.45,2.45,0,0,1,.82-.37,8.46,8.46,0,0,1,1-.18,10.49,10.49,0,0,0,2-.39c0-.16,0-.26,0-.3a1.24,1.24,0,0,0-.33-1,1.89,1.89,0,0,0-1.3-.39,2.11,2.11,0,0,0-1.19.28,1.8,1.8,0,0,0-.57,1l-1.11-.15a2.81,2.81,0,0,1,.5-1.16,2.23,2.23,0,0,1,1-.68,4.47,4.47,0,0,1,1.53-.24,3.93,3.93,0,0,1,1.4.21,1.61,1.61,0,0,1,1.15,1.29,6,6,0,0,1,.06,1v1.52a16.12,16.12,0,0,0,.07,2,2.46,2.46,0,0,0,.29.81H112A2.36,2.36,0,0,1,111.72,184.9Zm-.1-2.55a9.06,9.06,0,0,1-1.86.43,3.69,3.69,0,0,0-1,.23.87.87,0,0,0-.45.37.93.93,0,0,0-.16.54,1,1,0,0,0,.35.76,1.49,1.49,0,0,0,1,.31,2.36,2.36,0,0,0,1.17-.29,1.86,1.86,0,0,0,.76-.79,2.84,2.84,0,0,0,.18-1.15Z" transform="translate(-60.8 -100)"/><path class="n" d="M114.55,185.73V179h1v.94a2.36,2.36,0,0,1,.84-.79,2.44,2.44,0,0,1,1.2-.31,2.2,2.2,0,0,1,1.23.32,1.61,1.61,0,0,1,.68.87,2.42,2.42,0,0,1,2.08-1.19,2,2,0,0,1,1.54.56,2.37,2.37,0,0,1,.54,1.71v4.63h-1.13v-4.25a3.23,3.23,0,0,0-.11-1A.94.94,0,0,0,122,180a1.25,1.25,0,0,0-.68-.18,1.56,1.56,0,0,0-1.18.47,2,2,0,0,0-.47,1.51v3.92h-1.15v-4.38a1.88,1.88,0,0,0-.28-1.14,1,1,0,0,0-.91-.38,1.64,1.64,0,0,0-.89.25,1.47,1.47,0,0,0-.6.74,4.31,4.31,0,0,0-.18,1.41v3.5Z" transform="translate(-60.8 -100)"/><path class="n" d="M130,183.56l1.18.14a2.87,2.87,0,0,1-1,1.61,3.14,3.14,0,0,1-1.93.57,3.08,3.08,0,0,1-2.35-.91,3.55,3.55,0,0,1-.86-2.55,3.76,3.76,0,0,1,.87-2.65,3,3,0,0,1,2.27-.94,2.86,2.86,0,0,1,2.21.93,3.65,3.65,0,0,1,.86,2.59c0,.06,0,.16,0,.3h-5a2.55,2.55,0,0,0,.63,1.7,1.86,1.86,0,0,0,1.4.59,1.78,1.78,0,0,0,1.08-.33A2.2,2.2,0,0,0,130,183.56Zm-3.75-1.85H130a2.28,2.28,0,0,0-.43-1.28,1.73,1.73,0,0,0-1.41-.66,1.83,1.83,0,0,0-1.33.53A2.12,2.12,0,0,0,126.24,181.71Z" transform="translate(-60.8 -100)"/><path class="n" d="M132.15,183.72l1.13-.18a1.56,1.56,0,0,0,.53,1,1.85,1.85,0,0,0,1.22.36,1.78,1.78,0,0,0,1.16-.32.93.93,0,0,0,.38-.75.7.7,0,0,0-.33-.61,5.31,5.31,0,0,0-1.17-.39,9.75,9.75,0,0,1-1.74-.55,1.61,1.61,0,0,1-.74-.64,1.65,1.65,0,0,1-.25-.9,1.74,1.74,0,0,1,.21-.84,1.8,1.8,0,0,1,.56-.64,2.42,2.42,0,0,1,.72-.33,3.53,3.53,0,0,1,1-.14,4,4,0,0,1,1.4.23,1.93,1.93,0,0,1,.88.62,2.4,2.4,0,0,1,.39,1l-1.11.15a1.21,1.21,0,0,0-.44-.81,1.61,1.61,0,0,0-1-.3,1.82,1.82,0,0,0-1.12.27.76.76,0,0,0-.34.6.63.63,0,0,0,.14.4,1,1,0,0,0,.44.31c.12,0,.45.14,1,.29a14.25,14.25,0,0,1,1.69.53,1.82,1.82,0,0,1,.76.6,1.69,1.69,0,0,1,.27,1,1.9,1.9,0,0,1-.33,1.07,2.16,2.16,0,0,1-1,.78,3.4,3.4,0,0,1-1.42.28,3.13,3.13,0,0,1-2-.55A2.53,2.53,0,0,1,132.15,183.72Z" transform="translate(-60.8 -100)"/></g><g class="m"><path class="n" d="M60.8,397.74l1.16-.1a2.65,2.65,0,0,0,.39,1.14,2.13,2.13,0,0,0,.93.73,3.64,3.64,0,0,0,1.43.27,3.45,3.45,0,0,0,1.25-.21,1.76,1.76,0,0,0,.8-.57,1.3,1.3,0,0,0,.26-.8,1.2,1.2,0,0,0-.25-.76,1.89,1.89,0,0,0-.84-.55,16.14,16.14,0,0,0-1.66-.46,7.72,7.72,0,0,1-1.79-.58,2.52,2.52,0,0,1-1-.86,2.2,2.2,0,0,1-.32-1.16,2.35,2.35,0,0,1,.4-1.32,2.4,2.4,0,0,1,1.17-.93,4.44,4.44,0,0,1,1.7-.32,4.74,4.74,0,0,1,1.83.34,2.63,2.63,0,0,1,1.21,1,2.74,2.74,0,0,1,.46,1.46l-1.18.09a1.9,1.9,0,0,0-.64-1.33,2.53,2.53,0,0,0-1.63-.45,2.6,2.6,0,0,0-1.62.41,1.23,1.23,0,0,0-.52,1,1.06,1.06,0,0,0,.37.82,4.65,4.65,0,0,0,1.85.66,12.36,12.36,0,0,1,2.06.6,2.8,2.8,0,0,1,1.2.95,2.28,2.28,0,0,1,.39,1.32,2.48,2.48,0,0,1-.43,1.4,2.74,2.74,0,0,1-1.22,1,4.15,4.15,0,0,1-1.79.37,5.48,5.48,0,0,1-2.12-.37,3,3,0,0,1-1.34-1.11A3.19,3.19,0,0,1,60.8,397.74Z" transform="translate(-60.8 -100)"/><path class="n" d="M74.36,398.56l1.18.14a2.87,2.87,0,0,1-1,1.61,3.14,3.14,0,0,1-1.93.57,3.08,3.08,0,0,1-2.35-.91,3.55,3.55,0,0,1-.86-2.55,3.76,3.76,0,0,1,.87-2.65,3,3,0,0,1,2.27-.94,2.86,2.86,0,0,1,2.21.93,3.65,3.65,0,0,1,.86,2.59c0,.06,0,.16,0,.3h-5a2.6,2.6,0,0,0,.62,1.7,1.89,1.89,0,0,0,1.41.59,1.78,1.78,0,0,0,1.08-.33A2.2,2.2,0,0,0,74.36,398.56Zm-3.75-1.85h3.76a2.28,2.28,0,0,0-.43-1.28,1.73,1.73,0,0,0-1.41-.66,1.83,1.83,0,0,0-1.33.53A2.12,2.12,0,0,0,70.61,396.71Z" transform="translate(-60.8 -100)"/><path class="n" d="M77,400.73V394h1v.94a2.41,2.41,0,0,1,2-1.1,2.2,2.2,0,0,1,1.23.32A1.66,1.66,0,0,1,82,395,2.41,2.41,0,0,1,84,393.83a2,2,0,0,1,1.54.56,2.37,2.37,0,0,1,.54,1.71v4.63H85v-4.25a2.94,2.94,0,0,0-.11-1,.92.92,0,0,0-.4-.49,1.27,1.27,0,0,0-.69-.18,1.59,1.59,0,0,0-1.18.47,2.08,2.08,0,0,0-.47,1.51v3.92H81v-4.38a1.88,1.88,0,0,0-.28-1.14,1,1,0,0,0-.91-.38,1.64,1.64,0,0,0-.89.25,1.47,1.47,0,0,0-.6.74,4.31,4.31,0,0,0-.18,1.41v3.5Z" transform="translate(-60.8 -100)"/><path class="n" d="M92.2,399.9a4.25,4.25,0,0,1-1.22.76,3.48,3.48,0,0,1-1.26.22,2.47,2.47,0,0,1-1.71-.54,1.9,1.9,0,0,1,.22-2.95,2.6,2.6,0,0,1,.83-.37,8.46,8.46,0,0,1,1-.18,10.82,10.82,0,0,0,2-.39c0-.16,0-.26,0-.3a1.24,1.24,0,0,0-.33-1,1.89,1.89,0,0,0-1.3-.39,2.09,2.09,0,0,0-1.19.28,1.69,1.69,0,0,0-.57,1l-1.12-.15a2.82,2.82,0,0,1,.51-1.16,2.23,2.23,0,0,1,1-.68,4.47,4.47,0,0,1,1.53-.24,3.93,3.93,0,0,1,1.4.21,1.61,1.61,0,0,1,1.15,1.29,6.34,6.34,0,0,1,.05,1.05v1.52a15.36,15.36,0,0,0,.08,2,2.46,2.46,0,0,0,.29.81h-1.2A2.6,2.6,0,0,1,92.2,399.9Zm-.09-2.55a9.19,9.19,0,0,1-1.87.43,3.59,3.59,0,0,0-1,.23.87.87,0,0,0-.45.37.93.93,0,0,0-.16.54,1,1,0,0,0,.34.76,1.52,1.52,0,0,0,1,.31,2.36,2.36,0,0,0,1.17-.29,1.84,1.84,0,0,0,.75-.79,2.66,2.66,0,0,0,.19-1.15Z" transform="translate(-60.8 -100)"/><path class="n" d="M95,400.73V394h1v1a2.44,2.44,0,0,1,2.15-1.12,2.9,2.9,0,0,1,1.12.22,1.77,1.77,0,0,1,.76.58,2.28,2.28,0,0,1,.36.84,6.88,6.88,0,0,1,.06,1.11v4.15H99.37v-4.1a3.08,3.08,0,0,0-.13-1.05,1.11,1.11,0,0,0-.48-.55,1.45,1.45,0,0,0-.79-.2,1.83,1.83,0,0,0-1.26.46,2.26,2.26,0,0,0-.53,1.76v3.68Z" transform="translate(-60.8 -100)"/><path class="n" d="M104.76,399.71l.16,1a4.74,4.74,0,0,1-.86.1,2,2,0,0,1-1-.2,1.12,1.12,0,0,1-.49-.52,4.15,4.15,0,0,1-.14-1.35v-3.87h-.83V394h.83v-1.67l1.14-.69V394h1.15v.89h-1.15v3.94a2.07,2.07,0,0,0,.06.63.53.53,0,0,0,.2.22.81.81,0,0,0,.39.08A3.52,3.52,0,0,0,104.76,399.71Z" transform="translate(-60.8 -100)"/><path class="n" d="M105.88,392.74v-1.32H107v1.32Zm0,8V394H107v6.74Z" transform="translate(-60.8 -100)"/><path class="n" d="M113.16,398.26l1.13.15a2.86,2.86,0,0,1-1,1.81,2.71,2.71,0,0,1-1.86.66,2.89,2.89,0,0,1-2.22-.9,3.7,3.7,0,0,1-.84-2.6,4.75,4.75,0,0,1,.36-1.91,2.59,2.59,0,0,1,1.1-1.23,3.29,3.29,0,0,1,1.61-.41,2.78,2.78,0,0,1,1.79.56,2.54,2.54,0,0,1,.9,1.58l-1.11.17a1.87,1.87,0,0,0-.56-1,1.47,1.47,0,0,0-1-.35,1.79,1.79,0,0,0-1.4.62,3,3,0,0,0-.54,2,3,3,0,0,0,.52,2,1.7,1.7,0,0,0,1.36.61,1.61,1.61,0,0,0,1.12-.41A2.07,2.07,0,0,0,113.16,398.26Z" transform="translate(-60.8 -100)"/><path class="n" d="M119,400.73v-9.31h1.26l4.89,7.31v-7.31h1.18v9.31h-1.26l-4.89-7.31v7.31Z" transform="translate(-60.8 -100)"/><path class="n" d="M132.88,398.56l1.18.14a2.92,2.92,0,0,1-1,1.61,3.14,3.14,0,0,1-1.93.57,3.08,3.08,0,0,1-2.35-.91,3.55,3.55,0,0,1-.87-2.55,3.77,3.77,0,0,1,.88-2.65,3,3,0,0,1,2.27-.94,2.87,2.87,0,0,1,2.21.93,3.65,3.65,0,0,1,.86,2.59c0,.06,0,.16,0,.3h-5a2.66,2.66,0,0,0,.63,1.7,1.89,1.89,0,0,0,1.41.59,1.78,1.78,0,0,0,1.08-.33A2.2,2.2,0,0,0,132.88,398.56Zm-3.75-1.85h3.76a2.28,2.28,0,0,0-.43-1.28,1.75,1.75,0,0,0-1.41-.66,1.83,1.83,0,0,0-1.33.53A2.08,2.08,0,0,0,129.13,396.71Z" transform="translate(-60.8 -100)"/><path class="n" d="M138,399.71l.16,1a4.74,4.74,0,0,1-.86.1,2,2,0,0,1-1-.2,1.12,1.12,0,0,1-.49-.52,4.15,4.15,0,0,1-.14-1.35v-3.87h-.83V394h.83v-1.67l1.14-.69V394H138v.89h-1.15v3.94a2.07,2.07,0,0,0,.06.63.53.53,0,0,0,.2.22.81.81,0,0,0,.39.08A3.52,3.52,0,0,0,138,399.71Z" transform="translate(-60.8 -100)"/></g><g class="m"><path class="n" d="M108.12,248.23v-9.31h1.24v8.21h4.58v1.1Z" transform="translate(-60.8 -100)"/><path class="n" d="M114.83,244.86a3.5,3.5,0,0,1,1-2.78,3.14,3.14,0,0,1,2.12-.75,3,3,0,0,1,2.28.92,3.43,3.43,0,0,1,.88,2.51,4.48,4.48,0,0,1-.39,2.05,2.77,2.77,0,0,1-1.14,1.16,3.34,3.34,0,0,1-1.63.41,3,3,0,0,1-2.28-.91A3.57,3.57,0,0,1,114.83,244.86Zm1.18,0a2.92,2.92,0,0,0,.56,1.94,1.81,1.81,0,0,0,1.42.64,1.79,1.79,0,0,0,1.42-.65,2.91,2.91,0,0,0,.57-2,2.8,2.8,0,0,0-.57-1.9,1.84,1.84,0,0,0-1.42-.64,1.81,1.81,0,0,0-1.42.64A2.9,2.9,0,0,0,116,244.86Z" transform="translate(-60.8 -100)"/><path class="n" d="M122.28,248.79l1.11.16a1.1,1.1,0,0,0,.39.75,1.9,1.9,0,0,0,1.16.32,2,2,0,0,0,1.22-.32,1.55,1.55,0,0,0,.59-.89,7.59,7.59,0,0,0,.08-1.46,2.37,2.37,0,0,1-1.87.88,2.57,2.57,0,0,1-2.15-1,3.87,3.87,0,0,1-.76-2.41,4.52,4.52,0,0,1,.35-1.78,2.83,2.83,0,0,1,1-1.26,2.7,2.7,0,0,1,1.56-.45,2.43,2.43,0,0,1,2,1v-.81h1v5.82a5.47,5.47,0,0,1-.32,2.24,2.33,2.33,0,0,1-1,1A3.49,3.49,0,0,1,125,251a3.22,3.22,0,0,1-2-.54A1.82,1.82,0,0,1,122.28,248.79Zm1-4a2.91,2.91,0,0,0,.52,1.93,1.66,1.66,0,0,0,1.32.61,1.68,1.68,0,0,0,1.32-.6,3.53,3.53,0,0,0,0-3.77,1.71,1.71,0,0,0-1.33-.63,1.65,1.65,0,0,0-1.29.62A2.71,2.71,0,0,0,123.23,244.74Z" transform="translate(-60.8 -100)"/><path class="n" d="M129.73,240.24v-1.32h1.14v1.32Zm0,8v-6.74h1.14v6.74Z" transform="translate(-60.8 -100)"/><path class="n" d="M137,245.76l1.12.15a2.89,2.89,0,0,1-.94,1.81,2.76,2.76,0,0,1-1.87.66,2.89,2.89,0,0,1-2.22-.9,3.7,3.7,0,0,1-.84-2.6,4.75,4.75,0,0,1,.36-1.91,2.59,2.59,0,0,1,1.1-1.23,3.29,3.29,0,0,1,1.61-.41,2.82,2.82,0,0,1,1.8.56,2.57,2.57,0,0,1,.89,1.58l-1.11.17a1.87,1.87,0,0,0-.56-1,1.45,1.45,0,0,0-1-.35,1.79,1.79,0,0,0-1.4.62,3,3,0,0,0-.54,2,3.09,3.09,0,0,0,.52,2,1.7,1.7,0,0,0,1.36.61,1.61,1.61,0,0,0,1.12-.41A2.07,2.07,0,0,0,137,245.76Z" transform="translate(-60.8 -100)"/></g><g class="m"><path class="n" d="M699.17,154.1v-9.31h6.72v1.1H700.4v2.85h5.15v1.09H700.4V153h5.71v1.1Z" transform="translate(-60.8 -100)"/><path class="n" d="M712.06,153.27a4.25,4.25,0,0,1-1.22.76,3.48,3.48,0,0,1-1.26.22,2.43,2.43,0,0,1-1.7-.54,1.79,1.79,0,0,1-.6-1.39,1.87,1.87,0,0,1,.81-1.56,2.6,2.6,0,0,1,.83-.37,8.46,8.46,0,0,1,1-.18,10.82,10.82,0,0,0,2-.39c0-.16,0-.26,0-.3a1.24,1.24,0,0,0-.33-1,1.89,1.89,0,0,0-1.3-.39,2.09,2.09,0,0,0-1.19.28,1.72,1.72,0,0,0-.57,1l-1.11-.15a2.69,2.69,0,0,1,.5-1.16,2.23,2.23,0,0,1,1-.68,4.48,4.48,0,0,1,1.53-.23,4,4,0,0,1,1.4.2,1.61,1.61,0,0,1,1.15,1.29,6.34,6.34,0,0,1,0,1.05v1.52a15.36,15.36,0,0,0,.08,2,2.46,2.46,0,0,0,.29.81h-1.2A2.6,2.6,0,0,1,712.06,153.27Zm-.09-2.55a9.19,9.19,0,0,1-1.87.43,3.59,3.59,0,0,0-1,.23.87.87,0,0,0-.45.37.93.93,0,0,0-.16.54,1,1,0,0,0,.34.76,1.52,1.52,0,0,0,1,.31,2.36,2.36,0,0,0,1.17-.29,1.87,1.87,0,0,0,.76-.79,2.84,2.84,0,0,0,.18-1.15Z" transform="translate(-60.8 -100)"/><path class="n" d="M714.88,154.1v-6.74h1v1a2.87,2.87,0,0,1,.73-.95,1.26,1.26,0,0,1,.73-.22,2.28,2.28,0,0,1,1.18.36l-.4,1.06a1.68,1.68,0,0,0-.84-.24,1.08,1.08,0,0,0-.67.22,1.18,1.18,0,0,0-.42.63,4.32,4.32,0,0,0-.19,1.33v3.53Z" transform="translate(-60.8 -100)"/><path class="n" d="M719.2,154.1v-9.31h1.14v9.31Z" transform="translate(-60.8 -100)"/><path class="n" d="M722.06,156.69l-.12-1.07a2.34,2.34,0,0,0,.65.1,1.32,1.32,0,0,0,.61-.12,1.06,1.06,0,0,0,.37-.36,5.61,5.61,0,0,0,.35-.85l.1-.28-2.55-6.75h1.23l1.4,3.9c.18.5.34,1,.49,1.56a15.92,15.92,0,0,1,.47-1.53l1.44-3.93h1.14l-2.56,6.85a15.2,15.2,0,0,1-.64,1.53,2.28,2.28,0,0,1-.7.83,1.62,1.62,0,0,1-.94.26A2.13,2.13,0,0,1,722.06,156.69Z" transform="translate(-60.8 -100)"/><path class="n" d="M736.73,150.45v-1.09h3.94v3.45a6.7,6.7,0,0,1-1.88,1.09,5.39,5.39,0,0,1-2,.37,5.32,5.32,0,0,1-2.49-.59,3.91,3.91,0,0,1-1.69-1.7,5.36,5.36,0,0,1-.57-2.48,5.76,5.76,0,0,1,.57-2.54,3.78,3.78,0,0,1,1.63-1.74,5.14,5.14,0,0,1,2.46-.58,4.8,4.8,0,0,1,1.82.33,3,3,0,0,1,1.28.91,4,4,0,0,1,.71,1.53l-1.11.3a3.66,3.66,0,0,0-.52-1.12,2.26,2.26,0,0,0-.89-.65,3.32,3.32,0,0,0-1.28-.24,3.6,3.6,0,0,0-1.46.26,2.63,2.63,0,0,0-1,.67,3.35,3.35,0,0,0-.59.92,5,5,0,0,0-.35,1.87,4.52,4.52,0,0,0,.43,2.09,2.76,2.76,0,0,0,1.24,1.24,3.9,3.9,0,0,0,1.74.41,4.51,4.51,0,0,0,2.72-1v-1.73Z" transform="translate(-60.8 -100)"/><path class="n" d="M747,151.93l1.18.14a2.87,2.87,0,0,1-1,1.61,3.14,3.14,0,0,1-1.93.57,3.08,3.08,0,0,1-2.35-.91,3.55,3.55,0,0,1-.86-2.55,3.76,3.76,0,0,1,.87-2.65,3,3,0,0,1,2.27-.93,2.85,2.85,0,0,1,2.21.92,3.65,3.65,0,0,1,.86,2.59c0,.06,0,.16,0,.3h-5a2.6,2.6,0,0,0,.62,1.7,1.89,1.89,0,0,0,1.41.59,1.78,1.78,0,0,0,1.08-.33A2.2,2.2,0,0,0,747,151.93Zm-3.75-1.85H747a2.28,2.28,0,0,0-.43-1.28,1.73,1.73,0,0,0-1.41-.66,1.83,1.83,0,0,0-1.33.53A2.12,2.12,0,0,0,743.2,150.08Z" transform="translate(-60.8 -100)"/><path class="n" d="M749.57,154.1v-6.74h1v1a2.44,2.44,0,0,1,2.15-1.11,2.9,2.9,0,0,1,1.12.21,1.8,1.8,0,0,1,.77.58,2.44,2.44,0,0,1,.35.84A6.88,6.88,0,0,1,755,150v4.15H753.9V150a3.08,3.08,0,0,0-.13-1.05,1.14,1.14,0,0,0-.47-.55,1.51,1.51,0,0,0-.8-.2,1.83,1.83,0,0,0-1.26.46,2.3,2.3,0,0,0-.53,1.76v3.68Z" transform="translate(-60.8 -100)"/><path class="n" d="M761.41,151.93l1.18.14a2.87,2.87,0,0,1-1,1.61,3.14,3.14,0,0,1-1.93.57,3.08,3.08,0,0,1-2.35-.91,3.55,3.55,0,0,1-.86-2.55,3.76,3.76,0,0,1,.87-2.65,3,3,0,0,1,2.27-.93,2.85,2.85,0,0,1,2.21.92,3.65,3.65,0,0,1,.86,2.59c0,.06,0,.16,0,.3h-5a2.6,2.6,0,0,0,.62,1.7,1.89,1.89,0,0,0,1.41.59,1.78,1.78,0,0,0,1.08-.33A2.2,2.2,0,0,0,761.41,151.93Zm-3.75-1.85h3.76a2.28,2.28,0,0,0-.43-1.28,1.73,1.73,0,0,0-1.41-.66,1.83,1.83,0,0,0-1.33.53A2.12,2.12,0,0,0,757.66,150.08Z" transform="translate(-60.8 -100)"/><path class="n" d="M764,154.1v-6.74h1v1a2.87,2.87,0,0,1,.73-.95,1.28,1.28,0,0,1,.73-.22,2.28,2.28,0,0,1,1.18.36l-.4,1.06a1.67,1.67,0,0,0-.83-.24,1.11,1.11,0,0,0-.68.22,1.18,1.18,0,0,0-.42.63,4.32,4.32,0,0,0-.19,1.33v3.53Z" transform="translate(-60.8 -100)"/><path class="n" d="M772.75,153.27a4.25,4.25,0,0,1-1.22.76,3.48,3.48,0,0,1-1.26.22,2.43,2.43,0,0,1-1.7-.54,1.79,1.79,0,0,1-.6-1.39,1.87,1.87,0,0,1,.81-1.56,2.6,2.6,0,0,1,.83-.37,8.46,8.46,0,0,1,1-.18,10.82,10.82,0,0,0,2-.39c0-.16,0-.26,0-.3a1.24,1.24,0,0,0-.33-1,1.89,1.89,0,0,0-1.3-.39,2.09,2.09,0,0,0-1.19.28,1.78,1.78,0,0,0-.57,1l-1.11-.15a2.69,2.69,0,0,1,.5-1.16,2.23,2.23,0,0,1,1-.68,4.48,4.48,0,0,1,1.53-.23,4,4,0,0,1,1.4.2,1.61,1.61,0,0,1,1.15,1.29,6.34,6.34,0,0,1,0,1.05v1.52a15.36,15.36,0,0,0,.08,2,2.46,2.46,0,0,0,.29.81H773A2.6,2.6,0,0,1,772.75,153.27Zm-.09-2.55a9,9,0,0,1-1.87.43,3.59,3.59,0,0,0-1,.23.87.87,0,0,0-.45.37.93.93,0,0,0-.16.54,1,1,0,0,0,.34.76,1.52,1.52,0,0,0,1,.31,2.36,2.36,0,0,0,1.17-.29,1.87,1.87,0,0,0,.76-.79,2.84,2.84,0,0,0,.18-1.15Z" transform="translate(-60.8 -100)"/><path class="n" d="M778.08,153.08l.17,1a4.94,4.94,0,0,1-.87.1,2,2,0,0,1-1-.2,1.12,1.12,0,0,1-.49-.52,4.15,4.15,0,0,1-.14-1.35v-3.87H775v-.89h.83v-1.67l1.14-.69v2.36h1.15v.89h-1.15v3.94a2.07,2.07,0,0,0,.06.63.53.53,0,0,0,.2.22.81.81,0,0,0,.39.08A3.52,3.52,0,0,0,778.08,153.08Z" transform="translate(-60.8 -100)"/><path class="n" d="M779.2,146.11v-1.32h1.15v1.32Zm0,8v-6.74h1.15v6.74Z" transform="translate(-60.8 -100)"/><path class="n" d="M781.66,150.73a3.5,3.5,0,0,1,1-2.78,3.18,3.18,0,0,1,2.12-.74,3,3,0,0,1,2.27.91,3.43,3.43,0,0,1,.89,2.51,4.48,4.48,0,0,1-.39,2.05,2.77,2.77,0,0,1-1.14,1.16,3.37,3.37,0,0,1-1.63.41,3,3,0,0,1-2.29-.91A3.61,3.61,0,0,1,781.66,150.73Zm1.17,0a2.86,2.86,0,0,0,.57,1.94,1.81,1.81,0,0,0,1.42.64,1.79,1.79,0,0,0,1.42-.65,3,3,0,0,0,.56-2,2.8,2.8,0,0,0-.57-1.9,1.88,1.88,0,0,0-2.83,0A2.85,2.85,0,0,0,782.83,150.73Z" transform="translate(-60.8 -100)"/><path class="n" d="M789.32,154.1v-6.74h1v1a2.43,2.43,0,0,1,2.15-1.11,2.9,2.9,0,0,1,1.12.21,1.8,1.8,0,0,1,.77.58,2.44,2.44,0,0,1,.35.84,6.88,6.88,0,0,1,.06,1.11v4.15h-1.14V150a3.08,3.08,0,0,0-.13-1.05,1.11,1.11,0,0,0-.48-.55,1.45,1.45,0,0,0-.79-.2,1.83,1.83,0,0,0-1.26.46,2.26,2.26,0,0,0-.53,1.76v3.68Z" transform="translate(-60.8 -100)"/><path class="n" d="M796.09,152.09l1.13-.18a1.56,1.56,0,0,0,.53,1,1.84,1.84,0,0,0,1.21.36,1.74,1.74,0,0,0,1.17-.32.93.93,0,0,0,.38-.75.7.7,0,0,0-.33-.61,5.31,5.31,0,0,0-1.17-.39,9.75,9.75,0,0,1-1.74-.55,1.61,1.61,0,0,1-.74-.64,1.65,1.65,0,0,1-.25-.9,1.74,1.74,0,0,1,.21-.84,1.8,1.8,0,0,1,.56-.64,2.31,2.31,0,0,1,.72-.33,3.54,3.54,0,0,1,1-.13,3.94,3.94,0,0,1,1.39.22,2,2,0,0,1,.89.62,2.4,2.4,0,0,1,.39,1l-1.11.15a1.21,1.21,0,0,0-.44-.81,1.61,1.61,0,0,0-1-.3,1.8,1.8,0,0,0-1.12.27.76.76,0,0,0-.34.6.63.63,0,0,0,.14.4,1,1,0,0,0,.44.31c.12,0,.45.14,1,.29a14.25,14.25,0,0,1,1.69.53,1.73,1.73,0,0,1,.75.6,1.62,1.62,0,0,1,.28,1,1.84,1.84,0,0,1-.34,1.07,2.08,2.08,0,0,1-1,.78,3.4,3.4,0,0,1-1.42.28,3.18,3.18,0,0,1-2-.54A2.58,2.58,0,0,1,796.09,152.09Z" transform="translate(-60.8 -100)"/></g><g class="m"><path class="n" d="M698.72,229.37l1.16-.1a2.65,2.65,0,0,0,.39,1.15,2.11,2.11,0,0,0,.93.72,3.65,3.65,0,0,0,1.43.28,3.45,3.45,0,0,0,1.25-.21,1.7,1.7,0,0,0,.8-.58,1.36,1.36,0,0,0,.26-.79,1.21,1.21,0,0,0-.25-.77,1.89,1.89,0,0,0-.84-.55,14.52,14.52,0,0,0-1.66-.45,8.84,8.84,0,0,1-1.79-.58,2.54,2.54,0,0,1-1-.87,2.17,2.17,0,0,1-.32-1.16,2.3,2.3,0,0,1,.4-1.31,2.4,2.4,0,0,1,1.17-.93,4.26,4.26,0,0,1,1.7-.32,4.74,4.74,0,0,1,1.83.33,2.63,2.63,0,0,1,1.21,1,2.75,2.75,0,0,1,.46,1.47l-1.18.09a1.92,1.92,0,0,0-.64-1.34,2.53,2.53,0,0,0-1.63-.45,2.6,2.6,0,0,0-1.62.41,1.23,1.23,0,0,0-.52,1,1.06,1.06,0,0,0,.37.83,5,5,0,0,0,1.85.66,11.66,11.66,0,0,1,2.06.59,2.87,2.87,0,0,1,1.2.95,2.3,2.3,0,0,1,.39,1.32,2.46,2.46,0,0,1-.43,1.4,2.83,2.83,0,0,1-1.22,1,4.3,4.3,0,0,1-1.79.36,5.3,5.3,0,0,1-2.12-.37,2.92,2.92,0,0,1-1.34-1.11A3.16,3.16,0,0,1,698.72,229.37Z" transform="translate(-60.8 -100)"/><path class="n" d="M712.28,230.19l1.18.15a2.84,2.84,0,0,1-1,1.6,3.14,3.14,0,0,1-1.93.57,3.08,3.08,0,0,1-2.35-.91,3.53,3.53,0,0,1-.86-2.55,3.74,3.74,0,0,1,.87-2.64,3,3,0,0,1,2.27-.94,2.9,2.9,0,0,1,2.21.92,3.66,3.66,0,0,1,.86,2.59c0,.07,0,.17,0,.3h-5a2.65,2.65,0,0,0,.62,1.71,1.89,1.89,0,0,0,1.41.59,1.84,1.84,0,0,0,1.08-.33A2.24,2.24,0,0,0,712.28,230.19Zm-3.75-1.85h3.76a2.24,2.24,0,0,0-.43-1.27,1.73,1.73,0,0,0-1.41-.66,1.82,1.82,0,0,0-1.33.52A2.12,2.12,0,0,0,708.53,228.34Z" transform="translate(-60.8 -100)"/><path class="n" d="M719.19,235v-3.3a2.09,2.09,0,0,1-.74.62,2.25,2.25,0,0,1-1,.24,2.69,2.69,0,0,1-2.07-.95,3.82,3.82,0,0,1-.86-2.63,4.38,4.38,0,0,1,.35-1.82,2.6,2.6,0,0,1,1-1.23,2.81,2.81,0,0,1,1.47-.41,2.27,2.27,0,0,1,2,1.05v-.9h1V235Zm-3.52-6a2.93,2.93,0,0,0,.55,1.95,1.64,1.64,0,0,0,1.3.66,1.61,1.61,0,0,0,1.26-.62,2.88,2.88,0,0,0,.53-1.89,3.14,3.14,0,0,0-.56-2,1.65,1.65,0,0,0-1.3-.68,1.56,1.56,0,0,0-1.26.63A3.05,3.05,0,0,0,715.67,229Z" transform="translate(-60.8 -100)"/><path class="n" d="M726.54,232.36v-1a2.45,2.45,0,0,1-2.14,1.14,2.78,2.78,0,0,1-1.11-.22,2,2,0,0,1-.77-.58,2.27,2.27,0,0,1-.35-.85,5.44,5.44,0,0,1-.07-1.06v-4.18h1.14v3.74a7.4,7.4,0,0,0,.07,1.21,1.18,1.18,0,0,0,.46.7,1.35,1.35,0,0,0,.86.26,1.93,1.93,0,0,0,1-.26,1.53,1.53,0,0,0,.64-.72,3.72,3.72,0,0,0,.18-1.32v-3.61h1.15v6.74Z" transform="translate(-60.8 -100)"/><path class="n" d="M734,230.19l1.18.15a2.89,2.89,0,0,1-1,1.6,3.14,3.14,0,0,1-1.93.57,3.08,3.08,0,0,1-2.35-.91,3.54,3.54,0,0,1-.87-2.55,3.74,3.74,0,0,1,.88-2.64,2.94,2.94,0,0,1,2.27-.94,2.9,2.9,0,0,1,2.21.92,3.66,3.66,0,0,1,.86,2.59c0,.07,0,.17,0,.3h-5a2.65,2.65,0,0,0,.62,1.71,1.89,1.89,0,0,0,1.41.59,1.84,1.84,0,0,0,1.08-.33A2.24,2.24,0,0,0,734,230.19Zm-3.75-1.85H734a2.24,2.24,0,0,0-.43-1.27,1.73,1.73,0,0,0-1.41-.66,1.82,1.82,0,0,0-1.33.52A2.17,2.17,0,0,0,730.22,228.34Z" transform="translate(-60.8 -100)"/><path class="n" d="M736.59,232.36v-6.74h1v1a2.43,2.43,0,0,1,2.15-1.11,2.73,2.73,0,0,1,1.12.22,1.7,1.7,0,0,1,.76.57,2.25,2.25,0,0,1,.36.85,6.88,6.88,0,0,1,.06,1.11v4.14h-1.14v-4.1a3.06,3.06,0,0,0-.13-1,1.07,1.07,0,0,0-.48-.55,1.46,1.46,0,0,0-.79-.21,1.83,1.83,0,0,0-1.26.46,2.31,2.31,0,0,0-.53,1.76v3.68Z" transform="translate(-60.8 -100)"/><path class="n" d="M748.21,229.89l1.13.15a3,3,0,0,1-.94,1.82,2.75,2.75,0,0,1-1.87.65,2.89,2.89,0,0,1-2.22-.9,3.67,3.67,0,0,1-.84-2.59,4.68,4.68,0,0,1,.36-1.91,2.5,2.5,0,0,1,1.1-1.23,3.29,3.29,0,0,1,1.61-.41,2.77,2.77,0,0,1,1.79.55,2.54,2.54,0,0,1,.9,1.58l-1.11.17a1.87,1.87,0,0,0-.56-1,1.46,1.46,0,0,0-1-.34,1.75,1.75,0,0,0-1.4.62,2.92,2.92,0,0,0-.54,2,3,3,0,0,0,.52,2,1.7,1.7,0,0,0,1.36.62,1.57,1.57,0,0,0,1.12-.42A2,2,0,0,0,748.21,229.89Z" transform="translate(-60.8 -100)"/><path class="n" d="M754.93,230.19l1.18.15a2.89,2.89,0,0,1-1,1.6,3.14,3.14,0,0,1-1.93.57,3.08,3.08,0,0,1-2.35-.91,3.54,3.54,0,0,1-.87-2.55,3.74,3.74,0,0,1,.88-2.64,2.94,2.94,0,0,1,2.27-.94,2.9,2.9,0,0,1,2.21.92,3.66,3.66,0,0,1,.86,2.59c0,.07,0,.17,0,.3h-5a2.65,2.65,0,0,0,.62,1.71,1.89,1.89,0,0,0,1.41.59,1.84,1.84,0,0,0,1.08-.33A2.24,2.24,0,0,0,754.93,230.19Zm-3.75-1.85h3.76a2.24,2.24,0,0,0-.43-1.27,1.73,1.73,0,0,0-1.41-.66,1.82,1.82,0,0,0-1.33.52A2.17,2.17,0,0,0,751.18,228.34Z" transform="translate(-60.8 -100)"/><path class="n" d="M757.1,229.57v-1.15h3.51v1.15Z" transform="translate(-60.8 -100)"/><path class="n" d="M764.39,232.36v-8.2h-3.07v-1.1h7.38v1.1h-3.08v8.2Z" transform="translate(-60.8 -100)"/><path class="n" d="M768,229a3.48,3.48,0,0,1,1-2.77,3.14,3.14,0,0,1,2.12-.75,3,3,0,0,1,2.27.91,3.47,3.47,0,0,1,.89,2.52,4.57,4.57,0,0,1-.39,2,2.77,2.77,0,0,1-1.14,1.16,3.26,3.26,0,0,1-1.63.41,3.05,3.05,0,0,1-2.29-.9A3.65,3.65,0,0,1,768,229Zm1.17,0a2.86,2.86,0,0,0,.57,1.94,1.88,1.88,0,0,0,2.84,0,3,3,0,0,0,.56-2,2.77,2.77,0,0,0-.57-1.89,1.88,1.88,0,0,0-2.83,0A2.82,2.82,0,0,0,769.12,229Z" transform="translate(-60.8 -100)"/><path class="n" d="M775.16,229.57v-1.15h3.51v1.15Z" transform="translate(-60.8 -100)"/><path class="n" d="M779.66,229.37l1.16-.1a2.65,2.65,0,0,0,.39,1.15,2.11,2.11,0,0,0,.93.72,3.65,3.65,0,0,0,1.43.28,3.45,3.45,0,0,0,1.25-.21,1.75,1.75,0,0,0,.8-.58,1.36,1.36,0,0,0,.26-.79,1.21,1.21,0,0,0-.25-.77,1.89,1.89,0,0,0-.84-.55,14.52,14.52,0,0,0-1.66-.45,8.84,8.84,0,0,1-1.79-.58,2.54,2.54,0,0,1-1-.87,2.09,2.09,0,0,1-.32-1.16,2.3,2.3,0,0,1,.4-1.31,2.41,2.41,0,0,1,1.16-.93,4.34,4.34,0,0,1,1.71-.32,4.74,4.74,0,0,1,1.83.33,2.63,2.63,0,0,1,1.21,1,2.75,2.75,0,0,1,.46,1.47l-1.18.09a1.93,1.93,0,0,0-.65-1.34,2.48,2.48,0,0,0-1.62-.45,2.64,2.64,0,0,0-1.63.41,1.25,1.25,0,0,0-.51,1,1.06,1.06,0,0,0,.37.83,5,5,0,0,0,1.85.66,11.66,11.66,0,0,1,2.06.59,2.87,2.87,0,0,1,1.2.95,2.3,2.3,0,0,1,.39,1.32,2.46,2.46,0,0,1-.43,1.4,2.83,2.83,0,0,1-1.22,1,4.3,4.3,0,0,1-1.79.36,5.3,5.3,0,0,1-2.12-.37,2.92,2.92,0,0,1-1.34-1.11A3.16,3.16,0,0,1,779.66,229.37Z" transform="translate(-60.8 -100)"/><path class="n" d="M793.22,230.19l1.18.15a2.89,2.89,0,0,1-1,1.6,3.14,3.14,0,0,1-1.93.57,3.08,3.08,0,0,1-2.35-.91,3.54,3.54,0,0,1-.87-2.55,3.74,3.74,0,0,1,.88-2.64,2.94,2.94,0,0,1,2.27-.94,2.9,2.9,0,0,1,2.21.92,3.66,3.66,0,0,1,.86,2.59c0,.07,0,.17,0,.3h-5A2.71,2.71,0,0,0,790,231a1.89,1.89,0,0,0,1.41.59,1.79,1.79,0,0,0,1.07-.33A2.18,2.18,0,0,0,793.22,230.19Zm-3.75-1.85h3.76a2.24,2.24,0,0,0-.43-1.27,1.75,1.75,0,0,0-1.42-.66,1.82,1.82,0,0,0-1.32.52A2.12,2.12,0,0,0,789.47,228.34Z" transform="translate(-60.8 -100)"/><path class="n" d="M800.13,235v-3.3a2.19,2.19,0,0,1-.74.62,2.25,2.25,0,0,1-1,.24,2.69,2.69,0,0,1-2.07-.95,3.78,3.78,0,0,1-.87-2.63,4.38,4.38,0,0,1,.36-1.82,2.6,2.6,0,0,1,1-1.23,2.81,2.81,0,0,1,1.47-.41,2.27,2.27,0,0,1,2,1.05v-.9h1V235Zm-3.52-6a2.93,2.93,0,0,0,.55,1.95,1.64,1.64,0,0,0,1.3.66,1.61,1.61,0,0,0,1.26-.62,2.88,2.88,0,0,0,.53-1.89,3.14,3.14,0,0,0-.56-2,1.65,1.65,0,0,0-1.3-.68,1.56,1.56,0,0,0-1.26.63A3.05,3.05,0,0,0,796.61,229Z" transform="translate(-60.8 -100)"/><path class="n" d="M807.48,232.36v-1a2.45,2.45,0,0,1-2.14,1.14,2.75,2.75,0,0,1-1.11-.22,1.91,1.91,0,0,1-.77-.58,2.12,2.12,0,0,1-.35-.85,5.44,5.44,0,0,1-.07-1.06v-4.18h1.14v3.74a7.4,7.4,0,0,0,.07,1.21,1.18,1.18,0,0,0,.46.7,1.35,1.35,0,0,0,.86.26,1.93,1.93,0,0,0,1-.26,1.46,1.46,0,0,0,.63-.72,3.48,3.48,0,0,0,.19-1.32v-3.61h1.14v6.74Z" transform="translate(-60.8 -100)"/><path class="n" d="M814.91,230.19l1.18.15a2.89,2.89,0,0,1-1,1.6,3.14,3.14,0,0,1-1.93.57,3.08,3.08,0,0,1-2.35-.91,3.54,3.54,0,0,1-.87-2.55,3.74,3.74,0,0,1,.88-2.64,2.94,2.94,0,0,1,2.27-.94,2.9,2.9,0,0,1,2.21.92,3.66,3.66,0,0,1,.86,2.59c0,.07,0,.17,0,.3h-5a2.71,2.71,0,0,0,.63,1.71,1.89,1.89,0,0,0,1.41.59,1.84,1.84,0,0,0,1.08-.33A2.24,2.24,0,0,0,814.91,230.19Zm-3.75-1.85h3.76a2.24,2.24,0,0,0-.43-1.27,1.75,1.75,0,0,0-1.41-.66,1.82,1.82,0,0,0-1.33.52A2.12,2.12,0,0,0,811.16,228.34Z" transform="translate(-60.8 -100)"/><path class="n" d="M817.52,232.36v-6.74h1v1a2.43,2.43,0,0,1,2.15-1.11,2.76,2.76,0,0,1,1.12.22,1.75,1.75,0,0,1,.76.57,2.25,2.25,0,0,1,.36.85,6.88,6.88,0,0,1,.06,1.11v4.14h-1.14v-4.1a3.06,3.06,0,0,0-.13-1,1.07,1.07,0,0,0-.48-.55,1.46,1.46,0,0,0-.79-.21,1.83,1.83,0,0,0-1.26.46,2.27,2.27,0,0,0-.53,1.76v3.68Z" transform="translate(-60.8 -100)"/><path class="n" d="M829.15,229.89l1.13.15a3,3,0,0,1-.95,1.82,2.71,2.71,0,0,1-1.86.65,2.89,2.89,0,0,1-2.22-.9,3.67,3.67,0,0,1-.84-2.59,4.68,4.68,0,0,1,.36-1.91,2.5,2.5,0,0,1,1.1-1.23,3.29,3.29,0,0,1,1.61-.41,2.77,2.77,0,0,1,1.79.55,2.54,2.54,0,0,1,.9,1.58l-1.11.17a1.87,1.87,0,0,0-.56-1,1.46,1.46,0,0,0-1-.34,1.75,1.75,0,0,0-1.4.62,2.92,2.92,0,0,0-.54,2,3,3,0,0,0,.52,2,1.7,1.7,0,0,0,1.36.62,1.57,1.57,0,0,0,1.12-.42A2,2,0,0,0,829.15,229.89Z" transform="translate(-60.8 -100)"/><path class="n" d="M835.87,230.19l1.18.15a2.89,2.89,0,0,1-1,1.6,3.14,3.14,0,0,1-1.93.57,3.08,3.08,0,0,1-2.35-.91,3.54,3.54,0,0,1-.87-2.55,3.74,3.74,0,0,1,.88-2.64,2.94,2.94,0,0,1,2.27-.94,2.9,2.9,0,0,1,2.21.92,3.66,3.66,0,0,1,.86,2.59c0,.07,0,.17,0,.3h-5a2.71,2.71,0,0,0,.63,1.71,1.89,1.89,0,0,0,1.41.59,1.84,1.84,0,0,0,1.08-.33A2.24,2.24,0,0,0,835.87,230.19Zm-3.75-1.85h3.76a2.24,2.24,0,0,0-.43-1.27,1.75,1.75,0,0,0-1.41-.66,1.82,1.82,0,0,0-1.33.52A2.12,2.12,0,0,0,832.12,228.34Z" transform="translate(-60.8 -100)"/></g><g class="m"><path class="n" d="M703.5,293.82v-1.1h3.94v3.45a7,7,0,0,1-1.88,1.09,5.59,5.59,0,0,1-2,.36,5.31,5.31,0,0,1-2.49-.58,3.91,3.91,0,0,1-1.69-1.7,5.36,5.36,0,0,1-.57-2.48,5.76,5.76,0,0,1,.57-2.54,3.85,3.85,0,0,1,1.63-1.75,5.13,5.13,0,0,1,2.46-.57,4.8,4.8,0,0,1,1.82.33,3,3,0,0,1,1.28.91,4,4,0,0,1,.71,1.52l-1.11.31a3.55,3.55,0,0,0-.52-1.12,2.17,2.17,0,0,0-.89-.65,3.35,3.35,0,0,0-1.28-.24,3.78,3.78,0,0,0-1.46.25,2.64,2.64,0,0,0-1,.68,3.1,3.1,0,0,0-.58.92,4.83,4.83,0,0,0-.36,1.87,4.45,4.45,0,0,0,.43,2.08,2.7,2.7,0,0,0,1.25,1.25,3.82,3.82,0,0,0,1.73.4,4.42,4.42,0,0,0,2.72-1v-1.73Z" transform="translate(-60.8 -100)"/><path class="n" d="M709.09,297.47v-6.74h1v1a2.77,2.77,0,0,1,.73-.95,1.29,1.29,0,0,1,.73-.23,2.29,2.29,0,0,1,1.18.37l-.4,1.06a1.69,1.69,0,0,0-.83-.25,1.12,1.12,0,0,0-.68.23,1.19,1.19,0,0,0-.42.62,4.43,4.43,0,0,0-.19,1.34v3.53Z" transform="translate(-60.8 -100)"/><path class="n" d="M717.83,296.63a4.09,4.09,0,0,1-1.22.77,3.71,3.71,0,0,1-1.26.22,2.43,2.43,0,0,1-1.7-.54,1.9,1.9,0,0,1,.21-2.95,2.86,2.86,0,0,1,.83-.38,8.91,8.91,0,0,1,1-.17,10.82,10.82,0,0,0,2-.39c0-.16,0-.26,0-.3a1.23,1.23,0,0,0-.33-1,1.89,1.89,0,0,0-1.3-.39,2,2,0,0,0-1.19.28,1.75,1.75,0,0,0-.57,1l-1.11-.15a2.64,2.64,0,0,1,.5-1.16,2.23,2.23,0,0,1,1-.68,4.47,4.47,0,0,1,1.53-.24,3.93,3.93,0,0,1,1.4.21,1.75,1.75,0,0,1,.79.51,1.78,1.78,0,0,1,.36.77,6.57,6.57,0,0,1,0,1.06v1.52a15.47,15.47,0,0,0,.08,2,2.46,2.46,0,0,0,.29.81h-1.2A2.58,2.58,0,0,1,717.83,296.63Zm-.09-2.55a8.32,8.32,0,0,1-1.87.44,4.12,4.12,0,0,0-1,.22.94.94,0,0,0-.45.38.93.93,0,0,0-.16.54,1,1,0,0,0,.34.76,1.51,1.51,0,0,0,1,.3,2.36,2.36,0,0,0,1.17-.28,1.89,1.89,0,0,0,.76-.8,2.76,2.76,0,0,0,.18-1.14Z" transform="translate(-60.8 -100)"/><path class="n" d="M720.67,300.05v-9.32h1v.87a2.51,2.51,0,0,1,.83-.77,2.29,2.29,0,0,1,1.12-.26,2.65,2.65,0,0,1,1.53.45,2.71,2.71,0,0,1,1,1.25,4.47,4.47,0,0,1,.34,1.77,4.62,4.62,0,0,1-.37,1.87,2.87,2.87,0,0,1-1.08,1.27,2.81,2.81,0,0,1-1.49.44,2.2,2.2,0,0,1-1-.24,2.35,2.35,0,0,1-.74-.61v3.28Zm1-5.92a3,3,0,0,0,.53,1.93,1.61,1.61,0,0,0,1.27.62,1.68,1.68,0,0,0,1.31-.64,3.08,3.08,0,0,0,.54-2,3,3,0,0,0-.53-1.93,1.59,1.59,0,0,0-1.27-.64,1.67,1.67,0,0,0-1.29.68A3.09,3.09,0,0,0,721.7,294.13Z" transform="translate(-60.8 -100)"/><path class="n" d="M727.9,297.47v-9.31H729v3.34a2.54,2.54,0,0,1,2-.93,2.68,2.68,0,0,1,1.3.3,1.77,1.77,0,0,1,.79.81,3.79,3.79,0,0,1,.24,1.52v4.27h-1.15V293.2a1.75,1.75,0,0,0-.37-1.25,1.39,1.39,0,0,0-1-.39,1.79,1.79,0,0,0-1,.26,1.49,1.49,0,0,0-.64.72,3.16,3.16,0,0,0-.19,1.24v3.69Z" transform="translate(-60.8 -100)"/><path class="n" d="M735.13,289.47v-1.31h1.14v1.31Zm0,8v-6.74h1.14v6.74Z" transform="translate(-60.8 -100)"/><path class="n" d="M742.41,295l1.13.14a2.93,2.93,0,0,1-.95,1.82,2.71,2.71,0,0,1-1.86.66,2.87,2.87,0,0,1-2.22-.91,3.65,3.65,0,0,1-.84-2.59,4.72,4.72,0,0,1,.36-1.91,2.54,2.54,0,0,1,1.1-1.23,3.29,3.29,0,0,1,1.61-.41,2.78,2.78,0,0,1,1.79.56,2.51,2.51,0,0,1,.9,1.58l-1.11.17a1.86,1.86,0,0,0-.56-1,1.47,1.47,0,0,0-1-.35,1.79,1.79,0,0,0-1.4.62,2.94,2.94,0,0,0-.54,2,3,3,0,0,0,.52,2,1.7,1.7,0,0,0,1.36.62,1.61,1.61,0,0,0,1.12-.41A2.07,2.07,0,0,0,742.41,295Z" transform="translate(-60.8 -100)"/><path class="n" d="M748.91,296.63a4.09,4.09,0,0,1-1.22.77,3.71,3.71,0,0,1-1.26.22,2.47,2.47,0,0,1-1.71-.54,1.94,1.94,0,0,1-.37-2.29,1.8,1.8,0,0,1,.59-.66,2.93,2.93,0,0,1,.82-.38,9.62,9.62,0,0,1,1-.17,10.82,10.82,0,0,0,2-.39v-.3a1.23,1.23,0,0,0-.32-1,1.91,1.91,0,0,0-1.3-.39,2,2,0,0,0-1.19.28,1.69,1.69,0,0,0-.57,1l-1.12-.15a2.64,2.64,0,0,1,.51-1.16,2.2,2.2,0,0,1,1-.68,4.47,4.47,0,0,1,1.53-.24,4,4,0,0,1,1.41.21,1.75,1.75,0,0,1,.79.51,1.78,1.78,0,0,1,.36.77,8,8,0,0,1,.05,1.06v1.52a15.47,15.47,0,0,0,.08,2,2.44,2.44,0,0,0,.28.81h-1.19A2.58,2.58,0,0,1,748.91,296.63Zm-.09-2.55a8.46,8.46,0,0,1-1.87.44,4.12,4.12,0,0,0-1,.22,1,1,0,0,0-.46.38,1,1,0,0,0-.15.54,1,1,0,0,0,.34.76,1.5,1.5,0,0,0,1,.3,2.39,2.39,0,0,0,1.18-.28,1.81,1.81,0,0,0,.75-.8,2.58,2.58,0,0,0,.19-1.14Z" transform="translate(-60.8 -100)"/><path class="n" d="M751.72,297.47v-9.31h1.14v9.31Z" transform="translate(-60.8 -100)"/><path class="n" d="M758.35,297.47v-9.31h1.86l2.2,6.59c.2.61.35,1.07.44,1.38.11-.34.27-.84.5-1.49l2.23-6.48h1.65v9.31H766v-7.79l-2.7,7.79h-1.11l-2.69-7.93v7.93Z" transform="translate(-60.8 -100)"/><path class="n" d="M768.65,294.1a3.5,3.5,0,0,1,1-2.78,3.14,3.14,0,0,1,2.12-.75,3,3,0,0,1,2.27.91A3.47,3.47,0,0,1,775,294a4.48,4.48,0,0,1-.39,2.05,2.87,2.87,0,0,1-1.13,1.16,3.37,3.37,0,0,1-1.63.41,3,3,0,0,1-2.29-.91A3.62,3.62,0,0,1,768.65,294.1Zm1.17,0a2.86,2.86,0,0,0,.57,1.94,1.83,1.83,0,0,0,1.42.64,1.78,1.78,0,0,0,1.41-.65,2.91,2.91,0,0,0,.57-2,2.78,2.78,0,0,0-.57-1.9,1.88,1.88,0,0,0-2.83,0A2.85,2.85,0,0,0,769.82,294.1Z" transform="translate(-60.8 -100)"/><path class="n" d="M780.68,297.47v-.85a2.1,2.1,0,0,1-1.89,1,2.61,2.61,0,0,1-1.48-.45,2.92,2.92,0,0,1-1-1.24,4.24,4.24,0,0,1-.37-1.83,4.7,4.7,0,0,1,.34-1.83,2.6,2.6,0,0,1,1-1.26,2.69,2.69,0,0,1,1.5-.44,2.24,2.24,0,0,1,1.86.93v-3.34h1.14v9.31Zm-3.62-3.37a3,3,0,0,0,.55,1.94,1.63,1.63,0,0,0,1.29.64,1.6,1.6,0,0,0,1.27-.61,2.82,2.82,0,0,0,.53-1.87,3.14,3.14,0,0,0-.54-2,1.61,1.61,0,0,0-1.31-.65,1.59,1.59,0,0,0-1.27.62A3.08,3.08,0,0,0,777.06,294.1Z" transform="translate(-60.8 -100)"/><path class="n" d="M788.15,295.3l1.18.14a2.88,2.88,0,0,1-1,1.61,3.5,3.5,0,0,1-4.27-.34,3.56,3.56,0,0,1-.87-2.56,3.71,3.71,0,0,1,.88-2.64,3,3,0,0,1,2.27-.94,2.9,2.9,0,0,1,2.21.92,3.68,3.68,0,0,1,.86,2.59c0,.07,0,.17,0,.31h-5a2.6,2.6,0,0,0,.63,1.7,1.89,1.89,0,0,0,1.41.59,1.73,1.73,0,0,0,1.07-.33A2.22,2.22,0,0,0,788.15,295.3Zm-3.75-1.85h3.76a2.28,2.28,0,0,0-.43-1.28,1.75,1.75,0,0,0-1.42-.66A1.83,1.83,0,0,0,785,292,2,2,0,0,0,784.4,293.45Z" transform="translate(-60.8 -100)"/><path class="n" d="M790.74,297.47v-9.31h1.14v9.31Z" transform="translate(-60.8 -100)"/><path class="n" d="M793.19,295.46l1.13-.18a1.61,1.61,0,0,0,.53,1,1.87,1.87,0,0,0,1.22.36,1.83,1.83,0,0,0,1.17-.32,1,1,0,0,0,.38-.75.69.69,0,0,0-.34-.61,5.11,5.11,0,0,0-1.17-.39,10.36,10.36,0,0,1-1.74-.55,1.72,1.72,0,0,1-.78-2.38,1.92,1.92,0,0,1,.56-.64,2.37,2.37,0,0,1,.73-.33,3.53,3.53,0,0,1,1-.14,3.93,3.93,0,0,1,1.39.23,1.89,1.89,0,0,1,.89.62,2.41,2.41,0,0,1,.39,1l-1.12.16a1.25,1.25,0,0,0-.44-.82,1.64,1.64,0,0,0-1-.29,1.86,1.86,0,0,0-1.12.26.76.76,0,0,0-.34.61.65.65,0,0,0,.14.4.94.94,0,0,0,.44.31c.11,0,.45.14,1,.29a13.06,13.06,0,0,1,1.69.53,1.73,1.73,0,0,1,.75.6,1.69,1.69,0,0,1,.27,1,1.9,1.9,0,0,1-.33,1.07,2.08,2.08,0,0,1-1,.78,3.43,3.43,0,0,1-1.42.28,3.15,3.15,0,0,1-2-.55A2.53,2.53,0,0,1,793.19,295.46Z" transform="translate(-60.8 -100)"/></g><g class="m"><path class="n" d="M699.1,389.06v-9.3H701l2.2,6.59c.2.61.35,1.07.44,1.37.11-.33.27-.83.5-1.49l2.23-6.47H708v9.3H706.8v-7.79l-2.71,7.79H703l-2.69-7.92v7.92Z" transform="translate(-60.8 -100)"/><path class="n" d="M714.44,386.89l1.18.15a2.86,2.86,0,0,1-1,1.6,3,3,0,0,1-1.92.58,3.09,3.09,0,0,1-2.35-.92,3.52,3.52,0,0,1-.87-2.55,3.76,3.76,0,0,1,.88-2.64,2.94,2.94,0,0,1,2.27-.94,2.9,2.9,0,0,1,2.21.92,3.66,3.66,0,0,1,.86,2.59c0,.07,0,.17,0,.31h-5a2.68,2.68,0,0,0,.63,1.7,1.89,1.89,0,0,0,1.41.59,1.73,1.73,0,0,0,1.07-.33A2.13,2.13,0,0,0,714.44,386.89Zm-3.75-1.84h3.76a2.25,2.25,0,0,0-.43-1.28,1.75,1.75,0,0,0-1.42-.66,1.83,1.83,0,0,0-1.32.53A2.08,2.08,0,0,0,710.69,385.05Z" transform="translate(-60.8 -100)"/><path class="n" d="M717.05,389.06v-6.74h1v.95a2.35,2.35,0,0,1,2-1.1,2.2,2.2,0,0,1,1.23.31,1.67,1.67,0,0,1,.67.87,2.43,2.43,0,0,1,2.09-1.18,2.06,2.06,0,0,1,1.54.56,2.37,2.37,0,0,1,.54,1.71v4.62h-1.14v-4.24a3.26,3.26,0,0,0-.11-1,1,1,0,0,0-.4-.49,1.31,1.31,0,0,0-.69-.18,1.61,1.61,0,0,0-1.18.47,2.11,2.11,0,0,0-.47,1.52v3.91h-1.14v-4.38a1.9,1.9,0,0,0-.28-1.14,1.07,1.07,0,0,0-.91-.38,1.77,1.77,0,0,0-.9.25,1.44,1.44,0,0,0-.59.75,4.22,4.22,0,0,0-.18,1.41v3.49Z" transform="translate(-60.8 -100)"/><path class="n" d="M727.46,385.69a3.44,3.44,0,0,1,1-2.77,3.14,3.14,0,0,1,2.12-.75,3,3,0,0,1,2.27.91,3.47,3.47,0,0,1,.88,2.52,4.43,4.43,0,0,1-.39,2,2.75,2.75,0,0,1-1.13,1.16,3.27,3.27,0,0,1-1.63.42,3,3,0,0,1-2.29-.91A3.65,3.65,0,0,1,727.46,385.69Zm1.17,0a2.85,2.85,0,0,0,.57,1.94,1.8,1.8,0,0,0,1.42.65,1.78,1.78,0,0,0,1.41-.65,2.91,2.91,0,0,0,.57-2,2.78,2.78,0,0,0-.57-1.9,1.88,1.88,0,0,0-2.83,0A2.82,2.82,0,0,0,728.63,385.69Z" transform="translate(-60.8 -100)"/><path class="n" d="M735.1,389.06v-6.74h1v1a2.69,2.69,0,0,1,.73-.94,1.26,1.26,0,0,1,.73-.23,2.17,2.17,0,0,1,1.17.37l-.39,1.06a1.6,1.6,0,0,0-.84-.25,1.09,1.09,0,0,0-.67.23,1.22,1.22,0,0,0-.43.62,4.7,4.7,0,0,0-.19,1.33v3.53Z" transform="translate(-60.8 -100)"/><path class="n" d="M739.39,391.66l-.13-1.07a2.94,2.94,0,0,0,.66.1,1.2,1.2,0,0,0,.61-.13,1,1,0,0,0,.37-.35,6.14,6.14,0,0,0,.35-.85c0-.07.06-.16.1-.28l-2.56-6.76H740l1.4,3.91c.18.49.34,1,.49,1.56a15.28,15.28,0,0,1,.47-1.54l1.44-3.93H745l-2.56,6.86a15.2,15.2,0,0,1-.64,1.53,2.46,2.46,0,0,1-.7.83,1.72,1.72,0,0,1-.94.26A2.39,2.39,0,0,1,739.39,391.66Z" transform="translate(-60.8 -100)"/><path class="n" d="M745.08,389.22l2.7-9.62h.92L746,389.22Z" transform="translate(-60.8 -100)"/><path class="n" d="M748.68,389.06l3.57-9.3h1.33l3.81,9.3H756l-1.08-2.81H751l-1,2.81Zm2.68-3.82h3.16l-1-2.57c-.3-.79-.52-1.43-.66-1.93a11.79,11.79,0,0,1-.51,1.77Z" transform="translate(-60.8 -100)"/><path class="n" d="M760.72,388l.16,1a4,4,0,0,1-.86.1,2,2,0,0,1-1-.19,1.22,1.22,0,0,1-.49-.52,4.24,4.24,0,0,1-.14-1.35v-3.88h-.83v-.89h.83v-1.67l1.14-.68v2.35h1.15v.89h-1.15v3.94a2,2,0,0,0,.06.63.47.47,0,0,0,.2.22.7.7,0,0,0,.39.09A4,4,0,0,0,760.72,388Z" transform="translate(-60.8 -100)"/><path class="n" d="M764.33,388l.17,1a4.15,4.15,0,0,1-.87.1,2,2,0,0,1-1-.19,1.14,1.14,0,0,1-.48-.52,4,4,0,0,1-.14-1.35v-3.88h-.84v-.89h.84v-1.67l1.13-.68v2.35h1.15v.89h-1.15v3.94a2,2,0,0,0,.06.63.47.47,0,0,0,.2.22.7.7,0,0,0,.39.09A3.79,3.79,0,0,0,764.33,388Z" transform="translate(-60.8 -100)"/><path class="n" d="M770.06,386.89l1.18.15a2.84,2.84,0,0,1-1,1.6,3.48,3.48,0,0,1-4.28-.34,3.56,3.56,0,0,1-.86-2.55,3.75,3.75,0,0,1,.87-2.64,3,3,0,0,1,2.28-.94,2.87,2.87,0,0,1,2.2.92,3.62,3.62,0,0,1,.86,2.59V386h-5a2.57,2.57,0,0,0,.63,1.7,1.86,1.86,0,0,0,1.41.59,1.75,1.75,0,0,0,1.07-.33A2.12,2.12,0,0,0,770.06,386.89Zm-3.75-1.84h3.77a2.25,2.25,0,0,0-.44-1.28,1.73,1.73,0,0,0-1.41-.66,1.79,1.79,0,0,0-1.32.53A2.08,2.08,0,0,0,766.31,385.05Z" transform="translate(-60.8 -100)"/><path class="n" d="M772.68,389.06v-6.74h1v1a2.41,2.41,0,0,1,2.14-1.11,2.73,2.73,0,0,1,1.12.22,1.87,1.87,0,0,1,.77.57,2.09,2.09,0,0,1,.35.85,5.63,5.63,0,0,1,.07,1.11v4.14H777V385a3.06,3.06,0,0,0-.13-1,1.1,1.1,0,0,0-.47-.55,1.49,1.49,0,0,0-.8-.21,1.83,1.83,0,0,0-1.26.46,2.31,2.31,0,0,0-.53,1.76v3.68Z" transform="translate(-60.8 -100)"/><path class="n" d="M782.4,388l.17,1a4.06,4.06,0,0,1-.86.1,2,2,0,0,1-1-.19,1.14,1.14,0,0,1-.48-.52,4,4,0,0,1-.14-1.35v-3.88h-.84v-.89h.84v-1.67l1.13-.68v2.35h1.15v.89h-1.15v3.94a2,2,0,0,0,.06.63.47.47,0,0,0,.2.22.7.7,0,0,0,.39.09A3.64,3.64,0,0,0,782.4,388Z" transform="translate(-60.8 -100)"/><path class="n" d="M783.53,381.07v-1.31h1.14v1.31Zm0,8v-6.74h1.14v6.74Z" transform="translate(-60.8 -100)"/><path class="n" d="M786,385.69a3.48,3.48,0,0,1,1-2.77,3.14,3.14,0,0,1,2.12-.75,3,3,0,0,1,2.28.91,3.51,3.51,0,0,1,.88,2.52,4.43,4.43,0,0,1-.39,2,2.72,2.72,0,0,1-1.14,1.16,3.24,3.24,0,0,1-1.63.42,3,3,0,0,1-2.28-.91A3.61,3.61,0,0,1,786,385.69Zm1.18,0a2.9,2.9,0,0,0,.56,1.94,1.88,1.88,0,0,0,2.84,0,2.91,2.91,0,0,0,.56-2,2.78,2.78,0,0,0-.56-1.9,1.9,1.9,0,0,0-2.84,0A2.87,2.87,0,0,0,787.16,385.69Z" transform="translate(-60.8 -100)"/><path class="n" d="M793.64,389.06v-6.74h1v1a2.41,2.41,0,0,1,2.14-1.11,2.73,2.73,0,0,1,1.12.22,1.87,1.87,0,0,1,.77.57,2.09,2.09,0,0,1,.35.85,5.63,5.63,0,0,1,.07,1.11v4.14H798V385a3.06,3.06,0,0,0-.13-1,1.1,1.1,0,0,0-.47-.55,1.49,1.49,0,0,0-.8-.21,1.83,1.83,0,0,0-1.26.46,2.31,2.31,0,0,0-.53,1.76v3.68Z" transform="translate(-60.8 -100)"/></g><g class="m"><path class="n" d="M699.13,109.9v-9.31h1.26l4.89,7.31v-7.31h1.18v9.31H705.2l-4.89-7.32v7.32Z" transform="translate(-60.8 -100)"/><path class="n" d="M713,107.73l1.18.14a2.88,2.88,0,0,1-1,1.61,3.5,3.5,0,0,1-4.27-.34,3.56,3.56,0,0,1-.87-2.56,3.71,3.71,0,0,1,.88-2.64,3,3,0,0,1,2.27-.94,2.9,2.9,0,0,1,2.21.92,3.68,3.68,0,0,1,.86,2.59c0,.07,0,.17,0,.31h-5a2.6,2.6,0,0,0,.63,1.7,1.89,1.89,0,0,0,1.41.59,1.73,1.73,0,0,0,1.07-.33A2.22,2.22,0,0,0,713,107.73Zm-3.75-1.85H713a2.28,2.28,0,0,0-.43-1.28,1.77,1.77,0,0,0-1.42-.66,1.83,1.83,0,0,0-1.32.53A2,2,0,0,0,709.25,105.88Z" transform="translate(-60.8 -100)"/><path class="n" d="M715.34,106.91l1.16-.1a2.52,2.52,0,0,0,.39,1.14,2.13,2.13,0,0,0,.93.73,3.64,3.64,0,0,0,1.43.27,3.39,3.39,0,0,0,1.24-.21,1.79,1.79,0,0,0,.81-.57,1.39,1.39,0,0,0,.26-.8,1.18,1.18,0,0,0-.25-.76,1.81,1.81,0,0,0-.84-.55,16.14,16.14,0,0,0-1.66-.46A8.24,8.24,0,0,1,717,105a2.52,2.52,0,0,1-1-.86,2.14,2.14,0,0,1-.32-1.16,2.35,2.35,0,0,1,.4-1.32,2.41,2.41,0,0,1,1.16-.93,4.49,4.49,0,0,1,1.71-.32,4.56,4.56,0,0,1,1.83.34,2.57,2.57,0,0,1,1.21,1,2.83,2.83,0,0,1,.46,1.46l-1.18.09a1.91,1.91,0,0,0-.65-1.33,2.48,2.48,0,0,0-1.62-.45,2.57,2.57,0,0,0-1.63.41,1.22,1.22,0,0,0-.51,1,1.07,1.07,0,0,0,.36.83,4.79,4.79,0,0,0,1.86.66,12.36,12.36,0,0,1,2.06.6,2.8,2.8,0,0,1,1.2,1,2.28,2.28,0,0,1,.39,1.32,2.5,2.5,0,0,1-.43,1.4,2.74,2.74,0,0,1-1.22,1,4.31,4.31,0,0,1-1.79.37,5.44,5.44,0,0,1-2.12-.37,3,3,0,0,1-1.34-1.11A3.19,3.19,0,0,1,715.34,106.91Z" transform="translate(-60.8 -100)"/><path class="n" d="M724.23,112.49l-.12-1.07a2.4,2.4,0,0,0,.65.1,1.32,1.32,0,0,0,.61-.12,1.06,1.06,0,0,0,.37-.36,4.69,4.69,0,0,0,.35-.85l.1-.28-2.55-6.75h1.23l1.4,3.9c.18.5.35,1,.49,1.56.13-.52.29-1,.47-1.54l1.44-3.92h1.14L727.25,110a15.2,15.2,0,0,1-.64,1.53,2.37,2.37,0,0,1-.7.83,1.62,1.62,0,0,1-.94.26A2.13,2.13,0,0,1,724.23,112.49Z" transform="translate(-60.8 -100)"/></g><g class="m"><path class="n" d="M699.09,342.05v-9.31h1.23V341h4.58v1.1Z" transform="translate(-60.8 -100)"/><path class="n" d="M706.23,334.06v-1.32h1.14v1.32Zm0,8v-6.74h1.14v6.74Z" transform="translate(-60.8 -100)"/><path class="n" d="M709.11,342.05v-6.74h1v1a2.43,2.43,0,0,1,2.15-1.11,2.76,2.76,0,0,1,1.12.22,1.68,1.68,0,0,1,.76.57,2.28,2.28,0,0,1,.36.84,7.12,7.12,0,0,1,.06,1.12v4.14h-1.14V338a3.29,3.29,0,0,0-.13-1,1.09,1.09,0,0,0-.48-.56,1.45,1.45,0,0,0-.79-.2,1.83,1.83,0,0,0-1.26.46,2.26,2.26,0,0,0-.53,1.76v3.68Z" transform="translate(-60.8 -100)"/><path class="n" d="M721,339.88l1.18.14a2.88,2.88,0,0,1-1,1.61,3.5,3.5,0,0,1-4.27-.34,3.55,3.55,0,0,1-.87-2.55,3.68,3.68,0,0,1,.88-2.64,2.94,2.94,0,0,1,2.27-.94,2.86,2.86,0,0,1,2.21.92,3.65,3.65,0,0,1,.86,2.59c0,.06,0,.17,0,.3h-5a2.6,2.6,0,0,0,.63,1.7,1.86,1.86,0,0,0,1.41.59,1.73,1.73,0,0,0,1.07-.33A2.22,2.22,0,0,0,721,339.88ZM717.21,338H721a2.22,2.22,0,0,0-.43-1.27,1.77,1.77,0,0,0-1.42-.66,1.82,1.82,0,0,0-1.32.52A2,2,0,0,0,717.21,338Z" transform="translate(-60.8 -100)"/><path class="n" d="M728,341.22a4.25,4.25,0,0,1-1.22.76,3.48,3.48,0,0,1-1.26.22,2.47,2.47,0,0,1-1.71-.54,1.79,1.79,0,0,1-.59-1.39,1.82,1.82,0,0,1,.22-.9,1.89,1.89,0,0,1,.59-.66,2.9,2.9,0,0,1,.82-.37,7.56,7.56,0,0,1,1-.17,11.52,11.52,0,0,0,2-.4v-.3a1.24,1.24,0,0,0-.32-1,1.91,1.91,0,0,0-1.3-.39,2.06,2.06,0,0,0-1.19.28,1.72,1.72,0,0,0-.57,1l-1.12-.15a2.81,2.81,0,0,1,.5-1.16,2.28,2.28,0,0,1,1-.68,4.73,4.73,0,0,1,1.53-.23,4,4,0,0,1,1.41.2,1.93,1.93,0,0,1,.79.51,1.7,1.7,0,0,1,.35.78,6,6,0,0,1,.06,1.05v1.53a18.41,18.41,0,0,0,.07,2,2.71,2.71,0,0,0,.29.81H728.2A2.52,2.52,0,0,1,728,341.22Zm-.09-2.55a8.55,8.55,0,0,1-1.87.43,4.25,4.25,0,0,0-1,.23,1,1,0,0,0-.45.37,1,1,0,0,0-.16.54,1,1,0,0,0,.35.76,1.45,1.45,0,0,0,1,.31,2.43,2.43,0,0,0,1.18-.29,1.79,1.79,0,0,0,.75-.79,2.66,2.66,0,0,0,.19-1.15Z" transform="translate(-60.8 -100)"/><path class="n" d="M730.79,342.05v-6.74h1v1a2.75,2.75,0,0,1,.73-.95,1.26,1.26,0,0,1,.73-.22,2.27,2.27,0,0,1,1.17.36l-.39,1.06a1.68,1.68,0,0,0-.84-.24,1.08,1.08,0,0,0-.67.22,1.25,1.25,0,0,0-.43.63,4.64,4.64,0,0,0-.19,1.33v3.53Z" transform="translate(-60.8 -100)"/><path class="n" d="M738.85,342.05v-9.31h1.86l2.2,6.59c.2.62.35,1.08.44,1.38.11-.34.27-.83.5-1.49l2.23-6.48h1.65v9.31h-1.19v-7.79l-2.7,7.79h-1.11L740,334.13v7.92Z" transform="translate(-60.8 -100)"/><path class="n" d="M749.15,338.68a3.48,3.48,0,0,1,1-2.77,3.14,3.14,0,0,1,2.12-.75,3,3,0,0,1,2.27.91,3.43,3.43,0,0,1,.88,2.51,4.48,4.48,0,0,1-.39,2.05,2.81,2.81,0,0,1-1.13,1.16,3.37,3.37,0,0,1-1.63.41,3,3,0,0,1-2.29-.91A3.61,3.61,0,0,1,749.15,338.68Zm1.17,0a2.86,2.86,0,0,0,.57,1.94,1.79,1.79,0,0,0,1.42.64,1.77,1.77,0,0,0,1.41-.64,2.94,2.94,0,0,0,.57-2,2.77,2.77,0,0,0-.57-1.89,1.87,1.87,0,0,0-2.83,0A2.86,2.86,0,0,0,750.32,338.68Z" transform="translate(-60.8 -100)"/><path class="n" d="M761.18,342.05v-.85a2.1,2.1,0,0,1-1.89,1,2.67,2.67,0,0,1-1.48-.44,3,3,0,0,1-1-1.24,4.24,4.24,0,0,1-.37-1.83,4.71,4.71,0,0,1,.34-1.84,2.62,2.62,0,0,1,2.51-1.69,2.28,2.28,0,0,1,1.09.25,2.38,2.38,0,0,1,.77.67v-3.34h1.14v9.31Zm-3.62-3.36a2.94,2.94,0,0,0,.55,1.93,1.63,1.63,0,0,0,1.29.64,1.6,1.6,0,0,0,1.27-.61,2.82,2.82,0,0,0,.53-1.87,3.14,3.14,0,0,0-.54-2,1.63,1.63,0,0,0-1.31-.65,1.59,1.59,0,0,0-1.27.62A3.1,3.1,0,0,0,757.56,338.69Z" transform="translate(-60.8 -100)"/><path class="n" d="M768.65,339.88l1.18.14a2.88,2.88,0,0,1-1,1.61,3.5,3.5,0,0,1-4.27-.34,3.55,3.55,0,0,1-.87-2.55,3.68,3.68,0,0,1,.88-2.64,2.94,2.94,0,0,1,2.27-.94,2.86,2.86,0,0,1,2.21.92,3.65,3.65,0,0,1,.86,2.59c0,.06,0,.17,0,.3h-5a2.6,2.6,0,0,0,.63,1.7,1.86,1.86,0,0,0,1.41.59,1.73,1.73,0,0,0,1.07-.33A2.22,2.22,0,0,0,768.65,339.88ZM764.9,338h3.76a2.22,2.22,0,0,0-.43-1.27,1.75,1.75,0,0,0-1.42-.66,1.82,1.82,0,0,0-1.32.52A2,2,0,0,0,764.9,338Z" transform="translate(-60.8 -100)"/><path class="n" d="M771.24,342.05v-9.31h1.14v9.31Z" transform="translate(-60.8 -100)"/><path class="n" d="M773.69,340l1.13-.18a1.61,1.61,0,0,0,.53,1,1.87,1.87,0,0,0,1.22.36,1.78,1.78,0,0,0,1.17-.32,1,1,0,0,0,.38-.75.69.69,0,0,0-.34-.61,5.11,5.11,0,0,0-1.17-.39,10.36,10.36,0,0,1-1.74-.55,1.66,1.66,0,0,1-.74-.64,1.76,1.76,0,0,1,0-1.74,1.89,1.89,0,0,1,.56-.63,2.37,2.37,0,0,1,.73-.34,3.54,3.54,0,0,1,1-.13,3.94,3.94,0,0,1,1.39.22,2,2,0,0,1,.89.62,2.4,2.4,0,0,1,.39,1.05l-1.12.15a1.21,1.21,0,0,0-.44-.81,1.58,1.58,0,0,0-1-.29,1.79,1.79,0,0,0-1.12.26.73.73,0,0,0-.34.61.67.67,0,0,0,.14.4,1,1,0,0,0,.44.3c.11,0,.45.14,1,.29a14.9,14.9,0,0,1,1.69.53,1.73,1.73,0,0,1,.75.6,1.69,1.69,0,0,1,.27,1,2,2,0,0,1-.33,1.08,2.21,2.21,0,0,1-1,.78,3.59,3.59,0,0,1-1.42.27,3.21,3.21,0,0,1-2-.54A2.58,2.58,0,0,1,773.69,340Z" transform="translate(-60.8 -100)"/></g><g class="m"><path class="n" d="M699.16,421.67v-9.31h4.13a5.66,5.66,0,0,1,1.89.25,2.11,2.11,0,0,1,1,.89,2.62,2.62,0,0,1,.39,1.4,2.33,2.33,0,0,1-.64,1.67,3.26,3.26,0,0,1-2,.86,3.53,3.53,0,0,1,.74.47,6.41,6.41,0,0,1,1,1.23l1.62,2.54h-1.55l-1.23-1.94c-.36-.56-.66-1-.89-1.28a2.75,2.75,0,0,0-.62-.62,1.91,1.91,0,0,0-.57-.25,3.61,3.61,0,0,0-.68,0h-1.43v4.13Zm1.23-5.2H703a3.88,3.88,0,0,0,1.32-.18,1.35,1.35,0,0,0,.72-.55,1.5,1.5,0,0,0,.25-.84,1.37,1.37,0,0,0-.48-1.08,2.2,2.2,0,0,0-1.51-.43h-3Z" transform="translate(-60.8 -100)"/><path class="n" d="M708.48,421.67v-9.31h1.23v8.21h4.58v1.1Z" transform="translate(-60.8 -100)"/></g></svg>