<?xml version="1.0" encoding="utf-8"?>
<!-- Generator: Adobe Illustrator 26.0.2, SVG Export Plug-In . SVG Version: 6.00 Build 0)  -->
<svg version="1.1" id="Layer_1" xmlns="http://www.w3.org/2000/svg" xmlns:xlink="http://www.w3.org/1999/xlink" x="0px" y="0px"
	 viewBox="0 0 600 500" style="enable-background:new 0 0 600 500;" xml:space="preserve">
<style type="text/css">
	.st0{fill:#89B79F;}
	.st1{fill:#9C4397;}
	.st2{fill:#89B79F;stroke:#89B79F;}
	.st3{fill:#FF2F6D;}
	.st4{fill:#57BCD6;}
	.st5{fill:#450256;}
	.st6{fill:#9C4397;stroke:#9C4397;}
	.st7{fill:#333333;stroke:#444444;stroke-width:0.5;}
	.st8{fill:#333333;}
	.st9{font-family:'ArialMT';}
	.st10{font-size:13px;}
</style>
<path class="st0" d="M90,272.5c102.5,0,102.5-1.2,205-1.2v3.3c-102.5,0-102.5,1.2-205,1.2V272.5z"/>
<path class="st0" d="M90,294.1c210,0-4-222.4,206-222.4v3.3c-210,0,4,222.4-206,222.4V294.1z"/>
<path class="st0" d="M90,245.8c102.5,0,102.5-66.8,205-66.8v3.3c-102.5,0-102.5,66.8-205,66.8V245.8z"/>
<path class="st1" d="M90,327.2c102.5,0,102.5-12.9,205-12.9v3.3c-102.5,0-102.5,12.9-205,12.9V327.2z"/>
<path class="st1" d="M305,309.4c102.5,0,102.5-49.5,205-49.5v1.1c-102.5,0-102.5,49.5-205,49.5V309.4z"/>
<path class="st1" d="M305,314.9c102.5,0,102.5,79,205,79v1.1c-102.5,0-102.5-79-205-79V314.9z"/>
<path class="st1" d="M305,313.8c102.5,0,102.5,34.2,205,34.2v1.1c-102.5,0-102.5-34.2-205-34.2V313.8z"/>
<path class="st0" d="M90,297.5c102.5,0,102.5,11.9,205,11.9v3.3c-102.5,0-102.5-11.9-205-11.9V297.5z"/>
<path class="st0" d="M305,310.5c102.5,0,102.5-49.5,205-49.5v3.3c-102.5,0-102.5,49.5-205,49.5V310.5z"/>
<path class="st0" d="M90,275.8c102.5,0,102.5-1.2,205-1.2v1.7c-102.5,0-102.5,1.2-205,1.2V275.8z"/>
<path class="st0" d="M90,300.8c102.5,0,102.5,11.9,205,11.9v1.7c-102.5,0-102.5-11.9-205-11.9V300.8z"/>
<path class="st0" d="M90,302.5c102.5,0,102.5,31.6,205,31.6v3.3c-102.5,0-102.5-31.6-205-31.6V302.5z"/>
<path class="st0" d="M90,277.5c102.5,0,102.5-1.2,205-1.2v3.3c-102.5,0-102.5,1.2-205,1.2V277.5z"/>
<path class="st2" d="M305,278.8c102.5,0,102.5,112.6,205,112.6v0.8c-102.5,0-102.5-112.6-205-112.6V278.8z"/>
<path class="st2" d="M305,277.1c102.5,0,102.5,70,205,70v0.8c-102.5,0-102.5-70-205-70V277.1z"/>
<path class="st2" d="M305,274.6c102.5,0,102.5,42.2,205,42.2v0.8c-102.5,0-102.5-42.2-205-42.2V274.6z"/>
<path class="st2" d="M305,277.9c102.5,0,102.5,94,205,94v0.8c-102.5,0-102.5-94-205-94V277.9z"/>
<path class="st1" d="M90,330.5c102.5,0,102.5,11.9,205,11.9v3.3c-102.5,0-102.5-11.9-205-11.9V330.5z"/>
<path class="st1" d="M305,334.1c102.5,0,102.5-69.8,205-69.8v1.7c-102.5,0-102.5,69.8-205,69.8V334.1z"/>
<path class="st1" d="M305,349.7c102.5,0,102.5-0.6,205-0.6v1.7c-102.5,0-102.5,0.6-205,0.6V349.7z"/>
<path class="st0" d="M90,262.5c102.5,0,102.5-50.4,205-50.4v3.3c-102.5,0-102.5,50.4-205,50.4V262.5z"/>
<path class="st0" d="M305,212.1c102.5,0,102.5,39.5,205,39.5v1.7c-102.5,0-102.5-39.5-205-39.5V212.1z"/>
<path class="st0" d="M305,213.7c102.5,0,102.5,99.8,205,99.8v1.7c-102.5,0-102.5-99.8-205-99.8V213.7z"/>
<path class="st0" d="M90,269.1c102.5,0,102.5-17.6,205-17.6v3.3c-102.5,0-102.5,17.6-205,17.6V269.1z"/>
<path class="st0" d="M305,251.5c102.5,0,102.5,3.3,205,3.3v1.7c-102.5,0-102.5-3.3-205-3.3V251.5z"/>
<path class="st0" d="M305,253.2c102.5,0,102.5,92.3,205,92.3v1.7c-102.5,0-102.5-92.3-205-92.3V253.2z"/>
<path class="st3" d="M90,401.4c102.5,0,102.5-4.5,205-4.5v3.3c-102.5,0-102.5,4.5-205,4.5V401.4z"/>
<path class="st3" d="M305,396.9c102.5,0,102.5-121.2,205-121.2v1.7c-102.5,0-102.5,121.2-205,121.2V396.9z"/>
<path class="st3" d="M305,398.6c102.5,0,102.5-1.1,205-1.1v1.7c-102.5,0-102.5,1.1-205,1.1V398.6z"/>
<path class="st0" d="M90,249.1c102.5,0,102.5-66.8,205-66.8v3.3c-102.5,0-102.5,66.8-205,66.8V249.1z"/>
<path class="st0" d="M305,179c102.5,0,102.5,62.6,205,62.6v3.3c-102.5,0-102.5-62.6-205-62.6V179z"/>
<path class="st0" d="M90,232.5c102.5,0,102.5-132.5,205-132.5v3.3c-102.5,0-102.5,132.5-205,132.5V232.5z"/>
<path class="st0" d="M305,100c102.5,0,102.5,128.2,205,128.2v3.3c-102.5,0-102.5-128.2-205-128.2V100z"/>
<path class="st1" d="M90,333.9c102.5,0,102.5,11.9,205,11.9v3.3c-102.5,0-102.5-11.9-205-11.9V333.9z"/>
<path class="st1" d="M305,335.8c102.5,0,102.5-69.8,205-69.8v1.1c-102.5,0-102.5,69.8-205,69.8V335.8z"/>
<path class="st1" d="M305,351.3c102.5,0,102.5-0.6,205-0.6v1.1c-102.5,0-102.5,0.6-205,0.6V351.3z"/>
<path class="st1" d="M305,342.7c102.5,0,102.5-23.4,205-23.4v1.1c-102.5,0-102.5,23.4-205,23.4V342.7z"/>
<path class="st0" d="M90,252.5c102.5,0,102.5-66.8,205-66.8v3.3c-102.5,0-102.5,66.8-205,66.8V252.5z"/>
<path class="st0" d="M305,182.3c102.5,0,102.5,62.6,205,62.6v1.7c-102.5,0-102.5-62.6-205-62.6V182.3z"/>
<path class="st0" d="M305,190.6c102.5,0,102.5,179.6,205,179.6v1.7c-102.5,0-102.5-179.6-205-179.6V190.6z"/>
<path class="st0" d="M90,280.8c102.5,0,102.5-1.2,205-1.2v3.3c-102.5,0-102.5,1.2-205,1.2V280.8z"/>
<path class="st0" d="M305,271.3c102.5,0,102.5-14.7,205-14.7v3.3c-102.5,0-102.5,14.7-205,14.7V271.3z"/>
<path class="st0" d="M90,284.1c102.5,0,102.5-1.2,205-1.2v3.3c-102.5,0-102.5,1.2-205,1.2V284.1z"/>
<path class="st0" d="M305,279.6c102.5,0,102.5,112.6,205,112.6v1.7c-102.5,0-102.5-112.6-205-112.6V279.6z"/>
<path class="st0" d="M305,275.4c102.5,0,102.5,42.2,205,42.2v1.7c-102.5,0-102.5-42.2-205-42.2V275.4z"/>
<path class="st0" d="M90,287.5c102.5,0,102.5-1.2,205-1.2v3.3c-102.5,0-102.5,1.2-205,1.2V287.5z"/>
<path class="st0" d="M90,255.8c102.5,0,102.5-66.8,205-66.8v3.3c-102.5,0-102.5,66.8-205,66.8V255.8z"/>
<path class="st0" d="M305,184c102.5,0,102.5,62.6,205,62.6v3.3c-102.5,0-102.5-62.6-205-62.6V184z"/>
<path class="st4" d="M90,375c102.5,0,102.5-20.9,205-20.9v3.3c-102.5,0-102.5,20.9-205,20.9V375z"/>
<path class="st4" d="M305,336.9c102.5,0,102.5-69.8,205-69.8v1.7c-102.5,0-102.5,69.8-205,69.8V336.9z"/>
<path class="st4" d="M305,343.8c102.5,0,102.5-23.4,205-23.4v1.7c-102.5,0-102.5,23.4-205,23.4V343.8z"/>
<path class="st0" d="M90,259.1c102.5,0,102.5-66.8,205-66.8v3.3c-102.5,0-102.5,66.8-205,66.8V259.1z"/>
<path class="st0" d="M305,187.3c102.5,0,102.5,62.6,205,62.6v1.7c-102.5,0-102.5-62.6-205-62.6V187.3z"/>
<path class="st0" d="M305,189c102.5,0,102.5,154.9,205,154.9v1.7c-102.5,0-102.5-154.9-205-154.9V189z"/>
<path class="st0" d="M90,235.8c102.5,0,102.5-116.1,205-116.1v3.3c-102.5,0-102.5,116.1-205,116.1V235.8z"/>
<path class="st0" d="M305,119.7c102.5,0,102.5,111.8,205,111.8v3.3c-102.5,0-102.5-111.8-205-111.8V119.7z"/>
<path class="st0" d="M90,239.1c102.5,0,102.5-99.6,205-99.6v3.3c-102.5,0-102.5,99.6-205,99.6V239.1z"/>
<path class="st0" d="M305,139.5c102.5,0,102.5,95.4,205,95.4v3.3c-102.5,0-102.5-95.4-205-95.4V139.5z"/>
<path class="st0" d="M90,265.8c102.5,0,102.5-34,205-34v3.3c-102.5,0-102.5,34-205,34V265.8z"/>
<path class="st0" d="M305,231.8c102.5,0,102.5,21.4,205,21.4v1.7c-102.5,0-102.5-21.4-205-21.4V231.8z"/>
<path class="st0" d="M305,233.5c102.5,0,102.5,81.7,205,81.7v1.7c-102.5,0-102.5-81.7-205-81.7V233.5z"/>
<path class="st5" d="M90,355.3c102.5,0,102.5-4.5,205-4.5v3.3c-102.5,0-102.5,4.5-205,4.5V355.3z"/>
<path class="st5" d="M305,345.5c102.5,0,102.5-23.4,205-23.4v3.3c-102.5,0-102.5,23.4-205,23.4V345.5z"/>
<path class="st0" d="M90,242.5c102.5,0,102.5-83.2,205-83.2v3.3c-102.5,0-102.5,83.2-205,83.2V242.5z"/>
<path class="st0" d="M305,159.2c102.5,0,102.5,79,205,79v3.3c-102.5,0-102.5-79-205-79V159.2z"/>
<path class="st0" d="M90,305.8c102.5,0,102.5,31.6,205,31.6v1.7c-102.5,0-102.5-31.6-205-31.6V305.8z"/>
<path class="st1" d="M90,337.2c102.5,0,102.5,11.9,205,11.9v1.7c-102.5,0-102.5-11.9-205-11.9V337.2z"/>
<path class="st6" d="M305,338.5c102.5,0,102.5-69.8,205-69.8v0.8c-102.5,0-102.5,69.8-205,69.8V338.5z"/>
<path class="st6" d="M305,353.3c102.5,0,102.5,41.7,205,41.7v0.8c-102.5,0-102.5-41.7-205-41.7V353.3z"/>
<path class="st6" d="M305,352.4c102.5,0,102.5-0.6,205-0.6v0.8c-102.5,0-102.5,0.6-205,0.6V352.4z"/>
<path class="st6" d="M305,348.8c102.5,0,102.5-23.4,205-23.4v0.8c-102.5,0-102.5,23.4-205,23.4V348.8z"/>
<path class="st0" d="M90,307.5c102.5,0,102.5,31.6,205,31.6v3.3c-102.5,0-102.5-31.6-205-31.6V307.5z"/>
<path class="st0" d="M305,339.4c102.5,0,102.5-69.8,205-69.8v3.3c-102.5,0-102.5,69.8-205,69.8V339.4z"/>
<path class="st3" d="M90,408.1c210,0-2,44.6,208,44.6v3.3c-210,0,2-44.6-208-44.6V408.1z"/>
<path class="st0" d="M90,290.8c102.5,0,102.5-1.2,205-1.2v3.3c-102.5,0-102.5,1.2-205,1.2V290.8z"/>
<path class="st3" d="M90,404.8c102.5,0,102.5,11.9,205,11.9v3.3c-102.5,0-102.5-11.9-205-11.9V404.8z"/>
<path class="st3" d="M305,418.9c102.5,0,102.5-19.7,205-19.7v1.1c-102.5,0-102.5,19.7-205,19.7V418.9z"/>
<path class="st3" d="M305,416.7c102.5,0,102.5-90.4,205-90.4v1.1c-102.5,0-102.5,90.4-205,90.4V416.7z"/>
<path class="st3" d="M305,417.8c102.5,0,102.5-43.9,205-43.9v1.1c-102.5,0-102.5,43.9-205,43.9V417.8z"/>
<path class="st3" d="M90,394.8c102.5,0,102.5-20.9,205-20.9v3.3c-102.5,0-102.5,20.9-205,20.9V394.8z"/>
<path class="st3" d="M305,373.8c102.5,0,102.5-100.9,205-100.9v1.1C407.5,274,407.5,375,305,375V373.8z"/>
<path class="st3" d="M305,376.6c102.5,0,102.5-23.9,205-23.9v1.1c-102.5,0-102.5,23.9-205,23.9V376.6z"/>
<path class="st3" d="M305,377.7c102.5,0,102.5-5,205-5v1.1c-102.5,0-102.5,5-205,5V377.7z"/>
<path class="st3" d="M90,398.1c102.5,0,102.5-20.9,205-20.9v3.3c-102.5,0-102.5,20.9-205,20.9V398.1z"/>
<path class="st3" d="M305,375C407.5,375,407.5,274,510,274v1.7c-102.5,0-102.5,100.9-205,100.9V375z"/>
<path class="st3" d="M305,378.8c102.5,0,102.5,17,205,17v1.7c-102.5,0-102.5-17-205-17V378.8z"/>
<rect x="510" y="228.2" class="st7" width="10" height="49.2"/>
<text transform="matrix(1 0 0 1 529.7539 256.3383)" class="st8 st9 st10">reasoning</text>
<rect x="510" y="391.4" class="st7" width="10" height="8.9"/>
<text transform="matrix(1 0 0 1 529.7539 399.3625)" class="st8 st9 st10">OOD generalization</text>
<rect x="510" y="343.8" class="st7" width="10" height="10"/>
<text transform="matrix(1 0 0 1 529.7539 352.375)" class="st8 st9 st10">interpretability</text>
<rect x="510" y="313.5" class="st7" width="10" height="13.9"/>
<text transform="matrix(1 0 0 1 529.7539 324.0204)" class="st8 st9 st10">reduced data</text>
<rect x="510" y="370.2" class="st7" width="10" height="4.7"/>
<text transform="matrix(1 0 0 1 529.7539 376.1461)" class="st8 st9 st10">transferability</text>
<rect x="80" y="355.3" class="st7" width="10" height="3.3"/>
<text transform="matrix(1 0 0 1 -55.0308 361.5067)" class="st8 st9 st10">information extraction</text>
<rect x="80" y="375" class="st7" width="10" height="3.3"/>
<text transform="matrix(1 0 0 1 -27.5771 381.2497)" class="st8 st9 st10">recommendation</text>
<rect x="80" y="232.5" class="st7" width="10" height="78.3"/>
<text transform="matrix(1 0 0 1 -4.4463 276.1857)" class="st8 st9 st10">classification</text>
<rect x="80" y="327.2" class="st7" width="10" height="11.7"/>
<text transform="matrix(1 0 0 1 15.771 337.5963)" class="st8 st9 st10">inference</text>
<rect x="80" y="394.8" class="st7" width="10" height="16.7"/>
<text transform="matrix(1 0 0 1 8.541 407.6603)" class="st8 st9 st10">generative</text>
<rect x="295" y="179" class="st7" width="10" height="16.7"/>
<text transform="matrix(1 0 0 1 248.4453 202.8574)" class="st8 st9 st10">Sentiment analysis</text>
<rect x="295" y="416.7" class="st7" width="10" height="3.3"/>
<text transform="matrix(1 0 0 1 270.8457 433.8837)" class="st8 st9 st10">Translation</text>
<rect x="295" y="212.1" class="st7" width="10" height="3.3"/>
<text transform="matrix(1 0 0 1 213.0347 229.2676)" class="st8 st9 st10">Topic modeling / categorization</text>
<rect x="295" y="100" class="st7" width="10" height="3.3"/>
<text transform="matrix(1 0 0 1 262.1816 117.2167)" class="st8 st9 st10">Dialog system</text>
<rect x="295" y="231.8" class="st7" width="10" height="3.3"/>
<text transform="matrix(1 0 0 1 271.9189 249.0117)" class="st8 st9 st10">Annotation</text>
<rect x="295" y="119.7" class="st7" width="10" height="3.3"/>
<text transform="matrix(1 0 0 1 227.8467 136.9607)" class="st8 st9 st10">Cause-effect Identification</text>
<rect x="295" y="271.3" class="st7" width="10" height="21.7"/>
<text transform="matrix(1 0 0 1 251.7046 297.6653)" class="st8 st9 st10">Text classification</text>
<rect x="295" y="309.4" class="st7" width="10" height="8.3"/>
<text transform="matrix(1 0 0 1 213.7646 329.0757)" class="st8 st9 st10">KG Completion / link prediction</text>
<rect x="295" y="396.9" class="st7" width="10" height="3.3"/>
<text transform="matrix(1 0 0 1 246.29 414.1397)" class="st8 st9 st10">Text summarization</text>
<rect x="295" y="139.5" class="st7" width="10" height="3.3"/>
<text transform="matrix(1 0 0 1 249.1655 156.7037)" class="st8 st9 st10">Relation extraction</text>
<rect x="298" y="452.7" class="st7" width="10" height="3.3"/>
<text transform="matrix(1 0 0 1 317.7539 457.8837)" class="st8 st9 st10">Image captioning</text>
<rect x="295" y="159.2" class="st7" width="10" height="3.3"/>
<text transform="matrix(1 0 0 1 240.498 176.4477)" class="st8 st9 st10">Information extraction</text>
<rect x="295" y="251.5" class="st7" width="10" height="3.3"/>
<text transform="matrix(1 0 0 1 255.3135 268.7547)" class="st8 st9 st10">Decision making</text>
<rect x="295" y="334.1" class="st7" width="10" height="23.3"/>
<text transform="matrix(1 0 0 1 245.5508 361.3197)" class="st8 st9 st10">Question answering</text>
<rect x="296" y="71.8" class="st7" width="10" height="3.3"/>
<text transform="matrix(1 0 0 1 315.7539 76.9987)" class="st8 st9 st10">Fact verification</text>
<rect x="295" y="373.8" class="st7" width="10" height="6.7"/>
<text transform="matrix(1 0 0 1 251.3301 392.7293)" class="st8 st9 st10">Textual reasoning</text>
</svg>
